$MeshFormat
4.1 0 8
$EndMeshFormat
$PhysicalNames
3
1 2 "fixed"
1 3 "loaded_edge"
2 1 "shell"
$EndPhysicalNames
$Entities
0 2 1 0
100 0 0 0 0 0.44 0 1 2 0 
101 0.48 0.44 0 0.48 0.6 0 1 3 0 
1 0 0 0 0.48 0.6 0 1 1 0 
$EndEntities
$Nodes
3 289 1 289
1 100 0 0
1 101 0 0
2 1 0 289
1
2
3
4
5
6
7
8
9
10
11
12
13
14
15
16
17
18
19
20
21
22
23
24
25
26
27
28
29
30
31
32
33
34
35
36
37
38
39
40
41
42
43
44
45
46
47
48
49
50
51
52
53
54
55
56
57
58
59
60
61
62
63
64
65
66
67
68
69
70
71
72
73
74
75
76
77
78
79
80
81
82
83
84
85
86
87
88
89
90
91
92
93
94
95
96
97
98
99
100
101
102
103
104
105
106
107
108
109
110
111
112
113
114
115
116
117
118
119
120
121
122
123
124
125
126
127
128
129
130
131
132
133
134
135
136
137
138
139
140
141
142
143
144
145
146
147
148
149
150
151
152
153
154
155
156
157
158
159
160
161
162
163
164
165
166
167
168
169
170
171
172
173
174
175
176
177
178
179
180
181
182
183
184
185
186
187
188
189
190
191
192
193
194
195
196
197
198
199
200
201
202
203
204
205
206
207
208
209
210
211
212
213
214
215
216
217
218
219
220
221
222
223
224
225
226
227
228
229
230
231
232
233
234
235
236
237
238
239
240
241
242
243
244
245
246
247
248
249
250
251
252
253
254
255
256
257
258
259
260
261
262
263
264
265
266
267
268
269
270
271
272
273
274
275
276
277
278
279
280
281
282
283
284
285
286
287
288
289
0 0 0
0 0.0275 0
0 0.055 0
0 0.0825 0
0 0.11 0
0 0.1375 0
0 0.165 0
0 0.1925 0
0 0.22 0
0 0.2475 0
0 0.275 0
0 0.3025 0
0 0.33 0
0 0.3575 0
0 0.385 0
0 0.4125 0
0 0.44 0
0.03 0.0275 0
0.03 0.05390625 0
0.03 0.0803125 0
0.03 0.10671875 0
0.03 0.133125 0
0.03 0.15953125 0
0.03 0.1859375 0
0.03 0.21234375 0
0.03 0.23875 0
0.03 0.26515625 0
0.03 0.2915625 0
0.03 0.31796875 0
0.03 0.344375 0
0.03 0.37078125 0
0.03 0.3971875 0
0.03 0.42359375 0
0.03 0.45 0
0.06 0.055 0
0.06 0.0803125 0
0.06 0.105625 0
0.06 0.1309375 0
0.06 0.15625 0
0.06 0.1815625 0
0.06 0.206875 0
0.06 0.2321875 0
0.06 0.2575 0
0.06 0.2828125 0
0.06 0.308125 0
0.06 0.3334375000000001 0
0.06 0.35875 0
0.06 0.3840625 0
0.06 0.409375 0
0.06 0.4346875 0
0.06 0.46 0
0.09 0.0825 0
0.09 0.10671875 0
0.09 0.1309375 0
0.09 0.15515625 0
0.09 0.179375 0
0.09 0.20359375 0
0.09 0.2278125 0
0.09 0.25203125 0
0.09 0.27625 0
0.09 0.30046875 0
0.09 0.3246875 0
0.09 0.34890625 0
0.09 0.373125 0
0.09 0.39734375 0
0.09 0.4215625 0
0.09 0.44578125 0
0.09 0.47 0
0.12 0.11 0
0.12 0.133125 0
0.12 0.15625 0
0.12 0.179375 0
0.12 0.2025 0
0.12 0.225625 0
0.12 0.24875 0
0.12 0.271875 0
0.12 0.295 0
0.12 0.318125 0
0.12 0.34125 0
0.12 0.364375 0
0.12 0.3875 0
0.12 0.410625 0
0.12 0.43375 0
0.12 0.456875 0
0.12 0.48 0
0.15 0.1375 0
0.15 0.15953125 0
0.15 0.1815625 0
0.15 0.20359375 0
0.15 0.225625 0
0.15 0.24765625 0
0.15 0.2696875 0
0.15 0.29171875 0
0.15 0.31375 0
0.15 0.33578125 0
0.15 0.3578125 0
0.15 0.37984375 0
0.15 0.401875 0
0.15 0.42390625 0
0.15 0.4459375 0
0.15 0.46796875 0
0.15 0.49 0
0.18 0.165 0
0.18 0.1859375 0
0.18 0.206875 0
0.18 0.2278125 0
0.18 0.24875 0
0.18 0.2696875 0
0.18 0.290625 0
0.18 0.3115625 0
0.18 0.3325 0
0.18 0.3534375 0
0.18 0.374375 0
0.18 0.3953125 0
0.18 0.41625 0
0.18 0.4371875 0
0.18 0.458125 0
0.18 0.4790625 0
0.18 0.5 0
0.21 0.1925 0
0.21 0.21234375 0
0.21 0.2321875 0
0.21 0.25203125 0
0.21 0.271875 0
0.21 0.29171875 0
0.21 0.3115625 0
0.21 0.33140625 0
0.21 0.35125 0
0.21 0.37109375 0
0.21 0.3909375 0
0.21 0.41078125 0
0.21 0.430625 0
0.21 0.45046875 0
0.21 0.4703125 0
0.21 0.49015625 0
0.21 0.51 0
0.24 0.22 0
0.24 0.23875 0
0.24 0.2575 0
0.24 0.27625 0
0.24 0.295 0
0.24 0.31375 0
0.24 0.3325 0
0.24 0.35125 0
0.24 0.37 0
0.24 0.38875 0
0.24 0.4075 0
0.24 0.42625 0
0.24 0.445 0
0.24 0.46375 0
0.24 0.4825 0
0.24 0.50125 0
0.24 0.52 0
0.27 0.2475 0
0.27 0.26515625 0
0.27 0.2828125 0
0.27 0.30046875 0
0.27 0.318125 0
0.27 0.33578125 0
0.27 0.3534375 0
0.27 0.37109375 0
0.27 0.38875 0
0.27 0.40640625 0
0.27 0.4240625 0
0.27 0.44171875 0
0.27 0.459375 0
0.27 0.47703125 0
0.27 0.4946874999999999 0
0.27 0.51234375 0
0.27 0.53 0
0.3 0.275 0
0.3 0.2915625 0
0.3 0.308125 0
0.3 0.3246875 0
0.3 0.34125 0
0.3 0.3578125 0
0.3 0.374375 0
0.3 0.3909375 0
0.3 0.4075 0
0.3 0.4240625 0
0.3 0.440625 0
0.3 0.4571875 0
0.3 0.47375 0
0.3 0.4903125 0
0.3 0.506875 0
0.3 0.5234375 0
0.3 0.54 0
0.33 0.3025 0
0.33 0.31796875 0
0.33 0.3334375000000001 0
0.33 0.34890625 0
0.33 0.3643749999999999 0
0.33 0.37984375 0
0.33 0.3953125 0
0.33 0.41078125 0
0.33 0.42625 0
0.33 0.44171875 0
0.33 0.4571875 0
0.33 0.47265625 0
0.33 0.488125 0
0.33 0.50359375 0
0.33 0.5190625 0
0.33 0.53453125 0
0.33 0.55 0
0.36 0.33 0
0.36 0.344375 0
0.36 0.35875 0
0.36 0.373125 0
0.36 0.3875 0
0.36 0.401875 0
0.36 0.41625 0
0.36 0.430625 0
0.36 0.445 0
0.36 0.459375 0
0.36 0.47375 0
0.36 0.488125 0
0.36 0.5024999999999999 0
0.36 0.516875 0
0.36 0.53125 0
0.36 0.545625 0
0.36 0.5599999999999999 0
0.39 0.3575 0
0.39 0.37078125 0
0.39 0.3840625 0
0.39 0.3973437499999999 0
0.39 0.410625 0
0.39 0.42390625 0
0.39 0.4371875 0
0.39 0.45046875 0
0.39 0.46375 0
0.39 0.47703125 0
0.39 0.4903125 0
0.39 0.5035937500000001 0
0.39 0.516875 0
0.39 0.53015625 0
0.39 0.5434375 0
0.39 0.55671875 0
0.39 0.57 0
0.42 0.385 0
0.42 0.3971875 0
0.42 0.409375 0
0.42 0.4215625 0
0.42 0.43375 0
0.42 0.4459375 0
0.42 0.458125 0
0.42 0.4703125 0
0.42 0.4825 0
0.42 0.4946875 0
0.42 0.5068750000000001 0
0.42 0.5190625 0
0.42 0.53125 0
0.42 0.5434375 0
0.42 0.5556249999999999 0
0.42 0.5678124999999999 0
0.42 0.5800000000000001 0
0.45 0.4125 0
0.45 0.42359375 0
0.45 0.4346875 0
0.45 0.44578125 0
0.45 0.456875 0
0.45 0.46796875 0
0.45 0.4790625 0
0.45 0.49015625 0
0.45 0.50125 0
0.45 0.51234375 0
0.45 0.5234375 0
0.45 0.53453125 0
0.45 0.545625 0
0.45 0.55671875 0
0.45 0.5678124999999999 0
0.45 0.57890625 0
0.45 0.59 0
0.48 0.44 0
0.48 0.45 0
0.48 0.46 0
0.48 0.47 0
0.48 0.48 0
0.48 0.49 0
0.48 0.5 0
0.48 0.51 0
0.48 0.52 0
0.48 0.53 0
0.48 0.54 0
0.48 0.55 0
0.48 0.5599999999999999 0
0.48 0.57 0
0.48 0.5800000000000001 0
0.48 0.59 0
0.48 0.6 0
$EndNodes
$Elements
3 288 1 288
1 100 1 16
257 1 2 
258 2 3 
259 3 4 
260 4 5 
261 5 6 
262 6 7 
263 7 8 
264 8 9 
265 9 10 
266 10 11 
267 11 12 
268 12 13 
269 13 14 
270 14 15 
271 15 16 
272 16 17 
1 101 1 16
273 273 274 
274 274 275 
275 275 276 
276 276 277 
277 277 278 
278 278 279 
279 279 280 
280 280 281 
281 281 282 
282 282 283 
283 283 284 
284 284 285 
285 285 286 
286 286 287 
287 287 288 
288 288 289 
2 1 3 256
1 1 18 19 2 
2 2 19 20 3 
3 3 20 21 4 
4 4 21 22 5 
5 5 22 23 6 
6 6 23 24 7 
7 7 24 25 8 
8 8 25 26 9 
9 9 26 27 10 
10 10 27 28 11 
11 11 28 29 12 
12 12 29 30 13 
13 13 30 31 14 
14 14 31 32 15 
15 15 32 33 16 
16 16 33 34 17 
17 18 35 36 19 
18 19 36 37 20 
19 20 37 38 21 
20 21 38 39 22 
21 22 39 40 23 
22 23 40 41 24 
23 24 41 42 25 
24 25 42 43 26 
25 26 43 44 27 
26 27 44 45 28 
27 28 45 46 29 
28 29 46 47 30 
29 30 47 48 31 
30 31 48 49 32 
31 32 49 50 33 
32 33 50 51 34 
33 35 52 53 36 
34 36 53 54 37 
35 37 54 55 38 
36 38 55 56 39 
37 39 56 57 40 
38 40 57 58 41 
39 41 58 59 42 
40 42 59 60 43 
41 43 60 61 44 
42 44 61 62 45 
43 45 62 63 46 
44 46 63 64 47 
45 47 64 65 48 
46 48 65 66 49 
47 49 66 67 50 
48 50 67 68 51 
49 52 69 70 53 
50 53 70 71 54 
51 54 71 72 55 
52 55 72 73 56 
53 56 73 74 57 
54 57 74 75 58 
55 58 75 76 59 
56 59 76 77 60 
57 60 77 78 61 
58 61 78 79 62 
59 62 79 80 63 
60 63 80 81 64 
61 64 81 82 65 
62 65 82 83 66 
63 66 83 84 67 
64 67 84 85 68 
65 69 86 87 70 
66 70 87 88 71 
67 71 88 89 72 
68 72 89 90 73 
69 73 90 91 74 
70 74 91 92 75 
71 75 92 93 76 
72 76 93 94 77 
73 77 94 95 78 
74 78 95 96 79 
75 79 96 97 80 
76 80 97 98 81 
77 81 98 99 82 
78 82 99 100 83 
79 83 100 101 84 
80 84 101 102 85 
81 86 103 104 87 
82 87 104 105 88 
83 88 105 106 89 
84 89 106 107 90 
85 90 107 108 91 
86 91 108 109 92 
87 92 109 110 93 
88 93 110 111 94 
89 94 111 112 95 
90 95 112 113 96 
91 96 113 114 97 
92 97 114 115 98 
93 98 115 116 99 
94 99 116 117 100 
95 100 117 118 101 
96 101 118 119 102 
97 103 120 121 104 
98 104 121 122 105 
99 105 122 123 106 
100 106 123 124 107 
101 107 124 125 108 
102 108 125 126 109 
103 109 126 127 110 
104 110 127 128 111 
105 111 128 129 112 
106 112 129 130 113 
107 113 130 131 114 
108 114 131 132 115 
109 115 132 133 116 
110 116 133 134 117 
111 117 134 135 118 
112 118 135 136 119 
113 120 137 138 121 
114 121 138 139 122 
115 122 139 140 123 
116 123 140 141 124 
117 124 141 142 125 
118 125 142 143 126 
119 126 143 144 127 
120 127 144 145 128 
121 128 145 146 129 
122 129 146 147 130 
123 130 147 148 131 
124 131 148 149 132 
125 132 149 150 133 
126 133 150 151 134 
127 134 151 152 135 
128 135 152 153 136 
129 137 154 155 138 
130 138 155 156 139 
131 139 156 157 140 
132 140 157 158 141 
133 141 158 159 142 
134 142 159 160 143 
135 143 160 161 144 
136 144 161 162 145 
137 145 162 163 146 
138 146 163 164 147 
139 147 164 165 148 
140 148 165 166 149 
141 149 166 167 150 
142 150 167 168 151 
143 151 168 169 152 
144 152 169 170 153 
145 154 171 172 155 
146 155 172 173 156 
147 156 173 174 157 
148 157 174 175 158 
149 158 175 176 159 
150 159 176 177 160 
151 160 177 178 161 
152 161 178 179 162 
153 162 179 180 163 
154 163 180 181 164 
155 164 181 182 165 
156 165 182 183 166 
157 166 183 184 167 
158 167 184 185 168 
159 168 185 186 169 
160 169 186 187 170 
161 171 188 189 172 
162 172 189 190 173 
163 173 190 191 174 
164 174 191 192 175 
165 175 192 193 176 
166 176 193 194 177 
167 177 194 195 178 
168 178 195 196 179 
169 179 196 197 180 
170 180 197 198 181 
171 181 198 199 182 
172 182 199 200 183 
173 183 200 201 184 
174 184 201 202 185 
175 185 202 203 186 
176 186 203 204 187 
177 188 205 206 189 
178 189 206 207 190 
179 190 207 208 191 
180 191 208 209 192 
181 192 209 210 193 
182 193 210 211 194 
183 194 211 212 195 
184 195 212 213 196 
185 196 213 214 197 
186 197 214 215 198 
187 198 215 216 199 
188 199 216 217 200 
189 200 217 218 201 
190 201 218 219 202 
191 202 219 220 203 
192 203 220 221 204 
193 205 222 223 206 
194 206 223 224 207 
195 207 224 225 208 
196 208 225 226 209 
197 209 226 227 210 
198 210 227 228 211 
199 211 228 229 212 
200 212 229 230 213 
201 213 230 231 214 
202 214 231 232 215 
203 215 232 233 216 
204 216 233 234 217 
205 217 234 235 218 
206 218 235 236 219 
207 219 236 237 220 
208 220 237 238 221 
209 222 239 240 223 
210 223 240 241 224 
211 224 241 242 225 
212 225 242 243 226 
213 226 243 244 227 
214 227 244 245 228 
215 228 245 246 229 
216 229 246 247 230 
217 230 247 248 231 
218 231 248 249 232 
219 232 249 250 233 
220 233 250 251 234 
221 234 251 252 235 
222 235 252 253 236 
223 236 253 254 237 
224 237 254 255 238 
225 239 256 257 240 
226 240 257 258 241 
227 241 258 259 242 
228 242 259 260 243 
229 243 260 261 244 
230 244 261 262 245 
231 245 262 263 246 
232 246 263 264 247 
233 247 264 265 248 
234 248 265 266 249 
235 249 266 267 250 
236 250 267 268 251 
237 251 268 269 252 
238 252 269 270 253 
239 253 270 271 254 
240 254 271 272 255 
241 256 273 274 257 
242 257 274 275 258 
243 258 275 276 259 
244 259 276 277 260 
245 260 277 278 261 
246 261 278 279 262 
247 262 279 280 263 
248 263 280 281 264 
249 264 281 282 265 
250 265 282 283 266 
251 266 283 284 267 
252 267 284 285 268 
253 268 285 286 269 
254 269 286 287 270 
255 270 287 288 271 
256 271 288 289 272 
$EndElements
