<?xml version="1.0"?>
<VTKFile type="UnstructuredGrid" version="0.1" byte_order="LittleEndian">
  <UnstructuredGrid>
    <Piece NumberOfPoints="289" NumberOfCells="256">
      <Points>
        <DataArray type="Float64" NumberOfComponents="3" format="ascii">0 0 0 0 0.0275 0 0 0.055 0 0 0.0825 0 0 0.11 0 0 0.1375 0 0 0.165 0 0 0.1925 0 0 0.22 0 0 0.2475 0 0 0.275 0 0 0.3025 0 0 0.33 0 0 0.3575 0 0 0.385 0 0 0.4125 0 0 0.44 0 0.03 0.0275 0 0.03 0.05390625 0 0.03 0.0803125 0 0.03 0.10671875 0 0.03 0.133125 0 0.03 0.15953125 0 0.03 0.1859375 0 0.03 0.21234375 0 0.03 0.23875 0 0.03 0.26515625 0 0.03 0.2915625 0 0.03 0.31796875 0 0.03 0.344375 0 0.03 0.37078125 0 0.03 0.3971875 0 0.03 0.42359375 0 0.03 0.45 0 0.06 0.055 0 0.06 0.0803125 0 0.06 0.105625 0 0.06 0.1309375 0 0.06 0.15625 0 0.06 0.1815625 0 0.06 0.206875 0 0.06 0.2321875 0 0.06 0.2575 0 0.06 0.2828125 0 0.06 0.308125 0 0.06 0.3334375 0 0.06 0.35875 0 0.06 0.3840625 0 0.06 0.409375 0 0.06 0.4346875 0 0.06 0.46 0 0.09 0.0825 0 0.09 0.10671875 0 0.09 0.1309375 0 0.09 0.15515625 0 0.09 0.179375 0 0.09 0.20359375 0 0.09 0.2278125 0 0.09 0.25203125 0 0.09 0.27625 0 0.09 0.30046875 0 0.09 0.3246875 0 0.09 0.34890625 0 0.09 0.373125 0 0.09 0.39734375 0 0.09 0.4215625 0 0.09 0.44578125 0 0.09 0.47 0 0.12 0.11 0 0.12 0.133125 0 0.12 0.15625 0 0.12 0.179375 0 0.12 0.2025 0 0.12 0.225625 0 0.12 0.24875 0 0.12 0.271875 0 0.12 0.295 0 0.12 0.318125 0 0.12 0.34125 0 0.12 0.364375 0 0.12 0.3875 0 0.12 0.410625 0 0.12 0.43375 0 0.12 0.456875 0 0.12 0.48 0 0.15 0.1375 0 0.15 0.15953125 0 0.15 0.1815625 0 0.15 0.20359375 0 0.15 0.225625 0 0.15 0.24765625 0 0.15 0.2696875 0 0.15 0.29171875 0 0.15 0.31375 0 0.15 0.33578125 0 0.15 0.3578125 0 0.15 0.37984375 0 0.15 0.401875 0 0.15 0.42390625 0 0.15 0.4459375 0 0.15 0.46796875 0 0.15 0.49 0 0.18 0.165 0 0.18 0.1859375 0 0.18 0.206875 0 0.18 0.2278125 0 0.18 0.24875 0 0.18 0.2696875 0 0.18 0.290625 0 0.18 0.3115625 0 0.18 0.3325 0 0.18 0.3534375 0 0.18 0.374375 0 0.18 0.3953125 0 0.18 0.41625 0 0.18 0.4371875 0 0.18 0.458125 0 0.18 0.4790625 0 0.18 0.5 0 0.21 0.1925 0 0.21 0.21234375 0 0.21 0.2321875 0 0.21 0.25203125 0 0.21 0.271875 0 0.21 0.29171875 0 0.21 0.3115625 0 0.21 0.33140625 0 0.21 0.35125 0 0.21 0.37109375 0 0.21 0.3909375 0 0.21 0.41078125 0 0.21 0.430625 0 0.21 0.45046875 0 0.21 0.4703125 0 0.21 0.49015625 0 0.21 0.51 0 0.24 0.22 0 0.24 0.23875 0 0.24 0.2575 0 0.24 0.27625 0 0.24 0.295 0 0.24 0.31375 0 0.24 0.3325 0 0.24 0.35125 0 0.24 0.37 0 0.24 0.38875 0 0.24 0.4075 0 0.24 0.42625 0 0.24 0.445 0 0.24 0.46375 0 0.24 0.4825 0 0.24 0.50125 0 0.24 0.52 0 0.27 0.2475 0 0.27 0.26515625 0 0.27 0.2828125 0 0.27 0.30046875 0 0.27 0.318125 0 0.27 0.33578125 0 0.27 0.3534375 0 0.27 0.37109375 0 0.27 0.38875 0 0.27 0.40640625 0 0.27 0.4240625 0 0.27 0.44171875 0 0.27 0.459375 0 0.27 0.47703125 0 0.27 0.4946875 0 0.27 0.51234375 0 0.27 0.53 0 0.3 0.275 0 0.3 0.2915625 0 0.3 0.308125 0 0.3 0.3246875 0 0.3 0.34125 0 0.3 0.3578125 0 0.3 0.374375 0 0.3 0.3909375 0 0.3 0.4075 0 0.3 0.4240625 0 0.3 0.440625 0 0.3 0.4571875 0 0.3 0.47375 0 0.3 0.4903125 0 0.3 0.506875 0 0.3 0.5234375 0 0.3 0.54 0 0.33 0.3025 0 0.33 0.31796875 0 0.33 0.3334375 0 0.33 0.34890625 0 0.33 0.364375 0 0.33 0.37984375 0 0.33 0.3953125 0 0.33 0.41078125 0 0.33 0.42625 0 0.33 0.44171875 0 0.33 0.4571875 0 0.33 0.47265625 0 0.33 0.488125 0 0.33 0.50359375 0 0.33 0.5190625 0 0.33 0.53453125 0 0.33 0.55 0 0.36 0.33 0 0.36 0.344375 0 0.36 0.35875 0 0.36 0.373125 0 0.36 0.3875 0 0.36 0.401875 0 0.36 0.41625 0 0.36 0.430625 0 0.36 0.445 0 0.36 0.459375 0 0.36 0.47375 0 0.36 0.488125 0 0.36 0.5025 0 0.36 0.516875 0 0.36 0.53125 0 0.36 0.545625 0 0.36 0.56 0 0.39 0.3575 0 0.39 0.37078125 0 0.39 0.3840625 0 0.39 0.39734375 0 0.39 0.410625 0 0.39 0.42390625 0 0.39 0.4371875 0 0.39 0.45046875 0 0.39 0.46375 0 0.39 0.47703125 0 0.39 0.4903125 0 0.39 0.50359375 0 0.39 0.516875 0 0.39 0.53015625 0 0.39 0.5434375 0 0.39 0.55671875 0 0.39 0.57 0 0.42 0.385 0 0.42 0.3971875 0 0.42 0.409375 0 0.42 0.4215625 0 0.42 0.43375 0 0.42 0.4459375 0 0.42 0.458125 0 0.42 0.4703125 0 0.42 0.4825 0 0.42 0.4946875 0 0.42 0.506875 0 0.42 0.5190625 0 0.42 0.53125 0 0.42 0.5434375 0 0.42 0.555625 0 0.42 0.5678125 0 0.42 0.58 0 0.45 0.4125 0 0.45 0.42359375 0 0.45 0.4346875 0 0.45 0.44578125 0 0.45 0.456875 0 0.45 0.46796875 0 0.45 0.4790625 0 0.45 0.49015625 0 0.45 0.50125 0 0.45 0.51234375 0 0.45 0.5234375 0 0.45 0.53453125 0 0.45 0.545625 0 0.45 0.55671875 0 0.45 0.5678125 0 0.45 0.57890625 0 0.45 0.59 0 0.48 0.44 0 0.48 0.45 0 0.48 0.46 0 0.48 0.47 0 0.48 0.48 0 0.48 0.49 0 0.48 0.5 0 0.48 0.51 0 0.48 0.52 0 0.48 0.53 0 0.48 0.54 0 0.48 0.55 0 0.48 0.56 0 0.48 0.57 0 0.48 0.58 0 0.48 0.59 0 0.48 0.6 0</DataArray>
      </Points>
      <Cells>
        <DataArray type="Int32" Name="connectivity" format="ascii">0 17 18 1 1 18 19 2 2 19 20 3 3 20 21 4 4 21 22 5 5 22 23 6 6 23 24 7 7 24 25 8 8 25 26 9 9 26 27 10 10 27 28 11 11 28 29 12 12 29 30 13 13 30 31 14 14 31 32 15 15 32 33 16 17 34 35 18 18 35 36 19 19 36 37 20 20 37 38 21 21 38 39 22 22 39 40 23 23 40 41 24 24 41 42 25 25 42 43 26 26 43 44 27 27 44 45 28 28 45 46 29 29 46 47 30 30 47 48 31 31 48 49 32 32 49 50 33 34 51 52 35 35 52 53 36 36 53 54 37 37 54 55 38 38 55 56 39 39 56 57 40 40 57 58 41 41 58 59 42 42 59 60 43 43 60 61 44 44 61 62 45 45 62 63 46 46 63 64 47 47 64 65 48 48 65 66 49 49 66 67 50 51 68 69 52 52 69 70 53 53 70 71 54 54 71 72 55 55 72 73 56 56 73 74 57 57 74 75 58 58 75 76 59 59 76 77 60 60 77 78 61 61 78 79 62 62 79 80 63 63 80 81 64 64 81 82 65 65 82 83 66 66 83 84 67 68 85 86 69 69 86 87 70 70 87 88 71 71 88 89 72 72 89 90 73 73 90 91 74 74 91 92 75 75 92 93 76 76 93 94 77 77 94 95 78 78 95 96 79 79 96 97 80 80 97 98 81 81 98 99 82 82 99 100 83 83 100 101 84 85 102 103 86 86 103 104 87 87 104 105 88 88 105 106 89 89 106 107 90 90 107 108 91 91 108 109 92 92 109 110 93 93 110 111 94 94 111 112 95 95 112 113 96 96 113 114 97 97 114 115 98 98 115 116 99 99 116 117 100 100 117 118 101 102 119 120 103 103 120 121 104 104 121 122 105 105 122 123 106 106 123 124 107 107 124 125 108 108 125 126 109 109 126 127 110 110 127 128 111 111 128 129 112 112 129 130 113 113 130 131 114 114 131 132 115 115 132 133 116 116 133 134 117 117 134 135 118 119 136 137 120 120 137 138 121 121 138 139 122 122 139 140 123 123 140 141 124 124 141 142 125 125 142 143 126 126 143 144 127 127 144 145 128 128 145 146 129 129 146 147 130 130 147 148 131 131 148 149 132 132 149 150 133 133 150 151 134 134 151 152 135 136 153 154 137 137 154 155 138 138 155 156 139 139 156 157 140 140 157 158 141 141 158 159 142 142 159 160 143 143 160 161 144 144 161 162 145 145 162 163 146 146 163 164 147 147 164 165 148 148 165 166 149 149 166 167 150 150 167 168 151 151 168 169 152 153 170 171 154 154 171 172 155 155 172 173 156 156 173 174 157 157 174 175 158 158 175 176 159 159 176 177 160 160 177 178 161 161 178 179 162 162 179 180 163 163 180 181 164 164 181 182 165 165 182 183 166 166 183 184 167 167 184 185 168 168 185 186 169 170 187 188 171 171 188 189 172 172 189 190 173 173 190 191 174 174 191 192 175 175 192 193 176 176 193 194 177 177 194 195 178 178 195 196 179 179 196 197 180 180 197 198 181 181 198 199 182 182 199 200 183 183 200 201 184 184 201 202 185 185 202 203 186 187 204 205 188 188 205 206 189 189 206 207 190 190 207 208 191 191 208 209 192 192 209 210 193 193 210 211 194 194 211 212 195 195 212 213 196 196 213 214 197 197 214 215 198 198 215 216 199 199 216 217 200 200 217 218 201 201 218 219 202 202 219 220 203 204 221 222 205 205 222 223 206 206 223 224 207 207 224 225 208 208 225 226 209 209 226 227 210 210 227 228 211 211 228 229 212 212 229 230 213 213 230 231 214 214 231 232 215 215 232 233 216 216 233 234 217 217 234 235 218 218 235 236 219 219 236 237 220 221 238 239 222 222 239 240 223 223 240 241 224 224 241 242 225 225 242 243 226 226 243 244 227 227 244 245 228 228 245 246 229 229 246 247 230 230 247 248 231 231 248 249 232 232 249 250 233 233 250 251 234 234 251 252 235 235 252 253 236 236 253 254 237 238 255 256 239 239 256 257 240 240 257 258 241 241 258 259 242 242 259 260 243 243 260 261 244 244 261 262 245 245 262 263 246 246 263 264 247 247 264 265 248 248 265 266 249 249 266 267 250 250 267 268 251 251 268 269 252 252 269 270 253 253 270 271 254 255 272 273 256 256 273 274 257 257 274 275 258 258 275 276 259 259 276 277 260 260 277 278 261 261 278 279 262 262 279 280 263 263 280 281 264 264 281 282 265 265 282 283 266 266 283 284 267 267 284 285 268 268 285 286 269 269 286 287 270 270 287 288 271</DataArray>
        <DataArray type="Int32" Name="offsets" format="ascii">4 8 12 16 20 24 28 32 36 40 44 48 52 56 60 64 68 72 76 80 84 88 92 96 100 104 108 112 116 120 124 128 132 136 140 144 148 152 156 160 164 168 172 176 180 184 188 192 196 200 204 208 212 216 220 224 228 232 236 240 244 248 252 256 260 264 268 272 276 280 284 288 292 296 300 304 308 312 316 320 324 328 332 336 340 344 348 352 356 360 364 368 372 376 380 384 388 392 396 400 404 408 412 416 420 424 428 432 436 440 444 448 452 456 460 464 468 472 476 480 484 488 492 496 500 504 508 512 516 520 524 528 532 536 540 544 548 552 556 560 564 568 572 576 580 584 588 592 596 600 604 608 612 616 620 624 628 632 636 640 644 648 652 656 660 664 668 672 676 680 684 688 692 696 700 704 708 712 716 720 724 728 732 736 740 744 748 752 756 760 764 768 772 776 780 784 788 792 796 800 804 808 812 816 820 824 828 832 836 840 844 848 852 856 860 864 868 872 876 880 884 888 892 896 900 904 908 912 916 920 924 928 932 936 940 944 948 952 956 960 964 968 972 976 980 984 988 992 996 1000 1004 1008 1012 1016 1020 1024</DataArray>
        <DataArray type="UInt8" Name="types" format="ascii">9 9 9 9 9 9 9 9 9 9 9 9 9 9 9 9 9 9 9 9 9 9 9 9 9 9 9 9 9 9 9 9 9 9 9 9 9 9 9 9 9 9 9 9 9 9 9 9 9 9 9 9 9 9 9 9 9 9 9 9 9 9 9 9 9 9 9 9 9 9 9 9 9 9 9 9 9 9 9 9 9 9 9 9 9 9 9 9 9 9 9 9 9 9 9 9 9 9 9 9 9 9 9 9 9 9 9 9 9 9 9 9 9 9 9 9 9 9 9 9 9 9 9 9 9 9 9 9 9 9 9 9 9 9 9 9 9 9 9 9 9 9 9 9 9 9 9 9 9 9 9 9 9 9 9 9 9 9 9 9 9 9 9 9 9 9 9 9 9 9 9 9 9 9 9 9 9 9 9 9 9 9 9 9 9 9 9 9 9 9 9 9 9 9 9 9 9 9 9 9 9 9 9 9 9 9 9 9 9 9 9 9 9 9 9 9 9 9 9 9 9 9 9 9 9 9 9 9 9 9 9 9 9 9 9 9 9 9 9 9 9 9 9 9 9 9 9 9 9 9 9 9 9 9 9 9</DataArray>
      </Cells>
      <PointData Vectors="Displacement">
        <DataArray type="Float64" Name="Displacement" NumberOfComponents="3" format="ascii">0 0 0 0 0 0 0 0 0 0 0 0 0 0 0 0 0 0 0 0 0 0 0 0 0 0 0 0 0 0 0 0 0 0 0 0 0 0 0 0 0 0 0 0 0 0 0 0 0 0 0 0.00107954929784 0.00265349633049 0 0.00150252213781 0.00315197406727 0 0.00183116337357 0.00342635582608 0 0.00208154760412 0.00353303188706 0 0.00223459280708 0.0034973604933 0 0.00227406390564 0.00334310558844 0 0.00218947758978 0.00309463249995 0 0.00197462832187 0.00277612005077 0 0.00162546162562 0.00241101039536 0 0.00113784832593 0.00202223560132 0 0.000504993414698 0.00163340316615 0 -0.000286457050658 0.00127144807237 0 -0.00126412958785 0.00097233327213 0 -0.00248824336789 0.000795333315567 0 -0.00411317588709 0.000858154415543 0 -0.00653539601574 0.0015067485049 0 -0.012523084304 0.00328462276197 0 0.00276210903979 0.00611606659999 0 0.00349358214701 0.00667069062238 0 0.00408509301578 0.00699902051881 0 0.00448595011973 0.00710630035313 0 0.00466371798048 0.00701989160303 0 0.00459830588573 0.00677385334051 0 0.00427830409181 0.00640495453296 0 0.00369685958495 0.00595100108634 0 0.00284761423725 0.00545073283015 0 0.00172038785413 0.00494520516047 0 0.000295545785669 0.00448096095129 0 -0.00146524915309 0.00411589293992 0 -0.00363696361287 0.00392964447684 0 -0.0063716379876 0.00403978397236 0 -0.00998146893033 0.00462385597835 0 -0.0152840176491 0.00579960221014 0 -0.0226739500611 0.0070329783475 0 0.00505445615734 0.00997075504617 0 0.00601829865119 0.0106062528895 0 0.00670832844351 0.0109763529925 0 0.00707355323136 0.0111067619893 0 0.00708485161672 0.0110339307446 0 0.00672692638232 0.0108001022111 0 0.00599147350136 0.0104501930405 0 0.00487162166819 0.0100309247474 0 0.00335677878691 0.0095914713798 0 0.00142692336196 0.00918530982527 0 -0.000955046216254 0.00887307042614 0 -0.00385504685306 0.00872577245329 0 -0.00738698020064 0.00882575729846 0 -0.0117404783179 0.00925684335335 0 -0.0172232818579 0.0100486624428 0 -0.0240483324861 0.0110604708375 0 -0.0321279642892 0.0121522227201 0 0.00791551917572 0.0145539720033 0 0.00890638252968 0.0152930864716 0 0.00946998889705 0.0157504184328 0 0.00957546880553 0.0159685500874 0 0.00920788367706 0.0159943464695 0 0.00836037246753 0.0158764517616 0 0.00702809624746 0.0156644808756 0 0.00520314693185 0.0154091076841 0 0.00286973346933 0.015162655738 0 -1.05948824148e-06 0.0149796757608 0 -0.00345752163923 0.0149166222568 0 -0.0075745905675 0.0150288197084 0 -0.0124597174279 0.0153613515028 0 -0.0182495277767 0.0159283667611 0 -0.0250485615388 0.0166890048153 0 -0.0328622031459 0.0175797508388 0 -0.0415793202536 0.0185403773564 0 0.011113468914 0.0203214213477 0 0.0118565234676 0.0211794738723 0 0.0120405014125 0.021762354481 0 0.0116578612197 0.0221230135237 0 0.0107077351011 0.0223131154892 0 0.00919058129746 0.0223829395925 0 0.00710403630571 0.0223815537184 0 0.00443947635387 0.0223569667577 0 0.00117893936247 0.0223558840283 0 -0.00270766260653 0.0224225792281 0 -0.00726454966096 0.0225962170625 0 -0.0125496183722 0.0229059281932 0 -0.0186278399512 0.0233636776608 0 -0.0255499581323 0.023959290556 0 -0.0333287854964 0.0246687465623 0 -0.0419273489603 0.0254666017555 0 -0.0512684682719 0.0263465548869 0 0.0142695032873 0.0277261090854 0 0.0144819059801 0.0286958498929 0 0.0140467888795 0.0294170850779 0 0.0129733790622 0.029943564326 0 0.0112701783905 0.0303249605685 0 0.00894229356188 0.0306075112761 0 0.00598952234402 0.0308343315326 0 0.00240496931067 0.0310452235721 0 -0.00182579706538 0.0312758502464 0 -0.00672473866185 0.0315561752581 0 -0.0123197610486 0.0319082582952 0 -0.0186403889864 0.0323439897753 0 -0.0257094940503 0.0328644449619 0 -0.0335345432056 0.0334631759485 0 -0.0421024988708 0.0341320711443 0 -0.0513815071813 0.0348696253224 0 -0.06132629949 0.0356861978683 0 0.0169246720979 0.0371319092823 0 0.0163655633638 0.0381868358316 0 0.0151184842758 0.0390312162451 0 0.0132006744917 0.039712231739 0 0.0106248962903 0.0402722570863 0 0.00739892837103 0.0407494798603 0 0.00352543592684 0.0411780143509 0 -0.000997812700418 0.0415875465876 0 -0.00617726735889 0.0420026105326 0 -0.0120222326652 0.042441715859 0 -0.0185425683927 0.0429167342917 0 -0.0257454765361 0.0434331826359 0 -0.0336324721798 0.0439919834657 0 -0.0421977406789 0.0445924679784 0 -0.0514286807632 0.04523627368 0 -0.0613078526582 0.045930793928 0 -0.071815466519 0.0466924105493 0 0.0186072908157 0.0487831023066 0 0.0171082722644 0.0498850395914 0 0.014922438436 0.0508169140427 0 0.0120682627869 0.0516157213432 0 0.00855946703842 0.052314344742 0 0.00440571283147 0.0529418354166 0 -0.000386629226741 0.0535233379741 0 -0.00581363841501 0.0540797629212 0 -0.0118729122693 0.0546274141714 0 -0.0185625251146 0.055177807211 0 -0.025880056119 0.0557379598904 0 -0.0338220236954 0.0563113963148 0 -0.0423839374299 0.0568998532494 0 -0.0515609885551 0.0575054901135 0 -0.0613490670374 0.0581331516706 0 -0.0717458957121 0.0587925117847 0 -0.0827521613287 0.0594998194588 0 0.0188858320999 0.0628115732355 0 0.0163604913716 0.0639198870906 0 0.0131794184481 0.0648951583431 0 0.00935911759564 0.0657643788052 0 0.00491314501042 0.0665517078653 0 -0.000146925072252 0.0672784089836 0 -0.00581069621762 0.0679625595252 0 -0.0120684195142 0.0686187279685 0 -0.0189106422753 0.0692577260965 0 -0.0263283700278 0.0698865845224 0 -0.0343138206865 0.0705090138506 0 -0.0428615120805 0.0711264763875 0 -0.0519693258568 0.0717397566432 0 -0.061639266074 0.0723507280199 0 -0.0718778684411 0.0729640188024 0 -0.0826964300066 0.0735883142696 0 -0.0941114149659 0.0742372388803 0 0.0173966858985 0.0792692005907 0 0.0138322945977 0.0803480631918 0 0.00966124944828 0.0813253064805 0 0.00489805648199 0.082220510807 0 -0.000443319134622 0.0830516037148 0 -0.00634876628714 0.0838343557783 0 -0.0128039070876 0.0845819227822 0 -0.0197939142426 0.0853043103889 0 -0.0273044029507 0.0860078064761 0 -0.0353233255669 0.0866949240249 0 -0.0438430687051 0.0873651660411 0 -0.052862013053 0.0880164950308 0 -0.0623851943717 0.0886471266506 0 -0.0724240946891 0.089257223281 0 -0.082995866585 0.0898501290134 0 -0.0941225180183 0.0904329006174 0 -0.105830627879 0.0910161462925 0 0.0138433610197 0.0981664586775 0 0.00928211671033 0.0991881065125 0 0.00417244455382 0.100135072056 0 -0.00147110097938 0.101022897277 0 -0.00763218957639 0.101865861503 0 -0.0142932701466 0.102676412715 0 -0.0214344245781 0.103464200784 0 -0.0290352126834 0.104234540462 0 -0.0370783844283 0.1049877702 0 -0.0455534013465 0.105720023011 0 -0.0544585667868 0.106425049681 0 -0.0638014824636 0.107096448591 0 -0.0735980817375 0.10772973447 0 -0.0838707048652 0.108323847984 0 -0.0946457516063 0.108881845888 0 -0.105951452154 0.109410615924 0 -0.117816747171 0.109919155114 0 0.00797190341003 0.119499160101 0 0.00248997582889 0.120443319717 0 -0.00347728844503 0.121338344923 0 -0.00991139497407 0.122198549428 0 -0.0167921817461 0.123037228005 0 -0.024091933766 0.123865020665 0 -0.0317807172202 0.124686315262 0 -0.0398340332461 0.125498150359 0 -0.0482382150598 0.12629170785 0 -0.056992619746 0.127055092718 0 -0.0661092023833 0.12777626717 0 -0.0756103661834 0.128445528836 0 -0.085525802191 0.129057314115 0 -0.0958887668344 0.129611259333 0 -0.106732107081 0.130112374292 0 -0.118084541138 0.130569957033 0 -0.129966923906 0.130995735615 0 -0.000469833296378 0.143251470608 0 -0.00678056825818 0.144101022166 0 -0.0135065713006 0.144930890349 0 -0.0206254531009 0.145757692122 0 -0.0280911342855 0.146595576645 0 -0.0358566092575 0.147447448363 0 -0.0438887030911 0.14830499412 0 -0.0521734893159 0.149152677719 0 -0.0607159254013 0.149972157599 0 -0.0695367707705 0.150745715619 0 -0.0786685811377 0.151458526692 0 -0.0881515757509 0.152100096493 0 -0.0980295143823 0.152665290803 0 -0.108345275162 0.153155269363 0 -0.119135510469 0.153578335527 0 -0.130423785985 0.153949938846 0 -0.142215538713 0.15428787261 0 -0.0117930335439 0.169355465927 0 -0.0188369772278 0.170095064235 0 -0.0262230371566 0.170857184864 0 -0.0338514116988 0.171665534516 0 -0.0416508352632 0.172518752228 0 -0.0495880841606 0.173399970171 0 -0.057661657873 0.174286438338 0 -0.0658928495225 0.175155241884 0 -0.0743180839773 0.175985823634 0 -0.0829832384684 0.176760679999 0 -0.0919396811766 0.177465314493 0 -0.101241484474 0.178088194259 0 -0.110943134552 0.178621260958 0 -0.121096815836 0.179061508424 0 -0.131747747111 0.179414226726 0 -0.142924421353 0.179698743199 0 -0.154612890065 0.17995901355 0 -0.0264601463499 0.19757059864 0 -0.0341650002016 0.19815567115 0 -0.0418962058884 0.198855559091 0 -0.0495996590883 0.199651820568 0 -0.0572864580538 0.200514286662 0 -0.0649963229078 0.201415770179 0 -0.0727808147887 0.202334376064 0 -0.0806956302043 0.203252147617 0 -0.0887972536111 0.204153060092 0 -0.0971418530304 0.205021278097 0 -0.10578544279 0.205839896826 0 -0.11478485389 0.206590233829 0 -0.124199291088 0.207251841018 0 -0.134092340346 0.207803735156 0 -0.144534234619 0.208228044825 0 -0.155604174633 0.208518648535 0 -0.167396588048 0.208699198144 0 -0.045236476433 0.226658067664 0 -0.0527761966433 0.227142401019 0 -0.0600729723754 0.227832531843 0 -0.0672582445063 0.22866971816 0 -0.0744261847946 0.229625056857 0 -0.0816497292513 0.230680757427 0 -0.0889889201281 0.231822342812 0 -0.0964956996045 0.233035368686 0 -0.104217062639 0.234303912293 0 -0.112197475969 0.235609609393 0 -0.120481051085 0.236930607832 0 -0.129113810651 0.238239964074 0 -0.138146388731 0.239502906716 0 -0.147637625725 0.24067202999 0 -0.157659771442 0.241678728934 0 -0.168306152444 0.242417760151 0 -0.179696833096 0.242719607858 0</DataArray>
        <DataArray type="Float64" Name="DisplacementMagnitude" format="ascii">0 0 0 0 0 0 0 0 0 0 0 0 0 0 0 0 0 0.00286469360707 0.00349177795619 0.00388498050801 0.00410062857903 0.00415029341536 0.00404323158159 0.00379085246691 0.00340675792299 0.00290776488439 0.00232037403021 0.00170968542488 0.00130331801285 0.0015948214969 0.00261226149929 0.00420174307628 0.00670683920633 0.0129466747535 0.00671085069147 0.00753015468615 0.00810396650846 0.00840376422715 0.00842787894549 0.00818715494524 0.0077024235453 0.00700579650863 0.00614974757448 0.00523591333463 0.00449069686779 0.00436892776016 0.00535440099691 0.00754437705767 0.0110004439054 0.0163473723055 0.0237396460759 0.0111787066889 0.0121947742501 0.0128639805473 0.0131679655682 0.0131126942353 0.0127237473381 0.0120459241779 0.0111513294708 0.0101619037121 0.00929548421907 0.00892432025773 0.00953941775717 0.0115091906047 0.0149508521497 0.0199403373805 0.0264699133075 0.0343494193023 0.016567243129 0.0176975180066 0.018378149268 0.0186194574233 0.0184554664205 0.0179431755365 0.0171688700259 0.0162638660107 0.015431833955 0.0149796757983 0.0153120891924 0.0168297309572 0.0197791728436 0.0242230908793 0.0300990584053 0.0372689151325 0.0455256572195 0.0231618081525 0.0242723559269 0.0248711428532 0.0250066682224 0.0247493578468 0.0241963379334 0.0234819351562 0.0227934840009 0.0223869481776 0.0225854709056 0.0237352629501 0.0261184698572 0.0298807271512 0.0350263895443 0.0414651058074 0.0490555847566 0.0576419707623 0.0311826209463 0.0321430770446 0.0325987296119 0.0326331979561 0.0323515093068 0.0318870563185 0.0314106730105 0.0311382366878 0.0313290973946 0.0322647533229 0.0342039977156 0.0373309225194 0.0417258891694 0.0473745684156 0.0541998034292 0.0620962965912 0.07095364492 0.0408071465869 0.0415459516084 0.0418569517329 0.0418487652951 0.0416502474423 0.0414157488152 0.0413286530673 0.0415995151578 0.04245442172 0.0441116007793 0.0467511809996 0.050490305168 0.0553754259051 0.0613933019051 0.0684925518688 0.0766047689665 0.0856600398917 0.0522113238882 0.0527371800053 0.0529626087131 0.0530077886397 0.053009953233 0.0531248364029 0.0535247343763 0.0543913517871 0.0559027765393 0.0582164731605 0.0614532137277 0.0656879185374 0.0709506268602 0.0772361115928 0.084517284324 0.0927579268498 0.101922268029 0.0655893923316 0.0659804337936 0.0662199263592 0.0664270020534 0.0667328166174 0.0672785694136 0.0682105100974 0.0696719210125 0.071793070803 0.0746814419018 0.07841530032 0.0830426689186 0.088585571699 0.0950474984792 0.102421560286 0.110697513671 0.119867118358 0.0811557197155 0.0815300167577 0.0818971624359 0.0823662755905 0.0830527868976 0.0840744077715 0.0855455533516 0.087570682377 0.090237870073 0.0936148876023 0.0977491018418 0.1026708129 0.108398457278 0.114943905447 0.122316636456 0.130526464413 0.139585316861 0.0991377438396 0.0996214744127 0.100221963408 0.101033607836 0.102151378148 0.103666500372 0.10566113477 0.108202971313 0.111342886991 0.115116617566 0.119549264724 0.124660653236 0.130469817676 0.136997632011 0.144267372129 0.152303621396 0.161130402392 0.119764771568 0.12046905513 0.121388160393 0.122599841895 0.124177843607 0.126186229902 0.128672806764 0.131668279962 0.135190683347 0.139252128498 0.143865218491 0.149047580834 0.154823942486 0.161225724222 0.168288361528 0.176046790756 0.184529900176 0.143252241081 0.144260461302 0.145558889958 0.147209762341 0.149262771371 0.151744675216 0.154662825332 0.158014538123 0.161796389491 0.166010943214 0.170670533385 0.175798576958 0.181428985297 0.187603931685 0.194369686417 0.201769540866 0.209833284028 0.169765572126 0.171134925098 0.172857818155 0.174971351411 0.177475384063 0.180351123495 0.183577311717 0.18713959062 0.191034519724 0.19527046848 0.199867062876 0.204854199646 0.210271096374 0.2161653594 0.222591405092 0.229606246706 0.237255963744 0.19933459507 0.201079380463 0.203221124516 0.205720625212 0.208537088864 0.211643177231 0.215026153615 0.218685208108 0.22262844426 0.226870588845 0.231431681132 0.236336809228 0.241617030675 0.247311843801 0.253473990043 0.260178181157 0.267538731768 0.231128142893 0.233193047222 0.23561923643 0.238355850479 0.241385425657 0.244704495533 0.248315578513 0.25222391461 0.256436189843 0.26096007674 0.265804056775 0.270977225211 0.276488819023 0.282347117126 0.288557120082 0.295115793185 0.301999602423</DataArray>
        <DataArray type="Float64" Name="NodalVonMises" format="ascii">0 0 0 0 0 0 0 0 0 0 0 0 0 0 0 0 0 0 0 0 0 0 0 0 0 0 0 0 0 0 0 0 0 0 0 0 0 0 0 0 0 0 0 0 0 0 0 0 0 0 0 0 0 0 0 0 0 0 0 0 0 0 0 0 0 0 0 0 0 0 0 0 0 0 0 0 0 0 0 0 0 0 0 0 0 0 0 0 0 0 0 0 0 0 0 0 0 0 0 0 0 0 0 0 0 0 0 0 0 0 0 0 0 0 0 0 0 0 0 0 0 0 0 0 0 0 0 0 0 0 0 0 0 0 0 0 0 0 0 0 0 0 0 0 0 0 0 0 0 0 0 0 0 0 0 0 0 0 0 0 0 0 0 0 0 0 0 0 0 0 0 0 0 0 0 0 0 0 0 0 0 0 0 0 0 0 0 0 0 0 0 0 0 0 0 0 0 0 0 0 0 0 0 0 0 0 0 0 0 0 0 0 0 0 0 0 0 0 0 0 0 0 0 0 0 0 0 0 0 0 0 0 0 0 0 0 0 0 0 0 0 0 0 0 0 0 0 0 0 0 0 0 0 0 0 0 0 0 0 0 0 0 0 0 0 0 0 0 0 0 0 0 0 0 0 0 0 0 0 0 0 0 0 0 0 0 0 0 0</DataArray>
        <DataArray type="Float64" Name="NodalStressTrace" format="ascii">0 0 0 0 0 0 0 0 0 0 0 0 0 0 0 0 0 0 0 0 0 0 0 0 0 0 0 0 0 0 0 0 0 0 0 0 0 0 0 0 0 0 0 0 0 0 0 0 0 0 0 0 0 0 0 0 0 0 0 0 0 0 0 0 0 0 0 0 0 0 0 0 0 0 0 0 0 0 0 0 0 0 0 0 0 0 0 0 0 0 0 0 0 0 0 0 0 0 0 0 0 0 0 0 0 0 0 0 0 0 0 0 0 0 0 0 0 0 0 0 0 0 0 0 0 0 0 0 0 0 0 0 0 0 0 0 0 0 0 0 0 0 0 0 0 0 0 0 0 0 0 0 0 0 0 0 0 0 0 0 0 0 0 0 0 0 0 0 0 0 0 0 0 0 0 0 0 0 0 0 0 0 0 0 0 0 0 0 0 0 0 0 0 0 0 0 0 0 0 0 0 0 0 0 0 0 0 0 0 0 0 0 0 0 0 0 0 0 0 0 0 0 0 0 0 0 0 0 0 0 0 0 0 0 0 0 0 0 0 0 0 0 0 0 0 0 0 0 0 0 0 0 0 0 0 0 0 0 0 0 0 0 0 0 0 0 0 0 0 0 0 0 0 0 0 0 0 0 0 0 0 0 0 0 0 0 0 0 0</DataArray>
        <DataArray type="Float64" Name="NodalPrincipalStress" NumberOfComponents="3" format="ascii">0 0 0 0 0 0 0 0 0 0 0 0 0 0 0 0 0 0 0 0 0 0 0 0 0 0 0 0 0 0 0 0 0 0 0 0 0 0 0 0 0 0 0 0 0 0 0 0 0 0 0 0 0 0 0 0 0 0 0 0 0 0 0 0 0 0 0 0 0 0 0 0 0 0 0 0 0 0 0 0 0 0 0 0 0 0 0 0 0 0 0 0 0 0 0 0 0 0 0 0 0 0 0 0 0 0 0 0 0 0 0 0 0 0 0 0 0 0 0 0 0 0 0 0 0 0 0 0 0 0 0 0 0 0 0 0 0 0 0 0 0 0 0 0 0 0 0 0 0 0 0 0 0 0 0 0 0 0 0 0 0 0 0 0 0 0 0 0 0 0 0 0 0 0 0 0 0 0 0 0 0 0 0 0 0 0 0 0 0 0 0 0 0 0 0 0 0 0 0 0 0 0 0 0 0 0 0 0 0 0 0 0 0 0 0 0 0 0 0 0 0 0 0 0 0 0 0 0 0 0 0 0 0 0 0 0 0 0 0 0 0 0 0 0 0 0 0 0 0 0 0 0 0 0 0 0 0 0 0 0 0 0 0 0 0 0 0 0 0 0 0 0 0 0 0 0 0 0 0 0 0 0 0 0 0 0 0 0 0 0 0 0 0 0 0 0 0 0 0 0 0 0 0 0 0 0 0 0 0 0 0 0 0 0 0 0 0 0 0 0 0 0 0 0 0 0 0 0 0 0 0 0 0 0 0 0 0 0 0 0 0 0 0 0 0 0 0 0 0 0 0 0 0 0 0 0 0 0 0 0 0 0 0 0 0 0 0 0 0 0 0 0 0 0 0 0 0 0 0 0 0 0 0 0 0 0 0 0 0 0 0 0 0 0 0 0 0 0 0 0 0 0 0 0 0 0 0 0 0 0 0 0 0 0 0 0 0 0 0 0 0 0 0 0 0 0 0 0 0 0 0 0 0 0 0 0 0 0 0 0 0 0 0 0 0 0 0 0 0 0 0 0 0 0 0 0 0 0 0 0 0 0 0 0 0 0 0 0 0 0 0 0 0 0 0 0 0 0 0 0 0 0 0 0 0 0 0 0 0 0 0 0 0 0 0 0 0 0 0 0 0 0 0 0 0 0 0 0 0 0 0 0 0 0 0 0 0 0 0 0 0 0 0 0 0 0 0 0 0 0 0 0 0 0 0 0 0 0 0 0 0 0 0 0 0 0 0 0 0 0 0 0 0 0 0 0 0 0 0 0 0 0 0 0 0 0 0 0 0 0 0 0 0 0 0 0 0 0 0 0 0 0 0 0 0 0 0 0 0 0 0 0 0 0 0 0 0 0 0 0 0 0 0 0 0 0 0 0 0 0 0 0 0 0 0 0 0 0 0 0 0 0 0 0 0 0 0 0 0 0 0 0 0 0 0 0 0 0 0 0 0 0 0 0 0 0 0 0 0 0 0 0 0 0 0 0 0 0 0 0 0 0 0 0 0 0 0 0 0 0 0 0 0 0 0 0 0 0 0 0 0 0 0 0 0 0 0 0 0 0 0 0 0 0 0 0 0 0 0 0 0 0 0 0 0 0 0 0 0 0 0 0 0 0 0 0 0 0 0 0 0 0 0 0 0 0 0 0 0 0 0 0 0 0 0 0 0 0 0 0 0 0 0 0 0 0 0 0 0 0 0 0 0 0 0 0 0 0 0 0 0 0 0 0 0 0 0 0 0 0 0 0 0 0 0 0 0 0 0 0 0 0 0 0 0 0 0 0 0 0 0 0 0 0 0 0 0 0 0 0 0 0 0 0 0 0 0 0 0 0 0 0 0 0 0 0 0 0 0 0 0 0 0 0 0 0 0 0 0 0 0 0 0 0 0 0 0 0 0 0 0 0 0 0 0 0 0 0 0 0 0 0 0 0 0 0 0 0 0 0 0 0 0 0 0 0 0</DataArray>
        <DataArray type="Float64" Name="ShellTopNodalVonMises" format="ascii">73242.654919 80834.6213502 93509.8842236 101493.935211 105088.226586 104250.922999 98990.6673039 89393.0355782 75611.8972587 57951.7483315 37702.9719653 25216.1729837 37867.6278229 74416.2193457 126995.516955 216363.507963 275064.088377 82518.9796528 88402.2565924 98586.5757394 105293.151137 108044.972857 106610.653601 100926.798046 91058.2768303 77203.8342936 59896.3499536 41319.8165174 32124.4114484 46898.1865108 84358.5728855 138788.031823 214241.461391 257914.856452 100400.494355 104132.65395 110654.544654 114650.965154 115221.285718 111998.712439 104864.578651 93882.1668941 79363.7434072 62333.2259821 46687.0466112 43565.1831344 62678.2467629 101202.262961 152543.062717 204745.168612 228595.166857 119413.675323 121885.788709 125509.588966 126254.244418 123723.384484 117688.90088 108087.262171 95034.4964927 79001.9966806 61597.9556437 48374.0372013 50441.3148311 73107.2216216 110178.319989 152630.791866 192135.729142 210151.258907 141517.434016 141970.341252 141512.379328 138207.551386 131857.895701 122353.40098 109695.69495 94079.0775775 76191.356179 58357.9424458 47663.2887351 54093.2589968 78442.3757082 112343.90143 148718.630404 183530.316695 200190.905498 165040.781089 162906.133791 157450.488491 149533.198671 139011.072252 125819.766499 110014.229485 91896.3801461 72437.5822897 54747.9931177 46832.6141398 56435.7605675 80859.1131 111969.461672 144982.188036 177881.70038 194165.433012 187607.192704 182749.571451 172129.105457 159609.77528 145057.232794 128436.198901 109867.420291 89793.5866486 69496.1848482 52699.9258379 47291.0360195 58496.0187096 81967.0716308 110819.79555 141755.936286 173693.509563 189861.596526 207061.284148 199750.701391 184513.064221 167959.381966 149977.278056 130581.277121 109982.525971 88777.1469167 68497.8843777 53066.1829719 49346.2944001 60616.1421678 82430.5317561 109240.159296 138553.16992 169655.871339 185630.944788 221982.228154 212743.305 193891.943669 174234.731782 153717.800614 132436.234097 110707.640049 89261.7846022 69748.9808584 55811.8489771 52855.089332 62970.5644651 82517.7119884 107125.754288 134716.464632 164684.851016 180244.658016 231830.138696 221267.450512 199951.853356 178243.246408 156185.362652 133979.510885 112053.988208 91230.153963 73104.5213542 60656.532743 57729.1392923 65760.1617894 82318.4653768 104182.227695 129567.218988 157847.972239 172683.275321 236748.745066 225403.649164 202667.07567 179891.610712 157252.425786 135082.035446 113922.98087 94612.7999827 78462.5679092 67483.8365803 64008.2243945 69111.2722002 81734.3825339 99967.0533227 122412.790097 148354.568619 162144.012467 237107.060457 225378.495347 202028.054812 179028.609762 156741.788997 135687.463631 116474.499032 99723.3600419 86092.2977367 76410.8555281 71718.6306945 72942.1065945 80430.9133803 93871.7777962 112555.613872 135650.603103 148195.886102 232899.165306 221032.019699 197639.615909 175263.646965 154621.525245 136344.678668 120704.52009 107575.806429 96622.5417034 87614.4784309 80775.8577537 77042.8241906 78001.4014167 85246.6777441 99382.9491182 119604.667015 131053.610504 222919.063527 211038.21583 188353.573398 168448.285422 152089.781834 139097.072702 128575.321773 119360.145618 110408.16518 101068.973018 91301.7153808 81953.7977877 75141.6177029 74300.2916847 82674.6368176 100583.828894 111692.534213 203093.034366 192204.188862 173550.343534 160706.972089 152241.497011 146152.581764 140646.762183 134412.693869 126627.522974 116869.129045 105064.704961 91599.8895804 77780.4075088 66849.5359782 64988.0751779 78577.857778 89854.036864 166382.246764 161639.372532 155516.608775 154159.536773 154407.559336 154409.870634 153202.831964 150325.201468 145538.286285 138661.033638 129489.106547 117784.117402 103395.236214 86834.9178607 70917.3734195 61003.1003848 58318.0495396 142807.216458 143230.749305 146219.714848 151214.86717 155334.848613 157890.424315 158825.051829 158181.45537 155931.443378 151919.230299 145829.240768 137141.429638 125051.748402 108345.275863 85306.7156666 55255.1471859 38552.4148257</DataArray>
        <DataArray type="Float64" Name="ShellBottomNodalVonMises" format="ascii">73242.654919 80834.6213502 93509.8842236 101493.935211 105088.226586 104250.922999 98990.6673039 89393.0355782 75611.8972587 57951.7483315 37702.9719653 25216.1729837 37867.6278229 74416.2193457 126995.516955 216363.507963 275064.088377 82518.9796528 88402.2565924 98586.5757394 105293.151137 108044.972857 106610.653601 100926.798046 91058.2768303 77203.8342936 59896.3499536 41319.8165174 32124.4114484 46898.1865108 84358.5728855 138788.031823 214241.461391 257914.856452 100400.494355 104132.65395 110654.544654 114650.965154 115221.285718 111998.712439 104864.578651 93882.1668941 79363.7434072 62333.2259821 46687.0466112 43565.1831344 62678.2467629 101202.262961 152543.062717 204745.168612 228595.166857 119413.675323 121885.788709 125509.588966 126254.244418 123723.384484 117688.90088 108087.262171 95034.4964927 79001.9966806 61597.9556437 48374.0372013 50441.3148311 73107.2216216 110178.319989 152630.791866 192135.729142 210151.258907 141517.434016 141970.341252 141512.379328 138207.551386 131857.895701 122353.40098 109695.69495 94079.0775775 76191.356179 58357.9424458 47663.2887351 54093.2589968 78442.3757082 112343.90143 148718.630404 183530.316695 200190.905498 165040.781089 162906.133791 157450.488491 149533.198671 139011.072252 125819.766499 110014.229485 91896.3801461 72437.5822897 54747.9931177 46832.6141398 56435.7605675 80859.1131 111969.461672 144982.188036 177881.70038 194165.433012 187607.192704 182749.571451 172129.105457 159609.77528 145057.232794 128436.198901 109867.420291 89793.5866486 69496.1848482 52699.9258379 47291.0360195 58496.0187096 81967.0716308 110819.79555 141755.936286 173693.509563 189861.596526 207061.284148 199750.701391 184513.064221 167959.381966 149977.278056 130581.277121 109982.525971 88777.1469167 68497.8843777 53066.1829719 49346.2944001 60616.1421678 82430.5317561 109240.159296 138553.16992 169655.871339 185630.944788 221982.228154 212743.305 193891.943669 174234.731782 153717.800614 132436.234097 110707.640049 89261.7846022 69748.9808584 55811.8489771 52855.089332 62970.5644651 82517.7119884 107125.754288 134716.464632 164684.851016 180244.658016 231830.138696 221267.450512 199951.853356 178243.246408 156185.362652 133979.510885 112053.988208 91230.153963 73104.5213542 60656.532743 57729.1392923 65760.1617894 82318.4653768 104182.227695 129567.218988 157847.972239 172683.275321 236748.745066 225403.649164 202667.07567 179891.610712 157252.425786 135082.035446 113922.98087 94612.7999827 78462.5679092 67483.8365803 64008.2243945 69111.2722002 81734.3825339 99967.0533227 122412.790097 148354.568619 162144.012467 237107.060457 225378.495347 202028.054812 179028.609762 156741.788997 135687.463631 116474.499032 99723.3600419 86092.2977367 76410.8555281 71718.6306945 72942.1065945 80430.9133803 93871.7777962 112555.613872 135650.603103 148195.886102 232899.165306 221032.019699 197639.615909 175263.646965 154621.525245 136344.678668 120704.52009 107575.806429 96622.5417034 87614.4784309 80775.8577537 77042.8241906 78001.4014167 85246.6777441 99382.9491182 119604.667015 131053.610504 222919.063527 211038.21583 188353.573398 168448.285422 152089.781834 139097.072702 128575.321773 119360.145618 110408.16518 101068.973018 91301.7153808 81953.7977877 75141.6177029 74300.2916847 82674.6368176 100583.828894 111692.534213 203093.034366 192204.188862 173550.343534 160706.972089 152241.497011 146152.581764 140646.762183 134412.693869 126627.522974 116869.129045 105064.704961 91599.8895804 77780.4075088 66849.5359782 64988.0751779 78577.857778 89854.036864 166382.246764 161639.372532 155516.608775 154159.536773 154407.559336 154409.870634 153202.831964 150325.201468 145538.286285 138661.033638 129489.106547 117784.117402 103395.236214 86834.9178607 70917.3734195 61003.1003848 58318.0495396 142807.216458 143230.749305 146219.714848 151214.86717 155334.848613 157890.424315 158825.051829 158181.45537 155931.443378 151919.230299 145829.240768 137141.429638 125051.748402 108345.275863 85306.7156666 55255.1471859 38552.4148257</DataArray>
      </PointData>
      <CellData Scalars="VonMises">
        <DataArray type="Int32" Name="ElementIndex" format="ascii">0 1 2 3 4 5 6 7 8 9 10 11 12 13 14 15 16 17 18 19 20 21 22 23 24 25 26 27 28 29 30 31 32 33 34 35 36 37 38 39 40 41 42 43 44 45 46 47 48 49 50 51 52 53 54 55 56 57 58 59 60 61 62 63 64 65 66 67 68 69 70 71 72 73 74 75 76 77 78 79 80 81 82 83 84 85 86 87 88 89 90 91 92 93 94 95 96 97 98 99 100 101 102 103 104 105 106 107 108 109 110 111 112 113 114 115 116 117 118 119 120 121 122 123 124 125 126 127 128 129 130 131 132 133 134 135 136 137 138 139 140 141 142 143 144 145 146 147 148 149 150 151 152 153 154 155 156 157 158 159 160 161 162 163 164 165 166 167 168 169 170 171 172 173 174 175 176 177 178 179 180 181 182 183 184 185 186 187 188 189 190 191 192 193 194 195 196 197 198 199 200 201 202 203 204 205 206 207 208 209 210 211 212 213 214 215 216 217 218 219 220 221 222 223 224 225 226 227 228 229 230 231 232 233 234 235 236 237 238 239 240 241 242 243 244 245 246 247 248 249 250 251 252 253 254 255</DataArray>
        <DataArray type="Float64" Name="VonMises" format="ascii">0 0 0 0 0 0 0 0 0 0 0 0 0 0 0 0 0 0 0 0 0 0 0 0 0 0 0 0 0 0 0 0 0 0 0 0 0 0 0 0 0 0 0 0 0 0 0 0 0 0 0 0 0 0 0 0 0 0 0 0 0 0 0 0 0 0 0 0 0 0 0 0 0 0 0 0 0 0 0 0 0 0 0 0 0 0 0 0 0 0 0 0 0 0 0 0 0 0 0 0 0 0 0 0 0 0 0 0 0 0 0 0 0 0 0 0 0 0 0 0 0 0 0 0 0 0 0 0 0 0 0 0 0 0 0 0 0 0 0 0 0 0 0 0 0 0 0 0 0 0 0 0 0 0 0 0 0 0 0 0 0 0 0 0 0 0 0 0 0 0 0 0 0 0 0 0 0 0 0 0 0 0 0 0 0 0 0 0 0 0 0 0 0 0 0 0 0 0 0 0 0 0 0 0 0 0 0 0 0 0 0 0 0 0 0 0 0 0 0 0 0 0 0 0 0 0 0 0 0 0 0 0 0 0 0 0 0 0 0 0 0 0 0 0 0 0 0 0 0 0 0 0 0 0 0 0</DataArray>
        <DataArray type="Int32" Name="HasVonMises" format="ascii">0 0 0 0 0 0 0 0 0 0 0 0 0 0 0 0 0 0 0 0 0 0 0 0 0 0 0 0 0 0 0 0 0 0 0 0 0 0 0 0 0 0 0 0 0 0 0 0 0 0 0 0 0 0 0 0 0 0 0 0 0 0 0 0 0 0 0 0 0 0 0 0 0 0 0 0 0 0 0 0 0 0 0 0 0 0 0 0 0 0 0 0 0 0 0 0 0 0 0 0 0 0 0 0 0 0 0 0 0 0 0 0 0 0 0 0 0 0 0 0 0 0 0 0 0 0 0 0 0 0 0 0 0 0 0 0 0 0 0 0 0 0 0 0 0 0 0 0 0 0 0 0 0 0 0 0 0 0 0 0 0 0 0 0 0 0 0 0 0 0 0 0 0 0 0 0 0 0 0 0 0 0 0 0 0 0 0 0 0 0 0 0 0 0 0 0 0 0 0 0 0 0 0 0 0 0 0 0 0 0 0 0 0 0 0 0 0 0 0 0 0 0 0 0 0 0 0 0 0 0 0 0 0 0 0 0 0 0 0 0 0 0 0 0 0 0 0 0 0 0 0 0 0 0 0 0</DataArray>
        <DataArray type="Float64" Name="StressTrace" format="ascii">0 0 0 0 0 0 0 0 0 0 0 0 0 0 0 0 0 0 0 0 0 0 0 0 0 0 0 0 0 0 0 0 0 0 0 0 0 0 0 0 0 0 0 0 0 0 0 0 0 0 0 0 0 0 0 0 0 0 0 0 0 0 0 0 0 0 0 0 0 0 0 0 0 0 0 0 0 0 0 0 0 0 0 0 0 0 0 0 0 0 0 0 0 0 0 0 0 0 0 0 0 0 0 0 0 0 0 0 0 0 0 0 0 0 0 0 0 0 0 0 0 0 0 0 0 0 0 0 0 0 0 0 0 0 0 0 0 0 0 0 0 0 0 0 0 0 0 0 0 0 0 0 0 0 0 0 0 0 0 0 0 0 0 0 0 0 0 0 0 0 0 0 0 0 0 0 0 0 0 0 0 0 0 0 0 0 0 0 0 0 0 0 0 0 0 0 0 0 0 0 0 0 0 0 0 0 0 0 0 0 0 0 0 0 0 0 0 0 0 0 0 0 0 0 0 0 0 0 0 0 0 0 0 0 0 0 0 0 0 0 0 0 0 0 0 0 0 0 0 0 0 0 0 0 0 0</DataArray>
        <DataArray type="Float64" Name="HydrostaticPressure" format="ascii">0 0 0 0 0 0 0 0 0 0 0 0 0 0 0 0 0 0 0 0 0 0 0 0 0 0 0 0 0 0 0 0 0 0 0 0 0 0 0 0 0 0 0 0 0 0 0 0 0 0 0 0 0 0 0 0 0 0 0 0 0 0 0 0 0 0 0 0 0 0 0 0 0 0 0 0 0 0 0 0 0 0 0 0 0 0 0 0 0 0 0 0 0 0 0 0 0 0 0 0 0 0 0 0 0 0 0 0 0 0 0 0 0 0 0 0 0 0 0 0 0 0 0 0 0 0 0 0 0 0 0 0 0 0 0 0 0 0 0 0 0 0 0 0 0 0 0 0 0 0 0 0 0 0 0 0 0 0 0 0 0 0 0 0 0 0 0 0 0 0 0 0 0 0 0 0 0 0 0 0 0 0 0 0 0 0 0 0 0 0 0 0 0 0 0 0 0 0 0 0 0 0 0 0 0 0 0 0 0 0 0 0 0 0 0 0 0 0 0 0 0 0 0 0 0 0 0 0 0 0 0 0 0 0 0 0 0 0 0 0 0 0 0 0 0 0 0 0 0 0 0 0 0 0 0 0</DataArray>
        <DataArray type="Float64" Name="PrincipalStress" NumberOfComponents="3" format="ascii">0 0 0 0 0 0 0 0 0 0 0 0 0 0 0 0 0 0 0 0 0 0 0 0 0 0 0 0 0 0 0 0 0 0 0 0 0 0 0 0 0 0 0 0 0 0 0 0 0 0 0 0 0 0 0 0 0 0 0 0 0 0 0 0 0 0 0 0 0 0 0 0 0 0 0 0 0 0 0 0 0 0 0 0 0 0 0 0 0 0 0 0 0 0 0 0 0 0 0 0 0 0 0 0 0 0 0 0 0 0 0 0 0 0 0 0 0 0 0 0 0 0 0 0 0 0 0 0 0 0 0 0 0 0 0 0 0 0 0 0 0 0 0 0 0 0 0 0 0 0 0 0 0 0 0 0 0 0 0 0 0 0 0 0 0 0 0 0 0 0 0 0 0 0 0 0 0 0 0 0 0 0 0 0 0 0 0 0 0 0 0 0 0 0 0 0 0 0 0 0 0 0 0 0 0 0 0 0 0 0 0 0 0 0 0 0 0 0 0 0 0 0 0 0 0 0 0 0 0 0 0 0 0 0 0 0 0 0 0 0 0 0 0 0 0 0 0 0 0 0 0 0 0 0 0 0 0 0 0 0 0 0 0 0 0 0 0 0 0 0 0 0 0 0 0 0 0 0 0 0 0 0 0 0 0 0 0 0 0 0 0 0 0 0 0 0 0 0 0 0 0 0 0 0 0 0 0 0 0 0 0 0 0 0 0 0 0 0 0 0 0 0 0 0 0 0 0 0 0 0 0 0 0 0 0 0 0 0 0 0 0 0 0 0 0 0 0 0 0 0 0 0 0 0 0 0 0 0 0 0 0 0 0 0 0 0 0 0 0 0 0 0 0 0 0 0 0 0 0 0 0 0 0 0 0 0 0 0 0 0 0 0 0 0 0 0 0 0 0 0 0 0 0 0 0 0 0 0 0 0 0 0 0 0 0 0 0 0 0 0 0 0 0 0 0 0 0 0 0 0 0 0 0 0 0 0 0 0 0 0 0 0 0 0 0 0 0 0 0 0 0 0 0 0 0 0 0 0 0 0 0 0 0 0 0 0 0 0 0 0 0 0 0 0 0 0 0 0 0 0 0 0 0 0 0 0 0 0 0 0 0 0 0 0 0 0 0 0 0 0 0 0 0 0 0 0 0 0 0 0 0 0 0 0 0 0 0 0 0 0 0 0 0 0 0 0 0 0 0 0 0 0 0 0 0 0 0 0 0 0 0 0 0 0 0 0 0 0 0 0 0 0 0 0 0 0 0 0 0 0 0 0 0 0 0 0 0 0 0 0 0 0 0 0 0 0 0 0 0 0 0 0 0 0 0 0 0 0 0 0 0 0 0 0 0 0 0 0 0 0 0 0 0 0 0 0 0 0 0 0 0 0 0 0 0 0 0 0 0 0 0 0 0 0 0 0 0 0 0 0 0 0 0 0 0 0 0 0 0 0 0 0 0 0 0 0 0 0 0 0 0 0 0 0 0 0 0 0 0 0 0 0 0 0 0 0 0 0 0 0 0 0 0 0 0 0 0 0 0 0 0 0 0 0 0 0 0 0 0 0 0 0 0 0 0 0 0 0 0 0 0 0 0 0 0 0 0 0 0 0 0 0 0 0 0 0 0 0 0 0 0 0 0 0 0 0 0 0 0 0 0 0 0 0 0 0 0 0 0 0 0 0 0 0 0 0 0 0 0 0 0 0 0 0 0 0 0 0 0 0 0 0 0 0 0 0 0 0</DataArray>
        <DataArray type="Float64" Name="PrincipalStrain" NumberOfComponents="3" format="ascii">0 0 0 0 0 0 0 0 0 0 0 0 0 0 0 0 0 0 0 0 0 0 0 0 0 0 0 0 0 0 0 0 0 0 0 0 0 0 0 0 0 0 0 0 0 0 0 0 0 0 0 0 0 0 0 0 0 0 0 0 0 0 0 0 0 0 0 0 0 0 0 0 0 0 0 0 0 0 0 0 0 0 0 0 0 0 0 0 0 0 0 0 0 0 0 0 0 0 0 0 0 0 0 0 0 0 0 0 0 0 0 0 0 0 0 0 0 0 0 0 0 0 0 0 0 0 0 0 0 0 0 0 0 0 0 0 0 0 0 0 0 0 0 0 0 0 0 0 0 0 0 0 0 0 0 0 0 0 0 0 0 0 0 0 0 0 0 0 0 0 0 0 0 0 0 0 0 0 0 0 0 0 0 0 0 0 0 0 0 0 0 0 0 0 0 0 0 0 0 0 0 0 0 0 0 0 0 0 0 0 0 0 0 0 0 0 0 0 0 0 0 0 0 0 0 0 0 0 0 0 0 0 0 0 0 0 0 0 0 0 0 0 0 0 0 0 0 0 0 0 0 0 0 0 0 0 0 0 0 0 0 0 0 0 0 0 0 0 0 0 0 0 0 0 0 0 0 0 0 0 0 0 0 0 0 0 0 0 0 0 0 0 0 0 0 0 0 0 0 0 0 0 0 0 0 0 0 0 0 0 0 0 0 0 0 0 0 0 0 0 0 0 0 0 0 0 0 0 0 0 0 0 0 0 0 0 0 0 0 0 0 0 0 0 0 0 0 0 0 0 0 0 0 0 0 0 0 0 0 0 0 0 0 0 0 0 0 0 0 0 0 0 0 0 0 0 0 0 0 0 0 0 0 0 0 0 0 0 0 0 0 0 0 0 0 0 0 0 0 0 0 0 0 0 0 0 0 0 0 0 0 0 0 0 0 0 0 0 0 0 0 0 0 0 0 0 0 0 0 0 0 0 0 0 0 0 0 0 0 0 0 0 0 0 0 0 0 0 0 0 0 0 0 0 0 0 0 0 0 0 0 0 0 0 0 0 0 0 0 0 0 0 0 0 0 0 0 0 0 0 0 0 0 0 0 0 0 0 0 0 0 0 0 0 0 0 0 0 0 0 0 0 0 0 0 0 0 0 0 0 0 0 0 0 0 0 0 0 0 0 0 0 0 0 0 0 0 0 0 0 0 0 0 0 0 0 0 0 0 0 0 0 0 0 0 0 0 0 0 0 0 0 0 0 0 0 0 0 0 0 0 0 0 0 0 0 0 0 0 0 0 0 0 0 0 0 0 0 0 0 0 0 0 0 0 0 0 0 0 0 0 0 0 0 0 0 0 0 0 0 0 0 0 0 0 0 0 0 0 0 0 0 0 0 0 0 0 0 0 0 0 0 0 0 0 0 0 0 0 0 0 0 0 0 0 0 0 0 0 0 0 0 0 0 0 0 0 0 0 0 0 0 0 0 0 0 0 0 0 0 0 0 0 0 0 0 0 0 0 0 0 0 0 0 0 0 0 0 0 0 0 0 0 0 0 0 0 0 0 0 0 0 0 0 0 0 0 0 0 0 0 0 0 0 0 0 0 0 0 0 0 0 0 0 0 0 0 0 0 0 0 0 0 0 0 0 0 0 0 0 0 0 0 0 0 0 0 0 0 0 0 0 0 0 0 0 0 0 0 0 0 0 0 0 0 0 0 0 0 0 0 0 0 0 0 0 0 0</DataArray>
        <DataArray type="Float64" Name="ShellTopVonMises" format="ascii">73242.654919 88426.5877814 98593.1806658 104394.689756 105781.763415 102720.082584 95261.252024 83524.8191324 67698.975385 48204.521278 27201.4226527 23230.9233146 52504.3323312 96328.1063602 157662.927549 275064.088377 91795.3043866 100144.479283 107182.055228 111002.6789 111000.759359 106940.009047 98785.8485301 86661.1876349 70930.355022 52751.5481295 37121.7740095 40943.5258168 70913.9645805 117687.88827 183473.205111 240765.624526 109005.684323 115585.147806 119706.4963 120712.630188 118169.074427 111885.006924 101847.450101 88234.1813101 71629.2496619 54021.7511151 42853.1131905 53342.3195207 85513.1771337 130694.021861 178317.135624 216424.709188 129821.666322 133130.656382 133616.055376 130981.795807 125030.037514 115671.484655 102945.107003 87111.2475565 69033.308194 51707.5136039 44913.7708959 60656.0557173 92917.3341146 131588.746847 169923.26313 203877.808626 153213.201711 151715.840592 147586.964961 140645.389401 130774.360083 117937.721668 102228.466473 84031.4892772 64589.3796882 48101.5682972 45930.3021435 64872.9072306 95323.2057702 129546.318988 163816.192652 196504.002371 176868.360466 169827.132395 160672.016015 149228.424305 135396.11522 119170.869025 100719.860775 80605.7040589 60523.7561347 45777.2683507 47521.3177678 67418.5151283 95821.824271 127186.497659 159379.742844 191826.863654 198346.024941 185956.768003 172060.505415 156478.155385 139126.236266 120051.575092 99527.3762714 78321.4054894 58533.8737098 45964.8051563 49900.7528034 69143.4891388 95484.4579851 124786.402284 155671.102356 187896.329398 215776.543355 198923.469267 181111.5142 162187.352866 142117.367709 121029.929418 99321.2231018 77938.5828045 59197.6755071 48568.3775146 52951.2421261 70469.0846028 94625.0952976 122064.681615 151690.493425 183365.560177 228187.912953 208085.294424 187447.496786 166192.563274 144373.918605 122223.720656 100255.68702 79531.6454831 62328.0196388 53153.3232477 56747.4144397 71714.5166918 93262.1513613 118551.088879 146559.594608 177123.755856 235472.36444 213324.230232 190950.39198 168382.533592 145792.435135 123527.969142 102208.576013 82924.7073367 67633.7129582 59511.0751273 61504.7443545 73073.9716717 91223.2217823 113692.448758 139465.743708 168242.794786 238025.125692 214792.876292 191600.804177 168632.713097 146202.02132 124805.71619 105149.662137 88168.2544442 75123.5968978 67666.961338 67350.1167582 74516.2560166 88124.0806649 106828.462086 129664.505835 156045.230148 236188.995221 212506.984184 189211.554596 166669.367179 145463.054393 126279.062623 109663.55518 95911.9684067 85165.371198 77687.4926785 74169.9520032 75732.1016002 83351.2152394 97183.3531948 116546.134374 140346.542057 229609.335392 205822.763998 183017.160859 162156.505228 144197.17418 129439.423476 117436.039083 107291.663046 98121.164163 89483.8856841 81762.1006489 76507.1425101 76415.146317 84036.9962251 99765.3126789 121760.678951 216228.791662 192491.972267 172082.396467 156537.079135 145468.368791 137283.32436 130142.500175 122570.38017 113649.453343 103021.388882 90939.4863076 78606.4616841 69037.7203005 67711.3038963 79184.9344703 101624.389475 189957.27707 170138.71445 159488.290954 154720.121798 152240.418319 149618.215587 145543.008611 139394.88652 130895.371864 119910.30209 106387.642564 90465.9677656 73011.4802848 57637.6394313 55418.4229138 78083.6842535 142807.216458 143654.282152 148785.147544 153644.586796 157025.11043 158755.738201 158894.365457 157468.545283 154394.341474 149444.119124 142214.362411 132068.496865 118034.99994 98655.5517871 71957.879546 38552.4148257</DataArray>
        <DataArray type="Float64" Name="ShellBottomVonMises" format="ascii">73242.654919 88426.5877814 98593.1806658 104394.689756 105781.763415 102720.082584 95261.252024 83524.8191324 67698.975385 48204.521278 27201.4226527 23230.9233146 52504.3323312 96328.1063602 157662.927549 275064.088377 91795.3043866 100144.479283 107182.055228 111002.6789 111000.759359 106940.009047 98785.8485301 86661.1876349 70930.355022 52751.5481295 37121.7740095 40943.5258168 70913.9645805 117687.88827 183473.205111 240765.624526 109005.684323 115585.147806 119706.4963 120712.630188 118169.074427 111885.006924 101847.450101 88234.1813101 71629.2496619 54021.7511151 42853.1131905 53342.3195207 85513.1771337 130694.021861 178317.135624 216424.709188 129821.666322 133130.656382 133616.055376 130981.795807 125030.037514 115671.484655 102945.107003 87111.2475565 69033.308194 51707.5136039 44913.7708959 60656.0557173 92917.3341146 131588.746847 169923.26313 203877.808626 153213.201711 151715.840592 147586.964961 140645.389401 130774.360083 117937.721668 102228.466473 84031.4892772 64589.3796882 48101.5682972 45930.3021435 64872.9072306 95323.2057702 129546.318988 163816.192652 196504.002371 176868.360466 169827.132395 160672.016015 149228.424305 135396.11522 119170.869025 100719.860775 80605.7040589 60523.7561347 45777.2683507 47521.3177678 67418.5151283 95821.824271 127186.497659 159379.742844 191826.863654 198346.024941 185956.768003 172060.505415 156478.155385 139126.236266 120051.575092 99527.3762714 78321.4054894 58533.8737098 45964.8051563 49900.7528034 69143.4891388 95484.4579851 124786.402284 155671.102356 187896.329398 215776.543355 198923.469267 181111.5142 162187.352866 142117.367709 121029.929418 99321.2231018 77938.5828045 59197.6755071 48568.3775146 52951.2421261 70469.0846028 94625.0952976 122064.681615 151690.493425 183365.560177 228187.912953 208085.294424 187447.496786 166192.563274 144373.918605 122223.720656 100255.68702 79531.6454831 62328.0196388 53153.3232477 56747.4144397 71714.5166918 93262.1513613 118551.088879 146559.594608 177123.755856 235472.36444 213324.230232 190950.39198 168382.533592 145792.435135 123527.969142 102208.576013 82924.7073367 67633.7129582 59511.0751273 61504.7443545 73073.9716717 91223.2217823 113692.448758 139465.743708 168242.794786 238025.125692 214792.876292 191600.804177 168632.713097 146202.02132 124805.71619 105149.662137 88168.2544442 75123.5968978 67666.961338 67350.1167582 74516.2560166 88124.0806649 106828.462086 129664.505835 156045.230148 236188.995221 212506.984184 189211.554596 166669.367179 145463.054393 126279.062623 109663.55518 95911.9684067 85165.371198 77687.4926785 74169.9520032 75732.1016002 83351.2152394 97183.3531948 116546.134374 140346.542057 229609.335392 205822.763998 183017.160859 162156.505228 144197.17418 129439.423476 117436.039083 107291.663046 98121.164163 89483.8856841 81762.1006489 76507.1425101 76415.146317 84036.9962251 99765.3126789 121760.678951 216228.791662 192491.972267 172082.396467 156537.079135 145468.368791 137283.32436 130142.500175 122570.38017 113649.453343 103021.388882 90939.4863076 78606.4616841 69037.7203005 67711.3038963 79184.9344703 101624.389475 189957.27707 170138.71445 159488.290954 154720.121798 152240.418319 149618.215587 145543.008611 139394.88652 130895.371864 119910.30209 106387.642564 90465.9677656 73011.4802848 57637.6394313 55418.4229138 78083.6842535 142807.216458 143654.282152 148785.147544 153644.586796 157025.11043 158755.738201 158894.365457 157468.545283 154394.341474 149444.119124 142214.362411 132068.496865 118034.99994 98655.5517871 71957.879546 38552.4148257</DataArray>
      </CellData>
    </Piece>
  </UnstructuredGrid>
</VTKFile>
