$MeshFormat
4.1 0 8
$EndMeshFormat
$PhysicalNames
8
0 6 "anchor_origin"
0 7 "anchor_x"
0 8 "anchor_xy"
2 2 "x_min"
2 3 "x_max"
2 4 "y_min"
2 5 "z_min"
3 1 "domain"
$EndPhysicalNames
$Entities
8 12 6 1
1 0 0 0.2 0 
2 0 0 0 1 6 
3 0 1 0.2 0 
4 0 1 0 1 8 
5 2 0 0.2 0 
6 2 0 0 1 7 
7 2 1 0.2 0 
8 2 1 0 0 
1 -1e-07 -1e-07 -1.000000000028756e-07 1e-07 1e-07 0.2000001 0 2 2 -1 
2 -1e-07 -9.999999994736442e-08 0.1999999 1e-07 1.0000001 0.2000001 0 2 1 -3 
3 -1e-07 0.9999999000000001 -1.000000000028756e-07 1e-07 1.0000001 0.2000001 0 2 4 -3 
4 -1e-07 -9.999999994736442e-08 -1e-07 1e-07 1.0000001 1e-07 0 2 2 -4 
5 1.9999999 -1e-07 -1.000000000028756e-07 2.0000001 1e-07 0.2000001 0 2 6 -5 
6 1.9999999 -9.999999994736442e-08 0.1999999 2.0000001 1.0000001 0.2000001 0 2 5 -7 
7 1.9999999 0.9999999000000001 -1.000000000028756e-07 2.0000001 1.0000001 0.2000001 0 2 8 -7 
8 1.9999999 -9.999999994736442e-08 -1e-07 2.0000001 1.0000001 1e-07 0 2 6 -8 
9 -9.999999994736442e-08 -1e-07 -1e-07 2.0000001 1e-07 1e-07 0 2 2 -6 
10 -9.999999994736442e-08 -1e-07 0.1999999 2.0000001 1e-07 0.2000001 0 2 1 -5 
11 -9.999999994736442e-08 0.9999999000000001 -1e-07 2.0000001 1.0000001 1e-07 0 2 4 -8 
12 -9.999999994736442e-08 0.9999999000000001 0.1999999 2.0000001 1.0000001 0.2000001 0 2 3 -7 
1 -1e-07 -9.999999994736442e-08 -1.000000000028756e-07 1e-07 1.0000001 0.2000001 1 2 4 -1 4 3 -2 
2 1.9999999 -9.999999994736442e-08 -1.000000000028756e-07 2.0000001 1.0000001 0.2000001 1 3 4 -5 8 7 -6 
3 -9.999999994736442e-08 -1e-07 -1.000000000028756e-07 2.0000001 1e-07 0.2000001 1 4 4 -9 1 10 -5 
4 -9.999999994736442e-08 0.9999999000000001 -1.000000000028756e-07 2.0000001 1.0000001 0.2000001 0 4 -11 3 12 -7 
5 -9.999999994736442e-08 -9.999999994736442e-08 -1e-07 2.0000001 1.0000001 1e-07 1 5 4 -4 9 8 -11 
6 -9.999999994736442e-08 -9.999999994736442e-08 0.1999999 2.0000001 1.0000001 0.2000001 0 4 -2 10 6 -12 
1 -9.999999994736442e-08 -9.999999994736442e-08 -1.000000000028756e-07 2.0000001 1.0000001 0.2000001 1 1 6 -1 2 -3 4 -5 6 
$EndEntities
$Nodes
23 88 1 88
0 1 0 1
1
0 0 0.2
0 2 0 1
2
0 0 0
0 3 0 1
3
0 1 0.2
0 4 0 1
4
0 1 0
0 5 0 1
5
2 0 0.2
0 6 0 1
6
2 0 0
0 7 0 1
7
2 1 0.2
0 8 0 1
8
2 1 0
1 2 0 2
9
10
0 0.3333333333333333 0.2
0 0.6666666666666666 0.2
1 4 0 2
11
12
0 0.3333333333333333 0
0 0.6666666666666666 0
1 6 0 2
13
14
2 0.3333333333333333 0.2
2 0.6666666666666666 0.2
1 8 0 2
15
16
2 0.3333333333333333 0
2 0.6666666666666666 0
1 9 0 5
17
18
19
20
21
0.3333333333333332 0 0
0.6666666666666665 0 0
0.9999999999999999 0 0
1.333333333333333 0 0
1.666666666666667 0 0
1 10 0 5
22
23
24
25
26
0.3333333333333332 0 0.2
0.6666666666666665 0 0.2
0.9999999999999999 0 0.2
1.333333333333333 0 0.2
1.666666666666667 0 0.2
1 11 0 5
27
28
29
30
31
0.3333333333333332 1 0
0.6666666666666665 1 0
0.9999999999999999 1 0
1.333333333333333 1 0
1.666666666666667 1 0
1 12 0 5
32
33
34
35
36
0.3333333333333332 1 0.2
0.6666666666666665 1 0.2
0.9999999999999999 1 0.2
1.333333333333333 1 0.2
1.666666666666667 1 0.2
2 1 0 3
37
38
39
0 0.1666666666666666 0.1
0 0.5 0.1
0 0.8333333333333333 0.1
2 2 0 3
40
41
42
2 0.1666666666666666 0.1
2 0.5 0.1
2 0.8333333333333333 0.1
2 3 0 6
43
44
45
46
47
48
1.833333333333333 0 0.1000000000000001
1.5 0 0.1
0.4999999999999999 0 0.1
0.8333333333333331 0 0.09999999999999999
1.166666666666667 0 0.1
0.1666666666666666 0 0.1
2 4 0 6
49
50
51
52
53
54
1.833333333333333 1 0.1000000000000001
1.5 1 0.1
0.8333333333333331 1 0.1
1.166666666666667 1 0.1
0.4999999999999998 1 0.1
0.1666666666666666 1 0.1
2 5 0 17
55
56
57
58
59
60
61
62
63
64
65
66
67
68
69
70
71
1.498466637364595 0.7448341850922502 0
0.5015333626354045 0.2551658149077497 0
1.166666666666667 0.2886751345948129 0
0.8333333333333333 0.7113248654051871 0
0.5015333626354045 0.7448341850922502 0
0.8333998578125172 0.2805097062113999 0
1.498466637364595 0.2551658149077498 0
1.166600142187482 0.7194902937885999 0
1.712258795153277 0.5 0
0.2877412048467228 0.5 0
0.6666666666666666 0.5000000000000001 0
1.333333333333334 0.5000000000000002 0
0.9999999999999997 0.4999999999999999 0
1.757680245148314 0.7576802451483142 0
1.757680245148314 0.2423197548516858 0
0.2423197548516855 0.2423197548516855 0
0.2423197548516855 0.7576802451483144 0
2 6 0 17
72
73
74
75
76
77
78
79
80
81
82
83
84
85
86
87
88
1.507904025202251 0.2498603247254231 0.2
0.4999999999999999 0.2886751345948128 0.2
1.166666666666667 0.7243597651629823 0.2
0.5067167860039145 0.6841562928106447 0.2
1.498466637364595 0.7471498566114071 0.2
0.8438901855049747 0.7144179316742468 0.2
1.020634251037252 0.4769045712746007 0.2
1.704877480357829 0.499782582723875 0.2
0.2537939650015557 0.4967656461196973 0.2
0.7358795061806682 0.469329038417901 0.2
1.171423046039917 0.2396816269008686 0.2
0.8374376765724567 0.2196544401860719 0.2
1.339283342403785 0.4951264721510472 0.2
1.757680245148315 0.2423197548516854 0.2
0.2423197548516855 0.2423197548516855 0.2
0.2423197548516855 0.7576802451483144 0.2
1.757680245148315 0.7576802451483147 0.2
3 1 0 0
$EndNodes
$Elements
8 309 1 309
0 2 15 1
1 2 
0 4 15 1
2 4 
0 6 15 1
3 6 
2 1 2 12
4 2 1 37 
5 1 9 37 
6 11 2 37 
7 3 4 39 
8 10 3 39 
9 4 12 39 
10 9 10 38 
11 9 11 37 
12 11 9 38 
13 10 12 38 
14 12 10 39 
15 12 11 38 
2 2 2 12
16 6 40 5 
17 5 40 13 
18 15 40 6 
19 7 42 8 
20 14 42 7 
21 8 42 16 
22 13 41 14 
23 13 40 15 
24 15 41 13 
25 14 41 16 
26 16 42 14 
27 16 41 15 
2 3 2 24
28 1 2 48 
29 22 1 48 
30 2 17 48 
31 6 5 43 
32 5 26 43 
33 21 6 43 
34 17 18 45 
35 22 17 45 
36 17 22 48 
37 18 19 46 
38 18 23 45 
39 23 18 46 
40 19 20 47 
41 19 24 46 
42 24 19 47 
43 20 21 44 
44 25 20 44 
45 20 25 47 
46 26 21 43 
47 21 26 44 
48 23 22 45 
49 24 23 46 
50 25 24 47 
51 26 25 44 
2 5 2 50
52 2 11 70 
53 17 2 70 
54 12 4 71 
55 4 27 71 
56 15 6 69 
57 6 21 69 
58 8 16 68 
59 31 8 68 
60 11 12 64 
61 11 64 70 
62 64 12 71 
63 16 15 63 
64 63 15 69 
65 16 63 68 
66 18 17 56 
67 56 17 70 
68 19 18 60 
69 18 56 60 
70 20 19 57 
71 57 19 60 
72 21 20 61 
73 20 57 61 
74 21 61 69 
75 27 28 59 
76 27 59 71 
77 28 29 58 
78 28 58 59 
79 29 30 62 
80 58 29 62 
81 30 31 55 
82 30 55 62 
83 55 31 68 
84 62 55 66 
85 55 63 66 
86 63 55 68 
87 60 56 65 
88 56 64 65 
89 64 56 70 
90 57 60 67 
91 61 57 66 
92 66 57 67 
93 59 58 65 
94 58 62 67 
95 65 58 67 
96 64 59 65 
97 59 64 71 
98 60 65 67 
99 63 61 66 
100 61 63 69 
101 62 66 67 
3 1 4 208
102 57 19 20 47 
103 58 28 51 29 
104 30 52 29 62 
105 18 60 46 19 
106 34 35 74 52 
107 51 33 77 34 
108 13 79 14 41 
109 38 10 9 80 
110 63 15 16 41 
111 12 11 64 38 
112 30 31 50 55 
113 17 45 18 56 
114 44 20 61 21 
115 59 28 27 53 
116 76 35 36 50 
117 32 53 33 75 
118 23 45 22 73 
119 72 26 25 44 
120 85 5 26 43 
121 36 7 88 49 
122 39 3 10 87 
123 4 12 71 39 
124 8 42 68 16 
125 9 1 37 86 
126 70 11 2 37 
127 27 4 71 54 
128 86 1 48 22 
129 21 43 6 69 
130 17 70 2 48 
131 68 49 8 31 
132 15 6 40 69 
133 85 5 40 13 
134 7 14 88 42 
135 82 25 24 47 
136 32 3 54 87 
137 51 28 58 33 
138 58 51 33 77 
139 52 35 74 30 
140 74 34 52 29 
141 83 23 46 24 
142 52 74 29 62 
143 74 52 30 62 
144 15 85 13 41 
145 14 88 16 41 
146 34 77 51 29 
147 58 51 77 29 
148 15 85 41 69 
149 88 68 16 41 
150 8 42 49 68 
151 37 1 48 86 
152 48 70 2 37 
153 43 40 6 69 
154 39 54 3 87 
155 54 4 71 39 
156 40 5 85 43 
157 42 88 7 49 
158 29 74 77 62 
159 34 74 77 29 
160 76 62 30 55 
161 62 76 30 74 
162 29 77 58 62 
163 76 74 35 30 
164 38 12 10 80 
165 28 59 58 33 
166 17 45 56 22 
167 79 13 85 41 
168 88 14 79 41 
169 9 11 38 80 
170 31 76 50 55 
171 50 36 76 31 
172 63 16 68 41 
173 41 63 15 69 
174 56 45 18 23 
175 20 61 25 44 
176 30 50 76 55 
177 61 72 25 44 
178 50 76 35 30 
179 57 83 60 19 
180 82 83 57 19 
181 19 57 82 47 
182 79 72 84 61 
183 25 82 61 20 
184 53 27 59 32 
185 23 18 56 83 
186 59 28 53 33 
187 19 82 24 47 
188 38 64 12 80 
189 72 25 82 61 
190 57 61 82 20 
191 18 60 56 83 
192 20 82 57 47 
193 72 26 44 21 
194 44 61 72 21 
195 78 83 60 57 
196 83 78 82 57 
197 11 64 38 80 
198 66 79 84 61 
199 83 82 24 19 
200 25 82 20 47 
201 79 55 63 66 
202 66 63 79 61 
203 22 45 56 73 
204 61 82 84 57 
205 59 53 32 75 
206 60 18 46 83 
207 72 82 84 61 
208 23 56 45 73 
209 53 59 33 75 
210 76 74 62 66 
211 76 62 55 66 
212 62 74 77 67 
213 83 46 60 19 
214 71 54 39 87 
215 37 48 70 86 
216 49 42 88 68 
217 85 40 43 69 
218 23 46 18 83 
219 62 77 58 67 
220 74 78 77 67 
221 56 23 83 73 
222 65 56 60 81 
223 67 78 60 57 
224 80 64 75 73 
225 81 56 60 73 
226 46 83 24 19 
227 74 76 84 66 
228 71 10 12 80 
229 64 65 75 73 
230 60 83 81 73 
231 84 66 61 57 
232 87 10 71 80 
233 86 17 56 22 
234 9 11 80 86 
235 74 84 78 66 
236 76 68 79 55 
237 68 76 36 31 
238 31 68 76 55 
239 83 60 56 73 
240 65 64 56 73 
241 68 76 79 88 
242 56 70 17 86 
243 27 71 59 87 
244 36 88 76 68 
245 78 81 77 67 
246 58 77 81 67 
247 78 67 66 57 
248 60 81 78 67 
249 85 72 79 69 
250 81 75 65 73 
251 32 27 59 87 
252 21 72 26 69 
253 78 84 82 57 
254 21 61 72 69 
255 72 85 26 69 
256 65 56 81 73 
257 71 12 64 80 
258 81 83 60 78 
259 84 78 66 57 
260 64 65 59 75 
261 26 43 21 69 
262 37 11 9 86 
263 48 17 86 22 
264 71 12 10 39 
265 68 36 49 31 
266 55 68 79 63 
267 15 85 40 13 
268 14 88 42 16 
269 43 26 85 69 
270 88 36 49 68 
271 71 27 54 87 
272 48 17 70 86 
273 37 70 11 86 
274 68 42 88 16 
275 39 10 71 87 
276 85 15 40 69 
277 65 58 59 75 
278 65 58 81 67 
279 56 86 22 73 
280 87 59 32 75 
281 32 54 27 87 
282 81 60 65 67 
283 64 80 86 73 
284 7 8 42 49 
285 40 6 5 43 
286 48 2 1 37 
287 3 4 54 39 
288 75 58 33 77 
289 75 33 58 59 
290 79 61 69 72 
291 69 61 79 63 
292 74 67 66 78 
293 66 67 74 62 
294 66 76 79 55 
295 66 79 76 84 
296 58 81 75 65 
297 75 81 58 77 
298 86 64 11 80 
299 86 11 64 70 
300 71 80 75 87 
301 75 80 71 64 
302 75 59 71 87 
303 71 59 75 64 
304 68 79 41 88 
305 41 79 68 63 
306 56 86 64 70 
307 64 86 56 73 
308 69 79 41 63 
309 69 41 79 85 
$EndElements
