$MeshFormat
4.1 0 8
$EndMeshFormat
$PhysicalNames
8
0 6 "anchor_origin"
0 7 "anchor_x"
0 8 "anchor_xy"
2 2 "x_min"
2 3 "x_max"
2 4 "y_min"
2 5 "z_min"
3 1 "domain"
$EndPhysicalNames
$Entities
8 12 6 1
1 0 0 0.2 0 
2 0 0 0 1 6 
3 0 1 0.2 0 
4 0 1 0 1 8 
5 2 0 0.2 0 
6 2 0 0 1 7 
7 2 1 0.2 0 
8 2 1 0 0 
1 -1e-07 -1e-07 -1.000000000028756e-07 1e-07 1e-07 0.2000001 0 2 2 -1 
2 -1e-07 -9.999999994736442e-08 0.1999999 1e-07 1.0000001 0.2000001 0 2 1 -3 
3 -1e-07 0.9999999000000001 -1.000000000028756e-07 1e-07 1.0000001 0.2000001 0 2 4 -3 
4 -1e-07 -9.999999994736442e-08 -1e-07 1e-07 1.0000001 1e-07 0 2 2 -4 
5 1.9999999 -1e-07 -1.000000000028756e-07 2.0000001 1e-07 0.2000001 0 2 6 -5 
6 1.9999999 -9.999999994736442e-08 0.1999999 2.0000001 1.0000001 0.2000001 0 2 5 -7 
7 1.9999999 0.9999999000000001 -1.000000000028756e-07 2.0000001 1.0000001 0.2000001 0 2 8 -7 
8 1.9999999 -9.999999994736442e-08 -1e-07 2.0000001 1.0000001 1e-07 0 2 6 -8 
9 -9.999999994736442e-08 -1e-07 -1e-07 2.0000001 1e-07 1e-07 0 2 2 -6 
10 -9.999999994736442e-08 -1e-07 0.1999999 2.0000001 1e-07 0.2000001 0 2 1 -5 
11 -9.999999994736442e-08 0.9999999000000001 -1e-07 2.0000001 1.0000001 1e-07 0 2 4 -8 
12 -9.999999994736442e-08 0.9999999000000001 0.1999999 2.0000001 1.0000001 0.2000001 0 2 3 -7 
1 -1e-07 -9.999999994736442e-08 -1.000000000028756e-07 1e-07 1.0000001 0.2000001 1 2 4 -1 4 3 -2 
2 1.9999999 -9.999999994736442e-08 -1.000000000028756e-07 2.0000001 1.0000001 0.2000001 1 3 4 -5 8 7 -6 
3 -9.999999994736442e-08 -1e-07 -1.000000000028756e-07 2.0000001 1e-07 0.2000001 1 4 4 -9 1 10 -5 
4 -9.999999994736442e-08 0.9999999000000001 -1.000000000028756e-07 2.0000001 1.0000001 0.2000001 0 4 -11 3 12 -7 
5 -9.999999994736442e-08 -9.999999994736442e-08 -1e-07 2.0000001 1.0000001 1e-07 1 5 4 -4 9 8 -11 
6 -9.999999994736442e-08 -9.999999994736442e-08 0.1999999 2.0000001 1.0000001 0.2000001 0 4 -2 10 6 -12 
1 -9.999999994736442e-08 -9.999999994736442e-08 -1.000000000028756e-07 2.0000001 1.0000001 0.2000001 1 1 6 -1 2 -3 4 -5 6 
$EndEntities
$Nodes
23 170 1 170
0 1 0 1
1
0 0 0.2
0 2 0 1
2
0 0 0
0 3 0 1
3
0 1 0.2
0 4 0 1
4
0 1 0
0 5 0 1
5
2 0 0.2
0 6 0 1
6
2 0 0
0 7 0 1
7
2 1 0.2
0 8 0 1
8
2 1 0
1 2 0 4
9
10
11
12
0 0.2000000000000002 0.2
0 0.4000000000000008 0.2
0 0.6000000000000008 0.2
0 0.8000000000000002 0.2
1 4 0 4
13
14
15
16
0 0.2000000000000002 0
0 0.4000000000000008 0
0 0.6000000000000008 0
0 0.8000000000000002 0
1 6 0 4
17
18
19
20
2 0.2000000000000002 0.2
2 0.4000000000000008 0.2
2 0.6000000000000008 0.2
2 0.8000000000000002 0.2
1 8 0 4
21
22
23
24
2 0.2000000000000002 0
2 0.4000000000000008 0
2 0.6000000000000008 0
2 0.8000000000000002 0
1 9 0 8
25
26
27
28
29
30
31
32
0.2222222222222226 0 0
0.4444444444444449 0 0
0.6666666666666677 0 0
0.8888888888888908 0 0
1.111111111111113 0 0
1.333333333333334 0 0
1.555555555555556 0 0
1.777777777777777 0 0
1 10 0 8
33
34
35
36
37
38
39
40
0.2222222222222226 0 0.2
0.4444444444444449 0 0.2
0.6666666666666677 0 0.2
0.8888888888888908 0 0.2
1.111111111111113 0 0.2
1.333333333333334 0 0.2
1.555555555555556 0 0.2
1.777777777777777 0 0.2
1 11 0 8
41
42
43
44
45
46
47
48
0.2222222222222226 1 0
0.4444444444444449 1 0
0.6666666666666677 1 0
0.8888888888888908 1 0
1.111111111111113 1 0
1.333333333333334 1 0
1.555555555555556 1 0
1.777777777777777 1 0
1 12 0 8
49
50
51
52
53
54
55
56
0.2222222222222226 1 0.2
0.4444444444444449 1 0.2
0.6666666666666677 1 0.2
0.8888888888888908 1 0.2
1.111111111111113 1 0.2
1.333333333333334 1 0.2
1.555555555555556 1 0.2
1.777777777777777 1 0.2
2 1 0 5
57
58
59
60
61
0 0.5000000000000009 0.1
0 0.9 0.1
0 0.3000000000000005 0.1
0 0.7000000000000004 0.1
0 0.1000000000000001 0.1
2 2 0 5
62
63
64
65
66
2 0.5000000000000009 0.1
2 0.3000000000000005 0.1
2 0.9 0.1
2 0.7000000000000004 0.1
2 0.1000000000000001 0.1
2 3 0 9
67
68
69
70
71
72
73
74
75
0.7777777777777793 0 0.1
0.5555555555555562 0 0.1
1.888888888888889 0 0.1
0.1111111111111113 0 0.1
0.3333333333333337 0 0.1
1.000000000000002 0 0.1
1.222222222222224 0 0.1
1.444444444444445 0 0.1
1.666666666666667 0 0.1
2 4 0 9
76
77
78
79
80
81
82
83
84
0.7777777777777793 1 0.1
0.5555555555555562 1 0.1
1.888888888888889 1 0.1
0.1111111111111113 1 0.1
0.3333333333333337 1 0.1
1.000000000000002 1 0.1
1.222222222222224 1 0.1
1.444444444444445 1 0.1
1.666666666666667 1 0.1
2 5 0 43
85
86
87
88
89
90
91
92
93
94
95
96
97
98
99
100
101
102
103
104
105
106
107
108
109
110
111
112
113
114
115
116
117
118
119
120
121
122
123
124
125
126
127
1.83696054602386 0.4997956212692762 0
0.163394918578713 0.4999132244441463 0
1.22184141691051 0.8077013734943771 0
0.7775555821224791 0.8077669905746081 0
1.000000000000002 0.1924500897298748 0
1.449458374304988 0.201279171702115 0
0.5520963895337263 0.1986634167116443 0
1.67472771381768 0.7977904427410595 0
0.3248893116658333 0.7981237167788772 0
0.5541111860017564 0.8067685007492404 0
0.6661713692217133 0.6163766966070412 0
0.887861000529891 0.6157950218426567 0
0.7767994819413808 0.4244714887622301 0
0.5560461443450452 0.425191625324069 0
0.9982527129395989 0.4304967911056324 0
0.4571179952111117 0.6076566476873506 0
1.445425348636425 0.8063101070730696 0
1.332969926647818 0.6163769916374716 0
1.542731560975359 0.6077109828935947 0
1.443468817676403 0.4270146282943129 0
1.223398421019897 0.432509418374146 0
1.223466758046971 0.1917315566364411 0
0.7765332419530317 0.191731556636442 0
0.3148085217118696 0.1728977673533249 0
1.685964182986019 0.1732014253413077 0
0.9994333233869673 0.8077401575126679 0
1.10934194075892 0.615177559164367 0
0.1698624099746209 0.3000000000000005 0
0.3576086499985939 0.4009729714741644 0
1.84537681356412 0.6930717352133768 0
0.1544709339622293 0.6931437893031163 0
1.830982858534665 0.3000000000000005 0
1.642678023562605 0.4016440715676391 0
1.859576461031915 0.8581724355908872 0
0.1426852676625434 0.8582775510965871 0
0.148669874698951 0.1417319595420442 0
1.858944963859693 0.1346402850682617 0
1.708494931588725 0.6000025707369893 0
0.2899341706350703 0.6024881187986151 0
1.334309809956608 0.3092763038284991 0
1.111057119724258 0.3107399274631748 0
0.6660436075981342 0.3085884801780547 0
0.8875269267448502 0.3088789683058735 0
2 6 0 43
128
129
130
131
132
133
134
135
136
137
138
139
140
141
142
143
144
145
146
147
148
149
150
151
152
153
154
155
156
157
158
159
160
161
162
163
164
165
166
167
168
169
170
1.837108213511858 0.5002074708431001 0.2
0.1628917864881416 0.5002074708431001 0.2
1.222510734883503 0.8139925399185223 0.2
0.7775756408808033 0.1922373750370799 0.2
1.222265073695559 0.192237375037079 0.2
0.7776625921314197 0.814155667730513 0.2
1.675110688334167 0.2018762832211226 0.2
0.3248893116658333 0.2018762832211231 0.2
1.685128528009262 0.8282700883207326 0.2
0.314871471990738 0.8282700883207325 0.2
0.5541145291281436 0.1932322268527076 0.2
0.6661019592714299 0.3837052951692819 0.2
0.8883521676614775 0.3842413285057172 0.2
0.7767991663731141 0.5756675830553326 0.2
0.5555240510241188 0.5751082200659346 0.2
0.9990783707825102 0.5670147484212291 0.2
0.4566577145146176 0.3925278083946076 0.2
0.5512988158307623 0.8023337674272675 0.2
1.445858923301251 0.1932322268527067 0.2
1.33470595844832 0.3832461780117136 0.2
1.543788177333427 0.3919236376869792 0.2
1.446369929915005 0.5719423129777341 0.2
1.22569175251551 0.5686559630379293 0.2
1.450739692636176 0.7999468829730321 0.2
1.111672148781592 0.3822460819153873 0.2
0.9999775051699059 0.1918270267492106 0.2
0.9999906924785118 0.8146572562412993 0.2
1.845612921386199 0.306876326578092 0.2
1.830982858534665 0.7000000000000003 0.2
1.643454747043617 0.5985431820004234 0.2
0.1543870786138008 0.3068763265780922 0.2
0.1690171414653346 0.7000000000000003 0.2
0.3571707359926833 0.5994227480361468 0.2
1.857326711672946 0.1417253226007285 0.2
1.851392797106241 0.8583376757970581 0.2
0.1426732883270537 0.1417253226007287 0.2
0.1486072028937593 0.8583376757970579 0.2
1.710065829364929 0.3975118812013862 0.2
0.2899341706350704 0.3975118812013862 0.2
0.665868557981009 0.6913141115006489 0.2
1.112580123837538 0.6898271389300802 0.2
1.32629660257152 0.6888726501854224 0.2
0.888197183141028 0.6918316592919371 0.2
3 1 0 0
$EndNodes
$Elements
8 622 1 622
0 2 15 1
1 2 
0 4 15 1
2 4 
0 6 15 1
3 6 
2 1 2 20
4 2 1 61 
5 1 9 61 
6 13 2 61 
7 3 4 58 
8 12 3 58 
9 4 16 58 
10 9 10 59 
11 13 9 59 
12 9 13 61 
13 10 11 57 
14 14 10 57 
15 10 14 59 
16 11 12 60 
17 57 11 60 
18 12 58 60 
19 14 13 59 
20 15 14 57 
21 16 15 60 
22 15 57 60 
23 58 16 60 
2 2 2 20
24 6 66 5 
25 5 66 17 
26 21 66 6 
27 7 64 8 
28 20 64 7 
29 8 64 24 
30 17 63 18 
31 21 63 17 
32 17 66 21 
33 18 62 19 
34 22 62 18 
35 18 63 22 
36 19 65 20 
37 62 65 19 
38 20 65 64 
39 22 63 21 
40 23 62 22 
41 24 65 23 
42 23 65 62 
43 64 65 24 
2 3 2 36
44 1 2 70 
45 33 1 70 
46 2 25 70 
47 6 5 69 
48 5 40 69 
49 32 6 69 
50 25 26 71 
51 25 33 70 
52 33 25 71 
53 26 27 68 
54 34 26 68 
55 26 34 71 
56 27 28 67 
57 35 27 67 
58 27 35 68 
59 28 29 72 
60 28 36 67 
61 36 28 72 
62 29 30 73 
63 29 37 72 
64 37 29 73 
65 30 31 74 
66 30 38 73 
67 38 30 74 
68 31 32 75 
69 31 39 74 
70 39 31 75 
71 40 32 69 
72 32 40 75 
73 34 33 71 
74 35 34 68 
75 36 35 67 
76 37 36 72 
77 38 37 73 
78 39 38 74 
79 40 39 75 
2 5 2 112
80 2 13 120 
81 25 2 120 
82 16 4 119 
83 4 41 119 
84 21 6 121 
85 6 32 121 
86 8 24 118 
87 48 8 118 
88 13 14 112 
89 13 112 120 
90 14 15 86 
91 14 86 112 
92 15 16 115 
93 86 15 115 
94 115 16 119 
95 22 21 116 
96 116 21 121 
97 23 22 85 
98 85 22 116 
99 24 23 114 
100 23 85 114 
101 24 114 118 
102 26 25 108 
103 108 25 120 
104 27 26 91 
105 91 26 108 
106 28 27 107 
107 27 91 107 
108 29 28 89 
109 89 28 107 
110 30 29 106 
111 29 89 106 
112 31 30 90 
113 90 30 106 
114 32 31 109 
115 31 90 109 
116 32 109 121 
117 41 42 93 
118 41 93 119 
119 42 43 94 
120 93 42 94 
121 43 44 88 
122 43 88 94 
123 44 45 110 
124 88 44 110 
125 45 46 87 
126 45 87 110 
127 46 47 101 
128 87 46 101 
129 47 48 92 
130 47 92 101 
131 92 48 118 
132 114 85 122 
133 85 116 117 
134 85 117 122 
135 112 86 113 
136 113 86 123 
137 86 115 123 
138 87 101 102 
139 87 102 111 
140 110 87 111 
141 94 88 95 
142 95 88 96 
143 96 88 110 
144 106 89 125 
145 89 107 127 
146 125 89 127 
147 90 104 117 
148 104 90 124 
149 90 106 124 
150 109 90 117 
151 98 91 113 
152 91 98 126 
153 107 91 126 
154 91 108 113 
155 101 92 103 
156 103 92 122 
157 114 92 118 
158 92 114 122 
159 93 94 100 
160 93 100 123 
161 93 115 119 
162 115 93 123 
163 94 95 100 
164 95 96 97 
165 95 97 98 
166 95 98 100 
167 97 96 99 
168 99 96 111 
169 96 110 111 
170 98 97 126 
171 97 99 127 
172 126 97 127 
173 100 98 113 
174 105 99 111 
175 99 105 125 
176 99 125 127 
177 100 113 123 
178 102 101 103 
179 102 103 104 
180 102 104 105 
181 102 105 111 
182 104 103 117 
183 117 103 122 
184 105 104 124 
185 105 124 125 
186 124 106 125 
187 107 126 127 
188 108 112 113 
189 112 108 120 
190 116 109 117 
191 109 116 121 
3 1 4 431
192 22 18 155 63 
193 158 10 14 59 
194 72 153 37 29 
195 28 67 36 131 
196 153 36 28 72 
197 29 132 37 73 
198 153 72 89 29 
199 28 153 72 89 
200 67 28 107 131 
201 29 106 132 73 
202 35 67 107 131 
203 52 44 81 154 
204 53 154 81 45 
205 77 94 43 51 
206 38 132 106 73 
207 109 75 39 31 
208 84 136 55 47 
209 27 68 35 138 
210 158 14 112 59 
211 137 42 80 50 
212 44 110 81 154 
213 63 155 22 116 
214 26 108 71 34 
215 110 81 154 45 
216 52 76 44 133 
217 107 27 67 35 
218 30 146 38 74 
219 46 83 54 101 
220 130 53 82 45 
221 76 88 44 133 
222 82 130 45 87 
223 76 43 88 133 
224 38 106 30 73 
225 75 39 134 109 
226 130 82 46 87 
227 43 76 51 133 
228 136 84 92 47 
229 135 71 108 34 
230 80 93 42 137 
231 26 34 68 138 
232 74 146 39 31 
233 54 130 82 46 
234 75 161 40 121 
235 131 36 28 153 
236 153 132 37 29 
237 28 131 153 89 
238 132 153 89 29 
239 131 28 107 89 
240 121 75 161 109 
241 132 89 106 29 
242 60 57 115 11 
243 57 60 115 15 
244 65 62 19 114 
245 65 62 114 23 
246 18 22 155 62 
247 10 14 57 158 
248 45 154 110 87 
249 118 84 162 48 
250 84 162 136 118 
251 154 44 110 133 
252 138 35 107 131 
253 88 110 44 133 
254 116 63 161 121 
255 154 52 44 133 
256 128 19 62 114 
257 132 146 38 106 
258 57 14 86 158 
259 155 62 22 85 
260 57 115 11 129 
261 45 130 154 87 
262 53 130 154 45 
263 41 119 80 164 
264 120 71 163 33 
265 35 107 27 138 
266 94 88 43 133 
267 87 46 130 101 
268 51 94 43 133 
269 155 63 161 116 
270 106 146 38 30 
271 51 77 94 145 
272 68 27 91 138 
273 74 90 146 31 
274 68 91 26 138 
275 30 90 146 74 
276 83 151 54 101 
277 55 151 83 47 
278 109 39 146 31 
279 46 54 130 101 
280 26 108 34 138 
281 65 19 156 114 
282 63 21 161 121 
283 11 115 60 159 
284 40 75 121 32 
285 151 83 47 101 
286 19 128 156 114 
287 14 112 86 158 
288 11 115 159 129 
289 18 155 128 62 
290 85 22 155 116 
291 66 161 21 121 
292 23 62 114 85 
293 15 86 115 57 
294 129 10 57 158 
295 47 92 136 101 
296 134 39 146 109 
297 62 155 128 85 
298 114 62 128 85 
299 108 135 34 138 
300 129 57 86 158 
301 170 96 110 111 
302 169 87 102 111 
303 86 115 57 129 
304 17 21 161 63 
305 13 9 163 59 
306 61 13 9 163 
307 21 17 161 66 
308 87 169 168 111 
309 152 147 132 124 
310 124 132 152 125 
311 163 120 13 59 
312 168 170 110 111 
313 140 153 99 152 
314 152 153 99 125 
315 147 152 105 124 
316 99 127 153 140 
317 152 105 124 125 
318 127 99 153 125 
319 141 95 97 139 
320 96 170 143 111 
321 168 143 170 111 
322 102 150 169 111 
323 92 84 136 118 
324 150 168 169 111 
325 61 120 13 163 
326 141 97 96 140 
327 95 96 88 141 
328 139 131 97 140 
329 97 126 131 139 
330 98 97 95 139 
331 167 95 88 141 
332 95 141 142 139 
333 101 149 169 102 
334 109 121 75 32 
335 131 127 97 140 
336 97 99 96 140 
337 164 80 41 49 
338 71 120 25 33 
339 170 88 96 141 
340 118 92 84 48 
341 56 162 84 48 
342 97 126 127 131 
343 75 134 161 109 
344 142 98 95 139 
345 96 143 141 140 
346 111 150 152 105 
347 152 99 111 105 
348 102 147 105 104 
349 170 167 88 141 
350 152 99 143 111 
351 102 149 147 104 
352 147 150 102 105 
353 150 152 143 111 
354 143 96 99 140 
355 150 149 147 102 
356 138 126 98 139 
357 104 148 147 124 
358 161 69 40 121 
359 167 94 95 142 
360 40 134 161 75 
361 135 163 71 33 
362 41 119 93 80 
363 148 146 147 124 
364 122 156 128 114 
365 102 101 149 103 
366 146 90 109 31 
367 98 144 138 139 
368 108 26 91 138 
369 100 95 94 142 
370 155 165 85 116 
371 118 156 92 114 
372 115 123 159 129 
373 166 86 112 158 
374 128 122 114 85 
375 151 55 136 47 
376 122 128 165 85 
377 50 137 42 145 
378 125 153 127 89 
379 107 91 27 138 
380 47 136 151 101 
381 119 93 164 159 
382 86 123 129 166 
383 120 112 163 135 
384 93 119 115 159 
385 155 165 128 85 
386 118 162 78 48 
387 112 158 163 135 
388 155 161 134 116 
389 119 41 79 164 
390 33 163 120 70 
391 168 110 154 87 
392 87 130 169 101 
393 161 116 121 109 
394 153 131 127 89 
395 132 153 125 89 
396 123 115 86 129 
397 146 106 90 30 
398 122 92 156 114 
399 133 51 94 145 
400 166 129 86 158 
401 56 162 136 84 
402 100 94 93 145 
403 107 127 131 89 
404 125 124 132 106 
405 107 127 126 131 
406 21 63 116 121 
407 164 137 80 49 
408 110 154 133 170 
409 89 125 132 106 
410 88 110 133 170 
411 151 130 54 101 
412 25 108 120 71 
413 94 88 133 167 
414 138 107 126 131 
415 130 168 154 87 
416 121 69 40 32 
417 165 155 134 116 
418 93 115 123 159 
419 65 156 118 114 
420 115 119 60 159 
421 146 132 124 106 
422 110 154 170 168 
423 112 166 158 135 
424 65 156 162 118 
425 164 60 119 159 
426 88 133 167 170 
427 161 17 63 155 
428 163 9 158 59 
429 145 93 100 160 
430 41 79 164 49 
431 33 120 25 70 
432 162 56 78 48 
433 130 169 168 87 
434 112 13 120 59 
435 145 137 93 160 
436 58 119 12 60 
437 16 119 58 60 
438 149 169 151 101 
439 60 119 12 164 
440 169 87 101 102 
441 65 162 20 118 
442 116 161 134 109 
443 64 65 20 118 
444 65 64 24 118 
445 148 149 103 104 
446 127 131 153 140 
447 87 168 110 111 
448 153 152 132 125 
449 142 100 98 144 
450 110 88 96 170 
451 156 157 92 122 
452 12 119 58 164 
453 93 137 164 159 
454 117 165 134 116 
455 112 120 108 135 
456 126 138 131 139 
457 88 94 95 167 
458 64 20 162 118 
459 146 132 147 124 
460 93 123 160 159 
461 112 113 166 135 
462 91 126 98 138 
463 167 145 94 142 
464 101 151 149 103 
465 96 95 97 141 
466 97 141 139 140 
467 69 161 66 121 
468 163 61 120 70 
469 144 91 98 138 
470 145 100 94 142 
471 130 151 169 101 
472 110 44 81 45 
473 72 28 89 29 
474 36 153 37 72 
475 157 128 165 122 
476 85 165 122 117 
477 88 44 43 76 
478 35 36 67 131 
479 132 38 37 73 
480 45 46 82 87 
481 123 86 113 166 
482 123 160 129 166 
483 156 157 136 92 
484 145 94 133 167 
485 91 107 126 138 
486 134 117 116 109 
487 48 92 84 47 
488 40 39 134 75 
489 42 41 93 80 
490 34 135 71 33 
491 106 124 146 90 
492 150 147 152 105 
493 160 137 93 159 
494 67 28 27 107 
495 113 112 108 135 
496 143 99 96 111 
497 140 99 143 152 
498 111 102 150 105 
499 81 52 154 53 
500 29 30 106 73 
501 46 47 83 101 
502 94 43 42 77 
503 35 68 34 138 
504 39 38 146 74 
505 148 103 117 104 
506 149 157 148 103 
507 100 113 98 144 
508 157 156 128 122 
509 91 98 113 144 
510 100 142 160 144 
511 122 157 92 103 
512 142 145 100 160 
513 52 51 76 133 
514 104 117 148 90 
515 148 165 134 117 
516 98 142 144 139 
517 95 100 98 142 
518 157 149 151 103 
519 117 85 165 116 
520 16 115 119 60 
521 130 53 54 82 
522 113 144 166 135 
523 93 123 100 160 
524 123 160 159 129 
525 149 102 103 104 
526 112 113 86 166 
527 118 24 65 114 
528 149 148 147 104 
529 14 13 112 59 
530 162 20 156 65 
531 12 60 164 159 
532 22 21 63 116 
533 103 157 148 117 
534 105 152 99 125 
535 168 150 143 111 
536 160 113 100 144 
537 149 150 169 102 
538 61 2 120 70 
539 74 30 90 31 
540 122 165 157 117 
541 151 54 55 83 
542 143 170 96 141 
543 99 97 127 140 
544 97 98 126 139 
545 141 167 95 142 
546 160 123 113 166 
547 26 27 91 68 
548 17 18 63 155 
549 158 9 10 59 
550 51 50 77 145 
551 147 105 104 124 
552 55 56 136 84 
553 1 61 163 70 
554 5 69 161 66 
555 25 26 108 71 
556 31 109 75 32 
557 49 137 80 50 
558 64 162 78 118 
559 79 58 119 164 
560 2 25 120 70 
561 164 79 3 49 
562 162 56 7 78 
563 66 6 69 121 
564 121 6 69 32 
565 118 78 8 48 
566 5 69 40 161 
567 33 1 163 70 
568 119 41 4 79 
569 103 122 157 117 
570 165 148 157 117 
571 123 113 100 160 
572 160 113 144 166 
573 120 13 2 61 
574 61 9 1 163 
575 161 17 5 66 
576 21 6 66 121 
577 20 19 156 65 
578 60 12 11 159 
579 3 58 79 164 
580 7 162 78 64 
581 15 14 86 57 
582 19 18 128 62 
583 22 62 23 85 
584 114 24 65 23 
585 57 11 10 129 
586 16 15 115 60 
587 61 1 2 70 
588 69 5 6 66 
589 58 119 4 79 
590 64 78 8 118 
591 162 7 20 64 
592 58 3 12 164 
593 4 16 119 58 
594 24 64 8 118 
595 4 3 58 79 
596 78 8 7 64 
597 148 124 90 146 
598 90 124 148 104 
599 42 145 77 50 
600 77 145 42 94 
601 101 136 103 92 
602 101 103 136 151 
603 157 103 136 92 
604 157 136 103 151 
605 117 109 148 90 
606 117 148 109 134 
607 146 148 109 90 
608 146 109 148 134 
609 112 163 59 120 
610 59 163 112 158 
611 93 145 42 137 
612 42 145 93 94 
613 108 138 144 135 
614 144 138 108 91 
615 144 113 108 135 
616 108 113 144 91 
617 135 120 71 163 
618 135 71 120 108 
619 93 164 80 119 
620 80 164 93 137 
621 136 118 156 92 
622 156 118 136 162 
$EndElements
