$MeshFormat
4.1 0 8
$EndMeshFormat
$PhysicalNames
8
0 6 "anchor_origin"
0 7 "anchor_x"
0 8 "anchor_xy"
2 2 "x_min"
2 3 "x_max"
2 4 "y_min"
2 5 "z_min"
3 1 "domain"
$EndPhysicalNames
$Entities
8 12 6 1
1 0 0 0.2 0 
2 0 0 0 1 6 
3 0 1 0.2 0 
4 0 1 0 1 8 
5 2 0 0.2 0 
6 2 0 0 1 7 
7 2 1 0.2 0 
8 2 1 0 0 
1 -1e-07 -1e-07 -1.000000000028756e-07 1e-07 1e-07 0.2000001 0 2 2 -1 
2 -1e-07 -9.999999994736442e-08 0.1999999 1e-07 1.0000001 0.2000001 0 2 1 -3 
3 -1e-07 0.9999999000000001 -1.000000000028756e-07 1e-07 1.0000001 0.2000001 0 2 4 -3 
4 -1e-07 -9.999999994736442e-08 -1e-07 1e-07 1.0000001 1e-07 0 2 2 -4 
5 1.9999999 -1e-07 -1.000000000028756e-07 2.0000001 1e-07 0.2000001 0 2 6 -5 
6 1.9999999 -9.999999994736442e-08 0.1999999 2.0000001 1.0000001 0.2000001 0 2 5 -7 
7 1.9999999 0.9999999000000001 -1.000000000028756e-07 2.0000001 1.0000001 0.2000001 0 2 8 -7 
8 1.9999999 -9.999999994736442e-08 -1e-07 2.0000001 1.0000001 1e-07 0 2 6 -8 
9 -9.999999994736442e-08 -1e-07 -1e-07 2.0000001 1e-07 1e-07 0 2 2 -6 
10 -9.999999994736442e-08 -1e-07 0.1999999 2.0000001 1e-07 0.2000001 0 2 1 -5 
11 -9.999999994736442e-08 0.9999999000000001 -1e-07 2.0000001 1.0000001 1e-07 0 2 4 -8 
12 -9.999999994736442e-08 0.9999999000000001 0.1999999 2.0000001 1.0000001 0.2000001 0 2 3 -7 
1 -1e-07 -9.999999994736442e-08 -1.000000000028756e-07 1e-07 1.0000001 0.2000001 1 2 4 -1 4 3 -2 
2 1.9999999 -9.999999994736442e-08 -1.000000000028756e-07 2.0000001 1.0000001 0.2000001 1 3 4 -5 8 7 -6 
3 -9.999999994736442e-08 -1e-07 -1.000000000028756e-07 2.0000001 1e-07 0.2000001 1 4 4 -9 1 10 -5 
4 -9.999999994736442e-08 0.9999999000000001 -1.000000000028756e-07 2.0000001 1.0000001 0.2000001 0 4 -11 3 12 -7 
5 -9.999999994736442e-08 -9.999999994736442e-08 -1e-07 2.0000001 1.0000001 1e-07 1 5 4 -4 9 8 -11 
6 -9.999999994736442e-08 -9.999999994736442e-08 0.1999999 2.0000001 1.0000001 0.2000001 0 4 -2 10 6 -12 
1 -9.999999994736442e-08 -9.999999994736442e-08 -1.000000000028756e-07 2.0000001 1.0000001 0.2000001 1 1 6 -1 2 -3 4 -5 6 
$EndEntities
$Nodes
27 254 1 254
0 1 0 1
1
0 0 0.2
0 2 0 1
2
0 0 0
0 3 0 1
3
0 1 0.2
0 4 0 1
4
0 1 0
0 5 0 1
5
2 0 0.2
0 6 0 1
6
2 0 0
0 7 0 1
7
2 1 0.2
0 8 0 1
8
2 1 0
1 1 0 1
9
0 0 0.1000000000000001
1 2 0 5
10
11
12
13
14
0 0.1666666666666666 0.2
0 0.3333333333333333 0.2
0 0.4999999999999999 0.2
0 0.6666666666666666 0.2
0 0.8333333333333333 0.2
1 3 0 1
15
0 1 0.1000000000000001
1 4 0 5
16
17
18
19
20
0 0.1666666666666666 0
0 0.3333333333333333 0
0 0.4999999999999999 0
0 0.6666666666666666 0
0 0.8333333333333333 0
1 5 0 1
21
2 0 0.1000000000000001
1 6 0 5
22
23
24
25
26
2 0.1666666666666666 0.2
2 0.3333333333333333 0.2
2 0.4999999999999999 0.2
2 0.6666666666666666 0.2
2 0.8333333333333333 0.2
1 7 0 1
27
2 1 0.1000000000000001
1 8 0 5
28
29
30
31
32
2 0.1666666666666666 0
2 0.3333333333333333 0
2 0.4999999999999999 0
2 0.6666666666666666 0
2 0.8333333333333333 0
1 9 0 11
33
34
35
36
37
38
39
40
41
42
43
0.1666666666666665 0 0
0.3333333333333332 0 0
0.4999999999999998 0 0
0.6666666666666665 0 0
0.8333333333333331 0 0
0.9999999999999999 0 0
1.166666666666667 0 0
1.333333333333333 0 0
1.5 0 0
1.666666666666667 0 0
1.833333333333333 0 0
1 10 0 11
44
45
46
47
48
49
50
51
52
53
54
0.1666666666666665 0 0.2
0.3333333333333332 0 0.2
0.4999999999999998 0 0.2
0.6666666666666665 0 0.2
0.8333333333333331 0 0.2
0.9999999999999999 0 0.2
1.166666666666667 0 0.2
1.333333333333333 0 0.2
1.5 0 0.2
1.666666666666667 0 0.2
1.833333333333333 0 0.2
1 11 0 11
55
56
57
58
59
60
61
62
63
64
65
0.1666666666666665 1 0
0.3333333333333332 1 0
0.4999999999999998 1 0
0.6666666666666665 1 0
0.8333333333333331 1 0
0.9999999999999999 1 0
1.166666666666667 1 0
1.333333333333333 1 0
1.5 1 0
1.666666666666667 1 0
1.833333333333333 1 0
1 12 0 11
66
67
68
69
70
71
72
73
74
75
76
0.1666666666666665 1 0.2
0.3333333333333332 1 0.2
0.4999999999999998 1 0.2
0.6666666666666665 1 0.2
0.8333333333333331 1 0.2
0.9999999999999999 1 0.2
1.166666666666667 1 0.2
1.333333333333333 1 0.2
1.5 1 0.2
1.666666666666667 1 0.2
1.833333333333333 1 0.2
2 1 0 6
77
78
79
80
81
82
0 0.7499999999999999 0.1
0 0.8981746031746032 0.1
0 0.4166666666666666 0.1
0 0.2499999999999999 0.1
0 0.1018253968253968 0.1
0 0.5833333333333333 0.09999999999999999
2 2 0 6
83
84
85
86
87
88
2 0.7499999999999999 0.1
2 0.8981746031746032 0.1
2 0.4166666666666666 0.1
2 0.2499999999999999 0.1
2 0.1018253968253968 0.1
2 0.5833333333333333 0.1
2 3 0 12
89
90
91
92
93
94
95
96
97
98
99
100
1.75 0 0.1
1.898174603174603 0 0.09999999999999998
1.416666666666667 0 0.1
1.25 0 0.09999999999999998
0.2499999999999998 0 0.1
0.1018253968253967 0 0.1
0.5833333333333333 0 0.1
0.7499999999999998 0 0.09999999999999999
0.9166666666666665 0 0.1
1.583333333333333 0 0.1000000000000001
0.4166666666666665 0 0.1
1.083333333333333 0 0.1
2 4 0 12
101
102
103
104
105
106
107
108
109
110
111
112
1.75 1 0.1
1.898174603174603 1 0.09999999999999998
0.2499999999999998 1 0.1
0.1018253968253967 1 0.1
1.25 1 0.09999999999999998
1.416666666666667 1 0.09999999999999999
0.5833333333333333 1 0.1
0.7499999999999998 1 0.09999999999999996
0.9166666666666665 1 0.1
1.583333333333333 1 0.1000000000000001
0.4166666666666665 1 0.1
1.083333333333333 1 0.1
2 5 0 71
113
114
115
116
117
118
119
120
121
122
123
124
125
126
127
128
129
130
131
132
133
134
135
136
137
138
139
140
141
142
143
144
145
146
147
148
149
150
151
152
153
154
155
156
157
158
159
160
161
162
163
164
165
166
167
168
169
170
171
172
173
174
175
176
177
178
179
180
181
182
183
0.7499999999999998 0.8556624327025936 0
1.25 0.8556624327025936 0
0.9166666666666665 0.1443375672974066 0
1.416666666666667 0.1443375672974064 0
0.5833333333333326 0.1443375672974083 0
1.551839225527165 0.8606080974475407 0
0.1480905034530159 0.5817996668305734 0
1.861276009799873 0.4263896674113604 0
0.4166666666666665 0.8556624327025936 0
0.150949541240132 0.265304269842902 0
1.74929377178652 0.1411286741759719 0
1.858871325824028 0.7492937717865205 0
1.583215628631086 0.1438027517771673 0
1.498253220702651 0.2875888213174883 0
1.333042203450441 0.2884940823819255 0
1.414599853289652 0.4318042969532325 0
1.249607009456682 0.4327811257002406 0
1.332923366013278 0.5741673582751238 0
1.166631830579995 0.5756700033360509 0
1.083262028895001 0.4326940615512946 0
0.9999823099124999 0.5740742040978695 0
0.916651834245694 0.4324135843201076 0
1.488062847820833 0.5743803612192309 0
0.8333279129152551 0.5737614913529754 0
0.7499966245268244 0.4323147193240952 0
0.666665200684792 0.5736928950628254 0
0.5833325264241578 0.4322868091097358 0
0.4999996211848259 0.573676810645408 0
0.4166664690459412 0.4322794766711074 0
0.9166666666666684 0.7216878364870344 0
1.414511084548243 0.7253549605998659 0
0.5833333333333363 0.7216878364870376 0
0.3291376227263842 0.5749010175602329 0
0.2487884484101316 0.4284353234175773 0
0.2682723620417752 0.7238432466845277 0
0.3318740238292743 0.283108440867065 0
0.8333325433892917 0.2886188602932988 0
1.667400290677201 0.2735368704701056 0
1.166576735135173 0.2885880787917428 0
0.9999705236108599 0.288498286591876 0
0.6666666666666649 0.2886751345948175 0
1.055555555555556 0.8591167563965425 0
0.7499998683426592 0.1443281882471552 0
1.249936489764269 0.1442928826280801 0
0.4170744477714233 0.1437128474452096 0
1.857132844405712 0.5848361287552025 0
1.726728809454344 0.6643506775024385 0
1.7300673546516 0.511572960823261 0
0.4998245778451323 0.2874000459975573 0
1.083302846973939 0.1442861358848509 0
1.733944357528812 0.8485615855847271 0
1.847481264586272 0.2621884132132731 0
0.2549430622666236 0.1368118240704656 0
1.59438280987716 0.4351021377579103 0
1.409936728681748 0.88832509815 0
1.24947992289497 0.6869770214089241 0
1.099799557810678 0.7098644166123076 0
0.9111111111111114 0.8872934051172341 0
0.7499986227200103 0.6892984984184932 0
0.5833333333333338 0.8866025403784449 0
0.4194819211905976 0.6899542688159599 0
0.2499999999999999 0.8748327696670236 0
1.579569303441833 0.7088575606897694 0
0.1095656986206559 0.4217745186848772 0
0.131199934636122 0.7599398234766972 0
1.877991532071853 0.877991532071853 0
0.1220084679281462 0.1220084679281462 0
1.877991532071853 0.1220084679281465 0
0.1208367423219407 0.8791632576780595 0
1.623762225049154 0.578852739598522 0
1.740287634070037 0.3834983201887184 0
2 6 0 71
184
185
186
187
188
189
190
191
192
193
194
195
196
197
198
199
200
201
202
203
204
205
206
207
208
209
210
211
212
213
214
215
216
217
218
219
220
221
222
223
224
225
226
227
228
229
230
231
232
233
234
235
236
237
238
239
240
241
242
243
244
245
246
247
248
249
250
251
252
253
254
0.7499999999999998 0.8556624327025936 0.2
1.25 0.8556624327025936 0.2
0.9166666666666665 0.1443375672974066 0.2
1.416666666666667 0.1443375672974064 0.2
0.5833333333333326 0.1443375672974083 0.2
1.551839225527165 0.8606080974475407 0.2
0.1480905034530159 0.5817996668305734 0.2
1.861276009799873 0.4263896674113604 0.2
0.4166666666666665 0.8556624327025936 0.2
0.150949541240132 0.265304269842902 0.2
1.74929377178652 0.1411286741759719 0.2
1.858871325824028 0.7492937717865205 0.2
1.583215628631086 0.1438027517771673 0.2
1.498253220702651 0.2875888213174883 0.2
1.333042203450441 0.2884940823819255 0.2
1.414599853289652 0.4318042969532325 0.2
1.249607009456682 0.4327811257002406 0.2
1.332923366013278 0.5741673582751238 0.2
1.166631830579995 0.5756700033360509 0.2
1.083262028895001 0.4326940615512946 0.2
0.9999823099124999 0.5740742040978695 0.2
0.916651834245694 0.4324135843201076 0.2
1.488062847820833 0.5743803612192309 0.2
0.8333279129152551 0.5737614913529754 0.2
0.7499966245268244 0.4323147193240952 0.2
0.666665200684792 0.5736928950628254 0.2
0.5833325264241578 0.4322868091097358 0.2
0.4999996211848259 0.573676810645408 0.2
0.4166664690459412 0.4322794766711074 0.2
0.9166666666666684 0.7216878364870344 0.2
1.414511084548243 0.7253549605998659 0.2
0.5833333333333363 0.7216878364870376 0.2
0.3291376227263842 0.5749010175602329 0.2
0.2487884484101316 0.4284353234175773 0.2
0.2682723620417752 0.7238432466845277 0.2
0.3318740238292743 0.283108440867065 0.2
0.8333325433892917 0.2886188602932988 0.2
1.667400290677201 0.2735368704701056 0.2
1.166576735135173 0.2885880787917428 0.2
0.9999705236108599 0.288498286591876 0.2
0.6666666666666649 0.2886751345948175 0.2
1.055555555555556 0.8591167563965425 0.2
0.7499998683426592 0.1443281882471552 0.2
1.249936489764269 0.1442928826280801 0.2
0.4170744477714233 0.1437128474452096 0.2
1.857132844405712 0.5848361287552025 0.2
1.726728809454344 0.6643506775024385 0.2
1.7300673546516 0.511572960823261 0.2
0.4998245778451323 0.2874000459975573 0.2
1.083302846973939 0.1442861358848509 0.2
1.733944357528812 0.8485615855847271 0.2
1.847481264586272 0.2621884132132731 0.2
0.2549430622666236 0.1368118240704656 0.2
1.59438280987716 0.4351021377579103 0.2
1.409936728681748 0.88832509815 0.2
1.24947992289497 0.6869770214089241 0.2
1.099799557810678 0.7098644166123076 0.2
0.9111111111111114 0.8872934051172341 0.2
0.7499986227200103 0.6892984984184932 0.2
0.5833333333333338 0.8866025403784449 0.2
0.4194819211905976 0.6899542688159599 0.2
0.2499999999999999 0.8748327696670236 0.2
1.579569303441833 0.7088575606897694 0.2
0.1095656986206559 0.4217745186848772 0.2
0.131199934636122 0.7599398234766972 0.2
1.877991532071853 0.877991532071853 0.2
0.1220084679281462 0.1220084679281462 0.2
1.877991532071853 0.1220084679281465 0.2
0.1208367423219407 0.8791632576780595 0.2
1.623762225049154 0.578852739598522 0.2
1.740287634070037 0.3834983201887184 0.2
3 1 0 0
$EndNodes
$Elements
8 921 1 921
0 2 15 1
1 2 
0 4 15 1
2 4 
0 6 15 1
3 6 
2 1 2 26
4 9 1 81 
5 1 10 81 
6 2 9 81 
7 16 2 81 
8 14 3 78 
9 3 15 78 
10 15 4 78 
11 4 20 78 
12 10 11 80 
13 10 80 81 
14 11 12 79 
15 11 79 80 
16 12 13 82 
17 79 12 82 
18 13 14 77 
19 13 77 82 
20 77 14 78 
21 17 16 80 
22 80 16 81 
23 18 17 79 
24 79 17 80 
25 19 18 82 
26 18 79 82 
27 20 19 77 
28 77 19 82 
29 20 77 78 
2 2 2 26
30 21 87 5 
31 5 87 22 
32 6 87 21 
33 28 87 6 
34 26 84 7 
35 7 84 27 
36 27 84 8 
37 8 84 32 
38 22 86 23 
39 22 87 86 
40 23 85 24 
41 23 86 85 
42 24 88 25 
43 85 88 24 
44 25 83 26 
45 25 88 83 
46 83 84 26 
47 29 86 28 
48 86 87 28 
49 30 85 29 
50 85 86 29 
51 31 88 30 
52 30 88 85 
53 32 83 31 
54 83 88 31 
55 32 84 83 
2 3 2 50
56 1 9 94 
57 44 1 94 
58 9 2 94 
59 2 33 94 
60 21 5 90 
61 5 54 90 
62 6 21 90 
63 43 6 90 
64 33 34 93 
65 33 93 94 
66 34 35 99 
67 93 34 99 
68 35 36 95 
69 35 95 99 
70 36 37 96 
71 95 36 96 
72 37 38 97 
73 96 37 97 
74 38 39 100 
75 97 38 100 
76 39 40 92 
77 39 92 100 
78 40 41 91 
79 40 91 92 
80 41 42 98 
81 91 41 98 
82 42 43 89 
83 42 89 98 
84 89 43 90 
85 45 44 93 
86 93 44 94 
87 46 45 99 
88 45 93 99 
89 47 46 95 
90 95 46 99 
91 48 47 96 
92 47 95 96 
93 49 48 97 
94 48 96 97 
95 50 49 100 
96 49 97 100 
97 51 50 92 
98 92 50 100 
99 52 51 91 
100 91 51 92 
101 53 52 98 
102 52 91 98 
103 54 53 89 
104 89 53 98 
105 54 89 90 
2 5 2 176
106 2 16 179 
107 33 2 179 
108 20 4 181 
109 4 55 181 
110 28 6 180 
111 6 43 180 
112 8 32 178 
113 65 8 178 
114 16 17 122 
115 16 122 179 
116 17 18 176 
117 122 17 176 
118 18 19 119 
119 18 119 176 
120 19 20 177 
121 119 19 177 
122 177 20 181 
123 29 28 164 
124 164 28 180 
125 30 29 120 
126 120 29 164 
127 31 30 158 
128 30 120 158 
129 32 31 124 
130 124 31 158 
131 32 124 178 
132 34 33 165 
133 165 33 179 
134 35 34 157 
135 157 34 165 
136 36 35 117 
137 117 35 157 
138 37 36 155 
139 36 117 155 
140 38 37 115 
141 115 37 155 
142 39 38 162 
143 38 115 162 
144 40 39 156 
145 156 39 162 
146 41 40 116 
147 116 40 156 
148 42 41 125 
149 41 116 125 
150 43 42 123 
151 123 42 125 
152 43 123 180 
153 55 56 174 
154 55 174 181 
155 56 57 121 
156 56 121 174 
157 57 58 172 
158 121 57 172 
159 58 59 113 
160 58 113 172 
161 59 60 170 
162 113 59 170 
163 60 61 154 
164 60 154 170 
165 61 62 114 
166 61 114 154 
167 62 63 167 
168 114 62 167 
169 63 64 118 
170 63 118 167 
171 64 65 163 
172 118 64 163 
173 163 65 178 
174 142 113 170 
175 113 142 171 
176 144 113 171 
177 113 144 172 
178 143 114 167 
179 114 143 168 
180 154 114 169 
181 114 168 169 
182 115 149 152 
183 149 115 155 
184 115 152 162 
185 125 116 126 
186 126 116 127 
187 127 116 156 
188 117 153 155 
189 153 117 161 
190 117 157 161 
191 118 143 167 
192 143 118 175 
193 118 163 175 
194 119 145 146 
195 145 119 147 
196 119 146 176 
197 147 119 177 
198 158 120 160 
199 160 120 183 
200 120 164 183 
201 144 121 172 
202 121 144 173 
203 147 121 173 
204 121 147 174 
205 122 146 148 
206 146 122 176 
207 122 148 165 
208 122 165 179 
209 123 125 150 
210 123 150 164 
211 123 164 180 
212 124 158 159 
213 124 159 163 
214 124 163 178 
215 125 126 150 
216 126 127 128 
217 126 128 166 
218 150 126 166 
219 128 127 129 
220 129 127 151 
221 151 127 156 
222 128 129 130 
223 128 130 135 
224 128 135 166 
225 130 129 131 
226 131 129 132 
227 132 129 151 
228 130 131 168 
229 135 130 143 
230 143 130 168 
231 131 132 133 
232 131 133 169 
233 168 131 169 
234 133 132 134 
235 134 132 152 
236 132 151 152 
237 133 134 136 
238 133 136 142 
239 133 142 169 
240 136 134 137 
241 137 134 149 
242 149 134 152 
243 135 143 175 
244 166 135 182 
245 135 175 182 
246 136 137 138 
247 136 138 171 
248 142 136 171 
249 138 137 139 
250 139 137 153 
251 137 149 153 
252 138 139 140 
253 138 140 144 
254 138 144 171 
255 140 139 141 
256 141 139 161 
257 139 153 161 
258 140 141 145 
259 144 140 173 
260 140 145 173 
261 145 141 146 
262 146 141 148 
263 148 141 161 
264 142 154 169 
265 154 142 170 
266 145 147 173 
267 174 147 177 
268 157 148 161 
269 148 157 165 
270 153 149 155 
271 164 150 183 
272 150 166 183 
273 152 151 162 
274 151 156 162 
275 159 158 160 
276 159 160 182 
277 163 159 175 
278 175 159 182 
279 160 166 182 
280 166 160 183 
281 174 177 181 
3 1 4 640
282 151 233 223 162 
283 151 223 152 162 
284 233 151 223 222 
285 162 151 233 156 
286 227 233 222 151 
287 155 115 149 220 
288 115 155 186 220 
289 226 186 155 220 
290 220 115 152 223 
291 152 203 151 132 
292 186 223 233 162 
293 223 115 152 162 
294 152 149 115 220 
295 220 186 115 223 
296 203 152 151 223 
297 223 203 222 151 
298 223 186 115 162 
299 227 233 151 156 
300 155 117 188 224 
301 155 188 226 224 
302 153 220 155 149 
303 203 152 134 132 
304 155 226 220 224 
305 223 152 134 203 
306 156 127 198 116 
307 205 223 134 203 
308 222 129 198 151 
309 198 129 127 151 
310 129 222 198 200 
311 187 227 198 116 
312 156 198 227 116 
313 227 222 198 151 
314 151 127 198 156 
315 117 155 153 224 
316 151 203 129 132 
317 220 153 155 224 
318 151 198 227 156 
319 203 151 129 222 
320 203 200 222 129 
321 220 152 134 223 
322 134 220 223 205 
323 149 152 134 220 
324 208 220 134 205 
325 134 137 220 208 
326 134 137 149 220 
327 224 220 137 208 
328 137 153 149 220 
329 137 153 220 224 
330 224 137 139 208 
331 137 224 139 153 
332 203 131 129 132 
333 131 203 129 202 
334 202 200 203 129 
335 135 253 166 182 
336 117 188 224 232 
337 210 224 139 208 
338 157 117 161 228 
339 139 161 153 224 
340 117 153 161 224 
341 117 228 188 232 
342 139 161 224 210 
343 160 231 191 158 
344 232 224 161 210 
345 224 161 117 232 
346 228 117 161 232 
347 182 160 253 166 
348 203 133 131 132 
349 202 203 204 131 
350 134 133 203 132 
351 134 204 205 203 
352 208 134 207 205 
353 137 134 207 208 
354 161 139 141 210 
355 139 137 209 208 
356 212 161 210 232 
357 210 139 209 208 
358 202 131 130 129 
359 130 200 202 129 
360 133 203 131 204 
361 134 133 204 203 
362 134 204 207 205 
363 137 134 136 207 
364 137 207 209 208 
365 139 137 138 209 
366 196 187 197 116 
367 161 212 210 141 
368 116 197 196 125 
369 127 126 198 116 
370 116 197 198 187 
371 209 140 139 210 
372 204 133 134 207 
373 133 136 134 207 
374 138 207 137 136 
375 207 138 137 209 
376 202 201 200 130 
377 231 229 191 158 
378 140 141 139 210 
379 191 160 158 120 
380 140 139 138 209 
381 231 253 160 166 
382 200 199 198 129 
383 129 199 198 127 
384 140 209 211 210 
385 124 88 195 158 
386 97 115 155 186 
387 155 117 95 188 
388 155 97 186 226 
389 188 95 155 226 
390 97 186 233 162 
391 97 155 96 226 
392 95 96 155 226 
393 186 97 115 162 
394 97 233 100 162 
395 162 233 100 156 
396 116 91 187 92 
397 187 227 116 92 
398 227 156 116 92 
399 233 227 100 156 
400 227 100 156 92 
401 117 157 95 228 
402 88 124 195 83 
403 228 95 117 188 
404 157 99 95 228 
405 141 140 211 210 
406 196 91 187 116 
407 148 157 161 228 
408 116 196 91 125 
409 196 98 91 125 
410 158 88 195 229 
411 141 211 212 210 
412 165 157 148 236 
413 161 212 219 232 
414 98 196 194 123 
415 228 148 157 236 
416 228 161 219 232 
417 253 160 182 159 
418 98 196 123 125 
419 89 98 194 123 
420 116 126 197 125 
421 197 116 198 126 
422 212 141 161 219 
423 200 130 199 129 
424 231 160 183 166 
425 126 198 199 127 
426 157 165 99 236 
427 191 231 160 183 
428 140 216 141 211 
429 148 122 165 236 
430 228 157 99 236 
431 141 211 216 212 
432 231 160 159 158 
433 164 150 254 183 
434 130 200 199 201 
435 150 194 196 123 
436 199 129 128 127 
437 194 150 235 123 
438 150 196 197 125 
439 123 196 150 125 
440 166 197 199 126 
441 159 195 158 124 
442 183 191 254 164 
443 150 197 166 126 
444 160 253 231 159 
445 183 254 231 166 
446 230 195 229 158 
447 135 237 253 206 
448 231 191 254 183 
449 206 237 199 135 
450 141 148 161 219 
451 165 99 236 93 
452 237 197 199 166 
453 128 166 199 126 
454 219 148 161 228 
455 237 221 197 166 
456 191 229 88 158 
457 254 150 166 183 
458 197 198 199 126 
459 166 221 197 150 
460 228 219 148 236 
461 158 88 191 120 
462 183 120 191 164 
463 103 174 111 245 
464 129 130 199 128 
465 237 135 253 166 
466 166 199 135 128 
467 135 237 199 166 
468 140 216 145 141 
469 191 160 120 183 
470 231 230 229 158 
471 199 128 126 127 
472 126 150 197 125 
473 120 85 191 164 
474 122 146 176 247 
475 131 239 202 130 
476 253 231 237 166 
477 119 176 146 247 
478 138 242 207 171 
479 138 136 171 207 
480 242 138 207 209 
481 214 167 114 238 
482 221 196 197 150 
483 221 194 196 150 
484 122 148 219 236 
485 173 216 140 244 
486 131 168 239 130 
487 150 194 235 221 
488 235 150 164 123 
489 146 141 212 219 
490 85 191 88 120 
491 201 202 239 130 
492 199 201 135 130 
493 146 141 216 212 
494 235 150 254 164 
495 150 235 254 221 
496 107 111 172 243 
497 172 108 107 243 
498 244 216 140 211 
499 113 241 213 170 
500 119 77 82 190 
501 122 148 146 219 
502 145 119 146 216 
503 201 206 199 135 
504 235 254 191 164 
505 175 253 135 182 
506 254 237 231 166 
507 239 114 143 168 
508 215 192 173 244 
509 195 159 158 230 
510 159 234 195 124 
511 122 219 193 236 
512 248 77 177 190 
513 204 213 133 207 
514 85 235 191 164 
515 136 133 142 207 
516 237 254 221 166 
517 254 150 221 166 
518 118 214 238 167 
519 209 140 215 138 
520 176 119 82 247 
521 184 171 213 242 
522 171 184 215 242 
523 243 192 172 215 
524 172 215 184 243 
525 130 135 199 128 
526 216 119 146 190 
527 247 82 176 79 
528 141 146 148 219 
529 140 209 215 211 
530 105 106 238 167 
531 169 202 204 131 
532 96 37 155 97 
533 48 97 96 226 
534 96 95 47 226 
535 95 96 36 155 
536 97 48 186 226 
537 115 155 37 97 
538 117 95 36 155 
539 188 47 95 226 
540 91 51 187 92 
541 40 91 116 92 
542 162 100 97 38 
543 49 97 233 100 
544 162 97 115 38 
545 233 186 97 49 
546 40 116 156 92 
547 227 187 51 92 
548 233 227 50 100 
549 100 162 156 39 
550 100 227 50 92 
551 39 156 100 92 
552 108 170 109 241 
553 114 239 169 168 
554 146 141 145 216 
555 122 217 219 146 
556 217 122 219 193 
557 41 91 98 125 
558 98 91 52 196 
559 99 95 228 46 
560 95 99 157 35 
561 187 52 91 196 
562 41 116 91 125 
563 35 157 95 117 
564 46 95 228 188 
565 230 231 159 158 
566 169 204 133 131 
567 216 173 140 145 
568 146 216 190 217 
569 247 176 122 79 
570 218 173 192 244 
571 25 229 195 88 
572 124 31 88 158 
573 119 177 77 190 
574 145 147 119 216 
575 83 25 195 88 
576 88 83 31 124 
577 170 241 213 225 
578 192 174 147 245 
579 250 165 122 236 
580 253 230 231 159 
581 123 89 98 42 
582 194 53 98 89 
583 85 235 164 86 
584 125 123 98 42 
585 196 53 98 194 
586 146 212 217 219 
587 190 146 247 119 
588 216 147 119 190 
589 168 143 239 130 
590 180 194 235 123 
591 215 173 140 244 
592 181 177 174 245 
593 135 201 143 130 
594 247 122 146 217 
595 217 247 122 193 
596 216 146 212 217 
597 248 177 147 190 
598 143 201 239 130 
599 215 138 171 242 
600 171 213 242 207 
601 142 171 136 207 
602 242 215 138 209 
603 146 190 247 217 
604 122 179 165 250 
605 248 245 181 252 
606 206 201 143 135 
607 211 215 140 244 
608 253 182 175 159 
609 195 230 234 159 
610 194 180 235 251 
611 19 119 77 82 
612 82 77 13 190 
613 119 147 177 190 
614 218 216 173 244 
615 174 177 147 245 
616 230 246 234 159 
617 147 216 218 190 
618 190 82 119 247 
619 181 177 245 248 
620 45 236 99 93 
621 99 165 34 93 
622 192 111 174 245 
623 238 105 167 114 
624 133 213 204 169 
625 235 164 180 123 
626 246 135 253 206 
627 34 157 165 99 
628 99 228 236 45 
629 111 56 174 103 
630 111 103 245 67 
631 214 238 189 118 
632 234 249 195 124 
633 192 172 111 243 
634 184 172 243 108 
635 19 119 177 77 
636 248 13 77 190 
637 245 177 147 248 
638 218 248 147 190 
639 193 247 122 79 
640 113 170 108 241 
641 122 193 250 236 
642 214 185 238 114 
643 167 214 114 143 
644 235 85 23 86 
645 29 85 164 86 
646 202 169 239 131 
647 88 30 85 120 
648 24 85 191 88 
649 216 147 173 145 
650 114 214 239 143 
651 185 214 239 114 
652 225 213 170 154 
653 192 147 173 218 
654 112 185 225 154 
655 147 192 245 218 
656 239 169 168 131 
657 122 80 193 79 
658 185 154 240 225 
659 189 234 246 118 
660 229 24 191 88 
661 30 88 158 120 
662 249 163 178 124 
663 236 250 165 93 
664 241 113 213 184 
665 170 113 142 213 
666 83 195 249 124 
667 192 173 121 215 
668 173 144 121 215 
669 120 29 85 164 
670 235 23 85 191 
671 238 106 118 167 
672 239 240 114 169 
673 159 163 234 124 
674 239 240 185 114 
675 171 142 113 213 
676 184 171 113 213 
677 184 144 171 215 
678 113 144 171 184 
679 144 172 121 215 
680 192 121 172 215 
681 215 172 184 144 
682 144 172 184 113 
683 170 225 109 241 
684 213 142 133 207 
685 144 140 138 215 
686 111 172 57 107 
687 68 111 107 243 
688 58 172 108 107 
689 69 107 108 243 
690 180 89 194 123 
691 246 163 159 175 
692 163 246 159 234 
693 240 202 204 169 
694 167 118 214 143 
695 86 251 235 180 
696 179 165 250 93 
697 234 189 110 118 
698 178 83 249 124 
699 206 201 214 143 
700 112 185 154 114 
701 240 154 114 169 
702 147 192 173 121 
703 154 185 240 114 
704 201 239 214 143 
705 143 246 206 135 
706 89 194 251 180 
707 121 174 147 192 
708 248 147 245 218 
709 185 112 105 114 
710 147 216 173 218 
711 142 170 213 154 
712 163 246 234 118 
713 118 163 246 175 
714 181 174 103 245 
715 78 77 181 252 
716 181 103 104 252 
717 122 80 179 250 
718 235 164 86 180 
719 253 246 230 159 
720 103 181 245 252 
721 138 171 144 215 
722 171 142 213 207 
723 70 108 109 241 
724 109 59 170 108 
725 250 80 179 81 
726 250 94 179 93 
727 90 89 251 180 
728 87 251 86 180 
729 102 249 101 178 
730 83 249 84 178 
731 144 173 140 215 
732 106 105 62 167 
733 238 73 106 105 
734 135 246 253 175 
735 12 82 247 79 
736 18 176 82 79 
737 72 185 112 105 
738 61 105 112 114 
739 240 154 213 225 
740 163 234 110 118 
741 240 204 213 169 
742 246 214 189 118 
743 213 133 142 169 
744 174 121 111 192 
745 163 101 249 178 
746 106 189 238 118 
747 80 122 193 250 
748 105 238 185 114 
749 225 170 109 154 
750 110 101 234 163 
751 154 240 213 169 
752 249 234 163 124 
753 111 121 172 192 
754 184 172 108 113 
755 248 181 77 252 
756 169 202 239 240 
757 154 213 142 169 
758 246 253 175 159 
759 245 192 111 67 
760 56 174 121 111 
761 246 143 118 175 
762 108 113 241 184 
763 135 143 246 175 
764 143 246 118 214 
765 12 82 190 247 
766 18 176 119 82 
767 246 206 214 143 
768 77 177 181 248 
769 163 110 101 64 
770 234 75 101 110 
771 112 225 109 154 
772 189 106 110 118 
773 72 185 225 112 
774 154 61 112 114 
775 68 192 111 243 
776 172 57 121 111 
777 58 172 113 108 
778 108 69 243 184 
779 109 71 225 112 
780 60 112 109 154 
781 106 74 189 110 
782 106 110 118 63 
783 249 234 101 163 
784 105 62 167 114 
785 73 238 185 105 
786 113 170 59 108 
787 241 70 108 184 
788 109 71 241 225 
789 60 109 170 154 
790 238 74 189 106 
791 63 118 106 167 
792 110 163 118 64 
793 75 234 189 110 
794 14 77 78 252 
795 77 181 20 78 
796 55 181 103 104 
797 104 103 66 252 
798 89 251 54 90 
799 180 90 89 43 
800 44 94 250 93 
801 94 33 179 93 
802 178 84 83 32 
803 83 249 26 84 
804 104 78 181 252 
805 179 94 250 81 
806 251 87 90 180 
807 102 84 249 178 
808 22 87 251 86 
809 86 28 87 180 
810 16 179 80 81 
811 10 80 250 81 
812 76 249 101 102 
813 101 102 178 65 
814 55 181 174 103 
815 66 103 245 252 
816 26 195 249 83 
817 83 178 32 124 
818 250 236 44 93 
819 33 165 179 93 
820 54 194 251 89 
821 123 180 89 43 
822 15 3 78 104 
823 78 4 15 104 
824 94 9 1 81 
825 2 9 94 81 
826 87 6 21 90 
827 87 21 5 90 
828 84 7 27 102 
829 84 27 8 102 
830 177 181 20 77 
831 77 14 248 252 
832 86 164 28 180 
833 235 22 251 86 
834 80 179 16 122 
835 10 80 193 250 
836 250 94 1 81 
837 94 179 2 81 
838 251 87 5 90 
839 102 8 84 178 
840 84 249 7 102 
841 90 87 6 180 
842 3 78 104 252 
843 78 181 4 104 
844 36 35 95 117 
845 95 46 47 188 
846 186 48 97 49 
847 37 115 97 38 
848 96 37 36 155 
849 47 48 96 226 
850 187 52 51 91 
851 40 116 91 41 
852 162 100 38 39 
853 233 50 49 100 
854 39 40 156 92 
855 227 51 50 92 
856 34 157 99 35 
857 45 99 228 46 
858 125 98 41 42 
859 53 98 52 196 
860 88 31 30 158 
861 25 24 229 88 
862 178 163 101 65 
863 76 249 234 101 
864 32 31 83 124 
865 26 25 195 83 
866 54 53 194 89 
867 42 123 89 43 
868 23 22 235 86 
869 164 28 29 86 
870 23 24 85 191 
871 85 30 29 120 
872 236 45 44 93 
873 33 34 165 93 
874 82 13 12 190 
875 19 18 119 82 
876 80 11 10 193 
877 16 17 80 122 
878 179 2 33 94 
879 1 94 250 44 
880 249 7 26 84 
881 178 8 84 32 
882 5 54 251 90 
883 6 90 180 43 
884 4 20 181 78 
885 66 3 104 252 
886 78 3 14 252 
887 181 55 4 104 
888 5 22 87 251 
889 87 28 6 180 
890 179 16 2 81 
891 1 10 250 81 
892 249 76 7 102 
893 178 102 8 65 
894 64 118 110 63 
895 74 75 189 110 
896 112 60 61 154 
897 72 225 71 112 
898 66 245 103 67 
899 56 55 174 103 
900 77 14 13 248 
901 20 19 177 77 
902 67 192 111 68 
903 57 56 121 111 
904 113 59 58 108 
905 69 108 70 184 
906 65 163 101 64 
907 75 76 234 101 
908 62 105 61 114 
909 185 72 73 105 
910 62 63 106 167 
911 238 73 74 106 
912 170 59 109 60 
913 109 71 70 241 
914 69 68 107 243 
915 172 58 57 107 
916 18 17 176 79 
917 247 11 12 79 
918 79 193 11 80 
919 79 11 193 247 
920 122 79 17 80 
921 17 79 122 176 
$EndElements
