$MeshFormat
4.1 0 8
$EndMeshFormat
$PhysicalNames
8
0 6 "anchor_origin"
0 7 "anchor_x"
0 8 "anchor_xy"
2 2 "x_min"
2 3 "x_max"
2 4 "y_min"
2 5 "z_min"
3 1 "domain"
$EndPhysicalNames
$Entities
8 12 6 1
1 0 0 0.2 3 6 7 8 
2 0 0 0 0 
3 0 1 0.2 0 
4 0 1 0 0 
5 2 0 0.2 0 
6 2 0 0 0 
7 2 1 0.2 0 
8 2 1 0 0 
1 -1e-07 -1e-07 -1.000000000028756e-07 1e-07 1e-07 0.2000001 0 2 2 -1 
2 -1e-07 -9.999999994736442e-08 0.1999999 1e-07 1.0000001 0.2000001 0 2 1 -3 
3 -1e-07 0.9999999000000001 -1.000000000028756e-07 1e-07 1.0000001 0.2000001 0 2 4 -3 
4 -1e-07 -9.999999994736442e-08 -1e-07 1e-07 1.0000001 1e-07 0 2 2 -4 
5 1.9999999 -1e-07 -1.000000000028756e-07 2.0000001 1e-07 0.2000001 0 2 6 -5 
6 1.9999999 -9.999999994736442e-08 0.1999999 2.0000001 1.0000001 0.2000001 0 2 5 -7 
7 1.9999999 0.9999999000000001 -1.000000000028756e-07 2.0000001 1.0000001 0.2000001 0 2 8 -7 
8 1.9999999 -9.999999994736442e-08 -1e-07 2.0000001 1.0000001 1e-07 0 2 6 -8 
9 -9.999999994736442e-08 -1e-07 -1e-07 2.0000001 1e-07 1e-07 0 2 2 -6 
10 -9.999999994736442e-08 -1e-07 0.1999999 2.0000001 1e-07 0.2000001 0 2 1 -5 
11 -9.999999994736442e-08 0.9999999000000001 -1e-07 2.0000001 1.0000001 1e-07 0 2 4 -8 
12 -9.999999994736442e-08 0.9999999000000001 0.1999999 2.0000001 1.0000001 0.2000001 0 2 3 -7 
1 -1e-07 -9.999999994736442e-08 -1.000000000028756e-07 1e-07 1.0000001 0.2000001 1 2 4 -1 4 3 -2 
2 1.9999999 -9.999999994736442e-08 -1.000000000028756e-07 2.0000001 1.0000001 0.2000001 1 3 4 -5 8 7 -6 
3 -9.999999994736442e-08 -1e-07 -1.000000000028756e-07 2.0000001 1e-07 0.2000001 1 4 4 -9 1 10 -5 
4 -9.999999994736442e-08 0.9999999000000001 -1.000000000028756e-07 2.0000001 1.0000001 0.2000001 0 4 -11 3 12 -7 
5 -9.999999994736442e-08 -9.999999994736442e-08 -1e-07 2.0000001 1.0000001 1e-07 1 5 4 -4 9 8 -11 
6 -9.999999994736442e-08 -9.999999994736442e-08 0.1999999 2.0000001 1.0000001 0.2000001 0 4 -2 10 6 -12 
1 -9.999999994736442e-08 -9.999999994736442e-08 -1.000000000028756e-07 2.0000001 1.0000001 0.2000001 1 1 6 -1 2 -3 4 -5 6 
$EndEntities
$Nodes
27 419 1 419
0 1 0 1
1
0 0 0.2
0 2 0 1
2
0 0 0
0 3 0 1
3
0 1 0.2
0 4 0 1
4
0 1 0
0 5 0 1
5
2 0 0.2
0 6 0 1
6
2 0 0
0 7 0 1
7
2 1 0.2
0 8 0 1
8
2 1 0
1 1 0 1
9
0 0 0.09999999999999969
1 2 0 7
10
11
12
13
14
15
16
0 0.1250000000000002 0.2
0 0.2500000000000007 0.2
0 0.3750000000000012 0.2
0 0.5000000000000017 0.2
0 0.6250000000000013 0.2
0 0.7500000000000009 0.2
0 0.8750000000000004 0.2
1 3 0 1
17
0 1 0.09999999999999969
1 4 0 7
18
19
20
21
22
23
24
0 0.1250000000000002 0
0 0.2500000000000007 0
0 0.3750000000000012 0
0 0.5000000000000017 0
0 0.6250000000000013 0
0 0.7500000000000009 0
0 0.8750000000000004 0
1 5 0 1
25
2 0 0.09999999999999969
1 6 0 7
26
27
28
29
30
31
32
2 0.1250000000000002 0.2
2 0.2500000000000007 0.2
2 0.3750000000000012 0.2
2 0.5000000000000017 0.2
2 0.6250000000000013 0.2
2 0.7500000000000009 0.2
2 0.8750000000000004 0.2
1 7 0 1
33
2 1 0.09999999999999969
1 8 0 7
34
35
36
37
38
39
40
2 0.1250000000000002 0
2 0.2500000000000007 0
2 0.3750000000000012 0
2 0.5000000000000017 0
2 0.6250000000000013 0
2 0.7500000000000009 0
2 0.8750000000000004 0
1 9 0 15
41
42
43
44
45
46
47
48
49
50
51
52
53
54
55
0.1250000000000002 0 0
0.2500000000000005 0 0
0.375000000000001 0 0
0.5000000000000014 0 0
0.625000000000002 0 0
0.7500000000000024 0 0
0.8750000000000029 0 0
1.000000000000003 0 0
1.125000000000003 0 0
1.250000000000003 0 0
1.375000000000002 0 0
1.500000000000002 0 0
1.625000000000001 0 0
1.750000000000001 0 0
1.875 0 0
1 10 0 15
56
57
58
59
60
61
62
63
64
65
66
67
68
69
70
0.1250000000000002 0 0.2
0.2500000000000005 0 0.2
0.375000000000001 0 0.2
0.5000000000000014 0 0.2
0.625000000000002 0 0.2
0.7500000000000024 0 0.2
0.8750000000000029 0 0.2
1.000000000000003 0 0.2
1.125000000000003 0 0.2
1.250000000000003 0 0.2
1.375000000000002 0 0.2
1.500000000000002 0 0.2
1.625000000000001 0 0.2
1.750000000000001 0 0.2
1.875 0 0.2
1 11 0 15
71
72
73
74
75
76
77
78
79
80
81
82
83
84
85
0.1250000000000002 1 0
0.2500000000000005 1 0
0.375000000000001 1 0
0.5000000000000014 1 0
0.625000000000002 1 0
0.7500000000000024 1 0
0.8750000000000029 1 0
1.000000000000003 1 0
1.125000000000003 1 0
1.250000000000003 1 0
1.375000000000002 1 0
1.500000000000002 1 0
1.625000000000001 1 0
1.750000000000001 1 0
1.875 1 0
1 12 0 15
86
87
88
89
90
91
92
93
94
95
96
97
98
99
100
0.1250000000000002 1 0.2
0.2500000000000005 1 0.2
0.375000000000001 1 0.2
0.5000000000000014 1 0.2
0.625000000000002 1 0.2
0.7500000000000024 1 0.2
0.8750000000000029 1 0.2
1.000000000000003 1 0.2
1.125000000000003 1 0.2
1.250000000000003 1 0.2
1.375000000000002 1 0.2
1.500000000000002 1 0.2
1.625000000000001 1 0.2
1.750000000000001 1 0.2
1.875 1 0.2
2 1 0 8
101
102
103
104
105
106
107
108
0 0.5625000000000016 0.09999999999999999
0 0.6875000000000011 0.1
0 0.8072916666666672 0.1018229166666667
0 0.4375000000000014 0.09999999999999999
0 0.1927083333333338 0.1018229166666666
0 0.3125000000000009 0.09999999999999999
0 0.09375000000000024 0.1109374999999998
0 0.9062500000000002 0.1109375000000002
2 2 0 8
109
110
111
112
113
114
115
116
2 0.5625000000000016 0.09999999999999999
2 0.6875000000000011 0.1
2 0.8072916666666672 0.1018229166666667
2 0.4375000000000014 0.09999999999999999
2 0.1927083333333338 0.1018229166666666
2 0.3125000000000009 0.09999999999999999
2 0.09375000000000024 0.1109374999999998
2 0.9062500000000002 0.1109375000000002
2 3 0 16
117
118
119
120
121
122
123
124
125
126
127
128
129
130
131
132
1.187500000000003 0 0.09999999999999999
1.312500000000002 0 0.1
1.062500000000004 0 0.1000000000000001
1.562500000000002 0 0.1
1.437500000000002 0 0.1
1.687500000000001 0 0.1
1.807291666666667 0 0.09817708333333314
0.9375000000000031 0 0.1
0.1927083333333337 0 0.1018229166666666
0.3125000000000007 0 0.1
0.5625000000000018 0 0.09999999999999999
0.6875000000000021 0 0.09999999999999999
0.8125000000000028 0 0.09999999999999999
0.4375000000000011 0 0.09999999999999999
0.09375000000000018 0 0.1109374999999999
1.906250000000001 0 0.08906249999999881
2 4 0 16
133
134
135
136
137
138
139
140
141
142
143
144
145
146
147
148
1.187500000000003 1 0.09999999999999999
1.062500000000003 1 0.09999999999999999
1.312500000000002 1 0.1
1.437500000000002 1 0.1
1.562500000000002 1 0.1
1.687500000000001 1 0.1
1.807291666666667 1 0.09817708333333314
0.9375000000000031 1 0.09999999999999999
0.1927083333333337 1 0.1018229166666666
0.3125000000000007 1 0.1
0.5625000000000018 1 0.09999999999999999
0.4375000000000012 1 0.09999999999999999
0.8125000000000027 1 0.09999999999999999
0.6875000000000022 1 0.09999999999999999
0.09375000000000018 1 0.1109374999999999
1.906250000000001 1 0.08906249999999881
2 5 0 134
149
150
151
152
153
154
155
156
157
158
159
160
161
162
163
164
165
166
167
168
169
170
171
172
173
174
175
176
177
178
179
180
181
182
183
184
185
186
187
188
189
190
191
192
193
194
195
196
197
198
199
200
201
202
203
204
205
206
207
208
209
210
211
212
213
214
215
216
217
218
219
220
221
222
223
224
225
226
227
228
229
230
231
232
233
234
235
236
237
238
239
240
241
242
243
244
245
246
247
248
249
250
251
252
253
254
255
256
257
258
259
260
261
262
263
264
265
266
267
268
269
270
271
272
273
274
275
276
277
278
279
280
281
282
1.189802937286073 0.1018670897373102 0
0.5563574404047273 0.8878291787766026 0
1.433550363285431 0.8940271483473047 0
0.9402376017264752 0.9010715142109111 0
0.8163886836081732 0.09741954075972366 0
1.891746824526945 0.4375000000000013 0
0.1209567315974625 0.4295422517626027 0
0.4363497501229297 0.1110678775897628 0
1.565173745922311 0.1109623847543413 0
1.187500000000003 0.8917468245269458 0
0.3132787203435694 0.8909743663173963 0
1.699362334039921 0.8873731476407183 0
1.892336661266798 0.6864783727984042 0
0.1082531754730544 0.6875000000000011 0
1.89461662736761 0.1899417994493947 0
0.1054620380518976 0.1923343918243521 0
1.891679393672417 0.3122734931554954 0
1.782745067733936 0.3736851335904993 0
1.783368885500565 0.4997808555984176 0
1.675094916101956 0.4372443315314866 0
1.675228745783728 0.5624794003856861 0
1.566961083895117 0.4999539553195292 0
1.566980974439486 0.6249888926175358 0
1.458728699654567 0.5624904746561781 0
1.458728849769255 0.4374907383292855 0
1.350479164520733 0.4999968688309119 0
1.350479771243936 0.3749979345267012 0
1.242227278595505 0.4374991338929373 0
1.242227392399609 0.5624993337873097 0
1.133974450818542 0.4999997446133764 0
1.13397448980054 0.3749998130843876 0
1.025721378773834 0.4374999262829625 0
1.025721389514892 0.5624999451493915 0
0.9174682330700712 0.4999999785720606 0
1.025721396011892 0.3124999565612268 0
0.9174682380316193 0.6249999872869101 0
0.8092150665568618 0.5624999943098296 0
0.809215067223245 0.4374999954803162 0
0.7009618933545612 0.4999999982983583 0
0.7043472489761842 0.3808636062459416 0
0.5924499134523236 0.4370517358951057 0
0.5926655844558298 0.5624252890322446 0
0.4835821890665214 0.4984873059589472 0
0.4843027952597042 0.6247354324985324 0
0.8070365382167659 0.6837266725755323 0
0.3778537680291891 0.5653603089196386 0
0.3658283869180747 0.4463219859549399 0
1.024016043625255 0.6845462000302571 0
0.5921376613788318 0.304719849295575 0
1.675240473580835 0.3125000000000017 0
1.458733047837525 0.3124981121426655 0
0.5945061351317625 0.6842736908560842 0
1.351775943427745 0.2522429901654532 0
0.3762517485880617 0.6857130311298565 0
0.8077840049907572 0.3230626985226789 0
1.673144111937402 0.6838689216322738 0
1.460559549681952 0.6882873719415368 0
0.2755111234599942 0.6490041478273846 0
0.2839665020006027 0.7776055411695016 0
1.13195777892768 0.2583296695309539 0
1.008664274250957 0.1925628777478471 0
1.456367193694933 0.1894835512249821 0
1.336667847568776 0.1204850352794416 0
1.567027861826174 0.746135473247459 0
1.566987298107779 0.2500000000000013 0
1.677060134705959 0.1852407308383994 0
1.784955232616149 0.248658049066092 0
1.133690274043746 0.6245075372633898 0
1.247562201636766 0.690756437630209 0
1.131536816544316 0.768159885342806 0
1.8918243367247 0.5622932047328046 0
0.1065948523135071 0.3062456718268002 0
0.2124543812392362 0.244029575170833 0
0.2030974709509158 0.1141577772251459 0
0.3247595264191653 0.1875000000000006 0
0.3232271617340587 0.3215848763271885 0
0.4374106336784711 0.2488664129114937 0
0.5395412287220445 0.1910766677275432 0
0.6531218511356024 0.1988563444566829 0
0.4657726577047135 0.376172027723875 0
0.2447854935027332 0.4261642694131547 0
1.818605912852294 0.8920395055808381 0
0.1921033068480295 0.8760651750265237 0
0.8208029843961434 0.9018060935101078 0
0.6932793298530459 0.8747109642498412 0
1.311841727214241 0.8947176212674669 0
1.3653364253768 0.7737535198153183 0
0.4896581740621975 0.7667088609649594 0
0.437500000000001 0.8917468245269446 0
1.066627269129207 0.8926259153043162 0
1.56627472772139 0.8736366568574204 0
0.1082531754730549 0.5625000000000012 0
1.566957611548744 0.3749478562204949 0
0.7008911853398538 0.6238209408453415 0
1.243402543665901 0.316505239253963 0
0.9060150535047427 0.7343447249934543 0
1.78323273171118 0.6241501258579312 0
1.774949707422756 0.7672893638701429 0
1.354148905545071 0.6296306677769105 0
0.9018309351429986 0.2641830136485389 0
0.6992576963980885 0.7416456243314959 0
0.914623502535466 0.3791242615112973 0
1.796803663391944 0.1132406406893987 0
0.9394949084616981 0.09151074315001288 0
1.897984756965987 0.8112606499524144 0
0.0946867088131973 0.8076785426558126 0
0.6875000000000022 0.09603257096538206 0
1.238750735220977 0.2014019462998594 0
1.249111024396019 0.8024586428480094 0
0.3801310289988865 0.8025497248217317 0
0.9907281997307325 0.8014844013913474 0
0.7803308562244151 0.2052682021995167 0
1.062500000000004 0.08694043704586804 0
0.2705037800453272 0.5353084520191866 0
0.6057767105645819 0.7917330237700624 0
0.3125000000000008 0.0837341226347261 0
1.656151748589529 0.7916607126496028 0
0.7961438907959781 0.7898600538564506 0
0.5665398949210763 0.08810649828308338 0
1.445465959836643 0.08567417752512216 0
1.477448917399194 0.796151327723883 0
1.684148220574317 0.08058840933339009 0
0.1831729918718003 0.5000000000000013 0
0.09150635094610979 0.9084936490538903 0
1.90849364905389 0.9084936490538904 0
0.09150635094610993 0.09150635094610991 0
1.90849364905389 0.09150635094610937 0
0.1979350519048526 0.3418770472880132 0
0.7075443245411581 0.282554140144079 0
0.1787658112820202 0.6221073264482273 0
0.1826980752416634 0.7427102330449946 0
1.114101595322522 0.161516353216759 0
0.8850775205014771 0.1707467977427023 0
0.8835125016995091 0.8269108159796639 0
2 6 0 134
283
284
285
286
287
288
289
290
291
292
293
294
295
296
297
298
299
300
301
302
303
304
305
306
307
308
309
310
311
312
313
314
315
316
317
318
319
320
321
322
323
324
325
326
327
328
329
330
331
332
333
334
335
336
337
338
339
340
341
342
343
344
345
346
347
348
349
350
351
352
353
354
355
356
357
358
359
360
361
362
363
364
365
366
367
368
369
370
371
372
373
374
375
376
377
378
379
380
381
382
383
384
385
386
387
388
389
390
391
392
393
394
395
396
397
398
399
400
401
402
403
404
405
406
407
408
409
410
411
412
413
414
415
416
1.189802937286073 0.1018670897373102 0.2
0.5563574404047273 0.8878291787766026 0.2
1.433550363285431 0.8940271483473047 0.2
0.9402376017264752 0.9010715142109111 0.2
0.8163886836081732 0.09741954075972366 0.2
1.891746824526945 0.4375000000000013 0.2
0.1209567315974625 0.4295422517626027 0.2
0.4363497501229297 0.1110678775897628 0.2
1.565173745922311 0.1109623847543413 0.2
1.187500000000003 0.8917468245269458 0.2
0.3132787203435694 0.8909743663173963 0.2
1.699362334039921 0.8873731476407183 0.2
1.892336661266798 0.6864783727984042 0.2
0.1082531754730544 0.6875000000000011 0.2
1.89461662736761 0.1899417994493947 0.2
0.1054620380518976 0.1923343918243521 0.2
1.891679393672417 0.3122734931554954 0.2
1.782745067733936 0.3736851335904993 0.2
1.783368885500565 0.4997808555984176 0.2
1.675094916101956 0.4372443315314866 0.2
1.675228745783728 0.5624794003856861 0.2
1.566961083895117 0.4999539553195292 0.2
1.566980974439486 0.6249888926175358 0.2
1.458728699654567 0.5624904746561781 0.2
1.458728849769255 0.4374907383292855 0.2
1.350479164520733 0.4999968688309119 0.2
1.350479771243936 0.3749979345267012 0.2
1.242227278595505 0.4374991338929373 0.2
1.242227392399609 0.5624993337873097 0.2
1.133974450818542 0.4999997446133764 0.2
1.13397448980054 0.3749998130843876 0.2
1.025721378773834 0.4374999262829625 0.2
1.025721389514892 0.5624999451493915 0.2
0.9174682330700712 0.4999999785720606 0.2
1.025721396011892 0.3124999565612268 0.2
0.9174682380316193 0.6249999872869101 0.2
0.8092150665568618 0.5624999943098296 0.2
0.809215067223245 0.4374999954803162 0.2
0.7009618933545612 0.4999999982983583 0.2
0.7043472489761842 0.3808636062459416 0.2
0.5924499134523236 0.4370517358951057 0.2
0.5926655844558298 0.5624252890322446 0.2
0.4835821890665214 0.4984873059589472 0.2
0.4843027952597042 0.6247354324985324 0.2
0.8070365382167659 0.6837266725755323 0.2
0.3778537680291891 0.5653603089196386 0.2
0.3658283869180747 0.4463219859549399 0.2
1.024016043625255 0.6845462000302571 0.2
0.5921376613788318 0.304719849295575 0.2
1.675240473580835 0.3125000000000017 0.2
1.458733047837525 0.3124981121426655 0.2
0.5945061351317625 0.6842736908560842 0.2
1.351775943427745 0.2522429901654532 0.2
0.3762517485880617 0.6857130311298565 0.2
0.8077840049907572 0.3230626985226789 0.2
1.673144111937402 0.6838689216322738 0.2
1.460559549681952 0.6882873719415368 0.2
0.2755111234599942 0.6490041478273846 0.2
0.2839665020006027 0.7776055411695016 0.2
1.13195777892768 0.2583296695309539 0.2
1.008664274250957 0.1925628777478471 0.2
1.456367193694933 0.1894835512249821 0.2
1.336667847568776 0.1204850352794416 0.2
1.567027861826174 0.746135473247459 0.2
1.566987298107779 0.2500000000000013 0.2
1.677060134705959 0.1852407308383994 0.2
1.784955232616149 0.248658049066092 0.2
1.133690274043746 0.6245075372633898 0.2
1.247562201636766 0.690756437630209 0.2
1.131536816544316 0.768159885342806 0.2
1.8918243367247 0.5622932047328046 0.2
0.1065948523135071 0.3062456718268002 0.2
0.2124543812392362 0.244029575170833 0.2
0.2030974709509158 0.1141577772251459 0.2
0.3247595264191653 0.1875000000000006 0.2
0.3232271617340587 0.3215848763271885 0.2
0.4374106336784711 0.2488664129114937 0.2
0.5395412287220445 0.1910766677275432 0.2
0.6531218511356024 0.1988563444566829 0.2
0.4657726577047135 0.376172027723875 0.2
0.2447854935027332 0.4261642694131547 0.2
1.818605912852294 0.8920395055808381 0.2
0.1921033068480295 0.8760651750265237 0.2
0.8208029843961434 0.9018060935101078 0.2
0.6932793298530459 0.8747109642498412 0.2
1.311841727214241 0.8947176212674669 0.2
1.3653364253768 0.7737535198153183 0.2
0.4896581740621975 0.7667088609649594 0.2
0.437500000000001 0.8917468245269446 0.2
1.066627269129207 0.8926259153043162 0.2
1.56627472772139 0.8736366568574204 0.2
0.1082531754730549 0.5625000000000012 0.2
1.566957611548744 0.3749478562204949 0.2
0.7008911853398538 0.6238209408453415 0.2
1.243402543665901 0.316505239253963 0.2
0.9060150535047427 0.7343447249934543 0.2
1.78323273171118 0.6241501258579312 0.2
1.774949707422756 0.7672893638701429 0.2
1.354148905545071 0.6296306677769105 0.2
0.9018309351429986 0.2641830136485389 0.2
0.6992576963980885 0.7416456243314959 0.2
0.914623502535466 0.3791242615112973 0.2
1.796803663391944 0.1132406406893987 0.2
0.9394949084616981 0.09151074315001288 0.2
1.897984756965987 0.8112606499524144 0.2
0.0946867088131973 0.8076785426558126 0.2
0.6875000000000022 0.09603257096538206 0.2
1.238750735220977 0.2014019462998594 0.2
1.249111024396019 0.8024586428480094 0.2
0.3801310289988865 0.8025497248217317 0.2
0.9907281997307325 0.8014844013913474 0.2
0.7803308562244151 0.2052682021995167 0.2
1.062500000000004 0.08694043704586804 0.2
0.2705037800453272 0.5353084520191866 0.2
0.6057767105645819 0.7917330237700624 0.2
0.3125000000000008 0.0837341226347261 0.2
1.656151748589529 0.7916607126496028 0.2
0.7961438907959781 0.7898600538564506 0.2
0.5665398949210763 0.08810649828308338 0.2
1.445465959836643 0.08567417752512216 0.2
1.477448917399194 0.796151327723883 0.2
1.684148220574317 0.08058840933339009 0.2
0.1831729918718003 0.5000000000000013 0.2
0.09150635094610979 0.9084936490538903 0.2
1.90849364905389 0.9084936490538904 0.2
0.09150635094610993 0.09150635094610991 0.2
1.90849364905389 0.09150635094610937 0.2
0.1979350519048526 0.3418770472880132 0.2
0.7075443245411581 0.282554140144079 0.2
0.1787658112820202 0.6221073264482273 0.2
0.1826980752416634 0.7427102330449946 0.2
1.114101595322522 0.161516353216759 0.2
0.8850775205014771 0.1707467977427023 0.2
0.8835125016995091 0.8269108159796639 0.2
3 1 0 3
417
418
419
0.5571581716157656 0.6238114707956204 0.1
0.5968697843379724 0.1954856869476889 0.1
0.6068054396731801 0.04205114810489274 0.1
$EndNodes
$Elements
6 1565 1 1565
0 1 15 1
1 1 
2 1 2 34
2 9 1 107 
3 1 10 107 
4 2 9 107 
5 18 2 107 
6 16 3 108 
7 3 17 108 
8 17 4 108 
9 4 24 108 
10 10 11 105 
11 10 105 107 
12 11 12 106 
13 105 11 106 
14 12 13 104 
15 12 104 106 
16 13 14 101 
17 13 101 104 
18 14 15 102 
19 101 14 102 
20 15 16 103 
21 102 15 103 
22 103 16 108 
23 19 18 105 
24 105 18 107 
25 20 19 106 
26 19 105 106 
27 21 20 104 
28 104 20 106 
29 22 21 101 
30 101 21 104 
31 23 22 102 
32 22 101 102 
33 24 23 103 
34 23 102 103 
35 24 103 108 
2 2 2 34
36 25 115 5 
37 5 115 26 
38 6 115 25 
39 34 115 6 
40 32 116 7 
41 7 116 33 
42 33 116 8 
43 8 116 40 
44 26 113 27 
45 26 115 113 
46 27 114 28 
47 113 114 27 
48 28 112 29 
49 28 114 112 
50 29 109 30 
51 29 112 109 
52 30 110 31 
53 109 110 30 
54 31 111 32 
55 110 111 31 
56 111 116 32 
57 35 113 34 
58 113 115 34 
59 36 114 35 
60 35 114 113 
61 37 112 36 
62 112 114 36 
63 38 109 37 
64 109 112 37 
65 39 110 38 
66 38 110 109 
67 40 111 39 
68 39 111 110 
69 40 116 111 
2 3 2 66
70 1 9 131 
71 56 1 131 
72 9 2 131 
73 2 41 131 
74 25 5 132 
75 5 70 132 
76 6 25 132 
77 55 6 132 
78 41 42 125 
79 41 125 131 
80 42 43 126 
81 125 42 126 
82 43 44 130 
83 126 43 130 
84 44 45 127 
85 44 127 130 
86 45 46 128 
87 127 45 128 
88 46 47 129 
89 128 46 129 
90 47 48 124 
91 47 124 129 
92 48 49 119 
93 48 119 124 
94 49 50 117 
95 49 117 119 
96 50 51 118 
97 117 50 118 
98 51 52 121 
99 118 51 121 
100 52 53 120 
101 52 120 121 
102 53 54 122 
103 120 53 122 
104 54 55 123 
105 122 54 123 
106 123 55 132 
107 57 56 125 
108 125 56 131 
109 58 57 126 
110 57 125 126 
111 59 58 130 
112 58 126 130 
113 60 59 127 
114 127 59 130 
115 61 60 128 
116 60 127 128 
117 62 61 129 
118 61 128 129 
119 63 62 124 
120 124 62 129 
121 64 63 119 
122 119 63 124 
123 65 64 117 
124 117 64 119 
125 66 65 118 
126 65 117 118 
127 67 66 121 
128 66 118 121 
129 68 67 120 
130 120 67 121 
131 69 68 122 
132 68 120 122 
133 70 69 123 
134 69 122 123 
135 70 123 132 
2 5 2 314
136 2 18 274 
137 41 2 274 
138 24 4 272 
139 4 71 272 
140 34 6 275 
141 6 55 275 
142 8 40 273 
143 85 8 273 
144 18 19 164 
145 18 164 274 
146 19 20 220 
147 164 19 220 
148 20 21 155 
149 20 155 220 
150 21 22 240 
151 155 21 240 
152 22 23 162 
153 22 162 240 
154 23 24 254 
155 162 23 254 
156 254 24 272 
157 35 34 163 
158 163 34 275 
159 36 35 165 
160 35 163 165 
161 37 36 154 
162 154 36 165 
163 38 37 219 
164 37 154 219 
165 39 38 161 
166 161 38 219 
167 40 39 253 
168 39 161 253 
169 40 253 273 
170 42 41 222 
171 222 41 274 
172 43 42 264 
173 42 222 264 
174 44 43 156 
175 156 43 264 
176 45 44 267 
177 44 156 267 
178 46 45 255 
179 255 45 267 
180 47 46 153 
181 153 46 255 
182 48 47 252 
183 47 153 252 
184 49 48 261 
185 48 252 261 
186 50 49 149 
187 149 49 261 
188 51 50 211 
189 50 149 211 
190 52 51 268 
191 51 211 268 
192 53 52 157 
193 157 52 268 
194 54 53 270 
195 53 157 270 
196 55 54 251 
197 251 54 270 
198 55 251 275 
199 71 72 231 
200 71 231 272 
201 72 73 159 
202 72 159 231 
203 73 74 237 
204 159 73 237 
205 74 75 150 
206 74 150 237 
207 75 76 233 
208 150 75 233 
209 76 77 232 
210 76 232 233 
211 77 78 152 
212 77 152 232 
213 78 79 238 
214 152 78 238 
215 79 80 158 
216 79 158 238 
217 80 81 234 
218 158 80 234 
219 81 82 151 
220 81 151 234 
221 82 83 239 
222 151 82 239 
223 83 84 160 
224 83 160 239 
225 84 85 230 
226 160 84 230 
227 230 85 273 
228 211 149 256 
229 256 149 280 
230 149 261 280 
231 150 233 263 
232 150 236 237 
233 236 150 263 
234 234 151 235 
235 235 151 269 
236 151 239 269 
237 232 152 282 
238 152 238 259 
239 152 259 282 
240 252 153 281 
241 153 255 260 
242 153 260 281 
243 154 165 166 
244 154 166 167 
245 154 167 219 
246 220 155 276 
247 229 155 271 
248 155 229 276 
249 155 240 271 
250 156 223 225 
251 223 156 264 
252 156 225 226 
253 156 226 267 
254 157 210 213 
255 210 157 268 
256 157 213 214 
257 157 214 270 
258 158 218 238 
259 218 158 257 
260 158 234 257 
261 159 207 231 
262 207 159 258 
263 159 237 258 
264 160 230 246 
265 239 160 265 
266 160 246 265 
267 161 219 245 
268 161 245 246 
269 161 246 253 
270 240 162 278 
271 162 254 279 
272 278 162 279 
273 165 163 215 
274 215 163 251 
275 251 163 275 
276 164 220 221 
277 164 221 222 
278 164 222 274 
279 166 165 215 
280 167 166 168 
281 168 166 198 
282 198 166 215 
283 167 168 169 
284 167 169 245 
285 219 167 245 
286 169 168 170 
287 170 168 241 
288 168 198 241 
289 169 170 171 
290 169 171 204 
291 169 204 245 
292 171 170 172 
293 172 170 173 
294 173 170 241 
295 171 172 205 
296 204 171 212 
297 171 205 212 
298 172 173 174 
299 172 174 247 
300 205 172 247 
301 174 173 175 
302 175 173 199 
303 199 173 241 
304 174 175 176 
305 174 176 177 
306 174 177 247 
307 176 175 243 
308 175 199 201 
309 175 201 243 
310 177 176 178 
311 178 176 179 
312 179 176 243 
313 177 178 216 
314 177 216 217 
315 177 217 247 
316 178 179 180 
317 178 180 181 
318 178 181 216 
319 180 179 183 
320 183 179 208 
321 208 179 243 
322 181 180 182 
323 182 180 250 
324 180 183 250 
325 181 182 184 
326 181 184 196 
327 181 196 216 
328 184 182 185 
329 185 182 186 
330 186 182 250 
331 183 208 209 
332 183 209 248 
333 183 248 250 
334 184 185 193 
335 184 193 244 
336 196 184 244 
337 185 186 187 
338 185 187 242 
339 193 185 242 
340 187 186 188 
341 188 186 203 
342 203 186 250 
343 187 188 189 
344 187 189 190 
345 187 190 242 
346 189 188 197 
347 197 188 277 
348 188 203 277 
349 190 189 191 
350 191 189 228 
351 189 197 228 
352 190 191 192 
353 190 192 200 
354 190 200 242 
355 192 191 194 
356 194 191 195 
357 195 191 228 
358 192 194 202 
359 200 192 236 
360 192 202 236 
361 193 242 249 
362 244 193 266 
363 193 249 266 
364 194 195 262 
365 202 194 206 
366 206 194 262 
367 224 195 228 
368 195 224 229 
369 195 229 262 
370 216 196 218 
371 218 196 259 
372 196 244 259 
373 225 197 226 
374 197 225 228 
375 226 197 227 
376 227 197 277 
377 213 198 214 
378 198 213 241 
379 214 198 215 
380 201 199 210 
381 210 199 213 
382 213 199 241 
383 200 236 263 
384 242 200 249 
385 249 200 263 
386 201 210 211 
387 201 211 256 
388 243 201 256 
389 202 206 207 
390 202 207 258 
391 236 202 258 
392 248 203 250 
393 203 248 260 
394 203 260 277 
395 204 212 265 
396 245 204 246 
397 246 204 265 
398 212 205 269 
399 235 205 247 
400 205 235 269 
401 207 206 279 
402 206 262 278 
403 206 278 279 
404 231 207 279 
405 209 208 280 
406 208 243 256 
407 208 256 280 
408 248 209 281 
409 252 209 261 
410 209 252 281 
411 261 209 280 
412 211 210 268 
413 212 239 265 
414 239 212 269 
415 214 215 251 
416 214 251 270 
417 217 216 218 
418 217 218 257 
419 217 235 247 
420 235 217 257 
421 238 218 259 
422 221 220 276 
423 222 221 223 
424 223 221 224 
425 224 221 276 
426 222 223 264 
427 223 224 225 
428 225 224 228 
429 229 224 276 
430 226 227 267 
431 255 227 260 
432 227 255 267 
433 260 227 277 
434 262 229 271 
435 246 230 253 
436 253 230 273 
437 231 254 272 
438 254 231 279 
439 233 232 266 
440 266 232 282 
441 233 249 263 
442 249 233 266 
443 234 235 257 
444 237 236 258 
445 271 240 278 
446 259 244 282 
447 244 266 282 
448 260 248 281 
449 262 271 278 
3 1 4 1116
450 320 186 185 316 
451 185 319 320 316 
452 186 182 185 316 
453 178 176 313 179 
454 312 310 313 178 
455 176 313 310 178 
456 173 333 175 199 
457 309 333 175 173 
458 333 309 307 173 
459 241 333 173 199 
460 375 333 307 173 
461 333 375 241 173 
462 170 375 307 173 
463 375 170 241 173 
464 319 185 184 316 
465 182 184 185 316 
466 182 184 316 181 
467 315 316 184 181 
468 304 375 307 170 
469 319 184 318 316 
470 184 318 316 315 
471 242 187 319 376 
472 304 305 303 171 
473 171 303 304 170 
474 170 302 375 241 
475 304 302 375 170 
476 302 304 303 170 
477 187 186 185 320 
478 319 187 185 320 
479 181 316 182 180 
480 181 315 316 180 
481 180 181 312 178 
482 312 315 181 180 
483 178 313 180 179 
484 180 312 313 178 
485 171 169 303 170 
486 170 168 302 241 
487 168 302 169 170 
488 169 302 303 170 
489 185 242 187 319 
490 170 307 306 173 
491 187 319 321 320 
492 307 170 306 304 
493 171 304 306 170 
494 306 305 304 171 
495 315 314 316 180 
496 315 312 314 180 
497 314 312 313 180 
498 376 187 319 321 
499 187 242 324 376 
500 306 172 170 173 
501 306 172 171 170 
502 302 169 167 168 
503 303 301 302 169 
504 327 185 184 319 
505 318 327 184 319 
506 193 185 184 327 
507 286 232 282 416 
508 154 299 300 165 
509 302 167 166 168 
510 319 327 242 376 
511 169 301 302 167 
512 376 324 187 321 
513 332 375 302 241 
514 353 288 301 219 
515 185 327 242 319 
516 168 332 302 241 
517 327 185 242 193 
518 377 313 176 179 
519 377 313 310 176 
520 167 302 166 301 
521 299 154 300 288 
522 165 300 154 166 
523 300 302 301 166 
524 187 242 190 324 
525 154 301 219 167 
526 167 154 301 166 
527 219 288 301 154 
528 288 300 301 154 
529 154 300 301 166 
530 305 306 339 171 
531 266 282 416 378 
532 310 309 377 175 
533 176 310 377 175 
534 179 176 377 243 
535 310 308 309 175 
536 175 176 310 174 
537 308 309 175 173 
538 309 308 307 173 
539 302 166 332 168 
540 172 339 306 171 
541 241 168 332 198 
542 250 186 203 337 
543 175 377 176 243 
544 307 308 306 173 
545 311 310 312 178 
546 176 310 177 178 
547 166 302 332 300 
548 172 306 308 173 
549 250 182 316 180 
550 198 168 332 166 
551 172 205 339 171 
552 384 316 314 180 
553 186 384 316 320 
554 250 182 186 316 
555 317 179 180 313 
556 205 269 403 212 
557 314 313 317 180 
558 384 186 337 320 
559 310 308 175 174 
560 308 175 174 173 
561 237 159 258 392 
562 346 305 339 171 
563 201 175 333 199 
564 333 309 175 201 
565 174 172 308 173 
566 176 177 310 174 
567 338 171 303 305 
568 303 169 171 204 
569 175 377 201 309 
570 310 311 177 178 
571 384 314 317 180 
572 316 384 250 180 
573 377 175 201 243 
574 242 334 324 376 
575 297 349 299 163 
576 171 205 346 212 
577 266 282 232 416 
578 205 346 339 171 
579 165 349 163 299 
580 188 277 203 411 
581 186 188 203 337 
582 412 271 396 405 
583 349 300 299 165 
584 384 186 316 250 
585 242 327 383 376 
586 305 346 338 171 
587 327 242 383 193 
588 337 250 186 384 
589 196 315 184 181 
590 184 318 315 330 
591 349 300 165 166 
592 333 241 213 199 
593 347 241 333 375 
594 370 258 202 392 
595 311 308 310 174 
596 159 207 258 392 
597 180 384 250 183 
598 332 300 349 166 
599 193 184 244 327 
600 378 327 184 318 
601 177 311 310 174 
602 346 171 212 204 
603 103 162 254 388 
604 188 337 411 203 
605 322 186 187 320 
606 332 347 375 241 
607 215 198 332 166 
608 179 317 180 183 
609 394 203 277 411 
610 258 370 237 392 
611 269 239 403 212 
612 321 322 187 320 
613 171 338 303 204 
614 322 337 186 320 
615 271 412 396 278 
616 309 333 335 201 
617 286 282 259 416 
618 321 189 324 187 
619 403 205 369 269 
620 207 392 202 258 
621 309 335 377 201 
622 189 187 190 324 
623 180 317 384 183 
624 198 332 241 213 
625 327 184 244 378 
626 205 403 346 212 
627 237 159 392 293 
628 203 248 250 337 
629 181 350 312 178 
630 312 315 350 181 
631 349 297 385 163 
632 346 339 403 205 
633 395 252 386 209 
634 377 313 179 208 
635 282 152 232 286 
636 243 201 377 256 
637 416 282 259 378 
638 301 379 353 219 
639 203 394 337 411 
640 212 265 399 204 
641 171 346 338 204 
642 388 103 162 296 
643 377 179 243 208 
644 184 378 318 330 
645 303 379 301 169 
646 279 388 365 254 
647 245 219 301 167 
648 355 354 164 298 
649 324 190 189 325 
650 262 278 271 396 
651 245 301 169 167 
652 263 370 200 397 
653 113 297 299 163 
654 151 239 403 269 
655 403 369 151 269 
656 162 388 279 254 
657 242 193 249 383 
658 233 263 249 397 
659 328 191 325 195 
660 395 386 252 119 
661 248 203 394 337 
662 252 287 386 415 
663 165 113 299 163 
664 219 109 353 112 
665 334 242 383 376 
666 386 124 252 119 
667 282 266 244 378 
668 399 265 246 204 
669 164 221 220 354 
670 284 370 263 397 
671 114 299 154 165 
672 349 165 163 215 
673 286 366 232 416 
674 239 265 399 212 
675 263 233 284 397 
676 378 184 244 330 
677 415 386 252 209 
678 190 191 189 325 
679 353 288 219 112 
680 165 215 349 166 
681 381 306 308 172 
682 333 201 199 210 
683 287 124 252 386 
684 350 311 312 178 
685 154 288 114 112 
686 114 299 288 154 
687 209 395 252 261 
688 341 392 159 293 
689 390 377 335 256 
690 384 248 250 183 
691 287 252 281 415 
692 103 102 162 296 
693 154 219 288 112 
694 328 195 325 329 
695 215 332 349 166 
696 159 142 141 293 
697 315 196 184 330 
698 159 144 142 293 
699 328 191 195 194 
700 306 381 339 172 
701 114 113 299 165 
702 369 391 234 257 
703 415 252 281 209 
704 278 340 413 412 
705 388 162 279 296 
706 291 402 344 268 
707 158 234 391 257 
708 212 399 346 204 
709 200 249 263 397 
710 346 403 373 212 
711 201 335 377 256 
712 244 327 266 193 
713 385 404 348 270 
714 229 195 262 396 
715 186 322 187 188 
716 158 391 218 257 
717 265 294 399 246 
718 159 231 341 293 
719 119 252 395 261 
720 169 303 379 204 
721 229 195 396 363 
722 164 355 298 356 
723 199 213 333 210 
724 172 308 247 174 
725 337 248 250 384 
726 247 205 339 172 
727 337 186 188 322 
728 348 404 291 270 
729 332 198 215 214 
730 248 384 317 183 
731 241 347 333 213 
732 205 403 369 339 
733 281 153 252 287 
734 266 416 400 378 
735 412 374 271 405 
736 329 396 195 363 
737 208 243 377 256 
738 293 392 237 371 
739 369 391 257 217 
740 179 313 317 208 
741 340 278 396 412 
742 308 311 247 174 
743 373 399 346 212 
744 322 187 189 321 
745 327 244 266 378 
746 311 216 177 178 
747 396 195 262 328 
748 384 382 248 317 
749 177 247 311 174 
750 124 252 153 287 
751 332 347 241 213 
752 338 346 399 204 
753 102 240 162 296 
754 215 349 385 163 
755 213 198 332 214 
756 271 374 289 405 
757 164 221 354 355 
758 196 350 315 181 
759 328 396 195 329 
760 383 249 242 334 
761 337 188 411 322 
762 396 262 206 328 
763 249 200 242 334 
764 218 257 391 217 
765 330 184 244 196 
766 344 335 333 201 
767 195 194 262 328 
768 206 279 278 340 
769 240 278 162 296 
770 399 294 265 239 
771 189 321 324 323 
772 191 326 328 325 
773 374 271 278 412 
774 286 152 140 134 
775 399 380 338 204 
776 383 193 266 327 
777 374 278 296 412 
778 206 396 278 262 
779 337 382 248 384 
780 366 266 232 416 
781 390 208 377 256 
782 262 194 206 328 
783 206 396 328 340 
784 340 279 278 413 
785 388 279 365 413 
786 121 268 402 120 
787 392 159 207 341 
788 297 409 385 163 
789 205 369 247 339 
790 303 338 379 204 
791 254 272 388 365 
792 233 266 232 366 
793 146 143 150 284 
794 206 341 279 340 
795 313 377 342 208 
796 200 397 370 334 
797 163 385 215 251 
798 298 354 164 105 
799 253 387 246 161 
800 397 249 233 383 
801 152 282 259 286 
802 281 248 415 209 
803 268 291 402 120 
804 398 264 357 290 
805 266 400 327 378 
806 413 388 279 296 
807 253 246 387 230 
808 122 291 404 270 
809 394 277 361 411 
810 396 206 278 340 
811 268 402 344 211 
812 392 370 237 371 
813 325 189 324 323 
814 159 237 144 293 
815 369 391 368 234 
816 289 220 276 354 
817 159 231 207 341 
818 354 276 289 410 
819 341 279 340 413 
820 279 162 278 296 
821 328 192 191 194 
822 386 343 395 209 
823 392 207 202 341 
824 391 292 368 234 
825 164 298 408 356 
826 354 220 164 105 
827 380 379 338 204 
828 295 353 379 219 
829 382 248 394 337 
830 260 255 153 287 
831 343 248 317 183 
832 416 366 266 400 
833 202 370 392 336 
834 348 215 332 349 
835 387 380 364 230 
836 117 395 414 119 
837 341 206 279 207 
838 233 266 366 400 
839 405 271 396 363 
840 208 317 179 183 
841 296 278 413 412 
842 201 333 344 210 
843 221 164 222 355 
844 385 348 349 215 
845 181 216 350 178 
846 234 368 369 151 
847 301 379 219 245 
848 405 289 271 363 
849 221 276 220 354 
850 345 390 335 256 
851 410 354 276 355 
852 140 232 152 286 
853 398 357 264 356 
854 317 382 248 343 
855 141 231 159 293 
856 379 301 169 245 
857 244 259 282 378 
858 251 163 409 275 
859 294 364 380 230 
860 133 135 368 234 
861 119 395 414 261 
862 383 397 249 334 
863 415 248 281 394 
864 236 258 202 370 
865 200 249 397 334 
866 296 102 240 374 
867 102 101 240 374 
868 374 101 240 104 
869 188 187 189 322 
870 391 292 234 158 
871 256 201 335 211 
872 129 124 153 287 
873 391 158 218 292 
874 226 290 267 360 
875 278 240 271 374 
876 365 279 341 413 
877 152 286 372 134 
878 215 348 332 214 
879 363 289 276 410 
880 386 415 343 209 
881 266 233 249 383 
882 195 229 224 363 
883 285 136 137 151 
884 233 266 400 383 
885 263 150 236 284 
886 408 274 164 356 
887 213 344 333 210 
888 231 254 279 365 
889 336 341 206 340 
890 278 374 296 240 
891 202 392 341 336 
892 208 343 317 183 
893 263 233 150 284 
894 390 414 208 256 
895 280 208 414 256 
896 371 370 237 284 
897 207 231 279 341 
898 202 206 194 328 
899 336 206 328 340 
900 215 385 214 251 
901 385 348 215 214 
902 220 289 106 354 
903 353 295 109 219 
904 404 385 122 270 
905 329 195 224 363 
906 210 213 344 157 
907 347 344 333 213 
908 266 249 193 383 
909 188 411 331 277 
910 266 400 383 327 
911 239 373 403 212 
912 268 210 344 157 
913 370 258 237 236 
914 222 355 357 221 
915 365 341 231 293 
916 228 191 195 325 
917 344 335 201 211 
918 403 285 373 151 
919 403 369 285 151 
920 232 140 366 286 
921 105 354 220 106 
922 208 390 377 342 
923 191 228 189 325 
924 213 291 344 157 
925 347 291 344 213 
926 247 381 308 172 
927 332 347 213 214 
928 330 350 315 196 
929 240 155 271 374 
930 272 388 365 406 
931 268 344 291 157 
932 311 350 216 178 
933 370 263 200 236 
934 183 343 248 209 
935 347 332 348 214 
936 260 203 277 394 
937 213 347 291 214 
938 214 291 213 157 
939 207 206 202 341 
940 216 217 311 177 
941 270 214 385 251 
942 214 385 348 270 
943 368 285 369 151 
944 347 348 291 214 
945 358 363 276 410 
946 150 237 236 284 
947 381 308 311 247 
948 342 317 313 208 
949 158 292 372 218 
950 240 155 374 104 
951 367 397 233 383 
952 244 259 378 330 
953 289 276 229 363 
954 291 214 270 157 
955 370 263 236 284 
956 247 339 381 172 
957 355 164 222 356 
958 196 350 218 330 
959 321 189 322 323 
960 343 248 415 382 
961 248 203 260 394 
962 129 153 255 287 
963 276 358 410 355 
964 380 399 246 204 
965 399 373 239 212 
966 156 290 130 127 
967 145 233 232 366 
968 369 235 269 205 
969 214 291 270 348 
970 413 279 278 296 
971 325 195 228 329 
972 293 237 144 371 
973 204 379 169 245 
974 233 284 397 367 
975 192 200 236 370 
976 262 271 229 396 
977 192 328 191 326 
978 264 156 223 290 
979 217 247 311 177 
980 414 208 280 209 
981 271 229 396 363 
982 218 330 259 196 
983 370 202 192 336 
984 295 380 387 161 
985 400 366 233 367 
986 286 259 152 372 
987 239 403 373 151 
988 281 287 415 394 
989 354 221 276 355 
990 246 387 380 161 
991 229 271 289 363 
992 246 265 294 160 
993 290 226 267 156 
994 344 201 210 211 
995 279 365 341 231 
996 183 208 343 209 
997 317 342 343 208 
998 379 380 246 204 
999 246 379 204 245 
1000 370 236 237 284 
1001 390 345 283 256 
1002 276 224 229 363 
1003 380 387 246 230 
1004 234 369 257 235 
1005 206 202 341 336 
1006 230 246 294 160 
1007 235 151 369 269 
1008 202 206 328 336 
1009 355 222 357 356 
1010 222 223 221 357 
1011 238 158 372 218 
1012 294 380 399 246 
1013 202 192 236 370 
1014 326 370 192 336 
1015 394 415 248 382 
1016 133 368 292 234 
1017 195 224 228 329 
1018 155 220 276 289 
1019 155 271 374 289 
1020 292 391 352 218 
1021 248 343 415 209 
1022 163 409 385 251 
1023 146 150 233 284 
1024 246 294 380 230 
1025 233 400 367 383 
1026 247 339 369 381 
1027 369 205 247 235 
1028 369 234 151 235 
1029 328 202 192 194 
1030 253 111 387 161 
1031 350 196 216 181 
1032 357 264 223 290 
1033 390 414 342 208 
1034 153 281 260 287 
1035 391 369 351 217 
1036 389 287 255 394 
1037 287 260 255 394 
1038 289 374 155 104 
1039 369 257 235 217 
1040 209 414 395 261 
1041 344 210 268 211 
1042 380 295 379 161 
1043 350 196 218 216 
1044 122 291 270 157 
1045 120 268 291 157 
1046 244 259 330 196 
1047 246 380 379 161 
1048 379 246 161 245 
1049 292 133 234 158 
1050 350 330 352 218 
1051 239 294 265 160 
1052 352 372 292 218 
1053 358 276 221 355 
1054 218 391 351 217 
1055 238 372 259 218 
1056 232 140 145 366 
1057 294 399 373 239 
1058 161 295 379 219 
1059 274 222 164 356 
1060 259 286 416 393 
1061 222 357 264 223 
1062 357 222 264 356 
1063 407 253 230 273 
1064 351 352 391 218 
1065 276 229 155 289 
1066 362 189 325 323 
1067 209 280 414 261 
1068 280 414 283 256 
1069 414 390 283 256 
1070 231 141 365 293 
1071 284 233 146 367 
1072 330 259 393 352 
1073 352 330 259 218 
1074 221 358 355 357 
1075 379 161 219 245 
1076 137 373 285 151 
1077 211 268 402 121 
1078 134 372 152 238 
1079 350 218 217 216 
1080 272 254 231 365 
1081 208 414 343 209 
1082 414 343 342 208 
1083 289 220 106 155 
1084 253 387 407 230 
1085 218 351 350 217 
1086 234 135 368 151 
1087 256 335 345 211 
1088 352 351 350 218 
1089 291 122 120 157 
1090 277 361 411 331 
1091 373 137 138 239 
1092 393 416 259 378 
1093 290 156 267 127 
1094 369 217 247 351 
1095 311 350 217 216 
1096 226 359 290 360 
1097 387 364 407 230 
1098 229 271 155 289 
1099 311 350 351 217 
1100 217 369 247 235 
1101 369 247 381 351 
1102 202 328 192 336 
1103 259 352 372 393 
1104 352 259 372 218 
1105 248 260 281 394 
1106 335 344 345 211 
1107 366 145 233 367 
1108 251 409 123 275 
1109 356 264 398 126 
1110 285 135 136 151 
1111 361 227 277 394 
1112 373 137 239 151 
1113 364 294 139 230 
1114 270 385 122 251 
1115 247 311 351 217 
1116 161 109 295 219 
1117 295 111 110 161 
1118 255 129 287 389 
1119 192 328 326 336 
1120 311 351 381 247 
1121 411 188 331 322 
1122 372 259 152 238 
1123 356 408 274 125 
1124 146 233 145 367 
1125 295 110 109 161 
1126 129 255 128 389 
1127 143 144 150 284 
1128 259 393 378 330 
1129 283 280 117 414 
1130 224 221 223 357 
1131 359 226 331 360 
1132 402 345 344 211 
1133 361 255 227 394 
1134 285 368 135 151 
1135 227 260 277 394 
1136 224 329 363 358 
1137 138 294 239 160 
1138 106 289 155 104 
1139 295 387 111 161 
1140 138 294 373 239 
1141 343 414 395 209 
1142 372 134 133 238 
1143 156 226 225 290 
1144 371 237 144 284 
1145 211 118 283 149 
1146 361 389 255 394 
1147 260 227 255 394 
1148 283 395 414 117 
1149 261 280 117 149 
1150 283 256 211 149 
1151 118 283 345 211 
1152 259 286 393 372 
1153 256 345 283 211 
1154 133 292 372 158 
1155 287 281 260 394 
1156 189 362 325 228 
1157 228 325 329 362 
1158 188 189 331 322 
1159 237 150 144 284 
1160 225 223 156 290 
1161 141 272 365 406 
1162 123 385 409 251 
1163 329 224 228 358 
1164 362 329 228 358 
1165 230 294 139 160 
1166 276 224 363 358 
1167 158 372 133 238 
1168 224 276 221 358 
1169 322 189 331 323 
1170 227 361 418 419 
1171 221 224 358 357 
1172 256 283 280 149 
1173 223 359 357 290 
1174 274 222 356 125 
1175 331 189 362 323 
1176 297 113 115 163 
1177 222 264 356 126 
1178 123 122 385 251 
1179 272 141 147 406 
1180 131 274 408 125 
1181 132 123 409 275 
1182 388 272 108 406 
1183 118 117 283 149 
1184 115 409 297 163 
1185 280 283 117 149 
1186 125 222 356 126 
1187 197 227 277 361 
1188 141 272 231 365 
1189 408 164 274 107 
1190 402 345 211 121 
1191 294 138 139 160 
1192 115 409 163 275 
1193 362 228 189 331 
1194 223 359 224 357 
1195 331 188 277 197 
1196 359 225 226 290 
1197 387 116 111 253 
1198 253 407 116 273 
1199 228 362 359 331 
1200 407 253 116 387 
1201 226 359 331 225 
1202 226 197 225 331 
1203 223 225 359 290 
1204 188 189 197 331 
1205 359 362 228 358 
1206 224 359 228 358 
1207 197 189 228 331 
1208 255 361 227 419 
1209 224 359 358 357 
1210 255 389 361 419 
1211 230 148 407 273 
1212 360 361 401 419 
1213 225 228 359 331 
1214 228 225 197 331 
1215 361 277 197 331 
1216 359 224 228 225 
1217 211 345 118 121 
1218 359 223 224 225 
1219 37 109 219 112 
1220 109 29 353 112 
1221 154 114 36 112 
1222 288 28 114 112 
1223 36 114 154 165 
1224 299 28 114 288 
1225 144 73 159 142 
1226 144 142 293 88 
1227 154 37 219 112 
1228 29 288 353 112 
1229 165 35 113 163 
1230 113 114 35 165 
1231 296 14 102 374 
1232 22 240 162 102 
1233 14 101 102 374 
1234 240 22 101 102 
1235 297 27 113 299 
1236 27 114 113 299 
1237 133 135 234 80 
1238 135 368 95 133 
1239 159 237 73 144 
1240 371 144 293 88 
1241 143 146 90 284 
1242 150 75 143 146 
1243 360 418 361 419 
1244 137 98 373 138 
1245 137 138 239 83 
1246 72 159 142 141 
1247 152 78 140 134 
1248 140 93 286 134 
1249 106 12 289 104 
1250 106 155 20 104 
1251 110 30 295 109 
1252 109 110 38 161 
1253 161 38 109 219 
1254 30 353 295 109 
1255 141 142 87 293 
1256 144 150 74 143 
1257 89 144 143 284 
1258 48 252 124 119 
1259 124 386 63 119 
1260 105 220 19 106 
1261 292 95 368 133 
1262 80 234 133 158 
1263 354 12 289 106 
1264 20 220 155 106 
1265 19 164 220 105 
1266 374 13 101 104 
1267 21 240 101 104 
1268 386 287 124 62 
1269 153 47 252 124 
1270 96 285 135 136 
1271 81 136 135 151 
1272 97 285 136 137 
1273 137 136 82 151 
1274 48 252 119 261 
1275 395 63 386 119 
1276 134 94 372 133 
1277 79 133 134 238 
1278 287 129 124 62 
1279 124 153 47 129 
1280 64 395 117 119 
1281 119 117 49 261 
1282 31 295 111 110 
1283 11 354 105 106 
1284 11 354 298 105 
1285 75 150 233 146 
1286 146 90 284 367 
1287 126 398 58 130 
1288 126 43 264 130 
1289 159 72 231 141 
1290 160 239 138 83 
1291 98 294 373 138 
1292 89 371 144 284 
1293 150 74 237 144 
1294 285 368 96 135 
1295 234 81 135 151 
1296 31 295 387 111 
1297 129 128 61 389 
1298 128 46 255 129 
1299 152 78 134 238 
1300 372 286 93 134 
1301 92 145 140 366 
1302 140 77 232 145 
1303 87 365 141 293 
1304 255 46 153 129 
1305 61 287 129 389 
1306 133 79 158 238 
1307 94 292 372 133 
1308 240 21 155 104 
1309 13 374 289 104 
1310 77 232 152 140 
1311 140 92 366 286 
1312 398 290 58 130 
1313 156 264 43 130 
1314 82 239 137 151 
1315 285 97 373 137 
1316 128 389 255 419 
1317 99 294 138 139 
1318 121 402 67 120 
1319 52 268 121 120 
1320 409 115 132 275 
1321 272 147 108 406 
1322 274 408 107 131 
1323 148 116 407 273 
1324 139 138 84 160 
1325 118 345 66 121 
1326 118 51 211 121 
1327 64 395 283 117 
1328 261 117 49 149 
1329 211 51 268 121 
1330 345 402 66 121 
1331 294 99 364 139 
1332 291 67 402 120 
1333 52 268 120 157 
1334 84 230 139 160 
1335 118 50 117 149 
1336 117 283 65 118 
1337 267 255 227 419 
1338 401 361 389 419 
1339 345 65 283 118 
1340 50 118 211 149 
1341 254 272 24 103 
1342 10 298 408 105 
1343 100 407 364 139 
1344 108 24 272 103 
1345 407 100 148 139 
1346 385 409 70 123 
1347 115 26 113 297 
1348 222 274 41 125 
1349 231 71 272 141 
1350 107 10 408 105 
1351 123 55 251 275 
1352 56 408 356 125 
1353 26 115 409 297 
1354 406 365 141 86 
1355 409 70 123 132 
1356 131 41 274 125 
1357 103 108 16 388 
1358 141 71 272 147 
1359 116 32 387 111 
1360 55 123 132 275 
1361 230 139 148 85 
1362 408 56 131 125 
1363 388 108 16 406 
1364 107 9 274 131 
1365 17 272 147 108 
1366 141 147 406 86 
1367 407 7 33 148 
1368 116 33 8 273 
1369 274 9 2 131 
1370 274 2 9 107 
1371 272 17 4 108 
1372 272 4 17 147 
1373 6 25 115 275 
1374 25 5 409 132 
1375 387 407 32 116 
1376 116 407 33 148 
1377 409 115 25 132 
1378 33 116 148 273 
1379 132 115 25 275 
1380 407 33 7 116 
1381 25 5 115 409 
1382 148 8 33 273 
1383 25 6 132 275 
1384 273 230 148 85 
1385 113 35 34 163 
1386 19 18 164 105 
1387 162 23 22 102 
1388 102 15 14 296 
1389 27 28 114 299 
1390 114 36 35 165 
1391 353 30 29 109 
1392 38 37 109 219 
1393 154 36 37 112 
1394 288 29 28 112 
1395 99 100 364 139 
1396 72 71 231 141 
1397 26 27 113 297 
1398 298 10 11 105 
1399 385 70 69 123 
1400 41 42 222 125 
1401 86 365 141 87 
1402 289 12 13 104 
1403 155 21 20 104 
1404 85 230 139 84 
1405 97 98 373 137 
1406 83 239 137 82 
1407 133 79 80 158 
1408 94 95 292 133 
1409 90 146 91 367 
1410 233 76 75 146 
1411 88 371 144 89 
1412 74 73 237 144 
1413 111 40 39 253 
1414 293 142 87 88 
1415 72 159 73 142 
1416 43 44 156 130 
1417 290 58 130 59 
1418 11 12 354 106 
1419 20 19 220 106 
1420 96 368 95 135 
1421 234 135 81 80 
1422 157 120 52 53 
1423 291 68 67 120 
1424 55 54 123 251 
1425 118 51 50 211 
1426 345 66 65 118 
1427 24 23 254 103 
1428 57 56 356 125 
1429 32 31 387 111 
1430 94 372 93 134 
1431 79 134 78 238 
1432 110 39 38 161 
1433 295 31 30 110 
1434 92 140 93 286 
1435 77 152 78 140 
1436 103 16 15 388 
1437 150 75 74 143 
1438 90 89 143 284 
1439 160 138 84 83 
1440 99 294 98 138 
1441 14 13 101 374 
1442 22 21 240 101 
1443 62 287 129 61 
1444 153 46 47 129 
1445 107 1 9 131 
1446 147 3 17 108 
1447 407 100 7 148 
1448 4 24 272 108 
1449 8 40 116 273 
1450 115 34 6 275 
1451 18 2 274 107 
1452 47 48 252 124 
1453 63 386 124 62 
1454 81 82 136 151 
1455 285 96 97 136 
1456 91 145 92 366 
1457 77 76 232 145 
1458 70 409 5 132 
1459 274 2 41 131 
1460 60 61 128 389 
1461 128 46 45 255 
1462 119 49 48 261 
1463 395 64 63 119 
1464 190 200 192 417 
1465 107 408 1 131 
1466 108 147 3 406 
1467 51 52 268 121 
1468 402 67 66 121 
1469 4 272 71 147 
1470 45 127 128 419 
1471 128 127 60 419 
1472 324 326 334 417 
1473 53 270 122 54 
1474 68 69 122 404 
1475 42 43 264 126 
1476 398 58 57 126 
1477 128 255 45 419 
1478 60 389 128 419 
1479 3 16 108 406 
1480 59 60 127 401 
1481 267 44 45 127 
1482 408 1 10 107 
1483 117 50 49 149 
1484 65 64 283 117 
1485 267 45 255 419 
1486 401 389 60 419 
1487 408 56 1 131 
1488 115 5 26 409 
1489 7 32 407 116 
1490 273 148 8 85 
1491 406 147 3 86 
1492 127 401 60 419 
1493 45 267 127 419 
1494 361 360 331 418 
1495 55 132 6 275 
1496 226 227 197 418 
1497 226 331 360 418 
1498 226 197 331 418 
1499 197 361 331 418 
1500 197 227 361 418 
1501 162 103 23 102 
1502 23 103 162 254 
1503 103 296 15 102 
1504 15 296 103 388 
1505 261 414 117 280 
1506 261 117 414 119 
1507 122 291 68 404 
1508 122 68 291 120 
1509 157 122 53 270 
1510 157 53 122 120 
1511 130 264 290 156 
1512 398 130 264 290 
1513 264 130 398 126 
1514 267 360 418 226 
1515 418 360 267 419 
1516 418 227 267 226 
1517 267 227 418 419 
1518 127 156 44 130 
1519 127 44 156 267 
1520 290 127 59 130 
1521 290 59 127 401 
1522 419 127 290 267 
1523 290 127 419 401 
1524 290 360 419 267 
1525 419 360 290 401 
1526 164 107 18 274 
1527 164 18 107 105 
1528 103 272 388 254 
1529 103 388 272 108 
1530 163 115 34 113 
1531 34 115 163 275 
1532 145 233 76 232 
1533 145 76 233 146 
1534 367 145 91 366 
1535 367 91 145 146 
1536 356 126 57 125 
1537 57 126 356 398 
1538 161 111 39 253 
1539 161 39 111 110 
1540 222 126 42 264 
1541 42 126 222 125 
1542 251 122 54 123 
1543 251 54 122 270 
1544 385 122 69 404 
1545 385 69 122 123 
1546 116 253 40 111 
1547 40 253 116 273 
1548 139 407 230 148 
1549 139 230 407 364 
1550 408 105 164 107 
1551 164 105 408 298 
1552 417 324 325 190 
1553 417 325 324 326 
1554 191 417 325 190 
1555 191 325 417 326 
1556 192 417 191 190 
1557 192 191 417 326 
1558 417 190 242 324 
1559 242 190 417 200 
1560 242 334 417 324 
1561 417 334 242 200 
1562 200 417 370 192 
1563 200 370 417 334 
1564 326 370 417 192 
1565 326 417 370 334 
$EndElements
