$MeshFormat
4.1 0 8
$EndMeshFormat
$PhysicalNames
8
0 6 "anchor_origin"
0 7 "anchor_x"
0 8 "anchor_xy"
2 2 "x_min"
2 3 "x_max"
2 4 "y_min"
2 5 "z_min"
3 1 "domain"
$EndPhysicalNames
$Entities
8 12 6 1
1 0 0 0.2 0 
2 0 0 0 1 6 
3 0 1 0.2 0 
4 0 1 0 1 8 
5 2 0 0.2 0 
6 2 0 0 1 7 
7 2 1 0.2 0 
8 2 1 0 0 
1 -1e-07 -1e-07 -1.000000000028756e-07 1e-07 1e-07 0.2000001 0 2 2 -1 
2 -1e-07 -9.999999994736442e-08 0.1999999 1e-07 1.0000001 0.2000001 0 2 1 -3 
3 -1e-07 0.9999999000000001 -1.000000000028756e-07 1e-07 1.0000001 0.2000001 0 2 4 -3 
4 -1e-07 -9.999999994736442e-08 -1e-07 1e-07 1.0000001 1e-07 0 2 2 -4 
5 1.9999999 -1e-07 -1.000000000028756e-07 2.0000001 1e-07 0.2000001 0 2 6 -5 
6 1.9999999 -9.999999994736442e-08 0.1999999 2.0000001 1.0000001 0.2000001 0 2 5 -7 
7 1.9999999 0.9999999000000001 -1.000000000028756e-07 2.0000001 1.0000001 0.2000001 0 2 8 -7 
8 1.9999999 -9.999999994736442e-08 -1e-07 2.0000001 1.0000001 1e-07 0 2 6 -8 
9 -9.999999994736442e-08 -1e-07 -1e-07 2.0000001 1e-07 1e-07 0 2 2 -6 
10 -9.999999994736442e-08 -1e-07 0.1999999 2.0000001 1e-07 0.2000001 0 2 1 -5 
11 -9.999999994736442e-08 0.9999999000000001 -1e-07 2.0000001 1.0000001 1e-07 0 2 4 -8 
12 -9.999999994736442e-08 0.9999999000000001 0.1999999 2.0000001 1.0000001 0.2000001 0 2 3 -7 
1 -1e-07 -9.999999994736442e-08 -1.000000000028756e-07 1e-07 1.0000001 0.2000001 1 2 4 -1 4 3 -2 
2 1.9999999 -9.999999994736442e-08 -1.000000000028756e-07 2.0000001 1.0000001 0.2000001 1 3 4 -5 8 7 -6 
3 -9.999999994736442e-08 -1e-07 -1.000000000028756e-07 2.0000001 1e-07 0.2000001 1 4 4 -9 1 10 -5 
4 -9.999999994736442e-08 0.9999999000000001 -1.000000000028756e-07 2.0000001 1.0000001 0.2000001 0 4 -11 3 12 -7 
5 -9.999999994736442e-08 -9.999999994736442e-08 -1e-07 2.0000001 1.0000001 1e-07 1 5 4 -4 9 8 -11 
6 -9.999999994736442e-08 -9.999999994736442e-08 0.1999999 2.0000001 1.0000001 0.2000001 0 4 -2 10 6 -12 
1 -9.999999994736442e-08 -9.999999994736442e-08 -1.000000000028756e-07 2.0000001 1.0000001 0.2000001 1 1 6 -1 2 -3 4 -5 6 
$EndEntities
$Nodes
27 737 1 737
0 1 0 1
1
0 0 0.2
0 2 0 1
2
0 0 0
0 3 0 1
3
0 1 0.2
0 4 0 1
4
0 1 0
0 5 0 1
5
2 0 0.2
0 6 0 1
6
2 0 0
0 7 0 1
7
2 1 0.2
0 8 0 1
8
2 1 0
1 1 0 1
9
0 0 0.1000000000000001
1 2 0 9
10
11
12
13
14
15
16
17
18
0 0.1 0.2
0 0.2 0.2
0 0.3 0.2
0 0.4 0.2
0 0.5 0.2
0 0.6 0.2
0 0.7 0.2
0 0.8 0.2
0 0.9 0.2
1 3 0 1
19
0 1 0.1000000000000001
1 4 0 9
20
21
22
23
24
25
26
27
28
0 0.1 0
0 0.2 0
0 0.3 0
0 0.4 0
0 0.5 0
0 0.6 0
0 0.7 0
0 0.8 0
0 0.9 0
1 5 0 1
29
2 0 0.1000000000000001
1 6 0 9
30
31
32
33
34
35
36
37
38
2 0.1 0.2
2 0.2 0.2
2 0.3 0.2
2 0.4 0.2
2 0.5 0.2
2 0.6 0.2
2 0.7 0.2
2 0.8 0.2
2 0.9 0.2
1 7 0 1
39
2 1 0.1000000000000001
1 8 0 9
40
41
42
43
44
45
46
47
48
2 0.1 0
2 0.2 0
2 0.3 0
2 0.4 0
2 0.5 0
2 0.6 0
2 0.7 0
2 0.8 0
2 0.9 0
1 9 0 19
49
50
51
52
53
54
55
56
57
58
59
60
61
62
63
64
65
66
67
0.1 0 0
0.2 0 0
0.3 0 0
0.4 0 0
0.5 0 0
0.6 0 0
0.7 0 0
0.8 0 0
0.9 0 0
1 0 0
1.1 0 0
1.2 0 0
1.3 0 0
1.4 0 0
1.5 0 0
1.6 0 0
1.7 0 0
1.8 0 0
1.9 0 0
1 10 0 19
68
69
70
71
72
73
74
75
76
77
78
79
80
81
82
83
84
85
86
0.1 0 0.2
0.2 0 0.2
0.3 0 0.2
0.4 0 0.2
0.5 0 0.2
0.6 0 0.2
0.7 0 0.2
0.8 0 0.2
0.9 0 0.2
1 0 0.2
1.1 0 0.2
1.2 0 0.2
1.3 0 0.2
1.4 0 0.2
1.5 0 0.2
1.6 0 0.2
1.7 0 0.2
1.8 0 0.2
1.9 0 0.2
1 11 0 19
87
88
89
90
91
92
93
94
95
96
97
98
99
100
101
102
103
104
105
0.1 1 0
0.2 1 0
0.3 1 0
0.4 1 0
0.5 1 0
0.6 1 0
0.7 1 0
0.8 1 0
0.9 1 0
1 1 0
1.1 1 0
1.2 1 0
1.3 1 0
1.4 1 0
1.5 1 0
1.6 1 0
1.7 1 0
1.8 1 0
1.9 1 0
1 12 0 19
106
107
108
109
110
111
112
113
114
115
116
117
118
119
120
121
122
123
124
0.1 1 0.2
0.2 1 0.2
0.3 1 0.2
0.4 1 0.2
0.5 1 0.2
0.6 1 0.2
0.7 1 0.2
0.8 1 0.2
0.9 1 0.2
1 1 0.2
1.1 1 0.2
1.2 1 0.2
1.3 1 0.2
1.4 1 0.2
1.5 1 0.2
1.6 1 0.2
1.7 1 0.2
1.8 1 0.2
1.9 1 0.2
2 1 0 12
125
126
127
128
129
130
131
132
133
134
135
136
0 0.5501252176545098 0.09523328371182849
0 0.8499999999999999 0.08660254037844384
0 0.25 0.09544726517863897
0 0.3502454266028393 0.101054717125084
0 0.15 0.1133974596215562
0 0.6502662962119242 0.1010190535472823
0 0.7507438979256846 0.1042769022397678
0 0.4500617740428915 0.09938133347281874
0 0.9342548333840974 0.1266317716836684
0 0.06574516661590249 0.07336822831633152
0 0.942018786627639 0.05779820648068516
0 0.05798121337236102 0.1422017935193147
2 2 0 12
137
138
139
140
141
142
143
144
145
146
147
148
2 0.5501252176545098 0.09523328371182849
2 0.8499999999999999 0.08660254037844384
2 0.25 0.09544726517863897
2 0.3502454266028393 0.101054717125084
2 0.15 0.1133974596215562
2 0.6502662962119242 0.1010190535472823
2 0.7507438979256846 0.1042769022397678
2 0.4500617740428915 0.09938133347281874
2 0.9342548333840974 0.1266317716836684
2 0.06574516661590249 0.07336822831633152
2 0.942018786627639 0.05779820648068516
2 0.05798121337236102 0.1422017935193147
2 3 0 22
149
150
151
152
153
154
155
156
157
158
159
160
161
162
163
164
165
166
167
168
169
170
1.249653129788216 0 0.09617215439384105
1.750000000000001 0 0.09544726517863861
1.05 0 0.1047126821048274
1.449698621732386 0 0.1000812364004889
0.5500298822037573 0 0.09546044104865271
0.8499999999999999 0 0.09637529568876781
0.25 0 0.104552734821361
1.649970117796242 0 0.1037411079364291
0.3500298822037573 0 0.09625889206356904
0.15 0 0.08660254037844385
0.6498786587852263 0 0.1052513346543469
1.850000000000001 0 0.1133974596215563
0.4501075190150429 0 0.1019818333316731
1.549944789921438 0 0.1006370573894863
1.149942188298036 0 0.1001474727497781
0.9499999999999998 0 0.1001813296322659
0.7499797764642043 0 0.1002711050571858
1.349891958586767 0 0.09937556513238832
0.06574516661590248 0 0.1266317716836685
1.934254833384098 0 0.07336822831633157
1.942018786627639 0 0.1422017935193156
0.05798121337236099 0 0.05779820648068534
2 4 0 22
171
172
173
174
175
176
177
178
179
180
181
182
183
184
185
186
187
188
189
190
191
192
1.249653129788216 1 0.09617215439384105
1.750000000000001 1 0.09544726517863861
1.05 1 0.1047126821048274
1.449698621732386 1 0.1000812364004889
0.5501252176545098 1 0.1047667162881715
0.8503013782676132 1 0.09991876359951113
0.25 1 0.104552734821361
1.649970117796242 1 0.1037411079364291
0.3502454266028393 1 0.09894528287491602
0.15 1 0.08660254037844385
0.6500405299634944 1 0.09627708776652902
1.850000000000001 1 0.1133974596215563
0.7500569847051844 1 0.09936597522767335
1.549944789921438 1 0.1006370573894863
1.149942188298036 1 0.1001474727497781
0.9504521226193332 1 0.09744447317422218
1.349891958586767 1 0.09937556513238832
0.4500617740428916 1 0.1006186665271812
0.06574516661590248 1 0.1266317716836685
1.934254833384098 1 0.07336822831633157
1.942018786627639 1 0.1422017935193156
0.05798121337236099 1 0.05779820648068534
2 5 0 215
193
194
195
196
197
198
199
200
201
202
203
204
205
206
207
208
209
210
211
212
213
214
215
216
217
218
219
220
221
222
223
224
225
226
227
228
229
230
231
232
233
234
235
236
237
238
239
240
241
242
243
244
245
246
247
248
249
250
251
252
253
254
255
256
257
258
259
260
261
262
263
264
265
266
267
268
269
270
271
272
273
274
275
276
277
278
279
280
281
282
283
284
285
286
287
288
289
290
291
292
293
294
295
296
297
298
299
300
301
302
303
304
305
306
307
308
309
310
311
312
313
314
315
316
317
318
319
320
321
322
323
324
325
326
327
328
329
330
331
332
333
334
335
336
337
338
339
340
341
342
343
344
345
346
347
348
349
350
351
352
353
354
355
356
357
358
359
360
361
362
363
364
365
366
367
368
369
370
371
372
373
374
375
376
377
378
379
380
381
382
383
384
385
386
387
388
389
390
391
392
393
394
395
396
397
398
399
400
401
402
403
404
405
406
407
1.251764026054264 0.9217374907123528 0
0.55 0.9133974596215562 0
0.85 0.9133974596215562 0
1.05 0.08660254037844377 0
1.45 0.08660254037844473 0
0.6500000000000004 0.08660254037844442 0
1.550642866637852 0.9154640981949499 0
0.08993950481969339 0.4571901590781129 0
1.913397459621556 0.45 0
0.3500000000000006 0.08660254037844557 0
1.65 0.08660254037844446 0
1.05 0.9133974596215562 0
0.85 0.0866025403784438 0
1.25 0.08660254037844377 0
0.35 0.9133974596215562 0
0.07435624800787106 0.651453120623665 0
1.913397459621556 0.6499999999999999 0
1.918146693975871 0.255667457129367 0
1.74597880323238 0.9204077431036597 0
0.08962961249554321 0.2413274345293437 0
0.1504600087906225 0.9228519491133046 0
1.849576263071913 0.08467720450558307 0
0.1504237369280877 0.0846772045055835 0
1.917050259585119 0.8494067683006772 0
1.749929377178652 0.0862816510663006 0
1.699988229529775 0.173151599204864 0
1.599998038254962 0.1731961671648848 0
1.649997711297457 0.2597972219446605 0
1.55 0.2598076211353327 0
1.599999618549577 0.3464084283153309 0
1.49999993642493 0.3464098726473691 0
1.549999925829086 0.4330123648814115 0
1.450000000000002 0.4330127018922211 0
1.499999987638183 0.5196151861021963 0
1.399999997939699 0.5196152329092534 0
1.349999999656618 0.4330127003319858 0
1.299999999599387 0.5196152404503905 0
1.249999999876002 0.433012701328803 0
1.199999999937548 0.5196152419868924 0
1.149999999968927 0.4330127017510229 0
1.100000000000003 0.5196152422706655 0
1.049999999994823 0.4330127018686886 0
0.9999999999991394 0.5196152422667435 0
0.9499999999989953 0.4330127018876461 0
0.8999999999998436 0.5196152422699434 0
0.8499999999998082 0.4330127018913393 0
0.7999999999999607 0.5196152422704754 0
0.7499999999999633 0.4330127018920438 0
0.700000000000003 0.5196152422706669 0
0.649999999999996 0.4330127018921934 0
0.6000000000000019 0.5196152422706621 0
0.5500000000000014 0.4330127018922177 0
0.5000000000000029 0.5196152422706667 0
0.4500000000000025 0.433012701892223 0
0.4000000000000031 0.519615242270668 0
1.599999985577879 0.5196151767407838 0
1.349999999589849 0.6062177807854944 0
0.6500000000000034 0.6062177826491109 0
1.149999999989593 0.6062177826018136 0
0.9499999999998323 0.6062177826483356 0
0.4500000000000036 0.6062177826491114 0
0.500000000000002 0.3464101615137788 0
0.4000000000000024 0.3464101615137802 0
1.549999995536013 0.60621776236605 0
0.3500000000000036 0.6062177826491124 0
1.649999997751656 0.6062177724332806 0
0.6999999999999945 0.3464101615137443 0
0.8999999999998012 0.3464101615128679 0
1.099999999993959 0.3464101614863214 0
1.299999999922104 0.3464101611598344 0
1.6945499838991 0.3470411947031698 0
1.599999998881281 0.6928203179444044 0
1.700000000000004 0.692820323027551 0
0.4000000000000042 0.6928203230275559 0
0.3000000000000043 0.6928203230275567 0
0.3000000000000032 0.5196152422706687 0
0.450000000000002 0.2598076211353361 0
0.3500000000000022 0.2598076211353366 0
1.499999999069551 0.6928203187998513 0
0.3000000000000025 0.3464101615137807 0
0.5500000000000019 0.2598076211353358 0
0.500000000000004 0.6928203230275554 0
1.449999989404156 0.2598075729909314 0
1.698718137005805 0.5203553119870244 0
1.650000000000004 0.779422863405995 0
0.4500000000000046 0.7794228634059994 0
0.5000000000000011 0.1732050807568908 0
0.2529006350946129 0.2614823035880313 0
0.2038898223669996 0.3473810991739246 0
1.74810676305672 0.7782898855180378 0
0.5500000000000045 0.7794228634059991 0
1.814158016335447 0.6984028011717298 0
1.801761838561689 0.1646538031147131 0
0.3004834391824366 0.1734841944990072 0
0.1849446511850705 0.1817618862742255 0
0.6000000000000014 0.1732050807568912 0
1.749837911022896 0.6081505113162772 0
1.804659564382345 0.5152525557074088 0
1.449999996628883 0.6062177673317328 0
1.399999999214715 0.6928203194594373 0
1.300000000000002 0.6928203230275525 0
1.35246963634509 0.7779970175271087 0
1.252881242533486 0.7744901700968698 0
1.45041160577156 0.7758909534508948 0
1.405419479971382 0.8521222829649997 0
1.550017857304355 0.7775611058226752 0
1.049999999998096 0.606217782640444 0
0.9999999999996568 0.69282032302598 0
0.900000000000003 0.6928203230275538 0
0.9500000000000037 0.7794228634059974 0
1.050000000000004 0.7794228634059964 0
0.850000000000004 0.7794228634059985 0
0.8000000000000032 0.6928203230275549 0
0.7500000000000041 0.779422863406 0
0.7000000000000033 0.6928203230275563 0
0.251794919243116 0.6051814855409285 0
0.1865054897230294 0.512646471568564 0
0.2069629195458695 0.6942610431870797 0
0.2500000000000056 0.779422863406001 0
0.1559654130073683 0.7714687986414736 0
0.95 0.08660254037844359 0
0.9999999999999997 0.1732050807568875 0
1.1 0.1732050807568872 0
1.049999999998993 0.2598076211307558 0
0.9499999999997996 0.2598076211344185 0
0.2500000000000029 0.4330127018922247 0
1.35 0.08660254037844453 0
1.3 0.1732050807568881 0
1.399999998234026 0.1732050727328218 0
1.349999997926714 0.2598076117149307 0
1.24999999964147 0.2598076195062745 0
1.649794805021274 0.9163315829571248 0
1.15 0.08660254037844359 0
1.199999999940245 0.1732050804853778 0
1.150150002215499 0.9174425714950365 0
0.2500199573437556 0.9155096426543673 0
0.45 0.9133974596215564 0
1.915457435914069 0.3509445761882278 0
1.828874261135182 0.3999505379955023 0
1.902022024034323 0.551624403104642 0
1.913776475424325 0.7496349282454007 0
0.4500000000000005 0.08660254037844552 0
0.95 0.9133974596215568 0
0.749999999999996 0.6062177826490791 0
0.102470671201596 0.3484685886901274 0
0.7499999999999999 0.08660254037844384 0
0.8000000000000005 0.1732050807568885 0
0.5999999999999995 0.3464101615137676 0
0.2476419712159326 0.0877543042762103 0
0.7500000000000002 0.9133974596215571 0
0.6500000000000004 0.9133974596215562 0
0.4000805731970739 0.1732515997139103 0
0.08526179300154524 0.5535482918783913 0
0.5500000000000003 0.08660254037844492 0
0.7999999999999281 0.3464101615134441 0
0.7499999999999877 0.2598076211352723 0
0.5500000000000032 0.6062177826491103 0
0.6499999999999977 0.2598076211353163 0
1.249999999961666 0.6062177824749213 0
0.3500000000000028 0.4330127018922243 0
0.9999999999977286 0.3464101615034497 0
0.6500000000000047 0.7794228634060028 0
1.757220789484445 0.2599303928816174 0
0.8499999999999862 0.6062177826490357 0
1.099999999997892 0.6928203230179639 0
1.20048020708044 0.6919982074375196 0
1.499999670982191 0.1732035857968101 0
1.549999618206192 0.08660080561976399 0
1.39999998722242 0.346410103456212 0
1.19999999990041 0.3464101610612643 0
0.8999999999999667 0.1732050807567361 0
1.149999999912513 0.2598076207378134 0
0.350000000000005 0.7794228634059999 0
1.15020416968002 0.7766905205093694 0
0.6000000000000035 0.6928203230275557 0
0.699999999999998 0.173205080756876 0
1.647596081594455 0.4339809454273035 0
0.8499999999999139 0.2598076211349378 0
1.844093389860911 0.9061456560230321 0
0.08324455464651692 0.1491358037414807 0
1.905875457209932 0.158186353959298 0
0.08906665831604321 0.8467382635523519 0
1.839923566828132 0.3068936492331045 0
1.741929479064763 0.432149570868004 0
1.838053117003829 0.799999999999998 0
0.1556824086824731 0.6209681894234353 0
1.836489927307141 0.6080193911158842 0
0.06955234963669724 0.7500000000000003 0
1.302089064150703 0.8509866980820955 0
1.451010391101539 0.9245015407609913 0
0.1665610976222643 0.4197398040805907 0
1.698900501582344 0.8467924427216795 0
1.100000000000001 0.846410161513777 0
1.201181417438995 0.8479596020682501 0
1.000000000000001 0.8464101615137771 0
1.599892671757638 0.8469719818051599 0
0.9000000000000008 0.8464101615137785 0
0.6000000000000034 0.8464101615137777 0
0.500000000000002 0.846410161513778 0
0.8000000000000025 0.8464101615137777 0
0.4000000000000002 0.8464101615137797 0
0.7000000000000036 0.8464101615137779 0
0.2999999999999998 0.8464101615137807 0
0.1992520062429658 0.8470669464802132 0
1.500000000000005 0.8462597977285345 0
1.351713826879648 0.9248913354200732 0
0.1667670784687645 0.2760842624511305 0
1.926794919243112 0.9267949192431132 0
0.07320508075688772 0.07320508075688774 0
1.926794919243112 0.07320508075688675 0
0.07269592645550547 0.9273040735444945 0
1.774993734842282 0.3457679989953769 0
1.775026514947237 0.8503271454732815 0
0.1308920546155752 0.7030613291670589 0
1.844848485616942 0.2291009322085361 0
2 6 0 214
408
409
410
411
412
413
414
415
416
417
418
419
420
421
422
423
424
425
426
427
428
429
430
431
432
433
434
435
436
437
438
439
440
441
442
443
444
445
446
447
448
449
450
451
452
453
454
455
456
457
458
459
460
461
462
463
464
465
466
467
468
469
470
471
472
473
474
475
476
477
478
479
480
481
482
483
484
485
486
487
488
489
490
491
492
493
494
495
496
497
498
499
500
501
502
503
504
505
506
507
508
509
510
511
512
513
514
515
516
517
518
519
520
521
522
523
524
525
526
527
528
529
530
531
532
533
534
535
536
537
538
539
540
541
542
543
544
545
546
547
548
549
550
551
552
553
554
555
556
557
558
559
560
561
562
563
564
565
566
567
568
569
570
571
572
573
574
575
576
577
578
579
580
581
582
583
584
585
586
587
588
589
590
591
592
593
594
595
596
597
598
599
600
601
602
603
604
605
606
607
608
609
610
611
612
613
614
615
616
617
618
619
620
621
1.251764026054261 0.9217374907123488 0.2
0.5517640260542617 0.9217374907123458 0.2
0.850642866637849 0.915464098194948 0.2
1.05 0.08660254037844377 0.2
1.45 0.086602540378443 0.2
0.650000000000003 0.08660254037843809 0.2
1.906393524934219 0.537145319981811 0.2
0.08993950481968974 0.4571901590780972 0.2
1.55064286663785 0.915464098194949 0.2
0.3499999999999986 0.08660254037843654 0.2
1.649999999999999 0.08660254037844374 0.2
1.05 0.9133974596215562 0.2
0.8499999999999999 0.08660254037844387 0.2
1.25 0.08660254037844389 0.2
1.911145697928189 0.3490798000983438 0.2
0.35 0.9133974596215562 0.2
0.07435624800786428 0.6514531206236659 0.2
1.913397459621556 0.7500000000000001 0.2
0.08962961249554373 0.241327434529332 0.2
1.745978803232377 0.9204077431036606 0.2
0.1504600087906184 0.9228519491132998 0.2
1.846132486540519 0.08436963044151753 0.2
0.1504237369280876 0.08467720450558197 0.2
1.74935541442342 0.08623038872228958 0.2
1.699892569070569 0.173143055480862 0.2
1.599982094845094 0.1731947432108824 0.2
1.649979110652608 0.2597955606649931 0.2
1.549993534249615 0.2598038881326065 0.2
1.599995440817034 0.3464075292682645 0.2
1.499998162511105 0.3464091006390675 0.2
1.549998933888019 0.4330120863721818 0.2
1.449999516066517 0.4330124224930921 0.2
1.499999741659083 0.5196150931174675 0.2
1.399999876287595 0.5196151708452719 0.2
1.349999898725682 0.4330126434214615 0.2
1.299999962502207 0.5196152206212989 0.2
1.249999976871312 0.4330126885388589 0.2
1.199999989895581 0.5196152364368679 0.2
1.149999994461146 0.4330126986943514 0.2
1.099999997392783 0.5196152407653768 0.2
1.049999998642318 0.4330127011083499 0.2
0.999999999339178 0.519615241889126 0.2
0.9499999996635797 0.4330127016979725 0.2
0.8999999998337875 0.5196152421746856 0.2
0.8499999999162251 0.4330127018438339 0.2
0.79999999995833 0.5196152422465872 0.2
0.7499999999790898 0.4330127018801257 0.2
0.6999999999895643 0.5196152422646172 0.2
0.649999999994773 0.4330127018891773 0.2
0.5999999999973841 0.5196152422691287 0.2
0.5499999999986902 0.4330127018914358 0.2
0.4999999999993404 0.519615242270255 0.2
0.4499999999996692 0.4330127018919977 0.2
0.3999999999998296 0.519615242270534 0.2
0.749999999991308 0.6062177826440712 0.2
0.4499999999998539 0.6062177826489954 0.2
0.9499999998621532 0.6062177825695103 0.2
1.449999936324439 0.6062177458860065 0.2
1.54999994633058 0.6062177516630572 0.2
1.149999997881386 0.6062177814259192 0.2
0.4999999999997264 0.3464101615135869 0.2
0.3999999999999725 0.3464101615137255 0.2
1.650450310284802 0.433498953860385 0.2
0.34999999999994 0.6062177826490417 0.2
1.299999979266165 0.3464101495430858 0.2
1.099999998850576 0.3464101608501462 0.2
0.8999999999299672 0.3464101614733275 0.2
0.6999999999956416 0.346410161511237 0.2
0.3999999999999561 0.692820323027498 0.2
0.4999999999999591 0.6928203230275032 0.2
0.2999999999999735 0.692820323027505 0.2
1.499999994909012 0.692820320088272 0.2
1.59999999020659 0.6928203173733297 0.2
1.3999999885389 0.692820316410483 0.2
0.2999999999999571 0.5196152422706044 0.2
1.649939634803205 0.6062526222982982 0.2
1.699989937501624 0.6928261286933806 0.2
1.449998616126786 0.2598068221557581 0.2
0.4499999999999509 0.2598076211352723 0.2
0.5499999999999474 0.2598076211352738 0.2
0.3499999999999945 0.2598076211352945 0.2
0.2999999999999929 0.3464101615137345 0.2
1.749978613287194 0.259795273510939 0.2
1.449999997241308 0.7761285941372826 0.2
0.4499999999999842 0.7794228634059615 0.2
1.649999999999986 0.7794228634059954 0.2
1.748703734773533 0.6061627287305553 0.2
0.4999999999999841 0.1732050807568604 0.2
1.352469634105995 0.7774479721408236 0.2
1.300411603774141 0.6924911733805044 0.2
0.2529006350946102 0.2614823035879931 0.2
0.2038898223669953 0.3473810991738877 0.2
0.5524696364759522 0.774727811076654 0.2
0.6004116060793102 0.6920378143059682 0.2
0.6529498435685024 0.7770840912799561 0.2
1.252949842789316 0.7743438042579729 0.2
1.74810615187483 0.7782902381459458 0.2
1.405350878176483 0.8520703821816777 0.2
1.814280661068679 0.6972413050778535 0.2
1.79922651388695 0.1727585083413049 0.2
1.848893921165758 0.2585414707035422 0.2
1.802841060249683 0.3473858918454337 0.2
1.852622888788251 0.4386443524279804 0.2
1.753069614721679 0.4357243869313459 0.2
1.804338196970455 0.5218429415829322 0.2
1.907722934675508 0.1626963843204647 0.2
0.7005602416065135 0.692300109552096 0.2
0.7505850141958248 0.775652098129748 0.2
0.7055284159126517 0.8519303193702711 0.2
0.8001908759656012 0.6921051599014183 0.2
0.8500336617625073 0.777519716421694 0.2
0.9000374229317037 0.6923839379958707 0.2
0.9500030839881773 0.7776193606745971 0.2
1.000006751130333 0.6924470083870992 0.2
1.049999999999984 0.7794228634059827 0.2
1.100001124835277 0.6927581037169366 0.2
1.150250932621127 0.7756497543073517 0.2
0.8500380497571474 0.6060258579220239 0.2
1.549999999234547 0.777571415823876 0.2
1.050001311740185 0.6061451931256612 0.2
0.9499999999999997 0.08660254037844378 0.2
0.9999999999999997 0.1732050807568853 0.2
1.1 0.1732050807568858 0.2
0.5500686010126395 0.6060873645284883 0.2
0.3499999999999844 0.7794228634059586 0.2
0.2499999999999843 0.779422863405955 0.2
0.2066637663386664 0.6944337593717457 0.2
0.1559155541394884 0.7714975846722406 0.2
0.2533869617546985 0.4315933598864986 0.2
1.35 0.08660254037844348 0.2
1.3 0.1732050807568863 0.2
1.2 0.1732050807568854 0.2
1.649794805021272 0.9163315829571248 0.2
1.15 0.08660254037844328 0.2
1.150150002215498 0.9174425714950352 0.2
0.6501734081127866 0.6059789259273949 0.2
1.913397459621557 0.6500000000000004 0.2
0.2500199573437536 0.9155096426543645 0.2
0.4501500022154969 0.9174425714950326 0.2
0.95 0.9133974596215568 0.2
0.102470671201594 0.3484685886901052 0.2
0.7500000000000002 0.08660254037844069 0.2
0.7999999999999983 0.1732050807568805 0.2
0.2500706228213484 0.08628165106629272 0.2
0.2529055469661993 0.605450391598253 0.2
0.187148002505559 0.5124821235759162 0.2
0.08536887846529662 0.5535209005462798 0.2
0.9 0.1732050807568831 0.2
0.3505644936256866 0.4327761448911824 0.2
0.7999999999847707 0.3464101615049641 0.2
1.917050259585118 0.8494067683006774 0.2
1.199999996929614 0.3464101597410796 0.2
1.600002248235351 0.51967726357113 0.2
0.5999999999990449 0.3464101615131973 0.2
1.250068592342216 0.6061629195902049 0.2
0.9999999998230331 0.3464101614115909 0.2
0.6499999999991046 0.2598076211347952 0.2
1.7010523583355 0.3471012660135602 0.2
1.549997015807515 0.08660081745410927 0.2
1.350079993294916 0.6061537577889615 0.2
1.399999362116042 0.3464097932312993 0.2
1.199999999999988 0.6928203230275392 0.2
1.499995210171502 0.1732023153481142 0.2
1.399998971049715 0.1732044866921626 0.2
1.24999999603263 0.2598076188447656 0.2
1.349999487431889 0.259807325203993 0.2
1.149999999502723 0.2598076208482226 0.2
1.049999999696055 0.2598076209598423 0.2
0.9499999999344119 0.2598076210974556 0.2
0.8499999999934551 0.2598076211315427 0.2
0.7499999999954949 0.2598076211327156 0.2
0.6999999999991009 0.1732050807563575 0.2
0.4499999999999995 0.08660254037843353 0.2
0.6000000000000043 0.173205080756875 0.2
0.5499999999999985 0.08660254037843448 0.2
0.3999999999999886 0.1732050807568612 0.2
0.1848856774192019 0.1816761715521705 0.2
0.2979761558891904 0.1748425614128414 0.2
1.69963787228209 0.519824316806077 0.2
1.844093389860907 0.9061456560230323 0.2
0.08323753396010403 0.1491255996079012 0.2
0.08906157067645848 0.8467412009024267 0.2
1.838053117003819 0.8000000000000018 0.2
0.1559425874761642 0.6210098365763091 0.2
1.837860618303149 0.602934743597305 0.2
0.06955234963667556 0.7500000000000002 0.2
0.7510285470917469 0.92446954682853 0.2
1.450998957469052 0.9244928906304346 0.2
0.6021186536685612 0.850842156605073 0.2
1.302089063521007 0.8508621460806737 0.2
0.1673669925297074 0.419423066080901 0.2
0.1992428484917142 0.8470722337103394 0.2
0.2999373134213703 0.8466460675706737 0.2
0.3999999999999827 0.8464101615137514 0.2
0.5010837197357063 0.848430509134803 0.2
0.9001132687314191 0.8461117656925146 0.2
1.933398279650555 0.2529025221603364 0.2
0.9999999999999992 0.8464101615137753 0.2
1.201200644533535 0.8477409880611934 0.2
1.100266929895024 0.8466772997341492 0.2
1.60007294514894 0.8469099866040426 0.2
1.698465095677804 0.8469757352897698 0.2
0.6517399404545368 0.9248299189193699 0.2
1.3517004875368 0.9248604849341892 0.2
0.7999999999999809 0.846259797728517 0.2
1.499999999999982 0.8462597977285266 0.2
0.166755283715589 0.2760671195066977 0.2
1.934743736468402 0.45 0.2
1.926794919243112 0.9267949192431126 0.2
0.07320508075688772 0.07320508075688774 0.2
1.926794919243112 0.0732050807568865 0.2
0.07269592645550547 0.9273040735444945 0.2
1.774939311529947 0.8503638745124822 0.2
0.1308829899950182 0.7030861403270958 0.2
3 1 0 116
622
623
624
625
626
627
628
629
630
631
632
633
634
635
636
637
638
639
640
641
642
643
644
645
646
647
648
649
650
651
652
653
654
655
656
657
658
659
660
661
662
663
664
665
666
667
668
669
670
671
672
673
674
675
676
677
678
679
680
681
682
683
684
685
686
687
688
689
690
691
692
693
694
695
696
697
698
699
700
701
702
703
704
705
706
707
708
709
710
711
712
713
714
715
716
717
718
719
720
721
722
723
724
725
726
727
728
729
730
731
732
733
734
735
736
737
0.116100679519085 0.7472807433887804 0.09999384567857371
1.735731190431478 0.8750999165465426 0.09997833955034018
1.199999999938999 0.5773502689554701 0.1000000016021544
0.4499999999995045 0.4907477288108034 0.09999999999977495
0.4999999999999487 0.2886751345946686 0.09999999999994461
0.2999999999999854 0.7505553499464702 0.09999999999998889
0.9 0.115470053837824 0.1000000000000425
1.1 0.1154700538379238 0.09999999999999962
1.3 0.1154700538379242 0.1000000000000001
0.4999999999999987 0.1154700538379267 0.1000000000000011
0.7000000000000003 0.1154700538379176 0.1000000000000003
0.5999999999997148 0.2309401076753108 0.09999999999970152
0.5999999999991502 0.4618802153521908 0.09999999999955733
0.6999999999999447 0.2886751345948176 0.09999999999927622
0.7999999999972999 0.2309401076742792 0.09999999999917249
0.6999999999904973 0.4041451884279089 0.09999999999778099
0.8000000000000891 0.4618802153514443 0.09999999999310406
0.9000000000000067 0.2886751345930935 0.09999999998898822
0.9999999998384936 0.2309401075351156 0.1000000000000006
0.8999999998649171 0.4041451883534647 0.09999999995569293
1.099999999783774 0.2886751342189557 0.1000000000243219
0.9999999997636377 0.4618802154834468 0.09999999989099123
1.19999999793156 0.2309401058159789 0.09999999992162249
1.099999997358268 0.404145186837341 0.09999999949704888
1.199999995438453 0.4618802177311247 0.09999999839784614
1.30000000103326 0.288675133012283 0.09999999664653497
1.299999953129113 0.4041451637435498 0.09999998972766312
1.549999998728469 0.6639527944398754 0.09999999774889996
1.399999770768644 0.4618803407392232 0.09999998208362205
1.399999092998614 0.2309391699847539 0.1000001691714892
0.8999999999997071 0.577350269188961 0.09999999995420279
1.499999005276989 0.11546878461674 0.1000000000000001
1.499997402398655 0.2886754161219606 0.1000002116382958
1.499999865627488 0.404144918275622 0.09999935220149725
1.400021449797916 0.6350976746146497 0.09999998802712089
0.5000000000000037 0.6350852961085927 0.1000000000000542
1.549989907789552 0.5484885430871103 0.09999665290973991
0.3499999999999801 0.3175426480542484 0.09999999999998462
1.100000000004987 0.6350604109800697 0.0999928163454907
1.649929951828186 0.1442952809250928 0.1000000000000002
0.6000431414871036 0.5773253614404358 0.09998561950373404
0.8000000000000035 0.6347997138095164 0.09991755949141351
0.9000453252786652 0.7505291813846801 0.09974835270493487
0.6500000000000032 0.7201552238078788 0.1000060018201547
1.40086798831346 0.7496718649849026 0.09992975546976594
0.5000000000000051 0.7505553499465175 0.09999999999999992
1.099345460522722 0.7503087429109871 0.1000000000000029
1.250025273680427 0.7184151255019011 0.1000126368402176
0.2128263728016364 0.3977993310848859 0.09978070281796866
1.649575437379451 0.4911253197887064 0.09969208835195127
1.550063713385505 0.830152235029644 0.09999729408449608
0.7999999999999999 0.898564064605512 0.1000392668145948
0.9500000000000013 0.8612435565298223 0.1
0.3874999999999852 0.6423021744734745 0.1000000000000247
0.4 0.8985640646055135 0.1
1.798231600886409 0.1106624539391668 0.1001456976252173
1.647074991287189 0.3765811738587728 0.1000011190208295
1.73814283825319 0.3105246347084008 0.1002836758811841
1.353541730689508 0.8700508587352096 0.09999166546264524
0.5500000000000027 0.8612435565298214 0.09959236762685035
1.150554802311514 0.8641930767293193 0.10002273174271
0.7884894023804104 0.7458576702220682 0.09929098572229547
1.890981146306303 0.2162186459900176 0.1021268607288193
1.311120248163418 0.5677435771883902 0.1000000068343597
1.751499696285701 0.5461623497184451 0.09982861142546584
0.3875041993930304 0.1227233000131999 0.09998320242789027
0.711080564612817 0.5675876651567927 0.1000000000020294
1.649995965779456 0.7216901633049896 0.09999866256347362
0.9889202252355453 0.6446033455148972 0.09991072201079251
0.2129313405765534 0.2871048614078632 0.100003668190455
1.860500141080061 0.851967331031681 0.09999999999999996
0.6572671727043378 0.831294700229625 0.1017510116870397
0.3053560293075335 0.4645930960362786 0.1001642955317282
0.509999999999692 0.3983716857406561 0.09666666666672287
0.1440973558107655 0.8651642999175715 0.09999999999999851
0.2554069441782713 0.8668908618043963 0.09999999999999941
1.599984879014443 0.2424687837087466 0.1033354672479994
1.804970300619101 0.6448121974490026 0.1012207416850973
1.797350654084791 0.7578713273364671 0.1000001864868839
0.2403034810987477 0.6552193826748652 0.1000838836216305
1.253195176147162 0.8274031982194808 0.1046351409352949
0.1413928541688241 0.1425070390933761 0.1000000000000004
1.741076755827722 0.2024399157959526 0.1043295240978727
0.4105808793224723 0.2281849424830741 0.1044950919784731
0.399999999999986 0.7907779126599239 0.09494458703840294
0.1157791340999494 0.6382376264635921 0.1000000000000015
1.880510498951564 0.3240836792070213 0.09905131321563677
1.45929937300521 0.8870265482870693 0.09999885356185816
0.1254234160755619 0.5072053341680004 0.09997217993706624
0.2294104491981328 0.5450876858280054 0.09677464504770041
1.633175089035531 0.8927866971050312 0.09999999999999989
1.902869131674039 0.09713086832596105 0.1000638366848498
1.795639921891089 0.4436951450569582 0.09714413021410569
0.2476659382764722 0.1799248195255818 0.0993144432276977
1.677788739920073 0.6206494484883879 0.1000058844877393
1.075012572129744 0.5340272229141487 0.09999999978273236
0.101140218555633 0.3981900903779989 0.1000000000000055
1.86063305764344 0.532391486671735 0.1000841692109741
1.895286203017505 0.7076792532815727 0.1000422359580857
1.049913133290844 0.8874870664807328 0.1
0.102958470951376 0.2882265785493337 0.1014095410103844
0.9997327326322478 0.77220079758475 0.08938227342912029
0.4098543689319509 0.3984557658768537 0.1133818770227556
1.191666665962136 0.3608439199716221 0.09999999997149302
0.9916666666342 0.3608439183411719 0.09999999999935036
0.7916666666599323 0.360843918243279 0.09999999999998042
0.6083333333329973 0.33197640478354 0.09999999999999862
0.8000000000000037 0.1154700538379278 0.08333333333333784
1.2 0.1154700538379237 0.1166666666666661
0.5999999999999994 0.1154700538379283 0.08333333333333404
1.000000000000004 0.1154700538379257 0.1166666666666684
1.408332991345307 0.3608439943751518 0.1000000484350504
1.399999594238227 0.1299033536984324 0.09166600060588474
1.449993640278662 0.5484827514749447 0.1166667425918314
0.327551334597553 0.5621843205453327 0.1121508768080194
1.898373062939106 0.4267827799773475 0.1049271998100501
$EndNodes
$Elements
8 3071 1 3071
0 2 15 1
1 2 
0 4 15 1
2 4 
0 6 15 1
3 6 
2 1 2 46
4 9 1 136 
5 1 10 136 
6 2 9 134 
7 20 2 134 
8 18 3 133 
9 3 19 133 
10 19 4 135 
11 4 28 135 
12 134 9 136 
13 10 11 129 
14 10 129 136 
15 11 12 127 
16 11 127 129 
17 12 13 128 
18 127 12 128 
19 13 14 132 
20 128 13 132 
21 14 15 125 
22 14 125 132 
23 15 16 130 
24 125 15 130 
25 16 17 131 
26 130 16 131 
27 17 18 126 
28 17 126 131 
29 126 18 133 
30 133 19 135 
31 21 20 129 
32 129 20 134 
33 22 21 127 
34 127 21 129 
35 23 22 128 
36 22 127 128 
37 24 23 132 
38 23 128 132 
39 25 24 125 
40 125 24 132 
41 26 25 130 
42 25 125 130 
43 27 26 131 
44 26 130 131 
45 28 27 126 
46 126 27 131 
47 28 126 135 
48 126 133 135 
49 129 134 136 
2 2 2 46
50 29 148 5 
51 5 148 30 
52 6 146 29 
53 40 146 6 
54 38 145 7 
55 7 145 39 
56 39 147 8 
57 8 147 48 
58 146 148 29 
59 30 141 31 
60 30 148 141 
61 31 139 32 
62 31 141 139 
63 32 140 33 
64 139 140 32 
65 33 144 34 
66 140 144 33 
67 34 137 35 
68 34 144 137 
69 35 142 36 
70 137 142 35 
71 36 143 37 
72 142 143 36 
73 37 138 38 
74 37 143 138 
75 138 145 38 
76 145 147 39 
77 41 141 40 
78 141 146 40 
79 42 139 41 
80 139 141 41 
81 43 140 42 
82 42 140 139 
83 44 144 43 
84 43 144 140 
85 45 137 44 
86 137 144 44 
87 46 142 45 
88 45 142 137 
89 47 143 46 
90 46 143 142 
91 48 138 47 
92 138 143 47 
93 48 147 138 
94 138 147 145 
95 141 148 146 
2 3 2 86
96 1 9 167 
97 68 1 167 
98 9 2 170 
99 2 49 170 
100 29 5 169 
101 5 86 169 
102 6 29 168 
103 67 6 168 
104 167 9 170 
105 168 29 169 
106 49 50 158 
107 49 158 170 
108 50 51 155 
109 50 155 158 
110 51 52 157 
111 155 51 157 
112 52 53 161 
113 157 52 161 
114 53 54 153 
115 53 153 161 
116 54 55 159 
117 153 54 159 
118 55 56 165 
119 159 55 165 
120 56 57 154 
121 56 154 165 
122 57 58 164 
123 154 57 164 
124 58 59 151 
125 58 151 164 
126 59 60 163 
127 151 59 163 
128 60 61 149 
129 60 149 163 
130 61 62 166 
131 149 61 166 
132 62 63 152 
133 62 152 166 
134 63 64 162 
135 152 63 162 
136 64 65 156 
137 64 156 162 
138 65 66 150 
139 65 150 156 
140 66 67 160 
141 150 66 160 
142 160 67 168 
143 69 68 158 
144 158 68 167 
145 70 69 155 
146 155 69 158 
147 71 70 157 
148 70 155 157 
149 72 71 161 
150 71 157 161 
151 73 72 153 
152 153 72 161 
153 74 73 159 
154 73 153 159 
155 75 74 165 
156 74 159 165 
157 76 75 154 
158 154 75 165 
159 77 76 164 
160 76 154 164 
161 78 77 151 
162 151 77 164 
163 79 78 163 
164 78 151 163 
165 80 79 149 
166 149 79 163 
167 81 80 166 
168 80 149 166 
169 82 81 152 
170 152 81 166 
171 83 82 162 
172 82 152 162 
173 84 83 156 
174 156 83 162 
175 85 84 150 
176 150 84 156 
177 86 85 160 
178 85 150 160 
179 86 160 169 
180 158 167 170 
181 160 168 169 
2 5 2 488
182 2 20 401 
183 49 2 401 
184 28 4 403 
185 4 87 403 
186 40 6 402 
187 6 67 402 
188 8 48 400 
189 105 8 400 
190 20 21 372 
191 20 372 401 
192 21 22 212 
193 21 212 372 
194 22 23 337 
195 212 22 337 
196 23 24 200 
197 23 200 337 
198 24 25 345 
199 200 24 345 
200 25 26 208 
201 25 208 345 
202 26 27 380 
203 208 26 380 
204 27 28 374 
205 27 374 380 
206 374 28 403 
207 41 40 373 
208 373 40 402 
209 42 41 210 
210 210 41 373 
211 43 42 330 
212 42 210 330 
213 44 43 201 
214 201 43 330 
215 45 44 332 
216 44 201 332 
217 46 45 209 
218 209 45 332 
219 47 46 333 
220 46 209 333 
221 48 47 216 
222 216 47 333 
223 48 216 400 
224 50 49 215 
225 215 49 401 
226 51 50 341 
227 50 215 341 
228 52 51 202 
229 202 51 341 
230 53 52 334 
231 52 202 334 
232 54 53 346 
233 53 334 346 
234 55 54 198 
235 198 54 346 
236 56 55 338 
237 55 198 338 
238 57 56 205 
239 205 56 338 
240 58 57 313 
241 57 205 313 
242 59 58 196 
243 196 58 313 
244 60 59 325 
245 59 196 325 
246 61 60 206 
247 206 60 325 
248 62 61 319 
249 61 206 319 
250 63 62 197 
251 197 62 319 
252 64 63 360 
253 63 197 360 
254 65 64 203 
255 203 64 360 
256 66 65 217 
257 65 203 217 
258 67 66 214 
259 214 66 217 
260 67 214 402 
261 87 88 213 
262 87 213 403 
263 88 89 328 
264 213 88 328 
265 89 90 207 
266 89 207 328 
267 90 91 329 
268 207 90 329 
269 91 92 194 
270 91 194 329 
271 92 93 343 
272 194 92 343 
273 93 94 342 
274 93 342 343 
275 94 95 195 
276 94 195 342 
277 95 96 335 
278 195 95 335 
279 96 97 204 
280 96 204 335 
281 97 98 327 
282 204 97 327 
283 98 99 193 
284 98 193 327 
285 99 100 398 
286 193 99 398 
287 100 101 382 
288 100 382 398 
289 101 102 199 
290 101 199 382 
291 102 103 324 
292 199 102 324 
293 103 104 211 
294 103 211 324 
295 104 105 371 
296 211 104 371 
297 371 105 400 
298 327 193 386 
299 193 381 386 
300 381 193 398 
301 329 194 391 
302 194 343 390 
303 194 390 391 
304 195 335 389 
305 342 195 392 
306 195 389 392 
307 196 313 314 
308 196 314 315 
309 196 315 325 
310 197 319 321 
311 197 321 359 
312 197 359 360 
313 288 198 346 
314 198 288 368 
315 338 198 368 
316 199 324 388 
317 382 199 397 
318 199 388 397 
319 309 200 345 
320 200 309 383 
321 337 200 383 
322 290 201 331 
323 201 290 332 
324 201 330 331 
325 286 202 341 
326 202 286 344 
327 334 202 344 
328 217 203 218 
329 218 203 219 
330 219 203 360 
331 204 327 385 
332 335 204 387 
333 204 385 387 
334 313 205 363 
335 205 338 339 
336 205 339 363 
337 319 206 320 
338 320 206 326 
339 206 325 326 
340 328 207 395 
341 207 329 393 
342 207 393 395 
343 345 208 378 
344 378 208 406 
345 208 380 406 
346 209 284 333 
347 284 209 379 
348 209 332 379 
349 330 210 375 
350 210 373 407 
351 375 210 407 
352 324 211 384 
353 211 371 405 
354 384 211 405 
355 212 287 372 
356 287 212 399 
357 212 337 399 
358 213 328 396 
359 374 213 396 
360 213 374 403 
361 214 217 285 
362 214 285 373 
363 214 373 402 
364 215 287 341 
365 287 215 372 
366 372 215 401 
367 216 333 377 
368 371 216 377 
369 216 371 400 
370 217 218 285 
371 218 219 220 
372 218 220 355 
373 285 218 355 
374 220 219 221 
375 221 219 359 
376 359 219 360 
377 220 221 222 
378 220 222 263 
379 220 263 355 
380 222 221 223 
381 223 221 275 
382 275 221 359 
383 222 223 224 
384 222 224 369 
385 263 222 369 
386 224 223 225 
387 225 223 361 
388 223 275 361 
389 224 225 226 
390 224 226 248 
391 224 248 369 
392 226 225 227 
393 227 225 228 
394 228 225 361 
395 226 227 291 
396 248 226 256 
397 256 226 291 
398 227 228 229 
399 227 229 249 
400 227 249 291 
401 229 228 230 
402 230 228 262 
403 262 228 361 
404 229 230 231 
405 229 231 351 
406 249 229 351 
407 231 230 232 
408 232 230 362 
409 230 262 362 
410 231 232 233 
411 231 233 251 
412 231 251 351 
413 233 232 234 
414 234 232 261 
415 261 232 362 
416 233 234 235 
417 233 235 299 
418 251 233 299 
419 235 234 236 
420 236 234 353 
421 234 261 353 
422 235 236 237 
423 235 237 252 
424 235 252 299 
425 237 236 238 
426 238 236 260 
427 260 236 353 
428 237 238 239 
429 237 239 356 
430 252 237 356 
431 239 238 240 
432 240 238 347 
433 238 260 347 
434 239 240 241 
435 239 241 336 
436 239 336 356 
437 241 240 242 
438 242 240 259 
439 259 240 347 
440 241 242 243 
441 241 243 250 
442 241 250 336 
443 243 242 244 
444 244 242 340 
445 242 259 340 
446 243 244 245 
447 243 245 349 
448 250 243 349 
449 245 244 246 
450 246 244 254 
451 254 244 340 
452 245 246 247 
453 245 247 253 
454 245 253 349 
455 247 246 352 
456 246 254 255 
457 246 255 352 
458 253 247 257 
459 257 247 268 
460 268 247 352 
461 248 256 258 
462 248 258 276 
463 248 276 369 
464 291 249 292 
465 292 249 293 
466 293 249 351 
467 250 307 336 
468 307 250 367 
469 250 349 367 
470 251 299 357 
471 351 251 358 
472 251 357 358 
473 299 252 300 
474 300 252 301 
475 301 252 356 
476 253 257 266 
477 253 266 274 
478 253 274 349 
479 255 254 269 
480 269 254 273 
481 273 254 340 
482 255 269 270 
483 255 270 272 
484 255 272 352 
485 258 256 264 
486 264 256 271 
487 271 256 291 
488 266 257 267 
489 267 257 308 
490 257 268 308 
491 258 264 265 
492 258 265 289 
493 276 258 289 
494 340 259 350 
495 259 347 348 
496 259 348 350 
497 317 260 353 
498 260 317 370 
499 347 260 370 
500 261 316 353 
501 316 261 364 
502 261 362 364 
503 262 322 323 
504 322 262 361 
505 262 323 362 
506 355 263 404 
507 263 369 376 
508 263 376 404 
509 265 264 277 
510 264 271 298 
511 277 264 298 
512 265 277 282 
513 265 282 284 
514 265 284 289 
515 266 267 365 
516 274 266 278 
517 278 266 365 
518 267 308 310 
519 267 310 311 
520 267 311 365 
521 308 268 309 
522 309 268 318 
523 318 268 352 
524 270 269 344 
525 269 273 279 
526 269 279 344 
527 272 270 280 
528 280 270 286 
529 286 270 344 
530 271 291 292 
531 271 292 296 
532 271 296 298 
533 272 280 281 
534 272 281 318 
535 272 318 352 
536 279 273 288 
537 288 273 350 
538 273 340 350 
539 274 278 283 
540 274 283 367 
541 349 274 367 
542 275 321 322 
543 321 275 359 
544 275 322 361 
545 276 289 290 
546 276 290 376 
547 369 276 376 
548 282 277 384 
549 277 298 388 
550 384 277 388 
551 283 278 391 
552 278 365 393 
553 391 278 393 
554 279 288 346 
555 279 334 344 
556 334 279 346 
557 281 280 399 
558 280 286 287 
559 280 287 399 
560 318 281 383 
561 281 337 383 
562 337 281 399 
563 284 282 377 
564 377 282 405 
565 282 384 405 
566 283 354 367 
567 354 283 390 
568 390 283 391 
569 289 284 379 
570 333 284 377 
571 285 355 407 
572 373 285 407 
573 287 286 341 
574 288 350 368 
575 290 289 379 
576 290 331 376 
577 332 290 379 
578 292 293 294 
579 292 294 296 
580 294 293 295 
581 295 293 358 
582 293 351 358 
583 294 295 381 
584 296 294 297 
585 297 294 381 
586 295 358 366 
587 295 366 386 
588 381 295 386 
589 296 297 397 
590 298 296 397 
591 297 381 398 
592 297 382 397 
593 382 297 398 
594 388 298 397 
595 299 300 357 
596 300 301 302 
597 300 302 303 
598 300 303 357 
599 302 301 304 
600 304 301 305 
601 305 301 356 
602 303 302 387 
603 302 304 389 
604 387 302 389 
605 357 303 366 
606 366 303 385 
607 385 303 387 
608 304 305 306 
609 304 306 392 
610 389 304 392 
611 306 305 307 
612 307 305 336 
613 336 305 356 
614 306 307 354 
615 306 354 394 
616 392 306 394 
617 354 307 367 
618 308 309 378 
619 310 308 378 
620 309 318 383 
621 309 345 378 
622 311 310 312 
623 312 310 406 
624 310 378 406 
625 311 312 396 
626 365 311 395 
627 395 311 396 
628 374 312 380 
629 312 374 396 
630 380 312 406 
631 314 313 363 
632 315 314 316 
633 316 314 317 
634 317 314 363 
635 315 316 364 
636 325 315 326 
637 326 315 364 
638 316 317 353 
639 317 363 370 
640 319 320 321 
641 321 320 322 
642 322 320 323 
643 323 320 326 
644 323 326 364 
645 362 323 364 
646 324 384 388 
647 385 327 386 
648 328 395 396 
649 329 391 393 
650 331 330 375 
651 331 375 404 
652 376 331 404 
653 335 387 389 
654 339 338 368 
655 348 339 368 
656 339 348 370 
657 363 339 370 
658 343 342 394 
659 342 392 394 
660 390 343 394 
661 348 347 370 
662 350 348 368 
663 354 390 394 
664 375 355 404 
665 355 375 407 
666 358 357 366 
667 393 365 395 
668 366 385 386 
669 371 377 405 
3 1 4 2402
670 649 666 479 672 
671 271 666 649 672 
672 271 296 666 672 
673 491 479 666 672 
674 533 627 622 697 
675 622 627 311 697 
676 298 296 271 672 
677 479 491 526 672 
678 535 533 622 697 
679 312 622 311 697 
680 479 526 649 672 
681 298 271 649 672 
682 535 622 696 697 
683 312 696 622 697 
684 311 622 310 627 
685 534 622 533 627 
686 594 610 183 693 
687 183 342 673 693 
688 594 183 673 693 
689 310 627 622 701 
690 622 627 534 701 
691 181 343 342 693 
692 341 155 687 715 
693 407 684 679 704 
694 679 684 407 708 
695 375 679 407 708 
696 310 311 312 622 
697 533 534 535 622 
698 551 687 155 715 
699 623 277 689 712 
700 493 623 689 712 
701 306 683 673 693 
702 603 664 673 674 
703 389 673 664 674 
704 603 664 518 673 
705 389 304 664 673 
706 518 673 664 683 
707 270 705 659 715 
708 673 683 516 693 
709 394 306 673 693 
710 515 516 673 683 
711 664 673 304 683 
712 449 652 690 717 
713 235 690 652 717 
714 488 659 705 715 
715 515 516 683 693 
716 449 643 652 717 
717 235 652 643 717 
718 277 282 384 623 
719 202 341 157 687 
720 183 181 342 693 
721 504 493 609 623 
722 493 609 623 712 
723 181 183 610 693 
724 384 277 623 712 
725 623 689 282 700 
726 663 665 307 688 
727 142 209 719 720 
728 514 665 663 688 
729 504 689 623 700 
730 359 654 653 698 
731 277 282 623 689 
732 293 656 669 685 
733 497 669 656 685 
734 570 653 654 698 
735 544 142 719 720 
736 504 493 623 689 
737 283 667 665 681 
738 145 191 190 692 
739 535 696 599 697 
740 535 599 533 697 
741 396 696 312 697 
742 396 312 311 697 
743 283 681 665 693 
744 417 155 551 687 
745 341 687 202 715 
746 515 673 612 683 
747 652 663 519 664 
748 190 147 145 692 
749 459 625 657 662 
750 625 245 657 662 
751 459 634 625 662 
752 301 663 652 664 
753 625 634 245 662 
754 570 653 651 654 
755 651 653 359 654 
756 638 641 237 652 
757 451 641 638 652 
758 628 636 555 639 
759 368 633 632 635 
760 495 631 626 633 
761 279 626 631 633 
762 632 633 579 635 
763 368 635 632 636 
764 632 635 579 636 
765 363 636 628 639 
766 451 643 641 652 
767 538 630 644 647 
768 641 643 237 652 
769 628 639 555 640 
770 363 639 628 640 
771 315 640 629 642 
772 530 629 640 642 
773 320 644 630 647 
774 530 629 642 644 
775 315 642 629 644 
776 320 647 630 651 
777 630 647 538 651 
778 453 652 638 663 
779 638 652 239 663 
780 224 658 655 671 
781 657 665 367 667 
782 438 655 658 671 
783 699 719 209 720 
784 518 612 673 683 
785 501 665 657 667 
786 665 667 500 681 
787 157 155 417 687 
788 367 657 662 665 
789 656 666 293 669 
790 358 668 660 669 
791 649 656 479 666 
792 271 656 649 666 
793 660 668 569 669 
794 665 681 500 693 
795 497 666 656 669 
796 501 662 657 665 
797 515 516 612 673 
798 407 679 355 704 
799 224 671 655 678 
800 603 518 612 673 
801 655 671 438 678 
802 133 135 192 696 
803 355 407 375 679 
804 594 516 610 693 
805 544 719 699 720 
806 222 655 654 678 
807 624 660 569 669 
808 358 660 624 669 
809 304 673 392 683 
810 366 668 669 702 
811 145 616 191 692 
812 341 703 155 715 
813 436 654 655 678 
814 341 155 157 687 
815 170 134 167 703 
816 594 673 516 693 
817 136 167 134 703 
818 192 189 133 696 
819 488 498 659 715 
820 203 360 162 661 
821 679 684 508 704 
822 279 631 626 705 
823 360 653 162 661 
824 280 270 659 715 
825 162 653 566 661 
826 190 400 147 692 
827 626 631 495 705 
828 389 392 304 673 
829 394 306 392 673 
830 417 687 551 715 
831 519 652 664 690 
832 301 664 652 690 
833 524 669 668 702 
834 294 669 666 702 
835 508 684 679 708 
836 307 665 663 683 
837 453 663 638 688 
838 239 638 663 688 
839 672 689 277 712 
840 493 689 672 712 
841 663 665 514 683 
842 155 703 551 715 
843 306 392 673 683 
844 610 681 181 693 
845 222 678 654 698 
846 366 682 668 702 
847 646 648 229 685 
848 443 648 646 685 
849 666 672 296 709 
850 676 681 602 706 
851 634 637 241 688 
852 455 637 634 688 
853 666 669 496 702 
854 491 672 666 709 
855 150 661 431 677 
856 511 678 671 714 
857 498 691 659 715 
858 192 135 403 696 
859 679 708 404 714 
860 436 654 678 698 
861 280 659 691 715 
862 156 566 418 661 
863 298 672 649 689 
864 526 649 672 689 
865 181 681 343 693 
866 418 431 156 661 
867 511 679 678 714 
868 408 682 171 702 
869 217 203 150 661 
870 170 401 134 703 
871 136 617 167 703 
872 171 682 193 702 
873 250 307 665 688 
874 391 681 676 706 
875 253 625 657 675 
876 217 661 150 677 
877 463 657 625 675 
878 543 665 514 688 
879 188 329 194 681 
880 176 547 410 674 
881 524 668 682 702 
882 253 247 625 675 
883 463 625 461 675 
884 171 680 408 702 
885 250 665 662 688 
886 543 662 665 688 
887 193 680 171 702 
888 176 673 195 674 
889 293 669 351 685 
890 219 653 661 698 
891 188 676 329 681 
892 600 697 676 706 
893 359 653 219 698 
894 176 410 673 674 
895 625 675 247 736 
896 562 669 497 685 
897 270 286 705 715 
898 272 670 659 694 
899 659 670 489 694 
900 186 195 335 674 
901 689 699 265 700 
902 461 675 625 736 
903 488 705 585 715 
904 443 650 648 685 
905 229 648 650 685 
906 455 638 637 688 
907 637 638 241 688 
908 379 209 699 719 
909 484 699 689 700 
910 653 433 661 698 
911 343 394 342 693 
912 546 676 188 681 
913 624 351 669 685 
914 562 624 669 685 
915 194 343 181 681 
916 294 666 680 702 
917 667 602 681 706 
918 671 678 376 714 
919 209 137 142 719 
920 592 699 544 719 
921 394 673 342 693 
922 676 697 395 706 
923 433 653 570 698 
924 610 409 175 681 
925 336 663 307 688 
926 376 678 679 714 
927 185 408 542 682 
928 293 249 656 685 
929 449 652 464 690 
930 565 678 511 679 
931 235 252 652 690 
932 417 585 687 715 
933 209 332 137 719 
934 265 699 689 716 
935 462 514 663 688 
936 399 287 691 722 
937 426 703 127 722 
938 585 705 687 715 
939 567 497 656 685 
940 286 687 705 715 
941 655 658 226 735 
942 649 656 291 735 
943 156 203 162 661 
944 666 496 680 702 
945 689 699 484 716 
946 544 142 137 719 
947 156 162 566 661 
948 614 691 584 722 
949 600 627 697 706 
950 202 687 286 715 
951 667 675 476 706 
952 287 703 691 722 
953 650 655 226 735 
954 649 291 658 735 
955 391 667 681 706 
956 551 155 430 703 
957 177 545 428 697 
958 409 546 175 681 
959 221 654 359 698 
960 150 156 431 661 
961 691 703 584 722 
962 127 703 212 722 
963 179 328 207 697 
964 665 683 306 693 
965 515 683 665 693 
966 266 675 667 706 
967 408 187 611 680 
968 327 193 171 682 
969 283 665 354 693 
970 193 398 187 680 
971 186 176 195 674 
972 143 692 333 720 
973 150 203 156 661 
974 176 186 547 674 
975 199 672 184 709 
976 184 672 416 709 
977 627 395 697 706 
978 489 670 659 691 
979 657 667 266 675 
980 476 667 657 675 
981 659 670 272 691 
982 310 622 406 707 
983 182 623 371 692 
984 570 654 435 698 
985 372 212 127 703 
986 143 425 558 692 
987 189 619 133 696 
988 179 676 423 697 
989 470 671 511 678 
990 294 293 666 669 
991 621 622 534 707 
992 188 194 175 681 
993 497 496 666 669 
994 258 649 658 716 
995 184 672 199 712 
996 483 658 649 716 
997 272 659 352 694 
998 545 177 423 697 
999 678 679 434 698 
1000 182 190 191 692 
1001 179 207 676 697 
1002 509 708 679 714 
1003 137 414 544 719 
1004 255 659 626 724 
1005 416 672 184 712 
1006 371 172 211 623 
1007 440 658 655 735 
1008 465 656 649 735 
1009 449 690 527 717 
1010 624 646 229 685 
1011 443 646 624 685 
1012 299 690 235 717 
1013 634 662 455 688 
1014 241 662 634 688 
1015 277 388 672 712 
1016 483 671 658 716 
1017 493 672 608 712 
1018 519 663 517 664 
1019 281 670 718 722 
1020 658 671 258 716 
1021 283 367 665 667 
1022 143 425 692 720 
1023 305 663 301 664 
1024 358 357 660 668 
1025 660 668 300 690 
1026 293 656 292 666 
1027 356 652 301 663 
1028 367 657 349 662 
1029 349 657 245 662 
1030 459 457 634 662 
1031 245 634 243 662 
1032 258 649 256 658 
1033 229 646 230 648 
1034 538 644 572 647 
1035 454 637 455 638 
1036 555 636 577 639 
1037 237 638 238 641 
1038 241 637 240 638 
1039 241 634 242 637 
1040 253 625 245 657 
1041 550 555 628 636 
1042 266 657 274 667 
1043 274 657 367 667 
1044 579 633 564 635 
1045 269 626 255 659 
1046 458 625 459 634 
1047 368 350 633 635 
1048 495 626 487 633 
1049 578 579 635 636 
1050 495 581 631 633 
1051 279 273 626 633 
1052 314 629 315 640 
1053 245 625 244 634 
1054 579 632 581 633 
1055 579 550 632 636 
1056 348 635 368 636 
1057 363 370 636 639 
1058 456 634 455 637 
1059 239 638 237 652 
1060 451 638 453 652 
1061 450 641 451 643 
1062 326 630 320 644 
1063 452 638 451 641 
1064 576 555 639 640 
1065 363 317 639 640 
1066 237 641 236 643 
1067 363 628 314 640 
1068 316 640 315 642 
1069 530 640 575 642 
1070 235 237 643 652 
1071 231 229 624 646 
1072 449 643 451 652 
1073 323 644 320 647 
1074 530 642 574 644 
1075 364 642 315 644 
1076 315 629 326 644 
1077 443 444 646 648 
1078 570 651 485 654 
1079 445 624 443 646 
1080 226 655 224 658 
1081 442 648 443 650 
1082 226 650 225 655 
1083 229 648 228 650 
1084 275 651 359 654 
1085 573 538 647 651 
1086 320 322 647 651 
1087 223 654 222 655 
1088 256 649 291 658 
1089 231 646 624 717 
1090 624 646 445 717 
1091 291 649 271 656 
1092 465 479 649 656 
1093 233 646 231 717 
1094 447 445 646 717 
1095 446 646 645 717 
1096 232 645 646 717 
1097 459 657 531 662 
1098 446 447 646 717 
1099 232 646 233 717 
1100 455 634 457 662 
1101 233 231 624 717 
1102 447 624 445 717 
1103 459 625 463 657 
1104 569 660 523 668 
1105 243 634 241 662 
1106 466 649 483 658 
1107 232 233 645 717 
1108 446 645 447 717 
1109 433 566 653 661 
1110 219 653 360 661 
1111 610 175 181 681 
1112 521 668 660 690 
1113 501 657 477 667 
1114 525 652 453 663 
1115 239 652 356 663 
1116 519 652 525 663 
1117 477 657 476 667 
1118 438 655 440 658 
1119 467 569 624 660 
1120 281 691 670 722 
1121 483 560 658 671 
1122 224 248 658 671 
1123 481 656 497 666 
1124 560 438 658 671 
1125 258 658 248 671 
1126 546 188 175 681 
1127 499 718 670 722 
1128 436 654 437 655 
1129 244 634 625 695 
1130 145 558 616 692 
1131 251 624 358 660 
1132 531 657 501 662 
1133 469 659 626 705 
1134 521 523 660 668 
1135 185 171 408 682 
1136 269 626 659 705 
1137 300 660 357 668 
1138 328 180 213 697 
1139 479 656 481 666 
1140 292 656 271 666 
1141 511 671 686 714 
1142 220 679 678 698 
1143 341 215 158 703 
1144 627 476 675 706 
1145 517 664 663 683 
1146 366 668 358 669 
1147 434 698 679 704 
1148 367 662 250 665 
1149 397 296 672 709 
1150 663 664 305 683 
1151 526 480 649 689 
1152 298 649 264 689 
1153 180 696 213 697 
1154 458 625 634 695 
1155 499 670 691 722 
1156 613 672 491 709 
1157 430 155 158 703 
1158 569 668 524 669 
1159 538 644 630 730 
1160 530 640 629 732 
1161 628 636 363 729 
1162 632 633 368 731 
1163 279 633 631 731 
1164 368 636 632 729 
1165 628 640 555 732 
1166 629 644 530 730 
1167 543 662 501 665 
1168 679 698 220 704 
1169 469 626 486 705 
1170 376 679 404 714 
1171 626 659 469 724 
1172 431 677 661 704 
1173 175 194 181 681 
1174 630 651 538 734 
1175 651 653 570 734 
1176 224 369 671 678 
1177 537 412 152 734 
1178 603 673 410 674 
1179 352 694 659 724 
1180 359 653 651 734 
1181 320 651 630 734 
1182 628 550 636 729 
1183 581 633 632 731 
1184 581 631 633 731 
1185 632 636 550 729 
1186 629 640 314 732 
1187 628 314 640 732 
1188 630 644 326 730 
1189 629 326 644 730 
1190 389 195 673 674 
1191 255 626 254 724 
1192 430 167 617 703 
1193 295 669 294 702 
1194 391 329 676 681 
1195 501 500 665 667 
1196 224 655 222 678 
1197 341 202 286 715 
1198 490 679 508 704 
1199 257 675 267 701 
1200 417 551 585 715 
1201 478 675 471 701 
1202 147 138 145 692 
1203 601 676 602 706 
1204 569 562 624 669 
1205 218 661 217 677 
1206 182 191 616 692 
1207 587 427 182 623 
1208 324 211 178 623 
1209 661 677 218 704 
1210 310 701 622 707 
1211 675 701 257 736 
1212 285 684 407 704 
1213 358 624 351 669 
1214 602 676 546 681 
1215 668 690 521 723 
1216 266 627 675 706 
1217 611 680 187 709 
1218 216 333 138 692 
1219 471 701 675 736 
1220 331 404 708 714 
1221 327 171 185 682 
1222 436 655 438 678 
1223 431 661 432 704 
1224 622 701 534 707 
1225 174 398 382 709 
1226 601 600 676 706 
1227 611 174 595 709 
1228 182 587 623 692 
1229 502 665 500 693 
1230 130 208 380 622 
1231 187 680 398 709 
1232 625 247 694 736 
1233 187 408 171 680 
1234 300 690 668 723 
1235 170 167 158 703 
1236 158 155 341 703 
1237 438 671 470 678 
1238 366 669 295 702 
1239 376 686 671 714 
1240 298 277 672 689 
1241 526 672 493 689 
1242 247 352 625 694 
1243 136 134 129 703 
1244 626 695 254 724 
1245 465 649 466 735 
1246 440 655 439 735 
1247 538 539 644 730 
1248 529 640 530 732 
1249 339 363 636 729 
1250 288 368 633 731 
1251 279 288 633 731 
1252 368 339 636 729 
1253 529 555 640 732 
1254 539 530 644 730 
1255 571 538 651 734 
1256 571 651 570 734 
1257 372 127 129 703 
1258 133 619 589 696 
1259 344 631 279 705 
1260 263 376 678 679 
1261 177 179 423 697 
1262 178 324 623 712 
1263 172 371 182 623 
1264 285 677 684 704 
1265 496 669 503 702 
1266 306 354 665 693 
1267 656 685 227 735 
1268 187 171 193 680 
1269 179 177 328 697 
1270 586 511 671 686 
1271 267 675 627 701 
1272 627 675 478 701 
1273 134 401 372 703 
1274 602 667 492 706 
1275 352 625 694 724 
1276 532 627 600 706 
1277 515 665 502 693 
1278 344 687 631 705 
1279 414 719 144 737 
1280 126 135 133 696 
1281 138 143 558 692 
1282 540 178 427 623 
1283 375 404 679 708 
1284 536 694 670 711 
1285 279 626 269 705 
1286 399 212 287 722 
1287 393 391 676 706 
1288 426 129 127 703 
1289 250 336 307 688 
1290 584 703 691 715 
1291 649 658 466 735 
1292 287 691 703 715 
1293 439 655 650 735 
1294 610 596 681 693 
1295 221 222 654 698 
1296 147 400 138 692 
1297 293 351 249 685 
1298 449 464 527 690 
1299 283 390 681 693 
1300 257 247 675 736 
1301 190 182 400 692 
1302 593 424 131 622 
1303 428 619 189 696 
1304 393 676 395 706 
1305 235 299 252 690 
1306 461 625 694 736 
1307 272 318 670 694 
1308 427 172 182 623 
1309 212 703 287 722 
1310 296 297 666 709 
1311 462 543 514 688 
1312 509 679 511 714 
1313 567 562 497 685 
1314 661 220 698 704 
1315 505 491 666 709 
1316 96 335 204 721 
1317 419 547 173 721 
1318 131 589 593 622 
1319 503 669 524 702 
1320 514 517 663 683 
1321 307 663 305 683 
1322 401 170 158 703 
1323 650 227 685 735 
1324 489 670 536 694 
1325 395 676 207 697 
1326 423 676 600 697 
1327 434 661 698 704 
1328 614 584 426 722 
1329 584 703 426 722 
1330 136 129 617 703 
1331 553 670 710 711 
1332 369 376 671 678 
1333 591 710 707 711 
1334 178 623 540 712 
1335 664 521 690 723 
1336 152 166 537 734 
1337 588 129 426 703 
1338 306 665 307 683 
1339 249 227 656 685 
1340 252 301 652 690 
1341 488 585 498 715 
1342 434 432 661 704 
1343 708 714 509 737 
1344 221 359 219 698 
1345 611 187 174 709 
1346 453 462 663 688 
1347 239 663 336 688 
1348 537 412 81 152 
1349 464 652 519 690 
1350 583 495 631 705 
1351 386 193 682 702 
1352 97 204 327 721 
1353 515 514 665 683 
1354 668 522 721 723 
1355 174 187 398 709 
1356 670 694 318 711 
1357 379 332 209 719 
1358 138 333 143 692 
1359 126 403 135 696 
1360 532 476 627 706 
1361 276 671 376 686 
1362 573 651 647 733 
1363 647 651 322 733 
1364 572 647 644 725 
1365 644 647 323 725 
1366 316 640 642 726 
1367 575 642 640 726 
1368 577 639 636 727 
1369 636 639 370 727 
1370 253 257 247 675 
1371 471 675 461 736 
1372 471 463 461 675 
1373 478 627 476 675 
1374 266 627 267 675 
1375 670 309 710 711 
1376 186 547 674 721 
1377 486 626 495 705 
1378 595 120 416 709 
1379 436 435 654 698 
1380 436 678 434 698 
1381 434 678 565 679 
1382 203 64 162 360 
1383 283 354 390 693 
1384 583 631 687 705 
1385 101 382 199 709 
1386 505 666 680 709 
1387 176 114 410 547 
1388 666 297 680 709 
1389 281 718 337 722 
1390 208 622 130 707 
1391 328 177 180 697 
1392 206 325 60 730 
1393 378 707 710 711 
1394 522 607 668 721 
1395 173 542 419 721 
1396 414 144 615 737 
1397 344 286 687 705 
1398 303 668 721 723 
1399 303 668 385 721 
1400 519 664 521 690 
1401 220 678 222 698 
1402 229 650 227 685 
1403 441 650 443 685 
1404 453 638 455 688 
1405 239 241 638 688 
1406 194 91 329 188 
1407 278 667 391 706 
1408 327 682 185 721 
1409 300 664 301 690 
1410 192 180 189 696 
1411 185 682 542 721 
1412 130 622 424 707 
1413 620 623 692 700 
1414 589 622 126 696 
1415 405 692 623 700 
1416 95 195 335 186 
1417 476 492 667 706 
1418 365 395 627 706 
1419 263 404 376 679 
1420 321 359 651 734 
1421 320 321 651 734 
1422 282 689 265 700 
1423 677 507 684 704 
1424 499 548 718 722 
1425 536 670 553 711 
1426 335 186 674 721 
1427 300 664 690 723 
1428 145 138 558 692 
1429 220 661 218 704 
1430 606 682 408 702 
1431 484 689 504 700 
1432 381 680 193 702 
1433 468 626 469 724 
1434 75 549 420 729 
1435 280 286 270 715 
1436 377 692 700 720 
1437 590 700 692 720 
1438 458 695 634 728 
1439 366 386 682 702 
1440 178 211 172 623 
1441 201 144 719 737 
1442 413 73 582 731 
1443 58 196 313 732 
1444 509 508 679 708 
1445 244 634 695 728 
1446 281 399 691 722 
1447 93 343 342 181 
1448 566 83 156 418 
1449 373 684 677 713 
1450 430 158 167 703 
1451 583 687 585 705 
1452 573 568 651 733 
1453 361 322 651 733 
1454 572 559 647 725 
1455 362 644 323 725 
1456 572 644 559 725 
1457 362 323 647 725 
1458 316 353 640 726 
1459 575 640 563 726 
1460 575 563 642 726 
1461 316 642 353 726 
1462 557 639 577 727 
1463 347 636 370 727 
1464 557 577 636 727 
1465 347 370 639 727 
1466 561 458 634 728 
1467 244 340 634 728 
1468 573 647 568 733 
1469 361 647 322 733 
1470 371 400 182 692 
1471 383 670 309 710 
1472 601 602 492 706 
1473 328 207 89 179 
1474 278 266 667 706 
1475 365 627 266 706 
1476 553 670 598 710 
1477 309 670 318 711 
1478 601 532 600 706 
1479 258 264 649 716 
1480 480 483 649 716 
1481 280 659 272 691 
1482 513 677 684 713 
1483 498 489 659 691 
1484 500 681 596 693 
1485 610 596 409 681 
1486 130 380 131 622 
1487 668 607 682 721 
1488 343 681 390 693 
1489 385 668 682 721 
1490 381 294 680 702 
1491 185 97 327 721 
1492 186 173 547 721 
1493 508 684 507 704 
1494 131 424 130 622 
1495 192 403 180 696 
1496 597 408 680 702 
1497 509 565 511 679 
1498 137 144 414 719 
1499 441 650 685 735 
1500 545 177 108 423 
1501 319 62 197 734 
1502 233 624 251 717 
1503 234 645 233 717 
1504 448 447 645 717 
1505 467 624 447 717 
1506 117 408 542 185 
1507 373 285 677 684 
1508 521 664 520 723 
1509 499 691 614 722 
1510 96 186 335 721 
1511 220 263 678 679 
1512 194 343 92 181 
1513 435 433 570 698 
1514 244 695 340 728 
1515 485 651 568 733 
1516 361 651 275 733 
1517 364 644 362 725 
1518 559 644 574 725 
1519 317 640 353 726 
1520 563 640 576 726 
1521 242 634 340 728 
1522 347 348 636 727 
1523 561 634 456 728 
1524 347 639 260 727 
1525 578 557 636 727 
1526 474 639 557 727 
1527 353 642 261 726 
1528 563 473 642 726 
1529 472 647 559 725 
1530 362 647 262 725 
1531 262 647 361 733 
1532 568 647 472 733 
1533 115 419 547 173 
1534 414 592 544 719 
1535 591 707 701 711 
1536 173 185 542 721 
1537 561 695 458 728 
1538 344 270 286 705 
1539 208 406 380 622 
1540 621 424 593 622 
1541 371 623 405 692 
1542 620 623 587 692 
1543 126 133 589 696 
1544 441 685 567 735 
1545 522 668 521 723 
1546 81 537 152 166 
1547 217 65 150 203 
1548 134 372 129 703 
1549 499 670 489 691 
1550 431 156 84 418 
1551 281 272 670 691 
1552 377 333 692 720 
1553 427 178 172 623 
1554 324 103 178 211 
1555 308 257 701 736 
1556 101 199 184 709 
1557 485 654 651 733 
1558 574 644 642 725 
1559 364 642 644 725 
1560 576 640 639 726 
1561 317 639 640 726 
1562 578 636 635 727 
1563 242 637 634 728 
1564 635 636 348 727 
1565 634 637 456 728 
1566 639 641 260 727 
1567 474 641 639 727 
1568 642 645 261 726 
1569 473 645 642 726 
1570 647 648 262 725 
1571 472 648 647 725 
1572 262 648 647 733 
1573 647 648 472 733 
1574 651 654 275 733 
1575 325 163 60 730 
1576 120 184 416 709 
1577 598 710 670 718 
1578 590 692 425 720 
1579 670 710 383 718 
1580 352 659 255 724 
1581 246 625 352 724 
1582 398 187 99 193 
1583 524 682 606 702 
1584 567 685 656 735 
1585 374 126 622 696 
1586 126 380 374 622 
1587 493 608 609 712 
1588 398 100 174 382 
1589 246 255 254 724 
1590 378 701 707 711 
1591 586 671 483 716 
1592 116 542 419 173 
1593 427 587 620 623 
1594 371 211 405 623 
1595 264 689 649 716 
1596 480 649 689 716 
1597 246 254 695 724 
1598 384 388 277 712 
1599 291 656 227 735 
1600 313 314 628 732 
1601 582 631 581 731 
1602 196 629 314 732 
1603 581 632 413 731 
1604 550 628 420 729 
1605 549 632 550 729 
1606 326 206 630 730 
1607 325 326 629 730 
1608 227 650 226 735 
1609 226 658 291 735 
1610 513 677 507 684 
1611 186 95 195 176 
1612 42 330 210 708 
1613 406 310 312 622 
1614 272 352 318 694 
1615 595 611 119 174 
1616 424 554 15 707 
1617 265 699 284 700 
1618 131 126 589 622 
1619 114 176 186 547 
1620 470 511 565 678 
1621 294 295 293 669 
1622 428 189 180 696 
1623 118 611 408 187 
1624 125 707 554 710 
1625 383 281 670 718 
1626 162 156 64 203 
1627 598 670 499 718 
1628 171 98 193 327 
1629 75 165 549 729 
1630 497 503 496 669 
1631 605 721 522 723 
1632 535 534 621 622 
1633 610 183 112 594 
1634 110 546 175 409 
1635 26 208 380 130 
1636 366 295 386 702 
1637 152 197 62 734 
1638 518 664 517 683 
1639 597 680 496 702 
1640 208 130 25 707 
1641 206 60 149 730 
1642 58 313 164 732 
1643 484 506 699 700 
1644 258 671 276 716 
1645 319 166 62 734 
1646 202 52 334 687 
1647 595 174 120 709 
1648 434 679 490 704 
1649 460 625 458 695 
1650 101 174 382 709 
1651 354 283 367 665 
1652 306 354 307 665 
1653 405 623 282 700 
1654 510 509 714 737 
1655 91 194 175 188 
1656 253 657 266 675 
1657 476 657 463 675 
1658 181 342 93 183 
1659 138 400 216 692 
1660 156 162 83 566 
1661 344 334 631 687 
1662 409 602 546 681 
1663 519 517 518 664 
1664 606 542 408 682 
1665 269 659 270 705 
1666 75 420 154 729 
1667 327 386 193 682 
1668 304 305 664 683 
1669 502 500 596 693 
1670 71 417 580 687 
1671 351 624 229 685 
1672 300 299 660 690 
1673 468 695 626 724 
1674 294 293 292 666 
1675 556 489 536 694 
1676 443 624 562 685 
1677 250 662 241 688 
1678 125 345 707 710 
1679 613 526 491 672 
1680 201 144 137 719 
1681 496 481 497 666 
1682 543 455 662 688 
1683 624 660 251 717 
1684 397 296 298 672 
1685 406 622 208 707 
1686 448 645 643 717 
1687 234 643 645 717 
1688 620 504 623 700 
1689 621 424 622 707 
1690 467 660 624 717 
1691 521 519 520 664 
1692 254 626 340 728 
1693 468 561 626 728 
1694 347 635 348 727 
1695 317 353 639 726 
1696 561 456 637 728 
1697 242 340 637 728 
1698 578 635 557 727 
1699 474 557 641 727 
1700 563 576 639 726 
1701 347 260 641 727 
1702 364 362 642 725 
1703 559 574 642 725 
1704 563 645 473 726 
1705 353 261 645 726 
1706 472 559 648 725 
1707 362 262 648 725 
1708 262 361 648 733 
1709 568 472 648 733 
1710 485 568 654 733 
1711 361 275 654 733 
1712 593 16 131 424 
1713 392 389 195 673 
1714 394 392 342 673 
1715 244 625 246 695 
1716 302 664 300 723 
1717 519 525 517 663 
1718 389 335 195 674 
1719 391 329 393 676 
1720 336 305 307 663 
1721 356 301 305 663 
1722 340 626 273 728 
1723 487 626 561 728 
1724 259 635 347 727 
1725 561 637 475 728 
1726 340 259 637 728 
1727 260 639 353 726 
1728 475 557 635 727 
1729 557 452 641 727 
1730 474 563 639 726 
1731 238 347 641 727 
1732 261 642 362 725 
1733 563 448 645 726 
1734 559 642 473 725 
1735 234 353 645 726 
1736 228 648 361 733 
1737 444 648 559 725 
1738 230 362 648 725 
1739 568 648 442 733 
1740 223 361 654 733 
1741 527 521 660 690 
1742 437 654 568 733 
1743 202 341 51 157 
1744 513 429 677 713 
1745 424 15 130 707 
1746 97 173 204 721 
1747 367 349 250 662 
1748 245 243 349 662 
1749 249 227 291 656 
1750 379 699 686 719 
1751 258 256 248 658 
1752 226 224 248 658 
1753 570 485 435 654 
1754 275 361 322 651 
1755 485 573 568 651 
1756 443 442 444 648 
1757 572 559 472 647 
1758 538 572 573 647 
1759 234 232 233 645 
1760 251 233 231 624 
1761 538 539 572 644 
1762 231 229 351 624 
1763 446 448 447 645 
1764 559 572 574 644 
1765 317 316 353 640 
1766 364 323 362 644 
1767 323 326 320 644 
1768 575 563 473 642 
1769 316 314 315 640 
1770 529 575 530 640 
1771 563 575 576 640 
1772 236 237 238 641 
1773 557 474 577 639 
1774 453 454 455 638 
1775 576 555 577 639 
1776 450 452 451 641 
1777 240 241 242 637 
1778 550 577 555 636 
1779 456 561 458 634 
1780 370 339 363 636 
1781 578 579 564 635 
1782 347 348 370 636 
1783 253 247 245 625 
1784 244 340 242 634 
1785 469 468 486 626 
1786 273 340 254 626 
1787 314 363 313 628 
1788 266 253 274 657 
1789 349 253 245 657 
1790 349 367 274 657 
1791 245 246 244 625 
1792 352 272 255 659 
1793 241 243 242 634 
1794 266 274 278 667 
1795 283 274 367 667 
1796 314 196 315 629 
1797 255 269 254 626 
1798 582 495 581 631 
1799 478 532 476 627 
1800 486 487 495 626 
1801 456 455 454 637 
1802 279 273 269 626 
1803 457 458 459 634 
1804 495 487 581 633 
1805 288 368 350 633 
1806 459 458 460 625 
1807 420 550 555 628 
1808 579 413 581 632 
1809 368 348 350 635 
1810 579 581 564 633 
1811 279 288 273 633 
1812 352 246 247 625 
1813 348 347 259 635 
1814 579 550 549 632 
1815 487 468 561 626 
1816 243 245 244 634 
1817 579 578 550 636 
1818 348 368 339 636 
1819 239 241 240 638 
1820 578 557 577 636 
1821 561 456 475 637 
1822 238 237 239 638 
1823 347 370 260 639 
1824 363 317 370 639 
1825 455 456 457 634 
1826 242 340 259 637 
1827 578 475 557 635 
1828 353 260 317 639 
1829 356 252 301 652 
1830 356 239 237 652 
1831 235 252 237 652 
1832 449 450 451 643 
1833 474 557 452 641 
1834 316 261 353 642 
1835 326 206 320 630 
1836 576 474 563 639 
1837 238 347 260 641 
1838 451 452 453 638 
1839 363 314 317 640 
1840 576 529 555 640 
1841 326 315 325 629 
1842 235 237 236 643 
1843 530 575 574 642 
1844 364 316 315 642 
1845 364 362 261 642 
1846 231 230 229 646 
1847 563 448 473 645 
1848 446 447 445 646 
1849 539 530 574 644 
1850 315 326 364 644 
1851 473 559 574 642 
1852 234 353 261 645 
1853 362 323 262 647 
1854 233 232 231 646 
1855 229 230 228 648 
1856 323 320 322 647 
1857 228 262 361 648 
1858 270 269 255 659 
1859 444 445 443 646 
1860 291 256 271 649 
1861 444 472 559 648 
1862 258 264 256 649 
1863 230 362 262 648 
1864 361 262 322 647 
1865 466 465 479 649 
1866 227 225 226 650 
1867 442 443 441 650 
1868 229 228 227 650 
1869 359 275 321 651 
1870 442 568 472 648 
1871 464 449 451 652 
1872 573 472 568 647 
1873 226 225 224 655 
1874 320 321 322 651 
1875 573 571 538 651 
1876 570 571 485 651 
1877 485 568 437 654 
1878 275 359 221 654 
1879 361 275 223 654 
1880 224 223 222 655 
1881 222 223 221 654 
1882 293 249 292 656 
1883 359 360 219 653 
1884 365 267 266 627 
1885 468 626 695 728 
1886 226 256 291 658 
1887 525 451 453 652 
1888 433 566 570 653 
1889 547 603 410 674 
1890 292 291 271 656 
1891 465 481 479 656 
1892 467 445 447 624 
1893 461 463 459 625 
1894 459 531 457 662 
1895 562 443 445 624 
1896 466 483 560 658 
1897 243 241 250 662 
1898 483 466 480 649 
1899 433 418 566 661 
1900 219 360 203 661 
1901 279 344 334 631 
1902 455 457 543 662 
1903 459 463 531 657 
1904 153 582 73 731 
1905 96 204 173 721 
1906 304 305 301 664 
1907 391 194 329 681 
1908 343 194 390 681 
1909 525 453 462 663 
1910 440 438 439 655 
1911 300 299 357 660 
1912 463 476 477 657 
1913 151 196 58 732 
1914 560 438 440 658 
1915 395 393 207 676 
1916 467 523 569 660 
1917 301 300 302 664 
1918 562 467 569 624 
1919 583 631 580 687 
1920 239 356 336 663 
1921 303 300 668 723 
1922 521 523 527 660 
1923 431 418 432 661 
1924 433 434 661 698 
1925 591 553 710 711 
1926 519 464 525 652 
1927 357 251 358 660 
1928 358 366 357 668 
1929 517 462 514 663 
1930 501 531 477 657 
1931 436 435 437 654 
1932 603 612 410 673 
1933 332 201 137 719 
1934 224 369 248 671 
1935 432 433 434 661 
1936 220 355 679 704 
1937 515 514 502 665 
1938 35 414 544 137 
1939 52 161 334 687 
1940 567 497 481 656 
1941 501 477 500 667 
1942 438 436 437 655 
1943 308 257 267 701 
1944 552 701 471 736 
1945 292 271 296 666 
1946 521 522 523 668 
1947 600 423 601 676 
1948 526 493 480 689 
1949 298 264 277 689 
1950 491 479 481 666 
1951 552 478 471 701 
1952 569 523 524 668 
1953 215 401 158 703 
1954 388 298 277 672 
1955 580 583 495 631 
1956 303 300 357 668 
1957 436 565 434 678 
1958 351 358 251 624 
1959 531 501 543 662 
1960 254 695 626 728 
1961 526 608 493 672 
1962 413 159 73 731 
1963 686 699 592 719 
1964 488 583 585 705 
1965 177 179 108 423 
1966 179 89 328 177 
1967 281 337 399 722 
1968 468 695 561 728 
1969 393 278 391 706 
1970 182 616 587 692 
1971 610 111 175 409 
1972 560 470 438 671 
1973 367 250 307 665 
1974 477 476 492 667 
1975 514 543 501 665 
1976 365 393 395 706 
1977 480 479 526 649 
1978 298 271 264 649 
1979 214 373 677 713 
1980 217 218 203 661 
1981 117 408 185 171 
1982 597 408 611 680 
1983 586 686 671 716 
1984 193 381 398 680 
1985 71 580 161 687 
1986 378 710 309 711 
1987 142 35 544 137 
1988 115 547 186 173 
1989 527 690 660 717 
1990 309 383 318 670 
1991 122 427 540 178 
1992 496 505 666 680 
1993 299 660 690 717 
1994 483 586 560 671 
1995 97 185 173 721 
1996 126 131 380 622 
1997 620 692 590 700 
1998 366 358 295 669 
1999 546 602 601 676 
2000 219 661 220 698 
2001 377 692 405 700 
2002 294 666 297 680 
2003 381 295 294 702 
2004 42 210 139 708 
2005 511 470 586 671 
2006 617 129 588 703 
2007 604 422 32 708 
2008 540 416 121 712 
2009 92 194 181 175 
2010 152 62 166 734 
2011 218 677 285 704 
2012 98 171 185 327 
2013 65 156 150 203 
2014 173 116 542 185 
2015 503 569 524 669 
2016 24 132 200 710 
2017 254 340 695 728 
2018 224 222 369 678 
2019 490 509 508 679 
2020 174 187 100 398 
2021 265 289 699 716 
2022 671 686 276 716 
2023 551 703 584 715 
2024 175 188 546 110 
2025 166 630 537 734 
2026 358 351 293 669 
2027 412 653 152 734 
2028 218 217 285 677 
2029 15 554 125 707 
2030 499 614 548 722 
2031 569 497 562 669 
2032 461 625 460 724 
2033 469 659 489 724 
2034 276 258 248 671 
2035 431 84 156 150 
2036 180 403 213 696 
2037 184 121 416 712 
2038 174 611 119 187 
2039 598 553 536 670 
2040 101 184 174 709 
2041 556 461 460 724 
2042 184 120 174 709 
2043 469 489 556 724 
2044 163 149 60 730 
2045 387 303 721 723 
2046 161 631 334 687 
2047 507 513 429 677 
2048 345 24 200 710 
2049 375 331 404 708 
2050 187 171 99 193 
2051 417 157 70 155 
2052 140 330 42 708 
2053 482 694 536 711 
2054 172 178 103 211 
2055 285 214 373 677 
2056 551 417 70 155 
2057 267 627 310 701 
2058 268 694 247 736 
2059 296 397 297 709 
2060 96 173 186 721 
2061 201 719 714 737 
2062 534 627 478 701 
2063 341 287 703 715 
2064 345 378 707 710 
2065 199 324 102 712 
2066 45 137 209 332 
2067 104 371 172 211 
2068 165 75 154 729 
2069 306 394 354 693 
2070 126 374 403 696 
2071 580 631 161 687 
2072 505 613 491 709 
2073 436 438 470 678 
2074 554 707 591 710 
2075 15 125 130 707 
2076 139 684 604 708 
2077 344 279 269 705 
2078 494 484 699 716 
2079 199 102 184 712 
2080 107 428 177 545 
2081 417 71 157 687 
2082 502 501 500 665 
2083 187 408 118 171 
2084 24 125 132 710 
2085 202 157 52 687 
2086 220 219 218 661 
2087 14 415 132 710 
2088 61 319 206 630 
2089 222 220 263 678 
2090 181 183 112 610 
2091 272 280 270 659 
2092 151 58 164 732 
2093 549 74 413 632 
2094 78 411 541 629 
2095 488 498 489 659 
2096 503 524 606 702 
2097 345 125 24 710 
2098 412 566 82 653 
2099 57 313 205 628 
2100 341 51 157 155 
2101 383 337 281 718 
2102 210 375 407 708 
2103 299 251 660 717 
2104 448 643 449 717 
2105 235 643 234 717 
2106 589 17 131 593 
2107 527 660 467 717 
2108 548 598 499 718 
2109 137 142 45 209 
2110 197 63 360 653 
2111 431 507 677 704 
2112 512 686 592 719 
2113 16 130 131 424 
2114 310 267 311 627 
2115 310 406 378 707 
2116 125 25 130 707 
2117 534 533 478 627 
2118 125 14 132 710 
2119 512 511 686 714 
2120 328 88 213 180 
2121 53 346 334 631 
2122 14 554 415 710 
2123 130 380 26 131 
2124 431 432 507 704 
2125 14 125 554 710 
2126 331 714 708 737 
2127 468 458 561 695 
2128 299 233 251 717 
2129 448 449 447 717 
2130 233 235 234 717 
2131 285 407 355 704 
2132 527 467 447 717 
2133 621 534 591 707 
2134 210 407 684 708 
2135 533 600 627 697 
2136 164 313 628 732 
2137 163 325 629 730 
2138 311 627 395 697 
2139 397 672 199 709 
2140 152 653 197 734 
2141 165 632 549 729 
2142 420 528 76 628 
2143 613 416 672 709 
2144 537 80 421 630 
2145 607 524 668 682 
2146 154 420 628 729 
2147 157 161 52 687 
2148 159 153 73 731 
2149 111 175 181 610 
2150 319 630 166 734 
2151 153 631 582 731 
2152 580 582 72 631 
2153 151 629 196 732 
2154 325 196 59 629 
2155 210 684 139 708 
2156 385 668 366 682 
2157 387 303 385 721 
2158 522 605 607 721 
2159 589 535 622 696 
2160 374 622 312 696 
2161 163 78 541 629 
2162 310 378 701 707 
2163 165 74 549 632 
2164 412 82 152 653 
2165 198 55 338 632 
2166 313 57 164 628 
2167 330 140 43 737 
2168 61 166 319 630 
2169 216 377 333 692 
2170 375 404 355 679 
2171 520 664 603 674 
2172 197 152 63 653 
2173 551 430 584 703 
2174 602 500 667 681 
2175 490 508 507 704 
2176 162 360 63 653 
2177 82 566 162 653 
2178 37 425 558 143 
2179 330 708 140 737 
2180 534 701 591 707 
2181 302 389 664 674 
2182 71 161 157 687 
2183 590 558 425 692 
2184 391 667 283 681 
2185 605 674 721 723 
2186 268 318 694 711 
2187 395 207 328 697 
2188 545 423 600 697 
2189 427 123 587 182 
2190 42 139 140 708 
2191 334 161 53 631 
2192 32 422 140 708 
2193 515 502 516 693 
2194 76 528 164 628 
2195 373 407 285 684 
2196 350 635 259 728 
2197 273 633 350 728 
2198 564 633 487 728 
2199 238 638 240 727 
2200 564 475 635 728 
2201 240 637 259 727 
2202 475 637 454 727 
2203 236 641 260 726 
2204 454 638 452 727 
2205 474 641 450 726 
2206 234 643 236 726 
2207 450 643 448 726 
2208 232 645 261 725 
2209 232 230 646 725 
2210 473 645 446 725 
2211 446 646 444 725 
2212 223 655 225 733 
2213 228 225 650 733 
2214 442 650 439 733 
2215 437 439 655 733 
2216 122 427 178 172 
2217 372 212 21 127 
2218 537 166 80 630 
2219 430 551 69 155 
2220 206 149 630 730 
2221 325 59 163 629 
2222 313 196 314 732 
2223 582 581 413 731 
2224 549 550 420 729 
2225 325 206 326 730 
2226 227 226 291 735 
2227 642 645 473 725 
2228 474 639 641 726 
2229 487 633 626 728 
2230 626 633 273 728 
2231 475 635 637 727 
2232 635 637 259 728 
2233 475 637 635 728 
2234 259 637 635 727 
2235 260 641 639 726 
2236 238 641 638 727 
2237 638 641 452 727 
2238 261 645 642 725 
2239 234 645 643 726 
2240 643 645 448 726 
2241 230 648 646 725 
2242 444 646 648 725 
2243 228 650 648 733 
2244 648 650 442 733 
2245 223 654 655 733 
2246 437 655 654 733 
2247 154 420 76 628 
2248 61 206 149 630 
2249 514 515 517 683 
2250 215 341 287 703 
2251 55 165 338 632 
2252 149 421 80 630 
2253 586 512 511 686 
2254 57 205 154 628 
2255 47 138 216 333 
2256 597 496 503 702 
2257 590 506 700 720 
2258 221 220 222 698 
2259 72 582 153 631 
2260 335 674 387 721 
2261 308 701 711 736 
2262 607 542 682 721 
2263 320 630 319 734 
2264 377 700 284 720 
2265 197 653 359 734 
2266 151 59 196 629 
2267 552 591 701 711 
2268 44 137 332 201 
2269 159 413 632 731 
2270 532 492 476 706 
2271 547 605 674 721 
2272 385 682 327 721 
2273 78 151 411 629 
2274 220 218 355 704 
2275 277 265 282 689 
2276 282 405 384 623 
2277 482 461 694 736 
2278 55 198 159 632 
2279 620 504 609 623 
2280 369 376 276 671 
2281 482 536 553 711 
2282 159 413 74 632 
2283 369 263 376 678 
2284 161 580 72 631 
2285 306 307 305 683 
2286 493 504 484 689 
2287 612 516 594 673 
2288 53 153 346 631 
2289 223 225 361 733 
2290 347 238 240 727 
2291 340 350 259 728 
2292 340 273 350 728 
2293 564 487 561 728 
2294 564 561 475 728 
2295 240 259 347 727 
2296 475 454 557 727 
2297 236 260 353 726 
2298 454 452 557 727 
2299 474 450 563 726 
2300 353 234 236 726 
2301 450 448 563 726 
2302 559 473 446 725 
2303 232 261 362 725 
2304 232 362 230 725 
2305 559 446 444 725 
2306 228 361 225 733 
2307 568 442 439 733 
2308 437 568 439 733 
2309 182 427 123 172 
2310 289 686 379 699 
2311 282 265 284 700 
2312 440 466 658 735 
2313 541 629 530 730 
2314 538 630 421 730 
2315 555 528 628 732 
2316 368 632 338 729 
2317 279 631 346 731 
2318 530 629 411 732 
2319 368 198 632 731 
2320 363 205 628 729 
2321 439 650 441 735 
2322 265 689 264 716 
2323 498 584 691 715 
2324 480 689 484 716 
2325 607 419 542 721 
2326 567 656 465 735 
2327 520 664 674 723 
2328 44 137 201 144 
2329 204 385 327 721 
2330 247 268 352 694 
2331 204 335 387 721 
2332 229 227 249 685 
2333 239 336 241 688 
2334 441 443 567 685 
2335 252 300 301 690 
2336 199 672 388 712 
2337 453 455 462 688 
2338 471 478 476 675 
2339 266 267 257 675 
2340 484 504 506 700 
2341 415 132 710 718 
2342 547 419 605 721 
2343 416 608 672 712 
2344 461 556 482 694 
2345 281 280 272 691 
2346 464 519 521 690 
2347 518 515 612 683 
2348 498 499 489 691 
2349 280 691 287 715 
2350 200 710 132 718 
2351 246 352 255 724 
2352 85 431 429 677 
2353 69 158 430 155 
2354 320 319 321 734 
2355 321 197 359 734 
2356 434 490 432 704 
2357 82 162 152 653 
2358 162 63 152 653 
2359 258 265 264 716 
2360 558 37 143 138 
2361 480 484 483 716 
2362 494 592 686 699 
2363 180 328 88 177 
2364 598 415 710 718 
2365 184 178 121 712 
2366 284 699 209 720 
2367 200 383 710 718 
2368 522 521 520 723 
2369 244 254 340 695 
2370 308 701 378 711 
2371 284 379 209 699 
2372 172 182 371 104 
2373 373 141 684 713 
2374 345 309 378 710 
2375 540 121 178 712 
2376 496 505 491 666 
2377 553 554 591 710 
2378 440 465 466 735 
2379 539 541 530 730 
2380 539 538 421 730 
2381 339 368 338 729 
2382 555 529 528 732 
2383 288 279 346 731 
2384 530 411 529 732 
2385 368 288 198 731 
2386 363 339 205 729 
2387 439 441 440 735 
2388 296 297 294 666 
2389 338 632 165 729 
2390 306 304 392 683 
2391 289 686 699 716 
2392 159 632 198 731 
2393 127 21 372 129 
2394 441 567 465 735 
2395 163 629 541 730 
2396 528 164 628 732 
2397 421 630 149 730 
2398 498 584 614 691 
2399 436 434 435 698 
2400 341 215 50 158 
2401 154 164 57 628 
2402 540 623 609 712 
2403 399 287 280 691 
2404 583 486 495 705 
2405 149 166 61 630 
2406 535 593 589 622 
2407 312 374 380 622 
2408 281 272 318 670 
2409 384 623 324 712 
2410 431 85 150 677 
2411 290 714 201 719 
2412 163 151 78 629 
2413 164 154 76 628 
2414 289 276 686 716 
2415 490 434 565 679 
2416 290 379 686 719 
2417 290 686 376 714 
2418 184 102 178 712 
2419 520 674 605 723 
2420 165 159 74 632 
2421 149 80 166 630 
2422 586 494 686 716 
2423 664 302 674 723 
2424 540 427 609 623 
2425 494 699 686 716 
2426 177 180 428 107 
2427 151 163 59 629 
2428 178 102 324 712 
2429 140 708 422 737 
2430 324 384 211 623 
2431 131 126 17 589 
2432 489 499 536 670 
2433 55 159 165 632 
2434 217 66 214 677 
2435 77 164 528 732 
2436 153 53 161 631 
2437 56 338 165 729 
2438 544 699 506 720 
2439 214 677 160 713 
2440 512 714 686 719 
2441 257 268 247 736 
2442 161 72 153 631 
2443 387 721 674 723 
2444 460 695 468 724 
2445 510 719 414 737 
2446 337 718 128 722 
2447 265 289 284 699 
2448 289 258 276 716 
2449 138 47 143 333 
2450 22 337 128 722 
2451 154 628 205 729 
2452 422 33 140 737 
2453 586 483 494 716 
2454 650 655 439 733 
2455 645 646 446 725 
2456 450 641 643 726 
2457 454 637 638 727 
2458 240 638 637 727 
2459 564 635 633 728 
2460 633 635 350 728 
2461 236 643 641 726 
2462 232 646 645 725 
2463 225 655 650 733 
2464 590 425 506 720 
2465 412 537 571 734 
2466 27 380 374 126 
2467 268 309 318 711 
2468 377 284 333 720 
2469 331 708 330 737 
2470 153 346 631 731 
2471 541 79 163 730 
2472 386 381 193 702 
2473 421 149 79 730 
2474 506 544 592 699 
2475 140 144 43 737 
2476 411 629 151 732 
2477 94 342 195 673 
2478 714 719 510 737 
2479 512 510 714 719 
2480 207 329 90 676 
2481 198 54 159 731 
2482 382 397 199 709 
2483 160 214 66 677 
2484 548 128 718 722 
2485 604 139 31 684 
2486 613 595 416 709 
2487 588 426 584 703 
2488 276 376 290 686 
2489 158 50 341 155 
2490 287 212 372 703 
2491 494 592 512 686 
2492 583 417 585 687 
2493 210 373 41 684 
2494 603 520 518 664 
2495 41 373 141 684 
2496 195 176 94 673 
2497 283 391 278 667 
2498 532 533 600 627 
2499 594 113 410 673 
2500 56 154 205 729 
2501 389 304 302 664 
2502 329 188 90 676 
2503 513 604 31 684 
2504 246 695 625 724 
2505 395 311 365 627 
2506 278 365 266 706 
2507 94 183 342 673 
2508 494 484 506 699 
2509 176 410 113 673 
2510 377 405 282 700 
2511 179 109 423 676 
2512 546 423 109 676 
2513 615 510 414 737 
2514 552 711 701 736 
2515 492 602 500 667 
2516 411 151 77 732 
2517 411 77 528 732 
2518 620 590 504 700 
2519 207 90 179 676 
2520 56 205 338 729 
2521 133 18 589 619 
2522 12 128 548 722 
2523 607 524 522 668 
2524 422 615 33 737 
2525 331 201 714 737 
2526 522 520 605 723 
2527 27 380 126 131 
2528 220 355 263 679 
2529 588 11 426 129 
2530 284 700 699 720 
2531 366 385 303 668 
2532 604 684 508 708 
2533 43 201 330 737 
2534 299 235 233 717 
2535 449 527 447 717 
2536 217 150 66 677 
2537 139 210 41 684 
2538 56 165 154 729 
2539 183 113 594 673 
2540 699 700 506 720 
2541 36 142 544 720 
2542 163 79 149 730 
2543 546 109 188 676 
2544 558 587 616 692 
2545 216 400 371 692 
2546 541 421 79 730 
2547 11 127 426 129 
2548 344 286 202 687 
2549 308 711 268 736 
2550 46 209 142 720 
2551 77 151 164 732 
2552 23 128 337 718 
2553 54 346 153 731 
2554 269 270 344 705 
2555 308 268 257 736 
2556 54 198 346 731 
2557 552 553 591 711 
2558 460 468 469 724 
2559 85 429 160 677 
2560 548 128 13 718 
2561 510 509 511 714 
2562 468 460 458 695 
2563 496 597 505 680 
2564 13 132 415 718 
2565 460 625 695 724 
2566 200 132 23 718 
2567 381 294 297 680 
2568 33 144 140 737 
2569 373 402 40 713 
2570 558 616 38 145 
2571 139 41 141 684 
2572 68 617 430 167 
2573 376 404 331 714 
2574 36 143 142 720 
2575 610 516 596 693 
2576 212 337 22 722 
2577 153 159 54 731 
2578 617 588 430 703 
2579 401 215 372 703 
2580 513 684 141 713 
2581 214 67 402 713 
2582 384 324 388 712 
2583 146 141 40 713 
2584 168 402 67 713 
2585 40 402 146 713 
2586 22 128 127 722 
2587 141 373 40 713 
2588 142 143 46 720 
2589 540 609 608 712 
2590 324 199 388 712 
2591 416 540 608 712 
2592 553 598 415 710 
2593 133 18 126 589 
2594 183 94 176 673 
2595 183 176 113 673 
2596 336 250 241 688 
2597 351 229 249 685 
2598 200 383 309 710 
2599 257 253 266 675 
2600 567 443 562 685 
2601 471 476 463 675 
2602 300 252 299 690 
2603 615 144 33 737 
2604 143 333 46 720 
2605 387 674 302 723 
2606 607 606 524 682 
2607 527 464 521 690 
2608 543 462 455 688 
2609 268 711 694 736 
2610 127 12 426 722 
2611 343 390 394 693 
2612 425 143 36 720 
2613 199 397 388 672 
2614 127 212 22 722 
2615 188 109 179 676 
2616 179 90 188 676 
2617 355 218 285 704 
2618 613 416 608 672 
2619 518 517 515 683 
2620 396 374 312 696 
2621 160 150 85 677 
2622 589 599 535 696 
2623 290 331 201 714 
2624 425 36 544 720 
2625 221 219 220 698 
2626 289 290 379 686 
2627 150 160 66 677 
2628 145 38 558 138 
2629 590 620 587 692 
2630 589 619 428 696 
2631 374 213 403 696 
2632 377 371 405 692 
2633 304 306 305 683 
2634 385 366 386 682 
2635 160 677 429 713 
2636 344 202 334 687 
2637 430 158 68 167 
2638 597 606 408 702 
2639 23 337 200 718 
2640 602 596 500 681 
2641 513 507 508 684 
2642 210 330 375 708 
2643 354 367 307 665 
2644 548 13 415 718 
2645 127 128 12 722 
2646 251 231 351 624 
2647 253 349 274 657 
2648 533 532 478 627 
2649 274 283 278 667 
2650 541 411 530 629 
2651 325 315 196 629 
2652 538 537 421 630 
2653 368 198 338 632 
2654 487 486 468 626 
2655 580 495 582 631 
2656 528 420 555 628 
2657 273 254 269 626 
2658 459 460 461 625 
2659 363 205 313 628 
2660 246 245 247 625 
2661 487 564 581 633 
2662 350 273 288 633 
2663 243 244 242 634 
2664 348 259 350 635 
2665 413 579 549 632 
2666 370 348 339 636 
2667 457 456 458 634 
2668 314 316 317 640 
2669 564 475 578 635 
2670 240 242 259 637 
2671 578 577 550 636 
2672 238 239 240 638 
2673 456 454 475 637 
2674 370 317 260 639 
2675 453 452 454 638 
2676 577 474 576 639 
2677 320 206 319 630 
2678 236 238 260 641 
2679 356 237 252 652 
2680 236 234 235 643 
2681 474 452 450 641 
2682 576 575 529 640 
2683 316 364 261 642 
2684 449 448 450 643 
2685 473 574 575 642 
2686 234 261 232 645 
2687 364 326 323 644 
2688 231 232 230 646 
2689 473 448 446 645 
2690 539 574 572 644 
2691 444 446 445 646 
2692 322 262 323 647 
2693 334 346 279 631 
2694 270 255 272 659 
2695 256 264 271 649 
2696 291 292 249 656 
2697 230 262 228 648 
2698 444 442 472 648 
2699 466 479 480 649 
2700 227 228 225 650 
2701 472 573 572 647 
2702 441 439 442 650 
2703 322 321 275 651 
2704 571 573 485 651 
2705 225 223 224 655 
2706 197 360 359 653 
2707 435 485 437 654 
2708 248 256 226 658 
2709 221 223 275 654 
2710 566 412 570 653 
2711 267 365 311 627 
2712 243 250 349 662 
2713 481 465 567 656 
2714 489 469 488 659 
2715 466 560 440 658 
2716 305 336 356 663 
2717 445 467 562 624 
2718 467 527 523 660 
2719 464 451 525 652 
2720 433 432 418 661 
2721 132 128 23 718 
2722 543 457 531 662 
2723 525 462 517 663 
2724 46 333 209 720 
2725 437 439 438 655 
2726 531 463 477 657 
2727 13 128 132 718 
2728 304 301 302 664 
2729 299 251 357 660 
2730 520 603 605 674 
2731 308 378 309 711 
2732 513 31 141 684 
2733 520 519 518 664 
2734 417 583 580 687 
2735 375 330 331 708 
2736 426 12 548 722 
2737 482 694 711 736 
2738 31 139 141 684 
2739 20 401 372 134 
2740 302 387 389 674 
2741 501 502 514 665 
2742 604 508 422 708 
2743 512 414 510 719 
2744 390 391 283 681 
2745 618 160 429 713 
2746 219 203 218 661 
2747 618 141 148 713 
2748 618 169 160 713 
2749 619 428 189 106 
2750 294 292 296 666 
2751 254 244 246 695 
2752 481 496 491 666 
2753 366 303 357 668 
2754 523 522 524 668 
2755 565 436 470 678 
2756 43 144 201 737 
2757 686 714 290 719 
2758 403 87 192 180 
2759 533 599 600 697 
2760 500 477 492 667 
2761 396 311 395 697 
2762 433 435 434 698 
2763 134 372 20 129 
2764 48 138 147 400 
2765 170 49 401 158 
2766 10 617 136 129 
2767 618 160 169 86 
2768 513 141 618 713 
2769 585 551 584 715 
2770 509 490 565 679 
2771 419 607 605 721 
2772 508 509 422 708 
2773 560 586 470 671 
2774 387 385 204 721 
2775 428 180 189 106 
2776 386 295 381 702 
2777 618 429 160 86 
2778 512 510 511 714 
2779 503 497 569 669 
2780 87 403 213 180 
2781 295 358 293 669 
2782 135 28 403 126 
2783 248 369 276 671 
2784 138 48 216 400 
2785 345 378 208 707 
2786 486 583 488 705 
2787 552 482 711 736 
2788 591 554 424 707 
2789 337 23 22 128 
2790 148 146 169 713 
2791 492 532 601 706 
2792 378 308 310 701 
2793 429 431 507 677 
2794 341 286 287 715 
2795 215 401 49 158 
2796 369 222 263 678 
2797 168 169 146 713 
2798 552 591 534 701 
2799 498 585 584 715 
2800 482 553 552 711 
2801 217 214 285 677 
2802 321 319 197 734 
2803 410 612 594 673 
2804 303 302 300 723 
2805 284 209 333 720 
2806 354 394 390 693 
2807 308 267 310 701 
2808 277 264 265 689 
2809 493 484 480 689 
2810 268 318 352 694 
2811 616 124 191 182 
2812 210 407 373 684 
2813 258 289 265 716 
2814 280 287 286 715 
2815 534 478 552 701 
2816 617 10 588 129 
2817 548 12 13 128 
2818 290 201 332 719 
2819 382 297 397 709 
2820 595 613 505 709 
2821 611 505 597 680 
2822 484 494 483 716 
2823 398 381 297 680 
2824 355 404 263 679 
2825 544 506 425 720 
2826 414 512 592 719 
2827 148 30 141 618 
2828 388 397 298 672 
2829 586 494 512 686 
2830 608 526 613 672 
2831 312 380 406 622 
2832 535 621 593 622 
2833 596 602 409 681 
2834 374 403 28 126 
2835 587 558 590 692 
2836 374 396 213 696 
2837 589 428 599 696 
2838 392 195 342 673 
2839 606 607 542 682 
2840 389 387 335 674 
2841 329 207 393 676 
2842 385 386 327 682 
2843 216 371 377 692 
2844 490 507 432 704 
2845 427 620 609 623 
2846 547 605 603 674 
2847 536 482 556 694 
2848 516 502 596 693 
2849 391 390 194 681 
2850 423 546 601 676 
2851 405 211 384 623 
2852 124 616 587 182 
2853 289 379 284 699 
2854 331 330 201 737 
2855 309 345 200 710 
2856 553 415 554 710 
2857 281 399 280 691 
2858 148 169 618 713 
2859 499 498 614 691 
2860 95 94 195 176 
2861 35 34 414 137 
2862 506 504 590 700 
2863 494 506 592 699 
2864 152 63 62 197 
2865 281 318 383 670 
2866 406 208 378 707 
2867 588 584 430 703 
2868 383 200 337 718 
2869 146 402 168 713 
2870 621 591 424 707 
2871 598 548 415 718 
2872 179 108 423 109 
2873 287 372 215 703 
2874 82 81 412 152 
2875 52 53 334 161 
2876 282 284 377 700 
2877 536 499 598 670 
2878 319 61 62 166 
2879 342 94 93 183 
2880 83 162 82 566 
2881 186 114 547 115 
2882 618 30 141 513 
2883 399 337 212 722 
2884 75 76 154 420 
2885 156 65 64 203 
2886 80 79 421 149 
2887 105 371 182 104 
2888 153 72 73 582 
2889 151 59 58 196 
2890 194 92 91 175 
2891 141 41 40 373 
2892 96 97 173 204 
2893 198 54 55 159 
2894 85 84 431 150 
2895 64 63 162 360 
2896 268 308 309 711 
2897 537 81 80 166 
2898 137 45 44 332 
2899 79 78 541 163 
2900 76 77 164 528 
2901 140 43 42 330 
2902 165 74 75 549 
2903 91 90 329 188 
2904 313 57 58 164 
2905 163 60 59 325 
2906 157 70 71 417 
2907 460 469 556 724 
2908 338 55 56 165 
2909 513 618 429 713 
2910 482 471 461 736 
2911 120 121 416 184 
2912 328 89 88 177 
2913 328 396 395 697 
2914 324 178 103 102 
2915 599 545 600 697 
2916 176 114 113 410 
2917 102 199 184 101 
2918 606 597 503 702 
2919 508 604 513 684 
2920 127 12 11 426 
2921 89 207 90 179 
2922 614 426 548 722 
2923 160 67 66 214 
2924 23 24 132 200 
2925 510 615 422 737 
2926 290 332 379 719 
2927 365 278 393 706 
2928 38 37 558 138 
2929 289 276 290 686 
2930 109 546 188 110 
2931 339 338 205 729 
2932 288 346 198 731 
2933 539 421 541 730 
2934 529 411 528 732 
2935 440 441 465 735 
2936 126 18 17 589 
2937 132 14 13 415 
2938 206 60 61 149 
2939 68 69 158 430 
2940 154 57 56 205 
2941 335 95 186 96 
2942 116 117 542 185 
2943 427 122 123 172 
2944 50 51 341 155 
2945 185 97 98 327 
2946 580 72 71 161 
2947 32 33 140 422 
2948 125 15 14 554 
2949 387 302 303 723 
2950 411 78 77 151 
2951 142 46 45 209 
2952 214 402 373 713 
2953 143 47 46 333 
2954 83 84 156 418 
2955 343 93 92 181 
2956 3 133 189 619 
2957 6 168 146 402 
2958 419 115 116 173 
2959 331 290 376 714 
2960 21 20 372 129 
2961 408 117 118 171 
2962 100 101 174 382 
2963 544 36 35 142 
2964 122 540 121 178 
2965 106 428 180 107 
2966 595 119 120 174 
2967 202 51 52 157 
2968 73 74 159 413 
2969 552 471 482 736 
2970 112 111 181 610 
2971 153 54 53 346 
2972 99 100 187 398 
2973 113 112 183 594 
2974 611 118 119 187 
2975 26 25 208 130 
2976 130 16 15 424 
2977 141 146 148 713 
2978 169 168 160 713 
2979 345 25 24 125 
2980 380 27 26 131 
2981 99 171 98 193 
2982 201 43 44 144 
2983 150 66 65 217 
2984 136 617 1 167 
2985 7 616 191 145 
2986 134 2 401 170 
2987 8 147 190 400 
2988 32 31 604 139 
2989 108 107 177 545 
2990 212 22 21 127 
2991 169 148 29 146 
2992 135 192 19 133 
2993 111 110 175 409 
2994 210 41 42 139 
2995 168 169 29 146 
2996 133 192 19 189 
2997 123 124 587 182 
2998 425 37 36 143 
2999 86 429 160 85 
3000 48 47 138 216 
3001 49 50 215 158 
3002 34 33 615 144 
3003 28 27 374 126 
3004 103 104 172 211 
3005 30 31 141 513 
3006 70 69 551 155 
3007 588 10 11 129 
3008 88 87 213 180 
3009 131 17 16 593 
3010 133 19 3 189 
3011 29 6 168 146 
3012 5 148 169 618 
3013 4 403 192 135 
3014 145 191 39 190 
3015 136 9 134 167 
3016 170 134 9 167 
3017 147 145 39 190 
3018 147 8 48 400 
3019 1 10 617 136 
3020 2 49 401 170 
3021 403 87 4 192 
3022 169 5 618 86 
3023 189 3 619 106 
3024 133 3 18 619 
3025 146 40 6 402 
3026 616 7 38 145 
3027 401 20 2 134 
3028 617 68 1 167 
3029 6 67 168 402 
3030 190 8 400 105 
3031 403 4 28 135 
3032 616 124 7 191 
3033 191 39 7 145 
3034 134 9 2 170 
3035 147 39 8 190 
3036 136 1 9 167 
3037 148 5 30 618 
3038 192 19 4 135 
3039 29 5 148 169 
3040 697 428 599 545 
3041 697 599 428 696 
3042 213 697 396 328 
3043 396 697 213 696 
3044 697 180 428 177 
3045 697 428 180 696 
3046 724 489 694 659 
3047 724 694 489 556 
3048 724 461 694 556 
3049 724 694 461 625 
3050 734 538 537 571 
3051 734 537 538 630 
3052 570 734 412 571 
3053 412 734 570 653 
3054 400 182 105 371 
3055 400 105 182 190 
3056 707 25 345 125 
3057 707 345 25 208 
3058 705 469 488 486 
3059 705 488 469 659 
3060 709 611 505 595 
3061 709 505 611 680 
3062 709 398 297 680 
3063 709 297 398 382 
3064 32 708 139 604 
3065 139 708 32 140 
3066 737 509 422 510 
3067 737 422 509 708 
3068 144 414 34 137 
3069 144 34 414 615 
3070 713 67 160 214 
3071 713 160 67 168 
$EndElements
