<?xml version="1.0"?>
<VTKFile type="UnstructuredGrid" version="0.1" byte_order="LittleEndian">
  <UnstructuredGrid>
    <Piece NumberOfPoints="341" NumberOfCells="140">
      <Points>
        <DataArray type="Float64" NumberOfComponents="3" format="ascii">0 0 0.2 0 0 0 0 0.2 0.2 0 0.2 0 1 0 0.2 1 0 0 1 0.2 0.2 1 0.2 0 0 0 0.1 0 0 0.05 0 0 0.15 0 0.1 0.2 0 0.05 0.2 0 0.15 0.2 0 0.2 0.1 0 0.2 0.05 0 0.2 0.15 0 0.1 0 0 0.05 0 0 0.15 0 1 0 0.1 1 0 0.05 1 0 0.15 1 0.1 0.2 1 0.05 0.2 1 0.15 0.2 1 0.2 0.1 1 0.2 0.05 1 0.2 0.15 1 0.1 0 1 0.05 0 1 0.15 0 0.166666666667 0 0 0.333333333333 0 0 0.5 0 0 0.666666666667 0 0 0.833333333333 0 0 0.0833333333333 0 0 0.25 0 0 0.416666666667 0 0 0.583333333333 0 0 0.75 0 0 0.916666666667 0 0 0.166666666667 0 0.2 0.333333333333 0 0.2 0.5 0 0.2 0.666666666667 0 0.2 0.833333333333 0 0.2 0.0833333333333 0 0.2 0.25 0 0.2 0.416666666667 0 0.2 0.583333333333 0 0.2 0.75 0 0.2 0.916666666667 0 0.2 0.166666666667 0.2 0 0.333333333333 0.2 0 0.5 0.2 0 0.666666666667 0.2 0 0.833333333333 0.2 0 0.0833333333333 0.2 0 0.25 0.2 0 0.416666666667 0.2 0 0.583333333333 0.2 0 0.75 0.2 0 0.916666666667 0.2 0 0.166666666667 0.2 0.2 0.333333333333 0.2 0.2 0.5 0.2 0.2 0.666666666667 0.2 0.2 0.833333333333 0.2 0.2 0.0833333333333 0.2 0.2 0.25 0.2 0.2 0.416666666667 0.2 0.2 0.583333333333 0.2 0.2 0.75 0.2 0.2 0.916666666667 0.2 0.2 0 0.052277696793 0.052277696793 0 0.075 0.125 0 0.128504616132 0.0701712827988 0 0.14375 0.14375 0 0.0375 0.1625 0 0.0375 0.1125 0 0.0875 0.1625 0 0.0261388483965 0.0761388483965 0 0.0261388483965 0.0261388483965 0 0.0761388483965 0.0261388483965 0 0.171875 0.171875 0 0.121875 0.171875 0 0.171875 0.121875 0 0.164252308066 0.0350856413994 0 0.164252308066 0.0850856413994 0 0.114252308066 0.0350856413994 0 0.0636388483965 0.0886388483965 0 0.109375 0.134375 0 0.136127308066 0.106960641399 0 0.0903911564626 0.0612244897959 0 0.101752308066 0.0975856413994 1 0.052277696793 0.052277696793 1 0.075 0.125 1 0.128504616132 0.0701712827988 1 0.14375 0.14375 1 0.0375 0.1125 1 0.0375 0.1625 1 0.0875 0.1625 1 0.0261388483965 0.0261388483965 1 0.0261388483965 0.0761388483965 1 0.0761388483965 0.0261388483965 1 0.121875 0.171875 1 0.171875 0.171875 1 0.171875 0.121875 1 0.164252308066 0.0850856413994 1 0.164252308066 0.0350856413994 1 0.114252308066 0.0350856413994 1 0.0636388483965 0.0886388483965 1 0.109375 0.134375 1 0.136127308066 0.106960641399 1 0.0903911564626 0.0612244897959 1 0.101752308066 0.0975856413994 0.25 0 0.1 0.101825396825 0 0.1 0.75 0 0.1 0.898174603175 0 0.1 0.416666666667 0 0.1 0.583333333333 0 0.1 0.0509126984127 0 0.1 0.0509126984127 0 0.15 0.134246031746 0 0.15 0.0509126984127 0 0.05 0.134246031746 0 0.05 0.949087301587 0 0.15 0.949087301587 0 0.1 0.865753968254 0 0.15 0.949087301587 0 0.05 0.865753968254 0 0.05 0.291666666667 0 0.05 0.208333333333 0 0.05 0.175912698413 0 0.1 0.458333333333 0 0.05 0.375 0 0.05 0.333333333333 0 0.1 0.625 0 0.05 0.541666666667 0 0.05 0.5 0 0.1 0.791666666667 0 0.05 0.708333333333 0 0.05 0.666666666667 0 0.1 0.824087301587 0 0.1 0.208333333333 0 0.15 0.291666666667 0 0.15 0.375 0 0.15 0.458333333333 0 0.15 0.541666666667 0 0.15 0.625 0 0.15 0.708333333333 0 0.15 0.791666666667 0 0.15 0.25 0.2 0.1 0.101825396825 0.2 0.1 0.583333333333 0.2 0.1 0.416666666667 0.2 0.1 0.75 0.2 0.1 0.898174603175 0.2 0.1 0.0509126984127 0.2 0.15 0.0509126984127 0.2 0.1 0.134246031746 0.2 0.15 0.0509126984127 0.2 0.05 0.134246031746 0.2 0.05 0.949087301587 0.2 0.1 0.949087301587 0.2 0.15 0.865753968254 0.2 0.15 0.949087301587 0.2 0.05 0.865753968254 0.2 0.05 0.208333333333 0.2 0.05 0.291666666667 0.2 0.05 0.175912698413 0.2 0.1 0.375 0.2 0.05 0.458333333333 0.2 0.05 0.333333333333 0.2 0.1 0.541666666667 0.2 0.05 0.625 0.2 0.05 0.5 0.2 0.1 0.708333333333 0.2 0.05 0.791666666667 0.2 0.05 0.666666666667 0.2 0.1 0.824087301587 0.2 0.1 0.291666666667 0.2 0.15 0.208333333333 0.2 0.15 0.458333333333 0.2 0.15 0.375 0.2 0.15 0.625 0.2 0.15 0.541666666667 0.2 0.15 0.791666666667 0.2 0.15 0.708333333333 0.2 0.15 0.25 0.1 0 0.101825396825 0.1 0 0.583333333333 0.1 0 0.416666666667 0.1 0 0.75 0.1 0 0.898174603175 0.1 0 0.0509126984127 0.1 0 0.0509126984127 0.05 0 0.134246031746 0.05 0 0.0509126984127 0.15 0 0.134246031746 0.15 0 0.949087301587 0.05 0 0.949087301587 0.1 0 0.865753968254 0.05 0 0.949087301587 0.15 0 0.865753968254 0.15 0 0.208333333333 0.05 0 0.291666666667 0.05 0 0.175912698413 0.1 0 0.375 0.05 0 0.458333333333 0.05 0 0.333333333333 0.1 0 0.541666666667 0.05 0 0.625 0.05 0 0.5 0.1 0 0.708333333333 0.05 0 0.791666666667 0.05 0 0.666666666667 0.1 0 0.824087301587 0.1 0 0.291666666667 0.15 0 0.208333333333 0.15 0 0.458333333333 0.15 0 0.375 0.15 0 0.625 0.15 0 0.541666666667 0.15 0 0.791666666667 0.15 0 0.708333333333 0.15 0 0.25 0.1 0.2 0.101825396825 0.1 0.2 0.583333333333 0.1 0.2 0.416666666667 0.1 0.2 0.75 0.1 0.2 0.898174603175 0.1 0.2 0.0509126984127 0.05 0.2 0.0509126984127 0.1 0.2 0.134246031746 0.05 0.2 0.0509126984127 0.15 0.2 0.134246031746 0.15 0.2 0.949087301587 0.1 0.2 0.949087301587 0.05 0.2 0.865753968254 0.05 0.2 0.949087301587 0.15 0.2 0.865753968254 0.15 0.2 0.291666666667 0.05 0.2 0.208333333333 0.05 0.2 0.175912698413 0.1 0.2 0.458333333333 0.05 0.2 0.375 0.05 0.2 0.333333333333 0.1 0.2 0.625 0.05 0.2 0.541666666667 0.05 0.2 0.5 0.1 0.2 0.791666666667 0.05 0.2 0.708333333333 0.05 0.2 0.666666666667 0.1 0.2 0.824087301587 0.1 0.2 0.208333333333 0.15 0.2 0.291666666667 0.15 0.2 0.375 0.15 0.2 0.458333333333 0.15 0.2 0.541666666667 0.15 0.2 0.625 0.15 0.2 0.708333333333 0.15 0.2 0.791666666667 0.15 0.2 0.0509126984127 0.171875 0.121875 0.0509126984127 0.164252308066 0.0850856413994 0.0509126984127 0.1375 0.1125 0.949087301587 0.164252308066 0.0850856413994 0.949087301587 0.171875 0.121875 0.949087301587 0.1375 0.1125 0.101825396825 0.15 0.15 0.101825396825 0.05 0.15 0.101825396825 0.1 0.1 0.175912698413 0.15 0.15 0.175912698413 0.05 0.15 0.101825396825 0.05 0.05 0.101825396825 0.15 0.05 0.175912698413 0.1 0.1 0.824087301587 0.15 0.15 0.898174603175 0.15 0.15 0.898174603175 0.1 0.1 0.898174603175 0.15 0.05 0.824087301587 0.15 0.05 0.824087301587 0.1 0.1 0.898174603175 0.05 0.05 0.824087301587 0.05 0.15 0.898174603175 0.05 0.15 0.0509126984127 0.0761388483965 0.0261388483965 0.0509126984127 0.114252308066 0.0350856413994 0.0509126984127 0.0875 0.0625 0.949087301587 0.114252308066 0.0350856413994 0.949087301587 0.0875 0.0625 0.949087301587 0.0761388483965 0.0261388483965 0.824087301587 0.05 0.05 0.75 0.05 0.15 0.175912698413 0.15 0.05 0.25 0.15 0.15 0.75 0.15 0.15 0.175912698413 0.05 0.05 0.25 0.05 0.15 0.666666666667 0.1 0.1 0.666666666667 0.15 0.05 0.75 0.15 0.05 0.75 0.1 0.1 0.75 0.05 0.05 0.666666666667 0.05 0.05 0.583333333333 0.1 0.1 0.666666666667 0.05 0.15 0.666666666667 0.15 0.15 0.583333333333 0.05 0.15 0.583333333333 0.05 0.05 0.333333333333 0.05 0.05 0.416666666667 0.15 0.05 0.333333333333 0.1 0.1 0.333333333333 0.05 0.15 0.416666666667 0.15 0.15 0.416666666667 0.1 0.1 0.583333333333 0.15 0.15 0.5 0.15 0.15 0.583333333333 0.15 0.05 0.5 0.1 0.1 0.5 0.05 0.15 0.5 0.05 0.05 0.5 0.15 0.05 0.333333333333 0.15 0.05 0.25 0.05 0.05 0.25 0.1 0.1 0.25 0.15 0.05 0.333333333333 0.15 0.15 0.416666666667 0.05 0.15 0.416666666667 0.05 0.05 0.0509126984127 0.121875 0.171875 0.0509126984127 0.0875 0.1625 0.949087301587 0.0875 0.1625 0.949087301587 0.121875 0.171875 0.0509126984127 0.0261388483965 0.0761388483965 0.0509126984127 0.0375 0.1125 0.949087301587 0.0261388483965 0.0761388483965 0.949087301587 0.0375 0.1125</DataArray>
      </Points>
      <Cells>
        <DataArray type="Int32" Name="connectivity" format="ascii">156 79 78 77 266 94 267 268 93 96 99 98 100 160 117 114 115 269 271 270 156 230 119 229 272 273 274 275 247 276 119 193 156 229 277 278 274 276 279 275 234 159 160 197 280 183 281 282 284 283 197 234 233 121 282 257 285 286 288 287 76 193 78 77 289 290 95 92 291 96 197 99 98 97 292 117 293 294 116 113 120 197 233 121 295 285 296 146 286 287 193 155 156 229 297 173 278 279 298 275 159 234 233 197 280 257 299 284 282 285 119 118 193 229 136 300 277 276 301 279 156 78 193 77 267 290 278 268 96 291 160 99 98 197 269 117 271 283 292 293 159 233 194 196 299 302 303 304 305 219 233 194 196 120 302 219 305 296 307 306 194 233 231 120 302 256 308 307 296 309 159 233 231 194 299 256 310 303 302 308 194 231 123 120 308 311 312 307 309 145 118 195 158 232 313 314 315 316 318 317 157 231 232 194 319 253 320 321 308 322 231 123 232 194 311 323 253 308 312 322 123 195 232 194 324 318 323 312 216 322 157 159 231 194 182 310 319 321 303 308 157 232 195 194 320 318 325 321 322 216 158 192 118 155 326 327 315 176 329 328 118 158 155 232 315 176 328 316 317 330 232 122 195 123 331 332 318 323 142 324 229 118 155 232 301 328 298 250 316 330 195 192 118 158 213 327 313 314 326 315 195 118 122 232 313 139 332 318 316 331 195 158 232 157 314 317 318 325 179 320 233 196 197 120 305 220 285 296 306 295 196 233 197 159 305 285 220 304 299 284 155 118 193 192 328 300 297 329 327 210 118 155 193 229 328 297 300 301 298 279 79 156 230 77 266 272 333 93 268 334 98 234 100 160 335 336 114 271 281 270 193 76 119 77 289 337 277 291 92 338 97 98 197 121 113 293 294 339 340 286 119 230 156 77 273 272 274 338 334 268 119 156 193 77 274 278 277 338 268 291 197 98 234 121 293 335 282 286 340 288 160 98 234 197 271 335 281 283 293 282 66 155 158 232 184 176 187 260 330 317 44 122 118 232 149 139 148 249 331 316 118 33 192 195 134 209 327 313 211 213 55 192 158 155 221 326 174 172 329 176 229 44 118 232 245 148 301 250 249 316 192 195 55 158 213 224 221 326 314 174 123 232 45 231 323 248 151 311 253 252 194 123 195 34 312 324 216 214 141 212 155 66 229 232 184 259 298 330 260 250 67 231 232 157 262 253 261 189 319 320 67 232 158 157 261 317 186 189 320 179 56 157 195 194 177 325 223 226 321 216 120 194 35 123 307 215 144 145 312 140 231 46 123 120 251 152 311 309 153 145 68 233 231 159 264 256 263 191 299 310 122 232 45 123 331 248 150 142 323 151 159 157 57 194 182 178 180 303 321 225 157 195 158 56 325 314 179 177 223 175 194 57 159 196 225 180 303 219 228 304 194 120 35 196 307 144 215 219 306 217 233 46 231 120 255 251 256 296 153 309 118 33 195 122 134 211 313 139 138 332 123 122 195 34 142 332 324 141 137 212 231 68 159 157 263 191 310 319 188 182 121 120 197 36 146 295 286 133 143 205 234 47 233 121 242 254 257 288 131 287 58 160 159 197 170 183 181 207 283 284 69 234 159 160 244 280 190 168 281 183 54 193 155 156 202 297 171 165 278 173 193 32 118 119 200 135 300 277 128 136 230 43 119 229 237 126 273 247 246 276 156 65 230 229 163 239 272 275 258 247 197 159 58 196 284 181 207 220 304 227 69 234 233 159 244 257 265 190 280 299 120 233 47 121 296 254 154 146 287 131 196 197 120 36 220 295 306 218 205 143 193 192 54 155 210 222 202 297 329 171 65 156 155 229 163 173 185 258 275 298 119 43 118 229 126 147 136 276 246 301 118 32 193 192 135 200 300 327 208 210 76 193 17 78 289 198 85 95 290 91 99 197 29 97 292 204 112 116 294 106 79 78 14 156 94 90 88 266 267 162 99 100 26 160 115 109 110 269 270 166 76 8 119 77 83 124 337 92 81 338 20 98 97 121 101 113 105 130 340 339 193 76 1 119 289 84 199 277 337 127 97 197 5 121 294 203 104 339 286 132 230 11 79 77 236 87 333 334 82 93 98 234 23 100 335 240 103 114 336 107 2 79 156 230 86 266 161 238 333 272 100 234 6 160 336 243 108 270 281 167 78 193 3 156 290 201 89 267 278 164 7 99 160 197 111 269 169 206 292 283 119 0 230 77 125 235 273 338 80 334 234 98 4 121 335 102 241 288 340 129 119 8 0 77 124 10 125 338 81 80 0 11 230 77 12 236 235 80 82 334 20 4 98 121 22 102 101 130 129 340 234 4 98 23 241 102 335 240 24 103 79 14 2 156 88 16 86 266 162 161 79 2 11 230 86 13 87 333 238 236 23 234 6 100 240 243 25 107 336 108 100 6 26 160 108 28 109 270 167 166 1 76 193 17 84 289 199 18 85 198 1 76 8 119 84 83 9 127 337 124 97 5 20 121 104 21 105 339 132 130 29 197 5 97 204 203 30 106 294 104 3 14 78 156 15 90 89 164 162 267 26 7 99 160 27 111 110 166 169 269 17 193 3 78 198 201 19 91 290 89 7 99 197 29 111 292 206 31 112 204 193 1 32 119 199 37 200 277 127 128 3 193 54 156 201 202 59 164 278 165 43 0 230 119 48 235 237 126 125 273 65 2 156 230 70 161 163 239 238 272 58 7 160 197 64 169 170 207 206 283 234 4 47 121 241 53 242 288 129 131 197 5 121 36 203 132 286 205 42 133 69 6 234 160 75 243 244 168 167 281 194 123 34 35 312 141 214 215 140 40 123 45 46 231 151 51 152 311 252 251 158 66 232 67 187 260 317 186 72 261 233 68 69 159 264 74 265 299 191 190 120 35 196 36 144 217 306 143 41 218 192 55 54 155 221 60 222 329 172 171 33 195 122 34 211 332 138 39 212 137 67 68 231 157 73 263 262 189 188 319 56 57 157 194 62 178 177 226 225 321 46 233 47 120 255 254 52 153 296 154 32 118 33 192 135 134 38 208 327 209 232 44 122 45 249 149 331 248 50 150 195 55 158 56 224 174 314 223 61 175 57 58 159 196 63 181 180 228 227 304 66 65 155 229 71 185 184 259 258 298 118 43 44 229 147 49 148 301 246 245</DataArray>
        <DataArray type="Int32" Name="offsets" format="ascii">10 20 30 40 50 60 70 80 90 100 110 120 130 140 150 160 170 180 190 200 210 220 230 240 250 260 270 280 290 300 310 320 330 340 350 360 370 380 390 400 410 420 430 440 450 460 470 480 490 500 510 520 530 540 550 560 570 580 590 600 610 620 630 640 650 660 670 680 690 700 710 720 730 740 750 760 770 780 790 800 810 820 830 840 850 860 870 880 890 900 910 920 930 940 950 960 970 980 990 1000 1010 1020 1030 1040 1050 1060 1070 1080 1090 1100 1110 1120 1130 1140 1150 1160 1170 1180 1190 1200 1210 1220 1230 1240 1250 1260 1270 1280 1290 1300 1310 1320 1330 1340 1350 1360 1370 1380 1390 1400</DataArray>
        <DataArray type="UInt8" Name="types" format="ascii">24 24 24 24 24 24 24 24 24 24 24 24 24 24 24 24 24 24 24 24 24 24 24 24 24 24 24 24 24 24 24 24 24 24 24 24 24 24 24 24 24 24 24 24 24 24 24 24 24 24 24 24 24 24 24 24 24 24 24 24 24 24 24 24 24 24 24 24 24 24 24 24 24 24 24 24 24 24 24 24 24 24 24 24 24 24 24 24 24 24 24 24 24 24 24 24 24 24 24 24 24 24 24 24 24 24 24 24 24 24 24 24 24 24 24 24 24 24 24 24 24 24 24 24 24 24 24 24 24 24 24 24 24 24 24 24 24 24 24 24</DataArray>
      </Cells>
      <PointData Vectors="Displacement">
        <DataArray type="Float64" Name="Displacement" NumberOfComponents="3" format="ascii">0 0 0 0 0.000579363903183 0.000220000000106 0 -0.000220000000201 0.000579363903478 0 0.000359363903259 0.000799363903491 0.00300000000177 2.26245558474e-12 -2.39876116209e-12 0.0030000000005 0.00057936390559 0.000219999997801 0.00300000000079 -0.00021999999805 0.000579363901141 0.00300000000014 0.000359363905138 0.000799363901111 0 0.000289681951579 0.000110000000092 0 0.000434522927394 0.000165000000129 0 0.000144840975748 5.50000000264e-05 0 -0.000110000000173 0.000289681951901 0 -5.50000001724e-05 0.000144840975916 0 -0.000165000000142 0.000434522927649 0 6.96819515115e-05 0.000689363903503 0 0.00021452292739 0.000744363903505 0 -7.51590243583e-05 0.000634363903492 0 0.000469363903238 0.000509681951771 0 0.000524363903206 0.000364840975924 0 0.000414363903259 0.000654522927621 0.00300000000037 0.0002896819535 0.000109999997644 0.0030000000008 0.000434522929684 0.000164999997672 0.00300000000062 0.000144840977433 5.499999747e-05 0.00300000000085 -0.000109999997815 0.000289681949926 0.00300000000056 -5.49999977035e-05 0.0001448409744 0.00300000000091 -0.000164999997974 0.000434522925323 0.00299999999895 6.96819545274e-05 0.00068936390114 0.00299999999864 0.000214522930642 0.000744363901224 0.00300000000036 -7.51590219255e-05 0.000634363901264 0.002999999999 0.000469363905087 0.000509681948515 0.00300000000031 0.00052436390532 0.000364840973536 0.00299999999982 0.000414363905174 0.000654522924904 0.000500000000072 0.000579363903317 0.000219999999984 0.00100000000034 0.000579363903582 0.000219999999761 0.00150000000062 0.00057936390402 0.000219999999619 0.00200000000045 0.000579363904461 0.000219999999219 0.00250000000044 0.000579363904909 0.000219999998491 0.000249999999891 0.00057936390328 0.000219999999996 0.000750000000276 0.000579363903393 0.000219999999846 0.00125000000055 0.00057936390372 0.000219999999715 0.00175000000055 0.000579363904242 0.000219999999452 0.00225000000041 0.000579363904647 0.000219999998887 0.00275000000044 0.000579363905142 0.000219999998063 0.000500000000274 -1.36028704311e-13 -1.56292764581e-13 0.0010000000004 2.38509123853e-14 -3.79260235361e-13 0.00150000000098 6.17143545355e-13 -3.63930286391e-13 0.00200000000112 1.12251143396e-12 -8.35272952415e-13 0.00250000000143 1.4363422859e-12 -1.57556779867e-12 0.000250000000167 -9.49764696362e-14 -3.45600883422e-16 0.000750000000355 -9.52552813759e-14 -2.70765731028e-13 0.00125000000073 2.30639250138e-13 -4.481303346e-13 0.001750000001 8.8452330571e-13 -5.73320352183e-13 0.00225000000129 1.22871654107e-12 -1.18325983333e-12 0.00275000000163 1.79905030385e-12 -1.9893485158e-12 0.000499999999906 0.000359363903212 0.000799363903328 0.000999999999792 0.000359363903499 0.00079936390349 0.00150000000009 0.000359363904095 0.000799363903061 0.00199999999992 0.000359363904488 0.000799363902723 0.00249999999982 0.000359363904918 0.000799363901922 0.000249999999949 0.000359363903263 0.00079936390345 0.000749999999916 0.000359363903203 0.000799363903281 0.00124999999992 0.00035936390377 0.0007993639034 0.00174999999998 0.000359363904268 0.000799363902986 0.00224999999987 0.000359363904709 0.000799363902326 0.00274999999988 0.000359363905189 0.000799363901561 0.00050000000026 -0.000220000000187 0.000579363903274 0.00100000000003 -0.000219999999945 0.000579363903136 0.00150000000029 -0.000219999999615 0.000579363903113 0.0020000000005 -0.000219999999143 0.000579363902598 0.002500000001 -0.000219999998548 0.000579363902078 0.000250000000107 -0.000220000000206 0.000579363903438 0.000750000000164 -0.000220000000132 0.00057936390319 0.00125000000032 -0.000219999999732 0.00057936390322 0.00175000000048 -0.000219999999316 0.000579363902894 0.00225000000075 -0.000219999998806 0.000579363902273 0.00275000000078 -0.000219999998268 0.00057936390163 0 0.000370419384363 0.000313933585992 0 0.000134761463605 0.000299761463831 0 0.000234735283944 0.000515066269038 0 4.8210976334e-06 0.000478292805625 0 6.73807317551e-05 0.000149880731896 0 0.00021222170758 0.00020488073195 0 1.23807316939e-05 0.000294721707808 0 0.000330050667966 0.000211966793053 0 0.00047489164378 0.000266966793045 0 0.000419891643798 0.00041180776888 0 -0.000107589451285 0.000528828354545 0 -5.25894512697e-05 0.000383987378717 0 3.72515245722e-05 0.00058382835457 0 0.000297049593598 0.000657215086269 0 0.000152208617728 0.000602215086269 0 0.000352049593596 0.000512374110408 0 0.000252590423986 0.000306847524916 0 6.97912806156e-05 0.000389027134722 0 0.000119778190788 0.000496679537335 0 0.000302577334158 0.000414499927504 0 0.000184748373768 0.000407413866429 0.00300000000056 0.000370419386597 0.000313933583633 0.00300000000086 0.000134761465851 0.000299761461454 0.00300000000036 0.000234735286129 0.000515066266547 0.00300000000062 4.82109994937e-06 0.000478292803232 0.0030000000009 0.000212221709834 0.000204880729601 0.00300000000125 6.73807339609e-05 0.00014988072955 0.00300000000065 1.23807339617e-05 0.000294721705691 0.00300000000061 0.000474891646049 0.000266966790722 0.00300000000075 0.000330050670221 0.00021196679068 0.00300000000033 0.000419891645854 0.000411807766454 0.00300000000083 -5.25894489972e-05 0.000383987376387 0.00300000000072 -0.000107589449009 0.0005288283522 0.00300000000014 3.72515269818e-05 0.000583828352107 0.00299999999997 0.000152208620174 0.000602215083717 0.00300000000031 0.000297049595541 0.000657215083674 0.00299999999979 0.000352049595491 0.000512374107692 0.00300000000074 0.000252590426236 0.000306847522558 0.00300000000082 6.97912828946e-05 0.000389027132289 0.00300000000051 0.000119778193061 0.000496679534859 0.00300000000056 0.000302577336322 0.000414499925182 0.00300000000064 0.000184748375993 0.000407413864026 0.000750000000288 0.000289681951747 0.00010999999983 0.000305476190555 0.000289681951565 0.000110000000022 0.00225000000087 0.000289681952952 0.000109999998894 0.0026945238105 0.000289681953431 0.000109999998145 0.00125000000063 0.000289681951947 0.000109999999666 0.00175000000084 0.000289681952564 0.000109999999458 0.000152738095339 0.000289681951562 0.000110000000066 0.000152738095307 0.000144840975773 5.50000000647e-05 0.000402738095382 0.000144840975711 5.49999999443e-05 0.00015273809524 0.000434522927384 0.000165000000089 0.000402738095231 0.000434522927402 0.000164999999952 0.00284726190607 0.00014484097776 5.49999978429e-05 0.00284726190557 0.000289681953497 0.000109999997821 0.00259726190599 0.000144840977446 5.49999982972e-05 0.00284726190542 0.000434522929474 0.000164999997927 0.00259726190546 0.000434522929153 0.000164999998309 0.000875000000283 0.000434522927695 0.000164999999777 0.00062500000014 0.000434522927528 0.000164999999919 0.000527738095352 0.000289681951575 0.000109999999891 0.00137500000065 0.000434522927979 0.000164999999651 0.0011250000005 0.000434522927757 0.00016499999968 0.00100000000048 0.000289681951778 0.000109999999691 0.00187500000068 0.000434522928499 0.000164999999359 0.00162500000069 0.000434522928301 0.000164999999558 0.00150000000072 0.000289681952284 0.000109999999573 0.00237500000065 0.000434522928926 0.000164999998691 0.00212500000064 0.000434522928701 0.000164999999082 0.00200000000081 0.000289681952812 0.000109999999239 0.00247226190569 0.000289681953148 0.000109999998502 0.00062500000024 0.000144840975757 5.4999999822e-05 0.000875000000337 0.000144840975827 5.49999996897e-05 0.00112500000057 0.000144840975993 5.49999996606e-05 0.00137500000082 0.000144840976257 5.4999999646e-05 0.00162500000084 0.000144840976585 5.49999995234e-05 0.00187500000086 0.000144840976884 5.49999993432e-05 0.00212500000101 0.000144840977063 5.49999990326e-05 0.00237500000117 0.000144840977182 5.49999986582e-05 0.000750000000096 6.9681951555e-05 0.000689363903171 0.000305476190475 6.96819515456e-05 0.000689363903432 0.00175000000014 6.96819524244e-05 0.000689363902997 0.00125000000003 6.96819519404e-05 0.000689363903221 0.00225000000038 6.96819529493e-05 0.00068936390237 0.0026945238098 6.96819533711e-05 0.000689363901611 0.00015273809526 -7.51590243436e-05 0.00063436390349 0.000152738095246 6.9681951514e-05 0.000689363903493 0.000402738095336 -7.51590243287e-05 0.000634363903369 0.000152738095221 0.000214522927396 0.000744363903481 0.000402738095222 0.00021452292739 0.000744363903395 0.0028472619047 6.9681953729e-05 0.00068936390153 0.00284726190518 -7.51590222657e-05 0.000634363901453 0.0025972619053 -7.51590225764e-05 0.000634363901795 0.00284726190498 0.000214522929314 0.000744363901374 0.00259726190483 0.000214522929142 0.000744363901766 0.000625000000027 0.000214522927379 0.000744363903247 0.000875000000124 0.000214522927544 0.000744363903347 0.000527738095282 6.96819515198e-05 0.000689363903296 0.00112500000007 0.00021452292774 0.000744363903348 0.00137500000015 0.000214522928019 0.000744363903173 0.00100000000013 6.96819517112e-05 0.000689363903275 0.00162500000007 0.000214522928257 0.000744363903063 0.00187500000007 0.000214522928449 0.000744363902884 0.00150000000007 6.96819522613e-05 0.000689363903107 0.00212500000013 0.000214522928717 0.000744363902548 0.00237500000008 0.000214522928932 0.000744363902131 0.00200000000028 6.96819526527e-05 0.000689363902675 0.00247226190506 6.96819531566e-05 0.000689363901969 0.000875000000044 -7.5159024191e-05 0.000634363903161 0.000625000000163 -7.51590243444e-05 0.000634363903206 0.00137500000011 -7.51590238005e-05 0.000634363903131 0.00112500000017 -7.51590240477e-05 0.000634363903311 0.0018750000004 -7.51590233605e-05 0.00063436390278 0.00162500000022 -7.51590236031e-05 0.000634363903071 0.00237500000069 -7.5159022835e-05 0.000634363902217 0.00212500000048 -7.51590231374e-05 0.000634363902493 0.000750000000049 0.000469363903309 0.000509681951606 0.000305476190426 0.000469363903251 0.000509681951714 0.00175000000022 0.000469363904272 0.000509681951219 0.0012500000003 0.000469363903718 0.000509681951424 0.00225000000016 0.000469363904674 0.000509681950578 0.00269452380966 0.000469363905093 0.0005096819499 0.000152738095197 0.000469363903249 0.000509681951757 0.000152738095208 0.000524363903252 0.000364840975909 0.000402738095168 0.000524363903245 0.000364840975815 0.00015273809521 0.000414363903252 0.00065452292761 0.00040273809515 0.000414363903232 0.000654522927521 0.00284726190506 0.000524363905277 0.000364840973795 0.00284726190455 0.000469363905234 0.000509681949395 0.00259726190505 0.000524363904996 0.000364840974179 0.00284726190467 0.000414363905278 0.000654522925463 0.00259726190475 0.000414363905012 0.000654522925906 0.000625000000088 0.000524363903255 0.000364840975836 0.00087500000017 0.000524363903441 0.000364840975718 0.000527738095199 0.000469363903209 0.000509681951652 0.00112500000039 0.000524363903587 0.000364840975628 0.00137500000043 0.000524363903862 0.00036484097551 0.00100000000018 0.000469363903436 0.000509681951522 0.00162500000042 0.000524363904148 0.000364840975422 0.00187500000035 0.00052436390438 0.000364840975211 0.00150000000024 0.000469363904027 0.000509681951355 0.0021250000003 0.000524363904555 0.000364840974909 0.00237500000027 0.000524363904765 0.000364840974534 0.00200000000021 0.000469363904469 0.000509681950935 0.00247226190489 0.000469363904865 0.000509681950238 0.00087500000008 0.000414363903314 0.000654522927455 0.00062499999996 0.000414363903224 0.000654522927464 0.00137500000018 0.000414363903927 0.00065452292725 0.00112500000012 0.000414363903546 0.000654522927411 0.00187500000008 0.000414363904369 0.000654522926979 0.0016250000001 0.000414363904162 0.000654522927176 0.00237499999999 0.000414363904789 0.000654522926248 0.00212500000004 0.000414363904587 0.000654522926638 0.000750000000288 -0.000110000000134 0.000289681951466 0.000305476190691 -0.000110000000169 0.00028968195169 0.0017500000007 -0.000109999999241 0.000289681951128 0.00125000000039 -0.000109999999795 0.00028968195129 0.00225000000115 -0.00010999999884 0.000289681950547 0.0026945238106 -0.000109999998324 0.000289681949862 0.000152738095381 -5.50000000952e-05 0.000144840975888 0.000152738095161 -0.00011000000017 0.00028968195161 0.000402738095453 -5.50000001504e-05 0.00014484097579 0.000152738095311 -0.000165000000195 0.000434522927567 0.000402738095401 -0.000165000000153 0.000434522927461 0.0028472619059 -0.000109999998093 0.000289681949624 0.00284726190611 -5.49999980739e-05 0.000144840973745 0.00259726190607 -5.49999984807e-05 0.000144840974146 0.00284726190565 -0.000164999998167 0.000434522925527 0.00259726190566 -0.000164999998456 0.000434522925909 0.000875000000374 -5.50000000749e-05 0.000144840975534 0.000625000000273 -5.50000001471e-05 0.000144840975637 0.000527738095481 -0.000110000000164 0.000289681951573 0.00137500000063 -5.49999996011e-05 0.000144840975427 0.00112500000041 -5.49999999459e-05 0.000144840975423 0.00100000000032 -0.000110000000025 0.000289681951327 0.00187500000095 -5.4999999055e-05 0.000144840975128 0.00162500000069 -5.49999992914e-05 0.000144840975351 0.00150000000046 -0.000109999999433 0.000289681951289 0.00237500000127 -5.4999998724e-05 0.000144840974471 0.00212500000112 -5.49999988852e-05 0.00014484097486 0.002000000001 -0.000109999999044 0.000289681950854 0.00247226190585 -0.000109999998615 0.000289681950258 0.000625000000256 -0.000165000000177 0.000434522927367 0.000875000000267 -0.000165000000125 0.000434522927331 0.00112500000019 -0.000164999999859 0.000434522927294 0.00137500000024 -0.000164999999649 0.000434522927194 0.00162500000056 -0.000164999999369 0.000434522927043 0.00187500000072 -0.000164999999223 0.000434522926845 0.0021250000009 -0.000164999998946 0.000434522926573 0.00237500000102 -0.00016499999864 0.000434522926304 0.000152738095258 3.72515245695e-05 0.000583828354561 0.000152738095247 0.000152208617732 0.000602215086252 0.000152738095251 0.000102221707547 0.000494562683653 0.00284726190509 0.000152208619802 0.000602215084098 0.00284726190518 3.72515266517e-05 0.000583828352491 0.00284726190533 0.000102221709635 0.000494562681522 0.000305476190554 -2.0159024321e-05 0.000489522927553 0.00030547619061 8.9840975705e-05 0.000199840975851 0.000305476190519 0.000179681951552 0.000399681951715 0.000527738095351 -2.01590243098e-05 0.000489522927439 0.000527738095397 8.98409757048e-05 0.000199840975727 0.000305476190487 0.000379522927396 0.00030984097587 0.000305476190464 0.000269522927402 0.000599522927581 0.000527738095315 0.000179681951563 0.000399681951618 0.00247226190545 -2.01590227339e-05 0.000489522926106 0.00269452381022 -2.01590224758e-05 0.000489522925747 0.00269452381016 0.000179681953401 0.000399681949875 0.00269452380974 0.000269522929238 0.00059952292575 0.00247226190499 0.000269522929006 0.000599522926092 0.0024722619054 0.000179681953133 0.000399681950212 0.00269452381007 0.000379522929269 0.000309840974022 0.00247226190582 8.98409772638e-05 0.000199840974331 0.00269452381059 8.98409775531e-05 0.000199840974003 0.00015273809522 0.00041989164382 0.000411807768863 0.000152738095228 0.000352049593597 0.00051237411039 0.000152738095248 0.00030206268343 0.000404721707793 0.002847261905 0.000352049595641 0.000512374108238 0.00284726190528 0.000302062685478 0.000404721705678 0.00284726190509 0.00041989164585 0.000411807766715 0.00247226190528 0.000379522929004 0.000309840974374 0.00225000000101 8.98409770566e-05 0.000199840974725 0.000527738095245 0.000269522927407 0.000599522927472 0.000750000000216 -2.01590243043e-05 0.000489522927343 0.00225000000076 -2.01590229487e-05 0.000489522926471 0.000527738095241 0.000379522927405 0.000309840975771 0.000750000000252 8.98409757695e-05 0.00019984097564 0.0020000000006 0.000179681952723 0.000399681950928 0.00200000000027 0.000269522928596 0.000599522926824 0.00225000000025 0.000269522928825 0.000599522926463 0.00225000000062 0.000179681952935 0.000399681950586 0.00225000000051 0.000379522928802 0.000309840974733 0.00200000000051 0.000379522928609 0.000309840975085 0.00175000000047 0.000179681952531 0.000399681951199 0.0020000000008 8.98409769411e-05 0.000199840975053 0.0020000000006 -2.0159023234e-05 0.000489522926771 0.00175000000063 8.98409767367e-05 0.000199840975335 0.00175000000052 0.0003795229284 0.000309840975335 0.0010000000004 0.000379522927667 0.000309840975626 0.00125000000019 0.000269522927827 0.000599522927327 0.00100000000028 0.000179681951726 0.000399681951468 0.00100000000039 8.98409758394e-05 0.00019984097551 0.00125000000019 -2.01590239647e-05 0.00048952292729 0.00125000000036 0.000179681951925 0.000399681951407 0.00175000000045 -2.01590234219e-05 0.000489522927046 0.00150000000029 -2.01590236196e-05 0.000489522927168 0.00175000000018 0.000269522928361 0.00059952292711 0.00150000000039 0.000179681952248 0.00039968195133 0.00150000000062 8.98409763974e-05 0.000199840975409 0.00150000000045 0.00037952292814 0.000309840975466 0.00150000000015 0.000269522928134 0.00059952292723 0.00100000000011 0.000269522927542 0.000599522927374 0.000750000000198 0.000379522927551 0.000309840975754 0.000750000000079 0.000179681951586 0.000399681951473 0.000750000000066 0.00026952292744 0.000599522927386 0.00100000000023 -2.01590241153e-05 0.000489522927318 0.00125000000052 8.98409760495e-05 0.000199840975508 0.00125000000044 0.00037952292781 0.000309840975562 0.000152738095311 -5.25894512652e-05 0.000383987378673 0.000152738095333 1.2380731719e-05 0.000294721707796 0.00284726190573 1.2380733776e-05 0.000294721705648 0.00284726190564 -5.25894491867e-05 0.000383987376561 0.000152738095269 0.000330050667991 0.000211966793016 0.000152738095288 0.000212221707606 0.000204880731952 0.00284726190552 0.000330050670035 0.000211966790853 0.0028472619057 0.00021222170963 0.000204880729794</DataArray>
        <DataArray type="Float64" Name="DisplacementMagnitude" format="ascii">0 0.000619727788918 0.000619727789229 0.000876427444327 0.00300000000177 0.00306334172712 0.00306334172658 0.00312539998457 0.000309863894461 0.000464795841713 0.000154931947185 0.000309863894791 0.000154931947394 0.000464795841956 0.000692876732052 0.000774659736411 0.000638800783497 0.000692876731911 0.000638800783264 0.00077465973634 0.00301596015158 0.00303579234805 0.00300399798805 0.00301596015171 0.00300399798784 0.00303579234754 0.0030789735557 0.00309840244272 0.00306725715256 0.00307897355592 0.00306725715307 0.00309840244385 0.000796280435859 0.00117646187076 0.00162297952389 0.00209381530591 0.0025756673962 0.000668253344449 0.000972914453023 0.00139519265128 0.00185649199708 0.00233378716583 0.00281896479867 0.000500000000274 0.0010000000004 0.00150000000098 0.00200000000112 0.00250000000143 0.000250000000167 0.000750000000355 0.00125000000073 0.001750000001 0.00225000000129 0.00275000000163 0.00100902183563 0.00132970863911 0.00173727518412 0.0021836036876 0.00264917441158 0.000911386342383 0.00115352722754 0.00152663848543 0.00195719826921 0.00241466872754 0.00288628222161 0.000796280436002 0.00117646187031 0.00162297952326 0.00209381530543 0.00257566739611 0.000668253344736 0.00097291445288 0.00139519265086 0.00185649199657 0.00233378716555 0.0028189647983 0.00048555619317 0.000328660291595 0.000566033492851 0.000478317102867 0.00016433014576 0.000294981639246 0.000294981639378 0.000392254209387 0.000544787428197 0.000588128073672 0.000539661855794 0.000387571873849 0.00058501557559 0.000721228209846 0.000621152536371 0.000621664013248 0.000397438455407 0.000395237820053 0.00051091817133 0.000513189276045 0.0004473455266 0.00303904011495 0.00301794923609 0.00305293201949 0.00303789190926 0.0030144674775 0.00300449736293 0.00301446747706 0.00304906433951 0.00302553522038 0.00305710559726 0.00302493172821 0.00304815270614 0.00305650833826 0.00306363027647 0.00308547729376 0.00306373401957 0.00302621171268 0.00302592348511 0.00304319525811 0.0030435773747 0.00303316963305 0.000811489761835 0.000435122208193 0.00227123658775 0.00271228210168 0.00128783369842 0.00177722132456 0.000345462818322 0.000217561104125 0.000431511160586 0.000489248505556 0.000615006624169 0.0028514740522 0.00286407332179 0.00260187880519 0.00288494983208 0.00263852318181 0.000990787653897 0.000778883928898 0.000611982949379 0.00145143383474 0.00121723464285 0.00104690765308 0.00193175054749 0.00169016572481 0.00153167086397 0.00242005375528 0.00217523795893 0.00202386156563 0.00249160481698 0.000643916849087 0.000888610662121 0.00113561829396 0.00138370116377 0.00163236910997 0.00188139015405 0.00213064049357 0.0023800480907 0.00102106716993 0.000757227752181 0.00188217378734 0.0014291879392 0.0023542680744 0.00278218200789 0.000656806947843 0.000709511868502 0.000755158535852 0.000789573703283 0.000873095458926 0.00293035467433 0.00291804160265 0.00267466555728 0.00295076228464 0.00271032601502 0.000995350544714 0.00116864139378 0.000870968232915 0.00136591460469 0.00157820236579 0.00121658463158 0.0018002007408 0.0020287244039 0.001652294818 0.00226179634515 0.00249814385219 0.00211661951374 0.00256751963793 0.00108337040786 0.000893695384812 0.00151614360823 0.00129371227137 0.0019808309977 0.00174605024013 0.00245940875871 0.00221893926046 0.00102106716997 0.000757227752064 0.00188217378762 0.00142918793952 0.00235426807447 0.00278218200811 0.000709511868361 0.000656806947637 0.000755158535647 0.000789573703218 0.000873095458834 0.00291804160308 0.00293035467447 0.00267466555755 0.00295076228451 0.00271032601511 0.000893695384791 0.00108337040807 0.00087096823283 0.00129371227162 0.00151614360872 0.00121658463163 0.00174605024059 0.00198083099802 0.00165229481833 0.0022189392607 0.00245940875875 0.00211661951393 0.00256751963809 0.0011686413937 0.000995350544693 0.00157820236588 0.0013659146047 0.00202872440402 0.00180020074091 0.00249814385225 0.00226179634518 0.000811489761776 0.00043512220841 0.00177722132417 0.00128783369805 0.00227123658772 0.00271228210141 0.000217561104261 0.000345462818317 0.000431511160706 0.000489248505777 0.000615006624377 0.00286407332174 0.00285147405204 0.00260187880508 0.00288494983173 0.00263852318149 0.000888610662133 0.000643916849121 0.000611982949538 0.0013837011635 0.00113561829374 0.00104690765284 0.00188139015399 0.0016323691097 0.00153167086352 0.00238004809065 0.00213064049352 0.00202386156554 0.0024916048168 0.000778883928956 0.000990787653781 0.00121723464243 0.00145143383411 0.00169016572434 0.00193175054715 0.00217523795875 0.00242005375516 0.000604625627488 0.000639655687977 0.00052760823657 0.002914229028 0.00290674105797 0.00289170224633 0.000577368847321 0.000375930205723 0.000534178780199 0.000720101784496 0.000571415185157 0.000577368847186 0.000724835189564 0.000685958281102 0.00252034085205 0.00273870364312 0.00272992487606 0.00277354086127 0.00255815348934 0.00251079871644 0.00273870364334 0.00248195220486 0.00270341753748 0.000607637685449 0.000640152381143 0.000527608236497 0.00291433808955 0.00289170224647 0.00290736908341 0.00252034085221 0.00226064323166 0.000842957796177 0.000895845457085 0.00230272427467 0.000720101784376 0.000781349996384 0.00204744505871 0.002105248287 0.00234404998873 0.00229227643809 0.00230272427472 0.0020591355189 0.00180403194756 0.00201196615768 0.00205913551872 0.00176366318177 0.00181728893822 0.00111357042148 0.00141229258636 0.00109180184405 0.00102372252941 0.00134258671343 0.00132458720628 0.00181728893792 0.00157798576778 0.00186937699506 0.00156269999276 0.00151591814368 0.00157798576813 0.00163770276592 0.00119669141768 0.000895845457146 0.000868637591966 0.000997281479311 0.00111357042125 0.0012690578465 0.00134258671376 0.000416582384558 0.000332179309003 0.00286250144562 0.00287351915164 0.000420942146297 0.000332179308894 0.00287415443633 0.00286250144578</DataArray>
        <DataArray type="Float64" Name="NodalVonMises" format="ascii">419999999.974 419999999.988 419999999.982 419999999.998 419999999.809 419999999.871 419999999.934 419999999.723 419999999.997 420000000 419999999.993 419999999.93 419999999.91 419999999.944 420000000.007 420000000.005 420000000.009 419999999.989 419999999.988 419999999.987 419999999.812 419999999.806 419999999.694 419999999.727 419999999.49 419999999.914 419999999.604 419999999.209 419999999.865 419999999.639 419999999.741 419999999.599 419999999.976 419999999.991 419999999.988 419999999.998 420000000.001 419999999.969 419999999.978 419999999.99 420000000.001 419999999.995 419999999.992 419999999.997 419999999.996 419999999.988 419999999.983 419999999.992 420000000.011 419999999.984 420000000.037 419999999.972 419999999.972 420000000.023 419999999.99 419999999.945 419999999.979 419999999.995 420000000.001 420000000.002 419999999.952 419999999.954 420000000.008 419999999.992 420000000.018 419999999.984 419999999.963 419999999.959 419999999.994 419999999.962 419999999.98 419999999.997 419999999.893 419999999.978 420000000.008 419999999.946 419999999.993 419999999.982 419999999.995 419999999.983 419999999.961 419999999.996 419999999.922 419999999.999 419999999.994 419999999.99 419999999.983 419999999.939 420000000.007 419999999.997 420000000.005 419999999.989 419999999.992 419999999.976 420000000 419999999.987 419999999.991 419999999.857 419999999.905 419999999.769 419999999.894 419999999.815 419999999.738 419999999.634 419999999.831 419999999.87 419999999.659 419999999.846 419999999.93 419999999.802 419999999.474 419999999.625 419999999.589 419999999.975 419999999.91 419999999.85 419999999.797 419999999.986 419999999.978 419999999.994 419999999.994 419999999.955 420000000.008 419999999.986 419999999.997 419999999.995 420000000.001 419999999.988 419999999.979 419999999.915 419999999.812 419999999.999 419999999.914 419999999.999 419999999.991 419999999.979 419999999.99 419999999.992 420000000.012 420000000.013 419999999.998 419999999.988 419999999.999 420000000.003 419999999.997 419999999.993 419999999.999 419999999.989 419999999.982 420000000.016 420000000.016 419999999.972 419999999.981 419999999.987 419999999.982 419999999.971 419999999.994 419999999.985 419999999.947 419999999.987 419999999.91 419999999.995 420000000.007 419999999.98 420000000.002 419999999.993 419999999.604 419999999.941 419999999.95 419999999.764 420000000.008 419999999.986 419999999.95 419999999.981 419999999.943 419999999.957 419999999.907 419999999.988 419999999.992 420000000.001 419999999.991 419999999.996 419999999.984 419999999.982 419999999.986 419999999.987 419999999.973 419999999.906 419999999.984 419999999.981 419999999.968 420000000 419999999.959 419999999.991 419999999.99 419999999.983 420000000.001 419999999.95 419999999.989 419999999.984 419999999.976 419999999.996 420000000.003 419999999.893 419999999.639 420000000.002 419999999.895 420000000.004 419999999.974 419999999.969 419999999.987 419999999.995 419999999.984 419999999.946 419999999.984 419999999.999 419999999.984 419999999.998 420000000.002 420000000.004 420000000.001 419999999.942 419999999.988 419999999.97 419999999.94 419999999.996 420000000.002 419999999.994 419999999.998 419999999.996 419999999.978 419999999.977 419999999.979 419999999.988 419999999.939 419999999.967 419999999.93 420000000.005 419999999.973 419999999.981 419999999.727 419999999.847 420000000.002 419999999.957 419999999.947 419999999.976 419999999.992 419999999.993 419999999.994 420000000 420000000.009 419999999.987 419999999.96 419999999.956 419999999.982 419999999.985 419999999.984 419999999.973 419999999.986 420000000.02 419999999.952 419999999.953 419999999.945 419999999.99 420000000.004 419999999.975 420000000.001 420000000 419999999.997 419999999.791 419999999.913 419999999.985 419999999.993 419999999.998 419999999.997 419999999.986 419999999.994 419999999.989 419999999.993 419999999.995 419999999.967 419999999.983 419999999.994 420000000.011 419999999.993 419999999.993 419999999.987 419999999.99 420000000.005 419999999.991 419999999.991 419999999.993 419999999.848 419999999.997 419999999.851 420000000.004 419999999.99 419999999.995 420000000.006 419999999.987 419999999.987 419999999.996 419999999.987 419999999.99 419999999.999 420000000.003 420000000.003 419999999.991 419999999.98 419999999.986 419999999.989 419999999.979 419999999.986 419999999.994 419999999.966 419999999.931 419999999.975 419999999.953 419999999.999 419999999.968 419999999.986 419999999.99 419999999.984 419999999.983 419999999.985 419999999.986 419999999.935 419999999.957 419999999.953 419999999.961 419999999.957 420000000.009 420000000.007 419999999.968 419999999.965 419999999.883 419999999.924 419999999.997 419999999.994 419999999.915 419999999.928</DataArray>
        <DataArray type="Float64" Name="NodalStressTrace" format="ascii">419999999.997 420000000.013 420000000.019 419999999.992 420000000.007 420000000.008 419999999.97 419999999.949 420000000.029 420000000.01 420000000.014 419999999.995 420000000 420000000.03 420000000.023 420000000.005 420000000.042 419999999.995 420000000.006 419999999.981 420000000.038 419999999.913 420000000.074 419999999.928 419999999.909 419999999.963 419999999.918 419999999.926 419999999.897 419999999.909 420000000.137 419999999.659 420000000.013 420000000.044 420000000.012 419999999.996 420000000.008 419999999.992 420000000.044 420000000.036 419999999.974 420000000.008 419999999.999 420000000.007 420000000.009 420000000.02 420000000.007 420000000.019 419999999.972 419999999.999 420000000.06 420000000.035 420000000.004 420000000.034 420000000.035 420000000.075 420000000.023 419999999.999 420000000.021 419999999.983 420000000.15 420000000.13 420000000.003 419999999.996 420000000.056 420000000.006 420000000.024 420000000.013 420000000.024 420000000.028 420000000.015 420000000.015 420000000.069 419999999.974 420000000.147 420000000.053 420000000.017 420000000.004 420000000 420000000.01 420000000.005 420000000.039 419999999.977 420000000.037 420000000.019 420000000.002 420000000.02 419999999.992 420000000.032 419999999.995 420000000.014 419999999.99 420000000.02 419999999.996 420000000.003 420000000.005 419999999.997 420000000.021 420000000.023 419999999.975 419999999.977 420000000.1 419999999.998 419999999.91 420000000.01 420000000.02 420000000.034 419999999.937 419999999.942 419999999.914 419999999.928 419999999.913 419999999.795 420000000.062 420000000.029 420000000.012 419999999.982 420000000.066 419999999.996 420000000.004 420000000 420000000.011 420000000.003 419999999.997 420000000.029 419999999.996 420000000.01 420000000.015 419999999.98 420000000.04 420000000.038 420000000.024 419999999.964 420000000.011 420000000.047 420000000.02 420000000.001 420000000.023 420000000.038 419999999.991 419999999.983 420000000.004 419999999.986 420000000.011 420000000.003 419999999.995 420000000.004 420000000.013 419999999.993 420000000.025 420000000.026 420000000.007 420000000.008 419999999.998 420000000.008 420000000.007 420000000.003 419999999.988 419999999.995 419999999.999 420000000.012 420000000.015 420000000.023 420000000.003 419999999.996 419999999.992 419999999.918 419999999.972 420000000.012 420000000.045 420000000.025 420000000.053 420000000.076 420000000.012 420000000.05 420000000.027 419999999.987 419999999.987 419999999.999 419999999.942 419999999.997 420000000.009 419999999.988 419999999.986 420000000.009 420000000.008 420000000.009 420000000.015 419999999.966 419999999.995 420000000.019 420000000.041 420000000.015 419999999.993 420000000 420000000.003 420000000.003 419999999.997 419999999.995 420000000.013 420000000.002 419999999.988 419999999.997 420000000.039 419999999.909 420000000.009 419999999.956 420000000.029 420000000.046 420000000.05 419999999.998 420000000.044 420000000.025 420000000.009 420000000.001 419999999.992 420000000.008 420000000.009 420000000.006 420000000.001 420000000.004 420000000.057 420000000.079 420000000.029 420000000.075 420000000 420000000.018 420000000.017 419999999.999 420000000.004 420000000.002 420000000.002 420000000.002 420000000.001 419999999.984 419999999.991 419999999.995 420000000.001 420000000.011 420000000.003 419999999.928 419999999.985 420000000.029 419999999.994 419999999.988 419999999.994 420000000.019 420000000.003 420000000.015 420000000.013 420000000.026 420000000.008 420000000.014 420000000.016 420000000.013 420000000.006 420000000 419999999.977 420000000.002 420000000.032 420000000.027 420000000.026 420000000.018 419999999.983 420000000.082 420000000.043 420000000.017 420000000.001 420000000.002 420000000.035 419999999.994 420000000.058 420000000.006 419999999.999 419999999.987 419999999.999 420000000.006 419999999.993 419999999.995 419999999.982 419999999.963 420000000.008 419999999.976 420000000.042 419999999.991 419999999.979 419999999.994 420000000.002 420000000.004 420000000.009 419999999.997 419999999.992 419999999.969 420000000.015 420000000.021 420000000 419999999.997 419999999.978 420000000.008 420000000.003 419999999.974 419999999.995 419999999.992 419999999.999 420000000.005 419999999.992 420000000 419999999.999 420000000.001 419999999.999 419999999.992 420000000.01 419999999.999 419999999.997 419999999.996 419999999.983 420000000.002 419999999.997 419999999.97 419999999.997 419999999.991 420000000.006 419999999.995 419999999.986 419999999.988 419999999.981 419999999.976 419999999.995 419999999.974 420000000.006 420000000.026 419999999.988 419999999.996 420000000.006 420000000.002 419999999.976 419999999.98 420000000.025 420000000.008 420000000.012 420000000.039</DataArray>
        <DataArray type="Float64" Name="NodalPrincipalStress" NumberOfComponents="3" format="ascii">-0.00452908692384 0.020078482153 419999999.981 -0.0108191297516 0.0271980148844 419999999.996 -0.0158199728431 0.0402829483999 419999999.994 -0.0061709030174 0.00238416033006 419999999.996 -0.224346967981 0.356548639496 419999999.875 -0.0839261250121 0.174951430774 419999999.917 -0.0926281166295 0.116223729087 419999999.946 -0.268753242906 0.419225313577 419999999.798 -0.00720932051405 0.0285939992942 420000000.008 -0.0129557796896 0.0199617245369 420000000.003 -0.0179765211186 0.0319382013512 420000000 0.00107719439574 0.0423861002897 419999999.951 0.0162322649341 0.0435743501647 419999999.94 -0.0104016468322 0.0676599100442 419999999.973 -0.00377447999332 0.0146621922335 420000000.012 -0.00306644987941 0.00298432212937 420000000.005 -0.0107484683769 0.0323277041691 420000000.02 -0.00787932900555 0.0120884624907 419999999.991 -0.00602724127496 0.018210900052 419999999.994 -0.00603833335941 0.00240484911497 419999999.985 -0.150642302229 0.301478494185 419999999.887 -0.100355537729 0.172052146953 419999999.842 -0.310417267579 0.56351804998 419999999.821 -0.266689894371 0.400117290721 419999999.794 -0.493964941812 0.773376160783 419999999.63 -0.116454040349 0.148793635595 419999999.93 -0.323372929199 0.532568418359 419999999.709 -0.748564635687 1.22705909983 419999999.448 -0.156540170154 0.178121141797 419999999.876 -0.269867100533 0.449656121452 419999999.729 -0.135142051275 0.39924094084 419999999.873 -0.263982053609 0.303733814103 419999999.619 -0.0228235877687 0.047109958489 419999999.988 -0.0152290301933 0.0509279599916 420000000.008 -0.00320945679611 0.0191545002098 419999999.996 -0.0147667898608 0.0135701632862 419999999.997 -0.0204334662035 0.0256447487243 420000000.003 -0.0271944425484 0.0428361988984 419999999.977 -0.0558156231401 0.0998227605486 420000000 0.00728912052765 0.0234240874903 420000000.005 -0.0237587682723 0.0058735675917 419999999.992 -0.000634048454514 0.00901907341925 419999999.999 -0.0759925167692 0.0806131284342 419999999.995 -0.00590656995307 0.0126458603835 420000000 -0.0160911282906 0.0252048889527 420000000 -0.0109542168959 0.0322639875354 419999999.999 -0.00245154302373 0.0183282441224 419999999.991 -0.010387596299 0.0281796870698 420000000.001 -0.0189938832295 -0.00710078438413 419999999.998 -0.0141515913757 0.0239350754155 419999999.989 -0.00415601717496 0.0193379087923 420000000.044 0.00313551405618 0.038909848228 419999999.993 0.00125299525901 0.0196572156477 419999999.983 -0.0301834884425 0.0381628814394 420000000.026 -0.0017707217313 0.0319582074601 420000000.005 -0.0664675218182 0.153288804081 419999999.988 -0.0431827531523 0.0720817485057 419999999.994 -0.0116595507472 0.014230960315 419999999.996 -0.00615127476789 0.0193473258861 420000000.008 -0.0125398777063 0.000446259193979 419999999.995 0.0275438105101 0.104383478517 420000000.018 -0.076883927616 0.194607750206 420000000.013 -0.0271983339519 0.0244053199018 420000000.006 -0.00711155521263 0.010219490402 419999999.993 -0.00234043529604 0.0272711061443 420000000.031 -0.01029654587 0.0245811864182 419999999.991 -0.0550267349595 0.0955934270761 419999999.983 -0.0440958864999 0.0803372334572 419999999.977 -0.0156901116931 0.0357658408085 420000000.004 -0.0413384337623 0.0847669404563 419999999.984 -0.016033129326 0.0393255665209 419999999.992 -0.00183212115316 0.0138035054328 420000000.003 -0.0989233724345 0.216467039955 419999999.952 -0.0327091645436 0.029948322098 419999999.977 0.00683843945066 0.0861445307254 420000000.054 -0.0340423902496 0.105042169051 419999999.982 -0.00499841077354 0.0207018366485 420000000.001 -0.00306230051079 0.0175874625632 419999999.989 -0.00478512387178 0.00773933775155 419999999.997 -0.0063320651752 0.0243442727027 419999999.992 0.000292511844721 0.0291382376654 419999999.976 -0.0043360909263 0.0329101366728 420000000.01 0.00681661500971 0.0297491954125 419999999.941 -0.0018257202118 0.0269218982657 420000000.011 -0.00536069215263 0.0219852868798 420000000.003 -0.00879982682861 0.0169302691786 419999999.994 -0.0157489206821 0.0406020756929 419999999.995 -0.00650034087345 0.0417919753522 419999999.957 -0.00412849505027 0.0205011272855 420000000.015 -0.00404791145442 0.00303012737542 419999999.997 -0.000287485801516 0.00582943626568 420000000.008 -0.00880537287084 0.00902724371012 419999999.99 -0.00244479552487 0.0211024525315 420000000.001 0.00014360918121 0.0133097104794 419999999.983 -0.00306186816803 0.00510820365649 420000000.001 -0.00628223690917 0.0185359274195 419999999.993 -0.00568544083504 0.00950004372627 419999999.993 -0.108585372017 0.218239591809 419999999.911 -0.099405513419 0.178145004351 419999999.945 -0.19319795375 0.33054128368 419999999.837 -0.0857080142867 0.141251763672 419999999.922 -0.175785684478 0.366191667801 419999999.91 -0.289068127827 0.462677225515 419999999.824 -0.341807821382 0.525779118284 419999999.726 -0.0865706610931 0.206397531553 419999999.89 -0.0707548195536 0.170458716287 419999999.92 -0.272809623995 0.522617275127 419999999.784 -0.153052370651 0.21348785569 419999999.876 -0.112156692089 0.119950915766 419999999.934 -0.110777075954 0.185323077623 419999999.839 -0.406789308721 0.70979205664 419999999.625 -0.35755751211 0.549876716055 419999999.721 -0.337229625162 0.474863711759 419999999.658 -0.029969474708 0.0874969795308 420000000.004 -0.0661573473282 0.14546152832 419999999.949 -0.0205567661964 0.128971527787 419999999.904 -0.219653892857 0.342474761259 419999999.859 0.000860028265276 0.0520604994715 420000000.013 -0.02984658631 0.0419624601175 419999999.984 -0.00930761046347 0.0160438745611 419999999.997 -0.00913116743602 0.0132032066905 419999999.996 -0.0525219398222 0.0899304438977 419999999.974 -0.0192435561643 0.0161061678956 420000000.006 -0.0172803030573 0.0246453292558 419999999.989 -0.00720932051405 0.0285939992942 420000000.008 -0.0114495375432 0.0122465261491 419999999.995 -0.00315822947885 0.00888278870623 420000000.004 -0.0124164259105 0.0301937198286 419999999.997 -0.0237562759443 0.0245520091248 419999999.979 -0.134474310037 0.217606132401 419999999.957 -0.150642302229 0.301478494185 419999999.887 -0.014267793485 0.0310205108772 420000000.007 -0.066854149591 0.100188260752 419999999.931 -0.0363972656608 0.0439080432223 420000000.003 -0.0227350804336 0.0600959174921 420000000.009 -0.0213666361755 0.0485345450193 419999999.992 -0.0105037117815 0.0174709309947 419999999.994 0.00120137151652 0.0194035518495 420000000.002 -0.00394821023239 0.0210218750452 420000000.021 -0.0317251798124 0.0171454788838 420000000.006 -0.0257130044482 0.0160514640577 419999999.993 -0.00670898257069 0.0177313044496 419999999.993 -0.0206353377434 0.0115503034103 419999999.995 -0.00191378268157 0.00732195548763 420000000.006 -0.0117694637237 0.0161356951843 419999999.999 -0.018190765052 0.0193427216682 419999999.994 -0.0105765872151 0.0141317112194 420000000 -0.00604218841706 0.0220079183678 419999999.997 -0.0200694986624 0.0271605490061 419999999.986 -0.0159298296156 0.022306878404 420000000.019 -0.0133890385312 0.020139122989 420000000.02 -0.0132202834695 0.0365726804498 419999999.984 -0.00655399450023 0.0240594912353 419999999.99 -0.0043138953837 0.0114677094205 419999999.991 -0.00748760345796 0.0253282086866 419999999.991 -0.037428274668 0.0613086233345 419999999.983 -0.00837475363513 0.0144413868163 419999999.997 -0.0246634327578 0.026308574342 419999999.986 -0.0708340522816 0.10249027779 419999999.963 -0.0161893082301 0.0237410253345 419999999.991 -0.086653194288 0.154909873559 419999999.944 -0.0176260815134 0.0311572945185 420000000.001 -0.00377447999332 0.0146621922335 420000000.012 -0.0131180207756 0.0281737467467 419999999.988 -0.00621509290339 0.00237726406843 420000000 -0.0094497887186 0.00927723699702 419999999.993 -0.323372929199 0.532568418359 419999999.709 -0.0846861420563 0.105367093584 419999999.951 -0.0376370088134 0.0789601453429 419999999.971 -0.270343639339 0.457722480069 419999999.858 -0.00945176610627 0.0205542227011 420000000.014 0.00181899692705 0.0424621902154 420000000.009 -0.0645680885018 0.148399998514 419999999.992 -0.004853685994 0.0259382951248 419999999.991 -0.0978046325944 0.169590579269 419999999.978 -0.0574717078867 0.104417343086 419999999.98 -0.0928997356118 0.146379405217 419999999.933 -0.0319490283311 0.0312397479391 419999999.987 -0.0140897887146 0.0185170242878 419999999.994 -0.0496930588933 0.0101198811726 419999999.982 -0.00647995634568 0.0108395071194 419999999.993 -0.00742155459184 0.0167060658 420000000 -0.012390459406 0.0149230731801 419999999.985 -0.0211427615667 0.0242536819522 419999999.983 -0.0403945224678 0.0553022227833 419999999.994 -0.0046710862495 0.0185517041624 419999999.994 -0.0764776643159 0.100353280784 419999999.985 -0.0978695436933 0.170432275475 419999999.942 -0.0329252026987 0.0208966836329 419999999.978 -0.025820057855 0.0349606312913 419999999.986 -0.0437704482666 0.0780085309248 419999999.985 -0.0100170940762 0.0377050137119 420000000.013 -0.0358312735439 0.0729842277257 419999999.978 -0.012537154925 0.0139707822315 419999999.992 -0.0141040149436 0.0212894364128 419999999.993 -0.030799916198 0.0441171868618 419999999.99 -0.00815405071808 0.00930214197445 420000000.001 -0.0528158402289 0.0845037561336 419999999.965 -0.00787932900555 0.0120884624907 419999999.991 -0.0101069131056 0.0296101116669 419999999.994 -0.0118262426449 0.0295390244692 419999999.985 -0.00720572073006 0.00218410639696 419999999.993 -0.0115422324784 0.00781645044124 420000000.001 -0.0784496541064 0.175917858714 419999999.941 -0.269867100533 0.449656121452 419999999.729 -0.0270332721198 0.0311866404926 420000000.004 -0.108816111979 0.149947384826 419999999.915 -0.00583118128631 0.0223899377141 420000000.013 -0.0218908995931 0.0696679078533 419999999.998 -0.0265098501541 0.0808340449381 419999999.996 -0.01202106008 0.0193197680413 419999999.991 -0.00170016587763 0.0346296931393 420000000.011 0.00364031369596 0.0235814777491 419999999.997 -0.0285433418141 0.0705485057375 419999999.967 -0.00762028510873 0.01890544857 419999999.99 -0.0194777036629 0.0150871932418 419999999.997 -0.017668373876 0.0342688150621 419999999.992 -0.00382057527348 0.0110888625147 420000000.002 -0.00446966674614 0.00738145422622 420000000.003 -0.00998257025525 0.0081019971462 420000000.003 -0.00846615562315 0.0103437168346 420000000.002 -0.0629953865523 0.13951582204 419999999.98 0.00590834525601 0.0546391779231 420000000.018 -0.0485108928858 0.0879738913737 419999999.99 -0.0683669551347 0.158177609648 419999999.985 -0.0131755492588 0.0155681169527 419999999.997 -0.028893798418 0.0397461539255 420000000.007 -0.0028507834295 0.018140429071 420000000.002 -0.00922931277989 0.00994489634225 419999999.998 -0.0143707608198 0.0197380526427 419999999.999 -0.00615469657562 0.0224370116259 419999999.986 -0.0110867369366 0.0282661520968 419999999.985 -0.0374926405171 0.0524714706555 419999999.987 -0.0133700543217 0.0220580096476 419999999.992 -0.0775223424383 0.10722808107 419999999.954 -4.6608858929e-05 0.0161252424203 419999999.975 0.00107719439574 0.0423861002897 419999999.951 -0.00577095148908 0.00328380239929 420000000.004 -0.0175104743318 0.0429346964768 419999999.986 -0.0159220054905 0.0306106686741 419999999.989 -0.266689894371 0.400117290721 419999999.794 -0.195656868115 0.287558836002 419999999.893 -0.0132875891401 0.031031165453 420000000.011 -0.0713240987878 0.0955912581837 419999999.969 -0.0573973915 0.0843077436999 419999999.961 -0.0162524269655 0.0281028995013 419999999.982 -0.00154413219426 0.0192280753061 420000000.001 -0.00761620038342 0.0140532188963 419999999.997 -0.0156507938799 0.0300487006379 420000000.001 -0.0167376405955 0.0256281601317 420000000.004 -0.0241338212751 0.0351040213721 420000000.015 -0.00368638911797 0.0178852536139 419999999.994 -0.00851939526054 0.0443888520818 419999999.978 -0.0123479295703 0.0518566467028 419999999.976 -0.0037889655845 0.0248519556132 419999999.992 0.00165090845277 0.0125969970094 419999999.992 -0.00328843976764 0.0138755192176 419999999.989 -0.0313463408257 0.0343208640531 419999999.974 -0.00838435138465 0.0196663930507 419999999.991 -0.0121839262257 0.0207545786768 420000000.024 -0.072758272895 0.122856734291 419999999.977 -0.0478914604853 0.0971335372435 419999999.977 -0.0117141086839 0.0603211861303 419999999.969 -0.023199628741 0.0189729441695 419999999.988 0.00154497931256 0.050634997984 420000000.03 -0.0450398587113 0.0905737355696 419999999.998 -0.00626475489591 0.0173651916429 420000000.006 -0.00393563675931 0.00448759961169 420000000 -0.00553834403488 0.00888068790154 419999999.999 -0.168458758136 0.331129386564 419999999.872 -0.058770271741 0.112357326865 419999999.94 -0.00490327734813 0.0535458623901 420000000.009 -0.0113613051392 0.0206026787272 419999999.997 -0.00615847226944 0.00731653091231 419999999.998 -0.0117305992058 0.00535373295413 419999999.994 -0.00953242011062 0.0176310164445 419999999.99 -0.00547818127999 0.0132732007273 419999999.998 -0.0140812370097 0.016322368459 419999999.991 -0.00787557552272 0.00964293626091 419999999.994 -0.021128509292 0.0119354427832 419999999.991 -0.0400564780773 0.0378365496423 419999999.966 -0.0325678711642 0.0489769516343 419999999.992 -0.0165001225744 0.00469039204404 419999999.988 -0.0159091180022 0.0369953674975 420000000.021 -0.0100931458833 0.00889040312756 419999999.992 -0.0155488774637 0.00642874096387 419999999.988 -0.0253935280399 0.0300559619426 419999999.989 -0.0117380964675 0.0200132849725 419999999.994 -0.0263039688776 0.0258026446374 420000000.005 -0.00626748699823 0.0182138120016 419999999.997 -0.00581816095176 0.009742794514 419999999.993 -0.00999443953308 0.0095765606815 419999999.993 -0.151181092385 0.231865622808 419999999.889 -0.0172071268371 0.0288917010161 420000000.003 -0.123717593002 0.237351942018 419999999.908 -0.0093849193805 0.00640531485293 420000000.003 -0.00864508554445 0.013098887227 419999999.992 -0.0233100679293 0.0116549756888 419999999.99 -0.0209140015818 0.0219775272553 420000000.007 -0.0201972330797 0.0309107113615 419999999.992 -0.0230633477889 0.0141420210907 419999999.983 -0.0227687797873 0.0221666847065 419999999.995 -0.00825755211824 0.0111047169872 419999999.989 -0.00665011611488 0.0128377592255 419999999.993 -0.00705410628172 0.0110357591372 420000000.001 -0.0121363585975 0.00478717481434 419999999.999 -0.00925399515443 0.00756852481165 420000000.002 -0.0120985459603 0.0169604461697 419999999.994 -0.0106104843556 0.0240982716511 419999999.987 -0.00585559033044 0.0146801399446 419999999.99 -0.0132066467554 0.0151802031099 419999999.99 -0.0147828161482 0.0353058606118 419999999.989 -0.0186958883132 0.027184367072 419999999.991 -0.0316698400194 0.0338379455609 419999999.995 -0.0542423927167 0.0739431918403 419999999.976 -0.0529441163824 0.0874718503005 419999999.949 -0.0435647502113 0.0614405283851 419999999.984 -0.0730485910342 0.102536207094 419999999.968 -0.0428952258607 0.0234906171014 419999999.989 -0.0136292954601 0.0327389498851 419999999.978 -0.0260467130678 0.0294532213296 419999999.988 -0.0150520930321 0.0254759718596 419999999.995 -0.0217751978886 0.0292289058659 419999999.987 -0.027159981575 0.0291224048975 419999999.984 -0.0148503717906 0.0165428456772 419999999.986 -0.0364007955417 0.0326836431223 419999999.985 -0.0741934163502 0.101457851185 419999999.948 -0.0255999092973 0.0510666556348 419999999.969 -0.0486775845931 0.0625808597202 419999999.96 -0.0457801821621 0.0757721888676 419999999.976 -0.0543248566476 0.100631936135 419999999.98 -0.028233130271 0.0142845153732 420000000.002 -0.0198933460392 0.0126590498343 420000000.004 -0.00686306287837 0.0319664493592 419999999.981 0.00410350969357 0.0210762355552 419999999.977 -0.13732519052 0.199084246387 419999999.914 -0.100575599365 0.138174537084 419999999.942 -0.00409929008036 0.0224075254121 420000000.007 -0.00749493178576 0.0167646324813 419999999.999 -0.0464119417823 0.110871669827 419999999.947 -0.0921613639744 0.166608490595 419999999.965</DataArray>
        <DataArray type="Float64" Name="ShellTopNodalVonMises" format="ascii">0 0 0 0 0 0 0 0 0 0 0 0 0 0 0 0 0 0 0 0 0 0 0 0 0 0 0 0 0 0 0 0 0 0 0 0 0 0 0 0 0 0 0 0 0 0 0 0 0 0 0 0 0 0 0 0 0 0 0 0 0 0 0 0 0 0 0 0 0 0 0 0 0 0 0 0 0 0 0 0 0 0 0 0 0 0 0 0 0 0 0 0 0 0 0 0 0 0 0 0 0 0 0 0 0 0 0 0 0 0 0 0 0 0 0 0 0 0 0 0 0 0 0 0 0 0 0 0 0 0 0 0 0 0 0 0 0 0 0 0 0 0 0 0 0 0 0 0 0 0 0 0 0 0 0 0 0 0 0 0 0 0 0 0 0 0 0 0 0 0 0 0 0 0 0 0 0 0 0 0 0 0 0 0 0 0 0 0 0 0 0 0 0 0 0 0 0 0 0 0 0 0 0 0 0 0 0 0 0 0 0 0 0 0 0 0 0 0 0 0 0 0 0 0 0 0 0 0 0 0 0 0 0 0 0 0 0 0 0 0 0 0 0 0 0 0 0 0 0 0 0 0 0 0 0 0 0 0 0 0 0 0 0 0 0 0 0 0 0 0 0 0 0 0 0 0 0 0 0 0 0 0 0 0 0 0 0 0 0 0 0 0 0 0 0 0 0 0 0 0 0 0 0 0 0 0 0 0 0 0 0 0 0 0 0 0 0 0 0 0 0 0 0 0 0 0 0 0 0 0 0 0 0 0 0 0 0 0 0 0 0</DataArray>
        <DataArray type="Float64" Name="ShellBottomNodalVonMises" format="ascii">0 0 0 0 0 0 0 0 0 0 0 0 0 0 0 0 0 0 0 0 0 0 0 0 0 0 0 0 0 0 0 0 0 0 0 0 0 0 0 0 0 0 0 0 0 0 0 0 0 0 0 0 0 0 0 0 0 0 0 0 0 0 0 0 0 0 0 0 0 0 0 0 0 0 0 0 0 0 0 0 0 0 0 0 0 0 0 0 0 0 0 0 0 0 0 0 0 0 0 0 0 0 0 0 0 0 0 0 0 0 0 0 0 0 0 0 0 0 0 0 0 0 0 0 0 0 0 0 0 0 0 0 0 0 0 0 0 0 0 0 0 0 0 0 0 0 0 0 0 0 0 0 0 0 0 0 0 0 0 0 0 0 0 0 0 0 0 0 0 0 0 0 0 0 0 0 0 0 0 0 0 0 0 0 0 0 0 0 0 0 0 0 0 0 0 0 0 0 0 0 0 0 0 0 0 0 0 0 0 0 0 0 0 0 0 0 0 0 0 0 0 0 0 0 0 0 0 0 0 0 0 0 0 0 0 0 0 0 0 0 0 0 0 0 0 0 0 0 0 0 0 0 0 0 0 0 0 0 0 0 0 0 0 0 0 0 0 0 0 0 0 0 0 0 0 0 0 0 0 0 0 0 0 0 0 0 0 0 0 0 0 0 0 0 0 0 0 0 0 0 0 0 0 0 0 0 0 0 0 0 0 0 0 0 0 0 0 0 0 0 0 0 0 0 0 0 0 0 0 0 0 0 0 0 0 0 0 0 0 0 0</DataArray>
      </PointData>
      <CellData Scalars="VonMises">
        <DataArray type="Int32" Name="ElementIndex" format="ascii">0 1 2 3 4 5 6 7 8 9 10 11 12 13 14 15 16 17 18 19 20 21 22 23 24 25 26 27 28 29 30 31 32 33 34 35 36 37 38 39 40 41 42 43 44 45 46 47 48 49 50 51 52 53 54 55 56 57 58 59 60 61 62 63 64 65 66 67 68 69 70 71 72 73 74 75 76 77 78 79 80 81 82 83 84 85 86 87 88 89 90 91 92 93 94 95 96 97 98 99 100 101 102 103 104 105 106 107 108 109 110 111 112 113 114 115 116 117 118 119 120 121 122 123 124 125 126 127 128 129 130 131 132 133 134 135 136 137 138 139</DataArray>
        <DataArray type="Float64" Name="VonMises" format="ascii">419999999.995 419999999.96 419999999.999 419999999.992 419999999.992 419999999.987 419999999.982 420000000.017 419999999.998 419999999.981 419999999.979 419999999.988 419999999.996 419999999.982 420000000.004 420000000.007 419999999.959 419999999.979 419999999.995 420000000.012 419999999.975 419999999.989 419999999.972 419999999.986 419999999.998 419999999.912 419999999.847 420000000.008 420000000.018 419999999.954 420000000.01 419999999.992 420000000.003 419999999.997 419999999.968 420000000.021 419999999.999 419999999.991 419999999.997 419999999.974 420000000 419999999.997 420000000.006 420000000.007 419999999.92 419999999.995 419999999.959 419999999.948 419999999.967 419999999.926 419999999.949 419999999.968 420000000.043 419999999.912 420000000.053 419999999.996 419999999.994 419999999.991 420000000.001 419999999.996 419999999.977 419999999.959 420000000.004 420000000.001 419999999.998 420000000.035 419999999.994 419999999.99 420000000.006 419999999.982 419999999.999 419999999.953 419999999.984 419999999.989 419999999.998 419999999.983 419999999.996 419999999.942 419999999.991 420000000.008 420000000.023 419999999.977 419999999.995 419999999.97 419999999.992 419999999.578 420000000.005 419999999.739 419999999.998 419999999.935 419999999.995 419999999.945 419999999.935 419999999.778 419999999.994 420000000.011 419999999.999 420000000.066 419999999.98 420000000.029 419999999.993 419999999.91 419999999.694 419999999.49 420000000.009 419999999.944 419999999.914 419999999.865 419999999.988 420000000 419999999.806 419999999.741 420000000.005 419999999.209 419999999.987 419999999.599 419999999.969 420000000.002 420000000.011 419999999.98 420000000.018 420000000.023 419999999.992 419999999.946 420000000.001 419999999.972 419999999.893 420000000.008 419999999.995 419999999.952 419999999.99 419999999.978 420000000.008 419999999.972 419999999.978 420000000.037 419999999.954 419999999.992 419999999.997 419999999.984</DataArray>
        <DataArray type="Int32" Name="HasVonMises" format="ascii">1 1 1 1 1 1 1 1 1 1 1 1 1 1 1 1 1 1 1 1 1 1 1 1 1 1 1 1 1 1 1 1 1 1 1 1 1 1 1 1 1 1 1 1 1 1 1 1 1 1 1 1 1 1 1 1 1 1 1 1 1 1 1 1 1 1 1 1 1 1 1 1 1 1 1 1 1 1 1 1 1 1 1 1 1 1 1 1 1 1 1 1 1 1 1 1 1 1 1 1 1 1 1 1 1 1 1 1 1 1 1 1 1 1 1 1 1 1 1 1 1 1 1 1 1 1 1 1 1 1 1 1 1 1 1 1 1 1 1 1</DataArray>
        <DataArray type="Float64" Name="StressTrace" format="ascii">419999999.984 420000000.094 419999999.988 419999999.978 419999999.993 419999999.995 420000000.012 420000000.032 419999999.977 420000000.034 419999999.951 420000000.007 419999999.993 420000000.071 420000000.008 419999999.985 419999999.993 419999999.98 420000000.013 419999999.994 419999999.979 420000000.028 419999999.96 420000000.011 420000000.013 419999999.93 420000000.055 419999999.953 420000000.039 419999999.953 419999999.943 419999999.954 419999999.996 419999999.979 419999999.939 419999999.907 420000000.05 420000000.081 419999999.985 420000000.026 420000000.006 419999999.978 419999999.958 419999999.985 419999999.961 419999999.991 420000000.056 420000000.001 419999999.988 420000000.019 419999999.994 420000000.028 420000000.05 420000000.062 419999999.948 420000000.033 419999999.992 419999999.981 420000000.018 419999999.993 419999999.994 419999999.924 420000000.001 420000000.01 420000000.009 420000000.04 420000000.01 419999999.958 420000000.022 420000000.024 419999999.995 419999999.971 420000000.002 419999999.968 420000000.03 419999999.992 420000000.037 419999999.939 420000000.013 420000000.004 420000000.007 420000000.001 420000000.028 420000000.047 419999999.998 419999999.931 420000000.022 419999999.93 420000000.063 420000000.127 420000000.041 419999999.98 419999999.955 419999999.911 419999999.988 419999999.965 420000000 420000000.154 420000000.001 420000000.011 420000000.014 420000000 420000000.074 419999999.909 420000000.042 420000000.03 419999999.963 419999999.897 420000000.006 420000000.01 419999999.913 420000000.137 420000000.005 419999999.926 419999999.981 419999999.659 419999999.992 419999999.983 419999999.972 420000000.015 420000000.056 420000000.034 419999999.999 420000000.053 419999999.974 420000000.035 420000000.069 420000000.147 420000000.008 420000000.15 420000000.036 419999999.974 420000000.003 420000000.004 420000000.044 420000000.06 420000000.13 419999999.996 420000000.015 419999999.999</DataArray>
        <DataArray type="Float64" Name="HydrostaticPressure" format="ascii">-139999999.995 -140000000.031 -139999999.996 -139999999.993 -139999999.998 -139999999.998 -140000000.004 -140000000.011 -139999999.992 -140000000.011 -139999999.984 -140000000.002 -139999999.998 -140000000.024 -140000000.003 -139999999.995 -139999999.998 -139999999.993 -140000000.004 -139999999.998 -139999999.993 -140000000.009 -139999999.987 -140000000.004 -140000000.004 -139999999.977 -140000000.018 -139999999.984 -140000000.013 -139999999.984 -139999999.981 -139999999.985 -139999999.999 -139999999.993 -139999999.98 -139999999.969 -140000000.017 -140000000.027 -139999999.995 -140000000.009 -140000000.002 -139999999.993 -139999999.986 -139999999.995 -139999999.987 -139999999.997 -140000000.019 -140000000 -139999999.996 -140000000.006 -139999999.998 -140000000.009 -140000000.017 -140000000.021 -139999999.983 -140000000.011 -139999999.997 -139999999.994 -140000000.006 -139999999.998 -139999999.998 -139999999.975 -140000000 -140000000.003 -140000000.003 -140000000.013 -140000000.003 -139999999.986 -140000000.007 -140000000.008 -139999999.998 -139999999.99 -140000000.001 -139999999.989 -140000000.01 -139999999.997 -140000000.012 -139999999.98 -140000000.004 -140000000.001 -140000000.002 -140000000 -140000000.009 -140000000.016 -139999999.999 -139999999.977 -140000000.007 -139999999.977 -140000000.021 -140000000.042 -140000000.014 -139999999.993 -139999999.985 -139999999.97 -139999999.996 -139999999.988 -140000000 -140000000.051 -140000000 -140000000.004 -140000000.005 -140000000 -140000000.025 -139999999.97 -140000000.014 -140000000.01 -139999999.988 -139999999.966 -140000000.002 -140000000.003 -139999999.971 -140000000.046 -140000000.002 -139999999.975 -139999999.994 -139999999.886 -139999999.997 -139999999.994 -139999999.991 -140000000.005 -140000000.019 -140000000.011 -140000000 -140000000.018 -139999999.991 -140000000.012 -140000000.023 -140000000.049 -140000000.003 -140000000.05 -140000000.012 -139999999.991 -140000000.001 -140000000.001 -140000000.015 -140000000.02 -140000000.043 -139999999.999 -140000000.005 -140000000</DataArray>
        <DataArray type="Float64" Name="PrincipalStress" NumberOfComponents="3" format="ascii">-0.00861521461243 0.00154185691099 419999999.992 0.0239004493611 0.0654180421251 420000000.005 -0.0144896997467 0.00659549667885 419999999.996 -0.00916016090036 -4.28558577913e-05 419999999.987 -0.00563356040639 0.00604558496389 419999999.993 -0.0156329489395 0.0209615147753 419999999.99 -0.000992061436062 0.0214222165337 419999999.992 -0.0288305889989 0.0389559131043 420000000.022 -0.018699544918 0.00419297392243 419999999.991 -0.000691306905278 0.0364067676823 419999999.999 -0.0164425676525 -0.00258044844357 419999999.97 -0.0132602405459 0.0260642123128 419999999.994 -0.00744904645663 0.00553605773416 419999999.995 0.00751022443358 0.0518075431851 420000000.012 -0.00498540140785 0.00813946314215 420000000.005 -0.0165907071736 0.00143957155005 420000000 0.0014338715636 0.0213849769264 419999999.971 -0.0128879714552 0.0134548563304 419999999.979 -0.0106615514753 0.0225896702384 420000000.001 -0.0650972599277 0.0531310910468 420000000.006 -0.00852812519185 0.0109118862984 419999999.976 -0.0299702356879 0.0559527944145 420000000.002 -0.0286357318744 0.0205234801152 419999999.968 -0.00304889388695 0.0202954456986 419999999.994 -0.0199666988003 0.0295274626357 420000000.003 -0.051667729613 0.0636146983443 419999999.918 -0.0664355103682 0.205088893017 419999999.917 -0.0343975758482 -0.00167244316341 419999999.99 -0.0315124699717 0.0453356886083 420000000.025 -0.0285759656206 0.0280527187942 419999999.953 -0.0522863563884 0.00754092603572 419999999.988 -0.0569877323252 0.0318931859381 419999999.979 -0.0137328330138 0.00848149244565 420000000.001 -0.0132364927946 0.00108817211952 419999999.991 -0.0323698841959 0.0135513716362 419999999.958 -0.0614023288166 -0.0146863530045 419999999.983 0.0116450770708 0.0224632338671 420000000.016 -0.0327217903926 0.0927844670479 420000000.021 -0.0156466644045 0.00800306906647 419999999.993 -0.019923733747 0.0546697398665 419999999.992 -0.00738255034096 0.0115173916038 420000000.002 -0.0158899858351 0.00334489939168 419999999.991 -0.0264895430788 -0.00514808827791 419999999.99 -0.0183019927946 0.00417339720248 419999999.999 -0.0968157149521 0.124397510996 419999999.933 -0.0277036420563 0.0252758480158 419999999.993 0.00279592283189 0.0618453293275 419999999.992 -0.156679987514 0.192416518511 419999999.965 -0.0183532625553 0.0322707235871 419999999.974 -0.0598499826534 0.121747469091 419999999.957 -0.0201743045773 0.0498678559356 419999999.964 0.00851819805483 0.0319373295483 419999999.988 -0.0225357312982 0.0277056519208 420000000.045 0.00928094717587 0.0906940501626 419999999.962 -0.0540319561973 -0.0157604783866 420000000.018 -0.030589262884 0.0550869879491 420000000.008 -0.0276672406241 0.0262293605236 419999999.994 -0.0162435030566 0.00920913424264 419999999.988 -0.00374848082553 0.0151254652425 420000000.006 -0.0226220598874 0.0209403371857 419999999.995 -0.000981243477274 0.0126287286737 419999999.982 -0.0380594881574 0.0142269359663 419999999.947 -0.0113470703471 0.00967030228248 420000000.003 -0.00700710209245 0.0131586516101 420000000.004 0.00204882164654 0.00553677837116 420000000.001 -0.0151855409924 0.0186196626 420000000.037 -0.0048863774946 0.0153830162087 419999999.999 -0.0331412408538 0.0118450451678 419999999.98 0.00319798544756 0.00720295801046 420000000.012 0.00360831016242 0.0238994494666 419999999.996 -0.0165630969165 0.0138373392579 419999999.997 -0.0412316273771 0.052878121635 419999999.959 -0.00635969973088 0.0181082148001 419999999.99 -0.0203181093401 0.00626781935114 419999999.982 0.00745198025134 0.0136683891827 420000000.009 -0.0158108816549 0.0218957708272 419999999.986 0.00140998835363 0.0260613677401 420000000.01 -0.0969181568732 0.0950029404139 419999999.941 -0.0162282021749 0.0309992017254 419999999.998 -0.00830528503776 0.00574383503319 420000000.007 -0.0157271199981 0.00489487732967 420000000.018 -0.00751005134584 0.023299902892 419999999.985 0.00206721454161 0.0200807613201 420000000.006 0.0120338239539 0.039513055158 419999999.996 -0.0115724123823 0.0156496383053 419999999.994 -0.410477196716 0.645993609414 419999999.696 0.00249147827638 0.008674550402 420000000.011 -0.065013981754 0.192525013448 419999999.803 0.00930433926595 0.0338820719945 420000000.02 -0.0411541013781 0.168865285622 419999999.999 0.00290094450664 0.0277832360505 420000000.011 -0.0242143942747 0.0478995068675 419999999.957 -0.0025990349147 0.0159240406603 419999999.941 -0.189650700953 0.278182075786 419999999.823 -0.0260966468373 0.0218186128654 419999999.992 -0.0634758657649 0.0329379699056 419999999.996 -0.00303895112444 0.00370121088194 419999999.999 -0.0601258470335 0.118837234231 420000000.095 0.0026217917186 0.0119021614803 419999999.987 -0.0628221740894 0.0511374657834 420000000.023 -0.0179765211186 0.0319382013512 420000000 0.0162322649341 0.0435743501647 419999999.94 -0.310417267579 0.56351804998 419999999.821 -0.493964941812 0.773376160783 419999999.63 -0.0107484683769 0.0323277041691 420000000.02 -0.0104016468322 0.0676599100442 419999999.973 -0.116454040349 0.148793635595 419999999.93 -0.156540170154 0.178121141797 419999999.876 -0.00602724127496 0.018210900052 419999999.994 -0.0129557796896 0.0199617245369 420000000.003 -0.100355537729 0.172052146953 419999999.842 -0.135142051275 0.39924094084 419999999.873 -0.00306644987941 0.00298432212937 420000000.005 -0.748564635687 1.22705909983 419999999.448 -0.00603833335941 0.00240484911497 419999999.985 -0.263982053609 0.303733814103 419999999.619 -0.0271944425484 0.0428361988984 419999999.977 -0.0125398777063 0.000446259193979 419999999.995 -0.0189938832295 -0.00710078438413 419999999.998 -0.016033129326 0.0393255665209 419999999.992 -0.00234043529604 0.0272711061443 420000000.031 -0.0301834884425 0.0381628814394 420000000.026 -0.0759925167692 0.0806131284342 419999999.995 -0.0340423902496 0.105042169051 419999999.982 -0.0237587682723 0.0058735675917 419999999.992 0.00313551405618 0.038909848228 419999999.993 -0.0989233724345 0.216467039955 419999999.952 0.00683843945066 0.0861445307254 420000000.054 -0.000634048454514 0.00901907341925 419999999.999 0.0275438105101 0.104383478517 420000000.018 0.00728912052765 0.0234240874903 420000000.005 -0.0327091645436 0.029948322098 419999999.977 -0.0271983339519 0.0244053199018 420000000.006 0.00125299525901 0.0196572156477 419999999.983 -0.0558156231401 0.0998227605486 420000000 -0.00415601717496 0.0193379087923 420000000.044 -0.076883927616 0.194607750206 420000000.013 -0.00711155521263 0.010219490402 419999999.993 -0.00183212115316 0.0138035054328 420000000.003 -0.0141515913757 0.0239350754155 419999999.989</DataArray>
        <DataArray type="Float64" Name="PrincipalStrain" NumberOfComponents="3" format="ascii">-0.00110000000023 -0.00110000000004 0.00300000000024 -0.00109999999974 -0.00109999999933 0.00299999999925 -0.00110000000028 -0.00110000000014 0.0030000000004 -0.00110000000045 -0.00110000000005 0.00300000000046 -0.00110000000006 -0.00109999999989 0.00299999999993 -0.00110000000023 -0.00109999999978 0.00300000000001 -0.00110000000024 -0.00109999999992 0.00300000000018 -0.00110000000083 -0.00110000000025 0.00300000000114 -0.0011000000005 -0.00110000000009 0.00300000000054 -0.00110000000058 -0.00110000000018 0.00300000000083 -0.00109999999992 -0.00109999999969 0.00299999999951 -0.00110000000049 -0.00110000000007 0.00300000000058 -0.00110000000014 -0.00109999999996 0.00300000000009 -0.00109999999999 -0.00109999999951 0.00299999999963 -0.00110000000006 -0.00109999999991 0.00299999999998 -0.00110000000029 -0.00109999999987 0.00300000000012 -0.00110000000155 -0.00110000000052 0.00300000000205 -0.00110000000125 -0.00110000000054 0.00300000000174 -0.00110000000077 -0.00110000000013 0.00300000000092 -0.00110000000077 -0.0011000000002 0.00300000000096 -0.00110000000089 -0.00110000000052 0.00300000000136 -0.0011000000007 -0.00109999999977 0.00300000000053 -0.00110000000042 -0.00110000000023 0.00300000000058 -0.00110000000103 -0.00110000000045 0.0030000000015 -0.00110000000044 -0.00109999999993 0.00300000000039 -0.00110000000101 -0.00110000000062 0.00300000000149 -0.00110000000128 -0.00109999999964 0.00300000000103 -0.00110000000057 -0.00110000000019 0.00300000000067 -0.00110000000069 -0.00110000000013 0.0030000000009 -0.0011000000013 -0.00110000000049 0.0030000000017 -0.00110000000093 -0.00110000000021 0.00300000000104 -0.00110000000054 -0.00109999999985 0.0030000000003 -0.00110000000026 -0.00109999999991 0.00300000000016 -0.00110000000009 -0.0010999999999 0.00299999999995 -0.00110000000135 -0.00110000000048 0.00300000000171 -0.00110000000036 -0.00109999999985 0.00300000000003 -0.00110000000045 -0.00110000000027 0.00300000000081 -0.00110000000054 -0.0010999999993 0.003 -0.00110000000032 -0.00110000000005 0.00300000000035 -0.00110000000048 -0.00109999999957 0.0030000000001 -0.00110000000045 -0.00110000000017 0.00300000000064 -0.00110000000027 -0.00110000000001 0.00300000000024 -0.00110000000031 -0.00110000000006 0.00300000000029 -0.00110000000027 -0.00110000000001 0.00300000000026 -0.00110000000169 -0.00109999999892 0.00300000000053 -0.00110000000149 -0.00110000000072 0.00300000000219 -0.00110000000181 -0.00110000000058 0.0030000000025 -0.00110000000174 -0.00109999999821 0.00299999999995 -0.00110000000072 -0.00110000000037 0.00300000000107 -0.00110000000152 -0.00109999999919 0.00300000000074 -0.00110000000053 -0.00109999999993 0.00300000000045 -0.00110000000023 -0.00110000000007 0.00300000000035 -0.00110000000008 -0.00109999999945 0.00299999999963 -0.00110000000171 -0.00110000000101 0.00300000000284 -0.00110000000092 -0.0011000000004 0.00300000000122 -0.00110000000019 -0.00109999999944 0.00299999999969 -0.0011000000001 -0.00109999999959 0.00299999999968 -0.00110000000118 -0.00110000000075 0.0030000000019 -0.00110000000114 -0.00110000000083 0.00300000000201 -0.0011000000007 -0.00110000000007 0.00300000000076 -0.00110000000056 -0.00110000000039 0.00300000000094 -0.00109999999994 -0.00109999999947 0.00299999999927 -0.00109999999992 -0.00109999999972 0.00299999999964 -0.00109999999995 -0.00109999999975 0.00299999999973 -0.00110000000159 -0.00110000000065 0.00300000000226 -0.00110000000082 -0.00110000000066 0.00300000000156 -0.00110000000029 -0.00110000000001 0.00300000000032 -0.00110000000115 -0.00110000000034 0.00300000000141 -0.00110000000026 -0.0011000000002 0.0030000000005 -0.00110000000019 -0.00110000000001 0.00300000000024 -0.00110000000008 -0.00109999999977 0.00299999999984 -0.00109999999995 -0.00109999999912 0.00299999999902 -0.00110000000038 -0.00110000000003 0.00300000000041 -0.00110000000075 -0.00110000000026 0.00300000000095 -0.00110000000033 -0.00110000000018 0.00300000000056 -0.00110000000073 -0.00110000000015 0.00300000000086 -0.00109999999999 -0.00109999999972 0.00299999999978 -0.00110000000037 -0.0010999999985 0.00299999999876 -0.00110000000075 -0.00110000000001 0.00300000000078 -0.00110000000015 -0.00110000000003 0.00300000000019 -0.00110000000053 -0.00110000000018 0.00300000000073 -0.00110000000097 -0.00110000000016 0.00300000000114 -0.00110000000067 -0.00110000000056 0.00300000000128 -0.00110000000138 -0.0011000000009 0.00300000000238 -0.00110000000002 -0.0010999999997 0.00299999999972 -0.00110000000258 -0.00109999999321 0.00299999999566 -0.00110000000013 -0.00110000000011 0.00300000000028 -0.00109999999827 -0.00109999999559 0.00299999999372 -0.0011000000005 -0.00110000000019 0.0030000000008 -0.00110000000058 -0.00109999999879 0.00299999999961 -0.00110000000005 -0.00109999999979 0.00299999999992 -0.00110000000074 -0.00110000000055 0.00300000000125 -0.00110000000169 -0.00110000000005 0.00300000000165 -0.00110000000051 -0.00109999999601 0.00299999999635 -0.00110000000071 -0.00110000000008 0.00300000000077 -0.00110000000064 -0.00109999999966 0.00300000000023 -0.00109999999995 -0.00109999999984 0.00299999999979 -0.00110000000173 -0.00109999999983 0.00300000000185 -0.00110000000121 -0.00110000000022 0.00300000000143 -0.00110000000089 -0.00109999999966 0.00300000000058 -0.00110000000097 -0.00110000000018 0.00300000000117 -0.00110000000159 -0.00110000000075 0.00300000000234 -0.00110000000095 -0.00109999999182 0.00299999999291 -0.00110000000106 -0.00109999998818 0.00299999998907 -0.00110000000043 -0.0010999999999 0.00300000000041 -0.00110000000162 -0.00109999999975 0.00300000000143 -0.00110000000103 -0.00109999999872 0.00299999999968 -0.00110000000019 -0.00109999999668 0.00299999999668 -0.00109999999989 -0.00109999999963 0.00299999999952 -0.00110000000025 -0.00110000000006 0.00300000000033 -0.00110000000164 -0.00109999999985 0.00300000000133 -0.00110000000261 -0.00109999999729 0.00300000000016 -0.00110000000003 -0.00109999999988 0.00299999999991 -0.00110000000084 -0.00109999998019 0.00299999998088 -0.00109999999999 -0.00109999999968 0.00299999999963 -0.00110000000014 -0.00109999999528 0.00299999999477 -0.00110000000029 -0.00109999999943 0.00299999999971 -0.00109999999994 -0.00109999999974 0.00299999999965 -0.00110000000064 -0.00110000000029 0.00300000000088 -0.00110000000079 -0.00110000000018 0.003000000001 -0.00110000000031 -0.00110000000001 0.00300000000042 -0.00110000000066 -0.00110000000002 0.00300000000075 -0.00110000000046 -0.00109999999933 0.00299999999979 -0.00110000000016 -0.00109999999895 0.00299999999921 -0.00109999999994 -0.0010999999996 0.00299999999949 -0.00110000000111 -0.00110000000046 0.00300000000164 -0.00110000000157 -0.00109999999828 0.00299999999998 -0.00110000000124 -0.00110000000041 0.00300000000193 -0.00110000000001 -0.00109999999987 0.0029999999999 -0.00110000000133 -0.00109999999969 0.0030000000013 -0.00110000000063 -0.00110000000047 0.00300000000116 -0.00110000000172 -0.0011000000004 0.00300000000207 -0.0011000000002 -0.00109999999966 0.00299999999987 -0.00110000000108 -0.00110000000079 0.00300000000188 -0.001100000002 -0.00109999999927 0.00300000000135 -0.00110000000185 -0.00110000000079 0.00300000000276 -0.00110000000182 -0.00109999999875 0.00300000000082 -0.00109999999981 -0.00109999999964 0.00299999999944 -0.00109999999992 -0.00109999999941 0.00299999999936 -0.00110000000085 -0.00110000000034 0.00300000000119</DataArray>
        <DataArray type="Float64" Name="ShellTopVonMises" format="ascii">0 0 0 0 0 0 0 0 0 0 0 0 0 0 0 0 0 0 0 0 0 0 0 0 0 0 0 0 0 0 0 0 0 0 0 0 0 0 0 0 0 0 0 0 0 0 0 0 0 0 0 0 0 0 0 0 0 0 0 0 0 0 0 0 0 0 0 0 0 0 0 0 0 0 0 0 0 0 0 0 0 0 0 0 0 0 0 0 0 0 0 0 0 0 0 0 0 0 0 0 0 0 0 0 0 0 0 0 0 0 0 0 0 0 0 0 0 0 0 0 0 0 0 0 0 0 0 0 0 0 0 0 0 0 0 0 0 0 0 0</DataArray>
        <DataArray type="Float64" Name="ShellBottomVonMises" format="ascii">0 0 0 0 0 0 0 0 0 0 0 0 0 0 0 0 0 0 0 0 0 0 0 0 0 0 0 0 0 0 0 0 0 0 0 0 0 0 0 0 0 0 0 0 0 0 0 0 0 0 0 0 0 0 0 0 0 0 0 0 0 0 0 0 0 0 0 0 0 0 0 0 0 0 0 0 0 0 0 0 0 0 0 0 0 0 0 0 0 0 0 0 0 0 0 0 0 0 0 0 0 0 0 0 0 0 0 0 0 0 0 0 0 0 0 0 0 0 0 0 0 0 0 0 0 0 0 0 0 0 0 0 0 0 0 0 0 0 0 0</DataArray>
      </CellData>
    </Piece>
  </UnstructuredGrid>
</VTKFile>
