$MeshFormat
4.1 0 8
$EndMeshFormat
$PhysicalNames
8
0 6 "anchor_origin"
0 7 "anchor_x"
0 8 "anchor_xy"
2 2 "x_min"
2 3 "x_max"
2 4 "y_min"
2 5 "z_min"
3 1 "domain"
$EndPhysicalNames
$Entities
8 12 6 1
1 0 0 0.2 3 6 7 8 
2 0 0 0 0 
3 0 0.2 0.2 0 
4 0 0.2 0 0 
5 1 0 0.2 0 
6 1 0 0 0 
7 1 0.2 0.2 0 
8 1 0.2 0 0 
1 -1e-07 -1e-07 -1.000000000028756e-07 1e-07 1e-07 0.2000001 0 2 2 -1 
2 -1e-07 -1.000000000028756e-07 0.1999999 1e-07 0.2000001 0.2000001 0 2 1 -3 
3 -1e-07 0.1999999 -1.000000000028756e-07 1e-07 0.2000001 0.2000001 0 2 4 -3 
4 -1e-07 -1.000000000028756e-07 -1e-07 1e-07 0.2000001 1e-07 0 2 2 -4 
5 0.9999999000000001 -1e-07 -1.000000000028756e-07 1.0000001 1e-07 0.2000001 0 2 6 -5 
6 0.9999999000000001 -1.000000000028756e-07 0.1999999 1.0000001 0.2000001 0.2000001 0 2 5 -7 
7 0.9999999000000001 0.1999999 -1.000000000028756e-07 1.0000001 0.2000001 0.2000001 0 2 8 -7 
8 0.9999999000000001 -1.000000000028756e-07 -1e-07 1.0000001 0.2000001 1e-07 0 2 6 -8 
9 -9.999999994736442e-08 -1e-07 -1e-07 1.0000001 1e-07 1e-07 0 2 2 -6 
10 -9.999999994736442e-08 -1e-07 0.1999999 1.0000001 1e-07 0.2000001 0 2 1 -5 
11 -9.999999994736442e-08 0.1999999 -1e-07 1.0000001 0.2000001 1e-07 0 2 4 -8 
12 -9.999999994736442e-08 0.1999999 0.1999999 1.0000001 0.2000001 0.2000001 0 2 3 -7 
1 -1e-07 -1.000000000028756e-07 -1.000000000028756e-07 1e-07 0.2000001 0.2000001 1 2 4 -1 4 3 -2 
2 0.9999999000000001 -1.000000000028756e-07 -1.000000000028756e-07 1.0000001 0.2000001 0.2000001 1 3 4 -5 8 7 -6 
3 -9.999999994736442e-08 -1e-07 -1.000000000028756e-07 1.0000001 1e-07 0.2000001 1 4 4 -9 1 10 -5 
4 -9.999999994736442e-08 0.1999999 -1.000000000028756e-07 1.0000001 0.2000001 0.2000001 0 4 -11 3 12 -7 
5 -9.999999994736442e-08 -1.000000000028756e-07 -1e-07 1.0000001 0.2000001 1e-07 1 5 4 -4 9 8 -11 
6 -9.999999994736442e-08 -1.000000000028756e-07 0.1999999 1.0000001 0.2000001 0.2000001 0 4 -2 10 6 -12 
1 -9.999999994736442e-08 -1.000000000028756e-07 -1.000000000028756e-07 1.0000001 0.2000001 0.2000001 1 1 6 -1 2 -3 4 -5 6 
$EndEntities
$Nodes
27 341 1 341
0 1 0 1
1
0 0 0.2
0 2 0 1
2
0 0 0
0 3 0 1
3
0 0.2 0.2
0 4 0 1
4
0 0.2 0
0 5 0 1
5
1 0 0.2
0 6 0 1
6
1 0 0
0 7 0 1
7
1 0.2 0.2
0 8 0 1
8
1 0.2 0
1 1 0 3
9
10
11
0 0 0.1000000000000001
0 0 0.05000000000000007
0 0 0.1500000000000001
1 2 0 3
12
13
14
0 0.1000000000000001 0.2
0 0.05000000000000007 0.2
0 0.1500000000000001 0.2
1 3 0 3
15
16
17
0 0.2 0.1000000000000001
0 0.2 0.05000000000000007
0 0.2 0.1500000000000001
1 4 0 3
18
19
20
0 0.1000000000000001 0
0 0.05000000000000007 0
0 0.1500000000000001 0
1 5 0 3
21
22
23
1 0 0.1000000000000001
1 0 0.05000000000000007
1 0 0.1500000000000001
1 6 0 3
24
25
26
1 0.1000000000000001 0.2
1 0.05000000000000007 0.2
1 0.1500000000000001 0.2
1 7 0 3
27
28
29
1 0.2 0.1000000000000001
1 0.2 0.05000000000000007
1 0.2 0.1500000000000001
1 8 0 3
30
31
32
1 0.1000000000000001 0
1 0.05000000000000007 0
1 0.1500000000000001 0
1 9 0 11
33
34
35
36
37
38
39
40
41
42
43
0.1666666666666664 0 0
0.333333333333333 0 0
0.4999999999999998 0 0
0.6666666666666665 0 0
0.8333333333333331 0 0
0.08333333333333318 0 0
0.2499999999999997 0 0
0.4166666666666664 0 0
0.5833333333333331 0 0
0.7499999999999998 0 0
0.9166666666666665 0 0
1 10 0 11
44
45
46
47
48
49
50
51
52
53
54
0.1666666666666664 0 0.2
0.333333333333333 0 0.2
0.4999999999999998 0 0.2
0.6666666666666665 0 0.2
0.8333333333333331 0 0.2
0.08333333333333318 0 0.2
0.2499999999999997 0 0.2
0.4166666666666664 0 0.2
0.5833333333333331 0 0.2
0.7499999999999998 0 0.2
0.9166666666666665 0 0.2
1 11 0 11
55
56
57
58
59
60
61
62
63
64
65
0.1666666666666664 0.2 0
0.333333333333333 0.2 0
0.4999999999999998 0.2 0
0.6666666666666665 0.2 0
0.8333333333333331 0.2 0
0.08333333333333318 0.2 0
0.2499999999999997 0.2 0
0.4166666666666664 0.2 0
0.5833333333333331 0.2 0
0.7499999999999998 0.2 0
0.9166666666666665 0.2 0
1 12 0 11
66
67
68
69
70
71
72
73
74
75
76
0.1666666666666664 0.2 0.2
0.333333333333333 0.2 0.2
0.4999999999999998 0.2 0.2
0.6666666666666665 0.2 0.2
0.8333333333333331 0.2 0.2
0.08333333333333318 0.2 0.2
0.2499999999999997 0.2 0.2
0.4166666666666664 0.2 0.2
0.5833333333333331 0.2 0.2
0.7499999999999998 0.2 0.2
0.9166666666666665 0.2 0.2
2 1 0 21
77
78
79
80
81
82
83
84
85
86
87
88
89
90
91
92
93
94
95
96
97
0 0.05227769679300298 0.05227769679300298
0 0.07500000000000001 0.1250000000000001
0 0.1285046161321672 0.07017128279883386
0 0.14375 0.14375
0 0.03750000000000001 0.1625
0 0.03750000000000001 0.1125000000000001
0 0.08750000000000008 0.1625
0 0.02613884839650149 0.07613884839650156
0 0.02613884839650149 0.02613884839650149
0 0.07613884839650156 0.02613884839650149
0 0.171875 0.171875
0 0.1218750000000001 0.171875
0 0.171875 0.1218750000000001
0 0.1642523080660836 0.03508564139941693
0 0.1642523080660836 0.085085641399417
0 0.1142523080660837 0.03508564139941693
0 0.0636388483965015 0.08863884839650153
0 0.109375 0.134375
0 0.1361273080660836 0.1069606413994169
0 0.09039115646258508 0.06122448979591842
0 0.1017523080660836 0.09758564139941697
2 2 0 21
98
99
100
101
102
103
104
105
106
107
108
109
110
111
112
113
114
115
116
117
118
1 0.05227769679300298 0.05227769679300298
1 0.07500000000000001 0.1250000000000001
1 0.1285046161321672 0.07017128279883386
1 0.14375 0.14375
1 0.03750000000000001 0.1125000000000001
1 0.03750000000000001 0.1625
1 0.08750000000000008 0.1625
1 0.02613884839650149 0.02613884839650149
1 0.02613884839650149 0.07613884839650156
1 0.07613884839650156 0.02613884839650149
1 0.1218750000000001 0.171875
1 0.171875 0.171875
1 0.171875 0.1218750000000001
1 0.1642523080660836 0.085085641399417
1 0.1642523080660836 0.03508564139941693
1 0.1142523080660837 0.03508564139941693
1 0.0636388483965015 0.08863884839650153
1 0.109375 0.134375
1 0.1361273080660836 0.1069606413994169
1 0.09039115646258508 0.06122448979591842
1 0.1017523080660836 0.09758564139941697
2 3 0 37
119
120
121
122
123
124
125
126
127
128
129
130
131
132
133
134
135
136
137
138
139
140
141
142
143
144
145
146
147
148
149
150
151
152
153
154
155
0.2499999999999996 0 0.1
0.1018253968253967 0 0.1
0.7499999999999997 0 0.09999999999999994
0.8981746031746032 0 0.09999999999999998
0.4166666666666665 0 0.1
0.5833333333333331 0 0.1
0.05091269841269834 0 0.1000000000000001
0.05091269841269834 0 0.15
0.1342460317460315 0 0.15
0.05091269841269834 0 0.05000000000000001
0.1342460317460315 0 0.05000000000000001
0.9490873015873016 0 0.15
0.9490873015873016 0 0.1000000000000001
0.8657539682539681 0 0.15
0.9490873015873016 0 0.04999999999999999
0.8657539682539681 0 0.04999999999999999
0.2916666666666663 0 0.05
0.208333333333333 0 0.05
0.1759126984126981 0 0.1
0.4583333333333331 0 0.05000000000000001
0.3749999999999998 0 0.05000000000000001
0.333333333333333 0 0.1
0.6249999999999998 0 0.05
0.5416666666666665 0 0.05
0.4999999999999998 0 0.1
0.7916666666666664 0 0.04999999999999997
0.708333333333333 0 0.04999999999999997
0.6666666666666664 0 0.09999999999999998
0.8240873015873014 0 0.09999999999999995
0.208333333333333 0 0.15
0.2916666666666663 0 0.15
0.3749999999999998 0 0.15
0.4583333333333331 0 0.15
0.5416666666666665 0 0.15
0.6249999999999998 0 0.15
0.708333333333333 0 0.15
0.7916666666666664 0 0.15
2 4 0 37
156
157
158
159
160
161
162
163
164
165
166
167
168
169
170
171
172
173
174
175
176
177
178
179
180
181
182
183
184
185
186
187
188
189
190
191
192
0.2499999999999997 0.2 0.1
0.1018253968253967 0.2 0.1
0.5833333333333331 0.2 0.1
0.4166666666666664 0.2 0.1
0.7499999999999997 0.2 0.1
0.8981746031746032 0.2 0.1
0.05091269841269834 0.2 0.15
0.05091269841269834 0.2 0.1000000000000001
0.1342460317460315 0.2 0.15
0.05091269841269834 0.2 0.05000000000000001
0.1342460317460315 0.2 0.05000000000000001
0.9490873015873016 0.2 0.1000000000000001
0.9490873015873016 0.2 0.15
0.8657539682539681 0.2 0.15
0.9490873015873016 0.2 0.05000000000000002
0.8657539682539681 0.2 0.05000000000000002
0.208333333333333 0.2 0.05
0.2916666666666664 0.2 0.05
0.1759126984126982 0.2 0.1
0.3749999999999997 0.2 0.05
0.4583333333333331 0.2 0.05
0.333333333333333 0.2 0.1
0.5416666666666665 0.2 0.05
0.6249999999999998 0.2 0.05
0.4999999999999998 0.2 0.1
0.708333333333333 0.2 0.05000000000000001
0.7916666666666664 0.2 0.05000000000000001
0.6666666666666664 0.2 0.1
0.8240873015873014 0.2 0.1
0.2916666666666664 0.2 0.15
0.208333333333333 0.2 0.15
0.4583333333333331 0.2 0.15
0.3749999999999997 0.2 0.15
0.6249999999999998 0.2 0.15
0.5416666666666665 0.2 0.15
0.7916666666666664 0.2 0.15
0.708333333333333 0.2 0.15
2 5 0 37
193
194
195
196
197
198
199
200
201
202
203
204
205
206
207
208
209
210
211
212
213
214
215
216
217
218
219
220
221
222
223
224
225
226
227
228
229
0.2499999999999996 0.09999999999999999 0
0.1018253968253967 0.1 0
0.5833333333333331 0.1 0
0.4166666666666665 0.1 0
0.7499999999999997 0.1 0
0.8981746031746032 0.1 0
0.05091269841269834 0.1000000000000001 0
0.05091269841269834 0.05000000000000002 0
0.1342460317460315 0.05000000000000002 0
0.05091269841269834 0.15 0
0.1342460317460315 0.15 0
0.9490873015873016 0.05000000000000002 0
0.9490873015873016 0.1000000000000001 0
0.8657539682539681 0.05000000000000002 0
0.9490873015873016 0.15 0
0.8657539682539681 0.15 0
0.208333333333333 0.05 0
0.2916666666666663 0.05 0
0.1759126984126981 0.1 0
0.3749999999999998 0.05 0
0.4583333333333331 0.05 0
0.333333333333333 0.1 0
0.5416666666666665 0.05 0
0.6249999999999998 0.05 0
0.4999999999999998 0.1 0
0.708333333333333 0.05000000000000001 0
0.7916666666666664 0.05000000000000001 0
0.6666666666666664 0.1 0
0.8240873015873014 0.1 0
0.2916666666666663 0.15 0
0.208333333333333 0.15 0
0.4583333333333331 0.15 0
0.3749999999999998 0.15 0
0.6249999999999998 0.15 0
0.5416666666666665 0.15 0
0.7916666666666664 0.15 0
0.708333333333333 0.15 0
2 6 0 37
230
231
232
233
234
235
236
237
238
239
240
241
242
243
244
245
246
247
248
249
250
251
252
253
254
255
256
257
258
259
260
261
262
263
264
265
266
0.2499999999999996 0.09999999999999999 0.2
0.1018253968253967 0.1 0.2
0.5833333333333331 0.1 0.2
0.4166666666666665 0.1 0.2
0.7499999999999997 0.1 0.2
0.8981746031746032 0.09999999999999998 0.2
0.05091269841269834 0.05000000000000002 0.2
0.05091269841269834 0.1000000000000001 0.2
0.1342460317460315 0.05000000000000002 0.2
0.05091269841269834 0.15 0.2
0.1342460317460315 0.15 0.2
0.9490873015873016 0.1000000000000001 0.2
0.9490873015873016 0.04999999999999999 0.2
0.8657539682539681 0.04999999999999999 0.2
0.9490873015873016 0.15 0.2
0.8657539682539681 0.15 0.2
0.2916666666666663 0.05 0.2
0.208333333333333 0.05 0.2
0.1759126984126981 0.1 0.2
0.4583333333333331 0.05 0.2
0.3749999999999998 0.05 0.2
0.333333333333333 0.1 0.2
0.6249999999999998 0.05 0.2
0.5416666666666665 0.05 0.2
0.4999999999999998 0.1 0.2
0.7916666666666664 0.05000000000000001 0.2
0.708333333333333 0.05000000000000001 0.2
0.6666666666666664 0.1 0.2
0.8240873015873014 0.1 0.2
0.208333333333333 0.15 0.2
0.2916666666666663 0.15 0.2
0.3749999999999998 0.15 0.2
0.4583333333333331 0.15 0.2
0.5416666666666665 0.15 0.2
0.6249999999999998 0.15 0.2
0.708333333333333 0.15 0.2
0.7916666666666664 0.15 0.2
3 1 0 75
267
268
269
270
271
272
273
274
275
276
277
278
279
280
281
282
283
284
285
286
287
288
289
290
291
292
293
294
295
296
297
298
299
300
301
302
303
304
305
306
307
308
309
310
311
312
313
314
315
316
317
318
319
320
321
322
323
324
325
326
327
328
329
330
331
332
333
334
335
336
337
338
339
340
341
0.05091269841269834 0.171875 0.121875
0.05091269841269834 0.1642523080660836 0.08508564139941693
0.05091269841269834 0.1375 0.1125
0.9490873015873016 0.1642523080660836 0.08508564139941695
0.9490873015873016 0.171875 0.121875
0.9490873015873016 0.1375 0.1125000000000001
0.1018253968253967 0.15 0.15
0.1018253968253967 0.05000000000000002 0.15
0.1018253968253967 0.1 0.1
0.1759126984126981 0.15 0.15
0.1759126984126981 0.05 0.15
0.1018253968253967 0.05000000000000002 0.05000000000000001
0.1018253968253967 0.15 0.05000000000000001
0.1759126984126981 0.1 0.1
0.8240873015873014 0.15 0.15
0.8981746031746032 0.15 0.15
0.8981746031746032 0.1 0.1
0.8981746031746032 0.15 0.05000000000000002
0.8240873015873014 0.15 0.05000000000000001
0.8240873015873014 0.1 0.1
0.8981746031746032 0.05000000000000002 0.04999999999999999
0.8240873015873014 0.05000000000000001 0.15
0.8981746031746032 0.04999999999999999 0.15
0.05091269841269834 0.07613884839650151 0.02613884839650149
0.05091269841269834 0.1142523080660836 0.03508564139941693
0.05091269841269834 0.08750000000000002 0.06250000000000004
0.9490873015873016 0.1142523080660836 0.03508564139941693
0.9490873015873016 0.08750000000000002 0.06250000000000004
0.9490873015873016 0.07613884839650151 0.02613884839650149
0.8240873015873014 0.05000000000000002 0.04999999999999997
0.7499999999999997 0.05000000000000001 0.15
0.1759126984126982 0.15 0.05
0.2499999999999996 0.15 0.15
0.7499999999999997 0.15 0.15
0.1759126984126981 0.05000000000000002 0.05
0.2499999999999996 0.05 0.15
0.6666666666666664 0.1 0.1
0.6666666666666664 0.15 0.05000000000000001
0.7499999999999997 0.15 0.05000000000000001
0.7499999999999997 0.1 0.1
0.7499999999999997 0.05000000000000001 0.04999999999999997
0.6666666666666664 0.05 0.04999999999999997
0.5833333333333331 0.1 0.1
0.6666666666666664 0.05 0.15
0.6666666666666664 0.15 0.15
0.5833333333333331 0.05 0.15
0.5833333333333331 0.05 0.05
0.333333333333333 0.05 0.05
0.4166666666666664 0.15 0.05
0.333333333333333 0.1 0.1
0.333333333333333 0.05 0.15
0.4166666666666664 0.15 0.15
0.4166666666666665 0.1 0.1
0.5833333333333331 0.15 0.15
0.4999999999999998 0.15 0.15
0.5833333333333331 0.15 0.05
0.4999999999999998 0.1 0.1
0.4999999999999998 0.05 0.15
0.4999999999999998 0.05 0.05
0.4999999999999998 0.15 0.05
0.333333333333333 0.15 0.05
0.2499999999999996 0.05 0.05
0.2499999999999996 0.1 0.1
0.2499999999999996 0.15 0.05
0.333333333333333 0.15 0.15
0.4166666666666665 0.05 0.15
0.4166666666666665 0.05 0.05000000000000001
0.05091269841269834 0.121875 0.171875
0.05091269841269834 0.08750000000000002 0.1625
0.9490873015873016 0.08749999999999999 0.1625
0.9490873015873016 0.121875 0.171875
0.05091269841269834 0.02613884839650149 0.07613884839650151
0.05091269841269834 0.03750000000000001 0.1125
0.9490873015873016 0.02613884839650149 0.07613884839650148
0.9490873015873016 0.03750000000000001 0.1125
$EndNodes
$Elements
6 221 1 221
0 1 15 1
1 1 
2 1 9 14
2 9 1 78 11 81 82 
3 1 12 78 13 83 81 
4 2 9 77 10 84 85 
5 18 2 77 19 85 86 
6 12 3 80 14 87 88 
7 3 15 80 17 89 87 
8 15 4 79 16 90 91 
9 4 18 79 20 92 90 
10 77 9 78 84 82 93 
11 78 12 80 83 88 94 
12 15 79 80 91 95 89 
13 18 77 79 86 96 92 
14 77 78 79 93 97 96 
15 79 78 80 97 94 95 
2 2 9 14
16 21 99 5 102 103 23 
17 5 99 24 103 104 25 
18 6 98 21 105 106 22 
19 30 98 6 107 105 31 
20 24 101 7 108 109 26 
21 7 101 27 109 110 29 
22 27 100 8 111 112 28 
23 8 100 30 112 113 32 
24 98 99 21 114 102 106 
25 99 101 24 115 108 104 
26 27 101 100 110 116 111 
27 30 100 98 113 117 107 
28 98 100 99 117 118 114 
29 100 101 99 116 115 118 
2 3 9 26
30 1 9 120 11 125 126 
31 44 1 120 49 126 127 
32 9 2 120 10 128 125 
33 2 33 120 38 129 128 
34 21 5 122 23 130 131 
35 5 48 122 54 132 130 
36 6 21 122 22 131 133 
37 37 6 122 43 133 134 
38 33 34 119 39 135 136 
39 33 119 120 136 137 129 
40 34 35 123 40 138 139 
41 119 34 123 135 139 140 
42 35 36 124 41 141 142 
43 123 35 124 138 142 143 
44 36 37 121 42 144 145 
45 36 121 124 145 146 141 
46 121 37 122 144 134 147 
47 45 44 119 50 148 149 
48 119 44 120 148 127 137 
49 46 45 123 51 150 151 
50 45 119 123 149 140 150 
51 47 46 124 52 152 153 
52 46 123 124 151 143 152 
53 48 47 121 53 154 155 
54 121 47 124 154 153 146 
55 48 121 122 155 147 132 
2 5 9 26
56 2 18 194 19 199 200 
57 33 2 194 38 200 201 
58 18 4 194 20 202 199 
59 4 55 194 60 203 202 
60 30 6 198 31 204 205 
61 6 37 198 43 206 204 
62 8 30 198 32 205 207 
63 59 8 198 65 207 208 
64 34 33 193 39 209 210 
65 193 33 194 209 201 211 
66 35 34 196 40 212 213 
67 34 193 196 210 214 212 
68 36 35 195 41 215 216 
69 195 35 196 215 213 217 
70 37 36 197 42 218 219 
71 36 195 197 216 220 218 
72 37 197 198 219 221 206 
73 55 56 193 61 222 223 
74 55 193 194 223 211 203 
75 56 57 196 62 224 225 
76 193 56 196 222 225 214 
77 57 58 195 63 226 227 
78 57 195 196 227 217 224 
79 58 59 197 64 228 229 
80 195 58 197 226 229 220 
81 197 59 198 228 208 221 
3 1 11 140
82 157 80 79 78 267 95 268 269 97 94 
83 100 99 101 161 118 115 116 270 271 272 
84 157 231 120 230 273 274 275 276 277 248 
85 120 194 157 230 278 279 275 277 276 280 
86 235 160 161 198 281 184 282 283 284 285 
87 198 235 234 122 283 258 286 287 288 289 
88 77 194 79 78 290 291 96 93 97 292 
89 198 100 99 98 293 118 294 295 114 117 
90 121 198 234 122 296 286 297 147 288 287 
91 194 156 157 230 298 174 279 280 276 299 
92 160 235 234 198 281 258 300 285 286 283 
93 120 119 194 230 137 301 278 277 280 302 
94 157 79 194 78 268 291 279 269 292 97 
95 161 100 99 198 270 118 272 284 294 293 
96 160 234 195 197 300 303 304 305 220 306 
97 234 195 197 121 303 220 306 297 307 308 
98 195 234 232 121 303 257 309 308 310 297 
99 160 234 232 195 300 257 311 304 309 303 
100 195 232 124 121 309 312 313 308 146 310 
101 119 196 159 233 314 315 316 317 318 319 
102 158 232 233 195 320 254 321 322 323 309 
103 232 124 233 195 312 324 254 309 323 313 
104 124 196 233 195 325 319 324 313 323 217 
105 158 160 232 195 183 311 320 322 309 304 
106 158 233 196 195 321 319 326 322 217 323 
107 159 193 119 156 327 328 316 177 329 330 
108 119 159 156 233 316 177 329 317 331 318 
109 233 123 196 124 332 333 319 324 325 143 
110 230 119 156 233 302 329 299 251 331 317 
111 196 193 119 159 214 328 314 315 316 327 
112 196 119 123 233 314 140 333 319 332 317 
113 196 159 233 158 315 318 319 326 321 180 
114 234 197 198 121 306 221 286 297 296 307 
115 197 234 198 160 306 286 221 305 285 300 
116 156 119 194 193 329 301 298 330 211 328 
117 119 156 194 230 329 298 301 302 280 299 
118 80 157 231 78 267 273 334 94 335 269 
119 99 235 101 161 336 337 115 272 271 282 
120 194 77 120 78 290 338 278 292 339 93 
121 98 99 198 122 114 294 295 340 287 341 
122 120 231 157 78 274 273 275 339 269 335 
123 120 157 194 78 275 279 278 339 292 269 
124 198 99 235 122 294 336 283 287 289 341 
125 161 99 235 198 272 336 282 284 283 294 
126 67 156 159 233 185 177 188 261 318 331 
127 45 123 119 233 150 140 149 250 317 332 
128 119 34 193 196 135 210 328 314 214 212 
129 56 193 159 156 222 327 175 173 177 330 
130 230 45 119 233 246 149 302 251 317 250 
131 193 196 56 159 214 225 222 327 175 315 
132 124 233 46 232 324 249 152 312 253 254 
133 195 124 196 35 313 325 217 215 213 142 
134 156 67 230 233 185 260 299 331 251 261 
135 68 232 233 158 263 254 262 190 321 320 
136 68 233 159 158 262 318 187 190 180 321 
137 57 158 196 195 178 326 224 227 217 322 
138 121 195 36 124 308 216 145 146 141 313 
139 232 47 124 121 252 153 312 310 146 154 
140 69 234 232 160 265 257 264 192 311 300 
141 123 233 46 124 332 249 151 143 152 324 
142 160 158 58 195 183 179 181 304 226 322 
143 158 196 159 57 326 315 180 178 176 224 
144 195 58 160 197 226 181 304 220 305 229 
145 195 121 36 197 308 145 216 220 218 307 
146 234 47 232 121 256 252 257 297 310 154 
147 119 34 196 123 135 212 314 140 333 139 
148 124 123 196 35 143 333 325 142 213 138 
149 232 69 160 158 264 192 311 320 183 189 
150 122 121 198 37 147 296 287 134 206 144 
151 235 48 234 122 243 255 258 289 288 132 
152 59 161 160 198 171 184 182 208 285 284 
153 70 235 160 161 245 281 191 169 184 282 
154 55 194 156 157 203 298 172 166 174 279 
155 194 33 119 120 201 136 301 278 137 129 
156 231 44 120 230 238 127 274 248 277 247 
157 157 66 231 230 164 240 273 276 248 259 
158 198 160 59 197 285 182 208 221 228 305 
159 70 235 234 160 245 258 266 191 300 281 
160 121 234 48 122 297 255 155 147 132 288 
161 197 198 121 37 221 296 307 219 144 206 
162 194 193 55 156 211 223 203 298 172 330 
163 66 157 156 230 164 174 186 259 299 276 
164 120 44 119 230 127 148 137 277 302 247 
165 119 33 194 193 136 201 301 328 211 209 
166 77 194 18 79 290 199 86 96 92 291 
167 100 198 30 98 293 205 113 117 107 295 
168 80 79 15 157 95 91 89 267 163 268 
169 100 101 27 161 116 110 111 270 167 271 
170 77 9 120 78 84 125 338 93 339 82 
171 21 99 98 122 102 114 106 131 340 341 
172 194 77 2 120 290 85 200 278 128 338 
173 98 198 6 122 295 204 105 340 133 287 
174 231 12 80 78 237 88 334 335 94 83 
175 99 235 24 101 336 241 104 115 108 337 
176 3 80 157 231 87 267 162 239 273 334 
177 101 235 7 161 337 244 109 271 168 282 
178 79 194 4 157 291 202 90 268 165 279 
179 8 100 161 198 112 270 170 207 284 293 
180 120 1 231 78 126 236 274 339 335 81 
181 235 99 5 122 336 103 242 289 130 341 
182 120 9 1 78 125 11 126 339 81 82 
183 1 12 231 78 13 237 236 81 335 83 
184 21 5 99 122 23 103 102 131 341 130 
185 235 5 99 24 242 103 336 241 104 25 
186 80 15 3 157 89 17 87 267 162 163 
187 80 3 12 231 87 14 88 334 237 239 
188 24 235 7 101 241 244 26 108 109 337 
189 101 7 27 161 109 29 110 271 167 168 
190 2 77 194 18 85 290 200 19 199 86 
191 2 77 9 120 85 84 10 128 125 338 
192 98 6 21 122 105 22 106 340 131 133 
193 30 198 6 98 205 204 31 107 105 295 
194 4 15 79 157 16 91 90 165 268 163 
195 27 8 100 161 28 112 111 167 270 170 
196 18 194 4 79 199 202 20 92 90 291 
197 8 100 198 30 112 293 207 32 205 113 
198 194 2 33 120 200 38 201 278 129 128 
199 4 194 55 157 202 203 60 165 166 279 
200 44 1 231 120 49 236 238 127 274 126 
201 66 3 157 231 71 162 164 240 273 239 
202 59 8 161 198 65 170 171 208 284 207 
203 235 5 48 122 242 54 243 289 132 130 
204 198 6 122 37 204 133 287 206 134 43 
205 70 7 235 161 76 244 245 169 282 168 
206 195 124 35 36 313 142 215 216 41 141 
207 124 46 47 232 152 52 153 312 252 253 
208 159 67 233 68 188 261 318 187 262 73 
209 234 69 70 160 265 75 266 300 191 192 
210 121 36 197 37 145 218 307 144 219 42 
211 193 56 55 156 222 61 223 330 172 173 
212 34 196 123 35 212 333 139 40 138 213 
213 68 69 232 158 74 264 263 190 320 189 
214 57 58 158 195 63 179 178 227 322 226 
215 47 234 48 121 256 255 53 154 155 297 
216 33 119 34 193 136 135 39 209 210 328 
217 233 45 123 46 250 150 332 249 151 51 
218 196 56 159 57 225 175 315 224 176 62 
219 58 59 160 197 64 182 181 229 305 228 
220 67 66 156 230 72 186 185 260 299 259 
221 119 44 45 230 148 50 149 302 246 247 
$EndElements
