<?xml version="1.0"?>
<VTKFile type="UnstructuredGrid" version="0.1" byte_order="LittleEndian">
  <UnstructuredGrid>
    <Piece NumberOfPoints="441" NumberOfCells="400">
      <Points>
        <DataArray type="Float64" NumberOfComponents="3" format="ascii">0 -16.0696902422 19.151111078 0 -14.6946313073 20.2254248594 0 -13.2479816058 21.2012024039 0 -11.7367890696 22.0736898215 0 -10.1684160769 22.8386364411 0 -8.55050358314 23.4923155196 0 -6.89093389542 24.0315423985 0 -5.19779227044 24.4536900183 0 -3.479327524 24.7567017185 0 -1.7439118436 24.9391012565 0 0 25 0 1.7439118436 24.9391012565 0 3.479327524 24.7567017185 0 5.19779227044 24.4536900183 0 6.89093389542 24.0315423985 0 8.55050358314 23.4923155196 0 10.1684160769 22.8386364411 0 11.7367890696 22.0736898215 0 13.2479816058 21.2012024039 0 14.6946313073 20.2254248594 0 16.0696902422 19.151111078 2.5 -16.0696902422 19.151111078 2.5 -14.6946313073 20.2254248594 2.5 -13.2479816058 21.2012024039 2.5 -11.7367890696 22.0736898215 2.5 -10.1684160769 22.8386364411 2.5 -8.55050358314 23.4923155196 2.5 -6.89093389542 24.0315423985 2.5 -5.19779227044 24.4536900183 2.5 -3.479327524 24.7567017185 2.5 -1.7439118436 24.9391012565 2.5 0 25 2.5 1.7439118436 24.9391012565 2.5 3.479327524 24.7567017185 2.5 5.19779227044 24.4536900183 2.5 6.89093389542 24.0315423985 2.5 8.55050358314 23.4923155196 2.5 10.1684160769 22.8386364411 2.5 11.7367890696 22.0736898215 2.5 13.2479816058 21.2012024039 2.5 14.6946313073 20.2254248594 2.5 16.0696902422 19.151111078 5 -16.0696902422 19.151111078 5 -14.6946313073 20.2254248594 5 -13.2479816058 21.2012024039 5 -11.7367890696 22.0736898215 5 -10.1684160769 22.8386364411 5 -8.55050358314 23.4923155196 5 -6.89093389542 24.0315423985 5 -5.19779227044 24.4536900183 5 -3.479327524 24.7567017185 5 -1.7439118436 24.9391012565 5 0 25 5 1.7439118436 24.9391012565 5 3.479327524 24.7567017185 5 5.19779227044 24.4536900183 5 6.89093389542 24.0315423985 5 8.55050358314 23.4923155196 5 10.1684160769 22.8386364411 5 11.7367890696 22.0736898215 5 13.2479816058 21.2012024039 5 14.6946313073 20.2254248594 5 16.0696902422 19.151111078 7.5 -16.0696902422 19.151111078 7.5 -14.6946313073 20.2254248594 7.5 -13.2479816058 21.2012024039 7.5 -11.7367890696 22.0736898215 7.5 -10.1684160769 22.8386364411 7.5 -8.55050358314 23.4923155196 7.5 -6.89093389542 24.0315423985 7.5 -5.19779227044 24.4536900183 7.5 -3.479327524 24.7567017185 7.5 -1.7439118436 24.9391012565 7.5 0 25 7.5 1.7439118436 24.9391012565 7.5 3.479327524 24.7567017185 7.5 5.19779227044 24.4536900183 7.5 6.89093389542 24.0315423985 7.5 8.55050358314 23.4923155196 7.5 10.1684160769 22.8386364411 7.5 11.7367890696 22.0736898215 7.5 13.2479816058 21.2012024039 7.5 14.6946313073 20.2254248594 7.5 16.0696902422 19.151111078 10 -16.0696902422 19.151111078 10 -14.6946313073 20.2254248594 10 -13.2479816058 21.2012024039 10 -11.7367890696 22.0736898215 10 -10.1684160769 22.8386364411 10 -8.55050358314 23.4923155196 10 -6.89093389542 24.0315423985 10 -5.19779227044 24.4536900183 10 -3.479327524 24.7567017185 10 -1.7439118436 24.9391012565 10 0 25 10 1.7439118436 24.9391012565 10 3.479327524 24.7567017185 10 5.19779227044 24.4536900183 10 6.89093389542 24.0315423985 10 8.55050358314 23.4923155196 10 10.1684160769 22.8386364411 10 11.7367890696 22.0736898215 10 13.2479816058 21.2012024039 10 14.6946313073 20.2254248594 10 16.0696902422 19.151111078 12.5 -16.0696902422 19.151111078 12.5 -14.6946313073 20.2254248594 12.5 -13.2479816058 21.2012024039 12.5 -11.7367890696 22.0736898215 12.5 -10.1684160769 22.8386364411 12.5 -8.55050358314 23.4923155196 12.5 -6.89093389542 24.0315423985 12.5 -5.19779227044 24.4536900183 12.5 -3.479327524 24.7567017185 12.5 -1.7439118436 24.9391012565 12.5 0 25 12.5 1.7439118436 24.9391012565 12.5 3.479327524 24.7567017185 12.5 5.19779227044 24.4536900183 12.5 6.89093389542 24.0315423985 12.5 8.55050358314 23.4923155196 12.5 10.1684160769 22.8386364411 12.5 11.7367890696 22.0736898215 12.5 13.2479816058 21.2012024039 12.5 14.6946313073 20.2254248594 12.5 16.0696902422 19.151111078 15 -16.0696902422 19.151111078 15 -14.6946313073 20.2254248594 15 -13.2479816058 21.2012024039 15 -11.7367890696 22.0736898215 15 -10.1684160769 22.8386364411 15 -8.55050358314 23.4923155196 15 -6.89093389542 24.0315423985 15 -5.19779227044 24.4536900183 15 -3.479327524 24.7567017185 15 -1.7439118436 24.9391012565 15 0 25 15 1.7439118436 24.9391012565 15 3.479327524 24.7567017185 15 5.19779227044 24.4536900183 15 6.89093389542 24.0315423985 15 8.55050358314 23.4923155196 15 10.1684160769 22.8386364411 15 11.7367890696 22.0736898215 15 13.2479816058 21.2012024039 15 14.6946313073 20.2254248594 15 16.0696902422 19.151111078 17.5 -16.0696902422 19.151111078 17.5 -14.6946313073 20.2254248594 17.5 -13.2479816058 21.2012024039 17.5 -11.7367890696 22.0736898215 17.5 -10.1684160769 22.8386364411 17.5 -8.55050358314 23.4923155196 17.5 -6.89093389542 24.0315423985 17.5 -5.19779227044 24.4536900183 17.5 -3.479327524 24.7567017185 17.5 -1.7439118436 24.9391012565 17.5 0 25 17.5 1.7439118436 24.9391012565 17.5 3.479327524 24.7567017185 17.5 5.19779227044 24.4536900183 17.5 6.89093389542 24.0315423985 17.5 8.55050358314 23.4923155196 17.5 10.1684160769 22.8386364411 17.5 11.7367890696 22.0736898215 17.5 13.2479816058 21.2012024039 17.5 14.6946313073 20.2254248594 17.5 16.0696902422 19.151111078 20 -16.0696902422 19.151111078 20 -14.6946313073 20.2254248594 20 -13.2479816058 21.2012024039 20 -11.7367890696 22.0736898215 20 -10.1684160769 22.8386364411 20 -8.55050358314 23.4923155196 20 -6.89093389542 24.0315423985 20 -5.19779227044 24.4536900183 20 -3.479327524 24.7567017185 20 -1.7439118436 24.9391012565 20 0 25 20 1.7439118436 24.9391012565 20 3.479327524 24.7567017185 20 5.19779227044 24.4536900183 20 6.89093389542 24.0315423985 20 8.55050358314 23.4923155196 20 10.1684160769 22.8386364411 20 11.7367890696 22.0736898215 20 13.2479816058 21.2012024039 20 14.6946313073 20.2254248594 20 16.0696902422 19.151111078 22.5 -16.0696902422 19.151111078 22.5 -14.6946313073 20.2254248594 22.5 -13.2479816058 21.2012024039 22.5 -11.7367890696 22.0736898215 22.5 -10.1684160769 22.8386364411 22.5 -8.55050358314 23.4923155196 22.5 -6.89093389542 24.0315423985 22.5 -5.19779227044 24.4536900183 22.5 -3.479327524 24.7567017185 22.5 -1.7439118436 24.9391012565 22.5 0 25 22.5 1.7439118436 24.9391012565 22.5 3.479327524 24.7567017185 22.5 5.19779227044 24.4536900183 22.5 6.89093389542 24.0315423985 22.5 8.55050358314 23.4923155196 22.5 10.1684160769 22.8386364411 22.5 11.7367890696 22.0736898215 22.5 13.2479816058 21.2012024039 22.5 14.6946313073 20.2254248594 22.5 16.0696902422 19.151111078 25 -16.0696902422 19.151111078 25 -14.6946313073 20.2254248594 25 -13.2479816058 21.2012024039 25 -11.7367890696 22.0736898215 25 -10.1684160769 22.8386364411 25 -8.55050358314 23.4923155196 25 -6.89093389542 24.0315423985 25 -5.19779227044 24.4536900183 25 -3.479327524 24.7567017185 25 -1.7439118436 24.9391012565 25 0 25 25 1.7439118436 24.9391012565 25 3.479327524 24.7567017185 25 5.19779227044 24.4536900183 25 6.89093389542 24.0315423985 25 8.55050358314 23.4923155196 25 10.1684160769 22.8386364411 25 11.7367890696 22.0736898215 25 13.2479816058 21.2012024039 25 14.6946313073 20.2254248594 25 16.0696902422 19.151111078 27.5 -16.0696902422 19.151111078 27.5 -14.6946313073 20.2254248594 27.5 -13.2479816058 21.2012024039 27.5 -11.7367890696 22.0736898215 27.5 -10.1684160769 22.8386364411 27.5 -8.55050358314 23.4923155196 27.5 -6.89093389542 24.0315423985 27.5 -5.19779227044 24.4536900183 27.5 -3.479327524 24.7567017185 27.5 -1.7439118436 24.9391012565 27.5 0 25 27.5 1.7439118436 24.9391012565 27.5 3.479327524 24.7567017185 27.5 5.19779227044 24.4536900183 27.5 6.89093389542 24.0315423985 27.5 8.55050358314 23.4923155196 27.5 10.1684160769 22.8386364411 27.5 11.7367890696 22.0736898215 27.5 13.2479816058 21.2012024039 27.5 14.6946313073 20.2254248594 27.5 16.0696902422 19.151111078 30 -16.0696902422 19.151111078 30 -14.6946313073 20.2254248594 30 -13.2479816058 21.2012024039 30 -11.7367890696 22.0736898215 30 -10.1684160769 22.8386364411 30 -8.55050358314 23.4923155196 30 -6.89093389542 24.0315423985 30 -5.19779227044 24.4536900183 30 -3.479327524 24.7567017185 30 -1.7439118436 24.9391012565 30 0 25 30 1.7439118436 24.9391012565 30 3.479327524 24.7567017185 30 5.19779227044 24.4536900183 30 6.89093389542 24.0315423985 30 8.55050358314 23.4923155196 30 10.1684160769 22.8386364411 30 11.7367890696 22.0736898215 30 13.2479816058 21.2012024039 30 14.6946313073 20.2254248594 30 16.0696902422 19.151111078 32.5 -16.0696902422 19.151111078 32.5 -14.6946313073 20.2254248594 32.5 -13.2479816058 21.2012024039 32.5 -11.7367890696 22.0736898215 32.5 -10.1684160769 22.8386364411 32.5 -8.55050358314 23.4923155196 32.5 -6.89093389542 24.0315423985 32.5 -5.19779227044 24.4536900183 32.5 -3.479327524 24.7567017185 32.5 -1.7439118436 24.9391012565 32.5 0 25 32.5 1.7439118436 24.9391012565 32.5 3.479327524 24.7567017185 32.5 5.19779227044 24.4536900183 32.5 6.89093389542 24.0315423985 32.5 8.55050358314 23.4923155196 32.5 10.1684160769 22.8386364411 32.5 11.7367890696 22.0736898215 32.5 13.2479816058 21.2012024039 32.5 14.6946313073 20.2254248594 32.5 16.0696902422 19.151111078 35 -16.0696902422 19.151111078 35 -14.6946313073 20.2254248594 35 -13.2479816058 21.2012024039 35 -11.7367890696 22.0736898215 35 -10.1684160769 22.8386364411 35 -8.55050358314 23.4923155196 35 -6.89093389542 24.0315423985 35 -5.19779227044 24.4536900183 35 -3.479327524 24.7567017185 35 -1.7439118436 24.9391012565 35 0 25 35 1.7439118436 24.9391012565 35 3.479327524 24.7567017185 35 5.19779227044 24.4536900183 35 6.89093389542 24.0315423985 35 8.55050358314 23.4923155196 35 10.1684160769 22.8386364411 35 11.7367890696 22.0736898215 35 13.2479816058 21.2012024039 35 14.6946313073 20.2254248594 35 16.0696902422 19.151111078 37.5 -16.0696902422 19.151111078 37.5 -14.6946313073 20.2254248594 37.5 -13.2479816058 21.2012024039 37.5 -11.7367890696 22.0736898215 37.5 -10.1684160769 22.8386364411 37.5 -8.55050358314 23.4923155196 37.5 -6.89093389542 24.0315423985 37.5 -5.19779227044 24.4536900183 37.5 -3.479327524 24.7567017185 37.5 -1.7439118436 24.9391012565 37.5 0 25 37.5 1.7439118436 24.9391012565 37.5 3.479327524 24.7567017185 37.5 5.19779227044 24.4536900183 37.5 6.89093389542 24.0315423985 37.5 8.55050358314 23.4923155196 37.5 10.1684160769 22.8386364411 37.5 11.7367890696 22.0736898215 37.5 13.2479816058 21.2012024039 37.5 14.6946313073 20.2254248594 37.5 16.0696902422 19.151111078 40 -16.0696902422 19.151111078 40 -14.6946313073 20.2254248594 40 -13.2479816058 21.2012024039 40 -11.7367890696 22.0736898215 40 -10.1684160769 22.8386364411 40 -8.55050358314 23.4923155196 40 -6.89093389542 24.0315423985 40 -5.19779227044 24.4536900183 40 -3.479327524 24.7567017185 40 -1.7439118436 24.9391012565 40 0 25 40 1.7439118436 24.9391012565 40 3.479327524 24.7567017185 40 5.19779227044 24.4536900183 40 6.89093389542 24.0315423985 40 8.55050358314 23.4923155196 40 10.1684160769 22.8386364411 40 11.7367890696 22.0736898215 40 13.2479816058 21.2012024039 40 14.6946313073 20.2254248594 40 16.0696902422 19.151111078 42.5 -16.0696902422 19.151111078 42.5 -14.6946313073 20.2254248594 42.5 -13.2479816058 21.2012024039 42.5 -11.7367890696 22.0736898215 42.5 -10.1684160769 22.8386364411 42.5 -8.55050358314 23.4923155196 42.5 -6.89093389542 24.0315423985 42.5 -5.19779227044 24.4536900183 42.5 -3.479327524 24.7567017185 42.5 -1.7439118436 24.9391012565 42.5 0 25 42.5 1.7439118436 24.9391012565 42.5 3.479327524 24.7567017185 42.5 5.19779227044 24.4536900183 42.5 6.89093389542 24.0315423985 42.5 8.55050358314 23.4923155196 42.5 10.1684160769 22.8386364411 42.5 11.7367890696 22.0736898215 42.5 13.2479816058 21.2012024039 42.5 14.6946313073 20.2254248594 42.5 16.0696902422 19.151111078 45 -16.0696902422 19.151111078 45 -14.6946313073 20.2254248594 45 -13.2479816058 21.2012024039 45 -11.7367890696 22.0736898215 45 -10.1684160769 22.8386364411 45 -8.55050358314 23.4923155196 45 -6.89093389542 24.0315423985 45 -5.19779227044 24.4536900183 45 -3.479327524 24.7567017185 45 -1.7439118436 24.9391012565 45 0 25 45 1.7439118436 24.9391012565 45 3.479327524 24.7567017185 45 5.19779227044 24.4536900183 45 6.89093389542 24.0315423985 45 8.55050358314 23.4923155196 45 10.1684160769 22.8386364411 45 11.7367890696 22.0736898215 45 13.2479816058 21.2012024039 45 14.6946313073 20.2254248594 45 16.0696902422 19.151111078 47.5 -16.0696902422 19.151111078 47.5 -14.6946313073 20.2254248594 47.5 -13.2479816058 21.2012024039 47.5 -11.7367890696 22.0736898215 47.5 -10.1684160769 22.8386364411 47.5 -8.55050358314 23.4923155196 47.5 -6.89093389542 24.0315423985 47.5 -5.19779227044 24.4536900183 47.5 -3.479327524 24.7567017185 47.5 -1.7439118436 24.9391012565 47.5 0 25 47.5 1.7439118436 24.9391012565 47.5 3.479327524 24.7567017185 47.5 5.19779227044 24.4536900183 47.5 6.89093389542 24.0315423985 47.5 8.55050358314 23.4923155196 47.5 10.1684160769 22.8386364411 47.5 11.7367890696 22.0736898215 47.5 13.2479816058 21.2012024039 47.5 14.6946313073 20.2254248594 47.5 16.0696902422 19.151111078 50 -16.0696902422 19.151111078 50 -14.6946313073 20.2254248594 50 -13.2479816058 21.2012024039 50 -11.7367890696 22.0736898215 50 -10.1684160769 22.8386364411 50 -8.55050358314 23.4923155196 50 -6.89093389542 24.0315423985 50 -5.19779227044 24.4536900183 50 -3.479327524 24.7567017185 50 -1.7439118436 24.9391012565 50 0 25 50 1.7439118436 24.9391012565 50 3.479327524 24.7567017185 50 5.19779227044 24.4536900183 50 6.89093389542 24.0315423985 50 8.55050358314 23.4923155196 50 10.1684160769 22.8386364411 50 11.7367890696 22.0736898215 50 13.2479816058 21.2012024039 50 14.6946313073 20.2254248594 50 16.0696902422 19.151111078</DataArray>
      </Points>
      <Cells>
        <DataArray type="Int32" Name="connectivity" format="ascii">0 21 22 1 1 22 23 2 2 23 24 3 3 24 25 4 4 25 26 5 5 26 27 6 6 27 28 7 7 28 29 8 8 29 30 9 9 30 31 10 10 31 32 11 11 32 33 12 12 33 34 13 13 34 35 14 14 35 36 15 15 36 37 16 16 37 38 17 17 38 39 18 18 39 40 19 19 40 41 20 21 42 43 22 22 43 44 23 23 44 45 24 24 45 46 25 25 46 47 26 26 47 48 27 27 48 49 28 28 49 50 29 29 50 51 30 30 51 52 31 31 52 53 32 32 53 54 33 33 54 55 34 34 55 56 35 35 56 57 36 36 57 58 37 37 58 59 38 38 59 60 39 39 60 61 40 40 61 62 41 42 63 64 43 43 64 65 44 44 65 66 45 45 66 67 46 46 67 68 47 47 68 69 48 48 69 70 49 49 70 71 50 50 71 72 51 51 72 73 52 52 73 74 53 53 74 75 54 54 75 76 55 55 76 77 56 56 77 78 57 57 78 79 58 58 79 80 59 59 80 81 60 60 81 82 61 61 82 83 62 63 84 85 64 64 85 86 65 65 86 87 66 66 87 88 67 67 88 89 68 68 89 90 69 69 90 91 70 70 91 92 71 71 92 93 72 72 93 94 73 73 94 95 74 74 95 96 75 75 96 97 76 76 97 98 77 77 98 99 78 78 99 100 79 79 100 101 80 80 101 102 81 81 102 103 82 82 103 104 83 84 105 106 85 85 106 107 86 86 107 108 87 87 108 109 88 88 109 110 89 89 110 111 90 90 111 112 91 91 112 113 92 92 113 114 93 93 114 115 94 94 115 116 95 95 116 117 96 96 117 118 97 97 118 119 98 98 119 120 99 99 120 121 100 100 121 122 101 101 122 123 102 102 123 124 103 103 124 125 104 105 126 127 106 106 127 128 107 107 128 129 108 108 129 130 109 109 130 131 110 110 131 132 111 111 132 133 112 112 133 134 113 113 134 135 114 114 135 136 115 115 136 137 116 116 137 138 117 117 138 139 118 118 139 140 119 119 140 141 120 120 141 142 121 121 142 143 122 122 143 144 123 123 144 145 124 124 145 146 125 126 147 148 127 127 148 149 128 128 149 150 129 129 150 151 130 130 151 152 131 131 152 153 132 132 153 154 133 133 154 155 134 134 155 156 135 135 156 157 136 136 157 158 137 137 158 159 138 138 159 160 139 139 160 161 140 140 161 162 141 141 162 163 142 142 163 164 143 143 164 165 144 144 165 166 145 145 166 167 146 147 168 169 148 148 169 170 149 149 170 171 150 150 171 172 151 151 172 173 152 152 173 174 153 153 174 175 154 154 175 176 155 155 176 177 156 156 177 178 157 157 178 179 158 158 179 180 159 159 180 181 160 160 181 182 161 161 182 183 162 162 183 184 163 163 184 185 164 164 185 186 165 165 186 187 166 166 187 188 167 168 189 190 169 169 190 191 170 170 191 192 171 171 192 193 172 172 193 194 173 173 194 195 174 174 195 196 175 175 196 197 176 176 197 198 177 177 198 199 178 178 199 200 179 179 200 201 180 180 201 202 181 181 202 203 182 182 203 204 183 183 204 205 184 184 205 206 185 185 206 207 186 186 207 208 187 187 208 209 188 189 210 211 190 190 211 212 191 191 212 213 192 192 213 214 193 193 214 215 194 194 215 216 195 195 216 217 196 196 217 218 197 197 218 219 198 198 219 220 199 199 220 221 200 200 221 222 201 201 222 223 202 202 223 224 203 203 224 225 204 204 225 226 205 205 226 227 206 206 227 228 207 207 228 229 208 208 229 230 209 210 231 232 211 211 232 233 212 212 233 234 213 213 234 235 214 214 235 236 215 215 236 237 216 216 237 238 217 217 238 239 218 218 239 240 219 219 240 241 220 220 241 242 221 221 242 243 222 222 243 244 223 223 244 245 224 224 245 246 225 225 246 247 226 226 247 248 227 227 248 249 228 228 249 250 229 229 250 251 230 231 252 253 232 232 253 254 233 233 254 255 234 234 255 256 235 235 256 257 236 236 257 258 237 237 258 259 238 238 259 260 239 239 260 261 240 240 261 262 241 241 262 263 242 242 263 264 243 243 264 265 244 244 265 266 245 245 266 267 246 246 267 268 247 247 268 269 248 248 269 270 249 249 270 271 250 250 271 272 251 252 273 274 253 253 274 275 254 254 275 276 255 255 276 277 256 256 277 278 257 257 278 279 258 258 279 280 259 259 280 281 260 260 281 282 261 261 282 283 262 262 283 284 263 263 284 285 264 264 285 286 265 265 286 287 266 266 287 288 267 267 288 289 268 268 289 290 269 269 290 291 270 270 291 292 271 271 292 293 272 273 294 295 274 274 295 296 275 275 296 297 276 276 297 298 277 277 298 299 278 278 299 300 279 279 300 301 280 280 301 302 281 281 302 303 282 282 303 304 283 283 304 305 284 284 305 306 285 285 306 307 286 286 307 308 287 287 308 309 288 288 309 310 289 289 310 311 290 290 311 312 291 291 312 313 292 292 313 314 293 294 315 316 295 295 316 317 296 296 317 318 297 297 318 319 298 298 319 320 299 299 320 321 300 300 321 322 301 301 322 323 302 302 323 324 303 303 324 325 304 304 325 326 305 305 326 327 306 306 327 328 307 307 328 329 308 308 329 330 309 309 330 331 310 310 331 332 311 311 332 333 312 312 333 334 313 313 334 335 314 315 336 337 316 316 337 338 317 317 338 339 318 318 339 340 319 319 340 341 320 320 341 342 321 321 342 343 322 322 343 344 323 323 344 345 324 324 345 346 325 325 346 347 326 326 347 348 327 327 348 349 328 328 349 350 329 329 350 351 330 330 351 352 331 331 352 353 332 332 353 354 333 333 354 355 334 334 355 356 335 336 357 358 337 337 358 359 338 338 359 360 339 339 360 361 340 340 361 362 341 341 362 363 342 342 363 364 343 343 364 365 344 344 365 366 345 345 366 367 346 346 367 368 347 347 368 369 348 348 369 370 349 349 370 371 350 350 371 372 351 351 372 373 352 352 373 374 353 353 374 375 354 354 375 376 355 355 376 377 356 357 378 379 358 358 379 380 359 359 380 381 360 360 381 382 361 361 382 383 362 362 383 384 363 363 384 385 364 364 385 386 365 365 386 387 366 366 387 388 367 367 388 389 368 368 389 390 369 369 390 391 370 370 391 392 371 371 392 393 372 372 393 394 373 373 394 395 374 374 395 396 375 375 396 397 376 376 397 398 377 378 399 400 379 379 400 401 380 380 401 402 381 381 402 403 382 382 403 404 383 383 404 405 384 384 405 406 385 385 406 407 386 386 407 408 387 387 408 409 388 388 409 410 389 389 410 411 390 390 411 412 391 391 412 413 392 392 413 414 393 393 414 415 394 394 415 416 395 395 416 417 396 396 417 418 397 397 418 419 398 399 420 421 400 400 421 422 401 401 422 423 402 402 423 424 403 403 424 425 404 404 425 426 405 405 426 427 406 406 427 428 407 407 428 429 408 408 429 430 409 409 430 431 410 410 431 432 411 411 432 433 412 412 433 434 413 413 434 435 414 414 435 436 415 415 436 437 416 416 437 438 417 417 438 439 418 418 439 440 419</DataArray>
        <DataArray type="Int32" Name="offsets" format="ascii">4 8 12 16 20 24 28 32 36 40 44 48 52 56 60 64 68 72 76 80 84 88 92 96 100 104 108 112 116 120 124 128 132 136 140 144 148 152 156 160 164 168 172 176 180 184 188 192 196 200 204 208 212 216 220 224 228 232 236 240 244 248 252 256 260 264 268 272 276 280 284 288 292 296 300 304 308 312 316 320 324 328 332 336 340 344 348 352 356 360 364 368 372 376 380 384 388 392 396 400 404 408 412 416 420 424 428 432 436 440 444 448 452 456 460 464 468 472 476 480 484 488 492 496 500 504 508 512 516 520 524 528 532 536 540 544 548 552 556 560 564 568 572 576 580 584 588 592 596 600 604 608 612 616 620 624 628 632 636 640 644 648 652 656 660 664 668 672 676 680 684 688 692 696 700 704 708 712 716 720 724 728 732 736 740 744 748 752 756 760 764 768 772 776 780 784 788 792 796 800 804 808 812 816 820 824 828 832 836 840 844 848 852 856 860 864 868 872 876 880 884 888 892 896 900 904 908 912 916 920 924 928 932 936 940 944 948 952 956 960 964 968 972 976 980 984 988 992 996 1000 1004 1008 1012 1016 1020 1024 1028 1032 1036 1040 1044 1048 1052 1056 1060 1064 1068 1072 1076 1080 1084 1088 1092 1096 1100 1104 1108 1112 1116 1120 1124 1128 1132 1136 1140 1144 1148 1152 1156 1160 1164 1168 1172 1176 1180 1184 1188 1192 1196 1200 1204 1208 1212 1216 1220 1224 1228 1232 1236 1240 1244 1248 1252 1256 1260 1264 1268 1272 1276 1280 1284 1288 1292 1296 1300 1304 1308 1312 1316 1320 1324 1328 1332 1336 1340 1344 1348 1352 1356 1360 1364 1368 1372 1376 1380 1384 1388 1392 1396 1400 1404 1408 1412 1416 1420 1424 1428 1432 1436 1440 1444 1448 1452 1456 1460 1464 1468 1472 1476 1480 1484 1488 1492 1496 1500 1504 1508 1512 1516 1520 1524 1528 1532 1536 1540 1544 1548 1552 1556 1560 1564 1568 1572 1576 1580 1584 1588 1592 1596 1600</DataArray>
        <DataArray type="UInt8" Name="types" format="ascii">9 9 9 9 9 9 9 9 9 9 9 9 9 9 9 9 9 9 9 9 9 9 9 9 9 9 9 9 9 9 9 9 9 9 9 9 9 9 9 9 9 9 9 9 9 9 9 9 9 9 9 9 9 9 9 9 9 9 9 9 9 9 9 9 9 9 9 9 9 9 9 9 9 9 9 9 9 9 9 9 9 9 9 9 9 9 9 9 9 9 9 9 9 9 9 9 9 9 9 9 9 9 9 9 9 9 9 9 9 9 9 9 9 9 9 9 9 9 9 9 9 9 9 9 9 9 9 9 9 9 9 9 9 9 9 9 9 9 9 9 9 9 9 9 9 9 9 9 9 9 9 9 9 9 9 9 9 9 9 9 9 9 9 9 9 9 9 9 9 9 9 9 9 9 9 9 9 9 9 9 9 9 9 9 9 9 9 9 9 9 9 9 9 9 9 9 9 9 9 9 9 9 9 9 9 9 9 9 9 9 9 9 9 9 9 9 9 9 9 9 9 9 9 9 9 9 9 9 9 9 9 9 9 9 9 9 9 9 9 9 9 9 9 9 9 9 9 9 9 9 9 9 9 9 9 9 9 9 9 9 9 9 9 9 9 9 9 9 9 9 9 9 9 9 9 9 9 9 9 9 9 9 9 9 9 9 9 9 9 9 9 9 9 9 9 9 9 9 9 9 9 9 9 9 9 9 9 9 9 9 9 9 9 9 9 9 9 9 9 9 9 9 9 9 9 9 9 9 9 9 9 9 9 9 9 9 9 9 9 9 9 9 9 9 9 9 9 9 9 9 9 9 9 9 9 9 9 9 9 9 9 9 9 9 9 9 9 9 9 9 9 9 9 9 9 9 9 9 9 9 9 9 9 9 9 9 9 9 9 9 9 9 9 9 9 9 9 9 9 9</DataArray>
      </Cells>
      <PointData Vectors="Displacement">
        <DataArray type="Float64" Name="Displacement" NumberOfComponents="3" format="ascii">0 0 0 0.00681094635086 0 0 0.0111170942943 0 0 0.013513354573 0 0 0.0145150576596 0 0 0.0145738468126 0 0 0.0140785183828 0 0 0.0133523333781 0 0 0.012649894178 0 0 0.0121546395063 0 0 0.0119772170855 0 0 0.0121546079001 0 0 0.0126498568685 0 0 0.013352342071 0 0 0.0140786463273 0 0 0.0145741802193 0 0 0.0145156598266 0 0 0.013514211955 0 0 0.0111179667106 0 0 0.00681079043509 0 0 -2.90482372061e-06 0 0 0.000199727715109 0.0272915291193 -0.0510252672442 0.0068775988371 0.0215353345841 -0.0436650658927 0.0111164392579 0.0162551833412 -0.0358645156073 0.0134818941348 0.0115782359467 -0.0278144135198 0.0144745746816 0.00767116730168 -0.0198751074922 0.0145365421984 0.00463330804686 -0.012446981197 0.0140502227938 0.00246817543669 -0.00589606991692 0.0133346110179 0.00109152525476 -0.000518035894396 0.0126414733139 0.000353854969194 0.00346809748469 0.0121524590148 6.25427490335e-05 0.00591545091385 0.0119772249105 2.38883956942e-08 0.00674053769535 0.0121524356477 -6.24585068799e-05 0.00591640720212 0.0126414535725 -0.000353662470584 0.00347000108078 0.0133346469841 -0.00109118069906 -0.000515334987674 0.0140503870096 -0.00246774591648 -0.00589305601979 0.0145369100946 -0.00463322268368 -0.0124449784679 0.0144751948318 -0.00767250825508 -0.0198764625291 0.0134827093747 -0.0115837966202 -0.027824053447 0.0111171218214 -0.0162694149054 -0.035888567113 0.00687745069195 -0.021564610448 -0.0437107667154 0.000196996152573 -0.0273456627584 -0.0511021681596 0.000763518804755 0.0531225690177 -0.0995414121611 0.0070772674402 0.0419192622847 -0.0852099265193 0.0111199875905 0.0316639647073 -0.0700367158855 0.0133930020698 0.0225755798396 -0.0543565272997 0.0143568433293 0.0149644319358 -0.0388421215153 0.0144266813777 0.00902911134004 -0.024270387708 0.0139662788871 0.00478921868097 -0.0113702809022 0.0132817670542 0.00209322070352 -0.000746920325683 0.012616255044 0.00065579066303 0.00714528121109 0.0121458617358 0.000101138546784 0.0119980632539 0.0119771708851 2.56064769645e-08 0.013635289506 0.0121458615023 -0.000101020318227 0.0119998640138 0.0126162821537 -0.000655488159454 0.00714873096869 0.01328187225 -0.00209269584068 -0.000742285422946 0.0139665233706 -0.00478870098776 -0.0113656958516 0.0144271139424 -0.00902936527542 -0.0242681199025 0.0143574548118 -0.0149674291153 -0.0388464782484 0.0133936515087 -0.022584451584 -0.0543726783676 0.0111203610187 -0.0316831064673 -0.0700704392381 0.00707679465195 -0.041953717514 -0.0852661593705 0.000761844192788 -0.0531730410271 -0.0996183065785 0.00162079301106 0.0766284938038 -0.143969677312 0.0074032095472 0.0605142343306 -0.123349358691 0.0111391942682 0.045777632768 -0.101524462891 0.0132594932489 0.0327084020024 -0.0789388043475 0.0141713136924 0.0217253249259 -0.0565015345584 0.0142498308936 0.0131215744344 -0.0353181582345 0.0138293215296 0.0069504709992 -0.0164693383791 0.0131946589193 0.00301708400677 -0.000878642671153 0.0125741904203 0.000923180774263 0.0107425683102 0.0121344221452 0.000127064067859 0.0179041514522 0.0119765316244 -7.56669817594e-09 0.0203229001107 0.0121344545384 -0.00012699265083 0.0179065525066 0.0125742793741 -0.000922892015161 0.0107469740087 0.0131948439841 -0.0030166175557 -0.000873259373524 0.0138296393648 -0.00695022488332 -0.0164648283675 0.0142502848903 -0.0131226767068 -0.0353177421968 0.0141718332496 -0.0217296973778 -0.0565091433795 0.0132599144596 -0.032718993957 -0.0789591324415 0.0111392543622 -0.045797962214 -0.101561657467 0.00740270694785 -0.060546383337 -0.123404241627 0.00161987631492 -0.0766752413221 -0.14404321231 0.00270816664145 0.0974571926362 -0.183542858297 0.00784132433586 0.0770340651694 -0.157406227662 0.011182094748 0.0583765415751 -0.12976353048 0.0130951125119 0.0418174708803 -0.101125892135 0.0139299200655 0.0278568427702 -0.0725760556311 0.0140139506932 0.0168686290316 -0.0454853421964 0.013643559959 0.00894826848373 -0.0212505057793 0.0130747980034 0.00387978041064 -0.0011082622771 0.0125151721667 0.00117669112193 0.0139631872173 0.0121172291907 0.000153552372975 0.0232751027303 0.0119741582943 -7.51569521745e-08 0.0264241185141 0.0121172955117 -0.000153608967733 0.0232777738776 0.012515319556 -0.00117654130219 0.0139678250045 0.0130750452686 -0.00387954588995 -0.00110312175361 0.0136439098676 -0.00894853273071 -0.0212473206779 0.0140143644667 -0.0168705527171 -0.0454872166285 0.0139303040654 -0.0278623535667 -0.0725867763283 0.0130953199431 -0.0418289484904 -0.101148839078 0.0111819965034 -0.0583960773922 -0.129800496016 0.00784092085802 -0.0770642168309 -0.157458900705 0.00270766558594 -0.0974993614522 -0.183610956274 0.00397855134502 0.115373970267 -0.21773276854 0.00837402874829 0.0912760743445 -0.186892027463 0.0112509028524 0.0692757420073 -0.154291304311 0.0129106805909 0.0497406899682 -0.120495130664 0.013644584983 0.0332281920979 -0.0867089407435 0.0137283649855 0.0201783818588 -0.0545129822134 0.0134147317059 0.0107286965611 -0.0255721973547 0.0129247336402 0.00465607385681 -0.00140837056099 0.0124394839185 0.00140812945051 0.0167403378052 0.0120932750854 0.00017933433658 0.0279831863712 0.0119686273169 -1.66643066593e-07 0.0317901261712 0.0120933679564 -0.000179579363008 0.0279857591181 0.0124396715077 -0.00140820225644 0.0167445968736 0.0129250104238 -0.00465617645191 -0.00140422524729 0.0134150697949 -0.0107294575457 -0.025570640197 0.0137287038886 -0.0201809972122 -0.0545170887966 0.0136448312885 -0.0332342766683 -0.0867216108964 0.0129107420225 -0.0497520482627 -0.120518624918 0.0112507413287 -0.0692944538116 -0.154327522743 0.00837371663385 -0.0913034376413 -0.186941114185 0.00397833555682 -0.115411237785 -0.217794511906 0.00539386698959 0.130212742854 -0.246150840008 0.00898395842733 0.103090203186 -0.211438345496 0.011343972734 0.0783393516263 -0.174758123656 0.0127136520481 0.0563529768949 -0.136713153647 0.0133258817915 0.0377330501819 -0.0986024297951 0.0134027686685 0.02297051206 -0.0621644363504 0.0131497063692 0.0122398957902 -0.0292808330282 0.0127481441496 0.0053188240664 -0.00171761581231 0.0123481581283 0.00160672254678 0.0190534928563 0.0120619140623 0.000201610150521 0.031951642395 0.011958722523 -2.67352027865e-07 0.036324309726 0.0120620204615 -0.000202070632554 0.0319538355686 0.0123483605361 -0.00160706226779 0.0190569027117 0.0127484166012 -0.00531927453855 -0.00171477478674 0.0131500020904 -0.0122411078559 -0.0292809981408 0.0134030194357 -0.0229735349338 -0.0621701452347 0.0133260147295 -0.0377392662049 -0.0986160344164 0.0127136174901 -0.0563639718974 -0.136736551412 0.0113437831975 -0.0783563990649 -0.174792029941 0.0089837344959 -0.103114742795 -0.211483346532 0.00539386137666 -0.130245857503 -0.246206833833 0.00692054223864 0.141858157735 -0.268515287779 0.00965463403445 0.112372538191 -0.230777833167 0.0114577745963 0.085472836826 -0.190910553721 0.012508950736 0.061570804195 -0.149545080827 0.0129827304931 0.0412999510747 -0.108046291676 0.0130464639189 0.0251904614664 -0.0682715046886 0.0128558956957 0.0134467346456 -0.0322683631225 0.012549615305 0.00585022872504 -0.00199758107651 0.0122430956392 0.00176641903295 0.0208750802518 0.01202319459 0.000219487393536 0.035106114347 0.0119438374697 -3.63704654692e-07 0.0399353724079 0.0120233003188 -0.000220160243679 0.0351077500025 0.0122432881326 -0.00176702249348 0.0208774408124 0.0125498564965 -0.00585101172877 -0.00199618460176 0.0128561301329 -0.0134482853357 -0.0322700090923 0.0130466288041 -0.0251937183164 -0.0682783826435 0.0129827723275 -0.0413060854476 -0.10806028476 0.0125088519406 -0.0615809914853 -0.149567395648 0.0114575842541 -0.085488378432 -0.19094213952 0.00965448973488 -0.112394363323 -0.23081875245 0.00692069276656 -0.141887043346 -0.268565235643 0.00852815003792 0.150229609079 -0.284624866706 0.01037023589 0.119051064976 -0.244720363834 0.0115877938127 0.0906117752238 -0.202569650745 0.0122997911256 0.0653362062448 -0.158823435623 0.0126225673118 0.0438802402922 -0.1148924805 0.0126680277731 0.0268009858584 -0.0727151628752 0.0125407653966 0.0143250205925 -0.0344570604226 0.0123343118968 0.00623816765584 -0.00222032084906 0.0121269928619 0.00188332106462 0.0221849782526 0.0119779949553 0.000232617921698 0.0373912673288 0.0119241882127 -4.45619430198e-07 0.0425551746061 0.0119780880753 -0.000233475033569 0.0373923047168 0.012127156324 -0.00188416018227 0.0221862424131 0.0123345031426 -0.00623922468167 -0.00222025001154 0.0125409300654 -0.0143268278633 -0.0344599702402 0.0126681119744 -0.0268043365771 -0.0727228087108 0.0126225367247 -0.043886089104 -0.114906309549 0.0122996524608 -0.0653456197783 -0.158844572928 0.0115876142345 -0.0906256316724 -0.202598496596 0.0103701634539 -0.119070271025 -0.244757136475 0.00852842282371 -0.15025492147 -0.284669462684 0.010188547468 0.15527424077 -0.294344896715 0.0111154703024 0.1230775143 -0.253137046912 0.0117289012783 0.0937123639291 -0.209613203404 0.0120882498263 0.0676107282573 -0.16443518616 0.0122516930391 0.0454411007663 -0.119039649336 0.0122753011081 0.0277769880205 -0.075413372941 0.0122116043487 0.0148583241377 -0.0357919334072 0.0121077084635 0.00647418707951 -0.0023632598565 0.0120031750199 0.00195458326117 0.0229736608587 0.0119279753856 0.000240646319596 0.0387740018096 0.0119008155453 -5.07100447301e-07 0.0441418950577 0.0119280478015 -0.00024164576977 0.0387744727374 0.0120032969878 -0.00195560646082 0.0229739471922 0.0121078394902 -0.00647545682895 -0.00236433915778 0.0122116959877 -0.0148602931504 -0.0357957965331 0.0122753117593 -0.0277803224696 -0.0754214292562 0.0122516046759 -0.0454466141282 -0.119053095252 0.0120880852581 -0.0676192216731 -0.1644547486 0.0117287411626 -0.0937246908221 -0.209639404476 0.0111154627831 -0.123094345616 -0.253169933744 0.0101889163308 -0.155296120388 -0.294384241458 0.0118750091753 0.1569609493 -0.297596465378 0.0118754254334 0.124424126336 -0.255953279255 0.0118756296317 0.0947496384388 -0.211970652781 0.0118756845516 0.0683718937896 -0.166314081458 0.0118756489164 0.0459637831588 -0.120429123453 0.011875571285 0.0281040194466 -0.0763181367216 0.0118754893857 0.0150371447661 -0.0362402625948 0.0118754269092 0.006553373282 -0.00241211278634 0.0118753940968 0.00197849176732 0.0232373658568 0.011875390568 0.000243327080814 0.0392370923479 0.011875408616 -5.45504851438e-07 0.0446733889544 0.0118754378415 -0.00024441928899 0.0392370905202 0.0118754684185 -0.00197964227795 0.023236839288 0.0118754933676 -0.00655478123159 -0.00241407677917 0.0118755091589 -0.015039195029 -0.0362447882054 0.011875515254 -0.0281072642346 -0.0763263311385 0.0118755130076 -0.0459688685018 -0.120441873596 0.0118755045129 -0.0683795364545 -0.16633207429 0.0118754917148 -0.0947604592107 -0.211994156272 0.0118754759464 -0.124438733307 -0.255982394191 0.0118754578387 -0.156979865566 -0.297631099224 0.013561487047 0.155279897456 -0.294354096086 0.0126353872931 0.123081725843 -0.253144398721 0.0120223559695 0.0937152850282 -0.209618637993 0.0116631118633 0.067612550974 -0.164438719225 0.011499593826 0.0454421019732 -0.119041495 0.011475832003 0.0277774078715 -0.0754137810367 0.0115393691373 0.0148584072332 -0.0357913085573 0.0116431451785 0.00647412623176 -0.00236206470597 0.0117476178057 0.00195449559063 0.0229749979531 0.0118228129408 0.000240579138016 0.0387751334678 0.0118500091843 -5.60616551949e-07 0.044142629884 0.0118228336469 -0.000241714049644 0.0387747646858 0.0117476428962 -0.00195571240853 0.0229738692046 0.0116431475336 -0.00647560340323 -0.0023646547818 0.011539320561 -0.0148604634034 -0.0357962109648 0.0114757159322 -0.0277804894646 -0.075421835079 0.0114994184749 -0.0454467525222 -0.11905343026 0.0116629216519 -0.0676193151842 -0.164454990958 0.012022241468 -0.0937247330916 -0.209639557436 0.0126354900404 -0.123094336055 -0.253170009491 0.0135620023852 -0.155296058487 -0.294384250114 0.0152219314686 0.150241059692 -0.284643400318 0.0133806430522 0.119059482361 -0.244735009064 0.0121634583832 0.0906175575087 -0.202580393313 0.0114515450394 0.0653398463483 -0.158830458306 0.0111286872592 0.0438821749725 -0.11489600752 0.0110830770805 0.0268017799806 -0.072715866885 0.0112101926641 0.0143251585866 -0.0344557533741 0.0114165426855 0.00623802811174 -0.00221791596168 0.0116238143579 0.00188314135409 0.022187591736 0.0117728152356 0.000232481910131 0.037393445523 0.0118266585193 -5.53724241282e-07 0.0425565527619 0.0117728099753 -0.000233611479347 0.0373928251009 0.0116237920148 -0.00188436795724 0.0221860603653 0.0114164843641 -0.00623950740192 -0.00222087104517 0.0112100811284 -0.0143271522963 -0.0344607656271 0.0110829074879 -0.0268046517347 -0.0727235779482 0.0111284781685 -0.0438863481393 -0.114906939645 0.0114513484113 -0.0653457931174 -0.158845026059 0.0121633661653 -0.0906257081263 -0.202598780689 0.0133807920927 -0.11907024976 -0.244757275005 0.0152225046067 -0.150254801531 -0.284669474738 0.0168296247884 0.141875353523 -0.26854301666 0.0140962801926 0.112385224982 -0.230799798705 0.0122934646845 0.085481519773 -0.190926567672 0.0112423412953 0.0615760827582 -0.149555202048 0.0107684677548 0.0413027382164 -0.108051295544 0.0107045945365 0.025191536649 -0.06827227779 0.010895040129 0.0134468596355 -0.0322662266276 0.0112012441416 0.00584998707586 -0.00199399794746 0.0115077381274 0.00176613795426 0.0208788576277 0.0117276522083 0.000219282097837 0.0351091488289 0.0118070443538 -5.26947485404e-07 0.0399372213958 0.0117276229515 -0.000220363108468 0.0351083804275 0.0115076721704 -0.00176732203353 0.0208771152945 0.0112011306615 -0.00585140910381 -0.00199708438251 0.0108948720896 -0.0134487324879 -0.0322711175046 0.0107043776964 -0.0251941462044 -0.0682794343726 0.0107682298897 -0.0413064325732 -0.108061135866 0.0112421398377 -0.0615812202496 -0.149568002205 0.0122933929319 -0.0854884752577 -0.190942515878 0.0140964701147 -0.112394327605 -0.230818931401 0.016830247923 -0.141886873743 -0.268565242999 0.0183564286706 0.130236120326 -0.246188173561 0.0147670056516 0.103107128875 -0.211467404687 0.0124072443127 0.0783506707567 -0.174778883977 0.0110375685343 0.0563598572887 -0.136726203164 0.0104252345267 0.0377364681045 -0.098608387021 0.0103482282927 0.0229717152837 -0.0621649209698 0.010601205188 0.0122399343232 -0.0292777592016 0.0110027301385 0.00531844047884 -0.00171288651422 0.0114027169236 0.00160633889598 0.0190581882049 0.0116889835644 0.000201338511468 0.0319552547166 0.0117922044196 -4.828287781e-07 0.0363263786768 0.0116889330351 -0.000202333010528 0.0319544322136 0.0114026124536 -0.00160743528298 0.0190563997197 0.0110025681422 -0.00531975313189 -0.00171589883807 0.0106009877746 -0.0122416331352 -0.029282318559 0.0103479705561 -0.0229740279021 -0.0621713681049 0.0104249718892 -0.0377396595788 -0.0986170093242 0.0110373633916 -0.0563642260416 -0.136737238491 0.0124071903918 -0.0783565005844 -0.174792450748 0.0147672308711 -0.103114691569 -0.211483539902 0.0183570954602 -0.130245651818 -0.246206829263 0.0197719343214 0.115403320406 -0.217779230919 0.015376999803 0.091297228035 -0.186928018892 0.0125002677392 0.0692897737546 -0.154316696387 0.0108404359374 0.0497486863091 -0.120510082832 0.0101064221081 0.0332319879843 -0.0867152721645 0.0100225601073 0.0201795239945 -0.0545127699925 0.0103361643793 0.0107285252707 -0.0255679854423 0.0108261721883 0.00465553298801 -0.0014027208002 0.0113114492116 0.00140764928013 0.0167456106182 0.0116576847103 0.000179009964148 0.0279869826492 0.0117823498109 -4.24029461945e-07 0.0317921359677 0.0116576160574 -0.000179885973497 0.0279861837763 0.0113113119433 -0.00140861948135 0.0167439167107 0.0108259689622 -0.00465669201677 -0.0014054846169 0.0103359050964 -0.0107300072901 -0.0255720438708 0.0100222677062 -0.0201815019858 -0.0545183545068 0.0101061386197 -0.03323467202 -0.0867226035496 0.010840227551 -0.049752297946 -0.120519316289 0.0125002288644 -0.0692945464146 -0.154327940128 0.0153772549545 -0.0913033734619 -0.186941298211 0.0197726384232 -0.115411014712 -0.217794492341 0.0210425894412 0.097493137446 -0.183598883611 0.0159097774419 0.0770593333411 -0.157448544182 0.0125689976733 0.0583923893668 -0.129791912177 0.0106558503081 0.0418262924178 -0.10114204445 0.00982095055016 0.0278605505919 -0.0725817328159 0.00973690953777 0.0168693999867 -0.0454837852611 0.0101073423723 0.00894782291733 -0.0212452534315 0.0106761627647 0.00387907703219 -0.00110201702823 0.0112358340048 0.00117615017333 0.0139685056281 0.0116337980034 0.000153201370967 0.0232786610812 0.0117768674225 -3.53223057916e-07 0.0264258048137 0.0116337145373 -0.00015393265814 0.0232779495711 0.011235669942 -0.00117696282822 0.0139670200058 0.0106759258481 -0.00388004649688 -0.00110439188669 0.0101070488522 -0.00894905086793 -0.0212486649506 0.0097365888024 -0.0168710178106 -0.0454883963717 0.00982064985612 -0.0278627110435 -0.0725876869501 0.0106556391778 -0.0418291689482 -0.101149466221 0.0125689709133 -0.0583961522429 -0.129800869289 0.0159100570385 -0.0770641464437 -0.157459057906 0.0210433247108 -0.0974991433808 -0.183610924282 0.022130368055 0.0766706371076 -0.144034245548 0.0163479780457 0.0605427624468 -0.123396533392 0.0126117285669 0.0457952234283 -0.10155525759 0.0104912494826 0.0327170199436 -0.0789540580259 0.00957942109969 0.0217283555011 -0.056505367168 0.0095009948799 0.0131218264729 -0.0353151853754 0.009921623959 0.00694971408086 -0.0164633188367 0.0105563801377 0.0030162988463 -0.000872520191529 0.0111768960147 0.000922639477674 0.0107473471208 0.011616668682 0.000126729208206 0.0179070679428 0.0117745344369 -2.72982733972e-07 0.0203241087206 0.0116165737573 -0.000127295238801 0.0179064928843 0.0111767112115 -0.000923269980835 0.0107461581429 0.0105561171218 -0.00301705016292 -0.000874394686273 0.00992130389232 -0.00695066009831 -0.0164659743536 0.00950065207391 -0.0131230592663 -0.0353187235686 0.00957910697413 -0.0217299863429 -0.0565098902738 0.010491036005 -0.032719168217 -0.0789596420016 0.0126117110797 -0.0457980159104 -0.101561956937 0.0163482766924 -0.0605463166316 -0.123404362072 0.0221311279645 -0.0766750516821 -0.144043175298 0.0229883928298 0.0531699966945 -0.0996123635713 0.0166738813396 0.0419513228179 -0.0852610479716 0.0126306141962 0.0316812922171 -0.0700661884792 0.0103575078717 0.0225831407868 -0.0543693003998 0.00939379891502 0.0149665387853 -0.0388439636138 0.00932416889384 0.00902880291495 -0.0242664193347 0.00978474612149 0.00478837082041 -0.0113647127103 0.0104693607382 0.00209250093765 -0.000741847050097 0.0111349055066 0.000655344069729 0.00714888395119 0.0116052797722 0.00010087150869 0.0120000859205 0.0117739231645 -1.85793041651e-07 0.0136360006993 0.0116051767137 -0.000101257135185 0.0119996831704 0.0111347059742 -0.000655774290555 0.00714805637736 0.0104690791718 -0.00209301332795 -0.000743141028127 0.00978440713914 -0.0047890130195 -0.0113665275777 0.00932381034615 -0.00902963482964 -0.0242688180858 0.00939347509662 -0.0149676298927 -0.0388470038905 0.0103572926318 -0.0225845704188 -0.0543730344758 0.012630603212 -0.0316831398123 -0.0700706464636 0.0166741935693 -0.0419536652603 -0.0852662393869 0.0229891706676 -0.0531729010144 -0.0996182742118 0.0235532365465 0.0273441484383 -0.0510992073606 0.0168732200859 0.0215634177326 -0.0437082175154 0.0126338489275 0.0162685106201 -0.0358864456499 0.0102684473406 0.0115831429062 -0.0278223662165 0.00927605837916 0.0076720633045 -0.019875204082 0.0092143742335 0.0046329427283 -0.0124441296268 0.00970088543399 0.0024675835973 -0.00589257113024 0.0104165900693 0.00109108896347 -0.00051513524475 0.0111097396008 0.000353598765197 0.00347004168276 0.0115987143074 6.23938746934e-05 0.0059164671504 0.0117738844174 -9.40288882107e-08 0.00674084688818 0.0115986063944 -6.25891518787e-05 0.00591626004726 0.011109531274 -0.000353816823105 0.00346961748487 0.0104162974125 -0.00109134853694 -0.000515795153284 0.00970053514087 -0.00246790828243 -0.00589349232923 0.00921400622445 -0.00463336135825 -0.012445340034 0.00927572873849 -0.00767261059629 -0.0198767328635 0.0102682309691 -0.0115838564421 -0.0278242358229 0.0126338417973 -0.01626943054 -0.0358886725722 0.0168735404766 -0.0215645817223 -0.043710806277 0.0235540252524 -0.027345588391 -0.051102149281 0.0237531360661 0 0 0.0169398786523 0 0 0.0126330025846 0 0 0.0102369438733 0 0 0.00923559321774 0 0 0.00917710453891 0 0 0.00967262698408 0 0 0.0103988960989 0 0 0.0111013377774 0 0 0.0115965444591 0 0 0.0117738969407 0 0 0.0115964349329 0 0 0.0111011265258 0 0 0.0103985997569 0 0 0.00967227291834 0 0 0.00917673338942 0 0 0.00923526161456 0 0 0.0102367271293 0 0 0.0126329967269 0 0 0.0169402017497 0 0 0.0237539284376 0 0</DataArray>
        <DataArray type="Float64" Name="DisplacementMagnitude" format="ascii">0 0.00681094635086 0.0111170942943 0.013513354573 0.0145150576596 0.0145738468126 0.0140785183828 0.0133523333781 0.012649894178 0.0121546395063 0.0119772170855 0.0121546079001 0.0126498568685 0.013352342071 0.0140786463273 0.0145741802193 0.0145156598266 0.013514211955 0.0111179667106 0.00681079043509 2.90482372061e-06 0.0578657528264 0.0491702143663 0.0409153966983 0.0330069480041 0.0257561646565 0.0196902499593 0.0154358119646 0.0133892359591 0.0131133428632 0.0135158696064 0.0137436809109 0.0135162667707 0.0131138222144 0.0133891394666 0.0154347417951 0.0196892355515 0.0257579582074 0.0330173552309 0.0409423192843 0.0492236008297 0.0579590861712 0.112832101084 0.0952262770581 0.0776621037381 0.0603627481947 0.0440313930889 0.0296429706112 0.0186353655537 0.0134664323029 0.0145139586714 0.0170729525318 0.0181486567636 0.0170742172028 0.0145156672107 0.0134661982013 0.01863261856 0.029641401748 0.0440364543906 0.0603807544417 0.0777003739992 0.095291727708 0.112923689739 0.163100646896 0.137593038914 0.111923589453 0.0864695816723 0.0621710485866 0.040281580123 0.0226008470577 0.0135636953978 0.0165639760132 0.0216291235444 0.0235893530785 0.0216311288829 0.0165668850963 0.0135634240211 0.0225976796167 0.0402817350332 0.0621796099318 0.0864922105912 0.111965649189 0.137656352766 0.163187510685 0.207829784667 0.175420791443 0.142728531457 0.110211745757 0.0789767700854 0.0504961168226 0.026791831462 0.0136832483037 0.01878788795 0.0262408313264 0.0290105929982 0.0262432315641 0.0187914237986 0.0136830026928 0.0267895716744 0.050498562722 0.0789886334567 0.110237180583 0.142770121757 0.175481278109 0.207909692416 0.246443787469 0.20815877602 0.169503739876 0.13099579545 0.0938548232874 0.0597268811291 0.0308057987105 0.0138098251642 0.0209036479721 0.0304850485087 0.0339685172161 0.0304874484123 0.0209071754495 0.0138096966712 0.0308049183883 0.0597315907188 0.0938687187673 0.131021725367 0.169544344599 0.208214833833 0.246515781193 0.278522329876 0.235402794053 0.191849267693 0.148417591051 0.106413351432 0.0676143163763 0.0343525400717 0.0139196003099 0.0227616817597 0.0341531531375 0.0382422086381 0.0341552452443 0.0227646699521 0.0139196716924 0.034353225884 0.0676206417882 0.106428178253 0.148443315409 0.191887103325 0.235453952033 0.278587297204 0.303763214679 0.256864181191 0.20948442891 0.16220717918 0.11639690028 0.0739308320129 0.0372469594111 0.0139895800722 0.0242648429327 0.0371085522138 0.0416832007287 0.0371101378511 0.0242670148075 0.0139899245636 0.0372490261253 0.073938322284 0.116412070743 0.162231611377 0.20951954498 0.256910487449 0.303820859807 0.321951827972 0.272339410184 0.222214387872 0.172177200614 0.123632870909 0.078525579798 0.0393670677683 0.0139992789223 0.0253531874558 0.0392636389896 0.0441942207815 0.039264660403 0.0253544341785 0.0139999072324 0.0393703247699 0.0785338170925 0.123647795064 0.172200260812 0.222246324475 0.272380846587 0.322003072046 0.332945663087 0.281691307508 0.229907088451 0.178202881028 0.128005608218 0.0812983449962 0.0406319526233 0.0139318591626 0.0259939550575 0.0405679396048 0.0457180085982 0.0405684169409 0.0259943413996 0.0139327462446 0.0406361031701 0.0813069590278 0.128020061092 0.178224143375 0.229935993154 0.281728214398 0.332990661495 0.336662162492 0.284841131344 0.232486735544 0.180211324381 0.129448345587 0.0821907725663 0.0409938971532 0.0137764565017 0.0261708728664 0.0409955305507 0.0462248527392 0.0409955489927 0.0261705260513 0.0137775275871 0.0409986557946 0.0821994829081 0.129462000587 0.180230817428 0.23251256789 0.284873676236 0.336701612585 0.333076709434 0.281763821049 0.229928391211 0.178178499287 0.127937886577 0.0811820021832 0.0404344787754 0.01352983702 0.0258781202577 0.0405382259059 0.0457055192626 0.0405378859533 0.0258772214674 0.0135309983431 0.0404395599754 0.0811905219698 0.127950627966 0.178196070603 0.229951307726 0.281792343549 0.333110913069 0.322220341629 0.272487479731 0.222257299551 0.172126546152 0.123493260968 0.0782864439385 0.0389625144039 0.0131973327921 0.0251186884337 0.0392036094575 0.0441693336492 0.039203022818 0.0251174174217 0.0131984785507 0.038967647856 0.0782945654729 0.123504896089 0.172142232942 0.222277377136 0.272512189898 0.32224980974 0.304182846336 0.257094712104 0.209549931376 0.16212576188 0.116176411335 0.0735547807934 0.0366146052041 0.01279321097 0.0239055218709 0.0370167292241 0.0416459835934 0.0370159975718 0.0239040559105 0.0127942433394 0.0366195530881 0.0735622856026 0.116186854814 0.162139506842 0.209567295352 0.257115877457 0.304207876185 0.279118294478 0.235727825523 0.191938598525 0.148298064938 0.106095902517 0.0670765453125 0.0334572671858 0.0123401726016 0.022266944459 0.0340266245456 0.038192432144 0.0340258406544 0.0222654393452 0.0123410124354 0.0334618096314 0.0670832726148 0.106105025668 0.148309884223 0.191953328691 0.235745622174 0.279139240428 0.247258264103 0.208599425255 0.16962008202 0.130824794687 0.0934132925219 0.0589856507297 0.0295915431861 0.0118679238832 0.0202569947114 0.0303183913686 0.0339052160682 0.0303176327155 0.020255585243 0.0118685201908 0.0295954965888 0.0589914387899 0.0934210224119 0.130834656276 0.169632258102 0.20861403345 0.247275353485 0.208940787025 0.176015073043 0.142876139734 0.109966808805 0.0783630607337 0.0494788721066 0.0251710686733 0.0114123674814 0.0179651452679 0.0260243114871 0.0289312593308 0.0260236420478 0.0179639407812 0.0114127049804 0.0251742668239 0.0494835993835 0.0783693060263 0.109974708629 0.142885812083 0.176026610201 0.208954243773 0.164663303973 0.138417437211 0.112114800675 0.0861058243585 0.061292277329 0.0388537456597 0.0204396187565 0.0110134695635 0.0155331818461 0.0213454007661 0.0234884877454 0.0213448700476 0.0155322637048 0.0110135719202 0.0204419240322 0.0388572941524 0.0612969762357 0.0861117348001 0.112122007717 0.13842600618 0.16467327265 0.115230802 0.0964747537251 0.0779262950455 0.0597770611779 0.042674280902 0.0275194206873 0.0157425044629 0.0107021685413 0.0132484768271 0.0166941533404 0.0180157093058 0.0166937945283 0.0132478838697 0.0107020830722 0.0157437993489 0.0275216873721 0.0426773596918 0.0597809602614 0.0779310527434 0.0964804142774 0.115237406805 0.0625586636567 0.0515761070531 0.0413777181331 0.0318385658009 0.0232363842218 0.016162463086 0.0116154440956 0.0104862380346 0.0116444207827 0.0130207008307 0.0135669956532 0.0130205115353 0.0116441022395 0.0104860067735 0.0116156878894 0.0161633052542 0.02323774099 0.0318403893888 0.041380009034 0.0515788923733 0.0625619930244 0.0237531360661 0.0169398786523 0.0126330025846 0.0102369438733 0.00923559321774 0.00917710453891 0.00967262698408 0.0103988960989 0.0111013377774 0.0115965444591 0.0117738969407 0.0115964349329 0.0111011265258 0.0103985997569 0.00967227291834 0.00917673338942 0.00923526161456 0.0102367271293 0.0126329967269 0.0169402017497 0.0237539284376</DataArray>
        <DataArray type="Float64" Name="NodalVonMises" format="ascii">0 0 0 0 0 0 0 0 0 0 0 0 0 0 0 0 0 0 0 0 0 0 0 0 0 0 0 0 0 0 0 0 0 0 0 0 0 0 0 0 0 0 0 0 0 0 0 0 0 0 0 0 0 0 0 0 0 0 0 0 0 0 0 0 0 0 0 0 0 0 0 0 0 0 0 0 0 0 0 0 0 0 0 0 0 0 0 0 0 0 0 0 0 0 0 0 0 0 0 0 0 0 0 0 0 0 0 0 0 0 0 0 0 0 0 0 0 0 0 0 0 0 0 0 0 0 0 0 0 0 0 0 0 0 0 0 0 0 0 0 0 0 0 0 0 0 0 0 0 0 0 0 0 0 0 0 0 0 0 0 0 0 0 0 0 0 0 0 0 0 0 0 0 0 0 0 0 0 0 0 0 0 0 0 0 0 0 0 0 0 0 0 0 0 0 0 0 0 0 0 0 0 0 0 0 0 0 0 0 0 0 0 0 0 0 0 0 0 0 0 0 0 0 0 0 0 0 0 0 0 0 0 0 0 0 0 0 0 0 0 0 0 0 0 0 0 0 0 0 0 0 0 0 0 0 0 0 0 0 0 0 0 0 0 0 0 0 0 0 0 0 0 0 0 0 0 0 0 0 0 0 0 0 0 0 0 0 0 0 0 0 0 0 0 0 0 0 0 0 0 0 0 0 0 0 0 0 0 0 0 0 0 0 0 0 0 0 0 0 0 0 0 0 0 0 0 0 0 0 0 0 0 0 0 0 0 0 0 0 0 0 0 0 0 0 0 0 0 0 0 0 0 0 0 0 0 0 0 0 0 0 0 0 0 0 0 0 0 0 0 0 0 0 0 0 0 0 0 0 0 0 0 0 0 0 0 0 0 0 0 0 0 0 0 0 0 0 0 0 0 0 0 0 0 0 0 0 0 0 0 0 0 0 0 0 0 0 0 0 0 0 0 0 0 0 0 0 0 0 0 0 0 0 0 0 0 0 0 0 0 0</DataArray>
        <DataArray type="Float64" Name="NodalStressTrace" format="ascii">0 0 0 0 0 0 0 0 0 0 0 0 0 0 0 0 0 0 0 0 0 0 0 0 0 0 0 0 0 0 0 0 0 0 0 0 0 0 0 0 0 0 0 0 0 0 0 0 0 0 0 0 0 0 0 0 0 0 0 0 0 0 0 0 0 0 0 0 0 0 0 0 0 0 0 0 0 0 0 0 0 0 0 0 0 0 0 0 0 0 0 0 0 0 0 0 0 0 0 0 0 0 0 0 0 0 0 0 0 0 0 0 0 0 0 0 0 0 0 0 0 0 0 0 0 0 0 0 0 0 0 0 0 0 0 0 0 0 0 0 0 0 0 0 0 0 0 0 0 0 0 0 0 0 0 0 0 0 0 0 0 0 0 0 0 0 0 0 0 0 0 0 0 0 0 0 0 0 0 0 0 0 0 0 0 0 0 0 0 0 0 0 0 0 0 0 0 0 0 0 0 0 0 0 0 0 0 0 0 0 0 0 0 0 0 0 0 0 0 0 0 0 0 0 0 0 0 0 0 0 0 0 0 0 0 0 0 0 0 0 0 0 0 0 0 0 0 0 0 0 0 0 0 0 0 0 0 0 0 0 0 0 0 0 0 0 0 0 0 0 0 0 0 0 0 0 0 0 0 0 0 0 0 0 0 0 0 0 0 0 0 0 0 0 0 0 0 0 0 0 0 0 0 0 0 0 0 0 0 0 0 0 0 0 0 0 0 0 0 0 0 0 0 0 0 0 0 0 0 0 0 0 0 0 0 0 0 0 0 0 0 0 0 0 0 0 0 0 0 0 0 0 0 0 0 0 0 0 0 0 0 0 0 0 0 0 0 0 0 0 0 0 0 0 0 0 0 0 0 0 0 0 0 0 0 0 0 0 0 0 0 0 0 0 0 0 0 0 0 0 0 0 0 0 0 0 0 0 0 0 0 0 0 0 0 0 0 0 0 0 0 0 0 0 0 0 0 0 0 0 0 0 0 0 0 0 0 0 0 0 0</DataArray>
        <DataArray type="Float64" Name="NodalPrincipalStress" NumberOfComponents="3" format="ascii">0 0 0 0 0 0 0 0 0 0 0 0 0 0 0 0 0 0 0 0 0 0 0 0 0 0 0 0 0 0 0 0 0 0 0 0 0 0 0 0 0 0 0 0 0 0 0 0 0 0 0 0 0 0 0 0 0 0 0 0 0 0 0 0 0 0 0 0 0 0 0 0 0 0 0 0 0 0 0 0 0 0 0 0 0 0 0 0 0 0 0 0 0 0 0 0 0 0 0 0 0 0 0 0 0 0 0 0 0 0 0 0 0 0 0 0 0 0 0 0 0 0 0 0 0 0 0 0 0 0 0 0 0 0 0 0 0 0 0 0 0 0 0 0 0 0 0 0 0 0 0 0 0 0 0 0 0 0 0 0 0 0 0 0 0 0 0 0 0 0 0 0 0 0 0 0 0 0 0 0 0 0 0 0 0 0 0 0 0 0 0 0 0 0 0 0 0 0 0 0 0 0 0 0 0 0 0 0 0 0 0 0 0 0 0 0 0 0 0 0 0 0 0 0 0 0 0 0 0 0 0 0 0 0 0 0 0 0 0 0 0 0 0 0 0 0 0 0 0 0 0 0 0 0 0 0 0 0 0 0 0 0 0 0 0 0 0 0 0 0 0 0 0 0 0 0 0 0 0 0 0 0 0 0 0 0 0 0 0 0 0 0 0 0 0 0 0 0 0 0 0 0 0 0 0 0 0 0 0 0 0 0 0 0 0 0 0 0 0 0 0 0 0 0 0 0 0 0 0 0 0 0 0 0 0 0 0 0 0 0 0 0 0 0 0 0 0 0 0 0 0 0 0 0 0 0 0 0 0 0 0 0 0 0 0 0 0 0 0 0 0 0 0 0 0 0 0 0 0 0 0 0 0 0 0 0 0 0 0 0 0 0 0 0 0 0 0 0 0 0 0 0 0 0 0 0 0 0 0 0 0 0 0 0 0 0 0 0 0 0 0 0 0 0 0 0 0 0 0 0 0 0 0 0 0 0 0 0 0 0 0 0 0 0 0 0 0 0 0 0 0 0 0 0 0 0 0 0 0 0 0 0 0 0 0 0 0 0 0 0 0 0 0 0 0 0 0 0 0 0 0 0 0 0 0 0 0 0 0 0 0 0 0 0 0 0 0 0 0 0 0 0 0 0 0 0 0 0 0 0 0 0 0 0 0 0 0 0 0 0 0 0 0 0 0 0 0 0 0 0 0 0 0 0 0 0 0 0 0 0 0 0 0 0 0 0 0 0 0 0 0 0 0 0 0 0 0 0 0 0 0 0 0 0 0 0 0 0 0 0 0 0 0 0 0 0 0 0 0 0 0 0 0 0 0 0 0 0 0 0 0 0 0 0 0 0 0 0 0 0 0 0 0 0 0 0 0 0 0 0 0 0 0 0 0 0 0 0 0 0 0 0 0 0 0 0 0 0 0 0 0 0 0 0 0 0 0 0 0 0 0 0 0 0 0 0 0 0 0 0 0 0 0 0 0 0 0 0 0 0 0 0 0 0 0 0 0 0 0 0 0 0 0 0 0 0 0 0 0 0 0 0 0 0 0 0 0 0 0 0 0 0 0 0 0 0 0 0 0 0 0 0 0 0 0 0 0 0 0 0 0 0 0 0 0 0 0 0 0 0 0 0 0 0 0 0 0 0 0 0 0 0 0 0 0 0 0 0 0 0 0 0 0 0 0 0 0 0 0 0 0 0 0 0 0 0 0 0 0 0 0 0 0 0 0 0 0 0 0 0 0 0 0 0 0 0 0 0 0 0 0 0 0 0 0 0 0 0 0 0 0 0 0 0 0 0 0 0 0 0 0 0 0 0 0 0 0 0 0 0 0 0 0 0 0 0 0 0 0 0 0 0 0 0 0 0 0 0 0 0 0 0 0 0 0 0 0 0 0 0 0 0 0 0 0 0 0 0 0 0 0 0 0 0 0 0 0 0 0 0 0 0 0 0 0 0 0 0 0 0 0 0 0 0 0 0 0 0 0 0 0 0 0 0 0 0 0 0 0 0 0 0 0 0 0 0 0 0 0 0 0 0 0 0 0 0 0 0 0 0 0 0 0 0 0 0 0 0 0 0 0 0 0 0 0 0 0 0 0 0 0 0 0 0 0 0 0 0 0 0 0 0 0 0 0 0 0 0 0 0 0 0 0 0 0 0 0 0 0 0 0 0 0 0 0 0 0 0 0 0 0 0 0 0 0 0 0 0 0 0 0 0 0 0 0 0 0 0 0 0 0 0 0 0 0 0 0 0 0 0 0 0 0 0 0 0 0 0 0 0 0 0 0 0 0 0 0 0 0 0 0 0 0 0 0 0 0 0 0 0 0 0 0 0 0 0 0 0 0 0 0 0 0 0 0 0 0 0 0 0 0 0 0 0 0 0 0 0 0 0 0 0 0 0 0 0 0 0 0 0 0 0 0 0 0 0 0 0 0 0 0 0 0 0 0 0 0 0 0 0 0 0 0 0 0 0 0 0 0 0 0 0 0 0 0 0 0 0 0 0 0 0 0 0 0 0 0 0 0 0 0 0 0 0 0 0 0 0 0 0 0 0 0 0 0 0 0 0 0 0 0 0 0 0 0 0 0 0 0 0 0 0 0 0 0 0 0 0 0 0 0 0 0 0 0 0 0 0 0 0 0 0 0 0 0 0 0 0 0 0 0 0 0 0 0 0 0 0 0 0 0 0 0 0 0 0 0 0 0 0 0 0 0 0 0 0 0 0 0 0 0 0 0 0 0 0 0 0 0 0 0 0 0 0 0 0 0 0 0 0 0 0 0 0 0 0 0 0 0 0 0 0 0 0 0 0 0 0 0 0 0 0 0 0 0 0 0 0 0 0 0 0 0 0 0 0 0 0 0 0 0 0 0 0 0 0 0 0 0 0 0 0 0 0 0 0 0 0 0 0 0 0 0 0 0 0 0 0 0 0 0 0 0 0 0 0 0 0 0 0 0 0 0 0 0 0 0 0 0 0 0 0 0</DataArray>
        <DataArray type="Float64" Name="ShellTopNodalVonMises" format="ascii">232246.087246 248541.673427 264526.7826 253206.010969 225360.606219 189049.856628 149579.14233 110216.547239 72573.7250253 37690.4858925 21074.784271 37671.8525465 72549.7426446 110189.609865 149558.951013 189057.206005 225447.385891 253410.040672 265127.427877 249720.177236 233663.737968 226284.267228 241387.185776 256977.235601 247759.777447 222326.71961 187992.80537 150067.269455 112030.597366 76000.1802562 44314.9527401 29937.375351 44299.2339742 75979.9040973 112011.398348 150058.628145 188015.771439 222408.23341 247929.949575 257291.888083 241791.35991 226686.928645 211260.365785 222542.212349 236245.393513 232202.421096 213054.27438 184261.297679 150896.089703 116928.748131 85513.644422 60640.7478156 50468.3289697 60631.4343069 85503.8703963 116927.81712 150914.610746 184309.329398 213129.748629 232285.529187 236247.149796 222386.480233 211025.447738 195442.261843 200059.094392 208869.122771 210669.445596 199813.300871 178946.908829 152512.315062 124860.074635 99907.2478152 81728.3198374 74880.3262557 81726.3573854 99910.889348 124878.944919 152553.697803 179007.900353 199876.964249 210694.503648 208829.626799 200003.029694 195399.914782 183227.65256 179234.839046 180448.871545 187434.300224 185371.41323 173407.867108 155084.49226 134794.139584 116623.111947 104006.072406 99471.8844087 104011.354321 116638.973746 134827.039099 155135.178769 173467.830329 185417.598787 187438.070339 180391.768124 179145.76766 183140.322041 173906.339042 160161.96945 152171.337124 163804.074068 170429.247563 167379.843951 157310.951865 144438.528944 132609.725732 124549.29941 121721.16973 124560.480375 132634.531603 144478.293717 157362.325747 167430.647576 170460.339198 163796.249424 152125.229475 160124.300204 173891.319117 167157.999165 142749.158851 124391.522852 140565.87277 155821.399263 161206.104124 158847.431446 152818.662879 146616.22513 142355.985884 140884.10002 142370.877232 146645.721241 152860.625777 158895.231761 161248.431658 155844.404788 140557.147047 124350.365514 142708.087717 167131.104683 162362.854679 126757.68064 97527.987672 118639.83789 142564.632388 155529.65373 159828.57896 159609.038545 158081.447233 156894.558863 156497.532957 156910.703982 158112.017247 159649.726416 159872.125867 155566.54474 142584.146253 118631.353602 97495.0181879 126738.625145 162365.618898 159225.440975 112428.045053 72663.7274714 99420.0753768 131778.299741 150951.501851 160403.94071 164592.464501 166566.343017 167653.709611 168045.54092 167669.252135 166595.179276 164629.919752 160443.208572 150984.419289 131796.708226 99416.0532955 72638.8671561 112411.557467 159224.925507 157430.408632 100951.103616 52751.2007948 85313.9895386 124625.130522 147964.150629 160687.694831 167624.762584 171764.320712 174250.731134 175125.947656 174264.522001 171789.851728 167657.893694 160722.453689 147994.077943 124644.496637 85315.8303156 52738.6930188 100949.336597 157442.808295 156854.595902 96180.5211672 44571.1808347 79922.2589406 122104.904166 146925.503126 160772.488126 168643.253858 173514.838017 176472.710291 177510.058336 176484.272728 173536.416278 168671.549535 160802.862021 146952.807686 122124.405854 79932.5408939 44577.461533 96189.5137535 156866.037727 157427.028368 100934.005852 52726.2168362 85302.6992941 124625.616062 147970.242432 160695.764317 167632.252731 171769.42058 174252.739722 175125.193946 174262.033637 171786.981854 167655.818743 160721.764356 147994.66394 124645.791553 85317.2045569 52739.5396167 100949.918629 157443.552463 159210.64721 112393.681337 72620.2051119 99400.8709825 131780.011731 150963.828404 160420.228067 164607.116345 166575.952279 167657.175809 168043.732559 167664.383726 166589.850042 164626.233449 160442.080936 150985.502 131798.893733 99418.1294023 72639.9872479 112412.473391 159226.259069 162350.533364 126722.096152 97478.9064586 118616.980297 142568.88824 155549.279201 159852.860141 159630.008553 158094.339332 156898.325455 156494.211584 156903.757877 158105.039285 159645.227025 159870.919077 155567.911989 142586.596566 118633.408509 97495.9643312 126739.627753 162367.262227 167117.363263 142692.793531 124334.678652 140543.332282 155830.79767 161233.770479 158879.523157 152844.316446 146630.144713 142358.543415 140878.837765 142362.514762 146638.212692 152856.202343 158894.196783 161249.731237 155846.489219 140558.68854 124350.935031 142708.960547 167132.712538 173877.912102 160110.15145 152111.036079 163783.009773 170447.561792 167418.027037 157349.601498 144465.452768 132621.762728 124548.942287 121714.001499 124551.76332 132627.703484 144474.607328 157361.440505 167431.441566 170461.582757 163797.031024 152125.36231 160124.862966 173892.56163 183127.820883 179132.615272 180378.247291 187425.226114 185405.39745 173456.347913 155124.648309 134817.292456 116629.475537 104001.716096 99463.4782359 104003.633409 116633.755133 134824.270873 155134.139048 173467.731134 185417.774106 187438.061328 180391.49419 179145.908488 183140.966678 195387.835446 199990.565882 208816.858432 210681.945033 199864.978649 178997.015428 152544.389609 124871.437273 99904.5745738 81719.6067732 74871.9537499 81720.8310081 99907.5846586 124876.751917 152552.100237 179006.729567 199876.115095 210693.834051 208829.031626 200002.728344 195399.881846 211013.82547 222374.525699 236234.778994 232273.215217 213117.927722 184298.621698 150905.769638 116921.422422 85499.917063 60628.0751685 50461.2129226 60628.7863816 85502.0454706 116925.600443 150912.220138 184307.197579 213128.127255 232284.410575 236246.33936 222385.806101 211024.81997 226675.553976 241779.694855 257279.819098 247917.814399 222396.523896 188005.136523 150049.819225 112005.267374 75977.1419812 44299.2967142 29932.2013507 44299.6097468 75978.7129913 112008.750248 150055.527879 188012.996066 222406.163455 247928.591806 257290.964806 241790.457743 226685.927609 233652.479693 249708.638093 265115.446603 253397.98969 225435.742261 189046.584873 149550.12476 110183.461059 72547.292612 37673.5869885 21070.6956137 37673.7160629 72548.6414016 110186.698068 149555.558049 189054.203727 225445.17126 253408.611137 265126.472728 249719.206016 233662.621157</DataArray>
        <DataArray type="Float64" Name="ShellBottomNodalVonMises" format="ascii">161904.683581 146523.596125 129443.710478 129054.92515 130084.145293 125830.974937 113806.019201 94107.2095756 68338.1075805 40285.4337403 26348.5132713 40269.8185679 68326.082502 94110.9991286 113843.348241 125925.535483 130279.012416 129351.627124 130118.219674 147659.332434 163159.903636 172606.414841 153044.087532 129947.58906 127655.95137 129094.159929 126054.689788 115674.417035 98080.8557373 75349.027656 52130.301387 41190.1613667 52119.7455583 75342.5826896 98091.2336489 115715.27727 126144.35488 129243.686801 127866.495695 130257.444069 153507.358067 173155.040733 192295.135567 163668.602217 127749.608479 121602.460965 124260.41381 124460.980868 118356.772841 106010.420173 89957.7659587 75220.8375936 68981.2568748 75219.7120093 89964.2855524 106034.600274 118405.366068 124531.772775 124332.199624 121651.013701 127728.91974 163592.34653 192217.18075 209299.459537 171405.934773 121861.151745 111252.974092 115537.029226 120045.446142 119706.483989 114199.774646 105644.639892 97738.1782074 94487.9549306 97745.5724715 105664.580143 114236.747896 119757.834473 120094.912818 115562.201224 111230.715271 121820.676646 171408.981977 209333.91251 224415.097551 178115.674383 115305.864582 99596.1227455 105451.926899 114621.461549 120724.88613 122774.197542 121842.927861 119944.131131 119040.262802 119958.437033 121872.759615 122818.02243 120772.866581 114657.483402 105457.377403 99569.4100579 115265.18641 178098.256404 224423.17924 237429.823466 183844.90386 108718.62882 87654.3287308 95096.6262559 109044.561112 121622.598558 131113.665639 137315.16469 140648.672453 141681.057622 140666.906639 137349.65764 131158.012487 121665.416905 109070.746285 95096.2787393 87631.0938478 108700.517641 183842.806565 237429.678028 248133.018089 188557.29748 102350.242633 75862.990751 85022.5944225 103748.902747 122335.58852 138488.889713 150867.665343 158579.629071 161195.196306 158598.668157 150901.795819 138530.156697 122372.433521 103770.312501 85022.2412848 75844.7498515 102327.624865 188553.644606 248146.699633 256434.514564 192160.458384 96399.9169847 64702.2933686 75694.1519817 99056.2455228 122846.253987 144507.890203 161871.668688 173061.632205 176923.178619 173079.045028 161902.292198 144543.887298 122878.182289 99075.7296922 75695.7232212 64689.0216876 96392.8824914 192163.838558 256437.068414 262313.028111 194706.9028 91365.2549431 55052.880925 67835.078967 95343.6539674 123204.888633 148971.624208 169981.452875 183694.428326 188456.474145 183708.983685 170006.932957 149001.741425 123232.407722 95362.2062392 67840.6546989 55047.92636 91358.3825221 194709.798237 262324.209307 265834.272493 196216.04957 87863.071333 48242.840862 62421.0890586 92952.2318085 123426.862877 151723.58215 174950.282267 190190.29282 195496.132977 190201.652125 174970.351937 151747.854251 123450.165896 92970.2692764 62430.7102838 48243.9229285 87866.1607292 196223.308413 265840.081198 266999.298619 196718.251202 86590.8552265 45735.1867886 60460.2454611 92125.6907711 123504.218922 152655.713721 176625.462456 192375.705333 197862.453321 192384.128597 176640.60957 152674.640261 123523.636369 92142.6229892 60473.2388786 45744.8615166 86597.1239167 196725.374764 267009.365027 265833.177349 196214.637247 87856.3743801 48232.5821709 62416.2207896 92953.6764458 123432.001887 151730.359988 174956.55068 190194.411963 195497.430886 190200.430947 174967.615835 151744.820038 123447.82782 92969.1138451 62430.7091096 48244.589577 87866.9016868 196224.105544 265841.012036 262316.099777 194701.921242 91347.9473996 55034.6271991 67826.7796675 95346.7589735 123215.50154 148985.239717 169993.650969 183702.093642 188458.505595 183706.300659 170001.632324 148996.156843 123228.29256 95360.292813 67840.6912724 55048.9713098 91359.5736841 194711.20724 262325.889471 256430.392508 192155.407137 96382.2175142 64677.4230832 75683.3310794 99062.067942 122862.918168 144528.33894 161889.074012 173071.5986 176924.947243 173074.579802 161894.896551 144536.706919 122873.266259 99073.6570508 75695.827936 64690.053959 96394.1044971 192165.533845 256439.175526 248139.360052 188545.578915 102317.515866 75833.8464277 85011.6742629 103758.760244 122359.284605 138516.016884 150888.693406 158590.101209 161195.477704 158592.363773 150893.22596 138522.715811 122367.832098 103768.60718 85022.3636755 75845.4202039 102328.481529 188555.238438 248148.839905 237422.64576 183834.375401 108690.575001 87621.425957 95087.1185176 109061.233606 121654.675396 131145.941969 137337.357418 140657.28497 141678.924557 140659.290037 137341.333797 131151.767011 121662.04228 109069.657134 95096.2650896 87631.1533038 108700.720443 183843.938279 237431.464582 224415.418629 178089.730632 115255.61385 99560.2269286 105449.178939 114649.53344 120764.432368 122808.525866 121862.271745 119948.66327 119035.506567 119950.819132 121866.345499 122814.132792 120771.132773 114656.928808 105457.028783 99568.7395532 115264.597849 178098.665875 224424.297219 209325.757049 171400.032207 121811.159666 111221.960039 115554.452259 120087.894542 119751.117074 114229.792619 105656.782999 97737.1067675 94481.5287882 97739.8145913 105661.484278 114235.655521 119757.557079 120094.583528 115561.36472 111229.333446 121819.318889 171408.552786 209334.163539 192208.100658 163583.021329 127719.553668 121642.384894 124324.574346 124525.080117 118399.574755 106029.560783 89959.4698755 75214.1462438 68975.0535711 75217.8551721 89965.2234112 106035.966382 118405.989414 124531.349682 124330.842594 121649.049251 127726.936478 163591.106296 192216.503414 173145.161208 153497.518208 130248.071133 127857.972054 129236.045699 126137.675354 115709.776984 98087.2751631 75340.3261588 52118.3111678 41186.0834894 52124.02407 75347.5011336 98094.3313815 115716.32264 126143.742159 129241.947616 127864.156408 130255.042761 153505.461917 173153.539327 163149.439862 147649.252112 130108.887502 129343.123057 130271.370748 125918.824238 113837.896083 94107.367319 68324.9203634 40270.6757036 26345.9139146 40277.7675366 68332.8884885 94114.7679468 113844.523369 125924.845075 130277.140636 129349.161513 130115.666044 147657.162685 163158.040212</DataArray>
      </PointData>
      <CellData Scalars="VonMises">
        <DataArray type="Int32" Name="ElementIndex" format="ascii">0 1 2 3 4 5 6 7 8 9 10 11 12 13 14 15 16 17 18 19 20 21 22 23 24 25 26 27 28 29 30 31 32 33 34 35 36 37 38 39 40 41 42 43 44 45 46 47 48 49 50 51 52 53 54 55 56 57 58 59 60 61 62 63 64 65 66 67 68 69 70 71 72 73 74 75 76 77 78 79 80 81 82 83 84 85 86 87 88 89 90 91 92 93 94 95 96 97 98 99 100 101 102 103 104 105 106 107 108 109 110 111 112 113 114 115 116 117 118 119 120 121 122 123 124 125 126 127 128 129 130 131 132 133 134 135 136 137 138 139 140 141 142 143 144 145 146 147 148 149 150 151 152 153 154 155 156 157 158 159 160 161 162 163 164 165 166 167 168 169 170 171 172 173 174 175 176 177 178 179 180 181 182 183 184 185 186 187 188 189 190 191 192 193 194 195 196 197 198 199 200 201 202 203 204 205 206 207 208 209 210 211 212 213 214 215 216 217 218 219 220 221 222 223 224 225 226 227 228 229 230 231 232 233 234 235 236 237 238 239 240 241 242 243 244 245 246 247 248 249 250 251 252 253 254 255 256 257 258 259 260 261 262 263 264 265 266 267 268 269 270 271 272 273 274 275 276 277 278 279 280 281 282 283 284 285 286 287 288 289 290 291 292 293 294 295 296 297 298 299 300 301 302 303 304 305 306 307 308 309 310 311 312 313 314 315 316 317 318 319 320 321 322 323 324 325 326 327 328 329 330 331 332 333 334 335 336 337 338 339 340 341 342 343 344 345 346 347 348 349 350 351 352 353 354 355 356 357 358 359 360 361 362 363 364 365 366 367 368 369 370 371 372 373 374 375 376 377 378 379 380 381 382 383 384 385 386 387 388 389 390 391 392 393 394 395 396 397 398 399</DataArray>
        <DataArray type="Float64" Name="VonMises" format="ascii">0 0 0 0 0 0 0 0 0 0 0 0 0 0 0 0 0 0 0 0 0 0 0 0 0 0 0 0 0 0 0 0 0 0 0 0 0 0 0 0 0 0 0 0 0 0 0 0 0 0 0 0 0 0 0 0 0 0 0 0 0 0 0 0 0 0 0 0 0 0 0 0 0 0 0 0 0 0 0 0 0 0 0 0 0 0 0 0 0 0 0 0 0 0 0 0 0 0 0 0 0 0 0 0 0 0 0 0 0 0 0 0 0 0 0 0 0 0 0 0 0 0 0 0 0 0 0 0 0 0 0 0 0 0 0 0 0 0 0 0 0 0 0 0 0 0 0 0 0 0 0 0 0 0 0 0 0 0 0 0 0 0 0 0 0 0 0 0 0 0 0 0 0 0 0 0 0 0 0 0 0 0 0 0 0 0 0 0 0 0 0 0 0 0 0 0 0 0 0 0 0 0 0 0 0 0 0 0 0 0 0 0 0 0 0 0 0 0 0 0 0 0 0 0 0 0 0 0 0 0 0 0 0 0 0 0 0 0 0 0 0 0 0 0 0 0 0 0 0 0 0 0 0 0 0 0 0 0 0 0 0 0 0 0 0 0 0 0 0 0 0 0 0 0 0 0 0 0 0 0 0 0 0 0 0 0 0 0 0 0 0 0 0 0 0 0 0 0 0 0 0 0 0 0 0 0 0 0 0 0 0 0 0 0 0 0 0 0 0 0 0 0 0 0 0 0 0 0 0 0 0 0 0 0 0 0 0 0 0 0 0 0 0 0 0 0 0 0 0 0 0 0 0 0 0 0 0 0 0 0 0 0 0 0 0 0 0 0 0 0 0 0 0 0 0 0 0 0 0 0 0 0 0 0 0 0 0 0 0 0 0 0 0 0 0 0 0 0 0 0</DataArray>
        <DataArray type="Int32" Name="HasVonMises" format="ascii">0 0 0 0 0 0 0 0 0 0 0 0 0 0 0 0 0 0 0 0 0 0 0 0 0 0 0 0 0 0 0 0 0 0 0 0 0 0 0 0 0 0 0 0 0 0 0 0 0 0 0 0 0 0 0 0 0 0 0 0 0 0 0 0 0 0 0 0 0 0 0 0 0 0 0 0 0 0 0 0 0 0 0 0 0 0 0 0 0 0 0 0 0 0 0 0 0 0 0 0 0 0 0 0 0 0 0 0 0 0 0 0 0 0 0 0 0 0 0 0 0 0 0 0 0 0 0 0 0 0 0 0 0 0 0 0 0 0 0 0 0 0 0 0 0 0 0 0 0 0 0 0 0 0 0 0 0 0 0 0 0 0 0 0 0 0 0 0 0 0 0 0 0 0 0 0 0 0 0 0 0 0 0 0 0 0 0 0 0 0 0 0 0 0 0 0 0 0 0 0 0 0 0 0 0 0 0 0 0 0 0 0 0 0 0 0 0 0 0 0 0 0 0 0 0 0 0 0 0 0 0 0 0 0 0 0 0 0 0 0 0 0 0 0 0 0 0 0 0 0 0 0 0 0 0 0 0 0 0 0 0 0 0 0 0 0 0 0 0 0 0 0 0 0 0 0 0 0 0 0 0 0 0 0 0 0 0 0 0 0 0 0 0 0 0 0 0 0 0 0 0 0 0 0 0 0 0 0 0 0 0 0 0 0 0 0 0 0 0 0 0 0 0 0 0 0 0 0 0 0 0 0 0 0 0 0 0 0 0 0 0 0 0 0 0 0 0 0 0 0 0 0 0 0 0 0 0 0 0 0 0 0 0 0 0 0 0 0 0 0 0 0 0 0 0 0 0 0 0 0 0 0 0 0 0 0 0 0 0 0 0 0 0 0 0 0 0 0 0 0</DataArray>
        <DataArray type="Float64" Name="StressTrace" format="ascii">0 0 0 0 0 0 0 0 0 0 0 0 0 0 0 0 0 0 0 0 0 0 0 0 0 0 0 0 0 0 0 0 0 0 0 0 0 0 0 0 0 0 0 0 0 0 0 0 0 0 0 0 0 0 0 0 0 0 0 0 0 0 0 0 0 0 0 0 0 0 0 0 0 0 0 0 0 0 0 0 0 0 0 0 0 0 0 0 0 0 0 0 0 0 0 0 0 0 0 0 0 0 0 0 0 0 0 0 0 0 0 0 0 0 0 0 0 0 0 0 0 0 0 0 0 0 0 0 0 0 0 0 0 0 0 0 0 0 0 0 0 0 0 0 0 0 0 0 0 0 0 0 0 0 0 0 0 0 0 0 0 0 0 0 0 0 0 0 0 0 0 0 0 0 0 0 0 0 0 0 0 0 0 0 0 0 0 0 0 0 0 0 0 0 0 0 0 0 0 0 0 0 0 0 0 0 0 0 0 0 0 0 0 0 0 0 0 0 0 0 0 0 0 0 0 0 0 0 0 0 0 0 0 0 0 0 0 0 0 0 0 0 0 0 0 0 0 0 0 0 0 0 0 0 0 0 0 0 0 0 0 0 0 0 0 0 0 0 0 0 0 0 0 0 0 0 0 0 0 0 0 0 0 0 0 0 0 0 0 0 0 0 0 0 0 0 0 0 0 0 0 0 0 0 0 0 0 0 0 0 0 0 0 0 0 0 0 0 0 0 0 0 0 0 0 0 0 0 0 0 0 0 0 0 0 0 0 0 0 0 0 0 0 0 0 0 0 0 0 0 0 0 0 0 0 0 0 0 0 0 0 0 0 0 0 0 0 0 0 0 0 0 0 0 0 0 0 0 0 0 0 0 0 0 0 0 0 0 0 0 0 0 0 0 0 0 0 0 0 0</DataArray>
        <DataArray type="Float64" Name="HydrostaticPressure" format="ascii">0 0 0 0 0 0 0 0 0 0 0 0 0 0 0 0 0 0 0 0 0 0 0 0 0 0 0 0 0 0 0 0 0 0 0 0 0 0 0 0 0 0 0 0 0 0 0 0 0 0 0 0 0 0 0 0 0 0 0 0 0 0 0 0 0 0 0 0 0 0 0 0 0 0 0 0 0 0 0 0 0 0 0 0 0 0 0 0 0 0 0 0 0 0 0 0 0 0 0 0 0 0 0 0 0 0 0 0 0 0 0 0 0 0 0 0 0 0 0 0 0 0 0 0 0 0 0 0 0 0 0 0 0 0 0 0 0 0 0 0 0 0 0 0 0 0 0 0 0 0 0 0 0 0 0 0 0 0 0 0 0 0 0 0 0 0 0 0 0 0 0 0 0 0 0 0 0 0 0 0 0 0 0 0 0 0 0 0 0 0 0 0 0 0 0 0 0 0 0 0 0 0 0 0 0 0 0 0 0 0 0 0 0 0 0 0 0 0 0 0 0 0 0 0 0 0 0 0 0 0 0 0 0 0 0 0 0 0 0 0 0 0 0 0 0 0 0 0 0 0 0 0 0 0 0 0 0 0 0 0 0 0 0 0 0 0 0 0 0 0 0 0 0 0 0 0 0 0 0 0 0 0 0 0 0 0 0 0 0 0 0 0 0 0 0 0 0 0 0 0 0 0 0 0 0 0 0 0 0 0 0 0 0 0 0 0 0 0 0 0 0 0 0 0 0 0 0 0 0 0 0 0 0 0 0 0 0 0 0 0 0 0 0 0 0 0 0 0 0 0 0 0 0 0 0 0 0 0 0 0 0 0 0 0 0 0 0 0 0 0 0 0 0 0 0 0 0 0 0 0 0 0 0 0 0 0 0 0 0 0 0 0 0 0 0 0 0 0 0 0</DataArray>
        <DataArray type="Float64" Name="PrincipalStress" NumberOfComponents="3" format="ascii">0 0 0 0 0 0 0 0 0 0 0 0 0 0 0 0 0 0 0 0 0 0 0 0 0 0 0 0 0 0 0 0 0 0 0 0 0 0 0 0 0 0 0 0 0 0 0 0 0 0 0 0 0 0 0 0 0 0 0 0 0 0 0 0 0 0 0 0 0 0 0 0 0 0 0 0 0 0 0 0 0 0 0 0 0 0 0 0 0 0 0 0 0 0 0 0 0 0 0 0 0 0 0 0 0 0 0 0 0 0 0 0 0 0 0 0 0 0 0 0 0 0 0 0 0 0 0 0 0 0 0 0 0 0 0 0 0 0 0 0 0 0 0 0 0 0 0 0 0 0 0 0 0 0 0 0 0 0 0 0 0 0 0 0 0 0 0 0 0 0 0 0 0 0 0 0 0 0 0 0 0 0 0 0 0 0 0 0 0 0 0 0 0 0 0 0 0 0 0 0 0 0 0 0 0 0 0 0 0 0 0 0 0 0 0 0 0 0 0 0 0 0 0 0 0 0 0 0 0 0 0 0 0 0 0 0 0 0 0 0 0 0 0 0 0 0 0 0 0 0 0 0 0 0 0 0 0 0 0 0 0 0 0 0 0 0 0 0 0 0 0 0 0 0 0 0 0 0 0 0 0 0 0 0 0 0 0 0 0 0 0 0 0 0 0 0 0 0 0 0 0 0 0 0 0 0 0 0 0 0 0 0 0 0 0 0 0 0 0 0 0 0 0 0 0 0 0 0 0 0 0 0 0 0 0 0 0 0 0 0 0 0 0 0 0 0 0 0 0 0 0 0 0 0 0 0 0 0 0 0 0 0 0 0 0 0 0 0 0 0 0 0 0 0 0 0 0 0 0 0 0 0 0 0 0 0 0 0 0 0 0 0 0 0 0 0 0 0 0 0 0 0 0 0 0 0 0 0 0 0 0 0 0 0 0 0 0 0 0 0 0 0 0 0 0 0 0 0 0 0 0 0 0 0 0 0 0 0 0 0 0 0 0 0 0 0 0 0 0 0 0 0 0 0 0 0 0 0 0 0 0 0 0 0 0 0 0 0 0 0 0 0 0 0 0 0 0 0 0 0 0 0 0 0 0 0 0 0 0 0 0 0 0 0 0 0 0 0 0 0 0 0 0 0 0 0 0 0 0 0 0 0 0 0 0 0 0 0 0 0 0 0 0 0 0 0 0 0 0 0 0 0 0 0 0 0 0 0 0 0 0 0 0 0 0 0 0 0 0 0 0 0 0 0 0 0 0 0 0 0 0 0 0 0 0 0 0 0 0 0 0 0 0 0 0 0 0 0 0 0 0 0 0 0 0 0 0 0 0 0 0 0 0 0 0 0 0 0 0 0 0 0 0 0 0 0 0 0 0 0 0 0 0 0 0 0 0 0 0 0 0 0 0 0 0 0 0 0 0 0 0 0 0 0 0 0 0 0 0 0 0 0 0 0 0 0 0 0 0 0 0 0 0 0 0 0 0 0 0 0 0 0 0 0 0 0 0 0 0 0 0 0 0 0 0 0 0 0 0 0 0 0 0 0 0 0 0 0 0 0 0 0 0 0 0 0 0 0 0 0 0 0 0 0 0 0 0 0 0 0 0 0 0 0 0 0 0 0 0 0 0 0 0 0 0 0 0 0 0 0 0 0 0 0 0 0 0 0 0 0 0 0 0 0 0 0 0 0 0 0 0 0 0 0 0 0 0 0 0 0 0 0 0 0 0 0 0 0 0 0 0 0 0 0 0 0 0 0 0 0 0 0 0 0 0 0 0 0 0 0 0 0 0 0 0 0 0 0 0 0 0 0 0 0 0 0 0 0 0 0 0 0 0 0 0 0 0 0 0 0 0 0 0 0 0 0 0 0 0 0 0 0 0 0 0 0 0 0 0 0 0 0 0 0 0 0 0 0 0 0 0 0 0 0 0 0 0 0 0 0 0 0 0 0 0 0 0 0 0 0 0 0 0 0 0 0 0 0 0 0 0 0 0 0 0 0 0 0 0 0 0 0 0 0 0 0 0 0 0 0 0 0 0 0 0 0 0 0 0 0 0 0 0 0 0 0 0 0 0 0 0 0 0 0 0 0 0 0 0 0 0 0 0 0 0 0 0 0 0 0 0 0 0 0 0 0 0 0 0 0 0 0 0 0 0 0 0 0 0 0 0 0 0 0 0 0 0 0 0 0 0 0 0 0 0 0 0 0 0 0 0 0 0 0 0 0 0 0 0 0 0 0 0 0 0 0 0 0 0 0 0 0 0 0 0 0 0 0 0 0 0 0 0 0 0 0 0 0 0 0 0 0 0 0 0 0 0 0 0 0 0 0 0 0 0 0 0 0 0 0 0 0 0 0 0 0 0 0 0 0 0 0 0 0 0 0 0 0 0 0 0 0 0 0 0 0 0 0 0 0 0 0 0 0 0 0 0 0 0 0 0 0 0 0 0 0 0 0 0 0 0 0 0 0 0 0 0 0 0 0 0 0 0 0 0 0 0 0 0 0 0 0 0 0 0 0 0 0 0 0 0 0 0 0 0 0 0 0 0 0 0 0 0 0 0 0 0 0 0 0 0 0 0 0 0 0 0 0 0 0 0 0 0 0 0 0 0 0 0 0 0 0 0 0 0 0 0 0 0 0 0 0 0 0 0 0 0 0 0 0 0 0 0 0 0 0 0 0 0 0 0 0 0 0 0 0 0 0 0 0</DataArray>
        <DataArray type="Float64" Name="PrincipalStrain" NumberOfComponents="3" format="ascii">0 0 0 0 0 0 0 0 0 0 0 0 0 0 0 0 0 0 0 0 0 0 0 0 0 0 0 0 0 0 0 0 0 0 0 0 0 0 0 0 0 0 0 0 0 0 0 0 0 0 0 0 0 0 0 0 0 0 0 0 0 0 0 0 0 0 0 0 0 0 0 0 0 0 0 0 0 0 0 0 0 0 0 0 0 0 0 0 0 0 0 0 0 0 0 0 0 0 0 0 0 0 0 0 0 0 0 0 0 0 0 0 0 0 0 0 0 0 0 0 0 0 0 0 0 0 0 0 0 0 0 0 0 0 0 0 0 0 0 0 0 0 0 0 0 0 0 0 0 0 0 0 0 0 0 0 0 0 0 0 0 0 0 0 0 0 0 0 0 0 0 0 0 0 0 0 0 0 0 0 0 0 0 0 0 0 0 0 0 0 0 0 0 0 0 0 0 0 0 0 0 0 0 0 0 0 0 0 0 0 0 0 0 0 0 0 0 0 0 0 0 0 0 0 0 0 0 0 0 0 0 0 0 0 0 0 0 0 0 0 0 0 0 0 0 0 0 0 0 0 0 0 0 0 0 0 0 0 0 0 0 0 0 0 0 0 0 0 0 0 0 0 0 0 0 0 0 0 0 0 0 0 0 0 0 0 0 0 0 0 0 0 0 0 0 0 0 0 0 0 0 0 0 0 0 0 0 0 0 0 0 0 0 0 0 0 0 0 0 0 0 0 0 0 0 0 0 0 0 0 0 0 0 0 0 0 0 0 0 0 0 0 0 0 0 0 0 0 0 0 0 0 0 0 0 0 0 0 0 0 0 0 0 0 0 0 0 0 0 0 0 0 0 0 0 0 0 0 0 0 0 0 0 0 0 0 0 0 0 0 0 0 0 0 0 0 0 0 0 0 0 0 0 0 0 0 0 0 0 0 0 0 0 0 0 0 0 0 0 0 0 0 0 0 0 0 0 0 0 0 0 0 0 0 0 0 0 0 0 0 0 0 0 0 0 0 0 0 0 0 0 0 0 0 0 0 0 0 0 0 0 0 0 0 0 0 0 0 0 0 0 0 0 0 0 0 0 0 0 0 0 0 0 0 0 0 0 0 0 0 0 0 0 0 0 0 0 0 0 0 0 0 0 0 0 0 0 0 0 0 0 0 0 0 0 0 0 0 0 0 0 0 0 0 0 0 0 0 0 0 0 0 0 0 0 0 0 0 0 0 0 0 0 0 0 0 0 0 0 0 0 0 0 0 0 0 0 0 0 0 0 0 0 0 0 0 0 0 0 0 0 0 0 0 0 0 0 0 0 0 0 0 0 0 0 0 0 0 0 0 0 0 0 0 0 0 0 0 0 0 0 0 0 0 0 0 0 0 0 0 0 0 0 0 0 0 0 0 0 0 0 0 0 0 0 0 0 0 0 0 0 0 0 0 0 0 0 0 0 0 0 0 0 0 0 0 0 0 0 0 0 0 0 0 0 0 0 0 0 0 0 0 0 0 0 0 0 0 0 0 0 0 0 0 0 0 0 0 0 0 0 0 0 0 0 0 0 0 0 0 0 0 0 0 0 0 0 0 0 0 0 0 0 0 0 0 0 0 0 0 0 0 0 0 0 0 0 0 0 0 0 0 0 0 0 0 0 0 0 0 0 0 0 0 0 0 0 0 0 0 0 0 0 0 0 0 0 0 0 0 0 0 0 0 0 0 0 0 0 0 0 0 0 0 0 0 0 0 0 0 0 0 0 0 0 0 0 0 0 0 0 0 0 0 0 0 0 0 0 0 0 0 0 0 0 0 0 0 0 0 0 0 0 0 0 0 0 0 0 0 0 0 0 0 0 0 0 0 0 0 0 0 0 0 0 0 0 0 0 0 0 0 0 0 0 0 0 0 0 0 0 0 0 0 0 0 0 0 0 0 0 0 0 0 0 0 0 0 0 0 0 0 0 0 0 0 0 0 0 0 0 0 0 0 0 0 0 0 0 0 0 0 0 0 0 0 0 0 0 0 0 0 0 0 0 0 0 0 0 0 0 0 0 0 0 0 0 0 0 0 0 0 0 0 0 0 0 0 0 0 0 0 0 0 0 0 0 0 0 0 0 0 0 0 0 0 0 0 0 0 0 0 0 0 0 0 0 0 0 0 0 0 0 0 0 0 0 0 0 0 0 0 0 0 0 0 0 0 0 0 0 0 0 0 0 0 0 0 0 0 0 0 0 0 0 0 0 0 0 0 0 0 0 0 0 0 0 0 0 0 0 0 0 0 0 0 0 0 0 0 0 0 0 0 0 0 0 0 0 0 0 0 0 0 0 0 0 0 0 0 0 0 0 0 0 0 0 0 0 0 0 0 0 0 0 0 0 0 0 0 0 0 0 0 0 0 0 0 0 0 0 0 0 0 0 0 0 0 0 0 0 0 0 0 0 0 0 0 0 0 0 0 0 0 0 0 0 0 0 0 0 0 0 0 0 0 0 0 0 0 0 0 0 0 0 0 0 0 0 0 0 0 0 0 0 0 0 0 0 0 0 0 0 0 0 0 0 0 0 0 0 0 0 0 0 0 0 0 0 0 0 0 0 0 0 0 0 0 0 0 0 0 0 0 0 0 0 0 0 0 0 0 0 0 0 0 0 0 0 0 0 0 0 0 0 0 0 0 0 0 0 0 0 0 0 0 0 0 0 0 0 0 0 0 0 0 0 0 0 0</DataArray>
        <DataArray type="Float64" Name="ShellTopVonMises" format="ascii">232246.087246 264837.259609 264216.305592 242195.716346 208525.496092 169574.217164 129584.067497 90849.0269822 54298.4230685 21082.5487165 21067.0198255 54276.6852675 90822.8000216 129556.419708 169561.482319 208552.92969 242341.842092 264478.239252 265776.616503 233663.737968 220322.447211 248142.949041 250712.428165 233914.659684 204671.006318 169200.501908 131910.29125 95779.0037342 63074.2672401 38804.5719354 38795.3609267 63057.8698773 95762.2612225 131904.112442 169212.49811 204736.175635 234001.986225 250897.73073 248014.965848 219710.119321 202198.284359 219505.168786 226621.028058 217561.568477 196069.863043 167103.819449 135369.746204 104655.951335 78545.3553782 62138.7967087 62134.5863079 78537.9201157 104657.43037 135387.464444 167154.367989 196134.275859 217646.556797 226595.842998 219480.059608 202340.776155 188686.239328 189846.685096 199503.609145 198991.576701 186630.195263 165983.757563 141591.937032 117822.663967 98605.0205803 87624.1066823 87623.8153237 98609.1077944 117839.099113 141631.785748 166041.173032 186701.784531 199025.239811 199510.374988 189732.229603 188459.053409 177769.065792 160637.365971 171807.825969 179434.18908 176429.691876 164587.823731 148174.450713 131587.506623 118477.256619 111317.905743 111321.709886 118490.784282 131616.903795 148220.367739 164647.388557 176480.975197 179462.395608 171754.270948 160570.196956 177821.590672 170043.612293 132197.833742 144042.322815 159931.958407 165921.15089 162580.709308 153900.823709 144091.334729 136282.804958 132119.230321 132125.832972 136303.594359 144126.843976 153949.05936 162632.487333 165961.739218 159936.246769 144032.084371 132144.365625 169961.047563 164272.386036 104482.803333 116843.131519 141446.07834 155986.409413 160336.146885 158572.045884 154710.447193 151380.313639 149641.59462 149649.742169 151404.339429 154748.107199 158618.492571 160380.887781 156018.6123 141461.020865 116799.236182 104425.775877 164301.161804 160453.323322 77822.2098687 90963.8059669 125306.335733 147519.706068 158276.352556 162129.770514 163023.890589 163211.137511 163345.189681 163353.605358 163235.128973 163060.493386 162171.812509 158317.310608 147549.36827 125307.583576 90957.5737863 77797.4869062 160430.075991 157997.558628 53439.0883927 68429.8056572 112980.35415 141306.803015 156703.145764 164506.494006 168709.702895 171320.641075 172737.870176 172745.498463 171342.775747 168742.318997 164545.054118 156738.657054 141332.341225 112997.539835 68401.5159845 53398.8919475 158019.775024 156863.258637 35504.5088079 53631.4003215 106214.398025 137998.966898 155847.686839 165693.452713 171589.400722 175437.538155 177506.875129 177513.546857 175456.266937 171618.045233 165726.156429 155879.947153 138025.36634 106222.739148 53641.5262942 35512.8378491 156865.841566 156845.933167 35508.384057 53640.4301522 106202.807263 138003.444477 155851.914288 165696.898664 171593.263334 175439.149855 177507.278023 177512.533336 175454.743782 171616.60916 165725.387319 155879.957182 138025.960071 106223.557856 53642.3402772 35513.1417113 156866.233887 158008.123569 53373.5826142 68382.4705213 112985.089239 141311.12327 156714.487695 164519.756622 168719.092303 171326.176829 172738.354182 172742.610242 171338.247188 168738.327288 164542.951207 156738.761718 141333.97679 112999.671493 68403.2486013 53399.427877 158020.871039 160413.17085 77779.8483164 90944.9189959 125291.005173 147532.829242 158296.873411 162149.794538 163039.821915 163218.718068 163345.454157 163348.511656 163228.165818 163054.659874 162168.995428 158317.615393 147551.6541 125310.272551 90959.3249641 77797.9475492 160431.647098 164287.895879 104407.469564 116783.388959 141448.608059 156003.110485 160364.303666 158600.468949 154729.94881 151388.868534 149640.261062 149642.619461 151395.734573 154741.596875 158615.655922 160381.409565 156020.968897 141463.490715 116800.545805 104426.039007 164302.877357 169946.830646 132128.978034 144018.878052 159922.454059 165949.018075 162618.64969 153934.670326 144112.177699 136289.583809 132115.460254 132117.010282 136294.694731 144120.824589 153946.731987 162632.989657 165963.55683 159937.940433 144032.777206 132144.378106 169962.547718 177808.993558 160555.803562 171740.484669 179450.222311 176468.552721 164635.887661 148209.198315 131605.764731 118479.524673 111311.200412 111312.335047 118483.013219 131612.281398 148218.591338 164647.449035 176481.77074 179463.063026 171754.343429 160569.950498 177822.575542 188446.648209 189719.015757 199497.685178 199012.512299 186690.302469 166030.648801 141622.858461 117831.348317 98601.264427 87614.8748711 87615.5026134 98603.6827539 117836.04316 141630.167594 166040.348223 186701.356538 199024.906122 199509.932734 189731.7501 188459.357813 202329.022682 219467.576881 226583.155911 217634.426744 196122.673086 167144.437358 135379.613816 104651.928496 78533.7570552 62128.5307393 62128.9067759 78535.2318894 104655.380831 135385.416083 167152.469048 196132.744459 217645.453263 226595.044085 219479.399585 202340.405879 219698.628259 248002.874976 250885.508211 233989.770004 204724.841055 169202.535292 131896.492088 95757.6552894 63056.3274112 38793.6854685 38793.7287068 63057.2781544 95760.2910075 131901.313849 169209.68157 204733.895238 234000.41606 250896.728891 248014.184878 219709.234061 233652.479693 265764.796492 264466.096714 242329.882665 208541.601858 169551.567888 129548.681633 90818.2404848 54276.3447393 21070.8292377 21070.5619897 54276.8701362 90820.412667 129552.98347 169558.132628 208550.274827 242340.067694 264477.154581 265775.790875 233662.621157</DataArray>
        <DataArray type="Float64" Name="ShellBottomVonMises" format="ascii">161904.683581 131142.50867 127744.912286 130364.938013 129803.352573 121858.5973 105753.441101 82460.9780497 54215.2371113 26355.6303692 26341.3961734 54198.2409625 82453.9240416 105768.074216 121918.622266 129932.4487 130625.576131 128077.678116 132158.761232 163159.903636 183308.1461 135821.011776 125081.92351 127432.031673 128776.317458 123780.491823 111305.137917 92803.8658814 71916.0295817 56034.3084856 56029.3104385 71910.0346587 92808.1310959 111334.805243 123839.607357 128886.741196 127529.981178 125232.747356 135560.58957 183150.17783 201282.125034 134263.125959 115832.372671 118063.516009 122769.790101 122517.324091 115824.137535 104108.539359 91002.6290125 81930.3832946 81931.0252806 91008.4776596 104130.498796 115864.965961 122582.085712 122818.656835 118093.419288 115747.906981 134374.435051 201284.18367 217316.79404 132761.694058 104587.414291 106528.593396 114786.217397 120108.45298 120376.02135 116490.400339 110976.99086 107042.709663 107047.701484 110995.085462 116524.258656 120427.26817 120157.01805 114821.890675 106514.838097 104566.696717 132593.667837 217383.64135 231513.401062 130870.808374 93003.5416037 94264.9416907 106227.955112 117363.220708 125051.84948 129178.519 130725.801245 131031.022755 131039.617306 130751.343881 129220.350463 125100.212431 117406.967675 106244.057209 94248.7236319 92947.3817864 130952.999298 231462.717129 243346.245871 129649.160135 81351.0051687 81997.8264601 97895.7817606 114691.286869 129384.037176 140840.256898 148516.081616 152321.784195 152331.806233 148544.859136 140882.07708 129429.409972 114725.077543 97906.8827143 81985.4514019 81342.8185709 129558.870907 243396.638926 252919.790306 128313.993608 70086.8116199 70016.3197553 90180.4497139 112228.092643 133038.937392 150692.327386 163421.99547 170058.655001 170068.539793 163449.467466 150730.779593 133078.360144 112256.886426 90192.4033191 70004.2277039 70046.5017294 128362.308252 252896.760341 259949.238821 127458.810801 59740.0519095 58965.9901898 83613.8482677 110202.591467 135915.394445 158384.90159 174987.450307 183778.428044 183787.091636 175011.081215 158417.840518 135948.568938 110228.913647 83624.7153762 58961.5464855 59743.8108314 127418.909153 259977.376486 264676.8174 126742.744177 51519.4128845 49986.0687162 78774.4086943 108783.767441 137917.801178 163668.399621 182885.059983 193126.77497 193133.601931 182904.159956 163694.65014 137945.906103 108806.242198 78788.9537351 49987.4031989 51498.944924 126771.86518 264671.042128 266991.727587 126452.909117 46737.2191538 44728.6626937 76195.2161301 108055.534969 138950.347922 166357.779879 186889.889584 197859.446742 197864.708266 186904.138347 166378.459306 138972.401457 108076.113827 76209.7673451 44736.716856 46752.626735 126441.206078 267009.120267 267006.869652 126421.498453 46751.7941827 44723.0711241 76194.0318964 108057.980089 138953.01271 166361.714375 186892.465986 197861.019022 197864.639252 186903.028525 166376.812102 138970.888177 108075.142015 76209.4687697 44737.0025434 46753.0999317 126441.562922 267009.609788 264659.485046 126770.695838 51481.5090463 49973.9543303 78773.8258075 108788.86799 137928.146759 163678.56611 182893.456251 193130.706594 193133.358675 182900.697338 163689.925375 137941.654496 108803.626591 78788.2180043 49988.1471209 51500.1087118 126772.835182 264672.414284 259972.714509 127404.789573 59734.7951406 58948.2502791 83611.0882531 110213.253843 135931.73757 158402.508429 175000.073087 183784.138635 183785.818477 175005.328145 158410.578439 135942.46906 110225.420093 83623.9065627 58962.4934019 59745.1360047 127420.214838 259979.364658 252888.070507 128356.053957 70033.2313859 69993.4155274 90180.570258 112243.359414 133063.321846 150715.787915 163437.926618 170064.256059 170065.575799 163441.596786 150722.082835 133071.697341 112253.478541 90191.8230058 70005.0887736 70047.4976558 128363.569489 252898.986393 243390.649597 129547.541599 81333.236521 81975.5022766 97897.2089897 114713.902316 129416.554843 140868.40293 148532.656161 152325.565999 152326.512957 148535.769547 140873.454673 129423.628393 114722.524117 97906.6030541 81985.9398686 81343.1545177 129559.704454 243398.693417 231454.641923 130944.668486 92936.8533969 94240.1116333 106235.651171 117398.171947 125090.072476 129208.737628 130739.632951 131031.28477 131032.334499 130742.543146 129213.567824 125096.417155 117405.599454 106243.90191 94248.615526 92946.9033031 130953.119496 231464.235747 217376.195336 132583.416782 104557.516736 106506.425948 114814.527003 120149.783637 120419.70141 116515.59195 110985.124452 107038.610907 107039.79609 110988.602793 116520.668233 120425.877954 120156.636527 114821.577342 106514.020354 104565.419029 132592.949568 217384.35869 201275.318762 134365.197948 115738.507197 118085.390275 122811.465808 122575.801722 115859.181528 104124.695589 91001.7200048 81922.9717063 81924.7364496 91006.1230321 104130.543055 115865.53284 122582.180996 122817.939245 118091.921939 115745.972459 134372.934498 201283.968388 183140.882554 135550.686052 125223.823474 127521.818629 128879.622673 123833.430265 111329.885506 92804.4805085 71906.9833999 56024.9098642 56027.5962645 71912.9649421 92811.2626153 111336.527017 123839.716805 128885.56168 127527.94751 125230.355098 135558.483856 183149.038441 163149.439862 132149.064362 128068.710643 130617.53547 129925.206026 121912.442451 105763.349715 82451.3849233 54198.4558034 26342.8956037 26348.9322254 54206.6028479 82459.1741291 105770.361765 121918.684973 129931.005176 130623.276096 128075.04693 132156.285159 163158.040212</DataArray>
      </CellData>
    </Piece>
  </UnstructuredGrid>
</VTKFile>
