$MeshFormat
4.1 0 8
$EndMeshFormat
$PhysicalNames
8
0 6 "anchor_origin"
0 7 "anchor_x"
0 8 "anchor_xy"
2 2 "x_min"
2 3 "x_max"
2 4 "y_min"
2 5 "z_min"
3 1 "domain"
$EndPhysicalNames
$Entities
8 12 6 1
1 0 0 0.2 3 6 7 8 
2 0 0 0 0 
3 0 0.2 0.2 0 
4 0 0.2 0 0 
5 1 0 0.2 0 
6 1 0 0 0 
7 1 0.2 0.2 0 
8 1 0.2 0 0 
1 -1e-07 -1e-07 -1.000000000028756e-07 1e-07 1e-07 0.2000001 0 2 2 -1 
2 -1e-07 -1.000000000028756e-07 0.1999999 1e-07 0.2000001 0.2000001 0 2 1 -3 
3 -1e-07 0.1999999 -1.000000000028756e-07 1e-07 0.2000001 0.2000001 0 2 4 -3 
4 -1e-07 -1.000000000028756e-07 -1e-07 1e-07 0.2000001 1e-07 0 2 2 -4 
5 0.9999999000000001 -1e-07 -1.000000000028756e-07 1.0000001 1e-07 0.2000001 0 2 6 -5 
6 0.9999999000000001 -1.000000000028756e-07 0.1999999 1.0000001 0.2000001 0.2000001 0 2 5 -7 
7 0.9999999000000001 0.1999999 -1.000000000028756e-07 1.0000001 0.2000001 0.2000001 0 2 8 -7 
8 0.9999999000000001 -1.000000000028756e-07 -1e-07 1.0000001 0.2000001 1e-07 0 2 6 -8 
9 -9.999999994736442e-08 -1e-07 -1e-07 1.0000001 1e-07 1e-07 0 2 2 -6 
10 -9.999999994736442e-08 -1e-07 0.1999999 1.0000001 1e-07 0.2000001 0 2 1 -5 
11 -9.999999994736442e-08 0.1999999 -1e-07 1.0000001 0.2000001 1e-07 0 2 4 -8 
12 -9.999999994736442e-08 0.1999999 0.1999999 1.0000001 0.2000001 0.2000001 0 2 3 -7 
1 -1e-07 -1.000000000028756e-07 -1.000000000028756e-07 1e-07 0.2000001 0.2000001 1 2 4 -1 4 3 -2 
2 0.9999999000000001 -1.000000000028756e-07 -1.000000000028756e-07 1.0000001 0.2000001 0.2000001 1 3 4 -5 8 7 -6 
3 -9.999999994736442e-08 -1e-07 -1.000000000028756e-07 1.0000001 1e-07 0.2000001 1 4 4 -9 1 10 -5 
4 -9.999999994736442e-08 0.1999999 -1.000000000028756e-07 1.0000001 0.2000001 0.2000001 0 4 -11 3 12 -7 
5 -9.999999994736442e-08 -1.000000000028756e-07 -1e-07 1.0000001 0.2000001 1e-07 1 5 4 -4 9 8 -11 
6 -9.999999994736442e-08 -1.000000000028756e-07 0.1999999 1.0000001 0.2000001 0.2000001 0 4 -2 10 6 -12 
1 -9.999999994736442e-08 -1.000000000028756e-07 -1.000000000028756e-07 1.0000001 0.2000001 0.2000001 1 1 6 -1 2 -3 4 -5 6 
$EndEntities
$Nodes
27 68 1 68
0 1 0 1
1
0 0 0.2
0 2 0 1
2
0 0 0
0 3 0 1
3
0 0.2 0.2
0 4 0 1
4
0 0.2 0
0 5 0 1
5
1 0 0.2
0 6 0 1
6
1 0 0
0 7 0 1
7
1 0.2 0.2
0 8 0 1
8
1 0.2 0
1 1 0 1
9
0 0 0.1000000000000001
1 2 0 1
10
0 0.1000000000000001 0.2
1 3 0 1
11
0 0.2 0.1000000000000001
1 4 0 1
12
0 0.1000000000000001 0
1 5 0 1
13
1 0 0.1000000000000001
1 6 0 1
14
1 0.1000000000000001 0.2
1 7 0 1
15
1 0.2 0.1000000000000001
1 8 0 1
16
1 0.1000000000000001 0
1 9 0 5
17
18
19
20
21
0.1666666666666664 0 0
0.333333333333333 0 0
0.4999999999999998 0 0
0.6666666666666665 0 0
0.8333333333333331 0 0
1 10 0 5
22
23
24
25
26
0.1666666666666664 0 0.2
0.333333333333333 0 0.2
0.4999999999999998 0 0.2
0.6666666666666665 0 0.2
0.8333333333333331 0 0.2
1 11 0 5
27
28
29
30
31
0.1666666666666664 0.2 0
0.333333333333333 0.2 0
0.4999999999999998 0.2 0
0.6666666666666665 0.2 0
0.8333333333333331 0.2 0
1 12 0 5
32
33
34
35
36
0.1666666666666664 0.2 0.2
0.333333333333333 0.2 0.2
0.4999999999999998 0.2 0.2
0.6666666666666665 0.2 0.2
0.8333333333333331 0.2 0.2
2 1 0 4
37
38
39
40
0 0.05227769679300298 0.05227769679300298
0 0.07500000000000001 0.1250000000000001
0 0.1285046161321672 0.07017128279883386
0 0.14375 0.14375
2 2 0 4
41
42
43
44
1 0.05227769679300298 0.05227769679300298
1 0.07500000000000001 0.1250000000000001
1 0.1285046161321672 0.07017128279883386
1 0.14375 0.14375
2 3 0 6
45
46
47
48
49
50
0.2499999999999996 0 0.1
0.1018253968253967 0 0.1
0.7499999999999997 0 0.09999999999999994
0.8981746031746032 0 0.09999999999999998
0.4166666666666665 0 0.1
0.5833333333333331 0 0.1
2 4 0 6
51
52
53
54
55
56
0.2499999999999997 0.2 0.1
0.1018253968253967 0.2 0.1
0.5833333333333331 0.2 0.1
0.4166666666666664 0.2 0.1
0.7499999999999997 0.2 0.1
0.8981746031746032 0.2 0.1
2 5 0 6
57
58
59
60
61
62
0.2499999999999996 0.09999999999999999 0
0.1018253968253967 0.1 0
0.5833333333333331 0.1 0
0.4166666666666665 0.1 0
0.7499999999999997 0.1 0
0.8981746031746032 0.1 0
2 6 0 6
63
64
65
66
67
68
0.2499999999999996 0.09999999999999999 0.2
0.1018253968253967 0.1 0.2
0.5833333333333331 0.1 0.2
0.4166666666666665 0.1 0.2
0.7499999999999997 0.1 0.2
0.8981746031746032 0.09999999999999998 0.2
3 1 0 0
$EndNodes
$Elements
6 221 1 221
0 1 15 1
1 1 
2 1 2 14
2 9 1 38 
3 1 10 38 
4 2 9 37 
5 12 2 37 
6 10 3 40 
7 3 11 40 
8 11 4 39 
9 4 12 39 
10 37 9 38 
11 38 10 40 
12 11 39 40 
13 12 37 39 
14 37 38 39 
15 39 38 40 
2 2 2 14
16 13 42 5 
17 5 42 14 
18 6 41 13 
19 16 41 6 
20 14 44 7 
21 7 44 15 
22 15 43 8 
23 8 43 16 
24 41 42 13 
25 42 44 14 
26 15 44 43 
27 16 43 41 
28 41 43 42 
29 43 44 42 
2 3 2 26
30 1 9 46 
31 22 1 46 
32 9 2 46 
33 2 17 46 
34 13 5 48 
35 5 26 48 
36 6 13 48 
37 21 6 48 
38 17 18 45 
39 17 45 46 
40 18 19 49 
41 45 18 49 
42 19 20 50 
43 49 19 50 
44 20 21 47 
45 20 47 50 
46 47 21 48 
47 23 22 45 
48 45 22 46 
49 24 23 49 
50 23 45 49 
51 25 24 50 
52 24 49 50 
53 26 25 47 
54 47 25 50 
55 26 47 48 
2 5 2 26
56 2 12 58 
57 17 2 58 
58 12 4 58 
59 4 27 58 
60 16 6 62 
61 6 21 62 
62 8 16 62 
63 31 8 62 
64 18 17 57 
65 57 17 58 
66 19 18 60 
67 18 57 60 
68 20 19 59 
69 59 19 60 
70 21 20 61 
71 20 59 61 
72 21 61 62 
73 27 28 57 
74 27 57 58 
75 28 29 60 
76 57 28 60 
77 29 30 59 
78 29 59 60 
79 30 31 61 
80 59 30 61 
81 61 31 62 
3 1 4 140
82 52 40 39 38 
83 43 42 44 56 
84 52 64 46 63 
85 46 58 52 63 
86 68 55 56 62 
87 62 68 67 48 
88 37 58 39 38 
89 62 43 42 41 
90 47 62 67 48 
91 58 51 52 63 
92 55 68 67 62 
93 46 45 58 63 
94 52 39 58 38 
95 56 43 42 62 
96 55 67 59 61 
97 67 59 61 47 
98 59 67 65 47 
99 55 67 65 59 
100 59 65 50 47 
101 45 60 54 66 
102 53 65 66 59 
103 65 50 66 59 
104 50 60 66 59 
105 53 55 65 59 
106 53 66 60 59 
107 54 57 45 51 
108 45 54 51 66 
109 66 49 60 50 
110 63 45 51 66 
111 60 57 45 54 
112 60 45 49 66 
113 60 54 66 53 
114 67 61 62 47 
115 61 67 62 55 
116 51 45 58 57 
117 45 51 58 63 
118 40 52 64 38 
119 42 68 44 56 
120 58 37 46 38 
121 41 42 62 48 
122 46 64 52 38 
123 46 52 58 38 
124 62 42 68 48 
125 56 42 68 62 
126 33 51 54 66 
127 23 49 45 66 
128 45 18 57 60 
129 28 57 54 51 
130 63 23 45 66 
131 57 60 28 54 
132 50 66 24 65 
133 59 50 60 19 
134 51 33 63 66 
135 34 65 66 53 
136 34 66 54 53 
137 29 53 60 59 
138 47 59 20 50 
139 65 25 50 47 
140 35 67 65 55 
141 49 66 24 50 
142 55 53 30 59 
143 53 60 54 29 
144 59 30 55 61 
145 59 47 20 61 
146 67 25 65 47 
147 45 18 60 49 
148 50 49 60 19 
149 65 35 55 53 
150 48 47 62 21 
151 68 26 67 48 
152 31 56 55 62 
153 36 68 55 56 
154 27 58 51 52 
155 58 17 45 46 
156 64 22 46 63 
157 52 32 64 63 
158 62 55 31 61 
159 36 68 67 55 
160 47 67 26 48 
161 61 62 47 21 
162 58 57 27 51 
163 32 52 51 63 
164 46 22 45 63 
165 45 17 58 57 
166 37 58 12 39 
167 43 62 16 41 
168 40 39 11 52 
169 43 44 15 56 
170 37 9 46 38 
171 13 42 41 48 
172 58 37 2 46 
173 41 62 6 48 
174 64 10 40 38 
175 42 68 14 44 
176 3 40 52 64 
177 44 68 7 56 
178 39 58 4 52 
179 8 43 56 62 
180 46 1 64 38 
181 68 42 5 48 
182 46 9 1 38 
183 1 10 64 38 
184 13 5 42 48 
185 68 5 42 14 
186 40 11 3 52 
187 40 3 10 64 
188 14 68 7 44 
189 44 7 15 56 
190 2 37 58 12 
191 2 37 9 46 
192 41 6 13 48 
193 16 62 6 41 
194 4 11 39 52 
195 15 8 43 56 
196 12 58 4 39 
197 8 43 62 16 
198 58 2 17 46 
199 4 58 27 52 
200 22 1 64 46 
201 32 3 52 64 
202 31 8 56 62 
203 68 5 26 48 
204 62 6 48 21 
205 36 7 68 56 
206 59 50 19 20 
207 50 24 25 65 
208 54 33 66 34 
209 67 35 36 55 
210 47 20 61 21 
211 57 28 27 51 
212 18 60 49 19 
213 34 35 65 53 
214 29 30 53 59 
215 25 67 26 47 
216 17 45 18 57 
217 66 23 49 24 
218 60 28 54 29 
219 30 31 55 61 
220 33 32 51 63 
221 45 22 23 63 
$EndElements
