<?xml version="1.0"?>
<VTKFile type="UnstructuredGrid" version="0.1" byte_order="LittleEndian">
  <UnstructuredGrid>
    <Piece NumberOfPoints="68" NumberOfCells="140">
      <Points>
        <DataArray type="Float64" NumberOfComponents="3" format="ascii">0 0 0.2 0 0 0 0 0.2 0.2 0 0.2 0 1 0 0.2 1 0 0 1 0.2 0.2 1 0.2 0 0 0 0.1 0 0.1 0.2 0 0.2 0.1 0 0.1 0 1 0 0.1 1 0.1 0.2 1 0.2 0.1 1 0.1 0 0.166666666667 0 0 0.333333333333 0 0 0.5 0 0 0.666666666667 0 0 0.833333333333 0 0 0.166666666667 0 0.2 0.333333333333 0 0.2 0.5 0 0.2 0.666666666667 0 0.2 0.833333333333 0 0.2 0.166666666667 0.2 0 0.333333333333 0.2 0 0.5 0.2 0 0.666666666667 0.2 0 0.833333333333 0.2 0 0.166666666667 0.2 0.2 0.333333333333 0.2 0.2 0.5 0.2 0.2 0.666666666667 0.2 0.2 0.833333333333 0.2 0.2 0 0.052277696793 0.052277696793 0 0.075 0.125 0 0.128504616132 0.0701712827988 0 0.14375 0.14375 1 0.052277696793 0.052277696793 1 0.075 0.125 1 0.128504616132 0.0701712827988 1 0.14375 0.14375 0.25 0 0.1 0.101825396825 0 0.1 0.75 0 0.1 0.898174603175 0 0.1 0.416666666667 0 0.1 0.583333333333 0 0.1 0.25 0.2 0.1 0.101825396825 0.2 0.1 0.583333333333 0.2 0.1 0.416666666667 0.2 0.1 0.75 0.2 0.1 0.898174603175 0.2 0.1 0.25 0.1 0 0.101825396825 0.1 0 0.583333333333 0.1 0 0.416666666667 0.1 0 0.75 0.1 0 0.898174603175 0.1 0 0.25 0.1 0.2 0.101825396825 0.1 0.2 0.583333333333 0.1 0.2 0.416666666667 0.1 0.2 0.75 0.1 0.2 0.898174603175 0.1 0.2</DataArray>
      </Points>
      <Cells>
        <DataArray type="Int32" Name="connectivity" format="ascii">51 39 38 37 42 41 43 55 51 63 45 62 45 57 51 62 67 54 55 61 61 67 66 47 36 57 38 37 61 42 41 40 46 61 66 47 57 50 51 62 54 67 66 61 45 44 57 62 51 38 57 37 55 42 41 61 54 66 58 60 66 58 60 46 58 66 64 46 54 66 64 58 58 64 49 46 44 59 53 65 52 64 65 58 64 49 65 58 49 59 65 58 52 54 64 58 52 65 59 58 53 56 44 50 44 53 50 65 65 48 59 49 62 44 50 65 59 56 44 53 59 44 48 65 59 53 65 52 66 60 61 46 60 66 61 54 50 44 57 56 44 50 57 62 39 51 63 37 41 67 43 55 57 36 45 37 40 41 61 47 45 63 51 37 45 51 57 37 61 41 67 47 55 41 67 61 32 50 53 65 22 48 44 65 44 17 56 59 27 56 53 50 62 22 44 65 56 59 27 53 49 65 23 64 58 49 59 18 50 32 62 65 33 64 65 52 33 65 53 52 28 52 59 58 46 58 19 49 64 24 49 46 34 66 64 54 48 65 23 49 54 52 29 58 52 59 53 28 58 29 54 60 58 46 19 60 66 24 64 46 44 17 59 48 49 48 59 18 64 34 54 52 47 46 61 20 67 25 66 47 30 55 54 61 35 67 54 55 26 57 50 51 57 16 44 45 63 21 45 62 51 31 63 62 61 54 30 60 35 67 66 54 46 66 25 47 60 61 46 20 57 56 26 50 31 51 50 62 45 21 44 62 44 16 57 56 36 57 11 38 42 61 15 40 39 38 10 51 42 43 14 55 36 8 45 37 12 41 40 47 57 36 1 45 40 61 5 47 63 9 39 37 41 67 13 43 2 39 51 63 43 67 6 55 38 57 3 51 7 42 55 61 45 0 63 37 67 41 4 47 45 8 0 37 0 9 63 37 12 4 41 47 67 4 41 13 39 10 2 51 39 2 9 63 13 67 6 43 43 6 14 55 1 36 57 11 1 36 8 45 40 5 12 47 15 61 5 40 3 10 38 51 14 7 42 55 11 57 3 38 7 42 61 15 57 1 16 45 3 57 26 51 21 0 63 45 31 2 51 63 30 7 55 61 67 4 25 47 61 5 47 20 35 6 67 55 58 49 18 19 49 23 24 64 53 32 65 33 66 34 35 54 46 19 60 20 56 27 26 50 17 59 48 18 33 34 64 52 28 29 52 58 24 66 25 46 16 44 17 56 65 22 48 23 59 27 53 28 29 30 54 60 32 31 50 62 44 21 22 62</DataArray>
        <DataArray type="Int32" Name="offsets" format="ascii">4 8 12 16 20 24 28 32 36 40 44 48 52 56 60 64 68 72 76 80 84 88 92 96 100 104 108 112 116 120 124 128 132 136 140 144 148 152 156 160 164 168 172 176 180 184 188 192 196 200 204 208 212 216 220 224 228 232 236 240 244 248 252 256 260 264 268 272 276 280 284 288 292 296 300 304 308 312 316 320 324 328 332 336 340 344 348 352 356 360 364 368 372 376 380 384 388 392 396 400 404 408 412 416 420 424 428 432 436 440 444 448 452 456 460 464 468 472 476 480 484 488 492 496 500 504 508 512 516 520 524 528 532 536 540 544 548 552 556 560</DataArray>
        <DataArray type="UInt8" Name="types" format="ascii">10 10 10 10 10 10 10 10 10 10 10 10 10 10 10 10 10 10 10 10 10 10 10 10 10 10 10 10 10 10 10 10 10 10 10 10 10 10 10 10 10 10 10 10 10 10 10 10 10 10 10 10 10 10 10 10 10 10 10 10 10 10 10 10 10 10 10 10 10 10 10 10 10 10 10 10 10 10 10 10 10 10 10 10 10 10 10 10 10 10 10 10 10 10 10 10 10 10 10 10 10 10 10 10 10 10 10 10 10 10 10 10 10 10 10 10 10 10 10 10 10 10 10 10 10 10 10 10 10 10 10 10 10 10 10 10 10 10 10 10</DataArray>
      </Cells>
      <PointData Vectors="Displacement">
        <DataArray type="Float64" Name="Displacement" NumberOfComponents="3" format="ascii">0 0 0 0 0.00774886413414 0.00508571428571 0 -0.00508571428571 0.00774886413414 0 0.00266314984842 0.0128345784199 0.0514285714286 3.15321707556e-17 1.20511553944e-16 0.0514285714286 0.00774886413414 0.00508571428571 0.0514285714286 -0.00508571428571 0.00774886413414 0.0514285714286 0.00266314984842 0.0128345784199 0 0.00387443206707 0.00254285714286 0 -0.00254285714286 0.00387443206707 0 -0.00121128221864 0.010291721277 0 0.00520600699128 0.00896014635278 0.0514285714286 0.00387443206707 0.00254285714286 0.0514285714286 -0.00254285714286 0.00387443206707 0.0514285714286 -0.00121128221864 0.010291721277 0.0514285714286 0.00520600699128 0.00896014635278 0.00857142857143 0.00774886413414 0.00508571428571 0.0171428571429 0.00774886413414 0.00508571428571 0.0257142857143 0.00774886413414 0.00508571428571 0.0342857142857 0.00774886413414 0.00508571428571 0.0428571428571 0.00774886413414 0.00508571428571 0.00857142857143 4.1136721896e-18 4.68032618716e-18 0.0171428571429 1.2679219954e-17 1.63800577964e-17 0.0257142857143 1.53309382278e-17 3.68597089164e-17 0.0342857142857 2.48705086054e-17 6.58126246171e-17 0.0428571428571 3.21606614994e-17 9.11764550286e-17 0.00857142857143 0.00266314984842 0.0128345784199 0.0171428571429 0.00266314984842 0.0128345784199 0.0257142857143 0.00266314984842 0.0128345784199 0.0342857142857 0.00266314984842 0.0128345784199 0.0428571428571 0.00266314984842 0.0128345784199 0.00857142857143 -0.00508571428571 0.00774886413414 0.0171428571429 -0.00508571428571 0.00774886413414 0.0257142857143 -0.00508571428571 0.00774886413414 0.0342857142857 -0.00508571428571 0.00774886413414 0.0428571428571 -0.00508571428571 0.00774886413414 0 0.00439405313864 0.00578183098717 0 0.000998681193159 0.00481296690744 0 0.00176243664129 0.00828018286392 0 -0.00147598910513 0.00699985323927 0.0514285714286 0.00439405313864 0.00578183098717 0.0514285714286 0.000998681193159 0.00481296690745 0.0514285714286 0.00176243664129 0.00828018286392 0.0514285714286 -0.00147598910513 0.00699985323927 0.0128571428571 0.00387443206707 0.00254285714286 0.00523673469388 0.00387443206707 0.00254285714286 0.0385714285714 0.00387443206707 0.00254285714286 0.0461918367347 0.00387443206707 0.00254285714286 0.0214285714286 0.00387443206707 0.00254285714286 0.03 0.00387443206707 0.00254285714286 0.0128571428571 -0.00121128221864 0.010291721277 0.00523673469388 -0.00121128221864 0.010291721277 0.03 -0.00121128221864 0.010291721277 0.0214285714286 -0.00121128221864 0.010291721277 0.0385714285714 -0.00121128221864 0.010291721277 0.0461918367347 -0.00121128221864 0.010291721277 0.0128571428571 0.00520600699128 0.00896014635278 0.00523673469388 0.00520600699128 0.00896014635278 0.03 0.00520600699128 0.00896014635278 0.0214285714286 0.00520600699128 0.00896014635278 0.0385714285714 0.00520600699128 0.00896014635278 0.0461918367347 0.00520600699128 0.00896014635278 0.0128571428571 -0.00254285714286 0.00387443206707 0.00523673469388 -0.00254285714286 0.00387443206707 0.03 -0.00254285714286 0.00387443206707 0.0214285714286 -0.00254285714286 0.00387443206707 0.0385714285714 -0.00254285714286 0.00387443206707 0.0461918367347 -0.00254285714286 0.00387443206707</DataArray>
        <DataArray type="Float64" Name="DisplacementMagnitude" format="ascii">0 0.00926873158341 0.00926873158341 0.0131079659113 0.0514285714286 0.052257127211 0.052257127211 0.053072749406 0.0046343657917 0.0046343657917 0.0103627569428 0.0103627569428 0.0516369567798 0.0516369567798 0.0524622215565 0.0524622215565 0.012624530602 0.0194881229518 0.0273337497421 0.0355164692677 0.0438479655063 0.00857142857143 0.0171428571429 0.0257142857143 0.0342857142857 0.0428571428571 0.0156616780099 0.0215799981777 0.0288624888069 0.0367059800906 0.0448168881585 0.012624530602 0.0194881229518 0.0273337497421 0.0355164692677 0.0438479655063 0.00726204327647 0.00491548721672 0.00846567251756 0.00715377447295 0.0519387642492 0.0516629458487 0.0521206827503 0.0519237368493 0.013666874871 0.00699290615877 0.0388488410166 0.0464237345247 0.0219239827532 0.0303558453398 0.0165134143624 0.0116107761029 0.0317393561916 0.0238027394416 0.0399392267514 0.0473399673889 0.0165134143624 0.0116107761029 0.0317393561916 0.0238027394416 0.0399392267514 0.0473399673889 0.013666874871 0.00699290615877 0.0303558453398 0.0219239827532 0.0388488410166 0.0464237345247</DataArray>
        <DataArray type="Float64" Name="NodalVonMises" format="ascii">300000000 300000000 300000000 300000000 300000000 300000000 300000000 300000000 300000000 300000000 300000000 300000000 300000000 300000000 300000000 300000000 300000000 300000000 300000000 300000000 300000000 300000000 300000000 300000000 300000000 300000000 300000000 300000000 300000000 300000000 300000000 300000000 300000000 300000000 300000000 300000000 300000000 300000000 300000000 300000000 300000000 300000000 300000000 300000000 300000000 300000000 300000000 300000000 300000000 300000000 300000000 300000000 300000000 300000000 300000000 300000000 300000000 300000000 300000000 300000000 300000000 300000000 300000000 300000000 300000000 300000000 300000000 300000000</DataArray>
        <DataArray type="Float64" Name="NodalStressTrace" format="ascii">300000000 300000000 300000000 300000000 300000000 300000000 300000000 300000000 300000000 300000000 300000000 300000000 300000000 300000000 300000000 300000000 300000000 300000000 300000000 300000000 300000000 300000000 300000000 300000000 300000000 300000000 300000000 300000000 300000000 300000000 300000000 300000000 300000000 300000000 300000000 300000000 300000000 300000000 300000000 300000000 300000000 300000000 300000000 300000000 300000000 300000000 300000000 300000000 300000000 300000000 300000000 300000000 300000000 300000000 300000000 300000000 300000000 300000000 300000000 300000000 300000000 300000000 300000000 300000000 300000000 300000000 300000000 300000000</DataArray>
        <DataArray type="Float64" Name="NodalPrincipalStress" NumberOfComponents="3" format="ascii">-4.1029805797e-07 -3.45935872618e-07 300000000 3.52597707131e-07 4.78142029426e-07 300000000 5.55094100302e-07 7.04054020578e-07 300000000 -2.38825589493e-07 -9.64505373688e-08 300000000 2.68582605933e-06 3.09582448389e-06 300000000 -5.68031248627e-06 -5.34282150688e-06 300000000 2.44109720923e-06 2.72588043473e-06 300000000 4.14002124984e-06 4.62558682245e-06 300000000 -1.62763188135e-06 -1.51651313055e-06 300000000 -9.83279114475e-07 -8.545307661e-07 300000000 7.1934914316e-07 8.30371621e-07 300000000 1.34051568393e-06 1.48077083544e-06 300000000 1.11268587902e-05 1.1532840332e-05 300000000 -3.66556910402e-06 -3.12439334664e-06 300000000 1.33280839567e-05 1.40354150489e-05 300000000 -4.390927557e-06 -3.61099600409e-06 300000000 -7.30100504545e-07 -6.147292932e-07 300000000 -1.42034304685e-06 -1.3661740964e-06 300000000 3.93469682578e-06 4.00762209054e-06 300000000 7.53682344946e-07 8.63093644586e-07 300000000 -3.77616742077e-07 -2.81759640751e-07 300000000 -9.24594912708e-07 -8.07665076077e-07 300000000 -2.64719936266e-07 -1.52512577161e-07 300000000 2.82334089376e-06 2.91360616587e-06 300000000 -7.32910951421e-07 -6.60347620204e-07 300000000 -2.52628692202e-06 -2.45815149732e-06 300000000 -1.2533295779e-06 -1.05262511685e-06 300000000 2.15941919668e-07 4.06181560175e-07 300000000 -1.5524733581e-07 -5.70942112028e-08 300000000 -5.07309303132e-06 -4.87343206558e-06 300000000 1.30216114483e-06 1.58493883648e-06 300000000 7.4565062109e-07 8.89751819934e-07 300000000 4.34539063243e-08 2.06140543673e-07 300000000 -2.19570520349e-06 -2.05857631736e-06 300000000 -2.62384004077e-07 -1.3249676756e-07 300000000 9.65200931911e-07 1.07253286135e-06 300000000 6.96219831127e-08 1.60281646735e-07 300000000 -4.28278385715e-07 -3.3540612547e-07 300000000 3.98165035779e-07 5.08943151897e-07 300000000 3.03362470286e-07 4.45953064033e-07 300000000 4.07279853898e-06 4.61457843703e-06 300000000 3.19249261821e-06 3.70550325111e-06 300000000 3.33486188485e-06 4.10454284118e-06 300000000 -7.3976573465e-07 -1.67076360861e-07 300000000 -8.76555601096e-07 -7.82440345152e-07 300000000 -2.09487987037e-07 -1.16474914079e-07 300000000 -1.6444064144e-06 -1.54231334377e-06 300000000 -3.64583514411e-07 -1.76115763194e-07 300000000 1.71373218915e-06 1.76941423991e-06 300000000 2.18021048098e-06 2.25909379136e-06 300000000 7.73931225796e-08 2.18501363984e-07 300000000 -1.16914259322e-07 1.42618155418e-08 300000000 -2.22609431262e-06 -2.11138535822e-06 300000000 -1.02976887004e-06 -8.96206214266e-07 300000000 -1.08612608183e-06 -8.7244529259e-07 300000000 5.11452828284e-06 5.55896060658e-06 300000000 -4.46084006912e-07 -3.2579614293e-07 300000000 -1.14544766521e-07 2.04099950728e-09 300000000 -1.42952093142e-07 -8.54304566261e-09 300000000 1.61676604417e-06 1.70153628918e-06 300000000 -3.23605997608e-06 -3.03285853817e-06 300000000 -1.42914918758e-06 -1.06882728892e-06 300000000 1.09467094801e-06 1.21713777435e-06 300000000 -1.48406875532e-07 -5.89676177487e-08 300000000 -1.3482352041e-06 -1.24988868692e-06 300000000 7.68132043438e-07 8.58329700871e-07 300000000 -1.5899921627e-06 -1.42842430163e-06 300000000 -2.03166123502e-06 -1.75416503079e-06 300000000</DataArray>
        <DataArray type="Float64" Name="ShellTopNodalVonMises" format="ascii">0 0 0 0 0 0 0 0 0 0 0 0 0 0 0 0 0 0 0 0 0 0 0 0 0 0 0 0 0 0 0 0 0 0 0 0 0 0 0 0 0 0 0 0 0 0 0 0 0 0 0 0 0 0 0 0 0 0 0 0 0 0 0 0 0 0 0 0</DataArray>
        <DataArray type="Float64" Name="ShellBottomNodalVonMises" format="ascii">0 0 0 0 0 0 0 0 0 0 0 0 0 0 0 0 0 0 0 0 0 0 0 0 0 0 0 0 0 0 0 0 0 0 0 0 0 0 0 0 0 0 0 0 0 0 0 0 0 0 0 0 0 0 0 0 0 0 0 0 0 0 0 0 0 0 0 0</DataArray>
      </PointData>
      <CellData Scalars="VonMises">
        <DataArray type="Int32" Name="ElementIndex" format="ascii">0 1 2 3 4 5 6 7 8 9 10 11 12 13 14 15 16 17 18 19 20 21 22 23 24 25 26 27 28 29 30 31 32 33 34 35 36 37 38 39 40 41 42 43 44 45 46 47 48 49 50 51 52 53 54 55 56 57 58 59 60 61 62 63 64 65 66 67 68 69 70 71 72 73 74 75 76 77 78 79 80 81 82 83 84 85 86 87 88 89 90 91 92 93 94 95 96 97 98 99 100 101 102 103 104 105 106 107 108 109 110 111 112 113 114 115 116 117 118 119 120 121 122 123 124 125 126 127 128 129 130 131 132 133 134 135 136 137 138 139</DataArray>
        <DataArray type="Float64" Name="VonMises" format="ascii">300000000 300000000 300000000 300000000 300000000 300000000 300000000 300000000 300000000 300000000 300000000 300000000 300000000 300000000 300000000 300000000 300000000 300000000 300000000 300000000 300000000 300000000 300000000 300000000 300000000 300000000 300000000 300000000 300000000 300000000 300000000 300000000 300000000 300000000 300000000 300000000 300000000 300000000 300000000 300000000 300000000 300000000 300000000 300000000 300000000 300000000 300000000 300000000 300000000 300000000 300000000 300000000 300000000 300000000 300000000 300000000 300000000 300000000 300000000 300000000 300000000 300000000 300000000 300000000 300000000 300000000 300000000 300000000 300000000 300000000 300000000 300000000 300000000 300000000 300000000 300000000 300000000 300000000 300000000 300000000 300000000 300000000 300000000 300000000 300000000 300000000 300000000 300000000 300000000 300000000 300000000 300000000 300000000 300000000 300000000 300000000 300000000 300000000 300000000 300000000 300000000 300000000 300000000 300000000 300000000 300000000 300000000 300000000 300000000 300000000 300000000 300000000 300000000 300000000 300000000 300000000 300000000 300000000 300000000 300000000 300000000 300000000 300000000 300000000 300000000 300000000 300000000 300000000 300000000 300000000 300000000 300000000 300000000 300000000 300000000 300000000 300000000 300000000 300000000 300000000</DataArray>
        <DataArray type="Int32" Name="HasVonMises" format="ascii">1 1 1 1 1 1 1 1 1 1 1 1 1 1 1 1 1 1 1 1 1 1 1 1 1 1 1 1 1 1 1 1 1 1 1 1 1 1 1 1 1 1 1 1 1 1 1 1 1 1 1 1 1 1 1 1 1 1 1 1 1 1 1 1 1 1 1 1 1 1 1 1 1 1 1 1 1 1 1 1 1 1 1 1 1 1 1 1 1 1 1 1 1 1 1 1 1 1 1 1 1 1 1 1 1 1 1 1 1 1 1 1 1 1 1 1 1 1 1 1 1 1 1 1 1 1 1 1 1 1 1 1 1 1 1 1 1 1 1 1</DataArray>
        <DataArray type="Float64" Name="StressTrace" format="ascii">300000000 300000000 300000000 300000000 300000000 300000000 300000000 300000000 300000000 300000000 300000000 300000000 300000000 300000000 300000000 300000000 300000000 300000000 300000000 300000000 300000000 300000000 300000000 300000000 300000000 300000000 300000000 300000000 300000000 300000000 300000000 300000000 300000000 300000000 300000000 300000000 300000000 300000000 300000000 300000000 300000000 300000000 300000000 300000000 300000000 300000000 300000000 300000000 300000000 300000000 300000000 300000000 300000000 300000000 300000000 300000000 300000000 300000000 300000000 300000000 300000000 300000000 300000000 300000000 300000000 300000000 300000000 300000000 300000000 300000000 300000000 300000000 300000000 300000000 300000000 300000000 300000000 300000000 300000000 300000000 300000000 300000000 300000000 300000000 300000000 300000000 300000000 300000000 300000000 300000000 300000000 300000000 300000000 300000000 300000000 300000000 300000000 300000000 300000000 300000000 300000000 300000000 300000000 300000000 300000000 300000000 300000000 300000000 300000000 300000000 300000000 300000000 300000000 300000000 300000000 300000000 300000000 300000000 300000000 300000000 300000000 300000000 300000000 300000000 300000000 300000000 300000000 300000000 300000000 300000000 300000000 300000000 300000000 300000000 300000000 300000000 300000000 300000000 300000000 300000000</DataArray>
        <DataArray type="Float64" Name="HydrostaticPressure" format="ascii">-100000000 -100000000 -100000000 -100000000 -100000000 -100000000 -100000000 -100000000 -100000000 -100000000 -100000000 -100000000 -100000000 -100000000 -100000000 -100000000 -100000000 -100000000 -100000000 -100000000 -100000000 -100000000 -100000000 -100000000 -100000000 -100000000 -100000000 -100000000 -100000000 -100000000 -100000000 -100000000 -100000000 -100000000 -100000000 -100000000 -100000000 -100000000 -100000000 -100000000 -100000000 -100000000 -100000000 -100000000 -100000000 -100000000 -100000000 -100000000 -100000000 -100000000 -100000000 -100000000 -100000000 -100000000 -100000000 -100000000 -100000000 -100000000 -100000000 -100000000 -100000000 -100000000 -100000000 -100000000 -100000000 -100000000 -100000000 -100000000 -100000000 -100000000 -100000000 -100000000 -100000000 -100000000 -100000000 -100000000 -100000000 -100000000 -100000000 -100000000 -100000000 -100000000 -100000000 -100000000 -100000000 -100000000 -100000000 -100000000 -100000000 -100000000 -100000000 -100000000 -100000000 -100000000 -100000000 -100000000 -100000000 -100000000 -100000000 -100000000 -100000000 -100000000 -100000000 -100000000 -100000000 -100000000 -100000000 -100000000 -100000000 -100000000 -100000000 -100000000 -100000000 -100000000 -100000000 -100000000 -100000000 -100000000 -100000000 -100000000 -100000000 -100000000 -100000000 -100000000 -100000000 -100000000 -100000000 -100000000 -100000000 -100000000 -100000000 -100000000 -100000000 -100000000 -100000000 -100000000 -100000000 -100000000 -100000000 -100000000</DataArray>
        <DataArray type="Float64" Name="PrincipalStress" NumberOfComponents="3" format="ascii">1.84108122986e-06 2.06302300293e-06 300000000 -1.19817764749e-05 -1.13087384711e-05 300000000 9.5348262617e-07 1.01347065142e-06 300000000 -6.69830649571e-07 -5.52064568324e-07 300000000 1.08656400513e-06 1.23801714111e-06 300000000 -1.26116458501e-05 -1.24670084392e-05 300000000 -2.83122062683e-07 -2.68220901489e-07 300000000 8.31092772974e-06 9.30224480139e-06 300000000 8.51892549271e-06 8.6472122026e-06 300000000 -2.46069617358e-06 -2.27787308606e-06 300000000 -5.92110653155e-06 -5.43357829816e-06 300000000 4.25708315127e-07 5.57768323667e-07 300000000 -3.17806398689e-06 -3.11022603692e-06 300000000 6.13584255626e-06 7.05168510029e-06 300000000 1.29184649658e-06 1.56917645264e-06 300000000 -2.46140130995e-06 -2.2771679497e-06 300000000 3.60950369716e-06 3.72186761021e-06 300000000 1.48730934786e-06 1.71644030882e-06 300000000 -3.81993170927e-06 -3.7796604996e-06 300000000 -5.57089822092e-06 -5.50066454611e-06 300000000 -1.44327657023e-06 -1.37304289541e-06 300000000 6.35515487695e-07 6.75786697364e-07 300000000 6.62221129418e-06 6.71432797431e-06 300000000 -1.44327657023e-06 -1.37304289541e-06 300000000 5.01946922488e-06 5.14312270932e-06 300000000 6.2010953367e-07 6.76291490195e-07 300000000 -5.16466479464e-06 -4.98302597837e-06 300000000 6.00516796112e-06 6.03497028351e-06 300000000 2.18000180821e-06 2.26054422755e-06 300000000 2.30293108545e-06 2.46544049658e-06 300000000 -3.83106473639e-06 -3.79832979486e-06 300000000 -5.06639480591e-07 -4.47034835815e-07 300000000 -1.1975989445e-05 -1.18062638204e-05 300000000 -8.24164887901e-06 -7.91120985512e-06 300000000 -2.24318028404e-06 -2.21226691292e-06 300000000 7.10785388947e-06 7.16745853424e-06 300000000 7.72334662194e-07 8.81694230323e-07 300000000 2.0410187098e-06 2.77205635582e-06 300000000 -3.43337088471e-07 -2.67610520477e-07 300000000 1.23584974708e-05 1.24668370782e-05 300000000 9.5348262617e-07 1.01347065142e-06 300000000 -6.7277435117e-07 -5.49120866726e-07 300000000 -1.19714976769e-05 -1.18405579108e-05 300000000 1.18667081947e-05 1.20496555214e-05 300000000 -4.36472803763e-06 -4.23324197122e-06 300000000 -3.03983688354e-06 -3.02493572235e-06 300000000 -2.09226637727e-07 -1.33500069732e-07 300000000 -3.62947513457e-06 -3.41877411012e-06 300000000 1.39547470858e-06 1.43574591825e-06 300000000 -4.2938843843e-07 -1.81559170517e-07 300000000 -1.27650956181e-08 5.74685791996e-08 300000000 5.52721975419e-06 5.58904649642e-06 300000000 7.22706317902e-06 7.39097595215e-06 300000000 -1.12051970868e-06 -1.05504982562e-06 300000000 1.64026514532e-06 1.86150773523e-06 300000000 3.30948741509e-06 3.39603512214e-06 300000000 -3.23260748054e-06 -3.10038602684e-06 300000000 -1.92524458735e-06 -1.8298480335e-06 300000000 1.21896259876e-06 1.28443248181e-06 300000000 9.19290540788e-06 9.2547321501e-06 300000000 -9.41411118626e-06 -9.30174727321e-06 300000000 1.26398147966e-06 1.28411708449e-06 300000000 2.23073732815e-06 2.58233773746e-06 300000000 -3.69454347755e-06 -3.56232202385e-06 300000000 -3.33059989905e-07 -2.92788780236e-07 300000000 -5.44939272304e-06 -5.3688503037e-06 300000000 5.67734241486e-06 5.76674938202e-06 300000000 -8.04020658964e-06 -7.79972775942e-06 300000000 -3.83932627106e-06 -3.70066129303e-06 300000000 1.58766825899e-07 1.83959881559e-07 300000000 1.43885871897e-05 1.46090724935e-05 300000000 -1.99751708889e-07 -3.86668702125e-08 300000000 -3.43007384611e-06 -3.20094288515e-06 300000000 -5.38663900425e-07 -4.15010415981e-07 300000000 -2.53319740295e-06 -2.51829624176e-06 300000000 -6.51218818617e-07 -5.70676399279e-07 300000000 -9.79144296831e-06 -9.49065961653e-06 300000000 -4.67149445972e-06 -4.4927196745e-06 300000000 -8.29551451106e-06 -8.21497209172e-06 300000000 -3.3483289947e-06 -3.26778657537e-06 300000000 1.66670795626e-06 1.79036144071e-06 300000000 2.8217543067e-06 2.93009391412e-06 300000000 2.13099474987e-06 2.30955128589e-06 300000000 -1.30214026034e-06 -1.24595830381e-06 300000000 1.53130672115e-06 1.70224525792e-06 300000000 9.21140235793e-06 1.03240199672e-05 300000000 2.86544750933e-07 3.98908663984e-07 300000000 2.73874661589e-06 3.69855501985e-06 300000000 -9.77380914678e-07 -8.85264234553e-07 300000000 1.97121966204e-05 2.00739037672e-05 300000000 9.685754776e-07 9.685754776e-07 300000000 -1.52644716902e-05 -1.51636994676e-05 300000000 -2.24464049921e-06 -2.13630089178e-06 300000000 -1.13345348998e-05 -1.08085906342e-05 300000000 9.15768044017e-07 1.08098755596e-06 300000000 8.20702693599e-06 8.37796547276e-06 300000000 1.7329669724e-06 1.81350939174e-06 300000000 -6.27610954098e-07 -1.91952911564e-07 300000000 6.40415835236e-07 6.70886349823e-07 300000000 -3.47143887186e-06 -3.1446766982e-06 300000000 -6.76234881461e-07 -5.75462658822e-07 300000000 -9.71101197486e-07 -8.61741629358e-07 300000000 5.69187090001e-06 6.18435457149e-06 300000000 1.09520971604e-05 1.16678655319e-05 300000000 2.86544750933e-07 3.98908663984e-07 300000000 2.65904353268e-07 4.34450222843e-07 300000000 -1.06142695726e-05 -1.02324549376e-05 300000000 1.57654285431e-05 1.63316726685e-05 300000000 2.82059159679e-06 2.96105894642e-06 300000000 -3.22927984791e-06 -3.08881249828e-06 300000000 7.9765088501e-06 8.34026265716e-06 300000000 -1.37954715658e-05 -1.30415197443e-05 300000000 1.58495792761e-06 1.69329753503e-06 300000000 2.14800767111e-05 2.20760174585e-05 300000000 -3.3035126615e-07 -2.20991698022e-07 300000000 -8.58871346317e-06 -8.11548823513e-06 300000000 8.50503602049e-07 1.07174619196e-06 300000000 -3.94287599183e-06 -3.67161737822e-06 300000000 -6.34271988169e-07 -6.17425552114e-07 300000000 7.52159252989e-07 9.01869639528e-07 300000000 4.29633270548e-06 4.73377097799e-06 300000000 -2.42922495121e-06 -2.32424546962e-06 300000000 -1.63781553915e-06 -1.50632947275e-06 300000000 -3.59379706954e-06 -3.5736614647e-06 300000000 2.62687650127e-06 2.7673438509e-06 300000000 -1.13416417671e-06 -1.04140535759e-06 300000000 -2.74842725938e-06 -2.6308919316e-06 300000000 1.23258469658e-05 1.23951794548e-05 300000000 7.31500383661e-06 7.34773877814e-06 300000000 6.92923570068e-07 8.71698355286e-07 300000000 1.90734863281e-06 1.90734863281e-06 300000000 -6.55413899121e-06 -6.40987124744e-06 300000000 -9.42416591959e-06 -9.2618902175e-06 300000000 4.60824948286e-07 5.22651690508e-07 300000000 -1.93010145947e-06 -1.86969464496e-06 300000000 3.24738743948e-06 3.38362929178e-06 300000000 4.22970768161e-06 4.35336116605e-06 300000000 -3.68483234757e-06 -3.51242850906e-06 300000000 5.99077432877e-08 2.97720125365e-07 300000000 -2.66190500958e-06 -2.40448979632e-06 300000000</DataArray>
        <DataArray type="Float64" Name="PrincipalStrain" NumberOfComponents="3" format="ascii">-0.0254285714286 -0.0254285714286 0.0514285714286 -0.0254285714286 -0.0254285714286 0.0514285714286 -0.0254285714286 -0.0254285714286 0.0514285714286 -0.0254285714286 -0.0254285714286 0.0514285714286 -0.0254285714286 -0.0254285714286 0.0514285714286 -0.0254285714286 -0.0254285714286 0.0514285714286 -0.0254285714286 -0.0254285714286 0.0514285714286 -0.0254285714286 -0.0254285714286 0.0514285714286 -0.0254285714286 -0.0254285714286 0.0514285714286 -0.0254285714286 -0.0254285714286 0.0514285714286 -0.0254285714286 -0.0254285714286 0.0514285714286 -0.0254285714286 -0.0254285714286 0.0514285714286 -0.0254285714286 -0.0254285714286 0.0514285714286 -0.0254285714286 -0.0254285714286 0.0514285714286 -0.0254285714286 -0.0254285714286 0.0514285714286 -0.0254285714286 -0.0254285714286 0.0514285714286 -0.0254285714286 -0.0254285714286 0.0514285714286 -0.0254285714286 -0.0254285714286 0.0514285714286 -0.0254285714286 -0.0254285714286 0.0514285714286 -0.0254285714286 -0.0254285714286 0.0514285714286 -0.0254285714286 -0.0254285714286 0.0514285714286 -0.0254285714286 -0.0254285714286 0.0514285714286 -0.0254285714286 -0.0254285714286 0.0514285714286 -0.0254285714286 -0.0254285714286 0.0514285714286 -0.0254285714286 -0.0254285714286 0.0514285714286 -0.0254285714286 -0.0254285714286 0.0514285714286 -0.0254285714286 -0.0254285714286 0.0514285714286 -0.0254285714286 -0.0254285714286 0.0514285714286 -0.0254285714286 -0.0254285714286 0.0514285714286 -0.0254285714286 -0.0254285714286 0.0514285714286 -0.0254285714286 -0.0254285714286 0.0514285714286 -0.0254285714286 -0.0254285714286 0.0514285714286 -0.0254285714286 -0.0254285714286 0.0514285714286 -0.0254285714286 -0.0254285714286 0.0514285714286 -0.0254285714286 -0.0254285714286 0.0514285714286 -0.0254285714286 -0.0254285714286 0.0514285714286 -0.0254285714286 -0.0254285714286 0.0514285714286 -0.0254285714286 -0.0254285714286 0.0514285714286 -0.0254285714286 -0.0254285714286 0.0514285714286 -0.0254285714286 -0.0254285714286 0.0514285714286 -0.0254285714286 -0.0254285714286 0.0514285714286 -0.0254285714286 -0.0254285714286 0.0514285714286 -0.0254285714286 -0.0254285714286 0.0514285714286 -0.0254285714286 -0.0254285714286 0.0514285714286 -0.0254285714286 -0.0254285714286 0.0514285714286 -0.0254285714286 -0.0254285714286 0.0514285714286 -0.0254285714286 -0.0254285714286 0.0514285714286 -0.0254285714286 -0.0254285714286 0.0514285714286 -0.0254285714286 -0.0254285714286 0.0514285714286 -0.0254285714286 -0.0254285714286 0.0514285714286 -0.0254285714286 -0.0254285714286 0.0514285714286 -0.0254285714286 -0.0254285714286 0.0514285714286 -0.0254285714286 -0.0254285714286 0.0514285714286 -0.0254285714286 -0.0254285714286 0.0514285714286 -0.0254285714286 -0.0254285714286 0.0514285714286 -0.0254285714286 -0.0254285714286 0.0514285714286 -0.0254285714286 -0.0254285714286 0.0514285714286 -0.0254285714286 -0.0254285714286 0.0514285714286 -0.0254285714286 -0.0254285714286 0.0514285714286 -0.0254285714286 -0.0254285714286 0.0514285714286 -0.0254285714286 -0.0254285714286 0.0514285714286 -0.0254285714286 -0.0254285714286 0.0514285714286 -0.0254285714286 -0.0254285714286 0.0514285714286 -0.0254285714286 -0.0254285714286 0.0514285714286 -0.0254285714286 -0.0254285714286 0.0514285714286 -0.0254285714286 -0.0254285714286 0.0514285714286 -0.0254285714286 -0.0254285714286 0.0514285714286 -0.0254285714286 -0.0254285714286 0.0514285714286 -0.0254285714286 -0.0254285714286 0.0514285714286 -0.0254285714286 -0.0254285714286 0.0514285714286 -0.0254285714286 -0.0254285714286 0.0514285714286 -0.0254285714286 -0.0254285714286 0.0514285714286 -0.0254285714286 -0.0254285714286 0.0514285714286 -0.0254285714286 -0.0254285714286 0.0514285714286 -0.0254285714286 -0.0254285714286 0.0514285714286 -0.0254285714286 -0.0254285714286 0.0514285714286 -0.0254285714286 -0.0254285714286 0.0514285714286 -0.0254285714286 -0.0254285714286 0.0514285714286 -0.0254285714286 -0.0254285714286 0.0514285714286 -0.0254285714286 -0.0254285714286 0.0514285714286 -0.0254285714286 -0.0254285714286 0.0514285714286 -0.0254285714286 -0.0254285714286 0.0514285714286 -0.0254285714286 -0.0254285714286 0.0514285714286 -0.0254285714286 -0.0254285714286 0.0514285714286 -0.0254285714286 -0.0254285714286 0.0514285714286 -0.0254285714286 -0.0254285714286 0.0514285714286 -0.0254285714286 -0.0254285714286 0.0514285714286 -0.0254285714286 -0.0254285714286 0.0514285714286 -0.0254285714286 -0.0254285714286 0.0514285714286 -0.0254285714286 -0.0254285714286 0.0514285714286 -0.0254285714286 -0.0254285714286 0.0514285714286 -0.0254285714286 -0.0254285714286 0.0514285714286 -0.0254285714286 -0.0254285714286 0.0514285714286 -0.0254285714286 -0.0254285714286 0.0514285714286 -0.0254285714286 -0.0254285714286 0.0514285714286 -0.0254285714286 -0.0254285714286 0.0514285714286 -0.0254285714286 -0.0254285714286 0.0514285714286 -0.0254285714286 -0.0254285714286 0.0514285714286 -0.0254285714286 -0.0254285714286 0.0514285714286 -0.0254285714286 -0.0254285714286 0.0514285714286 -0.0254285714286 -0.0254285714286 0.0514285714286 -0.0254285714286 -0.0254285714286 0.0514285714286 -0.0254285714286 -0.0254285714286 0.0514285714286 -0.0254285714286 -0.0254285714286 0.0514285714286 -0.0254285714286 -0.0254285714286 0.0514285714286 -0.0254285714286 -0.0254285714286 0.0514285714286 -0.0254285714286 -0.0254285714286 0.0514285714286 -0.0254285714286 -0.0254285714286 0.0514285714286 -0.0254285714286 -0.0254285714286 0.0514285714286 -0.0254285714286 -0.0254285714286 0.0514285714286 -0.0254285714286 -0.0254285714286 0.0514285714286 -0.0254285714286 -0.0254285714286 0.0514285714286 -0.0254285714286 -0.0254285714286 0.0514285714286 -0.0254285714286 -0.0254285714286 0.0514285714286 -0.0254285714286 -0.0254285714286 0.0514285714286 -0.0254285714286 -0.0254285714286 0.0514285714286 -0.0254285714286 -0.0254285714286 0.0514285714286 -0.0254285714286 -0.0254285714286 0.0514285714286 -0.0254285714286 -0.0254285714286 0.0514285714286 -0.0254285714286 -0.0254285714286 0.0514285714286 -0.0254285714286 -0.0254285714286 0.0514285714286 -0.0254285714286 -0.0254285714286 0.0514285714286 -0.0254285714286 -0.0254285714286 0.0514285714286 -0.0254285714286 -0.0254285714286 0.0514285714286 -0.0254285714286 -0.0254285714286 0.0514285714286 -0.0254285714286 -0.0254285714286 0.0514285714286 -0.0254285714286 -0.0254285714286 0.0514285714286 -0.0254285714286 -0.0254285714286 0.0514285714286 -0.0254285714286 -0.0254285714286 0.0514285714286 -0.0254285714286 -0.0254285714286 0.0514285714286 -0.0254285714286 -0.0254285714286 0.0514285714286 -0.0254285714286 -0.0254285714286 0.0514285714286 -0.0254285714286 -0.0254285714286 0.0514285714286 -0.0254285714286 -0.0254285714286 0.0514285714286 -0.0254285714286 -0.0254285714286 0.0514285714286 -0.0254285714286 -0.0254285714286 0.0514285714286 -0.0254285714286 -0.0254285714286 0.0514285714286 -0.0254285714286 -0.0254285714286 0.0514285714286 -0.0254285714286 -0.0254285714286 0.0514285714286 -0.0254285714286 -0.0254285714286 0.0514285714286</DataArray>
        <DataArray type="Float64" Name="ShellTopVonMises" format="ascii">0 0 0 0 0 0 0 0 0 0 0 0 0 0 0 0 0 0 0 0 0 0 0 0 0 0 0 0 0 0 0 0 0 0 0 0 0 0 0 0 0 0 0 0 0 0 0 0 0 0 0 0 0 0 0 0 0 0 0 0 0 0 0 0 0 0 0 0 0 0 0 0 0 0 0 0 0 0 0 0 0 0 0 0 0 0 0 0 0 0 0 0 0 0 0 0 0 0 0 0 0 0 0 0 0 0 0 0 0 0 0 0 0 0 0 0 0 0 0 0 0 0 0 0 0 0 0 0 0 0 0 0 0 0 0 0 0 0 0 0</DataArray>
        <DataArray type="Float64" Name="ShellBottomVonMises" format="ascii">0 0 0 0 0 0 0 0 0 0 0 0 0 0 0 0 0 0 0 0 0 0 0 0 0 0 0 0 0 0 0 0 0 0 0 0 0 0 0 0 0 0 0 0 0 0 0 0 0 0 0 0 0 0 0 0 0 0 0 0 0 0 0 0 0 0 0 0 0 0 0 0 0 0 0 0 0 0 0 0 0 0 0 0 0 0 0 0 0 0 0 0 0 0 0 0 0 0 0 0 0 0 0 0 0 0 0 0 0 0 0 0 0 0 0 0 0 0 0 0 0 0 0 0 0 0 0 0 0 0 0 0 0 0 0 0 0 0 0 0</DataArray>
      </CellData>
    </Piece>
  </UnstructuredGrid>
</VTKFile>
