$MeshFormat
4.1 0 8
$EndMeshFormat
$PhysicalNames
8
0 6 "anchor_origin"
0 7 "anchor_x"
0 8 "anchor_xy"
2 2 "x_min"
2 3 "x_max"
2 4 "y_min"
2 5 "z_min"
3 1 "domain"
$EndPhysicalNames
$Entities
8 12 6 1
1 0 0 1 3 6 7 8 
2 0 0 0 0 
3 0 1 1 0 
4 0 1 0 0 
5 1 0 1 0 
6 1 0 0 0 
7 1 1 1 0 
8 1 1 0 0 
1 -1e-07 -1e-07 -9.999999994736442e-08 1e-07 1e-07 1.0000001 0 2 2 -1 
2 -1e-07 -9.999999994736442e-08 0.9999999000000001 1e-07 1.0000001 1.0000001 0 2 1 -3 
3 -1e-07 0.9999999000000001 -9.999999994736442e-08 1e-07 1.0000001 1.0000001 0 2 4 -3 
4 -1e-07 -9.999999994736442e-08 -1e-07 1e-07 1.0000001 1e-07 0 2 2 -4 
5 0.9999999000000001 -1e-07 -9.999999994736442e-08 1.0000001 1e-07 1.0000001 0 2 6 -5 
6 0.9999999000000001 -9.999999994736442e-08 0.9999999000000001 1.0000001 1.0000001 1.0000001 0 2 5 -7 
7 0.9999999000000001 0.9999999000000001 -9.999999994736442e-08 1.0000001 1.0000001 1.0000001 0 2 8 -7 
8 0.9999999000000001 -9.999999994736442e-08 -1e-07 1.0000001 1.0000001 1e-07 0 2 6 -8 
9 -9.999999994736442e-08 -1e-07 -1e-07 1.0000001 1e-07 1e-07 0 2 2 -6 
10 -9.999999994736442e-08 -1e-07 0.9999999000000001 1.0000001 1e-07 1.0000001 0 2 1 -5 
11 -9.999999994736442e-08 0.9999999000000001 -1e-07 1.0000001 1.0000001 1e-07 0 2 4 -8 
12 -9.999999994736442e-08 0.9999999000000001 0.9999999000000001 1.0000001 1.0000001 1.0000001 0 2 3 -7 
1 -1e-07 -9.999999994736442e-08 -9.999999994736442e-08 1e-07 1.0000001 1.0000001 1 2 4 -1 4 3 -2 
2 0.9999999000000001 -9.999999994736442e-08 -9.999999994736442e-08 1.0000001 1.0000001 1.0000001 1 3 4 -5 8 7 -6 
3 -9.999999994736442e-08 -1e-07 -9.999999994736442e-08 1.0000001 1e-07 1.0000001 1 4 4 -9 1 10 -5 
4 -9.999999994736442e-08 0.9999999000000001 -9.999999994736442e-08 1.0000001 1.0000001 1.0000001 0 4 -11 3 12 -7 
5 -9.999999994736442e-08 -9.999999994736442e-08 -1e-07 1.0000001 1.0000001 1e-07 1 5 4 -4 9 8 -11 
6 -9.999999994736442e-08 -9.999999994736442e-08 0.9999999000000001 1.0000001 1.0000001 1.0000001 0 4 -2 10 6 -12 
1 -9.999999994736442e-08 -9.999999994736442e-08 -9.999999994736442e-08 1.0000001 1.0000001 1.0000001 1 1 6 -1 2 -3 4 -5 6 
$EndEntities
$Nodes
27 81 1 81
0 1 0 1
1
0 0 1
0 2 0 1
2
0 0 0
0 3 0 1
3
0 1 1
0 4 0 1
4
0 1 0
0 5 0 1
5
1 0 1
0 6 0 1
6
1 0 0
0 7 0 1
7
1 1 1
0 8 0 1
8
1 1 0
1 1 0 2
9
10
0 0 0.333333333333334
0 0 0.666666666666668
1 2 0 2
11
12
0 0.333333333333334 1
0 0.666666666666668 1
1 3 0 2
13
14
0 1 0.333333333333334
0 1 0.666666666666668
1 4 0 2
15
16
0 0.333333333333334 0
0 0.666666666666668 0
1 5 0 2
17
18
1 0 0.333333333333334
1 0 0.666666666666668
1 6 0 2
19
20
1 0.333333333333334 1
1 0.666666666666668 1
1 7 0 2
21
22
1 1 0.333333333333334
1 1 0.666666666666668
1 8 0 2
23
24
1 0.333333333333334 0
1 0.666666666666668 0
1 9 0 2
25
26
0.333333333333334 0 0
0.666666666666668 0 0
1 10 0 2
27
28
0.333333333333334 0 1
0.666666666666668 0 1
1 11 0 2
29
30
0.333333333333334 1 0
0.666666666666668 1 0
1 12 0 2
31
32
0.333333333333334 1 1
0.666666666666668 1 1
2 1 0 8
33
34
35
36
37
38
39
40
0 0.7022016650228015 0.5000000000000008
0 0.2973233661942756 0.5000000000000008
0 0.49992083853618 0.2474399182838955
0 0.4999208385361799 0.752560081716105
0 0.2423197548516862 0.7576802451483143
0 0.2423197548516859 0.242319754851686
0 0.7576802451483149 0.7576802451483149
0 0.7576802451483152 0.2423197548516856
2 2 0 8
41
42
43
44
45
46
47
48
1 0.7022016650228015 0.5000000000000007
1 0.2973233661942756 0.5000000000000008
1 0.49992083853618 0.2474399182838955
1 0.49992083853618 0.7525600817161051
1 0.2423197548516863 0.7576802451483142
1 0.2423197548516859 0.242319754851686
1 0.7576802451483149 0.7576802451483149
1 0.7576802451483152 0.2423197548516856
2 3 0 8
49
50
51
52
53
54
55
56
0.5000000000000008 0 0.7022016650228015
0.5000000000000008 0 0.2973233661942756
0.2474399182838955 0 0.49992083853618
0.752560081716105 0 0.4999208385361799
0.7576802451483143 0 0.2423197548516862
0.242319754851686 0 0.2423197548516859
0.7576802451483149 0 0.7576802451483149
0.2423197548516856 0 0.7576802451483152
2 4 0 8
57
58
59
60
61
62
63
64
0.5000000000000007 1 0.7022016650228015
0.5000000000000008 1 0.2973233661942756
0.2474399182838955 1 0.49992083853618
0.7525600817161051 1 0.49992083853618
0.7576802451483142 1 0.2423197548516863
0.242319754851686 1 0.2423197548516859
0.7576802451483149 1 0.7576802451483149
0.2423197548516856 1 0.7576802451483152
2 5 0 8
65
66
67
68
69
70
71
72
0.5000000000000007 0.7022016650228015 0
0.5000000000000008 0.2973233661942756 0
0.2474399182838954 0.49992083853618 0
0.7525600817161051 0.49992083853618 0
0.7576802451483141 0.2423197548516863 0
0.242319754851686 0.2423197548516859 0
0.7576802451483149 0.7576802451483149 0
0.2423197548516854 0.7576802451483152 0
2 6 0 8
73
74
75
76
77
78
79
80
0.7022016650228015 0.5000000000000008 1
0.2973233661942756 0.5000000000000008 1
0.49992083853618 0.2474399182838955 1
0.4999208385361799 0.752560081716105 1
0.2423197548516862 0.7576802451483143 1
0.2423197548516859 0.242319754851686 1
0.7576802451483149 0.7576802451483149 1
0.7576802451483152 0.2423197548516856 1
3 1 0 1
81
0.5451476943071685 0.4997625156085386 0.4548523056928312
$EndNodes
$Elements
6 289 1 289
0 1 15 1
1 1 
2 1 2 26
2 10 1 37 
3 1 11 37 
4 2 9 38 
5 15 2 38 
6 12 3 39 
7 3 14 39 
8 13 4 40 
9 4 16 40 
10 9 10 34 
11 9 34 38 
12 34 10 37 
13 11 12 36 
14 11 36 37 
15 36 12 39 
16 14 13 33 
17 33 13 40 
18 14 33 39 
19 16 15 35 
20 35 15 38 
21 16 35 40 
22 34 33 35 
23 33 34 36 
24 35 33 40 
25 33 36 39 
26 34 35 38 
27 36 34 37 
2 2 2 26
28 18 45 5 
29 5 45 19 
30 6 46 17 
31 23 46 6 
32 20 47 7 
33 7 47 22 
34 21 48 8 
35 8 48 24 
36 17 42 18 
37 17 46 42 
38 42 45 18 
39 19 44 20 
40 19 45 44 
41 44 47 20 
42 22 41 21 
43 41 48 21 
44 22 47 41 
45 24 43 23 
46 43 46 23 
47 24 48 43 
48 42 43 41 
49 41 44 42 
50 43 48 41 
51 41 47 44 
52 42 46 43 
53 44 45 42 
2 3 2 26
54 1 10 56 
55 27 1 56 
56 9 2 54 
57 2 25 54 
58 18 5 55 
59 5 28 55 
60 6 17 53 
61 26 6 53 
62 10 9 51 
63 51 9 54 
64 10 51 56 
65 17 18 52 
66 17 52 53 
67 52 18 55 
68 25 26 50 
69 25 50 54 
70 50 26 53 
71 28 27 49 
72 49 27 56 
73 28 49 55 
74 50 49 51 
75 49 50 52 
76 51 49 56 
77 49 52 55 
78 50 51 54 
79 52 50 53 
2 5 2 26
80 2 15 70 
81 25 2 70 
82 16 4 72 
83 4 29 72 
84 23 6 69 
85 6 26 69 
86 8 24 71 
87 30 8 71 
88 15 16 67 
89 15 67 70 
90 67 16 72 
91 24 23 68 
92 68 23 69 
93 24 68 71 
94 26 25 66 
95 66 25 70 
96 26 66 69 
97 29 30 65 
98 29 65 72 
99 65 30 71 
100 65 66 67 
101 66 65 68 
102 65 67 72 
103 68 65 71 
104 67 66 70 
105 66 68 69 
3 1 4 184
106 39 64 77 81 
107 78 56 37 81 
108 37 36 74 81 
109 78 75 49 81 
110 37 74 78 81 
111 35 67 72 81 
112 34 56 51 81 
113 67 35 38 81 
114 78 49 56 81 
115 34 37 56 81 
116 39 36 33 81 
117 37 34 36 81 
118 76 74 77 81 
119 78 74 75 81 
120 35 72 40 81 
121 79 63 47 81 
122 62 40 72 81 
123 38 70 67 81 
124 45 55 80 81 
125 70 38 54 81 
126 59 57 64 81 
127 56 49 51 81 
128 80 49 75 81 
129 62 59 33 81 
130 54 34 51 81 
131 62 33 40 81 
132 38 34 54 81 
133 80 55 49 81 
134 44 73 47 81 
135 44 45 73 81 
136 76 79 73 81 
137 80 75 73 81 
138 73 79 47 81 
139 45 80 73 81 
140 35 40 33 81 
141 35 34 38 81 
142 58 62 72 81 
143 70 54 50 81 
144 62 58 59 81 
145 54 51 50 81 
146 71 48 61 81 
147 46 69 53 81 
148 68 43 48 81 
149 68 46 43 81 
150 57 60 63 81 
151 49 55 52 81 
152 71 68 48 81 
153 46 68 69 81 
154 44 47 41 81 
155 67 65 72 81 
156 44 42 45 81 
157 67 70 66 81 
158 33 36 34 81 
159 72 65 58 81 
160 66 70 50 81 
161 76 73 74 81 
162 74 73 75 81 
163 35 33 34 81 
164 71 61 58 81 
165 53 69 66 81 
166 58 61 60 81 
167 52 53 50 81 
168 57 59 58 81 
169 51 49 50 81 
170 58 65 71 81 
171 66 50 53 81 
172 57 58 60 81 
173 49 52 50 81 
174 65 68 71 81 
175 48 43 41 81 
176 42 43 46 81 
177 66 69 68 81 
178 44 41 42 81 
179 66 65 67 81 
180 41 43 42 81 
181 65 66 68 81 
182 68 24 48 43 
183 35 67 16 72 
184 15 35 38 67 
185 68 23 43 46 
186 50 54 70 25 
187 53 26 66 69 
188 62 72 29 58 
189 58 61 71 30 
190 48 71 24 68 
191 72 16 35 40 
192 38 70 15 67 
193 68 23 46 69 
194 12 39 77 36 
195 55 45 18 52 
196 53 52 17 46 
197 64 14 59 39 
198 79 76 32 63 
199 47 63 22 60 
200 61 21 60 48 
201 31 77 64 76 
202 70 50 25 66 
203 66 50 26 53 
204 58 72 29 65 
205 30 71 58 65 
206 77 74 12 36 
207 42 18 45 52 
208 33 59 14 39 
209 76 57 32 63 
210 41 47 22 60 
211 52 42 17 46 
212 64 57 31 76 
213 21 41 60 48 
214 47 79 7 63 
215 38 2 70 54 
216 6 53 46 69 
217 1 78 56 37 
218 48 61 8 71 
219 39 64 3 77 
220 5 45 55 80 
221 40 72 4 62 
222 30 58 29 65 
223 50 25 66 26 
224 27 75 28 49 
225 76 57 31 32 
226 33 59 13 14 
227 22 41 60 21 
228 20 44 19 73 
229 11 12 74 36 
230 51 9 10 34 
231 18 42 17 52 
232 67 15 35 16 
233 24 68 23 43 
234 38 70 2 15 
235 46 23 6 69 
236 4 16 72 40 
237 8 48 71 24 
238 6 26 53 69 
239 9 2 38 54 
240 78 1 11 37 
241 2 70 54 25 
242 53 17 6 46 
243 10 1 56 37 
244 45 18 5 55 
245 3 39 77 12 
246 62 4 40 13 
247 77 64 3 31 
248 79 32 7 63 
249 56 78 1 27 
250 79 7 20 47 
251 71 61 8 30 
252 7 47 63 22 
253 72 29 4 62 
254 80 5 45 19 
255 8 21 61 48 
256 3 14 64 39 
257 55 28 5 80 
258 49 78 27 75 
259 49 27 78 56 
260 62 33 13 40 
261 13 33 62 59 
262 64 76 81 57 
263 81 76 64 77 
264 73 45 19 80 
265 73 19 45 44 
266 60 48 81 61 
267 81 48 60 41 
268 52 46 81 42 
269 81 46 52 53 
270 37 74 11 78 
271 37 11 74 36 
272 54 34 9 51 
273 9 34 54 38 
274 39 59 81 33 
275 39 81 59 64 
276 49 80 28 55 
277 28 80 49 75 
278 76 63 81 57 
279 81 63 76 79 
280 47 60 81 63 
281 81 60 47 41 
282 73 47 20 44 
283 20 47 73 79 
284 56 34 10 37 
285 10 34 56 51 
286 52 45 81 55 
287 52 81 45 42 
288 77 36 81 74 
289 81 36 77 39 
$EndElements
