<?xml version="1.0"?>
<VTKFile type="UnstructuredGrid" version="0.1" byte_order="LittleEndian">
  <UnstructuredGrid>
    <Piece NumberOfPoints="81" NumberOfCells="184">
      <Points>
        <DataArray type="Float64" NumberOfComponents="3" format="ascii">0 0 1 0 0 0 0 1 1 0 1 0 1 0 1 1 0 0 1 1 1 1 1 0 0 0 0.333333333333 0 0 0.666666666667 0 0.333333333333 1 0 0.666666666667 1 0 1 0.333333333333 0 1 0.666666666667 0 0.333333333333 0 0 0.666666666667 0 1 0 0.333333333333 1 0 0.666666666667 1 0.333333333333 1 1 0.666666666667 1 1 1 0.333333333333 1 1 0.666666666667 1 0.333333333333 0 1 0.666666666667 0 0.333333333333 0 0 0.666666666667 0 0 0.333333333333 0 1 0.666666666667 0 1 0.333333333333 1 0 0.666666666667 1 0 0.333333333333 1 1 0.666666666667 1 1 0 0.702201665023 0.5 0 0.297323366194 0.5 0 0.499920838536 0.247439918284 0 0.499920838536 0.752560081716 0 0.242319754852 0.757680245148 0 0.242319754852 0.242319754852 0 0.757680245148 0.757680245148 0 0.757680245148 0.242319754852 1 0.702201665023 0.5 1 0.297323366194 0.5 1 0.499920838536 0.247439918284 1 0.499920838536 0.752560081716 1 0.242319754852 0.757680245148 1 0.242319754852 0.242319754852 1 0.757680245148 0.757680245148 1 0.757680245148 0.242319754852 0.5 0 0.702201665023 0.5 0 0.297323366194 0.247439918284 0 0.499920838536 0.752560081716 0 0.499920838536 0.757680245148 0 0.242319754852 0.242319754852 0 0.242319754852 0.757680245148 0 0.757680245148 0.242319754852 0 0.757680245148 0.5 1 0.702201665023 0.5 1 0.297323366194 0.247439918284 1 0.499920838536 0.752560081716 1 0.499920838536 0.757680245148 1 0.242319754852 0.242319754852 1 0.242319754852 0.757680245148 1 0.757680245148 0.242319754852 1 0.757680245148 0.5 0.702201665023 0 0.5 0.297323366194 0 0.247439918284 0.499920838536 0 0.752560081716 0.499920838536 0 0.757680245148 0.242319754852 0 0.242319754852 0.242319754852 0 0.757680245148 0.757680245148 0 0.242319754852 0.757680245148 0 0.702201665023 0.5 1 0.297323366194 0.5 1 0.499920838536 0.247439918284 1 0.499920838536 0.752560081716 1 0.242319754852 0.757680245148 1 0.242319754852 0.242319754852 1 0.757680245148 0.757680245148 1 0.757680245148 0.242319754852 1 0.545147694307 0.499762515609 0.454852305693</DataArray>
      </Points>
      <Cells>
        <DataArray type="Int32" Name="connectivity" format="ascii">38 63 76 80 77 55 36 80 36 35 73 80 77 74 48 80 36 73 77 80 34 66 71 80 33 55 50 80 66 34 37 80 77 48 55 80 33 36 55 80 38 35 32 80 36 33 35 80 75 73 76 80 77 73 74 80 34 71 39 80 78 62 46 80 61 39 71 80 37 69 66 80 44 54 79 80 69 37 53 80 58 56 63 80 55 48 50 80 79 48 74 80 61 58 32 80 53 33 50 80 61 32 39 80 37 33 53 80 79 54 48 80 43 72 46 80 43 44 72 80 75 78 72 80 79 74 72 80 72 78 46 80 44 79 72 80 34 39 32 80 34 33 37 80 57 61 71 80 69 53 49 80 61 57 58 80 53 50 49 80 70 47 60 80 45 68 52 80 67 42 47 80 67 45 42 80 56 59 62 80 48 54 51 80 70 67 47 80 45 67 68 80 43 46 40 80 66 64 71 80 43 41 44 80 66 69 65 80 32 35 33 80 71 64 57 80 65 69 49 80 75 72 73 80 73 72 74 80 34 32 33 80 70 60 57 80 52 68 65 80 57 60 59 80 51 52 49 80 56 58 57 80 50 48 49 80 57 64 70 80 65 49 52 80 56 57 59 80 48 51 49 80 64 67 70 80 47 42 40 80 41 42 45 80 65 68 67 80 43 40 41 80 65 64 66 80 40 42 41 80 64 65 67 80 67 23 47 42 34 66 15 71 14 34 37 66 67 22 42 45 49 53 69 24 52 25 65 68 61 71 28 57 57 60 70 29 47 70 23 67 71 15 34 39 37 69 14 66 67 22 45 68 11 38 76 35 54 44 17 51 52 51 16 45 63 13 58 38 78 75 31 62 46 62 21 59 60 20 59 47 30 76 63 75 69 49 24 65 65 49 25 52 57 71 28 64 29 70 57 64 76 73 11 35 41 17 44 51 32 58 13 38 75 56 31 62 40 46 21 59 51 41 16 45 63 56 30 75 20 40 59 47 46 78 6 62 37 1 69 53 5 52 45 68 0 77 55 36 47 60 7 70 38 63 2 76 4 44 54 79 39 71 3 61 29 57 28 64 49 24 65 25 26 74 27 48 75 56 30 31 32 58 12 13 21 40 59 20 19 43 18 72 10 11 73 35 50 8 9 33 17 41 16 51 66 14 34 15 23 67 22 42 37 69 1 14 45 22 5 68 3 15 71 39 7 47 70 23 5 25 52 68 8 1 37 53 77 0 10 36 1 69 53 24 52 16 5 45 9 0 55 36 44 17 4 54 2 38 76 11 61 3 39 12 76 63 2 30 78 31 6 62 55 77 0 26 78 6 19 46 70 60 7 29 6 46 62 21 71 28 3 61 79 4 44 18 7 20 60 47 2 13 63 38 54 27 4 79 48 77 26 74 48 26 77 55 61 32 12 39 12 32 61 58 63 75 80 56 80 75 63 76 72 44 18 79 72 18 44 43 59 47 80 60 80 47 59 40 51 45 80 41 80 45 51 52 36 73 10 77 36 10 73 35 53 33 8 50 8 33 53 37 38 58 80 32 38 80 58 63 48 79 27 54 27 79 48 74 75 62 80 56 80 62 75 78 46 59 80 62 80 59 46 40 72 46 19 43 19 46 72 78 55 33 9 36 9 33 55 50 51 44 80 54 51 80 44 41 76 35 80 73 80 35 76 38</DataArray>
        <DataArray type="Int32" Name="offsets" format="ascii">4 8 12 16 20 24 28 32 36 40 44 48 52 56 60 64 68 72 76 80 84 88 92 96 100 104 108 112 116 120 124 128 132 136 140 144 148 152 156 160 164 168 172 176 180 184 188 192 196 200 204 208 212 216 220 224 228 232 236 240 244 248 252 256 260 264 268 272 276 280 284 288 292 296 300 304 308 312 316 320 324 328 332 336 340 344 348 352 356 360 364 368 372 376 380 384 388 392 396 400 404 408 412 416 420 424 428 432 436 440 444 448 452 456 460 464 468 472 476 480 484 488 492 496 500 504 508 512 516 520 524 528 532 536 540 544 548 552 556 560 564 568 572 576 580 584 588 592 596 600 604 608 612 616 620 624 628 632 636 640 644 648 652 656 660 664 668 672 676 680 684 688 692 696 700 704 708 712 716 720 724 728 732 736</DataArray>
        <DataArray type="UInt8" Name="types" format="ascii">10 10 10 10 10 10 10 10 10 10 10 10 10 10 10 10 10 10 10 10 10 10 10 10 10 10 10 10 10 10 10 10 10 10 10 10 10 10 10 10 10 10 10 10 10 10 10 10 10 10 10 10 10 10 10 10 10 10 10 10 10 10 10 10 10 10 10 10 10 10 10 10 10 10 10 10 10 10 10 10 10 10 10 10 10 10 10 10 10 10 10 10 10 10 10 10 10 10 10 10 10 10 10 10 10 10 10 10 10 10 10 10 10 10 10 10 10 10 10 10 10 10 10 10 10 10 10 10 10 10 10 10 10 10 10 10 10 10 10 10 10 10 10 10 10 10 10 10 10 10 10 10 10 10 10 10 10 10 10 10 10 10 10 10 10 10 10 10 10 10 10 10 10 10 10 10 10 10 10 10 10 10 10 10</DataArray>
      </Cells>
      <PointData Vectors="Displacement">
        <DataArray type="Float64" Name="Displacement" NumberOfComponents="3" format="ascii">0 0 0 7.8150498138e-06 -2.36993608043e-05 1.78571428571e-05 -4.04483730133e-05 -1.78571428571e-05 -2.36993608043e-05 -3.26333231994e-05 -4.15565036615e-05 -5.8422179472e-06 5.95238095238e-05 4.04483730133e-05 7.8150498138e-06 6.73388593376e-05 1.67490122089e-05 2.56721926709e-05 1.90754365106e-05 2.25912301561e-05 -1.58843109905e-05 2.68904863244e-05 -1.10813064824e-06 1.9728318666e-06 5.2100332092e-06 -1.57995738696e-05 1.19047619048e-05 2.6050166046e-06 -7.89978693478e-06 5.95238095238e-06 -1.34827910044e-05 -5.95238095238e-06 -7.89978693478e-06 -2.69655820088e-05 -1.19047619048e-05 -1.57995738696e-05 -3.52383398041e-05 -3.36567167267e-05 -1.17945988996e-05 -3.78433564087e-05 -2.57569297919e-05 -1.7746979852e-05 -5.66774119061e-06 -2.96517417567e-05 9.95735592236e-06 -1.9150532195e-05 -3.56041227091e-05 2.05756898758e-06 6.4733842733e-05 2.46487991437e-05 1.97198117186e-05 6.21288261284e-05 3.25485860785e-05 1.37674307662e-05 4.60410185194e-05 3.44959920609e-05 -8.47371209791e-08 3.2558227515e-05 2.85436111085e-05 -7.98452405576e-06 2.42854697198e-05 6.79165628655e-06 -3.97954908578e-06 2.16804531152e-05 1.46914432213e-05 -9.93193003816e-06 5.38560683332e-05 1.07966312565e-05 1.77724057362e-05 4.03732773288e-05 4.84425030415e-06 9.87261880138e-06 2.76563196551e-05 -1.02165697999e-05 2.04621594617e-05 4.74975894963e-05 3.26622120449e-06 2.30671760663e-05 1.98412698413e-05 1.34827910044e-05 2.6050166046e-06 3.96825396825e-05 2.69655820088e-05 5.2100332092e-06 -1.27920533582e-05 -2.80737126571e-05 -3.2372013426e-06 7.04921648309e-06 -1.45909216527e-05 -6.32184738e-07 -2.0607103172e-05 -4.37435185273e-06 -2.10943441997e-05 -7.65833330712e-07 9.10843915169e-06 -1.84893275951e-05 -2.44953899705e-05 -2.4388995849e-05 -7.71315918822e-06 -8.11872151448e-06 -1.71590262271e-05 1.88219769757e-06 -1.43396900277e-05 -2.67623507345e-05 1.59076856171e-06 -1.82872292669e-05 -1.47913257318e-05 -7.42923435672e-06 -7.90769887769e-06 -1.00699617797e-05 -1.41568482076e-06 -3.88013097395e-06 -2.22836759836e-05 7.7871810774e-06 -2.87531922255e-05 -1.92728276779e-05 -1.36293990246e-05 -2.47256243218e-05 -3.14865418817e-05 -4.42653312645e-06 3.50284195533e-05 1.60593771642e-05 1.01890625587e-07 5.14050880093e-05 2.32893467862e-05 9.69724751137e-06 4.51841194961e-05 1.36860222787e-05 9.40581837551e-06 4.12365802569e-05 2.56570472814e-05 3.85815457078e-07 5.16161106461e-05 3.03784112335e-05 6.39936499305e-06 5.56436785499e-05 1.81646970297e-05 1.56022308912e-05 3.07706172983e-05 2.11755453354e-05 -5.8143492108e-06 3.4798185202e-05 8.96183113151e-06 3.38851668736e-06 3.20892135842e-05 1.31665563191e-05 9.22535231721e-06 3.52533576581e-05 3.57119943328e-06 1.64553219391e-05 1.86367101222e-05 -1.84301436515e-06 1.08637403135e-05 4.8703386517e-05 1.85882744219e-05 1.48112795526e-05 5.10213234509e-05 1.26903956764e-05 1.94513132364e-05 2.03451037904e-05 -8.15509767137e-06 1.54237453327e-05 4.69937555472e-05 2.49041098803e-05 1.02484473383e-05 1.63175358867e-05 4.05861653247e-06 6.22087943453e-06 -8.35915942903e-06 -4.69058653807e-06 -1.44740084871e-05 -5.19501535516e-06 -1.42859434239e-05 -7.2440388652e-06 -2.18116628911e-05 -1.97001572223e-05 -1.28356204909e-05 8.25501350372e-06 7.31131564728e-07 -8.88808125171e-06 1.05729504377e-05 -5.16674718071e-06 -4.24804756793e-06 -2.01032692228e-05 -2.60122405285e-05 -8.27561547166e-06 6.54538253394e-06 7.04696702314e-06 -1.34509134661e-05 -2.41308371266e-05 -1.37985263247e-05 -1.74784813698e-05 9.17403969834e-06 -1.60144897446e-05 5.12293714726e-06 2.55507081543e-05 -8.78452012262e-06 1.4718294033e-05 2.32263182411e-06 -2.26179765222e-05 7.94309381838e-06 3.23893082189e-05 -2.18668773521e-06 1.18906330576e-05 4.31136245732e-05 2.62043389669e-06 1.80356284157e-05 1.24374049127e-05 -1.82250594511e-05 1.40080605119e-05 2.22681312254e-05 -6.58243200146e-06 5.82191421182e-06 -8.40808843508e-06 -2.74279253493e-05 1.79434630808e-06 2.15735316495e-05 1.94743434488e-05 -6.36193941068e-06 -2.5263670903e-06 3.09767499281e-06 -9.52608348456e-06 1.97486506569e-05 1.58024145849e-05 -1.95726164469e-06 -6.82638130126e-07 6.78241166642e-06 -1.39282866474e-05 -1.62231382489e-05 -3.72856454493e-06 -1.60627965491e-05 4.62235509893e-06 5.47430135323e-06 -3.84908234522e-06 1.44530814116e-05 1.71169288029e-05 -1.20352286453e-05 3.52985747594e-05 2.6319794701e-05 1.78485558518e-07 1.64950432558e-05 2.06354751742e-07 2.15108446848e-06</DataArray>
        <DataArray type="Float64" Name="DisplacementMagnitude" format="ascii">0 3.06857011839e-05 5.01658064121e-05 5.31602134133e-05 7.23894314333e-05 7.39872479783e-05 3.35640774293e-05 2.69855197072e-05 2.04571341226e-05 1.02285670613e-05 1.67219354707e-05 3.34438709414e-05 5.0136092151e-05 4.90967855409e-05 3.178833145e-05 4.04799953974e-05 7.20201684837e-05 7.14768748737e-05 5.75304791823e-05 4.40287240154e-05 2.55293447928e-05 2.80093517506e-05 5.77312891632e-05 4.18441977492e-05 3.58880242585e-05 5.2903533158e-05 2.41298104778e-05 4.82596209555e-05 3.10201457766e-05 1.62168463408e-05 2.9812061527e-05 2.06253581639e-05 3.54166637756e-05 1.90758614029e-05 3.04036292496e-05 2.46657575252e-05 1.28817698822e-05 2.39219108946e-05 3.72014578697e-05 4.02784435311e-05 3.85344541029e-05 5.7261796656e-05 4.81391865299e-05 4.85683897206e-05 6.02330691532e-05 6.05772629748e-05 3.78026621538e-05 3.60930762879e-05 3.58912657778e-05 3.90682775623e-05 2.16505085328e-05 5.4193337286e-05 5.6058676186e-05 2.68015071658e-05 5.41632571233e-05 1.79285717922e-05 1.73601287471e-05 1.68390160975e-05 3.20717630641e-05 1.21522750812e-05 1.25111336627e-05 3.39007950083e-05 1.6535684135e-05 3.28358636274e-05 1.91538865816e-05 3.07674285603e-05 2.4084439374e-05 3.45721859977e-05 4.68074266543e-05 2.61355618318e-05 2.39393559733e-05 2.87438118344e-05 2.97513292755e-05 1.03307496142e-05 2.53684130884e-05 1.55069104519e-05 2.3132354856e-05 8.13323901449e-06 2.54308384148e-05 4.40312710496e-05 1.66359910641e-05</DataArray>
        <DataArray type="Float64" Name="NodalVonMises" format="ascii">12500000 12500000 12500000 12500000 12500000 12500000 12500000 12500000 12500000 12500000 12500000 12500000 12500000 12500000 12500000 12500000 12500000 12500000 12500000 12500000 12500000 12500000 12500000 12500000 12500000 12500000 12500000 12500000 12500000 12500000 12500000 12500000 12500000 12500000 12500000 12500000 12500000 12500000 12500000 12500000 12500000 12500000 12500000 12500000 12500000 12500000 12500000 12500000 12500000 12500000 12500000 12500000 12500000 12500000 12500000 12500000 12500000 12500000 12500000 12500000 12500000 12500000 12500000 12500000 12500000 12500000 12500000 12500000 12500000 12500000 12500000 12500000 12500000 12500000 12500000 12500000 12500000 12500000 12500000 12500000 12500000</DataArray>
        <DataArray type="Float64" Name="NodalStressTrace" format="ascii">12500000 12500000 12500000 12500000 12500000 12500000 12500000 12500000 12500000 12500000 12500000 12500000 12500000 12500000 12500000 12500000 12500000 12500000 12500000 12500000 12500000 12500000 12500000 12500000 12500000 12500000 12500000 12500000 12500000 12500000 12500000 12500000 12500000 12500000 12500000 12500000 12500000 12500000 12500000 12500000 12500000 12500000 12500000 12500000 12500000 12500000 12500000 12500000 12500000 12500000 12500000 12500000 12500000 12500000 12500000 12500000 12500000 12500000 12500000 12500000 12500000 12500000 12500000 12500000 12500000 12500000 12500000 12500000 12500000 12500000 12500000 12500000 12500000 12500000 12500000 12500000 12500000 12500000 12500000 12500000 12500000</DataArray>
        <DataArray type="Float64" Name="NodalPrincipalStress" NumberOfComponents="3" format="ascii">-3.67576170909e-08 3.72232783782e-08 12500000 2.19761939533e-09 8.51259021275e-09 12500000 -2.51106792642e-09 1.0892971098e-08 12500000 -6.93318589157e-09 -2.84570114189e-09 12500000 -2.15178478907e-09 5.99349040936e-09 12500000 -1.74379374085e-09 5.35266871749e-09 12500000 -9.88102542667e-10 6.80886863401e-09 12500000 -1.24085174945e-09 3.21991222051e-09 12500000 -6.51972011355e-11 2.0321463199e-08 12500000 -2.39404653535e-09 3.5572413256e-08 12500000 -2.46615640436e-08 8.01417302238e-09 12500000 -2.57476205686e-09 1.01417579756e-08 12500000 -1.0904995603e-08 -5.74239541824e-09 12500000 -1.25235512871e-08 -1.21345668843e-09 12500000 -2.74560312851e-09 4.84107892139e-09 12500000 -5.79190306418e-09 1.83378212207e-09 12500000 -9.34045998474e-09 5.03309307715e-09 12500000 4.54177176691e-10 1.06052783969e-08 12500000 -8.9358437146e-09 8.81942839277e-09 12500000 -7.24073714973e-09 5.84375328781e-09 12500000 -1.51169652365e-09 7.44887793683e-09 12500000 -9.62043288349e-09 3.79966679214e-09 12500000 -1.69552105406e-09 4.14024281243e-09 12500000 -1.55513321055e-09 3.65060900343e-09 12500000 -8.15901279256e-09 2.92032331035e-09 12500000 -1.24514438025e-09 3.80628146044e-09 12500000 -4.20530087336e-09 1.01424822865e-08 12500000 -4.70074847873e-10 7.9206554448e-09 12500000 -8.23472815657e-09 -1.77698952055e-09 12500000 -3.59304196718e-09 1.03190488699e-09 12500000 -3.04317158796e-09 1.0641111169e-09 12500000 -3.11407896653e-09 2.29917171374e-09 12500000 -7.33721575237e-09 -3.25029066059e-10 12500000 -5.73290388487e-10 1.62983138599e-08 12500000 -5.49954895699e-09 5.54611508572e-09 12500000 -1.57554431322e-09 5.67336364152e-09 12500000 -1.26763317688e-08 1.71212804204e-08 12500000 -1.96033070469e-09 8.98758285861e-09 12500000 -4.95066872185e-09 3.17268926122e-09 12500000 -6.15926600247e-09 -1.23957445142e-09 12500000 -8.4450653568e-09 5.39239691779e-09 12500000 -5.24959804286e-09 4.83567689859e-09 12500000 -5.48405813048e-09 -2.20292639037e-10 12500000 -7.38732666534e-09 4.65156660241e-09 12500000 -6.91481821649e-10 9.03756489417e-09 12500000 -4.30093446927e-09 4.22929427123e-09 12500000 -8.13919672694e-09 2.40798088315e-09 12500000 -3.01902614141e-09 3.48468742872e-09 12500000 1.37422632884e-09 8.977782289e-09 12500000 -9.9685170319e-10 6.75411852809e-09 12500000 6.3858651187e-11 1.60596634218e-08 12500000 -3.59203573938e-10 8.77991185275e-09 12500000 -2.19181689853e-09 5.36678022109e-09 12500000 3.9365109247e-10 1.32375247724e-08 12500000 2.49514849823e-09 8.73246254019e-09 12500000 -8.21192975823e-09 1.83294795461e-08 12500000 -5.23349118144e-09 5.76878308367e-10 12500000 -6.44754745379e-09 -7.52292449968e-10 12500000 -1.03093102657e-08 -3.28799932368e-09 12500000 -7.72045363679e-09 3.29667140736e-09 12500000 -1.70131832403e-09 1.44261760886e-09 12500000 -7.62336264865e-09 -2.45185429492e-09 12500000 -5.30872273668e-09 2.81108492294e-09 12500000 -4.55293874299e-09 2.09763377355e-09 12500000 -5.95294365542e-09 7.27189208962e-10 12500000 -2.95773148241e-09 4.35471534433e-09 12500000 -4.29000020186e-09 4.33656633059e-09 12500000 -1.98585494114e-09 3.88730519765e-09 12500000 -2.39261982207e-09 6.32487069267e-09 12500000 -2.54450128432e-09 4.28014790065e-09 12500000 -2.33141410053e-09 2.24674841193e-09 12500000 -7.24817095868e-09 -8.82991519691e-10 12500000 -3.37573429065e-09 6.74282359888e-09 12500000 -6.80557695463e-09 2.14896408155e-09 12500000 -1.15429827924e-09 6.45119542236e-09 12500000 -5.12571594435e-09 -7.41684305845e-11 12500000 -3.58402449347e-09 4.00735293648e-09 12500000 -1.5779579681e-08 9.30265450301e-09 12500000 -2.62639562635e-09 3.71293863007e-09 12500000 -1.13279988326e-09 8.79504470169e-09 12500000 -3.2482924247e-09 4.4326917859e-09 12500000</DataArray>
        <DataArray type="Float64" Name="ShellTopNodalVonMises" format="ascii">0 0 0 0 0 0 0 0 0 0 0 0 0 0 0 0 0 0 0 0 0 0 0 0 0 0 0 0 0 0 0 0 0 0 0 0 0 0 0 0 0 0 0 0 0 0 0 0 0 0 0 0 0 0 0 0 0 0 0 0 0 0 0 0 0 0 0 0 0 0 0 0 0 0 0 0 0 0 0 0 0</DataArray>
        <DataArray type="Float64" Name="ShellBottomNodalVonMises" format="ascii">0 0 0 0 0 0 0 0 0 0 0 0 0 0 0 0 0 0 0 0 0 0 0 0 0 0 0 0 0 0 0 0 0 0 0 0 0 0 0 0 0 0 0 0 0 0 0 0 0 0 0 0 0 0 0 0 0 0 0 0 0 0 0 0 0 0 0 0 0 0 0 0 0 0 0 0 0 0 0 0 0</DataArray>
      </PointData>
      <CellData Scalars="VonMises">
        <DataArray type="Int32" Name="ElementIndex" format="ascii">0 1 2 3 4 5 6 7 8 9 10 11 12 13 14 15 16 17 18 19 20 21 22 23 24 25 26 27 28 29 30 31 32 33 34 35 36 37 38 39 40 41 42 43 44 45 46 47 48 49 50 51 52 53 54 55 56 57 58 59 60 61 62 63 64 65 66 67 68 69 70 71 72 73 74 75 76 77 78 79 80 81 82 83 84 85 86 87 88 89 90 91 92 93 94 95 96 97 98 99 100 101 102 103 104 105 106 107 108 109 110 111 112 113 114 115 116 117 118 119 120 121 122 123 124 125 126 127 128 129 130 131 132 133 134 135 136 137 138 139 140 141 142 143 144 145 146 147 148 149 150 151 152 153 154 155 156 157 158 159 160 161 162 163 164 165 166 167 168 169 170 171 172 173 174 175 176 177 178 179 180 181 182 183</DataArray>
        <DataArray type="Float64" Name="VonMises" format="ascii">12500000 12500000 12500000 12500000 12500000 12500000 12500000 12500000 12500000 12500000 12500000 12500000 12500000 12500000 12500000 12500000 12500000 12500000 12500000 12500000 12500000 12500000 12500000 12500000 12500000 12500000 12500000 12500000 12500000 12500000 12500000 12500000 12500000 12500000 12500000 12500000 12500000 12500000 12500000 12500000 12500000 12500000 12500000 12500000 12500000 12500000 12500000 12500000 12500000 12500000 12500000 12500000 12500000 12500000 12500000 12500000 12500000 12500000 12500000 12500000 12500000 12500000 12500000 12500000 12500000 12500000 12500000 12500000 12500000 12500000 12500000 12500000 12500000 12500000 12500000 12500000 12500000 12500000 12500000 12500000 12500000 12500000 12500000 12500000 12500000 12500000 12500000 12500000 12500000 12500000 12500000 12500000 12500000 12500000 12500000 12500000 12500000 12500000 12500000 12500000 12500000 12500000 12500000 12500000 12500000 12500000 12500000 12500000 12500000 12500000 12500000 12500000 12500000 12500000 12500000 12500000 12500000 12500000 12500000 12500000 12500000 12500000 12500000 12500000 12500000 12500000 12500000 12500000 12500000 12500000 12500000 12500000 12500000 12500000 12500000 12500000 12500000 12500000 12500000 12500000 12500000 12500000 12500000 12500000 12500000 12500000 12500000 12500000 12500000 12500000 12500000 12500000 12500000 12500000 12500000 12500000 12500000 12500000 12500000 12500000 12500000 12500000 12500000 12500000 12500000 12500000 12500000 12500000 12500000 12500000 12500000 12500000 12500000 12500000 12500000 12500000 12500000 12500000 12500000 12500000 12500000 12500000 12500000 12500000</DataArray>
        <DataArray type="Int32" Name="HasVonMises" format="ascii">1 1 1 1 1 1 1 1 1 1 1 1 1 1 1 1 1 1 1 1 1 1 1 1 1 1 1 1 1 1 1 1 1 1 1 1 1 1 1 1 1 1 1 1 1 1 1 1 1 1 1 1 1 1 1 1 1 1 1 1 1 1 1 1 1 1 1 1 1 1 1 1 1 1 1 1 1 1 1 1 1 1 1 1 1 1 1 1 1 1 1 1 1 1 1 1 1 1 1 1 1 1 1 1 1 1 1 1 1 1 1 1 1 1 1 1 1 1 1 1 1 1 1 1 1 1 1 1 1 1 1 1 1 1 1 1 1 1 1 1 1 1 1 1 1 1 1 1 1 1 1 1 1 1 1 1 1 1 1 1 1 1 1 1 1 1 1 1 1 1 1 1 1 1 1 1 1 1 1 1 1 1 1 1</DataArray>
        <DataArray type="Float64" Name="StressTrace" format="ascii">12500000 12500000 12500000 12500000 12500000 12500000 12500000 12500000 12500000 12500000 12500000 12500000 12500000 12500000 12500000 12500000 12500000 12500000 12500000 12500000 12500000 12500000 12500000 12500000 12500000 12500000 12500000 12500000 12500000 12500000 12500000 12500000 12500000 12500000 12500000 12500000 12500000 12500000 12500000 12500000 12500000 12500000 12500000 12500000 12500000 12500000 12500000 12500000 12500000 12500000 12500000 12500000 12500000 12500000 12500000 12500000 12500000 12500000 12500000 12500000 12500000 12500000 12500000 12500000 12500000 12500000 12500000 12500000 12500000 12500000 12500000 12500000 12500000 12500000 12500000 12500000 12500000 12500000 12500000 12500000 12500000 12500000 12500000 12500000 12500000 12500000 12500000 12500000 12500000 12500000 12500000 12500000 12500000 12500000 12500000 12500000 12500000 12500000 12500000 12500000 12500000 12500000 12500000 12500000 12500000 12500000 12500000 12500000 12500000 12500000 12500000 12500000 12500000 12500000 12500000 12500000 12500000 12500000 12500000 12500000 12500000 12500000 12500000 12500000 12500000 12500000 12500000 12500000 12500000 12500000 12500000 12500000 12500000 12500000 12500000 12500000 12500000 12500000 12500000 12500000 12500000 12500000 12500000 12500000 12500000 12500000 12500000 12500000 12500000 12500000 12500000 12500000 12500000 12500000 12500000 12500000 12500000 12500000 12500000 12500000 12500000 12500000 12500000 12500000 12500000 12500000 12500000 12500000 12500000 12500000 12500000 12500000 12500000 12500000 12500000 12500000 12500000 12500000 12500000 12500000 12500000 12500000 12500000 12500000</DataArray>
        <DataArray type="Float64" Name="HydrostaticPressure" format="ascii">-4166666.66667 -4166666.66667 -4166666.66667 -4166666.66667 -4166666.66667 -4166666.66667 -4166666.66667 -4166666.66667 -4166666.66667 -4166666.66667 -4166666.66667 -4166666.66667 -4166666.66667 -4166666.66667 -4166666.66667 -4166666.66667 -4166666.66667 -4166666.66667 -4166666.66667 -4166666.66667 -4166666.66667 -4166666.66667 -4166666.66667 -4166666.66667 -4166666.66667 -4166666.66667 -4166666.66667 -4166666.66667 -4166666.66667 -4166666.66667 -4166666.66667 -4166666.66667 -4166666.66667 -4166666.66667 -4166666.66667 -4166666.66667 -4166666.66667 -4166666.66667 -4166666.66667 -4166666.66667 -4166666.66667 -4166666.66667 -4166666.66667 -4166666.66667 -4166666.66667 -4166666.66667 -4166666.66667 -4166666.66667 -4166666.66667 -4166666.66667 -4166666.66667 -4166666.66667 -4166666.66667 -4166666.66667 -4166666.66667 -4166666.66667 -4166666.66667 -4166666.66667 -4166666.66667 -4166666.66667 -4166666.66667 -4166666.66667 -4166666.66667 -4166666.66667 -4166666.66667 -4166666.66667 -4166666.66667 -4166666.66667 -4166666.66667 -4166666.66667 -4166666.66667 -4166666.66667 -4166666.66667 -4166666.66667 -4166666.66667 -4166666.66667 -4166666.66667 -4166666.66667 -4166666.66667 -4166666.66667 -4166666.66667 -4166666.66667 -4166666.66667 -4166666.66667 -4166666.66667 -4166666.66667 -4166666.66667 -4166666.66667 -4166666.66667 -4166666.66667 -4166666.66667 -4166666.66667 -4166666.66667 -4166666.66667 -4166666.66667 -4166666.66667 -4166666.66667 -4166666.66667 -4166666.66667 -4166666.66667 -4166666.66667 -4166666.66667 -4166666.66667 -4166666.66667 -4166666.66667 -4166666.66667 -4166666.66667 -4166666.66667 -4166666.66667 -4166666.66667 -4166666.66667 -4166666.66667 -4166666.66667 -4166666.66667 -4166666.66667 -4166666.66667 -4166666.66667 -4166666.66667 -4166666.66667 -4166666.66667 -4166666.66667 -4166666.66667 -4166666.66667 -4166666.66667 -4166666.66667 -4166666.66667 -4166666.66667 -4166666.66667 -4166666.66667 -4166666.66667 -4166666.66667 -4166666.66667 -4166666.66667 -4166666.66667 -4166666.66667 -4166666.66667 -4166666.66667 -4166666.66667 -4166666.66667 -4166666.66667 -4166666.66667 -4166666.66667 -4166666.66667 -4166666.66667 -4166666.66667 -4166666.66667 -4166666.66667 -4166666.66667 -4166666.66667 -4166666.66667 -4166666.66667 -4166666.66667 -4166666.66667 -4166666.66667 -4166666.66667 -4166666.66667 -4166666.66667 -4166666.66667 -4166666.66667 -4166666.66667 -4166666.66667 -4166666.66667 -4166666.66667 -4166666.66667 -4166666.66667 -4166666.66667 -4166666.66667 -4166666.66667 -4166666.66667 -4166666.66667 -4166666.66667 -4166666.66667 -4166666.66667 -4166666.66667 -4166666.66667 -4166666.66667 -4166666.66667 -4166666.66667 -4166666.66667 -4166666.66667 -4166666.66667 -4166666.66667 -4166666.66667 -4166666.66667</DataArray>
        <DataArray type="Float64" Name="PrincipalStress" NumberOfComponents="3" format="ascii">-2.50336624471e-11 3.75032396091e-09 12500000 -2.72424523451e-09 3.18990652182e-09 12500000 -6.53925330482e-09 -2.77397244133e-09 12500000 3.07431120612e-09 8.56722097658e-09 12500000 -6.53262777108e-09 -9.17952825842e-10 12500000 -7.45795855861e-09 4.66399083476e-09 12500000 9.65534325355e-10 1.021033657e-08 12500000 -8.60387159823e-09 3.48159743784e-09 12500000 -9.2134166566e-09 5.95378764545e-09 12500000 4.2865289516e-09 1.38742612534e-08 12500000 3.5619856797e-09 5.75124006645e-09 12500000 2.67831278328e-09 1.31541709852e-08 12500000 -1.21532340129e-08 -4.14491104283e-09 12500000 -1.37896864929e-08 -4.83676499936e-09 12500000 -8.47863883372e-09 -2.69723206167e-09 12500000 1.47144598874e-09 5.97913460819e-09 12500000 -4.29707631944e-09 1.0612473367e-10 12500000 -2.97285437833e-09 3.90417695295e-09 12500000 -1.61500431513e-09 3.01198817705e-09 12500000 -7.00917187859e-09 -4.41408718338e-10 12500000 -3.54081183843e-09 2.8118282728e-10 12500000 -5.30674393563e-09 6.50131062555e-10 12500000 -3.3230319663e-09 2.85737067899e-09 12500000 -4.2311769746e-09 -1.35675847309e-09 12500000 3.05846622856e-09 2.3484227148e-08 12500000 -9.62227185929e-09 -2.48492161071e-09 12500000 4.41065026263e-09 2.63229946997e-08 12500000 4.44983663344e-09 1.04513245604e-08 12500000 -4.24164752542e-09 2.37900237619e-09 12500000 -2.31237905778e-09 7.43465321816e-09 12500000 -3.70294653656e-09 1.84030138733e-09 12500000 8.31116170278e-13 9.77805591729e-09 12500000 -9.39367652382e-09 -3.64483952079e-09 12500000 9.50949433239e-09 2.21554732045e-08 12500000 -6.68168468146e-10 3.9277974793e-09 12500000 -5.72760058617e-09 1.55064876196e-08 12500000 -9.64670032145e-09 -5.72012215971e-09 12500000 4.65661287308e-09 1.11758708954e-08 12500000 -2.65319789009e-09 4.98150432662e-09 12500000 1.01761041529e-08 2.00918795221e-08 12500000 8.19636083871e-10 2.43999292728e-09 12500000 -7.55678523006e-09 3.83149493159e-09 12500000 -6.81913888889e-09 -2.95974814457e-09 12500000 -1.58587186692e-09 1.88888004994e-10 12500000 -1.16419342209e-08 4.02038236615e-13 12500000 5.94747200133e-09 1.03506730544e-08 12500000 4.39625034727e-09 7.24528183542e-09 12500000 -1.64520702657e-09 7.69880376157e-09 12500000 -1.37301237079e-08 1.62293023791e-09 12500000 -1.11160995493e-08 -2.85373906997e-09 12500000 -5.80018491503e-09 3.00621719119e-09 12500000 4.48663479234e-09 9.01754253959e-09 12500000 1.86264514923e-09 2.32830643654e-09 12500000 -3.99398187509e-09 1.20001415124e-09 12500000 -1.03471069443e-09 1.96603326905e-09 12500000 -1.42646266581e-09 1.89212395312e-09 12500000 2.77397244133e-09 6.53925330482e-09 12500000 -1.06648860509e-09 1.64333110862e-08 12500000 -6.54549292302e-10 1.12021057961e-09 12500000 -2.92089455921e-09 6.64618485767e-09 12500000 -3.69201989232e-09 -1.43025426807e-09 12500000 4.35878223109e-09 8.67973381352e-09 12500000 -6.14879186152e-09 1.02651770113e-09 12500000 3.68970342263e-09 1.21427803458e-08 12500000 -1.19200826831e-08 -5.77504623458e-09 12500000 -4.25748407884e-11 4.69918771387e-09 12500000 -1.0105937144e-08 -1.53559503869e-09 12500000 6.43501408951e-09 1.45197438393e-08 12500000 -8.05034233009e-09 -3.31560841452e-10 12500000 -1.32424420832e-08 1.60090990054e-09 12500000 -3.09179836583e-09 1.2291532166e-09 12500000 2.6147733272e-10 1.23113774246e-08 12500000 -8.31343347818e-09 5.98512704164e-09 12500000 -5.94517183564e-10 5.71679134395e-09 12500000 -9.96644422119e-09 -1.20942667419e-09 12500000 -6.19423547348e-10 6.20735899504e-09 12500000 -8.47134649878e-09 -5.03283083314e-09 12500000 -4.86194624264e-09 3.46496238071e-09 12500000 -6.64223932753e-09 4.31393289099e-09 12500000 -3.15591626757e-09 -1.96635789281e-09 12500000 -1.18608965458e-08 1.61634822507e-09 12500000 -4.72763418294e-09 1.93366645909e-09 12500000 -1.66005996295e-08 -6.68246473588e-09 12500000 -1.12021057961e-09 6.54549292302e-10 12500000 -1.59612167078e-10 5.74754761477e-09 12500000 -4.95444351506e-09 -6.33491932631e-10 12500000 1.39698386192e-09 4.65661287308e-09 12500000 -4.41621529019e-10 1.11518311371e-08 12500000 1.11758708954e-08 1.11758708954e-08 12500000 5.37568598035e-09 1.41820880866e-08 12500000 -9.9011719222e-09 2.45059132528e-09 12500000 -7.56869941565e-09 -1.74452633051e-09 12500000 -9.41266760606e-09 -3.66219427399e-10 12500000 -1.49665238851e-08 -8.65959883345e-10 12500000 -3.35688457747e-09 2.42556200286e-09 12500000 -1.04470555016e-08 -5.85108955416e-09 12500000 -1.89615002517e-08 -4.32156411365e-09 12500000 -4.65661287308e-09 -1.86264514923e-09 12500000 -1.72753105452e-09 4.98716006567e-09 12500000 -8.77208934042e-09 -1.47245898035e-09 12500000 -3.18486118419e-09 9.23845791919e-09 12500000 3.12357443287e-09 8.98361903713e-09 12500000 -2.04890966415e-08 -7.91624188423e-09 12500000 -5.31412722632e-09 1.12317564055e-09 12500000 -1.54484295256e-08 -8.49715530198e-10 12500000 -1.44047936974e-08 1.36627765279e-09 12500000 -1.22238980372e-10 2.45054541691e-09 12500000 3.06877804887e-09 1.74203185927e-08 12500000 5.48454732788e-09 8.48529129136e-09 12500000 6.00775382019e-10 7.31546650221e-09 12500000 -6.98683346884e-09 2.79588188307e-09 12500000 -4.33551665192e-08 4.10268600827e-08 12500000 -2.43704520608e-09 1.50572263147e-09 12500000 -5.62565435233e-09 4.69433177772e-09 12500000 1.83761148678e-09 5.61296911014e-09 12500000 -6.44580129239e-09 -5.39118017231e-10 12500000 -6.78242533534e-09 -1.13381654889e-09 12500000 -3.72529029846e-09 5.58793544769e-09 12500000 1.64516761014e-09 9.53070328524e-09 12500000 -3.72529029846e-09 -2.79396772385e-09 12500000 -2.10881741706e-08 -1.19737772282e-08 12500000 -9.79827712556e-10 1.21556986079e-08 12500000 -8.37079842452e-09 1.25617500103e-08 12500000 -1.26977770775e-08 8.50682549171e-09 12500000 1.35322557885e-09 3.40370322565e-08 12500000 -1.05836125596e-08 8.25530612302e-09 12500000 -6.53413383473e-09 6.99979512204e-09 12500000 2.46049314855e-09 6.38707131029e-09 12500000 7.96976786303e-10 3.39397479947e-09 12500000 -5.64503956822e-09 9.8842669514e-10 12500000 -6.81708866429e-09 -2.49613708186e-09 12500000 -5.00673248943e-11 7.50064792182e-09 12500000 8.12895983347e-09 9.56616908423e-09 12500000 5.48108948721e-09 1.4542345867e-08 12500000 -7.39141615913e-08 1.52408393905e-08 12500000 1.91163592578e-09 8.7985736823e-09 12500000 -2.47226175981e-09 8.06019720751e-09 12500000 1.24953354773e-09 8.44321433169e-08 12500000 3.9010608531e-09 1.10001003407e-08 12500000 -5.59228086116e-09 1.16458775962e-08 12500000 -6.64149700268e-09 -4.0687126054e-09 12500000 2.1218984286e-09 1.04509563287e-08 12500000 5.99576926472e-09 1.12336983657e-08 12500000 -3.10106738006e-08 8.19327072257e-09 12500000 -8.34577635256e-09 2.75784090487e-09 12500000 2.30255738663e-09 6.07934578491e-09 12500000 -7.0869504107e-09 4.75864397416e-09 12500000 -7.82835660691e-09 -4.27883686309e-09 12500000 -1.28980173212e-08 4.05045286239e-09 12500000 -4.77885185345e-09 -2.20606745617e-09 12500000 -9.48234920779e-10 1.67807186892e-08 12500000 -1.44779417491e-09 3.31043932414e-09 12500000 5.58793544769e-09 1.25728547573e-08 12500000 6.95636724935e-09 1.0273100381e-08 12500000 -7.50840806721e-09 -2.27047896625e-09 12500000 -8.38190317154e-09 -4.65661287308e-09 12500000 -1.55170310186e-09 3.41434825109e-09 12500000 -6.4618582819e-09 -9.88722315025e-10 12500000 -6.89705168034e-09 1.66759387138e-08 12500000 -7.57750743228e-09 1.98957198459e-09 12500000 -2.39449698551e-09 2.39449698551e-09 12500000 -5.822118733e-09 7.21910259493e-09 12500000 -1.69188828659e-09 4.95151729774e-09 12500000 2.66704088849e-09 1.22341203054e-08 12500000 -8.65401232811e-09 3.06607688042e-09 12500000 -3.38030517766e-09 5.24295032689e-09 12500000 -3.80072810774e-09 1.68392441524e-08 12500000 -3.29437576285e-09 1.58672305202e-08 12500000 -1.30783161469e-08 -1.35718375959e-09 12500000 -1.59129345461e-08 -1.01640975431e-08 12500000 3.12621276939e-09 1.22406097118e-08 12500000 -5.20388559611e-09 6.60086945803e-09 12500000 -4.9505859611e-09 1.22529566264e-09 12500000 -2.24042115922e-09 1.3090985846e-09 12500000 -1.57345022154e-08 -1.96062670232e-09 12500000 -1.15715467985e-08 4.58662748885e-09 12500000 -8.75253878161e-09 2.2332807593e-09 12500000 -3.49383504025e-09 5.82214147678e-09 12500000 -2.55425281252e-09 1.27988011333e-08 12500000 -9.62469245545e-09 1.10216763174e-08 12500000 8.81255249721e-10 8.43197049643e-09 12500000 3.48219870514e-09 1.09533012014e-08 12500000 -9.27709892718e-09 1.82651833025e-09 12500000 4.50380315706e-11 2.28326840497e-09 12500000</DataArray>
        <DataArray type="Float64" Name="PrincipalStrain" NumberOfComponents="3" format="ascii">-1.78571428571e-05 -1.78571428571e-05 5.95238095238e-05 -1.78571428571e-05 -1.78571428571e-05 5.95238095238e-05 -1.78571428571e-05 -1.78571428571e-05 5.95238095238e-05 -1.78571428571e-05 -1.78571428571e-05 5.95238095238e-05 -1.78571428571e-05 -1.78571428571e-05 5.95238095238e-05 -1.78571428571e-05 -1.78571428571e-05 5.95238095238e-05 -1.78571428571e-05 -1.78571428571e-05 5.95238095238e-05 -1.78571428571e-05 -1.78571428571e-05 5.95238095238e-05 -1.78571428571e-05 -1.78571428571e-05 5.95238095238e-05 -1.78571428571e-05 -1.78571428571e-05 5.95238095238e-05 -1.78571428571e-05 -1.78571428571e-05 5.95238095238e-05 -1.78571428571e-05 -1.78571428571e-05 5.95238095238e-05 -1.78571428571e-05 -1.78571428571e-05 5.95238095238e-05 -1.78571428571e-05 -1.78571428571e-05 5.95238095238e-05 -1.78571428571e-05 -1.78571428571e-05 5.95238095238e-05 -1.78571428571e-05 -1.78571428571e-05 5.95238095238e-05 -1.78571428571e-05 -1.78571428571e-05 5.95238095238e-05 -1.78571428571e-05 -1.78571428571e-05 5.95238095238e-05 -1.78571428571e-05 -1.78571428571e-05 5.95238095238e-05 -1.78571428571e-05 -1.78571428571e-05 5.95238095238e-05 -1.78571428571e-05 -1.78571428571e-05 5.95238095238e-05 -1.78571428571e-05 -1.78571428571e-05 5.95238095238e-05 -1.78571428571e-05 -1.78571428571e-05 5.95238095238e-05 -1.78571428571e-05 -1.78571428571e-05 5.95238095238e-05 -1.78571428571e-05 -1.78571428571e-05 5.95238095238e-05 -1.78571428571e-05 -1.78571428571e-05 5.95238095238e-05 -1.78571428571e-05 -1.78571428571e-05 5.95238095238e-05 -1.78571428571e-05 -1.78571428571e-05 5.95238095238e-05 -1.78571428571e-05 -1.78571428571e-05 5.95238095238e-05 -1.78571428571e-05 -1.78571428571e-05 5.95238095238e-05 -1.78571428571e-05 -1.78571428571e-05 5.95238095238e-05 -1.78571428571e-05 -1.78571428571e-05 5.95238095238e-05 -1.78571428571e-05 -1.78571428571e-05 5.95238095238e-05 -1.78571428571e-05 -1.78571428571e-05 5.95238095238e-05 -1.78571428571e-05 -1.78571428571e-05 5.95238095238e-05 -1.78571428571e-05 -1.78571428571e-05 5.95238095238e-05 -1.78571428571e-05 -1.78571428571e-05 5.95238095238e-05 -1.78571428571e-05 -1.78571428571e-05 5.95238095238e-05 -1.78571428571e-05 -1.78571428571e-05 5.95238095238e-05 -1.78571428571e-05 -1.78571428571e-05 5.95238095238e-05 -1.78571428571e-05 -1.78571428571e-05 5.95238095238e-05 -1.78571428571e-05 -1.78571428571e-05 5.95238095238e-05 -1.78571428571e-05 -1.78571428571e-05 5.95238095238e-05 -1.78571428571e-05 -1.78571428571e-05 5.95238095238e-05 -1.78571428571e-05 -1.78571428571e-05 5.95238095238e-05 -1.78571428571e-05 -1.78571428571e-05 5.95238095238e-05 -1.78571428571e-05 -1.78571428571e-05 5.95238095238e-05 -1.78571428571e-05 -1.78571428571e-05 5.95238095238e-05 -1.78571428571e-05 -1.78571428571e-05 5.95238095238e-05 -1.78571428571e-05 -1.78571428571e-05 5.95238095238e-05 -1.78571428571e-05 -1.78571428571e-05 5.95238095238e-05 -1.78571428571e-05 -1.78571428571e-05 5.95238095238e-05 -1.78571428571e-05 -1.78571428571e-05 5.95238095238e-05 -1.78571428571e-05 -1.78571428571e-05 5.95238095238e-05 -1.78571428571e-05 -1.78571428571e-05 5.95238095238e-05 -1.78571428571e-05 -1.78571428571e-05 5.95238095238e-05 -1.78571428571e-05 -1.78571428571e-05 5.95238095238e-05 -1.78571428571e-05 -1.78571428571e-05 5.95238095238e-05 -1.78571428571e-05 -1.78571428571e-05 5.95238095238e-05 -1.78571428571e-05 -1.78571428571e-05 5.95238095238e-05 -1.78571428571e-05 -1.78571428571e-05 5.95238095238e-05 -1.78571428571e-05 -1.78571428571e-05 5.95238095238e-05 -1.78571428571e-05 -1.78571428571e-05 5.95238095238e-05 -1.78571428571e-05 -1.78571428571e-05 5.95238095238e-05 -1.78571428571e-05 -1.78571428571e-05 5.95238095238e-05 -1.78571428571e-05 -1.78571428571e-05 5.95238095238e-05 -1.78571428571e-05 -1.78571428571e-05 5.95238095238e-05 -1.78571428571e-05 -1.78571428571e-05 5.95238095238e-05 -1.78571428571e-05 -1.78571428571e-05 5.95238095238e-05 -1.78571428571e-05 -1.78571428571e-05 5.95238095238e-05 -1.78571428571e-05 -1.78571428571e-05 5.95238095238e-05 -1.78571428571e-05 -1.78571428571e-05 5.95238095238e-05 -1.78571428571e-05 -1.78571428571e-05 5.95238095238e-05 -1.78571428571e-05 -1.78571428571e-05 5.95238095238e-05 -1.78571428571e-05 -1.78571428571e-05 5.95238095238e-05 -1.78571428571e-05 -1.78571428571e-05 5.95238095238e-05 -1.78571428571e-05 -1.78571428571e-05 5.95238095238e-05 -1.78571428571e-05 -1.78571428571e-05 5.95238095238e-05 -1.78571428571e-05 -1.78571428571e-05 5.95238095238e-05 -1.78571428571e-05 -1.78571428571e-05 5.95238095238e-05 -1.78571428571e-05 -1.78571428571e-05 5.95238095238e-05 -1.78571428571e-05 -1.78571428571e-05 5.95238095238e-05 -1.78571428571e-05 -1.78571428571e-05 5.95238095238e-05 -1.78571428571e-05 -1.78571428571e-05 5.95238095238e-05 -1.78571428571e-05 -1.78571428571e-05 5.95238095238e-05 -1.78571428571e-05 -1.78571428571e-05 5.95238095238e-05 -1.78571428571e-05 -1.78571428571e-05 5.95238095238e-05 -1.78571428571e-05 -1.78571428571e-05 5.95238095238e-05 -1.78571428571e-05 -1.78571428571e-05 5.95238095238e-05 -1.78571428571e-05 -1.78571428571e-05 5.95238095238e-05 -1.78571428571e-05 -1.78571428571e-05 5.95238095238e-05 -1.78571428571e-05 -1.78571428571e-05 5.95238095238e-05 -1.78571428571e-05 -1.78571428571e-05 5.95238095238e-05 -1.78571428571e-05 -1.78571428571e-05 5.95238095238e-05 -1.78571428571e-05 -1.78571428571e-05 5.95238095238e-05 -1.78571428571e-05 -1.78571428571e-05 5.95238095238e-05 -1.78571428571e-05 -1.78571428571e-05 5.95238095238e-05 -1.78571428571e-05 -1.78571428571e-05 5.95238095238e-05 -1.78571428571e-05 -1.78571428571e-05 5.95238095238e-05 -1.78571428571e-05 -1.78571428571e-05 5.95238095238e-05 -1.78571428571e-05 -1.78571428571e-05 5.95238095238e-05 -1.78571428571e-05 -1.78571428571e-05 5.95238095238e-05 -1.78571428571e-05 -1.78571428571e-05 5.95238095238e-05 -1.78571428571e-05 -1.78571428571e-05 5.95238095238e-05 -1.78571428571e-05 -1.78571428571e-05 5.95238095238e-05 -1.78571428571e-05 -1.78571428571e-05 5.95238095238e-05 -1.78571428571e-05 -1.78571428571e-05 5.95238095238e-05 -1.78571428571e-05 -1.78571428571e-05 5.95238095238e-05 -1.78571428571e-05 -1.78571428571e-05 5.95238095238e-05 -1.78571428571e-05 -1.78571428571e-05 5.95238095238e-05 -1.78571428571e-05 -1.78571428571e-05 5.95238095238e-05 -1.78571428571e-05 -1.78571428571e-05 5.95238095238e-05 -1.78571428571e-05 -1.78571428571e-05 5.95238095238e-05 -1.78571428571e-05 -1.78571428571e-05 5.95238095238e-05 -1.78571428571e-05 -1.78571428571e-05 5.95238095238e-05 -1.78571428571e-05 -1.78571428571e-05 5.95238095238e-05 -1.78571428571e-05 -1.78571428571e-05 5.95238095238e-05 -1.78571428571e-05 -1.78571428571e-05 5.95238095238e-05 -1.78571428571e-05 -1.78571428571e-05 5.95238095238e-05 -1.78571428571e-05 -1.78571428571e-05 5.95238095238e-05 -1.78571428571e-05 -1.78571428571e-05 5.95238095238e-05 -1.78571428571e-05 -1.78571428571e-05 5.95238095238e-05 -1.78571428571e-05 -1.78571428571e-05 5.95238095238e-05 -1.78571428571e-05 -1.78571428571e-05 5.95238095238e-05 -1.78571428571e-05 -1.78571428571e-05 5.95238095238e-05 -1.78571428571e-05 -1.78571428571e-05 5.95238095238e-05 -1.78571428571e-05 -1.78571428571e-05 5.95238095238e-05 -1.78571428571e-05 -1.78571428571e-05 5.95238095238e-05 -1.78571428571e-05 -1.78571428571e-05 5.95238095238e-05 -1.78571428571e-05 -1.78571428571e-05 5.95238095238e-05 -1.78571428571e-05 -1.78571428571e-05 5.95238095238e-05 -1.78571428571e-05 -1.78571428571e-05 5.95238095238e-05 -1.78571428571e-05 -1.78571428571e-05 5.95238095238e-05 -1.78571428571e-05 -1.78571428571e-05 5.95238095238e-05 -1.78571428571e-05 -1.78571428571e-05 5.95238095238e-05 -1.78571428571e-05 -1.78571428571e-05 5.95238095238e-05 -1.78571428571e-05 -1.78571428571e-05 5.95238095238e-05 -1.78571428571e-05 -1.78571428571e-05 5.95238095238e-05 -1.78571428571e-05 -1.78571428571e-05 5.95238095238e-05 -1.78571428571e-05 -1.78571428571e-05 5.95238095238e-05 -1.78571428571e-05 -1.78571428571e-05 5.95238095238e-05 -1.78571428571e-05 -1.78571428571e-05 5.95238095238e-05 -1.78571428571e-05 -1.78571428571e-05 5.95238095238e-05 -1.78571428571e-05 -1.78571428571e-05 5.95238095238e-05 -1.78571428571e-05 -1.78571428571e-05 5.95238095238e-05 -1.78571428571e-05 -1.78571428571e-05 5.95238095238e-05 -1.78571428571e-05 -1.78571428571e-05 5.95238095238e-05 -1.78571428571e-05 -1.78571428571e-05 5.95238095238e-05 -1.78571428571e-05 -1.78571428571e-05 5.95238095238e-05 -1.78571428571e-05 -1.78571428571e-05 5.95238095238e-05 -1.78571428571e-05 -1.78571428571e-05 5.95238095238e-05 -1.78571428571e-05 -1.78571428571e-05 5.95238095238e-05 -1.78571428571e-05 -1.78571428571e-05 5.95238095238e-05 -1.78571428571e-05 -1.78571428571e-05 5.95238095238e-05 -1.78571428571e-05 -1.78571428571e-05 5.95238095238e-05 -1.78571428571e-05 -1.78571428571e-05 5.95238095238e-05 -1.78571428571e-05 -1.78571428571e-05 5.95238095238e-05 -1.78571428571e-05 -1.78571428571e-05 5.95238095238e-05 -1.78571428571e-05 -1.78571428571e-05 5.95238095238e-05 -1.78571428571e-05 -1.78571428571e-05 5.95238095238e-05 -1.78571428571e-05 -1.78571428571e-05 5.95238095238e-05 -1.78571428571e-05 -1.78571428571e-05 5.95238095238e-05 -1.78571428571e-05 -1.78571428571e-05 5.95238095238e-05 -1.78571428571e-05 -1.78571428571e-05 5.95238095238e-05 -1.78571428571e-05 -1.78571428571e-05 5.95238095238e-05 -1.78571428571e-05 -1.78571428571e-05 5.95238095238e-05 -1.78571428571e-05 -1.78571428571e-05 5.95238095238e-05 -1.78571428571e-05 -1.78571428571e-05 5.95238095238e-05 -1.78571428571e-05 -1.78571428571e-05 5.95238095238e-05 -1.78571428571e-05 -1.78571428571e-05 5.95238095238e-05 -1.78571428571e-05 -1.78571428571e-05 5.95238095238e-05 -1.78571428571e-05 -1.78571428571e-05 5.95238095238e-05 -1.78571428571e-05 -1.78571428571e-05 5.95238095238e-05 -1.78571428571e-05 -1.78571428571e-05 5.95238095238e-05 -1.78571428571e-05 -1.78571428571e-05 5.95238095238e-05 -1.78571428571e-05 -1.78571428571e-05 5.95238095238e-05 -1.78571428571e-05 -1.78571428571e-05 5.95238095238e-05 -1.78571428571e-05 -1.78571428571e-05 5.95238095238e-05 -1.78571428571e-05 -1.78571428571e-05 5.95238095238e-05 -1.78571428571e-05 -1.78571428571e-05 5.95238095238e-05 -1.78571428571e-05 -1.78571428571e-05 5.95238095238e-05 -1.78571428571e-05 -1.78571428571e-05 5.95238095238e-05 -1.78571428571e-05 -1.78571428571e-05 5.95238095238e-05 -1.78571428571e-05 -1.78571428571e-05 5.95238095238e-05</DataArray>
        <DataArray type="Float64" Name="ShellTopVonMises" format="ascii">0 0 0 0 0 0 0 0 0 0 0 0 0 0 0 0 0 0 0 0 0 0 0 0 0 0 0 0 0 0 0 0 0 0 0 0 0 0 0 0 0 0 0 0 0 0 0 0 0 0 0 0 0 0 0 0 0 0 0 0 0 0 0 0 0 0 0 0 0 0 0 0 0 0 0 0 0 0 0 0 0 0 0 0 0 0 0 0 0 0 0 0 0 0 0 0 0 0 0 0 0 0 0 0 0 0 0 0 0 0 0 0 0 0 0 0 0 0 0 0 0 0 0 0 0 0 0 0 0 0 0 0 0 0 0 0 0 0 0 0 0 0 0 0 0 0 0 0 0 0 0 0 0 0 0 0 0 0 0 0 0 0 0 0 0 0 0 0 0 0 0 0 0 0 0 0 0 0 0 0 0 0 0 0</DataArray>
        <DataArray type="Float64" Name="ShellBottomVonMises" format="ascii">0 0 0 0 0 0 0 0 0 0 0 0 0 0 0 0 0 0 0 0 0 0 0 0 0 0 0 0 0 0 0 0 0 0 0 0 0 0 0 0 0 0 0 0 0 0 0 0 0 0 0 0 0 0 0 0 0 0 0 0 0 0 0 0 0 0 0 0 0 0 0 0 0 0 0 0 0 0 0 0 0 0 0 0 0 0 0 0 0 0 0 0 0 0 0 0 0 0 0 0 0 0 0 0 0 0 0 0 0 0 0 0 0 0 0 0 0 0 0 0 0 0 0 0 0 0 0 0 0 0 0 0 0 0 0 0 0 0 0 0 0 0 0 0 0 0 0 0 0 0 0 0 0 0 0 0 0 0 0 0 0 0 0 0 0 0 0 0 0 0 0 0 0 0 0 0 0 0 0 0 0 0 0 0</DataArray>
      </CellData>
    </Piece>
  </UnstructuredGrid>
</VTKFile>
