$MeshFormat
4.1 0 8
$EndMeshFormat
$PhysicalNames
5
2 2 "x_min"
2 3 "x_max"
2 4 "y_min"
2 5 "z_min"
3 1 "domain"
$EndPhysicalNames
$Entities
8 12 6 1
1 0 0 1 0 
2 0 0 0 0 
3 0 1 1 0 
4 0 1 0 0 
5 8 0 1 0 
6 8 0 0 0 
7 8 1 1 0 
8 8 1 0 0 
1 -1e-07 -1e-07 -9.999999994736442e-08 1e-07 1e-07 1.0000001 0 2 2 -1 
2 -1e-07 -9.999999994736442e-08 0.9999999000000001 1e-07 1.0000001 1.0000001 0 2 1 -3 
3 -1e-07 0.9999999000000001 -9.999999994736442e-08 1e-07 1.0000001 1.0000001 0 2 4 -3 
4 -1e-07 -9.999999994736442e-08 -1e-07 1e-07 1.0000001 1e-07 0 2 2 -4 
5 7.9999999 -1e-07 -9.999999994736442e-08 8.000000099999999 1e-07 1.0000001 0 2 6 -5 
6 7.9999999 -9.999999994736442e-08 0.9999999000000001 8.000000099999999 1.0000001 1.0000001 0 2 5 -7 
7 7.9999999 0.9999999000000001 -9.999999994736442e-08 8.000000099999999 1.0000001 1.0000001 0 2 8 -7 
8 7.9999999 -9.999999994736442e-08 -1e-07 8.000000099999999 1.0000001 1e-07 0 2 6 -8 
9 -9.999999983634211e-08 -1e-07 -1e-07 8.000000099999999 1e-07 1e-07 0 2 2 -6 
10 -9.999999983634211e-08 -1e-07 0.9999999000000001 8.000000099999999 1e-07 1.0000001 0 2 1 -5 
11 -9.999999983634211e-08 0.9999999000000001 -1e-07 8.000000099999999 1.0000001 1e-07 0 2 4 -8 
12 -9.999999983634211e-08 0.9999999000000001 0.9999999000000001 8.000000099999999 1.0000001 1.0000001 0 2 3 -7 
1 -1e-07 -9.999999994736442e-08 -9.999999994736442e-08 1e-07 1.0000001 1.0000001 1 2 4 -1 4 3 -2 
2 7.9999999 -9.999999994736442e-08 -9.999999994736442e-08 8.000000099999999 1.0000001 1.0000001 1 3 4 -5 8 7 -6 
3 -9.999999983634211e-08 -1e-07 -9.999999994736442e-08 8.000000099999999 1e-07 1.0000001 1 4 4 -9 1 10 -5 
4 -9.999999983634211e-08 0.9999999000000001 -9.999999994736442e-08 8.000000099999999 1.0000001 1.0000001 0 4 -11 3 12 -7 
5 -9.999999983634211e-08 -9.999999994736442e-08 -1e-07 8.000000099999999 1.0000001 1e-07 1 5 4 -4 9 8 -11 
6 -9.999999983634211e-08 -9.999999994736442e-08 0.9999999000000001 8.000000099999999 1.0000001 1.0000001 0 4 -2 10 6 -12 
1 -9.999999983634211e-08 -9.999999994736442e-08 -9.999999994736442e-08 8.000000099999999 1.0000001 1.0000001 1 1 6 -1 2 -3 4 -5 6 
$EndEntities
$Nodes
27 116 1 116
0 1 0 1
1
0 0 1
0 2 0 1
2
0 0 0
0 3 0 1
3
0 1 1
0 4 0 1
4
0 1 0
0 5 0 1
5
8 0 1
0 6 0 1
6
8 0 0
0 7 0 1
7
8 1 1
0 8 0 1
8
8 1 0
1 1 0 1
9
0 0 0.4999999999999998
1 2 0 1
10
0 0.4999999999999998 1
1 3 0 1
11
0 1 0.4999999999999998
1 4 0 1
12
0 0.4999999999999998 0
1 5 0 1
13
8 0 0.4999999999999998
1 6 0 1
14
8 0.4999999999999998 1
1 7 0 1
15
8 1 0.4999999999999998
1 8 0 1
16
8 0.4999999999999998 0
1 9 0 11
17
18
19
20
21
22
23
24
25
26
27
0.6666666666666654 0 0
1.333333333333331 0 0
1.999999999999997 0 0
2.666666666666664 0 0
3.333333333333331 0 0
3.999999999999998 0 0
4.666666666666665 0 0
5.333333333333332 0 0
5.999999999999999 0 0
6.666666666666665 0 0
7.333333333333333 0 0
1 10 0 11
28
29
30
31
32
33
34
35
36
37
38
0.6666666666666654 0 1
1.333333333333331 0 1
1.999999999999997 0 1
2.666666666666664 0 1
3.333333333333331 0 1
3.999999999999998 0 1
4.666666666666665 0 1
5.333333333333332 0 1
5.999999999999999 0 1
6.666666666666665 0 1
7.333333333333333 0 1
1 11 0 11
39
40
41
42
43
44
45
46
47
48
49
0.6666666666666654 1 0
1.333333333333331 1 0
1.999999999999997 1 0
2.666666666666664 1 0
3.333333333333331 1 0
3.999999999999998 1 0
4.666666666666665 1 0
5.333333333333332 1 0
5.999999999999999 1 0
6.666666666666665 1 0
7.333333333333333 1 0
1 12 0 11
50
51
52
53
54
55
56
57
58
59
60
0.6666666666666654 1 1
1.333333333333331 1 1
1.999999999999997 1 1
2.666666666666664 1 1
3.333333333333331 1 1
3.999999999999998 1 1
4.666666666666665 1 1
5.333333333333332 1 1
5.999999999999999 1 1
6.666666666666665 1 1
7.333333333333333 1 1
2 1 0 4
61
62
63
64
0 0.7386115160349854 0.7386115160349854
0 0.3750000000000001 0.6249999999999999
0 0.6491435860058308 0.3574769193391641
0 0.2812500000000001 0.2812500000000001
2 2 0 4
65
66
67
68
8 0.7386115160349854 0.7386115160349854
8 0.3750000000000001 0.6249999999999999
8 0.6491435860058308 0.3574769193391641
8 0.2812500000000001 0.2812500000000001
2 3 0 12
69
70
71
72
73
74
75
76
77
78
79
80
1.666666666666664 0 0.5
1.014172335600905 0 0.4976379440665154
6.985827664399092 0 0.4976379440665157
3.666666666666665 0 0.4999999999999999
6.333333333333327 0 0.5
2.333333333333331 0 0.5
2.999999999999998 0 0.5
4.999999999999998 0 0.5
5.666666666666666 0 0.5
4.333333333333332 0 0.4999999999999998
7.500000000000001 0 0.4722222222222242
0.499999999999999 0 0.4722222222222213
2 4 0 12
81
82
83
84
85
86
87
88
89
90
91
92
1.014172335600905 1 0.4976379440665154
1.666666666666664 1 0.5
6.985827664399092 1 0.4976379440665157
3.666666666666664 1 0.5
6.333333333333327 1 0.5
2.999999999999997 1 0.5
2.333333333333331 1 0.5
5.666666666666666 1 0.5
4.999999999999998 1 0.5
4.333333333333332 1 0.5
7.500000000000001 1 0.4722222222222242
0.499999999999999 1 0.4722222222222213
2 5 0 12
93
94
95
96
97
98
99
100
101
102
103
104
1.666666666666664 0.5 0
1.014172335600905 0.4976379440665154 0
6.985827664399092 0.4976379440665157 0
6.333333333333327 0.5 0
2.999999999999998 0.5 0
2.333333333333331 0.5 0
3.666666666666664 0.5 0
4.333333333333331 0.5 0
5.666666666666666 0.5 0
4.999999999999998 0.5 0
7.500000000000001 0.4722222222222251 0
0.4999999999999991 0.4722222222222214 0
2 6 0 12
105
106
107
108
109
110
111
112
113
114
115
116
1.014172335600905 0.4976379440665154 1
1.666666666666664 0.5000000000000002 1
6.985827664399092 0.4976379440665157 1
2.999999999999998 0.5 1
6.333333333333327 0.5 1
2.333333333333331 0.5 1
3.666666666666664 0.5 1
5.666666666666666 0.5 1
4.333333333333331 0.5 1
4.999999999999998 0.5 1
7.500000000000001 0.4722222222222251 1
0.4999999999999991 0.4722222222222214 1
3 1 0 0
$EndNodes
$Elements
5 380 1 380
2 1 2 14
1 9 1 62 
2 1 10 62 
3 2 9 64 
4 12 2 64 
5 10 3 61 
6 3 11 61 
7 11 4 63 
8 4 12 63 
9 9 62 64 
10 10 61 62 
11 61 11 63 
12 63 12 64 
13 62 61 63 
14 62 63 64 
2 2 2 14
15 13 66 5 
16 5 66 14 
17 6 68 13 
18 16 68 6 
19 14 65 7 
20 7 65 15 
21 15 67 8 
22 8 67 16 
23 13 68 66 
24 14 66 65 
25 65 67 15 
26 67 68 16 
27 66 67 65 
28 66 68 67 
2 3 2 50
29 1 9 80 
30 28 1 80 
31 9 2 80 
32 2 17 80 
33 13 5 79 
34 5 38 79 
35 6 13 79 
36 27 6 79 
37 17 18 70 
38 17 70 80 
39 18 19 69 
40 18 69 70 
41 19 20 74 
42 69 19 74 
43 20 21 75 
44 74 20 75 
45 21 22 72 
46 21 72 75 
47 22 23 78 
48 72 22 78 
49 23 24 76 
50 23 76 78 
51 24 25 77 
52 76 24 77 
53 25 26 73 
54 25 73 77 
55 26 27 71 
56 26 71 73 
57 71 27 79 
58 29 28 70 
59 70 28 80 
60 30 29 69 
61 69 29 70 
62 31 30 74 
63 30 69 74 
64 32 31 75 
65 31 74 75 
66 33 32 72 
67 72 32 75 
68 34 33 78 
69 33 72 78 
70 35 34 76 
71 76 34 78 
72 36 35 77 
73 35 76 77 
74 37 36 73 
75 73 36 77 
76 38 37 71 
77 71 37 73 
78 38 71 79 
2 5 2 50
79 2 12 104 
80 17 2 104 
81 12 4 104 
82 4 39 104 
83 16 6 103 
84 6 27 103 
85 8 16 103 
86 49 8 103 
87 18 17 94 
88 94 17 104 
89 19 18 93 
90 93 18 94 
91 20 19 98 
92 19 93 98 
93 21 20 97 
94 97 20 98 
95 22 21 99 
96 21 97 99 
97 23 22 100 
98 22 99 100 
99 24 23 102 
100 23 100 102 
101 25 24 101 
102 101 24 102 
103 26 25 96 
104 96 25 101 
105 27 26 95 
106 95 26 96 
107 27 95 103 
108 39 40 94 
109 39 94 104 
110 40 41 93 
111 40 93 94 
112 41 42 98 
113 93 41 98 
114 42 43 97 
115 42 97 98 
116 43 44 99 
117 97 43 99 
118 44 45 100 
119 99 44 100 
120 45 46 102 
121 100 45 102 
122 46 47 101 
123 46 101 102 
124 47 48 96 
125 47 96 101 
126 48 49 95 
127 48 95 96 
128 95 49 103 
3 1 4 252
129 81 70 82 105 
130 70 81 82 94 
131 83 107 85 95 
132 107 109 95 71 
133 71 96 109 95 
134 107 109 85 95 
135 82 70 94 93 
136 82 70 106 105 
137 88 85 109 96 
138 77 96 109 73 
139 101 88 109 96 
140 96 77 109 101 
141 98 86 87 108 
142 74 87 108 98 
143 87 74 108 110 
144 93 106 74 82 
145 106 93 74 69 
146 86 98 97 108 
147 98 93 74 82 
148 74 97 98 108 
149 87 82 74 110 
150 82 74 98 87 
151 74 75 97 108 
152 110 82 74 106 
153 108 75 97 111 
154 113 78 111 100 
155 102 78 113 100 
156 97 84 108 111 
157 90 113 111 100 
158 111 72 84 100 
159 72 97 75 111 
160 97 99 84 72 
161 72 111 78 100 
162 84 97 72 111 
163 97 84 86 108 
164 89 113 102 114 
165 102 114 113 76 
166 72 99 84 100 
167 89 112 114 102 
168 90 111 84 100 
169 102 112 114 76 
170 112 89 88 102 
171 112 102 77 76 
172 101 88 102 77 
173 88 112 102 77 
174 102 113 78 76 
175 113 90 102 100 
176 113 89 102 90 
177 109 112 88 77 
178 101 109 88 77 
179 96 71 109 73 
180 96 109 95 85 
181 70 82 106 93 
182 106 70 93 69 
183 92 70 94 81 
184 81 92 70 105 
185 83 115 107 95 
186 71 95 107 79 
187 66 65 67 91 
188 61 63 92 62 
189 92 80 70 105 
190 94 80 70 92 
191 95 115 107 79 
192 115 83 91 95 
193 103 67 66 68 
194 64 104 63 62 
195 95 103 115 79 
196 103 115 91 95 
197 80 92 116 105 
198 80 94 104 92 
199 91 67 66 103 
200 104 92 63 62 
201 78 111 33 113 
202 108 53 87 110 
203 53 87 86 108 
204 110 52 82 106 
205 69 74 106 30 
206 55 113 111 90 
207 110 74 108 31 
208 74 75 20 97 
209 20 74 97 98 
210 74 75 108 31 
211 93 19 74 69 
212 75 108 32 111 
213 93 98 41 82 
214 82 98 41 87 
215 82 87 52 110 
216 72 111 33 78 
217 55 111 84 90 
218 57 112 89 88 
219 46 88 102 101 
220 77 35 112 76 
221 102 24 77 76 
222 93 74 19 98 
223 24 101 102 77 
224 97 75 21 72 
225 42 98 86 87 
226 74 110 106 30 
227 46 88 89 102 
228 57 112 114 89 
229 35 114 112 76 
230 42 98 97 86 
231 99 44 84 100 
232 32 72 75 111 
233 90 84 44 100 
234 34 78 113 76 
235 99 97 21 72 
236 97 99 43 84 
237 113 56 89 90 
238 72 22 99 100 
239 56 114 113 89 
240 43 97 84 86 
241 54 86 84 108 
242 22 72 78 100 
243 84 54 108 111 
244 85 109 58 88 
245 85 88 47 96 
246 113 114 34 76 
247 77 25 96 73 
248 77 109 36 73 
249 23 102 78 76 
250 89 90 45 102 
251 100 102 78 23 
252 90 45 102 100 
253 109 112 58 88 
254 101 47 88 96 
255 112 109 36 77 
256 25 96 101 77 
257 85 59 107 83 
258 51 81 82 105 
259 85 95 48 83 
260 71 109 37 107 
261 94 82 40 81 
262 106 70 29 105 
263 96 95 71 26 
264 93 18 70 94 
265 109 71 37 73 
266 95 85 48 96 
267 107 109 59 85 
268 82 94 40 93 
269 70 106 29 69 
270 106 51 82 105 
271 73 96 71 26 
272 70 18 93 69 
273 65 66 115 91 
274 116 61 92 62 
275 66 103 68 79 
276 104 64 80 62 
277 66 115 91 103 
278 103 66 115 79 
279 92 104 80 62 
280 116 92 80 62 
281 92 81 50 105 
282 60 115 107 83 
283 116 92 50 105 
284 60 115 83 91 
285 92 94 39 81 
286 49 91 83 95 
287 79 71 95 27 
288 80 70 17 94 
289 50 61 92 116 
290 65 115 60 91 
291 91 49 103 95 
292 39 104 94 92 
293 95 103 79 27 
294 17 80 94 104 
295 67 65 15 91 
296 63 92 11 61 
297 80 17 2 64 
298 79 68 6 27 
299 68 103 6 27 
300 64 17 2 104 
301 103 16 67 68 
302 104 12 64 63 
303 61 3 10 116 
304 3 11 92 61 
305 115 7 14 65 
306 65 7 15 91 
307 14 66 115 65 
308 10 61 116 62 
309 80 9 1 62 
310 66 13 5 79 
311 3 61 50 116 
312 61 92 3 50 
313 60 7 115 65 
314 60 7 65 91 
315 104 4 12 63 
316 67 8 16 103 
317 103 68 79 27 
318 64 80 17 104 
319 9 80 64 62 
320 68 13 66 79 
321 8 67 91 103 
322 4 104 92 63 
323 66 5 115 79 
324 116 80 1 62 
325 6 16 103 68 
326 68 6 13 79 
327 2 9 80 64 
328 64 2 12 104 
329 66 5 14 115 
330 1 10 116 62 
331 51 50 81 105 
332 60 107 59 83 
333 29 105 70 28 
334 94 40 39 81 
335 107 38 37 71 
336 83 48 49 95 
337 67 15 8 91 
338 11 4 92 63 
339 18 17 70 94 
340 95 71 26 27 
341 109 37 36 73 
342 109 58 59 85 
343 47 48 85 96 
344 25 96 73 26 
345 55 56 113 90 
346 93 18 19 69 
347 40 93 41 82 
348 53 52 87 110 
349 106 29 69 30 
350 24 25 101 77 
351 32 108 75 31 
352 74 20 19 98 
353 52 51 82 106 
354 54 53 86 108 
355 110 74 31 30 
356 98 42 41 87 
357 111 32 72 33 
358 78 33 34 113 
359 97 43 42 86 
360 75 21 20 97 
361 99 44 43 84 
362 84 54 111 55 
363 21 22 99 72 
364 88 46 47 101 
365 100 78 22 23 
366 114 35 34 76 
367 112 57 58 88 
368 114 56 57 89 
369 45 90 44 100 
370 23 24 102 76 
371 45 46 89 102 
372 36 35 112 77 
373 115 5 38 79 
374 1 80 116 28 
375 49 8 91 103 
376 39 4 104 92 
377 105 80 28 116 
378 105 28 80 70 
379 107 79 38 71 
380 38 79 107 115 
$EndElements
