$MeshFormat
4.1 0 8
$EndMeshFormat
$PhysicalNames
5
2 2 "x_min"
2 3 "x_max"
2 4 "y_min"
2 5 "z_min"
3 1 "domain"
$EndPhysicalNames
$Entities
8 12 6 1
1 0 0 1 0 
2 0 0 0 0 
3 0 1 1 0 
4 0 1 0 0 
5 8 0 1 0 
6 8 0 0 0 
7 8 1 1 0 
8 8 1 0 0 
1 -1e-07 -1e-07 -9.999999994736442e-08 1e-07 1e-07 1.0000001 0 2 2 -1 
2 -1e-07 -9.999999994736442e-08 0.9999999000000001 1e-07 1.0000001 1.0000001 0 2 1 -3 
3 -1e-07 0.9999999000000001 -9.999999994736442e-08 1e-07 1.0000001 1.0000001 0 2 4 -3 
4 -1e-07 -9.999999994736442e-08 -1e-07 1e-07 1.0000001 1e-07 0 2 2 -4 
5 7.9999999 -1e-07 -9.999999994736442e-08 8.000000099999999 1e-07 1.0000001 0 2 6 -5 
6 7.9999999 -9.999999994736442e-08 0.9999999000000001 8.000000099999999 1.0000001 1.0000001 0 2 5 -7 
7 7.9999999 0.9999999000000001 -9.999999994736442e-08 8.000000099999999 1.0000001 1.0000001 0 2 8 -7 
8 7.9999999 -9.999999994736442e-08 -1e-07 8.000000099999999 1.0000001 1e-07 0 2 6 -8 
9 -9.999999983634211e-08 -1e-07 -1e-07 8.000000099999999 1e-07 1e-07 0 2 2 -6 
10 -9.999999983634211e-08 -1e-07 0.9999999000000001 8.000000099999999 1e-07 1.0000001 0 2 1 -5 
11 -9.999999983634211e-08 0.9999999000000001 -1e-07 8.000000099999999 1.0000001 1e-07 0 2 4 -8 
12 -9.999999983634211e-08 0.9999999000000001 0.9999999000000001 8.000000099999999 1.0000001 1.0000001 0 2 3 -7 
1 -1e-07 -9.999999994736442e-08 -9.999999994736442e-08 1e-07 1.0000001 1.0000001 1 2 4 -1 4 3 -2 
2 7.9999999 -9.999999994736442e-08 -9.999999994736442e-08 8.000000099999999 1.0000001 1.0000001 1 3 4 -5 8 7 -6 
3 -9.999999983634211e-08 -1e-07 -9.999999994736442e-08 8.000000099999999 1e-07 1.0000001 1 4 4 -9 1 10 -5 
4 -9.999999983634211e-08 0.9999999000000001 -9.999999994736442e-08 8.000000099999999 1.0000001 1.0000001 0 4 -11 3 12 -7 
5 -9.999999983634211e-08 -9.999999994736442e-08 -1e-07 8.000000099999999 1.0000001 1e-07 1 5 4 -4 9 8 -11 
6 -9.999999983634211e-08 -9.999999994736442e-08 0.9999999000000001 8.000000099999999 1.0000001 1.0000001 0 4 -2 10 6 -12 
1 -9.999999983634211e-08 -9.999999994736442e-08 -9.999999994736442e-08 8.000000099999999 1.0000001 1.0000001 1 1 6 -1 2 -3 4 -5 6 
$EndEntities
$Nodes
27 597 1 597
0 1 0 1
1
0 0 1
0 2 0 1
2
0 0 0
0 3 0 1
3
0 1 1
0 4 0 1
4
0 1 0
0 5 0 1
5
8 0 1
0 6 0 1
6
8 0 0
0 7 0 1
7
8 1 1
0 8 0 1
8
8 1 0
1 1 0 3
9
10
11
0 0 0.4999999999999998
0 0 0.2499999999999999
0 0 0.7499999999999999
1 2 0 3
12
13
14
0 0.4999999999999998 1
0 0.2499999999999999 1
0 0.7499999999999999 1
1 3 0 3
15
16
17
0 1 0.4999999999999998
0 1 0.2499999999999999
0 1 0.7499999999999999
1 4 0 3
18
19
20
0 0.4999999999999998 0
0 0.2499999999999999 0
0 0.7499999999999999 0
1 5 0 3
21
22
23
8 0 0.4999999999999998
8 0 0.2499999999999999
8 0 0.7499999999999999
1 6 0 3
24
25
26
8 0.4999999999999998 1
8 0.2499999999999999 1
8 0.7499999999999999 1
1 7 0 3
27
28
29
8 1 0.4999999999999998
8 1 0.2499999999999999
8 1 0.7499999999999999
1 8 0 3
30
31
32
8 0.4999999999999998 0
8 0.2499999999999999 0
8 0.7499999999999999 0
1 9 0 23
33
34
35
36
37
38
39
40
41
42
43
44
45
46
47
48
49
50
51
52
53
54
55
0.6666666666666654 0 0
1.333333333333331 0 0
1.999999999999997 0 0
2.666666666666664 0 0
3.333333333333331 0 0
3.999999999999998 0 0
4.666666666666665 0 0
5.333333333333332 0 0
5.999999999999999 0 0
6.666666666666665 0 0
7.333333333333333 0 0
0.3333333333333327 0 0
0.999999999999998 0 0
1.666666666666664 0 0
2.333333333333331 0 0
2.999999999999997 0 0
3.666666666666664 0 0
4.333333333333332 0 0
4.999999999999998 0 0
5.666666666666666 0 0
6.333333333333332 0 0
6.999999999999999 0 0
7.666666666666666 0 0
1 10 0 23
56
57
58
59
60
61
62
63
64
65
66
67
68
69
70
71
72
73
74
75
76
77
78
0.6666666666666654 0 1
1.333333333333331 0 1
1.999999999999997 0 1
2.666666666666664 0 1
3.333333333333331 0 1
3.999999999999998 0 1
4.666666666666665 0 1
5.333333333333332 0 1
5.999999999999999 0 1
6.666666666666665 0 1
7.333333333333333 0 1
0.3333333333333327 0 1
0.999999999999998 0 1
1.666666666666664 0 1
2.333333333333331 0 1
2.999999999999997 0 1
3.666666666666664 0 1
4.333333333333332 0 1
4.999999999999998 0 1
5.666666666666666 0 1
6.333333333333332 0 1
6.999999999999999 0 1
7.666666666666666 0 1
1 11 0 23
79
80
81
82
83
84
85
86
87
88
89
90
91
92
93
94
95
96
97
98
99
100
101
0.6666666666666654 1 0
1.333333333333331 1 0
1.999999999999997 1 0
2.666666666666664 1 0
3.333333333333331 1 0
3.999999999999998 1 0
4.666666666666665 1 0
5.333333333333332 1 0
5.999999999999999 1 0
6.666666666666665 1 0
7.333333333333333 1 0
0.3333333333333327 1 0
0.999999999999998 1 0
1.666666666666664 1 0
2.333333333333331 1 0
2.999999999999997 1 0
3.666666666666664 1 0
4.333333333333332 1 0
4.999999999999998 1 0
5.666666666666666 1 0
6.333333333333332 1 0
6.999999999999999 1 0
7.666666666666666 1 0
1 12 0 23
102
103
104
105
106
107
108
109
110
111
112
113
114
115
116
117
118
119
120
121
122
123
124
0.6666666666666654 1 1
1.333333333333331 1 1
1.999999999999997 1 1
2.666666666666664 1 1
3.333333333333331 1 1
3.999999999999998 1 1
4.666666666666665 1 1
5.333333333333332 1 1
5.999999999999999 1 1
6.666666666666665 1 1
7.333333333333333 1 1
0.3333333333333327 1 1
0.999999999999998 1 1
1.666666666666664 1 1
2.333333333333331 1 1
2.999999999999997 1 1
3.666666666666664 1 1
4.333333333333332 1 1
4.999999999999998 1 1
5.666666666666666 1 1
6.333333333333332 1 1
6.999999999999999 1 1
7.666666666666666 1 1
2 1 0 21
125
126
127
128
129
130
131
132
133
134
135
136
137
138
139
140
141
142
143
144
145
0 0.7386115160349854 0.7386115160349854
0 0.3750000000000001 0.6249999999999999
0 0.6491435860058308 0.3574769193391641
0 0.2812500000000001 0.2812500000000001
0 0.1875 0.8125
0 0.1875 0.5624999999999998
0 0.4374999999999999 0.8125
0 0.140625 0.3906249999999999
0 0.140625 0.140625
0 0.3906249999999999 0.140625
0 0.8693057580174928 0.8693057580174928
0 0.6193057580174925 0.8693057580174928
0 0.8693057580174928 0.6193057580174925
0 0.8245717930029154 0.1787384596695821
0 0.8245717930029154 0.428738459669582
0 0.5745717930029153 0.1787384596695821
0 0.3281250000000001 0.453125
0 0.5568057580174928 0.6818057580174927
0 0.693877551020408 0.5480442176870748
0 0.4651967930029154 0.3193634596695821
0 0.5120717930029154 0.491238459669582
2 2 0 21
146
147
148
149
150
151
152
153
154
155
156
157
158
159
160
161
162
163
164
165
166
8 0.7386115160349854 0.7386115160349854
8 0.3750000000000001 0.6249999999999999
8 0.6491435860058308 0.3574769193391641
8 0.2812500000000001 0.2812500000000001
8 0.1875 0.5624999999999998
8 0.1875 0.8125
8 0.4374999999999999 0.8125
8 0.140625 0.140625
8 0.140625 0.3906249999999999
8 0.3906249999999999 0.140625
8 0.6193057580174925 0.8693057580174928
8 0.8693057580174928 0.8693057580174928
8 0.8693057580174928 0.6193057580174925
8 0.8245717930029154 0.428738459669582
8 0.8245717930029154 0.1787384596695821
8 0.5745717930029153 0.1787384596695821
8 0.3281250000000001 0.453125
8 0.5568057580174928 0.6818057580174927
8 0.693877551020408 0.5480442176870748
8 0.4651967930029154 0.3193634596695821
8 0.5120717930029154 0.491238459669582
2 3 0 73
167
168
169
170
171
172
173
174
175
176
177
178
179
180
181
182
183
184
185
186
187
188
189
190
191
192
193
194
195
196
197
198
199
200
201
202
203
204
205
206
207
208
209
210
211
212
213
214
215
216
217
218
219
220
221
222
223
224
225
226
227
228
229
230
231
232
233
234
235
236
237
238
239
1.666666666666664 0 0.5
1.014172335600905 0 0.4976379440665154
6.985827664399092 0 0.4976379440665157
3.666666666666665 0 0.4999999999999999
6.333333333333327 0 0.5
2.333333333333331 0 0.5
2.999999999999998 0 0.5
4.999999999999998 0 0.5
5.666666666666666 0 0.5
4.333333333333332 0 0.4999999999999998
7.500000000000001 0 0.4722222222222242
0.499999999999999 0 0.4722222222222213
0.2499999999999995 0 0.4861111111111105
0.2499999999999995 0 0.7361111111111107
0.5833333333333321 0 0.7361111111111107
0.2499999999999995 0 0.2361111111111107
0.5833333333333321 0 0.2361111111111107
7.75 0 0.736111111111112
7.75 0 0.486111111111112
7.416666666666667 0 0.736111111111112
7.75 0 0.2361111111111121
7.416666666666667 0 0.2361111111111121
1.173752834467118 0 0.2488189720332577
0.8404195011337853 0 0.2488189720332577
0.7570861678004521 0 0.4849300831443684
1.833333333333331 0 0.25
1.499999999999998 0 0.25
1.340419501133785 0 0.4988189720332577
2.499999999999997 0 0.25
2.166666666666664 0 0.25
1.999999999999998 0 0.5
3.166666666666664 0 0.25
2.833333333333331 0 0.25
2.666666666666664 0 0.5
3.833333333333331 0 0.2499999999999999
3.499999999999998 0 0.2499999999999999
3.333333333333331 0 0.4999999999999999
4.499999999999998 0 0.2499999999999999
4.166666666666665 0 0.2499999999999999
3.999999999999998 0 0.4999999999999998
5.166666666666665 0 0.25
4.833333333333332 0 0.25
4.666666666666665 0 0.4999999999999999
5.833333333333332 0 0.25
5.499999999999999 0 0.25
5.333333333333332 0 0.5
6.499999999999996 0 0.25
6.166666666666663 0 0.25
5.999999999999996 0 0.5
7.159580498866212 0 0.2488189720332578
6.826247165532878 0 0.2488189720332578
6.659580498866209 0 0.4988189720332579
7.242913832199546 0 0.4849300831443699
0.8404195011337853 0 0.7488189720332576
1.173752834467118 0 0.7488189720332576
1.499999999999998 0 0.75
1.833333333333331 0 0.75
2.166666666666664 0 0.75
2.499999999999997 0 0.75
2.833333333333331 0 0.75
3.166666666666664 0 0.75
3.499999999999998 0 0.75
3.833333333333331 0 0.75
4.166666666666665 0 0.7499999999999999
4.499999999999998 0 0.7499999999999999
4.833333333333332 0 0.75
5.166666666666665 0 0.75
5.499999999999999 0 0.75
5.833333333333332 0 0.75
6.166666666666663 0 0.75
6.499999999999996 0 0.75
6.826247165532878 0 0.7488189720332579
7.159580498866212 0 0.7488189720332579
2 4 0 73
240
241
242
243
244
245
246
247
248
249
250
251
252
253
254
255
256
257
258
259
260
261
262
263
264
265
266
267
268
269
270
271
272
273
274
275
276
277
278
279
280
281
282
283
284
285
286
287
288
289
290
291
292
293
294
295
296
297
298
299
300
301
302
303
304
305
306
307
308
309
310
311
312
1.014172335600905 1 0.4976379440665154
1.666666666666664 1 0.5
6.985827664399092 1 0.4976379440665157
3.666666666666664 1 0.5
6.333333333333327 1 0.5
2.999999999999997 1 0.5
2.333333333333331 1 0.5
5.666666666666666 1 0.5
4.999999999999998 1 0.5
4.333333333333332 1 0.5
7.500000000000001 1 0.4722222222222242
0.499999999999999 1 0.4722222222222213
0.2499999999999995 1 0.7361111111111107
0.2499999999999995 1 0.4861111111111105
0.5833333333333321 1 0.7361111111111107
0.2499999999999995 1 0.2361111111111107
0.5833333333333321 1 0.2361111111111107
7.75 1 0.486111111111112
7.75 1 0.736111111111112
7.416666666666667 1 0.736111111111112
7.75 1 0.2361111111111121
7.416666666666667 1 0.2361111111111121
0.8404195011337853 1 0.2488189720332577
1.173752834467118 1 0.2488189720332577
0.7570861678004521 1 0.4849300831443684
1.499999999999998 1 0.25
1.833333333333331 1 0.25
1.340419501133785 1 0.4988189720332577
2.166666666666664 1 0.25
2.499999999999997 1 0.25
1.999999999999998 1 0.5
2.833333333333331 1 0.25
3.166666666666664 1 0.25
2.666666666666664 1 0.5
3.499999999999997 1 0.25
3.833333333333331 1 0.25
3.333333333333331 1 0.5
4.166666666666665 1 0.25
4.499999999999998 1 0.25
3.999999999999998 1 0.5
4.833333333333332 1 0.25
5.166666666666665 1 0.25
4.666666666666665 1 0.5
5.499999999999999 1 0.25
5.833333333333332 1 0.25
5.333333333333332 1 0.5
6.166666666666663 1 0.25
6.499999999999996 1 0.25
5.999999999999996 1 0.5
6.826247165532878 1 0.2488189720332578
7.159580498866212 1 0.2488189720332578
6.659580498866209 1 0.4988189720332579
7.242913832199546 1 0.4849300831443699
1.173752834467118 1 0.7488189720332576
0.8404195011337853 1 0.7488189720332576
1.833333333333331 1 0.75
1.499999999999998 1 0.75
2.499999999999997 1 0.75
2.166666666666664 1 0.75
3.166666666666664 1 0.75
2.833333333333331 1 0.75
3.833333333333331 1 0.75
3.499999999999997 1 0.75
4.499999999999998 1 0.75
4.166666666666665 1 0.75
5.166666666666665 1 0.75
4.833333333333332 1 0.75
5.833333333333332 1 0.75
5.499999999999999 1 0.75
6.499999999999996 1 0.75
6.166666666666663 1 0.75
7.159580498866212 1 0.7488189720332579
6.826247165532878 1 0.7488189720332579
2 5 0 73
313
314
315
316
317
318
319
320
321
322
323
324
325
326
327
328
329
330
331
332
333
334
335
336
337
338
339
340
341
342
343
344
345
346
347
348
349
350
351
352
353
354
355
356
357
358
359
360
361
362
363
364
365
366
367
368
369
370
371
372
373
374
375
376
377
378
379
380
381
382
383
384
385
1.666666666666664 0.5 0
1.014172335600905 0.4976379440665154 0
6.985827664399092 0.4976379440665157 0
6.333333333333327 0.5 0
2.999999999999998 0.5 0
2.333333333333331 0.5 0
3.666666666666664 0.5 0
4.333333333333331 0.5 0
5.666666666666666 0.5 0
4.999999999999998 0.5 0
7.500000000000001 0.4722222222222251 0
0.4999999999999991 0.4722222222222214 0
0.2499999999999995 0.4861111111111106 0
0.2499999999999995 0.2361111111111107 0
0.5833333333333323 0.2361111111111107 0
0.2499999999999995 0.7361111111111107 0
0.5833333333333323 0.7361111111111107 0
7.75 0.2361111111111125 0
7.75 0.4861111111111124 0
7.416666666666667 0.2361111111111125 0
7.75 0.7361111111111125 0
7.416666666666667 0.7361111111111125 0
0.8404195011337853 0.2488189720332577 0
1.173752834467118 0.2488189720332577 0
0.7570861678004521 0.4849300831443684 0
1.499999999999998 0.25 0
1.833333333333331 0.25 0
1.340419501133785 0.4988189720332577 0
2.166666666666664 0.25 0
2.499999999999997 0.25 0
1.999999999999998 0.5 0
2.833333333333331 0.25 0
3.166666666666664 0.25 0
2.666666666666664 0.5 0
3.499999999999997 0.25 0
3.833333333333331 0.25 0
3.333333333333331 0.5 0
4.166666666666664 0.25 0
4.499999999999998 0.25 0
3.999999999999998 0.5 0
4.833333333333332 0.25 0
5.166666666666665 0.25 0
4.666666666666664 0.5 0
5.499999999999999 0.25 0
5.833333333333332 0.25 0
5.333333333333332 0.5 0
6.166666666666663 0.25 0
6.499999999999996 0.25 0
5.999999999999996 0.5 0
6.826247165532878 0.2488189720332579 0
7.159580498866212 0.2488189720332579 0
6.659580498866209 0.4988189720332579 0
7.242913832199546 0.4849300831443704 0
1.173752834467118 0.7488189720332576 0
0.8404195011337853 0.7488189720332576 0
1.833333333333331 0.75 0
1.499999999999998 0.75 0
2.499999999999997 0.75 0
2.166666666666664 0.75 0
3.166666666666664 0.75 0
2.833333333333331 0.75 0
3.833333333333331 0.75 0
3.499999999999997 0.75 0
4.499999999999998 0.75 0
4.166666666666664 0.75 0
5.166666666666665 0.75 0
4.833333333333332 0.75 0
5.833333333333332 0.75 0
5.499999999999999 0.75 0
6.499999999999996 0.75 0
6.166666666666663 0.75 0
7.159580498866212 0.7488189720332579 0
6.826247165532878 0.7488189720332579 0
2 6 0 73
386
387
388
389
390
391
392
393
394
395
396
397
398
399
400
401
402
403
404
405
406
407
408
409
410
411
412
413
414
415
416
417
418
419
420
421
422
423
424
425
426
427
428
429
430
431
432
433
434
435
436
437
438
439
440
441
442
443
444
445
446
447
448
449
450
451
452
453
454
455
456
457
458
1.014172335600905 0.4976379440665154 1
1.666666666666664 0.5000000000000002 1
6.985827664399092 0.4976379440665157 1
2.999999999999998 0.5 1
6.333333333333327 0.5 1
2.333333333333331 0.5 1
3.666666666666664 0.5 1
5.666666666666666 0.5 1
4.333333333333331 0.5 1
4.999999999999998 0.5 1
7.500000000000001 0.4722222222222251 1
0.4999999999999991 0.4722222222222214 1
0.2499999999999995 0.2361111111111107 1
0.2499999999999995 0.4861111111111106 1
0.5833333333333323 0.2361111111111107 1
0.2499999999999995 0.7361111111111107 1
0.5833333333333323 0.7361111111111107 1
7.75 0.4861111111111124 1
7.75 0.2361111111111125 1
7.416666666666667 0.2361111111111125 1
7.75 0.7361111111111125 1
7.416666666666667 0.7361111111111125 1
1.173752834467118 0.2488189720332577 1
0.8404195011337853 0.2488189720332577 1
0.7570861678004521 0.4849300831443684 1
1.833333333333331 0.2500000000000001 1
1.499999999999998 0.2500000000000001 1
1.340419501133785 0.4988189720332578 1
2.499999999999997 0.25 1
2.166666666666664 0.25 1
1.999999999999998 0.5000000000000001 1
3.166666666666664 0.25 1
2.833333333333331 0.25 1
2.666666666666664 0.5 1
3.833333333333331 0.25 1
3.499999999999997 0.25 1
3.333333333333331 0.5 1
4.499999999999998 0.25 1
4.166666666666664 0.25 1
3.999999999999998 0.5 1
5.166666666666665 0.25 1
4.833333333333332 0.25 1
4.666666666666664 0.5 1
5.833333333333332 0.25 1
5.499999999999999 0.25 1
5.333333333333332 0.5 1
6.499999999999996 0.25 1
6.166666666666663 0.25 1
5.999999999999996 0.5 1
7.159580498866212 0.2488189720332579 1
6.826247165532878 0.2488189720332579 1
6.659580498866209 0.4988189720332579 1
7.242913832199546 0.4849300831443704 1
0.8404195011337853 0.7488189720332576 1
1.173752834467118 0.7488189720332576 1
1.499999999999998 0.7500000000000001 1
1.833333333333331 0.7500000000000001 1
2.166666666666664 0.75 1
2.499999999999997 0.75 1
2.833333333333331 0.75 1
3.166666666666664 0.75 1
3.499999999999997 0.75 1
3.833333333333331 0.75 1
4.166666666666664 0.75 1
4.499999999999998 0.75 1
4.833333333333332 0.75 1
5.166666666666665 0.75 1
5.499999999999999 0.75 1
5.833333333333332 0.75 1
6.166666666666663 0.75 1
6.499999999999996 0.75 1
6.826247165532878 0.7488189720332579 1
7.159580498866212 0.7488189720332579 1
3 1 0 139
459
460
461
462
463
464
465
466
467
468
469
470
471
472
473
474
475
476
477
478
479
480
481
482
483
484
485
486
487
488
489
490
491
492
493
494
495
496
497
498
499
500
501
502
503
504
505
506
507
508
509
510
511
512
513
514
515
516
517
518
519
520
521
522
523
524
525
526
527
528
529
530
531
532
533
534
535
536
537
538
539
540
541
542
543
544
545
546
547
548
549
550
551
552
553
554
555
556
557
558
559
560
561
562
563
564
565
566
567
568
569
570
571
572
573
574
575
576
577
578
579
580
581
582
583
584
585
586
587
588
589
590
591
592
593
594
595
596
597
1.014172335600905 0.5 0.4976379440665154
1.340419501133785 0.5 0.4988189720332577
1.014172335600905 0.7488189720332576 0.7488189720332576
1.340419501133785 0.7488189720332576 0.75
1.014172335600905 0.2488189720332577 0.7488189720332576
1.014172335600905 0.2488189720332577 0.2488189720332577
1.340419501133785 0.7488189720332576 0.25
1.014172335600905 0.7488189720332576 0.2488189720332577
6.985827664399092 0.7488189720332579 0.7488189720332579
6.659580498866209 0.7488189720332579 0.75
6.985827664399092 0.7488189720332579 0.2488189720332578
6.659580498866209 0.7488189720332579 0.25
6.985827664399092 0.4976379440665157 0.5
6.659580498866209 0.4988189720332579 0.5
6.985827664399092 0.2488189720332579 0.7488189720332579
6.985827664399092 0.2488189720332579 0.2488189720332578
6.659580498866209 0.25 0.7488189720332579
6.659580498866209 0.25 0.2488189720332578
6.333333333333327 0.5 0.5
6.333333333333327 0.75 0.75
1.666666666666664 0.75 0.25
1.340419501133785 0.25 0.2488189720332577
1.340419501133785 0.2500000000000001 0.7488189720332576
1.666666666666664 0.7500000000000001 0.75
5.999999999999996 0.75 0.75
5.999999999999996 0.75 0.25
6.333333333333327 0.75 0.25
5.999999999999996 0.25 0.25
5.999999999999996 0.25 0.75
6.333333333333327 0.25 0.75
6.333333333333327 0.25 0.25
5.666666666666666 0.75 0.25
5.999999999999996 0.5 0.5
5.666666666666666 0.25 0.25
2.666666666666664 0.75 0.25
2.333333333333331 0.75 0.25
2.666666666666664 0.5 0.5
2.666666666666664 0.75 0.75
2.999999999999997 0.75 0.75
2.333333333333331 0.5 0.5
2.666666666666664 0.25 0.75
2.333333333333331 0.25 0.25
2.333333333333331 0.75 0.75
2.333333333333331 0.25 0.75
1.666666666666664 0.5000000000000001 0.5
1.999999999999998 0.2500000000000001 0.75
1.999999999999998 0.25 0.25
1.999999999999998 0.5 0.5
1.666666666666664 0.2500000000000001 0.75
1.666666666666664 0.25 0.25
2.999999999999997 0.75 0.25
2.999999999999998 0.5 0.5
1.999999999999998 0.75 0.25
2.666666666666664 0.25 0.25
1.999999999999998 0.75 0.75
2.999999999999998 0.25 0.25
2.999999999999998 0.25 0.75
3.333333333333331 0.5 0.5
3.333333333333331 0.25 0.75
4.333333333333332 0.25 0.7499999999999999
3.999999999999998 0.25 0.7499999999999999
4.333333333333331 0.5 0.5
3.999999999999998 0.5 0.5
4.333333333333332 0.25 0.2499999999999999
4.666666666666665 0.25 0.2499999999999999
4.666666666666664 0.5 0.5
3.333333333333331 0.75 0.25
3.333333333333331 0.75 0.75
3.666666666666664 0.75 0.75
4.333333333333332 0.75 0.75
3.999999999999998 0.75 0.75
4.333333333333332 0.75 0.25
3.666666666666664 0.25 0.75
3.666666666666664 0.5 0.4999999999999999
3.999999999999998 0.75 0.25
3.999999999999998 0.25 0.2499999999999999
3.333333333333331 0.25 0.2499999999999999
3.666666666666664 0.75 0.25
3.666666666666664 0.25 0.2499999999999999
4.666666666666664 0.75 0.75
4.999999999999998 0.75 0.25
4.999999999999998 0.75 0.75
4.999999999999998 0.5 0.5
4.999999999999998 0.25 0.25
4.666666666666664 0.25 0.75
4.999999999999998 0.25 0.75
5.333333333333332 0.75 0.75
5.333333333333332 0.5 0.5
5.333333333333332 0.25 0.75
5.666666666666666 0.75 0.75
5.333333333333332 0.75 0.25
5.333333333333332 0.25 0.25
5.666666666666666 0.25 0.75
5.666666666666666 0.5 0.5
4.666666666666665 0.75 0.25
0.7570861678004521 0.5 0.4849300831443684
0.7570861678004521 0.7488189720332576 0.2361111111111107
0.7570861678004521 0.7488189720332576 0.7361111111111107
7.242913832199546 0.7361111111111125 0.7488189720332579
7.242913832199546 0.4849300831443704 0.5
7.242913832199546 0.2488189720332579 0.736111111111112
7.242913832199546 0.2488189720332579 0.2361111111111121
7.75 0.6875 0.548611111111112
7.75 0.8245717930029154 0.4148495707806942
7.75 0.8693057580174928 0.6054168691286048
0.2499999999999995 0.8245717930029154 0.4148495707806927
0.2499999999999995 0.8693057580174928 0.6054168691286034
0.2499999999999995 0.6875 0.5486111111111106
0.499999999999999 0.5 0.4722222222222213
0.7570861678004521 0.2488189720332577 0.7361111111111107
0.7570861678004521 0.2488189720332577 0.2361111111111107
7.500000000000001 0.2361111111111125 0.736111111111112
7.500000000000001 0.7361111111111125 0.736111111111112
7.242913832199546 0.7488189720332579 0.2361111111111121
7.75 0.560682904114028 0.1787384596695821
7.75 0.4236111111111126 0.3124999999999999
7.75 0.3767361111111126 0.140625
0.2499999999999995 0.3767361111111107 0.140625
0.2499999999999995 0.5606829041140261 0.1787384596695821
0.2499999999999995 0.4236111111111107 0.3124999999999999
7.500000000000001 0.4722222222222251 0.5
7.500000000000001 0.2361111111111125 0.2361111111111121
7.500000000000001 0.7361111111111125 0.2361111111111121
0.499999999999999 0.7361111111111107 0.7361111111111107
0.499999999999999 0.2361111111111107 0.7361111111111107
0.499999999999999 0.2361111111111107 0.2361111111111107
0.499999999999999 0.7361111111111107 0.2361111111111107
7.75 0.4236111111111126 0.8125
7.75 0.6054168691286053 0.8693057580174928
0.2499999999999995 0.6054168691286035 0.8693057580174928
0.2499999999999995 0.4236111111111107 0.8125
7.75 0.1875 0.548611111111112
7.75 0.140625 0.3767361111111122
0.2499999999999995 0.140625 0.3767361111111107
0.2499999999999995 0.1875 0.5486111111111106
0.3333333333333327 0.8693057580174928 0.8693057580174928
7.666666666666666 0.8693057580174928 0.8693057580174928
0.3333333333333327 0.140625 0.140625
7.666666666666666 0.140625 0.140625
$EndNodes
$Elements
5 380 1 380
2 1 9 14
1 9 1 126 11 129 130 
2 1 12 126 13 131 129 
3 2 9 128 10 132 133 
4 18 2 128 19 133 134 
5 12 3 125 14 135 136 
6 3 15 125 17 137 135 
7 15 4 127 16 138 139 
8 4 18 127 20 140 138 
9 9 126 128 130 141 132 
10 12 125 126 136 142 131 
11 125 15 127 137 139 143 
12 127 18 128 140 134 144 
13 126 125 127 142 143 145 
14 126 127 128 145 144 141 
2 2 9 14
15 21 147 5 150 151 23 
16 5 147 24 151 152 25 
17 6 149 21 153 154 22 
18 30 149 6 155 153 31 
19 24 146 7 156 157 26 
20 7 146 27 157 158 29 
21 27 148 8 159 160 28 
22 8 148 30 160 161 32 
23 21 149 147 154 162 150 
24 24 147 146 152 163 156 
25 146 148 27 164 159 158 
26 148 149 30 165 155 161 
27 147 148 146 166 164 163 
28 147 149 148 162 165 166 
2 3 9 50
29 1 9 178 11 179 180 
30 56 1 178 67 180 181 
31 9 2 178 10 182 179 
32 2 33 178 44 183 182 
33 21 5 177 23 184 185 
34 5 66 177 78 186 184 
35 6 21 177 22 185 187 
36 43 6 177 55 187 188 
37 33 34 168 45 189 190 
38 33 168 178 190 191 183 
39 34 35 167 46 192 193 
40 34 167 168 193 194 189 
41 35 36 172 47 195 196 
42 167 35 172 192 196 197 
43 36 37 173 48 198 199 
44 172 36 173 195 199 200 
45 37 38 170 49 201 202 
46 37 170 173 202 203 198 
47 38 39 176 50 204 205 
48 170 38 176 201 205 206 
49 39 40 174 51 207 208 
50 39 174 176 208 209 204 
51 40 41 175 52 210 211 
52 174 40 175 207 211 212 
53 41 42 171 53 213 214 
54 41 171 175 214 215 210 
55 42 43 169 54 216 217 
56 42 169 171 217 218 213 
57 169 43 177 216 188 219 
58 57 56 168 68 220 221 
59 168 56 178 220 181 191 
60 58 57 167 69 222 223 
61 167 57 168 222 221 194 
62 59 58 172 70 224 225 
63 58 167 172 223 197 224 
64 60 59 173 71 226 227 
65 59 172 173 225 200 226 
66 61 60 170 72 228 229 
67 170 60 173 228 227 203 
68 62 61 176 73 230 231 
69 61 170 176 229 206 230 
70 63 62 174 74 232 233 
71 174 62 176 232 231 209 
72 64 63 175 75 234 235 
73 63 174 175 233 212 234 
74 65 64 171 76 236 237 
75 171 64 175 236 235 215 
76 66 65 169 77 238 239 
77 169 65 171 238 237 218 
78 66 169 177 239 219 186 
2 5 9 50
79 2 18 324 19 325 326 
80 33 2 324 44 326 327 
81 18 4 324 20 328 325 
82 4 79 324 90 329 328 
83 30 6 323 31 330 331 
84 6 43 323 55 332 330 
85 8 30 323 32 331 333 
86 89 8 323 101 333 334 
87 34 33 314 45 335 336 
88 314 33 324 335 327 337 
89 35 34 313 46 338 339 
90 313 34 314 338 336 340 
91 36 35 318 47 341 342 
92 35 313 318 339 343 341 
93 37 36 317 48 344 345 
94 317 36 318 344 342 346 
95 38 37 319 49 347 348 
96 37 317 319 345 349 347 
97 39 38 320 50 350 351 
98 38 319 320 348 352 350 
99 40 39 322 51 353 354 
100 39 320 322 351 355 353 
101 41 40 321 52 356 357 
102 321 40 322 356 354 358 
103 42 41 316 53 359 360 
104 316 41 321 359 357 361 
105 43 42 315 54 362 363 
106 315 42 316 362 360 364 
107 43 315 323 363 365 332 
108 79 80 314 91 366 367 
109 79 314 324 367 337 329 
110 80 81 313 92 368 369 
111 80 313 314 369 340 366 
112 81 82 318 93 370 371 
113 313 81 318 368 371 343 
114 82 83 317 94 372 373 
115 82 317 318 373 346 370 
116 83 84 319 95 374 375 
117 317 83 319 372 375 349 
118 84 85 320 96 376 377 
119 319 84 320 374 377 352 
120 85 86 322 97 378 379 
121 320 85 322 376 379 355 
122 86 87 321 98 380 381 
123 86 321 322 381 358 378 
124 87 88 316 99 382 383 
125 87 316 321 383 361 380 
126 88 89 315 100 384 385 
127 88 315 316 385 364 382 
128 315 89 323 384 334 365 
3 1 11 252
129 240 168 241 386 459 460 267 461 462 463 
130 168 240 241 314 459 267 460 464 465 466 
131 242 388 244 315 467 468 291 469 470 471 
132 388 390 315 169 437 472 471 473 474 475 
133 169 316 390 315 476 477 475 474 472 364 
134 388 390 244 315 437 478 468 471 470 472 
135 241 168 314 313 460 464 465 479 340 480 
136 241 168 387 386 460 481 482 462 413 463 
137 247 244 390 316 288 478 483 484 477 485 
138 175 316 390 171 486 477 487 215 488 489 
139 321 247 390 316 490 483 491 361 477 484 
140 316 175 390 321 486 487 477 361 491 492 
141 318 245 246 389 493 273 494 495 496 497 
142 172 246 389 318 498 496 499 500 495 494 
143 246 172 389 391 498 499 496 501 419 502 
144 313 387 172 241 503 504 505 479 506 482 
145 387 313 172 167 503 505 504 507 197 508 
146 245 318 317 389 493 346 509 497 510 495 
147 318 313 172 241 343 505 500 511 506 479 
148 172 317 318 389 512 346 500 499 495 510 
149 246 241 172 391 270 506 498 501 502 513 
150 241 172 318 246 506 500 511 270 494 498 
151 172 173 317 389 200 514 512 499 510 515 
152 391 241 172 387 513 506 502 416 504 482 
153 389 173 317 392 515 514 510 422 516 517 
154 394 176 392 320 518 519 425 520 521 522 
155 322 176 394 320 523 518 524 355 520 522 
156 317 243 389 392 525 526 510 516 422 527 
157 249 394 392 320 528 425 529 530 521 520 
158 392 170 243 320 531 532 527 521 533 534 
159 170 317 173 392 535 514 203 531 517 516 
160 317 319 243 170 349 536 525 535 532 537 
161 170 392 176 320 531 519 206 534 522 521 
162 243 317 170 392 525 535 532 527 531 516 
163 317 243 245 389 525 276 509 510 497 526 
164 248 394 322 395 538 524 539 540 541 428 
165 322 395 394 174 541 428 524 542 543 544 
166 170 319 243 320 537 536 532 534 533 352 
167 248 393 395 322 545 431 540 539 541 546 
168 249 392 243 320 529 527 279 530 533 521 
169 322 393 395 174 546 431 541 542 544 547 
170 393 248 247 322 545 285 548 546 549 539 
171 393 322 175 174 546 550 551 547 212 542 
172 321 247 322 175 490 549 358 492 550 552 
173 247 393 322 175 548 546 549 552 550 551 
174 322 394 176 174 524 518 523 542 209 543 
175 394 249 322 320 528 553 524 520 355 530 
176 394 248 322 249 538 539 524 528 553 282 
177 390 393 247 175 434 548 483 487 552 551 
178 321 390 247 175 491 483 490 492 552 487 
179 316 169 390 171 476 475 477 489 488 218 
180 316 390 315 244 477 472 364 485 470 478 
181 168 241 387 313 460 482 481 480 503 479 
182 387 168 313 167 481 480 503 507 508 194 
183 251 168 314 240 554 464 555 264 466 459 
184 240 251 168 386 264 554 459 461 463 556 
185 242 396 388 315 557 438 467 469 471 558 
186 169 315 388 177 474 471 473 219 559 560 
187 147 146 148 250 163 164 166 561 562 563 
188 125 127 251 126 143 564 565 142 566 145 
189 251 178 168 386 567 191 554 556 463 568 
190 314 178 168 251 569 191 464 555 554 567 
191 315 396 388 177 558 438 471 560 559 570 
192 396 242 250 315 557 292 571 558 572 469 
193 323 148 147 149 573 166 574 575 162 165 
194 128 324 127 126 576 577 144 141 145 578 
195 315 323 396 177 365 579 558 560 570 580 
196 323 396 250 315 579 571 581 365 572 558 
197 178 251 397 386 567 582 583 568 410 556 
198 178 314 324 251 569 337 584 567 585 555 
199 250 148 147 323 562 166 561 581 574 573 
200 324 251 127 126 585 564 577 578 145 566 
201 176 392 61 394 519 420 230 518 424 425 
202 389 105 246 391 445 297 496 419 501 444 
203 105 246 245 389 297 273 300 445 497 496 
204 391 104 241 387 443 295 513 416 482 442 
205 167 172 387 58 197 504 507 223 411 224 
206 107 394 392 249 449 425 448 304 529 528 
207 391 172 389 59 502 499 419 414 418 225 
208 172 173 36 317 200 199 195 512 344 514 
209 36 172 317 318 195 512 344 342 346 500 
210 172 173 389 59 200 515 499 225 418 226 
211 313 35 172 167 339 196 505 508 197 192 
212 173 389 60 392 515 417 227 517 421 422 
213 313 318 81 241 343 371 368 479 266 511 
214 241 318 81 246 511 371 266 270 268 494 
215 241 246 104 391 270 298 295 513 443 501 
216 170 392 61 176 531 420 229 206 230 519 
217 107 392 243 249 448 527 301 304 279 529 
218 109 393 248 247 453 545 305 308 285 548 
219 86 247 322 321 283 549 378 381 358 490 
220 175 63 393 174 234 430 551 212 547 233 
221 322 40 175 174 354 211 550 542 212 207 
222 313 172 35 318 505 196 339 343 341 500 
223 40 321 322 175 356 358 354 211 550 492 
224 317 173 37 170 514 198 345 535 202 203 
225 82 318 245 246 370 493 271 269 273 494 
226 172 391 387 58 502 416 504 224 411 415 
227 86 247 248 322 283 285 281 378 539 549 
228 109 393 395 248 453 431 452 305 540 545 
229 63 395 393 174 426 431 430 233 547 544 
230 82 318 317 245 370 346 373 271 509 493 
231 319 84 243 320 374 275 536 352 533 377 
232 60 170 173 392 228 203 227 421 517 531 
233 249 243 84 320 279 275 277 530 377 533 
234 62 176 394 174 231 518 423 232 543 209 
235 319 317 37 170 349 345 347 537 202 535 
236 317 319 83 243 349 375 372 525 274 536 
237 394 108 248 249 450 306 538 528 282 303 
238 170 38 319 320 201 348 537 534 352 350 
239 108 395 394 248 451 428 450 306 538 540 
240 83 317 243 245 372 525 274 272 276 509 
241 106 245 243 389 299 276 302 446 526 497 
242 38 170 176 320 201 206 205 350 522 534 
243 243 106 389 392 302 446 526 527 422 447 
244 244 390 110 247 478 455 310 288 307 483 
245 244 247 87 316 288 284 286 485 383 484 
246 394 395 62 174 428 427 423 543 232 544 
247 175 41 316 171 210 359 486 215 489 214 
248 175 390 64 171 487 433 235 215 236 488 
249 39 322 176 174 353 523 204 208 209 542 
250 248 249 85 322 282 278 280 539 379 553 
251 320 322 176 39 355 523 522 351 204 353 
252 249 85 322 320 278 379 553 530 355 376 
253 390 393 110 247 434 454 455 483 307 548 
254 321 87 247 316 380 284 490 361 484 383 
255 393 390 64 175 434 433 429 551 235 487 
256 41 316 321 175 359 361 357 210 492 486 
257 244 111 388 242 309 457 468 291 467 312 
258 103 240 241 386 293 267 296 440 462 461 
259 244 315 88 242 470 385 287 291 289 469 
260 169 390 65 388 475 432 238 473 436 437 
261 314 241 80 240 465 265 366 466 263 267 
262 387 168 57 386 481 221 412 413 408 463 
263 316 315 169 42 364 474 476 360 217 362 
264 313 34 168 314 338 189 480 340 464 336 
265 390 169 65 171 475 238 432 488 237 218 
266 315 244 88 316 470 287 385 364 382 485 
267 388 390 111 244 437 456 457 468 309 478 
268 241 314 80 313 465 366 265 479 369 340 
269 168 387 57 167 481 412 221 194 222 507 
270 387 103 241 386 441 296 482 413 462 440 
271 171 316 169 42 489 476 218 213 217 360 
272 168 34 313 167 189 338 480 194 508 193 
273 146 147 396 250 163 586 587 563 571 561 
274 397 125 251 126 588 565 582 589 566 142 
275 147 323 149 177 574 575 162 590 591 580 
276 324 128 178 126 576 592 584 578 593 141 
277 147 396 250 323 586 571 561 574 581 579 
278 323 147 396 177 574 586 579 580 570 590 
279 251 324 178 126 585 584 567 566 593 578 
280 397 251 178 126 582 567 583 589 593 566 
281 251 240 102 386 264 294 254 556 439 461 
282 112 396 388 242 407 438 458 311 467 557 
283 397 251 102 386 582 254 402 410 439 556 
284 112 396 242 250 407 557 311 259 292 571 
285 251 314 79 240 555 367 256 264 262 466 
286 89 250 242 315 261 292 290 384 469 572 
287 177 169 315 43 219 474 560 188 363 216 
288 178 168 33 314 191 190 183 569 335 464 
289 102 125 251 397 594 565 254 402 582 588 
290 146 396 112 250 587 407 595 563 259 571 
291 250 89 323 315 261 334 581 572 365 384 
292 79 324 314 251 329 337 367 256 555 585 
293 315 323 177 43 365 580 560 363 188 332 
294 33 178 314 324 183 569 335 327 337 584 
295 148 146 27 250 164 158 159 562 257 563 
296 127 251 15 125 564 253 139 143 137 565 
297 178 33 2 128 183 44 182 592 133 596 
298 177 149 6 43 591 153 187 188 55 597 
299 149 323 6 43 575 330 153 597 55 332 
300 128 33 2 324 596 44 133 576 326 327 
301 323 30 148 149 331 161 573 575 165 155 
302 324 18 128 127 325 134 576 577 144 140 
303 125 3 12 397 135 14 136 588 399 401 
304 3 15 251 125 17 253 252 135 565 137 
305 396 7 24 146 406 26 403 587 156 157 
306 146 7 27 250 157 29 158 563 257 258 
307 24 147 396 146 152 586 403 156 587 163 
308 12 125 397 126 136 588 399 131 589 142 
309 178 9 1 126 179 11 180 593 129 130 
310 147 21 5 177 150 23 151 590 184 185 
311 3 125 102 397 135 594 113 401 402 588 
312 125 251 3 102 565 252 135 594 113 254 
313 112 7 396 146 124 406 407 595 587 157 
314 112 7 146 250 124 157 595 259 563 258 
315 324 4 18 127 328 20 325 577 140 138 
316 148 8 30 323 160 32 161 573 331 333 
317 323 149 177 43 575 591 580 332 188 597 
318 128 178 33 324 592 183 596 576 327 584 
319 9 178 128 126 179 592 132 130 141 593 
320 149 21 147 177 154 150 162 591 590 185 
321 8 148 250 323 160 562 260 333 581 573 
322 4 324 251 127 328 585 255 138 564 577 
323 147 5 396 177 151 404 586 590 570 184 
324 397 178 1 126 583 180 398 589 129 593 
325 6 30 323 149 31 331 330 153 575 155 
326 149 6 21 177 153 22 154 591 185 187 
327 2 9 178 128 10 179 182 133 592 132 
328 128 2 18 324 133 19 134 576 325 326 
329 147 5 24 396 151 25 152 586 403 404 
330 1 12 397 126 13 399 398 129 589 131 
331 103 102 240 386 114 294 293 440 461 439 
332 112 388 111 242 458 457 123 311 312 467 
333 57 386 168 56 408 463 221 68 220 409 
334 314 80 79 240 366 91 367 466 262 263 
335 388 66 65 169 435 77 436 473 238 239 
336 242 88 89 315 289 100 290 469 384 385 
337 148 27 8 250 159 28 160 562 260 257 
338 15 4 251 127 16 255 253 139 564 138 
339 34 33 168 314 45 190 189 336 464 335 
340 315 169 42 43 474 217 362 363 54 216 
341 390 65 64 171 432 76 433 488 236 237 
342 390 110 111 244 455 122 456 478 309 310 
343 87 88 244 316 99 287 286 383 485 382 
344 41 316 171 42 359 489 214 53 213 360 
345 107 108 394 249 119 450 449 304 528 303 
346 313 34 35 167 338 46 339 508 192 193 
347 80 313 81 241 369 368 92 265 266 479 
348 105 104 246 391 116 298 297 444 501 443 
349 387 57 167 58 412 222 507 411 223 69 
350 40 41 321 175 52 357 356 211 492 210 
351 60 389 173 59 417 515 227 71 226 418 
352 172 36 35 318 195 47 196 500 341 342 
353 104 103 241 387 115 296 295 442 482 441 
354 106 105 245 389 117 300 299 446 497 445 
355 391 172 59 58 502 225 414 415 70 224 
356 318 82 81 246 370 93 371 494 268 269 
357 392 60 170 61 421 228 531 420 229 72 
358 176 61 62 394 230 73 231 518 423 424 
359 317 83 82 245 372 94 373 509 271 272 
360 173 37 36 317 198 48 199 514 344 345 
361 319 84 83 243 374 95 375 536 274 275 
362 243 106 392 107 302 447 527 301 448 118 
363 37 38 319 170 49 348 347 202 537 201 
364 247 86 87 321 283 98 284 490 380 381 
365 320 176 38 39 522 205 350 351 50 204 
366 395 63 62 174 426 74 427 544 232 233 
367 393 109 110 247 453 121 454 548 307 308 
368 395 108 109 248 451 120 452 540 305 306 
369 85 249 84 320 278 277 96 376 377 530 
370 39 40 322 174 51 354 353 208 542 207 
371 85 86 248 322 97 281 280 379 539 378 
372 64 63 393 175 75 430 429 235 551 234 
373 396 5 66 177 404 78 405 570 186 184 
374 1 178 397 56 180 583 398 67 400 181 
375 89 8 250 323 101 260 261 334 581 333 
376 79 4 324 251 90 328 329 256 585 255 
377 386 178 56 397 568 181 409 410 400 583 
378 386 56 178 168 409 181 568 463 191 220 
379 388 177 66 169 559 186 435 473 239 219 
380 66 177 388 396 186 559 435 405 438 570 
$EndElements
