$MeshFormat
4.1 0 8
$EndMeshFormat
$PhysicalNames
5
2 2 "x_min"
2 3 "x_max"
2 4 "y_min"
2 5 "z_min"
3 1 "domain"
$EndPhysicalNames
$Entities
8 12 6 1
1 0 0 1 0 
2 0 0 0 0 
3 0 1 1 0 
4 0 1 0 0 
5 8 0 1 0 
6 8 0 0 0 
7 8 1 1 0 
8 8 1 0 0 
1 -1e-07 -1e-07 -9.999999994736442e-08 1e-07 1e-07 1.0000001 0 2 2 -1 
2 -1e-07 -9.999999994736442e-08 0.9999999000000001 1e-07 1.0000001 1.0000001 0 2 1 -3 
3 -1e-07 0.9999999000000001 -9.999999994736442e-08 1e-07 1.0000001 1.0000001 0 2 4 -3 
4 -1e-07 -9.999999994736442e-08 -1e-07 1e-07 1.0000001 1e-07 0 2 2 -4 
5 7.9999999 -1e-07 -9.999999994736442e-08 8.000000099999999 1e-07 1.0000001 0 2 6 -5 
6 7.9999999 -9.999999994736442e-08 0.9999999000000001 8.000000099999999 1.0000001 1.0000001 0 2 5 -7 
7 7.9999999 0.9999999000000001 -9.999999994736442e-08 8.000000099999999 1.0000001 1.0000001 0 2 8 -7 
8 7.9999999 -9.999999994736442e-08 -1e-07 8.000000099999999 1.0000001 1e-07 0 2 6 -8 
9 -9.999999983634211e-08 -1e-07 -1e-07 8.000000099999999 1e-07 1e-07 0 2 2 -6 
10 -9.999999983634211e-08 -1e-07 0.9999999000000001 8.000000099999999 1e-07 1.0000001 0 2 1 -5 
11 -9.999999983634211e-08 0.9999999000000001 -1e-07 8.000000099999999 1.0000001 1e-07 0 2 4 -8 
12 -9.999999983634211e-08 0.9999999000000001 0.9999999000000001 8.000000099999999 1.0000001 1.0000001 0 2 3 -7 
1 -1e-07 -9.999999994736442e-08 -9.999999994736442e-08 1e-07 1.0000001 1.0000001 1 2 4 -1 4 3 -2 
2 7.9999999 -9.999999994736442e-08 -9.999999994736442e-08 8.000000099999999 1.0000001 1.0000001 1 3 4 -5 8 7 -6 
3 -9.999999983634211e-08 -1e-07 -9.999999994736442e-08 8.000000099999999 1e-07 1.0000001 1 4 4 -9 1 10 -5 
4 -9.999999983634211e-08 0.9999999000000001 -9.999999994736442e-08 8.000000099999999 1.0000001 1.0000001 0 4 -11 3 12 -7 
5 -9.999999983634211e-08 -9.999999994736442e-08 -1e-07 8.000000099999999 1.0000001 1e-07 1 5 4 -4 9 8 -11 
6 -9.999999983634211e-08 -9.999999994736442e-08 0.9999999000000001 8.000000099999999 1.0000001 1.0000001 0 4 -2 10 6 -12 
1 -9.999999983634211e-08 -9.999999994736442e-08 -9.999999994736442e-08 8.000000099999999 1.0000001 1.0000001 1 1 6 -1 2 -3 4 -5 6 
$EndEntities
$Nodes
27 270 1 270
0 1 0 1
1
0 0 1
0 2 0 1
2
0 0 0
0 3 0 1
3
0 1 1
0 4 0 1
4
0 1 0
0 5 0 1
5
8 0 1
0 6 0 1
6
8 0 0
0 7 0 1
7
8 1 1
0 8 0 1
8
8 1 0
1 1 0 2
9
10
0 0 0.3333333333333325
0 0 0.6666666666666659
1 2 0 2
11
12
0 0.3333333333333325 1
0 0.6666666666666659 1
1 3 0 2
13
14
0 1 0.3333333333333325
0 1 0.6666666666666659
1 4 0 2
15
16
0 0.3333333333333325 0
0 0.6666666666666659 0
1 5 0 2
17
18
8 0 0.3333333333333325
8 0 0.6666666666666659
1 6 0 2
19
20
8 0.3333333333333325 1
8 0.6666666666666659 1
1 7 0 2
21
22
8 1 0.3333333333333325
8 1 0.6666666666666659
1 8 0 2
23
24
8 0.3333333333333325 0
8 0.6666666666666659 0
1 9 0 17
25
26
27
28
29
30
31
32
33
34
35
36
37
38
39
40
41
0.4444444444444435 0 0
0.8888888888888868 0 0
1.333333333333331 0 0
1.777777777777775 0 0
2.222222222222217 0 0
2.66666666666666 0 0
3.111111111111103 0 0
3.555555555555546 0 0
3.99999999999999 0 0
4.444444444444436 0 0
4.888888888888881 0 0
5.333333333333327 0 0
5.777777777777772 0 0
6.222222222222218 0 0
6.666666666666663 0 0
7.111111111111109 0 0
7.555555555555554 0 0
1 10 0 17
42
43
44
45
46
47
48
49
50
51
52
53
54
55
56
57
58
0.4444444444444435 0 1
0.8888888888888868 0 1
1.333333333333331 0 1
1.777777777777775 0 1
2.222222222222217 0 1
2.66666666666666 0 1
3.111111111111103 0 1
3.555555555555546 0 1
3.99999999999999 0 1
4.444444444444436 0 1
4.888888888888881 0 1
5.333333333333327 0 1
5.777777777777772 0 1
6.222222222222218 0 1
6.666666666666663 0 1
7.111111111111109 0 1
7.555555555555554 0 1
1 11 0 17
59
60
61
62
63
64
65
66
67
68
69
70
71
72
73
74
75
0.4444444444444435 1 0
0.8888888888888868 1 0
1.333333333333331 1 0
1.777777777777775 1 0
2.222222222222217 1 0
2.66666666666666 1 0
3.111111111111103 1 0
3.555555555555546 1 0
3.99999999999999 1 0
4.444444444444436 1 0
4.888888888888881 1 0
5.333333333333327 1 0
5.777777777777772 1 0
6.222222222222218 1 0
6.666666666666663 1 0
7.111111111111109 1 0
7.555555555555554 1 0
1 12 0 17
76
77
78
79
80
81
82
83
84
85
86
87
88
89
90
91
92
0.4444444444444435 1 1
0.8888888888888868 1 1
1.333333333333331 1 1
1.777777777777775 1 1
2.222222222222217 1 1
2.66666666666666 1 1
3.111111111111103 1 1
3.555555555555546 1 1
3.99999999999999 1 1
4.444444444444436 1 1
4.888888888888881 1 1
5.333333333333327 1 1
5.777777777777772 1 1
6.222222222222218 1 1
6.666666666666663 1 1
7.111111111111109 1 1
7.555555555555554 1 1
2 1 0 8
93
94
95
96
97
98
99
100
0 0.4999999999999993 0.2951917062965168
0 0.4999999999999993 0.7050506247151785
0 0.7525600817161046 0.5000403885019488
0 0.2474399182838949 0.5000403885019488
0 0.7576802451483141 0.7576802451483141
0 0.2423197548516856 0.757680245148314
0 0.2423197548516852 0.2423197548516852
0 0.7576802451483147 0.2423197548516851
2 2 0 8
101
102
103
104
105
106
107
108
8 0.4999999999999993 0.2951917062965168
8 0.4999999999999993 0.7050506247151785
8 0.7525600817161046 0.5000403885019488
8 0.2474399182838949 0.5000403885019488
8 0.7576802451483141 0.7576802451483141
8 0.2423197548516856 0.757680245148314
8 0.2423197548516852 0.2423197548516852
8 0.7576802451483147 0.2423197548516851
2 3 0 38
109
110
111
112
113
114
115
116
117
118
119
120
121
122
123
124
125
126
127
128
129
130
131
132
133
134
135
136
137
138
139
140
141
142
143
144
145
146
0.3001780429079618 0 0.5160053120240803
7.699821957092038 0 0.5160053120240811
2.888888888888881 0 0.6150998205402513
1.925925925925922 0 0.3333333333333331
3.703703703703694 0 0.3724974344589541
1.189066931796849 0 0.331092205882162
5.111111111111105 0 0.3849001794597514
5.999999999999996 0 0.3849001794597514
6.810933068203147 0 0.3310922058821621
1.55611009078579 0 0.6281453804475154
4.666666666666657 0 0.6150998205402486
5.555555555555547 0 0.6150998205402486
6.433307898632194 0 0.6355120727512898
3.246913580246905 0 0.3312662091665342
2.433862433862428 0 0.3830036111129567
4.211640211640201 0 0.3885984827023307
0.6889397582911623 0 0.352990680840255
7.311060241708834 0 0.3529906808402556
0.609297411310964 0 0.7391535750191303
7.390702588689033 0 0.739153575019131
2.060057149169761 0 0.6795124081351529
2.45433947216199 0 0.7355231679576721
3.357478793986721 0 0.7033321617215496
2.869488536155195 0 0.2658739281639484
1.556189310104396 0 0.2610552388326833
1.063369414413529 0 0.6916193975702544
3.841766747851394 0 0.6995033671333247
4.232903614120536 0 0.7406403340751808
4.666666666666657 0 0.267407876082885
5.111111111111105 0 0.7325921239171146
5.999999999999996 0 0.7325921239171138
6.935370822421941 0 0.6924963847492757
5.555555555555547 0 0.2674078760828862
6.431716963516157 0 0.2694743157512821
0.2867124491287135 0 0.2404658652395336
0.2707839797326739 0 0.7843651107419753
7.713287550871286 0 0.2404658652395338
7.729216020267326 0 0.7843651107419756
2 4 0 38
147
148
149
150
151
152
153
154
155
156
157
158
159
160
161
162
163
164
165
166
167
168
169
170
171
172
173
174
175
176
177
178
179
180
181
182
183
184
0.3001780429079618 1 0.5160053120240803
7.699821957092038 1 0.5160053120240804
2.888888888888881 1 0.6150998205402513
1.925925925925922 1 0.3333333333333331
3.703703703703694 1 0.3724974344589541
1.189066931796849 1 0.331092205882162
5.111111111111105 1 0.3849001794597514
5.999999999999996 1 0.3849001794597514
6.810933068203147 1 0.3310922058821621
1.55611009078579 1 0.6281453804475154
4.666666666666657 1 0.6150998205402486
5.555555555555547 1 0.6150998205402486
6.433307898632194 1 0.6355120727512898
3.246913580246905 1 0.3312662091665342
2.433862433862428 1 0.3830036111129567
4.211640211640201 1 0.3885984827023307
7.311060241708835 1 0.3529906808402551
0.6889397582911623 1 0.352990680840255
0.609297411310964 1 0.7391535750191303
7.390702588689032 1 0.7391535750191306
2.060057149169761 1 0.6795124081351529
2.45433947216199 1 0.7355231679576721
3.357478793986721 1 0.7033321617215496
2.869488536155195 1 0.2658739281639484
1.556189310104396 1 0.2610552388326833
1.063369414413529 1 0.6916193975702544
3.841766747851394 1 0.6995033671333247
4.232903614120536 1 0.7406403340751808
4.666666666666657 1 0.267407876082885
5.111111111111105 1 0.7325921239171146
5.999999999999996 1 0.7325921239171138
6.935370822421941 1 0.6924963847492756
5.555555555555547 1 0.2674078760828862
6.431716963516157 1 0.2694743157512821
7.729216020267325 1 0.7843651107419753
0.2867124491287135 1 0.2404658652395336
0.2707839797326739 1 0.7843651107419753
7.713287550871286 1 0.2404658652395336
2 5 0 38
185
186
187
188
189
190
191
192
193
194
195
196
197
198
199
200
201
202
203
204
205
206
207
208
209
210
211
212
213
214
215
216
217
218
219
220
221
222
0.3001780429079617 0.5160053120240802 0
7.699821957092038 0.4839946879759193 0
2.888888888888881 0.3849001794597487 0
1.925925925925922 0.6666666666666667 0
3.777777777777769 0.3849001794597499 0
1.115769207045108 0.297789143625917 0
4.666666666666657 0.3849001794597514 0
5.555555555555548 0.3849001794597514 0
6.444444444444442 0.3849001794597514 0
3.333333333333325 0.6150998205402511 0
5.999999999999996 0.6150998205402486 0
4.222222222222215 0.6150998205402489 0
5.111111111111105 0.6150998205402486 0
6.810933068203147 0.6689077941178377 0
1.545638987249828 0.3852925620299568 0
2.433862433862428 0.616996388887043 0
7.311060241708835 0.6470093191597448 0
0.6784686547551994 0.3482331005179342 0
0.6075522273883037 0.7383606449654101 0
7.390702588689033 0.2608464249808689 0
2.041651403747928 0.3069217138411288 0
2.450658323077623 0.2617636564375841 0
3.333333333333325 0.2674078760828867 0
2.888888888888881 0.7325921239171126 0
1.538757427079593 0.7569102705227475 0
1.104032636413403 0.6712085376152943 0
3.777777777777768 0.7325921239171139 0
4.222222222222214 0.2674078760828842 0
5.111111111111105 0.2674078760828852 0
5.999999999999996 0.2674078760828866 0
6.936696601685305 0.3099336452758479 0
4.666666666666657 0.7325921239171153 0
5.555555555555547 0.732592123917113 0
6.428853280307294 0.7337815588235675 0
0.284618228421521 0.2395143491750694 0
7.729216020267325 0.2156348892580241 0
0.2704349429481418 0.7842065247312312 0
7.713287550871285 0.7595341347604659 0
2 6 0 38
223
224
225
226
227
228
229
230
231
232
233
234
235
236
237
238
239
240
241
242
243
244
245
246
247
248
249
250
251
252
253
254
255
256
257
258
259
260
0.3001780429079618 0.4839946879759186 1
7.699821957092038 0.483994687975919 1
2.888888888888881 0.3849001794597487 1
1.999999999999996 0.3849001794597489 1
3.777777777777769 0.61509982054025 1
1.189066931796849 0.6297436929922167 1
4.666666666666657 0.3849001794597514 1
5.555555555555548 0.3849001794597514 1
6.444444444444442 0.3849001794597514 1
2.444444444444439 0.6150998205402511 1
5.999999999999996 0.6150998205402486 1
5.111111111111105 0.6150998205402486 1
6.810933068203147 0.6689077941178377 1
3.25925925925925 0.6666666666666665 1
1.642622266410583 0.6691073120753274 1
4.296296296296287 0.6666666666666671 1
7.311060241708835 0.6470093191597445 1
0.6889397582911622 0.6414144475703699 1
0.6092974113109642 0.2599139463826401 1
7.390702588689033 0.2608464249808687 1
2.444444444444439 0.2674078760828871 1
3.377425044091702 0.3066492196843431 1
2.017413342171002 0.7338214624150655 1
2.874074074074066 0.7333333333333334 1
1.531795188812043 0.2968901723509866 1
1.040220252072206 0.3046603765493688 1
3.786596119929444 0.2378313832614959 1
4.206536395647406 0.280425489986418 1
5.111111111111105 0.2674078760828852 1
5.999999999999996 0.2674078760828866 1
6.936696601685305 0.3099336452758478 1
4.681481481481473 0.7333333333333334 1
5.555555555555547 0.732592123917113 1
6.428853280307294 0.7337815588235675 1
7.713287550871286 0.7595341347604658 1
0.2707839797326739 0.2154483935383782 1
7.729216020267325 0.215634889258024 1
0.2867124491287135 0.7584151604425908 1
3 1 0 10
261
262
263
264
265
266
267
268
269
270
0.4967875539212248 0.5001136489486244 0.5001211655058477
7.503212446078775 0.5001136489486245 0.5001211655058477
3.089161113911536 0.5 0.4999999999999999
5.777777777777772 0.4999999999999994 0.5
4.888888888888881 0.4999999999999999 0.4999999999999999
6.64853779942454 0.4999999999999999 0.5
1.799836216238892 0.5 0.5072278372634171
3.999999999999992 0.5 0.4930148884515799
1.022387961977758 0.481748308511547 0.4840359266739373
2.561302554661584 0.4990598917274096 0.4984855406254119
$EndNodes
$Elements
5 963 1 963
2 1 2 26
1 10 1 98 
2 1 11 98 
3 2 9 99 
4 15 2 99 
5 12 3 97 
6 3 14 97 
7 13 4 100 
8 4 16 100 
9 9 10 96 
10 9 96 99 
11 96 10 98 
12 11 12 94 
13 11 94 98 
14 94 12 97 
15 14 13 95 
16 95 13 100 
17 14 95 97 
18 16 15 93 
19 93 15 99 
20 16 93 100 
21 93 94 95 
22 94 93 96 
23 93 95 100 
24 96 93 99 
25 95 94 97 
26 94 96 98 
2 2 2 26
27 18 106 5 
28 5 106 19 
29 6 107 17 
30 23 107 6 
31 20 105 7 
32 7 105 22 
33 21 108 8 
34 8 108 24 
35 17 104 18 
36 17 107 104 
37 104 106 18 
38 19 102 20 
39 19 106 102 
40 102 105 20 
41 22 103 21 
42 103 108 21 
43 22 105 103 
44 24 101 23 
45 101 107 23 
46 24 108 101 
47 101 103 102 
48 102 104 101 
49 101 108 103 
50 104 107 101 
51 103 105 102 
52 102 106 104 
2 3 2 116
53 1 10 144 
54 42 1 144 
55 9 2 143 
56 2 25 143 
57 18 5 146 
58 5 58 146 
59 6 17 145 
60 41 6 145 
61 10 9 109 
62 109 9 143 
63 10 109 144 
64 17 18 110 
65 17 110 145 
66 110 18 146 
67 25 26 125 
68 25 125 143 
69 26 27 114 
70 26 114 125 
71 27 28 133 
72 114 27 133 
73 28 29 112 
74 28 112 133 
75 29 30 123 
76 112 29 123 
77 30 31 132 
78 123 30 132 
79 31 32 122 
80 31 122 132 
81 32 33 113 
82 32 113 122 
83 33 34 124 
84 113 33 124 
85 34 35 137 
86 124 34 137 
87 35 36 115 
88 35 115 137 
89 36 37 141 
90 115 36 141 
91 37 38 116 
92 37 116 141 
93 38 39 142 
94 116 38 142 
95 39 40 117 
96 39 117 142 
97 40 41 126 
98 117 40 126 
99 126 41 145 
100 43 42 127 
101 127 42 144 
102 44 43 134 
103 43 127 134 
104 45 44 118 
105 118 44 134 
106 46 45 129 
107 45 118 129 
108 47 46 130 
109 46 129 130 
110 48 47 111 
111 111 47 130 
112 49 48 131 
113 48 111 131 
114 50 49 135 
115 49 131 135 
116 51 50 136 
117 50 135 136 
118 52 51 119 
119 119 51 136 
120 53 52 138 
121 52 119 138 
122 54 53 120 
123 120 53 138 
124 55 54 139 
125 54 120 139 
126 56 55 121 
127 121 55 139 
128 57 56 140 
129 56 121 140 
130 58 57 128 
131 128 57 140 
132 58 128 146 
133 109 125 127 
134 125 109 143 
135 109 127 144 
136 126 110 128 
137 110 126 145 
138 128 110 146 
139 111 122 131 
140 122 111 132 
141 123 111 130 
142 111 123 132 
143 118 112 129 
144 112 118 133 
145 112 123 129 
146 122 113 131 
147 113 124 135 
148 131 113 135 
149 118 114 133 
150 114 118 134 
151 125 114 134 
152 115 119 137 
153 119 115 138 
154 115 120 138 
155 120 115 141 
156 120 116 139 
157 116 120 141 
158 116 121 139 
159 121 116 142 
160 121 117 140 
161 117 121 142 
162 117 126 140 
163 124 119 136 
164 119 124 137 
165 129 123 130 
166 135 124 136 
167 127 125 134 
168 126 128 140 
2 5 2 116
169 2 15 219 
170 25 2 219 
171 16 4 221 
172 4 59 221 
173 23 6 220 
174 6 41 220 
175 8 24 222 
176 75 8 222 
177 15 16 185 
178 15 185 219 
179 185 16 221 
180 24 23 186 
181 186 23 220 
182 24 186 222 
183 26 25 202 
184 202 25 219 
185 27 26 190 
186 190 26 202 
187 28 27 199 
188 27 190 199 
189 29 28 205 
190 28 199 205 
191 30 29 206 
192 29 205 206 
193 31 30 187 
194 187 30 206 
195 32 31 207 
196 31 187 207 
197 33 32 189 
198 189 32 207 
199 34 33 212 
200 33 189 212 
201 35 34 191 
202 191 34 212 
203 36 35 213 
204 35 191 213 
205 37 36 192 
206 192 36 213 
207 38 37 214 
208 37 192 214 
209 39 38 193 
210 193 38 214 
211 40 39 215 
212 39 193 215 
213 41 40 204 
214 204 40 215 
215 41 204 220 
216 59 60 203 
217 59 203 221 
218 60 61 210 
219 203 60 210 
220 61 62 209 
221 61 209 210 
222 62 63 188 
223 62 188 209 
224 63 64 200 
225 188 63 200 
226 64 65 208 
227 200 64 208 
228 65 66 194 
229 65 194 208 
230 66 67 211 
231 194 66 211 
232 67 68 196 
233 67 196 211 
234 68 69 216 
235 196 68 216 
236 69 70 197 
237 69 197 216 
238 70 71 217 
239 197 70 217 
240 71 72 195 
241 71 195 217 
242 72 73 218 
243 195 72 218 
244 73 74 198 
245 73 198 218 
246 74 75 201 
247 198 74 201 
248 201 75 222 
249 202 185 203 
250 185 202 219 
251 203 185 221 
252 201 186 204 
253 186 201 222 
254 204 186 220 
255 187 194 207 
256 194 187 208 
257 200 187 206 
258 187 200 208 
259 199 188 205 
260 188 199 209 
261 188 200 205 
262 194 189 207 
263 189 194 211 
264 196 189 211 
265 189 196 212 
266 199 190 210 
267 190 202 210 
268 196 191 212 
269 191 196 216 
270 191 197 213 
271 197 191 216 
272 192 195 214 
273 195 192 217 
274 197 192 213 
275 192 197 217 
276 195 193 214 
277 193 195 218 
278 193 198 215 
279 198 193 218 
280 198 201 215 
281 209 199 210 
282 205 200 206 
283 201 204 215 
284 202 203 210 
3 1 4 679
285 131 263 244 268 
286 169 263 151 268 
287 131 113 263 268 
288 171 209 267 269 
289 189 194 263 268 
290 113 189 263 268 
291 153 217 179 264 
292 138 251 120 265 
293 227 263 169 268 
294 180 195 218 266 
295 151 263 194 268 
296 115 264 192 265 
297 153 197 264 265 
298 158 264 234 265 
299 120 230 264 265 
300 196 216 175 265 
301 119 229 265 268 
302 162 196 265 268 
303 191 124 265 268 
304 139 252 121 264 
305 135 131 249 268 
306 197 192 264 265 
307 234 264 230 265 
308 153 264 158 265 
309 120 264 115 265 
310 189 207 113 263 
311 191 265 196 268 
312 119 136 229 268 
313 193 264 116 266 
314 244 263 227 268 
315 121 264 231 266 
316 189 194 207 263 
317 195 154 264 266 
318 197 217 153 264 
319 120 251 230 265 
320 233 264 159 266 
321 119 265 124 268 
322 162 265 157 268 
323 131 244 249 268 
324 162 196 175 265 
325 157 265 238 268 
326 238 265 229 268 
327 231 121 252 264 
328 163 201 262 266 
329 233 231 264 266 
330 195 264 193 266 
331 159 264 154 266 
332 121 116 264 266 
333 195 180 154 266 
334 234 158 255 264 
335 115 141 192 264 
336 213 115 192 265 
337 176 158 234 265 
338 214 116 193 264 
339 137 191 124 265 
340 171 267 156 269 
341 212 124 191 268 
342 178 262 239 266 
343 215 126 262 266 
344 193 116 142 266 
345 215 262 201 266 
346 239 262 253 266 
347 177 159 233 264 
348 233 159 256 266 
349 140 262 126 266 
350 163 262 178 266 
351 171 152 209 269 
352 136 250 229 268 
353 118 267 133 269 
354 253 262 140 266 
355 238 174 157 268 
356 214 193 195 264 
357 231 252 233 264 
358 197 192 217 264 
359 153 179 158 264 
360 230 234 255 264 
361 115 120 141 264 
362 213 192 197 265 
363 251 234 230 265 
364 196 191 216 265 
365 176 153 158 265 
366 138 120 115 265 
367 211 151 194 268 
368 199 133 267 269 
369 119 124 136 268 
370 174 162 157 268 
371 211 194 189 268 
372 212 191 196 268 
373 157 162 175 265 
374 137 124 119 265 
375 163 155 198 266 
376 177 154 159 264 
377 139 121 116 264 
378 163 198 201 266 
379 131 135 113 268 
380 171 156 152 269 
381 195 193 218 266 
382 233 256 231 266 
383 159 154 180 266 
384 121 142 116 266 
385 227 236 169 263 
386 207 122 113 263 
387 188 150 267 270 
388 235 178 239 266 
389 215 117 126 266 
390 226 267 245 270 
391 227 169 151 268 
392 249 244 227 268 
393 245 267 167 270 
394 235 239 253 266 
395 198 215 201 266 
396 209 199 267 269 
397 155 163 178 266 
398 140 126 117 266 
399 114 118 133 269 
400 156 267 228 269 
401 247 228 267 269 
402 227 244 236 263 
403 205 267 123 270 
404 160 194 151 263 
405 250 238 229 268 
406 238 157 254 265 
407 144 98 258 261 
408 146 259 106 262 
409 188 200 150 270 
410 161 150 200 270 
411 237 228 156 267 
412 247 267 118 269 
413 160 151 169 263 
414 122 131 113 263 
415 253 242 128 262 
416 129 123 267 270 
417 199 114 133 269 
418 237 247 228 267 
419 173 227 151 268 
420 232 226 245 270 
421 229 238 254 265 
422 129 267 226 270 
423 112 123 205 267 
424 173 169 151 227 
425 128 140 253 262 
426 232 245 167 270 
427 112 129 123 267 
428 213 192 115 141 
429 158 234 255 176 
430 107 220 145 262 
431 100 221 182 261 
432 181 105 257 262 
433 97 183 260 261 
434 99 96 143 261 
435 145 104 107 262 
436 239 178 166 262 
437 182 95 100 261 
438 184 108 103 262 
439 243 129 226 270 
440 215 126 204 262 
441 100 185 221 261 
442 258 98 223 261 
443 109 96 98 261 
444 106 104 110 262 
445 147 97 95 261 
446 148 103 105 262 
447 107 186 220 262 
448 98 144 109 261 
449 146 106 110 262 
450 259 224 106 262 
451 97 147 183 261 
452 181 148 105 262 
453 144 258 241 261 
454 201 215 204 262 
455 253 239 242 262 
456 128 126 140 262 
457 178 163 166 262 
458 129 243 130 270 
459 146 128 259 262 
460 123 206 205 270 
461 209 152 210 269 
462 101 107 104 262 
463 99 93 96 261 
464 100 95 93 261 
465 103 108 101 262 
466 98 96 94 261 
467 106 102 104 262 
468 103 102 105 262 
469 94 95 97 261 
470 168 232 167 270 
471 241 127 261 269 
472 209 210 199 269 
473 243 226 232 270 
474 247 118 134 269 
475 219 99 143 261 
476 184 222 108 262 
477 156 228 172 269 
478 247 134 248 269 
479 100 93 185 261 
480 105 102 257 262 
481 109 143 96 261 
482 104 145 110 262 
483 147 95 182 261 
484 148 184 103 262 
485 199 190 114 269 
486 94 223 98 261 
487 186 107 101 262 
488 224 102 106 262 
489 206 200 205 270 
490 241 248 127 269 
491 240 261 165 269 
492 200 150 63 188 
493 150 200 63 161 
494 241 261 240 269 
495 228 247 248 269 
496 156 172 152 269 
497 241 127 144 261 
498 165 261 164 269 
499 145 220 204 262 
500 166 181 257 262 
501 165 260 183 261 
502 161 168 167 270 
503 129 130 123 270 
504 208 263 170 270 
505 163 155 74 198 
506 128 242 259 262 
507 198 74 163 201 
508 241 258 223 261 
509 243 225 130 270 
510 172 240 165 269 
511 131 48 244 263 
512 222 184 163 262 
513 134 127 248 269 
514 125 261 127 269 
515 241 240 248 269 
516 203 182 221 261 
517 118 114 134 269 
518 48 131 111 263 
519 257 102 224 262 
520 229 251 138 265 
521 230 252 139 264 
522 217 195 179 264 
523 149 263 246 270 
524 199 210 190 269 
525 204 220 186 262 
526 127 109 144 261 
527 253 56 231 266 
528 242 224 259 262 
529 147 165 183 261 
530 146 110 128 262 
531 188 171 209 267 
532 166 148 181 262 
533 48 225 244 263 
534 164 261 203 269 
535 33 212 189 268 
536 253 140 56 266 
537 229 251 52 138 
538 217 71 179 195 
539 54 230 252 139 
540 251 53 138 120 
541 179 153 70 217 
542 172 165 164 269 
543 180 195 72 218 
544 247 226 45 267 
545 121 231 56 266 
546 132 263 187 270 
547 197 175 216 265 
548 140 121 56 266 
549 168 149 246 270 
550 33 124 212 268 
551 247 45 118 267 
552 208 170 200 270 
553 48 111 225 263 
554 197 175 69 216 
555 130 225 111 270 
556 129 45 226 267 
557 168 246 232 270 
558 129 118 45 267 
559 174 238 173 268 
560 246 263 225 270 
561 202 219 143 261 
562 175 68 216 196 
563 132 187 206 270 
564 94 96 93 261 
565 104 102 101 262 
566 102 103 101 262 
567 93 95 94 261 
568 243 47 130 225 
569 189 113 33 268 
570 237 167 245 267 
571 120 230 139 264 
572 195 154 179 264 
573 170 263 149 270 
574 113 124 33 268 
575 199 133 112 267 
576 255 177 233 264 
577 192 141 214 264 
578 255 158 177 264 
579 116 214 141 264 
580 185 203 221 261 
581 111 263 132 270 
582 234 254 176 265 
583 139 54 230 120 
584 217 153 70 197 
585 53 251 230 120 
586 71 154 179 195 
587 229 138 119 265 
588 175 197 153 265 
589 254 157 176 265 
590 123 132 206 270 
591 170 161 200 270 
592 137 213 191 265 
593 137 115 213 265 
594 52 229 138 119 
595 175 197 69 153 
596 173 84 238 174 
597 203 261 202 269 
598 208 187 263 270 
599 225 263 111 270 
600 211 196 162 268 
601 200 208 64 170 
602 68 175 162 196 
603 195 180 72 154 
604 211 162 151 268 
605 121 252 139 55 
606 125 114 190 269 
607 111 130 47 225 
608 210 164 203 269 
609 188 150 171 267 
610 136 229 51 119 
611 134 125 127 269 
612 163 201 222 262 
613 218 198 180 266 
614 167 237 156 267 
615 172 228 240 269 
616 245 79 167 237 
617 160 170 208 263 
618 187 132 122 263 
619 122 207 187 263 
620 161 200 64 170 
621 190 202 125 269 
622 242 128 57 253 
623 194 160 208 263 
624 118 44 247 134 
625 44 248 247 134 
626 67 162 211 196 
627 55 121 252 231 
628 240 260 165 261 
629 239 166 257 262 
630 126 145 204 262 
631 193 142 117 266 
632 256 159 235 266 
633 238 227 173 268 
634 133 112 28 199 
635 202 261 125 269 
636 114 26 125 190 
637 202 143 125 261 
638 210 152 164 269 
639 79 156 167 237 
640 163 184 222 75 
641 151 66 194 160 
642 236 246 149 263 
643 51 250 229 136 
644 193 117 215 266 
645 155 180 198 266 
646 159 178 235 266 
647 169 173 83 227 
648 240 223 260 261 
649 249 250 135 268 
650 194 211 66 151 
651 201 186 222 262 
652 224 239 257 262 
653 143 109 125 261 
654 164 147 182 261 
655 162 211 151 67 
656 126 110 145 262 
657 163 184 148 262 
658 37 214 192 141 
659 233 255 88 177 
660 158 88 255 177 
661 192 213 36 141 
662 87 255 234 176 
663 255 87 158 176 
664 115 36 213 141 
665 214 37 116 141 
666 246 225 232 270 
667 173 84 227 238 
668 43 241 248 127 
669 112 205 199 267 
670 202 125 26 190 
671 128 140 57 253 
672 164 182 203 261 
673 169 236 149 263 
674 35 213 191 137 
675 137 35 213 115 
676 210 203 202 269 
677 27 114 133 199 
678 202 185 219 261 
679 228 156 78 237 
680 228 248 240 269 
681 170 149 161 270 
682 150 156 171 267 
683 133 118 112 267 
684 172 156 78 228 
685 123 111 132 270 
686 152 172 164 269 
687 122 31 132 187 
688 135 131 49 249 
689 31 122 207 187 
690 208 200 187 270 
691 136 135 250 268 
692 206 29 123 205 
693 25 219 143 202 
694 176 254 86 157 
695 234 254 86 176 
696 117 142 193 39 
697 236 169 83 227 
698 203 210 60 164 
699 131 49 249 244 
700 243 232 225 270 
701 90 235 256 159 
702 152 60 210 164 
703 85 254 238 157 
704 241 223 240 261 
705 149 82 246 236 
706 249 227 250 268 
707 149 168 161 270 
708 160 169 149 263 
709 131 122 111 263 
710 246 81 168 232 
711 117 193 215 39 
712 134 43 248 127 
713 174 85 238 157 
714 207 113 32 189 
715 29 112 123 205 
716 123 130 111 270 
717 168 149 81 246 
718 235 90 178 159 
719 254 234 229 265 
720 206 187 200 270 
721 75 222 163 201 
722 230 233 252 264 
723 229 234 251 265 
724 197 191 213 265 
725 197 216 191 265 
726 255 233 230 264 
727 217 192 195 264 
728 195 192 214 264 
729 158 179 154 264 
730 158 154 177 264 
731 116 141 120 264 
732 120 139 116 264 
733 237 226 247 267 
734 205 28 112 199 
735 207 194 187 263 
736 199 188 209 267 
737 136 124 135 268 
738 174 173 162 268 
739 114 27 190 199 
740 157 153 176 265 
741 138 115 119 265 
742 140 117 121 266 
743 159 155 178 266 
744 206 132 30 187 
745 82 149 169 236 
746 188 62 209 171 
747 204 186 201 262 
748 224 242 239 262 
749 125 109 127 261 
750 165 147 164 261 
751 212 196 189 268 
752 189 196 211 268 
753 110 126 128 262 
754 166 163 148 262 
755 237 245 226 267 
756 132 111 122 263 
757 160 149 170 263 
758 157 175 153 265 
759 137 119 115 265 
760 231 235 253 266 
761 198 193 215 266 
762 123 132 30 206 
763 113 135 124 268 
764 173 151 162 268 
765 190 210 202 269 
766 187 194 208 263 
767 121 117 142 266 
768 180 155 159 266 
769 65 208 194 160 
770 178 91 239 166 
771 126 215 204 40 
772 125 134 114 269 
773 231 256 235 266 
774 218 193 198 266 
775 205 188 199 267 
776 150 167 156 267 
777 112 118 129 267 
778 180 73 198 218 
779 236 244 225 263 
780 238 250 227 268 
781 126 117 215 40 
782 42 258 241 144 
783 129 46 243 226 
784 239 235 91 178 
785 182 13 100 95 
786 143 99 9 96 
787 184 21 103 108 
788 145 104 17 107 
789 165 172 77 240 
790 95 147 14 97 
791 10 98 109 96 
792 103 105 22 148 
793 110 18 104 106 
794 228 77 172 240 
795 122 113 32 207 
796 125 25 143 202 
797 236 225 246 263 
798 171 188 62 150 
799 128 259 58 146 
800 221 16 185 100 
801 130 129 46 243 
802 61 209 171 152 
803 183 14 147 97 
804 98 144 10 109 
805 106 110 18 146 
806 181 22 105 148 
807 258 11 223 98 
808 203 185 202 261 
809 19 106 259 224 
810 107 186 23 220 
811 93 99 15 185 
812 99 219 15 185 
813 97 12 94 223 
814 155 180 73 198 
815 208 65 170 160 
816 108 24 101 186 
817 12 97 260 223 
818 24 108 222 186 
819 16 93 185 100 
820 11 94 223 98 
821 19 106 224 102 
822 23 101 186 107 
823 209 61 210 152 
824 13 182 147 95 
825 109 143 9 96 
826 148 21 103 184 
827 110 104 17 145 
828 249 50 135 250 
829 69 70 153 197 
830 54 53 230 120 
831 71 72 154 195 
832 144 241 42 127 
833 229 52 51 119 
834 47 48 111 225 
835 165 183 260 76 
836 220 145 204 41 
837 181 257 92 166 
838 259 128 58 242 
839 64 63 200 161 
840 65 194 66 160 
841 67 68 162 196 
842 250 50 135 136 
843 121 55 56 231 
844 189 113 32 33 
845 203 59 221 182 
846 76 260 165 240 
847 156 79 78 237 
848 15 16 93 185 
849 239 92 257 166 
850 145 126 204 41 
851 12 11 94 223 
852 101 24 23 186 
853 224 20 19 102 
854 14 13 147 95 
855 109 9 10 96 
856 22 21 103 148 
857 104 17 18 110 
858 133 28 27 199 
859 5 106 146 259 
860 1 258 144 98 
861 46 129 45 226 
862 182 203 59 164 
863 193 142 38 39 
864 163 74 75 201 
865 80 168 81 232 
866 85 86 254 157 
867 82 81 149 246 
868 87 234 86 176 
869 36 37 192 141 
870 255 87 88 158 
871 233 88 89 177 
872 35 36 213 115 
873 116 37 214 38 
874 1 258 42 144 
875 5 146 58 259 
876 105 257 7 181 
877 6 145 107 220 
878 100 221 4 182 
879 97 183 3 260 
880 132 31 30 187 
881 73 74 155 198 
882 173 84 83 227 
883 34 35 191 137 
884 30 29 123 206 
885 125 26 25 202 
886 3 14 183 97 
887 144 10 1 98 
888 18 5 106 146 
889 105 7 22 181 
890 247 45 44 118 
891 78 77 172 228 
892 188 63 62 150 
893 1 11 258 98 
894 106 5 19 259 
895 107 23 6 220 
896 4 16 221 100 
897 2 219 99 143 
898 114 27 26 190 
899 256 89 90 159 
900 33 34 212 124 
901 108 184 8 222 
902 211 66 151 67 
903 122 32 31 207 
904 219 15 2 99 
905 108 8 24 222 
906 99 9 2 143 
907 100 4 13 182 
908 7 20 257 105 
909 8 21 184 108 
910 17 6 145 107 
911 221 59 4 182 
912 97 3 12 260 
913 257 92 7 181 
914 220 6 145 41 
915 260 183 3 76 
916 39 215 117 40 
917 91 92 239 166 
918 41 126 204 40 
919 210 61 60 152 
920 235 90 91 178 
921 165 77 76 240 
922 29 28 112 205 
923 82 169 83 236 
924 85 238 84 174 
925 62 61 209 171 
926 80 79 167 245 
927 203 60 59 164 
928 248 44 43 134 
929 2 25 219 143 
930 49 50 135 249 
931 222 184 8 75 
932 56 57 140 253 
933 48 49 131 244 
934 43 42 241 127 
935 73 180 72 218 
936 57 58 128 242 
937 46 47 130 243 
938 252 54 139 55 
939 251 53 52 138 
940 71 179 70 217 
941 208 65 64 170 
942 69 175 68 216 
943 50 250 51 136 
944 270 150 167 161 
945 270 167 150 267 
946 270 188 205 267 
947 270 205 188 200 
948 116 193 38 214 
949 38 193 116 142 
950 124 191 34 212 
951 124 34 191 137 
952 233 159 89 256 
953 89 159 233 177 
954 167 232 80 245 
955 80 232 167 168 
956 99 185 261 219 
957 261 185 99 93 
958 108 186 262 222 
959 262 186 108 101 
960 102 257 20 105 
961 102 20 257 224 
962 97 223 261 260 
963 261 223 97 94 
$EndElements
