<?xml version="1.0"?>
<VTKFile type="UnstructuredGrid" version="0.1" byte_order="LittleEndian">
  <UnstructuredGrid>
    <Piece NumberOfPoints="116" NumberOfCells="252">
      <Points>
        <DataArray type="Float64" NumberOfComponents="3" format="ascii">0 0 1 0 0 0 0 1 1 0 1 0 8 0 1 8 0 0 8 1 1 8 1 0 0 0 0.5 0 0.5 1 0 1 0.5 0 0.5 0 8 0 0.5 8 0.5 1 8 1 0.5 8 0.5 0 0.666666666667 0 0 1.33333333333 0 0 2 0 0 2.66666666667 0 0 3.33333333333 0 0 4 0 0 4.66666666667 0 0 5.33333333333 0 0 6 0 0 6.66666666667 0 0 7.33333333333 0 0 0.666666666667 0 1 1.33333333333 0 1 2 0 1 2.66666666667 0 1 3.33333333333 0 1 4 0 1 4.66666666667 0 1 5.33333333333 0 1 6 0 1 6.66666666667 0 1 7.33333333333 0 1 0.666666666667 1 0 1.33333333333 1 0 2 1 0 2.66666666667 1 0 3.33333333333 1 0 4 1 0 4.66666666667 1 0 5.33333333333 1 0 6 1 0 6.66666666667 1 0 7.33333333333 1 0 0.666666666667 1 1 1.33333333333 1 1 2 1 1 2.66666666667 1 1 3.33333333333 1 1 4 1 1 4.66666666667 1 1 5.33333333333 1 1 6 1 1 6.66666666667 1 1 7.33333333333 1 1 0 0.734056122449 0.265943877551 0 0.625 0.625 0 0.356717687075 0.351615646259 0 0.28125 0.71875 8 0.734056122449 0.265943877551 8 0.625 0.625 8 0.356717687075 0.351615646259 8 0.28125 0.71875 6.9858276644 0 0.497637944067 1.0141723356 0 0.502362055933 6.33333333333 0 0.5 2.33333333333 0 0.5 5.66666666667 0 0.5 3 0 0.5 3.66666666667 0 0.5 1.66666666667 0 0.5 4.33333333333 0 0.5 5 0 0.5 7.5 0 0.472222222222 0.5 0 0.527777777778 6.9858276644 1 0.497637944067 5.66666666667 1 0.5 1.0141723356 1 0.502362055933 6.33333333333 1 0.5 2.33333333333 1 0.5 3 1 0.5 1.66666666667 1 0.5 3.66666666667 1 0.5 4.33333333333 1 0.5 5 1 0.5 7.5 1 0.472222222222 0.5 1 0.527777777778 6.9858276644 0.502362055933 0 2.33333333333 0.5 0 1.0141723356 0.497637944067 0 6.33333333333 0.5 0 3 0.5 0 4.33333333333 0.5 0 5 0.5 0 1.66666666667 0.5 0 3.66666666667 0.5 0 5.66666666667 0.5 0 7.5 0.527777777778 0 0.5 0.472222222222 0 6.9858276644 0.502362055933 1 5.66666666667 0.5 1 1.0141723356 0.502362055933 1 2.33333333333 0.5 1 3 0.5 1 4.33333333333 0.5 1 5 0.5 1 6.33333333333 0.5 1 3.66666666667 0.5 1 1.66666666667 0.5 1 7.5 0.527777777778 1 0.5 0.527777777778 1</DataArray>
      </Points>
      <Cells>
        <DataArray type="Int32" Name="connectivity" format="ascii">94 106 99 82 106 94 99 69 83 104 92 80 92 104 111 68 68 95 111 92 106 99 75 69 106 99 82 86 104 83 92 111 95 81 101 70 111 95 81 83 81 111 105 72 95 111 81 70 72 101 81 70 81 111 72 70 99 84 86 107 107 86 75 113 93 99 75 107 99 93 84 107 86 75 99 107 107 75 93 71 81 105 110 72 101 81 89 72 107 93 108 71 93 107 108 84 108 93 73 71 81 110 89 72 101 89 98 72 84 93 96 108 85 96 87 112 73 96 108 112 96 85 108 112 110 77 109 97 96 100 87 112 100 96 74 112 96 73 74 112 77 110 89 97 89 110 109 97 98 77 89 97 88 89 109 97 89 77 98 72 73 96 93 108 84 96 85 108 110 77 89 72 77 109 97 76 88 112 87 97 97 109 112 76 88 109 112 97 112 100 87 97 112 74 97 76 112 74 100 97 92 111 83 95 95 68 111 70 99 106 75 86 106 75 86 113 106 91 94 69 94 82 91 106 104 80 90 92 68 92 104 78 66 67 65 78 62 103 60 61 69 91 94 79 114 104 90 92 114 104 92 78 106 91 69 79 79 61 62 63 102 64 65 66 92 90 114 102 114 92 102 78 91 106 115 79 91 103 94 79 65 102 66 78 62 103 61 79 75 18 93 71 99 75 18 93 99 93 40 84 75 107 113 29 107 75 71 29 57 111 105 81 24 95 101 70 111 72 35 105 40 99 84 86 51 86 84 107 107 51 86 113 81 57 111 83 72 111 35 70 95 81 46 101 81 95 46 83 72 24 101 70 85 53 108 112 74 20 96 100 109 77 33 76 112 108 73 31 112 73 74 31 77 33 110 109 97 98 77 22 109 55 89 88 98 89 44 97 22 77 97 76 20 73 74 96 23 101 98 72 45 81 89 101 53 85 87 112 96 100 42 87 87 42 96 85 55 110 109 89 56 105 110 81 34 110 105 72 89 88 44 97 19 73 93 71 41 93 96 84 108 52 84 107 71 108 107 30 52 84 85 108 96 19 73 93 85 41 96 84 73 108 71 30 110 34 77 72 98 77 23 72 89 56 110 81 98 45 89 101 109 32 112 76 88 87 43 97 100 43 87 97 74 21 97 76 74 21 100 97 54 109 112 88 54 112 87 88 32 74 112 76 94 99 39 82 36 111 104 68 106 75 28 69 69 99 17 94 83 58 104 80 95 92 68 25 106 86 82 50 47 80 83 92 86 39 99 82 75 106 28 113 36 111 68 70 99 69 17 75 70 95 68 25 106 86 50 113 92 83 47 95 58 104 111 83 67 114 65 78 61 103 60 91 79 115 61 63 102 65 114 78 90 65 114 102 61 91 115 79 91 61 103 79 90 64 65 102 82 38 94 91 68 104 37 78 38 103 94 91 104 114 37 78 78 68 92 26 69 27 106 79 92 90 48 80 49 91 82 106 103 38 60 91 67 37 114 78 92 102 78 26 27 115 106 79 90 92 48 102 106 49 91 115 103 11 62 60 79 27 115 63 0 115 27 63 4 67 37 114 37 67 4 78 64 102 15 66 66 12 67 78 103 3 11 60 3 10 60 91 38 3 103 60 60 38 3 91 0 9 115 63 67 12 4 78 67 4 13 114 7 64 90 48 7 64 48 102 79 62 8 63 61 60 10 91 6 14 65 90 8 1 62 79 64 65 14 90 79 0 27 63 15 102 5 66 9 61 115 63 13 67 114 65 64 90 48 102 103 62 1 79 66 102 5 78 114 6 65 90 10 2 61 91 61 2 9 115 7 64 102 15 64 14 7 90 2 61 91 115 114 6 13 65 94 39 38 82 104 37 36 68 79 8 0 63 94 16 17 69 28 27 106 69 58 59 104 80 25 92 68 26 66 5 12 78 62 1 11 103 50 49 82 106 80 47 48 92 41 40 93 84 52 51 84 107 101 23 24 72 105 35 34 72 17 75 18 99 93 18 19 71 107 71 30 29 99 40 39 86 28 75 113 29 105 56 57 81 51 50 86 113 44 45 89 98 111 36 35 70 58 111 57 83 53 52 85 108 54 55 109 88 46 47 83 95 24 95 70 25 41 96 42 85 45 46 81 101 20 74 21 100 110 34 33 77 73 20 19 96 109 33 32 76 100 43 42 87 108 73 31 30 74 112 31 32 87 53 112 54 22 97 21 76 44 88 43 97 23 77 98 22 56 110 55 89 6 114 59 90 78 102 5 26 103 1 16 79 49 2 91 115 94 79 16 69 16 79 94 103 104 90 59 114 59 90 104 80</DataArray>
        <DataArray type="Int32" Name="offsets" format="ascii">4 8 12 16 20 24 28 32 36 40 44 48 52 56 60 64 68 72 76 80 84 88 92 96 100 104 108 112 116 120 124 128 132 136 140 144 148 152 156 160 164 168 172 176 180 184 188 192 196 200 204 208 212 216 220 224 228 232 236 240 244 248 252 256 260 264 268 272 276 280 284 288 292 296 300 304 308 312 316 320 324 328 332 336 340 344 348 352 356 360 364 368 372 376 380 384 388 392 396 400 404 408 412 416 420 424 428 432 436 440 444 448 452 456 460 464 468 472 476 480 484 488 492 496 500 504 508 512 516 520 524 528 532 536 540 544 548 552 556 560 564 568 572 576 580 584 588 592 596 600 604 608 612 616 620 624 628 632 636 640 644 648 652 656 660 664 668 672 676 680 684 688 692 696 700 704 708 712 716 720 724 728 732 736 740 744 748 752 756 760 764 768 772 776 780 784 788 792 796 800 804 808 812 816 820 824 828 832 836 840 844 848 852 856 860 864 868 872 876 880 884 888 892 896 900 904 908 912 916 920 924 928 932 936 940 944 948 952 956 960 964 968 972 976 980 984 988 992 996 1000 1004 1008</DataArray>
        <DataArray type="UInt8" Name="types" format="ascii">10 10 10 10 10 10 10 10 10 10 10 10 10 10 10 10 10 10 10 10 10 10 10 10 10 10 10 10 10 10 10 10 10 10 10 10 10 10 10 10 10 10 10 10 10 10 10 10 10 10 10 10 10 10 10 10 10 10 10 10 10 10 10 10 10 10 10 10 10 10 10 10 10 10 10 10 10 10 10 10 10 10 10 10 10 10 10 10 10 10 10 10 10 10 10 10 10 10 10 10 10 10 10 10 10 10 10 10 10 10 10 10 10 10 10 10 10 10 10 10 10 10 10 10 10 10 10 10 10 10 10 10 10 10 10 10 10 10 10 10 10 10 10 10 10 10 10 10 10 10 10 10 10 10 10 10 10 10 10 10 10 10 10 10 10 10 10 10 10 10 10 10 10 10 10 10 10 10 10 10 10 10 10 10 10 10 10 10 10 10 10 10 10 10 10 10 10 10 10 10 10 10 10 10 10 10 10 10 10 10 10 10 10 10 10 10 10 10 10 10 10 10 10 10 10 10 10 10 10 10 10 10 10 10 10 10 10 10 10 10 10 10 10 10 10 10 10 10 10 10 10 10</DataArray>
      </Cells>
      <PointData Vectors="Displacement">
        <DataArray type="Float64" Name="Displacement" NumberOfComponents="3" format="ascii">0 0 0 0 0 0 0 0 0 0 0 0 1.15903920671e-06 -1.5718155598e-07 -1.2901558877e-05 -1.18853207516e-06 -1.73612102041e-07 -1.29012214609e-05 1.19163210677e-06 -1.64208546222e-07 -1.29097804419e-05 -1.15193027355e-06 -1.66320284277e-07 -1.29114518884e-05 0 0 0 0 0 0 0 0 0 0 0 0 -1.39261710817e-08 -1.64991314799e-07 -1.29012139452e-05 1.17061957734e-06 -1.60224885405e-07 -1.29079906091e-05 2.0897052406e-08 -1.65492850992e-07 -1.29106306869e-05 -1.16561877586e-06 -1.70265054825e-07 -1.29087369102e-05 -2.43157982139e-07 -3.31850676484e-08 -1.88636608786e-07 -4.20232630377e-07 -2.67672054144e-08 -6.27319460454e-07 -5.73933577956e-07 -4.0911256268e-08 -1.29587411328e-06 -6.51438978671e-07 -5.90129872785e-08 -2.12432687415e-06 -7.69435709568e-07 -6.70937923996e-08 -3.10658562102e-06 -8.87330352676e-07 -8.14439275884e-08 -4.21832187539e-06 -9.6195070481e-07 -8.62438526351e-08 -5.45929545838e-06 -1.03175292377e-06 -1.03338982662e-07 -6.81144888223e-06 -1.10417451537e-06 -1.15755493179e-07 -8.24640057188e-06 -1.15046864534e-06 -1.29349862486e-07 -9.76625391391e-06 -1.17801137536e-06 -1.47624417964e-07 -1.13212880186e-05 2.01270044018e-07 1.91268769542e-08 -1.64249250418e-07 3.89817702832e-07 1.62674856053e-08 -6.3085164725e-07 5.6052430604e-07 1.34799615455e-08 -1.29535448909e-06 6.80152594105e-07 -5.17688731896e-09 -2.12985351679e-06 7.81340258808e-07 -2.30135981587e-08 -3.09564510824e-06 8.61826767937e-07 -3.37980452156e-08 -4.21796296012e-06 9.38715202424e-07 -5.44078931302e-08 -5.47488416857e-06 1.01000884588e-06 -6.42183910646e-08 -6.80130914648e-06 1.08975261723e-06 -8.32464876084e-08 -8.24294927048e-06 1.1260309004e-06 -1.11412565776e-07 -9.76144406981e-06 1.15006567753e-06 -1.36779977147e-07 -1.13227937277e-05 -2.08523747845e-07 1.8920734424e-08 -1.81407753169e-07 -4.11192409556e-07 1.46732168079e-08 -6.33670170485e-07 -5.18955425352e-07 -7.36944317592e-09 -1.28918669902e-06 -6.61748233051e-07 -2.24757515835e-08 -2.13847027106e-06 -7.51564256192e-07 -2.253784266e-08 -3.12129998208e-06 -8.65739087456e-07 -4.21891234987e-08 -4.23239317934e-06 -9.40551404348e-07 -6.7273785481e-08 -5.47036967246e-06 -1.02566421378e-06 -8.12754108345e-08 -6.81895202119e-06 -1.09169564438e-06 -1.00733126564e-07 -8.26202127692e-06 -1.1287228058e-06 -1.21330417988e-07 -9.77692028059e-06 -1.14350634907e-06 -1.44353096539e-07 -1.13324249041e-05 2.35413772276e-07 -2.37141843281e-08 -1.85681796796e-07 3.99977171078e-07 -3.60654851186e-08 -6.41253404152e-07 5.65595174226e-07 -3.55880307404e-08 -1.30854057261e-06 7.0609292324e-07 -2.97991008652e-08 -2.13579002765e-06 8.00566900813e-07 -4.96269062188e-08 -3.11576964193e-06 8.81681106175e-07 -6.33359159688e-08 -4.23082134676e-06 9.59081893542e-07 -6.83823047763e-08 -5.48467277098e-06 1.04019668103e-06 -8.87453588071e-08 -6.81607277063e-06 1.12249363409e-06 -1.04067035272e-07 -8.25626078894e-06 1.16558452746e-06 -1.19298026873e-07 -9.78019197661e-06 1.18205170973e-06 -1.40325962413e-07 -1.13342767721e-05 0 0 0 0 0 0 0 0 0 0 0 0 -5.35546289734e-07 -1.66094538011e-07 -1.29087741265e-05 2.9697012114e-07 -1.64495604852e-07 -1.29070763162e-05 -3.48545708987e-07 -1.67420912117e-07 -1.29048146074e-05 5.06815521042e-07 -1.61729929508e-07 -1.29033567462e-05 -2.2444230011e-08 -1.29876592931e-07 -1.05014521834e-05 -5.37366066897e-09 -2.07247872337e-08 -3.68686531622e-07 -1.22066689308e-08 -1.11962742877e-07 -8.99077707611e-06 3.12081905943e-09 -1.32153454917e-08 -1.67566166385e-06 -1.31403223627e-08 -8.80053320828e-08 -7.49962348096e-06 7.49830280404e-09 -3.27932808501e-08 -2.57986362107e-06 -8.17585962455e-09 -6.68501891588e-08 -3.62842012332e-06 -3.5903660898e-10 3.19169766499e-09 -9.15943752231e-07 -1.13228986669e-08 -5.21428621758e-08 -4.82050454801e-06 1.47692158908e-09 -7.54443249549e-08 -6.11451226691e-06 -7.86400213053e-08 -1.48305953021e-07 -1.17141522574e-05 9.84535259219e-09 3.15943462954e-09 -8.03985212272e-08 1.3385263779e-08 -1.30323582357e-07 -1.05186354535e-05 2.31912005905e-08 -9.57512297115e-08 -7.5139312975e-06 -1.07380383205e-08 7.75022746484e-09 -3.72494361868e-07 1.585559979e-08 -1.09366269567e-07 -9.00678301873e-06 2.85462953956e-08 -1.77754230681e-08 -1.67590971126e-06 2.65416141451e-08 -4.7600932298e-08 -2.60023507754e-06 4.76813067703e-10 -3.31487883146e-08 -9.30168496235e-07 1.40236726714e-08 -2.98303909476e-08 -3.64334907889e-06 9.14114000779e-09 -7.17956148135e-08 -4.83298541905e-06 2.25999358375e-08 -7.34819078033e-08 -6.12237679561e-06 -4.35541442803e-08 -1.473608582e-07 -1.17248211885e-05 3.91093686988e-09 4.80787706181e-09 -9.10241502456e-08 -1.14571653065e-06 -1.33280932295e-07 -1.05099539491e-05 -5.96511321423e-07 -4.97752863259e-08 -1.68656387441e-06 -3.30487823582e-07 -1.16358700443e-08 -3.94788807438e-07 -1.11972798246e-06 -1.16070548142e-07 -9.00965351514e-06 -7.01813556416e-07 -3.68570322577e-08 -2.60104461292e-06 -9.18750064939e-07 -6.9075971297e-08 -4.81620882279e-06 -9.95937894103e-07 -8.84975188351e-08 -6.139046519e-06 -4.77056443574e-07 -4.98892057381e-09 -8.96758352292e-07 -8.14160783064e-07 -5.38253752654e-08 -3.68356130167e-06 -1.06438761751e-06 -9.87012396208e-08 -7.51904496324e-06 -1.15628377644e-06 -1.51653453943e-07 -1.17242491241e-05 -1.70111497669e-07 1.34967630708e-09 -1.35102316556e-07 1.15230879189e-06 -1.28165476471e-07 -1.05161339626e-05 1.06180464929e-06 -8.4722428371e-08 -7.5373078972e-06 3.25642748647e-07 -8.90875177898e-09 -3.6465574708e-07 6.12042328772e-07 -1.11984699013e-08 -1.69107351495e-06 7.16711658697e-07 -2.69481212682e-08 -2.59533491055e-06 9.17659487907e-07 -5.50705025228e-08 -4.84769686997e-06 9.7713248961e-07 -6.73980884506e-08 -6.11804645331e-06 1.12684960974e-06 -1.0320013116e-07 -8.99885533831e-06 8.19677364226e-07 -4.20978642907e-08 -3.62239940279e-06 4.7774993697e-07 -9.88203481433e-09 -9.76582784721e-07 1.16304550935e-06 -1.4416730854e-07 -1.17224362634e-05 1.78508308387e-07 7.74115067639e-09 -1.37789623193e-07</DataArray>
        <DataArray type="Float64" Name="DisplacementMagnitude" format="ascii">0 0 0 0 1.2954470247e-05 1.29570160469e-05 1.2965700235e-05 1.29638032868e-05 0 0 0 0 1.29022764399e-05 1.2961953702e-05 1.29117082256e-05 1.296237424e-05 3.0953323435e-07 7.55540635826e-07 1.41787277294e-06 2.22275053568e-06 3.20115715155e-06 4.31140669764e-06 5.54406836741e-06 6.88992227215e-06 8.32080062773e-06 9.83463395363e-06 1.13833679625e-05 2.60486629799e-07 7.41752164383e-07 1.4114929895e-06 2.23582431206e-06 3.19281080898e-06 4.30524090136e-06 5.55504303398e-06 6.87619429455e-06 8.31508890032e-06 9.82680765439e-06 1.13818723251e-05 2.77035955277e-07 7.55534503467e-07 1.38973788433e-06 2.23863149794e-06 3.21058723035e-06 4.32023565494e-06 5.55104558257e-06 6.89613655891e-06 8.33444312015e-06 9.84260668805e-06 1.13908866553e-05 3.00765251279e-07 7.56629622033e-07 1.42598837275e-06 2.24967869814e-06 3.2173577131e-06 4.32217795555e-06 5.56831658788e-06 6.89555892503e-06 8.33286650087e-06 9.85012560373e-06 1.13966121091e-05 0 0 0 0 1.29209460441e-05 1.29115401517e-05 1.2910606257e-05 1.29143189469e-05 1.0502279259e-05 3.6930766528e-07 8.99148247459e-06 1.67571668147e-06 7.50015132932e-06 2.58008293029e-06 3.62904510634e-06 9.15949383477e-07 4.82079984893e-06 6.11497786502e-06 1.17153549677e-05 8.106068844e-08 1.05194512787e-05 7.51457714534e-06 3.72729689073e-07 9.00746094787e-06 1.67624706322e-06 2.60080617588e-06 9.30759099287e-07 3.64349818529e-06 4.83352730741e-06 6.12285946069e-06 1.17258280768e-05 9.12349003232e-08 1.05730583176e-05 1.78963712472e-06 5.14991065442e-07 9.07970922385e-06 2.69431508685e-06 4.90354367742e-06 6.21993699825e-06 1.01576733659e-06 3.77284757377e-06 7.59464943854e-06 1.17821054343e-05 2.17238070338e-07 1.05798542268e-05 7.61220187201e-06 4.88974825e-07 1.79845790912e-06 2.69261306185e-06 4.93409532124e-06 6.19595213099e-06 9.06972092789e-06 3.71421871258e-06 1.08722426035e-06 1.17808731009e-05 2.25634930445e-07</DataArray>
        <DataArray type="Float64" Name="NodalVonMises" format="ascii">18825.0261012 17184.5476401 17465.4212466 19203.0005432 1782.04205239 1720.0992506 1841.33399865 1693.8248405 7578.63078506 23134.9661103 8511.5623079 22234.9449144 1472.98854054 1919.75867512 1583.34702991 1832.93316908 18860.0524068 14257.95883 11556.8142107 9715.61455903 10542.4990515 9139.13483206 7056.04354943 6468.72978269 5709.55924647 3575.5684951 2446.46310469 18357.411798 14936.7633093 12400.1701319 9565.10838107 9204.59884613 8464.9030814 6805.09000996 7665.91282908 5682.63787473 3121.44395549 2068.20152044 19275.9295695 14354.9102884 12244.6659949 9929.11613079 9612.46889228 8987.27207724 7342.58605597 6477.59902499 4986.91169957 2723.04100779 1902.18328186 17903.9619505 14354.3609974 12916.1240058 10317.0954748 8862.27278213 8561.13749942 7065.68175857 7975.05719347 5961.92997549 2955.09776815 1855.92005656 17917.6836854 14466.0115523 14697.512818 15652.8105628 1833.7333881 1974.80363472 1814.99508623 1875.60840034 2836.77959404 10245.2981648 3506.1906815 7076.65240084 5793.40171638 7419.35750366 7894.64452328 11565.6295011 6311.00629437 5811.56622625 2024.33366012 13574.1432833 1682.38171535 5049.71429199 11726.764366 2679.38307573 9012.81460415 6126.24962713 11474.1837795 7740.42384301 6232.24183363 5892.04580488 1949.18449295 13264.3248254 2536.72577012 9902.89383097 14338.0894708 3593.09805803 8648.74877705 7208.58039197 6667.22533933 11642.4250312 11768.1492148 5623.92620899 2001.46964634 19069.6305886 2308.24026281 8181.67291489 12414.7435271 11102.0562709 8987.11531639 7247.14658025 6987.09477174 3669.89618412 8269.01807229 15915.9496232 2073.9015445 18582.8080695</DataArray>
        <DataArray type="Float64" Name="NodalStressTrace" format="ascii">38211.818822 -27661.0504489 30255.3170222 -37970.7763363 482.110357802 -593.547680831 519.76218672 -514.362497853 3445.87340727 62477.9079356 1368.82790446 -59539.0241842 -91.6642882085 837.051081643 -5.43867455278 -714.753620193 -18977.0302949 -15920.3877372 -13412.8197069 -9843.05852691 -8735.99939451 -8329.49788074 -7474.14036966 -6751.5736248 -4557.7937489 -2796.56654833 -1199.39017328 26367.2736519 16886.7329676 11782.8074936 10441.8522913 9326.80705108 7949.80848449 6538.27043504 6457.01578094 4963.33206314 2202.84171813 912.756728336 -27257.9676091 -17220.3275159 -12207.2043164 -9812.08046303 -8813.69188439 -8227.821739 -7195.5224451 -5906.56634085 -4610.33726218 -2463.6296646 -1070.56921657 19569.8508243 15562.6947117 12648.6047589 9905.88950964 9376.4817812 7934.91969289 6544.51589372 7073.21783823 5095.85198487 3112.63806014 1382.87194067 -33371.0746546 7284.78278884 -26256.4807912 26814.2156576 -401.887714547 266.914902521 -208.085316461 353.226517516 142.738564698 -1109.48238732 -1421.58155474 2844.81134855 942.440282766 -116.950678323 -4214.09883213 3023.6296919 2700.27343159 -1676.47069738 -58.442291745 2480.79722117 14.2337068691 1323.42949106 -5010.85995368 79.6109860425 -3693.32715984 3377.86549509 7666.93297267 -4645.08475145 2771.54049269 -2195.75918684 2.32583896762 1774.81023378 -1035.54453942 -10737.4831583 -15810.8261859 -3866.77026892 -5856.32327995 -2913.85734768 -9127.09035911 -11969.8313173 -12261.1845535 -5678.88525008 -1059.3006001 -34581.5726217 2076.84010084 10046.2357059 9886.51861302 7183.29653765 9217.01658817 8173.88046497 5783.28075089 2128.1990419 6152.25747325 18471.2727728 585.653527515 34193.9688132</DataArray>
        <DataArray type="Float64" Name="NodalPrincipalStress" NumberOfComponents="3" format="ascii">4892.89342705 8253.29918007 25065.6262149 -20361.5555585 -5458.81332426 -1840.68156607 2768.76691083 6001.57664018 21484.9734712 -25184.3991696 -7987.76704228 -4798.61012446 -697.624699879 -116.406227195 1296.14128488 -1292.49164673 59.2745103438 639.669455553 -718.547882746 -108.980494862 1347.29056433 -1257.05437148 111.098180508 631.593693123 -3039.47037474 795.201555523 5690.14222649 11880.3914128 14417.9787544 36179.5377684 -4386.176208 315.883362567 5439.12074989 -34597.0592429 -13739.7748117 -11202.1901296 -869.327351552 -47.3114725646 824.974535908 -608.484316129 -75.6901991257 1521.2255969 -889.907282839 -40.6697177736 925.138326059 -1430.58914611 127.561255547 588.274270367 -18448.2483491 -2428.85872735 1900.07678153 -14074.8308942 -3500.06050341 1654.50366045 -11271.0173148 -3975.91888733 1834.11649527 -9215.62349498 -2255.84983708 1628.41480515 -9691.91670963 -1025.14073654 1981.05805165 -8359.56980751 -1683.32877833 1713.4007051 -6823.90750561 -1657.32665832 1007.09379427 -6376.80465829 -1183.25460041 808.485633899 -5093.39543141 -791.713367755 1327.31505027 -3188.53469874 -421.256009207 813.224159617 -1906.9271546 -134.141744003 841.678725322 236.993645543 5753.7121106 20376.5678957 -1185.12778373 2849.18145384 15222.6792975 -1717.09311763 1637.17172545 11862.7288857 -993.653482217 1870.26449339 9565.2412801 -1525.31048103 2178.54033108 8673.57720103 -1439.118827 1532.67987783 7856.24743367 -1206.96395149 1304.54090481 6440.69348172 -1545.10666911 1076.05953266 6926.06291739 -983.190437249 691.824358878 5254.69814151 -833.20705725 360.285412736 2675.76336265 -714.292369412 34.1627843426 1592.88631341 -21609.7686485 -4783.50972034 -864.689240278 -14406.1493698 -3961.98066928 1147.80252324 -11501.1238499 -2748.84058214 2042.76011568 -9545.78709203 -1702.24113582 1435.94776482 -9041.51809791 -1330.30577234 1558.13198587 -8241.67167228 -1583.03024785 1596.88018113 -6958.21068073 -1370.10107062 1132.78930625 -6087.32830685 -845.262313649 1026.02427965 -4709.12852776 -685.085968289 783.877233863 -2566.25312019 -354.687897948 457.311353536 -1560.30122973 -90.9226961185 580.654709275 -1848.50255602 3827.27910233 17591.074278 -1471.70926438 2757.35809223 14277.0458839 -1459.39169907 1481.44275904 12626.553699 -1505.28257749 1559.85967148 9851.31241565 -1213.59665034 2054.15197288 8535.92645866 -1511.89205222 1569.78323356 7877.02851155 -1264.76717535 1180.33856177 6628.9445073 -1367.99567494 1016.86525358 7424.34825959 -1088.96543841 717.728881602 5467.08854167 -355.537492414 555.416813788 2912.75873876 -412.593755768 145.055878767 1650.40981767 -22782.365077 -6949.73473427 -3638.97484333 -5096.85475907 1866.77799182 10514.8595561 -18178.4496142 -5701.882679 -2376.14849801 1988.75828181 5788.72406052 19036.7333152 -1284.7946396 106.577002902 776.329922147 -984.985196542 -5.53578266127 1257.43588172 -1164.15809076 71.2825036843 884.790270618 -811.247052377 -137.09410045 1301.56767034 -1562.10047785 61.9258112086 1642.91323133 -6378.2848179 270.169641602 4998.63278897 -2557.31682971 -247.40307418 1383.13834915 -2505.59781066 73.4988204312 5276.91033877 -2788.80945019 63.6533008756 3667.59643208 -4216.30741177 169.629345972 3929.72738747 -6263.32549694 -352.924872128 2402.15153693 -4589.8552451 -506.059493723 8119.54443073 -2017.84201492 -182.851237193 4900.9666837 -3961.27381155 -278.620850853 2563.42396502 -1160.58047827 -41.4610581848 1143.59924471 -6717.11363083 975.464051916 8222.44680009 -959.478937566 11.4800308635 962.232613572 -2188.98361044 104.453972677 3407.95912883 -8835.71033404 -255.758674616 4080.60905497 -1459.18982925 25.0668418643 1513.73397343 -6444.64627332 -797.502431889 3548.82154536 -1887.04046049 411.149971793 4853.75598379 -2627.43904059 353.895030171 9940.4769831 -6308.06900281 -491.21666197 2154.20091333 -1955.91450585 -149.351661538 4876.80666009 -4152.97698152 -468.668323867 2425.88611855 -1108.82157474 12.6389804127 1098.5084333 -6729.67196283 720.697023632 7783.78517298 -1843.51214171 -196.97345352 1004.94105581 -9552.32050213 -2520.17128922 1335.00863303 -14474.2452691 -2250.91449088 914.333574066 -3571.38043136 -688.330074231 392.940236665 -7220.95232501 -887.524042064 2252.15308713 -5010.84901165 -802.838951725 2899.83061569 -7357.53104055 -1636.4044836 -133.154834965 -10715.1207972 -3236.73853582 1982.02801578 -11808.2706445 -1413.27696069 960.363051638 -5356.99654967 -1159.86384587 837.975145464 -1612.89285788 -84.2635356972 637.855793477 -23910.6588063 -6927.55542605 -3743.35838941 -438.790988661 387.470477565 2128.16061194 -217.361747154 1578.31466669 8685.28278639 -2910.76351091 2134.91632528 10662.3657986 -2877.0940128 738.120355115 9322.27019533 -1122.12994762 1769.40501021 8569.74152558 -528.308962922 1319.13024795 7383.05917994 -1635.9190256 1225.85198598 6193.34779051 -1176.96754265 382.237567591 2922.92901696 -2127.89821864 1508.52922093 6771.62647096 -522.474506219 2369.9786991 16623.7685799 -879.897364752 13.5290696288 1452.02182264 3577.35707448 7117.3921239 23499.2196148</DataArray>
        <DataArray type="Float64" Name="ShellTopNodalVonMises" format="ascii">0 0 0 0 0 0 0 0 0 0 0 0 0 0 0 0 0 0 0 0 0 0 0 0 0 0 0 0 0 0 0 0 0 0 0 0 0 0 0 0 0 0 0 0 0 0 0 0 0 0 0 0 0 0 0 0 0 0 0 0 0 0 0 0 0 0 0 0 0 0 0 0 0 0 0 0 0 0 0 0 0 0 0 0 0 0 0 0 0 0 0 0 0 0 0 0 0 0 0 0 0 0 0 0 0 0 0 0 0 0 0 0 0 0 0 0</DataArray>
        <DataArray type="Float64" Name="ShellBottomNodalVonMises" format="ascii">0 0 0 0 0 0 0 0 0 0 0 0 0 0 0 0 0 0 0 0 0 0 0 0 0 0 0 0 0 0 0 0 0 0 0 0 0 0 0 0 0 0 0 0 0 0 0 0 0 0 0 0 0 0 0 0 0 0 0 0 0 0 0 0 0 0 0 0 0 0 0 0 0 0 0 0 0 0 0 0 0 0 0 0 0 0 0 0 0 0 0 0 0 0 0 0 0 0 0 0 0 0 0 0 0 0 0 0 0 0 0 0 0 0 0 0</DataArray>
      </PointData>
      <CellData Scalars="VonMises">
        <DataArray type="Int32" Name="ElementIndex" format="ascii">0 1 2 3 4 5 6 7 8 9 10 11 12 13 14 15 16 17 18 19 20 21 22 23 24 25 26 27 28 29 30 31 32 33 34 35 36 37 38 39 40 41 42 43 44 45 46 47 48 49 50 51 52 53 54 55 56 57 58 59 60 61 62 63 64 65 66 67 68 69 70 71 72 73 74 75 76 77 78 79 80 81 82 83 84 85 86 87 88 89 90 91 92 93 94 95 96 97 98 99 100 101 102 103 104 105 106 107 108 109 110 111 112 113 114 115 116 117 118 119 120 121 122 123 124 125 126 127 128 129 130 131 132 133 134 135 136 137 138 139 140 141 142 143 144 145 146 147 148 149 150 151 152 153 154 155 156 157 158 159 160 161 162 163 164 165 166 167 168 169 170 171 172 173 174 175 176 177 178 179 180 181 182 183 184 185 186 187 188 189 190 191 192 193 194 195 196 197 198 199 200 201 202 203 204 205 206 207 208 209 210 211 212 213 214 215 216 217 218 219 220 221 222 223 224 225 226 227 228 229 230 231 232 233 234 235 236 237 238 239 240 241 242 243 244 245 246 247 248 249 250 251</DataArray>
        <DataArray type="Float64" Name="VonMises" format="ascii">14870.8169646 14532.2926178 1062.65991808 2771.66090595 3985.98157524 5672.03104815 6087.51652601 3366.55058438 5962.21731709 1149.42020106 8386.27432564 1289.55181704 4822.11753126 710.054345592 6809.03862246 16020.4821843 13912.4335427 10858.191073 15336.5390334 3862.7097867 9081.05756414 2866.22613058 11858.2050272 11020.9242084 4757.51433457 6649.44945974 7220.41701978 12723.3698351 3904.3333449 10048.6413887 10822.9498207 8219.9578857 11853.2264794 11927.1589742 4437.25088691 3069.8238023 7983.44913967 7827.49838029 5294.61293369 4244.80762018 9108.79608725 2381.92574914 6997.9228616 5521.57299213 4468.63908482 9322.22019028 9319.1028119 11628.3838508 4414.55091493 11701.2360469 3527.24208589 3386.05875109 15287.0198498 16762.1361854 3649.47464484 5479.07080463 2308.08381682 3006.08597178 1859.24978599 22234.9449144 5210.0291528 2720.88134184 2735.29797642 5811.16176317 7578.63078506 1903.38982901 2365.74224339 2354.71871768 19449.0091979 21390.7083344 2214.60577076 14139.5653137 4183.39632068 12578.8404006 11480.8285343 14221.3546 4130.37263766 7206.72247974 5047.67631738 7069.43867318 6931.90645825 4179.13195932 14091.8566817 2630.97759808 2579.36635329 5877.21435371 2018.70552614 3293.79624561 10512.7850504 11582.7688011 4561.01705605 10399.2242204 3552.08737204 5253.30824636 7095.66942914 4552.64611456 7488.60391133 4071.10327158 4275.75378782 6445.26024401 2218.72610763 3045.96728217 11580.3752433 3568.27177379 5295.13353282 8254.25804746 8160.97645085 3642.76649341 4911.85270671 11092.37775 11029.4245932 10932.9303021 3984.32624804 9892.44745018 1851.17859799 2392.60340065 5437.54542962 2883.43250974 5138.98471234 6962.13115034 9286.05560674 3130.86127412 11148.178465 3174.48142319 11274.1141345 9307.45316113 4556.04037405 4473.89293721 15169.903237 2666.04326804 5494.36772598 14545.6485721 1071.39351945 2441.72824084 4998.92269847 1358.73199828 6617.45667854 15564.7022505 2176.44207132 5046.65253169 2661.58466298 15393.9104947 3178.83271319 3359.23576019 2092.6435675 17245.5197573 13221.0766225 2161.0475334 2251.10807234 11962.079889 9571.59489437 2049.57249796 13743.4809491 2064.17199174 20755.0554346 1437.10456414 2184.76889564 12378.0587577 1782.25425843 9766.23930817 14220.1791021 2043.56379302 1908.21804342 18341.4482086 1898.67496959 18317.2520274 22234.9449144 14061.8863576 20020.8896314 1702.34429581 2111.44594232 1935.32203466 1773.61148852 22234.9449144 8511.5623079 21099.6971951 24965.7977554 23134.9661103 1413.90915668 1900.46881475 2030.50012586 1660.53866296 7578.63078506 8511.5623079 1497.38768758 7578.63078506 1929.03598222 24565.617878 1802.83431933 23134.9661103 1983.2387585 1910.98078704 13999.8101323 1799.50248518 1880.79567928 8511.5623079 23134.9661103 1760.64315325 1323.61741994 14345.6696152 1875.56845211 20871.3669807 3050.57853563 7578.63078506 18373.913603 20776.5699549 2185.36322139 3646.2502582 1231.44497641 22234.9449144 19662.869513 2130.15088729 15805.0147298 16031.766099 8944.0536045 8489.03452553 19065.6206132 10399.3995081 13337.539984 14760.9142573 17911.413306 8805.62125257 17361.7412832 8902.26035598 4592.71194694 5204.39857159 10222.8649588 8713.58262541 4224.44843242 5552.71081839 10967.8934453 7827.27848599 12652.715046 8576.09491033 13658.7585711 8829.93982712 12333.3351067 11597.3598375 11269.7239546 11667.4738371 9455.2287245 9336.71346317 7602.17277252 9701.36476148 2111.58417565 2046.61522148 24924.8047286 23869.4869532 11453.3776059 20688.1136898 1566.31672614 1560.41610305</DataArray>
        <DataArray type="Int32" Name="HasVonMises" format="ascii">1 1 1 1 1 1 1 1 1 1 1 1 1 1 1 1 1 1 1 1 1 1 1 1 1 1 1 1 1 1 1 1 1 1 1 1 1 1 1 1 1 1 1 1 1 1 1 1 1 1 1 1 1 1 1 1 1 1 1 1 1 1 1 1 1 1 1 1 1 1 1 1 1 1 1 1 1 1 1 1 1 1 1 1 1 1 1 1 1 1 1 1 1 1 1 1 1 1 1 1 1 1 1 1 1 1 1 1 1 1 1 1 1 1 1 1 1 1 1 1 1 1 1 1 1 1 1 1 1 1 1 1 1 1 1 1 1 1 1 1 1 1 1 1 1 1 1 1 1 1 1 1 1 1 1 1 1 1 1 1 1 1 1 1 1 1 1 1 1 1 1 1 1 1 1 1 1 1 1 1 1 1 1 1 1 1 1 1 1 1 1 1 1 1 1 1 1 1 1 1 1 1 1 1 1 1 1 1 1 1 1 1 1 1 1 1 1 1 1 1 1 1 1 1 1 1 1 1 1 1 1 1 1 1 1 1 1 1 1 1 1 1 1 1 1 1 1 1 1 1 1 1</DataArray>
        <DataArray type="Float64" Name="StressTrace" format="ascii">-27730.2066551 -30363.681734 -143.454290181 5421.94520478 -4028.59106777 -166.908461305 -2942.85183151 4435.57625264 -10531.1916535 58.260264916 5033.09224297 1690.25967286 3183.20284536 -1433.97193218 -7211.14538315 10157.8366308 -28258.3660379 -27697.0832627 19839.0733184 -5920.76139804 10185.2320403 3093.32581714 20641.4755942 31135.5212778 -5025.5860447 -2188.57317755 -10896.1432897 -17176.7460529 788.527701235 28339.4420479 22533.2711801 10466.4804328 -12441.8845996 -12176.815407 4266.33238569 -8522.46111806 10422.8749538 -12707.6864453 -5380.3066163 3717.09217288 -26330.8923395 -5021.45534968 -3354.27625383 -5626.08659511 1119.49436819 16734.2680538 16807.0669445 -10405.4240966 844.13918867 -10140.354904 -5001.89145958 1381.76502761 25077.7018902 15701.9990819 14531.0286791 12257.9474978 -437.572362984 -628.390955196 425.943353377 -59539.0241842 7906.86521629 2275.36535698 2577.18185265 4209.04663087 3445.87340727 -748.635445162 -3319.03309176 -3505.5136909 31124.5441113 -37769.8443761 215.676229401 -21074.1532939 707.275978188 -31862.0419542 -21489.5622505 19086.7978722 -4695.87970722 9492.76788124 -11272.7659454 8930.90072267 -1003.62437097 -403.282367097 19090.6814718 -3177.914412 -1758.29151005 -11223.3810235 1642.31195053 2441.62855346 21041.3166035 -15079.3962457 -3531.23284605 22212.9752179 -1860.13444424 14781.079455 -15481.1036544 -3278.17788634 -12938.165569 2416.42312261 1363.75154705 -13920.5730021 2636.40686114 -703.426875389 -14786.7339602 -1556.32165937 13995.0912329 13666.3884996 14121.0527313 1899.79800848 -246.372779222 -18485.6272963 21009.3007517 21890.5519137 -5944.70743921 -21551.679074 -572.987875356 -3776.50972525 -5132.5422605 692.662460456 -2690.75972016 -11353.0622456 17007.6581029 -1236.10664158 -12761.0251064 -1220.2563669 -12204.7504596 16887.5696152 1199.99703883 1117.52923774 -25803.955805 4484.99299155 -894.127937548 -28309.5810158 -65.1178744895 -5905.23126031 2438.01200365 613.593081899 -984.714021185 22192.7540248 -1244.98714088 2042.84246624 1454.79891871 23160.8052882 -4442.87952825 6214.8480346 129.912479951 -24927.2770361 13145.81901 530.62616895 623.176861805 -4374.67557335 30332.8769285 -261.183232708 9370.29187567 -829.548263698 -45615.0097599 2913.3518894 1801.15665861 -2587.57232101 364.628461547 -6855.87401238 -5820.06904606 -332.307725671 -3145.7254761 41294.4299615 -2837.23607187 32762.3665181 -59539.0241842 5965.19186995 45801.6938054 1074.19578443 550.96751988 -565.671107174 224.131788277 -59539.0241842 1368.82790446 -50795.8801252 -42917.0289404 62477.9079356 -375.222171333 678.500298228 -564.515223952 -865.751422651 3445.87340727 1368.82790446 -224.334106062 3445.87340727 26.6014881327 41121.8001398 -769.989814324 62477.9079356 802.917330502 -10.6511426005 -20698.2407051 -322.235054511 652.542085863 1368.82790446 62477.9079356 -808.599939081 181.416594271 22714.4825277 1029.7356162 -27770.109659 2099.88116567 3445.87340727 -23144.4843752 26608.0984554 1963.47995586 -2294.92850269 -123.902481569 -59539.0241842 17912.8610703 -2509.8898999 -12013.1000659 13167.9194463 -4959.13225458 9209.23918376 -14270.3280238 -8226.1848276 13100.1044814 -14322.5305782 19640.2073278 9731.21234566 18739.1004847 -9564.67231528 3471.47985619 4337.34212458 11391.0452797 7875.12000057 -3515.34231216 -4440.90534902 -8176.60661459 -5344.93766359 -11880.3554526 7630.31346923 -9347.99742683 7272.92166199 -10735.1053034 10553.2624953 6401.12493535 5776.99211701 -8012.62924379 -8179.04990461 -8819.25170301 7586.03022779 621.10515088 -1158.06337292 -33852.8103135 34460.0497212 16854.6857491 -35765.51224 2618.70007274 328.202583204</DataArray>
        <DataArray type="Float64" Name="HydrostaticPressure" format="ascii">9243.40221837 10121.2272447 47.8180967271 -1807.31506826 1342.86368926 55.6361537685 980.950610505 -1478.52541755 3510.39721785 -19.4200883053 -1677.69741432 -563.419890952 -1061.06761512 477.990644061 2403.71512772 -3385.94554361 9419.45534596 9232.36108756 -6613.02443946 1973.58713268 -3395.07734675 -1031.10860571 -6880.49186475 -10378.5070926 1675.19534823 729.524392517 3632.04776322 5725.58201763 -262.842567078 -9446.48068262 -7511.09039336 -3488.82681093 4147.29486654 4058.938469 -1422.11079523 2840.82037269 -3474.29165126 4235.89548178 1793.43553877 -1239.03072429 8776.96411315 1673.81844989 1118.09208461 1875.36219837 -373.164789396 -5578.08935127 -5602.35564818 3468.47469888 -281.379729557 3380.11830135 1667.29715319 -460.588342536 -8359.23396339 -5233.99969395 -4843.67622638 -4085.98249927 145.857454328 209.463651732 -141.981117792 19846.3413947 -2635.62173876 -758.455118992 -859.060617551 -1403.01554362 -1148.62446909 249.545148387 1106.34436392 1168.50456363 -10374.8480371 12589.9481254 -71.8920764669 7024.71776464 -235.758659396 10620.6806514 7163.18741684 -6362.26595741 1565.29323574 -3164.25596041 3757.58864848 -2976.96690756 334.541456991 134.427455699 -6363.5604906 1059.304804 586.097170016 3741.12700784 -547.437316844 -813.876184485 -7013.77220116 5026.46541522 1177.07761535 -7404.32507264 620.044814745 -4927.026485 5160.36788481 1092.72596211 4312.72185633 -805.474374202 -454.583849017 4640.19100069 -878.802287047 234.47562513 4928.91132007 518.773886455 -4665.03041095 -4555.4628332 -4707.01757708 -633.266002826 82.1242597407 6161.87576543 -7003.10025058 -7296.8506379 1981.5691464 7183.89302466 190.995958452 1258.83657508 1710.84742017 -230.887486819 896.91990672 3784.35408188 -5669.21936763 412.035547194 4253.67503547 406.752122302 4068.25015321 -5629.18987172 -399.999012942 -372.509745913 8601.31860167 -1494.99766385 298.042645849 9436.52700528 21.7059581632 1968.4104201 -812.670667882 -204.5310273 328.238007062 -7397.58467493 414.995713628 -680.947488748 -484.932972903 -7720.2684294 1480.95984275 -2071.61601153 -43.3041599836 8309.09234538 -4381.93967 -176.87538965 -207.725620602 1458.22519112 -10110.9589762 87.0610775694 -3123.43062522 276.516087899 15205.0032533 -971.117296465 -600.385552869 862.524107003 -121.542820516 2285.29133746 1940.02301535 110.76924189 1048.5751587 -13764.8099872 945.745357289 -10920.7888394 19846.3413947 -1988.39728998 -15267.2312685 -358.065261478 -183.65583996 188.557035725 -74.7105960923 19846.3413947 -456.275968153 16931.9600417 14305.6763135 -20825.9693119 125.074057111 -226.166766076 188.171741317 288.58380755 -1148.62446909 -456.275968153 74.778035354 -1148.62446909 -8.86716271091 -13707.2667133 256.663271441 -20825.9693119 -267.639110167 3.55038086685 6899.41356837 107.411684837 -217.514028621 -456.275968153 -20825.9693119 269.533313027 -60.4721980904 -7571.4941759 -343.2452054 9256.70321968 -699.960388558 -1148.62446909 7714.82812508 -8869.36615182 -654.49331862 764.976167564 41.3008271897 19846.3413947 -5970.9536901 836.629966634 4004.36668863 -4389.30648211 1653.04408486 -3069.74639459 4756.77600794 2742.0616092 -4366.7014938 4774.17685942 -6546.73577595 -3243.73744855 -6246.36682823 3188.22410509 -1157.15995206 -1445.78070819 -3797.01509324 -2625.04000019 1171.78077072 1480.30178301 2725.5355382 1781.64588786 3960.11848421 -2543.43782308 3115.99914228 -2424.30722066 3578.36843446 -3517.7541651 -2133.70831178 -1925.664039 2670.8764146 2726.3499682 2939.75056767 -2528.6767426 -207.035050293 386.021124306 11284.2701045 -11486.6832404 -5618.22858302 11921.8374133 -872.900024246 -109.400861068</DataArray>
        <DataArray type="Float64" Name="PrincipalStress" NumberOfComponents="3" format="ascii">-19138.8065548 -4819.59141517 -3771.80868515 -19761.0847518 -6138.37873866 -4464.21824347 -699.583899093 37.6144534235 518.515155488 432.063050173 1426.19751237 3563.68464224 -3899.26671315 -692.849296939 563.524942325 -2603.32819016 -1201.69255154 3638.1122804 -4107.3316534 -1658.72535707 2823.20517896 164.50045202 559.818570968 3711.25722965 -7419.93995087 -2176.87606348 -934.375639188 -620.579289746 -25.5316303099 704.371184972 -2624.72947661 736.97923736 6920.84248222 -117.911347248 450.042078761 1358.12894134 -1275.62744959 317.392320021 4141.43797493 -930.02259919 -373.668510031 -130.280822961 -6062.570171 -2901.07089706 1752.49568492 -3994.297657 390.189674884 13761.9446129 -18165.6043678 -7719.81688747 -2372.94478265 -16143.4956979 -7641.53726543 -3912.05029935 298.41146041 2806.32415358 16734.3377044 -3745.32587847 -2706.11676125 530.681241676 -954.309770487 1922.76401305 9216.7777977 -140.515022385 309.674855184 2924.16598434 2755.29484803 3102.76466852 14783.4160777 4586.74352236 9359.22227476 17189.5554807 -4558.02662247 -1379.03532933 911.47590711 -4463.98494081 -930.807114648 3206.21887791 -8321.88399424 -2226.39411587 -347.865179546 -13931.2356335 -3483.35095806 237.840538693 -2255.23931037 951.164047667 2092.60296393 5143.05544035 7151.98184816 16044.4047593 3409.41681914 4421.14711402 14702.7072469 -793.286673462 2668.43166355 8591.33544271 -11952.1909973 -1315.2158723 825.522269982 -11890.6679196 -1333.47315488 1047.32566749 -1524.61428804 2670.36534678 3120.58132695 -4879.51454926 -1976.60956821 -1666.3370006 -496.822698862 2390.99863411 8528.69901854 -9263.50094853 -2932.7252625 -511.460234316 -4632.0606894 -2190.97852913 1442.73260223 -1035.29755547 917.872631497 3834.51709686 -14801.1355835 -6427.25336585 -5102.50339007 -2909.08679852 -1920.34523954 -192.023311621 -5365.58220137 -665.50298544 2676.80893298 -4822.0983822 -2312.53037489 1508.54216198 -1415.50384682 -795.688589358 3330.68680437 2085.16347808 2872.8636878 11776.2408879 2050.55071363 2963.84191927 11792.6743116 -11106.3334564 -798.648823024 1499.55818281 -1412.29606746 -956.172765898 3212.60802203 -11046.7809654 -794.32629633 1700.75235764 -3908.65377759 -1162.56197083 69.3242888439 -1516.08146794 504.793860164 2393.05263538 2309.70684678 4281.1759078 18486.8191356 -2156.03621047 1669.75252049 16188.2827718 2916.72539028 4520.80005271 7093.50323616 613.52032775 4840.76373342 6803.66343664 -1526.46843449 -43.9270936533 1132.82316516 -1907.64589032 -281.956551031 1561.21148615 -760.160125257 -143.070400976 1329.17387961 -34597.0592429 -13739.7748117 -11202.1901296 76.8187115359 1880.93134396 5949.11516079 -701.944151624 556.905197508 2420.40431109 -565.68667504 585.775581821 2557.09294587 -1974.4460788 1448.24447742 4735.24823224 -3039.47037474 795.201555523 5690.14222649 -1476.3051941 82.8975331701 644.772215768 -2632.76803765 -686.792044016 0.52698990456 -2667.26829579 -823.491179884 -14.7542152256 1068.14843841 7209.82248125 22846.5731917 -26444.9990446 -8586.28552781 -2738.55980372 -1237.17675158 135.173293847 1317.67968713 -16371.2001326 -3412.08313428 -1290.87002699 -2313.62203636 531.114976907 2489.78303764 -18856.4001382 -7871.06869578 -5134.57312019 -14736.8983588 -4333.2287725 -2419.43511917 104.598364527 3322.88774046 15659.3117673 -4152.01222553 -1089.44400146 545.576519765 -55.4113043519 1685.79070913 7862.38847645 -7073.34782327 -2597.01971798 -1602.39840419 -64.9472971341 1380.38392252 7615.46409728 -4622.50436228 317.079569757 3301.80042155 -2194.44278778 -728.909638244 2520.07005893 326.910994051 3147.89598207 15615.8744957 -2715.0310195 -732.715804569 269.832412075 -2200.28094303 -292.345640085 734.335073068 -7656.27284347 -1916.24797625 -1650.86020379 -667.41268862 653.369283478 1656.35535568 -1084.747655 807.790173354 2718.5860351 3053.28015906 3986.48121014 14001.5552343 -12562.1205027 -2718.29690733 201.021164424 -3762.93872447 -1269.5292963 1501.23517472 3677.77236411 4204.74072585 14330.462128 -2696.90321996 -566.891854135 1403.66062986 2561.08262341 3873.74826358 8346.24856801 -9889.35675716 -2897.55792677 -2694.18897049 -3718.75450655 -1097.60500032 1538.18162053 -9257.7679439 -2434.2966503 -1246.1009748 -1579.58840371 876.295487866 3119.71603845 -2127.29385394 699.361082994 2791.68431799 -8915.74785863 -2872.32702608 -2132.49811737 -302.996696515 699.358639663 2240.04491799 -1760.71005227 -631.356364025 1688.63954091 -12525.5251479 -2322.36389879 61.1550864688 -2737.89826359 -151.3727763 1332.94938052 2426.88554949 3419.95879761 8148.24688576 1271.05596268 2373.99931953 10021.3332174 1404.52358788 2613.8470871 10102.6820563 -1424.87266401 545.958086872 2778.71258561 -3179.77344393 547.175371899 2386.22529281 -13461.6985486 -3535.71005398 -1488.21869375 2727.33389126 3960.46523069 14321.5016298 3240.53806188 4080.70196298 14569.3118888 -4489.76970273 -1484.64521969 29.7074832187 -13732.6870012 -4584.14059028 -3234.85148247 -1187.6763165 -322.940317127 937.628758268 -2733.94801677 -1046.84564905 4.28394057761 -5036.41949093 -1297.48574611 1201.36297654 -1640.32818702 785.302101656 1547.68854582 -3815.57816347 -991.337897338 2116.15634065 -8346.84734425 -2241.23445512 -764.980446276 2206.15506298 2956.76695726 11844.7360827 -1627.04976989 -1274.30260271 1665.24573102 -11538.8662834 -1884.57292279 662.41409976 -1706.52153355 -1203.26306687 1689.52823352 -11409.8636543 -1791.74725768 996.86045235 2132.08262253 2938.83498394 11816.6520087 -1720.62635655 -422.871510352 3343.49490572 -1684.61512396 -469.244358357 3271.38872006 -18711.6453215 -3757.40143498 -3334.90904856 243.030650094 1028.41713002 3213.54521143 -3157.8627502 -850.243580517 3113.97839317 -19120.8136555 -5025.94076561 -4162.82659468 -594.716964277 -104.486001343 634.08509113 -3548.85272805 -1515.82395649 -840.554575767 -1677.12319209 139.120930319 3976.01426542 -595.541390992 236.739411915 972.395060976 -3662.18028389 -1163.37250894 3840.83877165 1141.74424223 3356.00950628 17695.0002763 -1716.4567574 -319.797423264 791.267039783 -1781.75248012 -72.872269193 3897.46721556 -1019.03545615 421.501017985 2052.33335687 1572.69126711 3677.43575827 17910.6782628 -3569.68908446 -746.81034446 -126.38009933 882.239332206 1022.97674128 4309.63196111 -1009.09714543 -223.626735551 1362.63636093 -19758.1838175 -3492.68329875 -1676.40991988 -2296.21265128 2739.31596687 12702.7156944 -1063.88640199 163.149475715 1431.36309522 -1106.76479377 237.875356056 1492.06629952 -8617.82014059 -920.181904897 5163.32647214 6685.47991467 7161.29074125 16486.1062726 -1362.18870447 125.313021994 975.692449773 -4962.73156571 3435.34899314 10897.6744482 -1556.63629167 -73.7635075622 800.851535539 -28995.3389848 -9290.01683651 -7329.6539385 273.58019547 751.111137042 1888.66055688 -545.02190416 393.921117789 1952.25744498 -8619.94963473 579.20799295 5453.16932077 -942.94140681 196.657951938 1110.91191642 -8493.00890906 -881.822307451 2518.95720413 -10965.2105034 59.8051203479 5085.33633702 -1151.7401843 -351.424766063 1170.85722469 -2272.45074902 -737.239711582 -136.035015502 6583.81015319 8784.36060817 25926.2592002 -2179.27345046 -574.871284537 -83.0913368676 4598.75175095 5033.90932738 23129.7054398 -34597.0592429 -13739.7748117 -11202.1901296 -5177.98718401 337.621992109 10805.5570618 7547.56785009 9697.47630907 28556.6496463 -381.50791464 -17.64507983 1473.3487789 -869.072301103 -99.2331926099 1519.27301359 -1443.63601788 179.997859873 697.967050833 -925.33151025 28.3776035846 1121.08569494 -34597.0592429 -13739.7748117 -11202.1901296 -4386.176208 315.883362567 5439.12074989 -30990.8926672 -10301.0962657 -9503.89119227 -30763.4685602 -8226.08045428 -3927.4799259 11880.3914128 14417.9787544 36179.5377684 -888.139703458 -222.788368135 735.705900261 -651.778880313 -125.958268207 1456.23744675 -1480.53540385 109.215914937 806.804264963 -1366.44907655 31.7524024553 468.945251449 -3039.47037474 795.201555523 5690.14222649 -4386.176208 315.883362567 5439.12074989 -858.346995866 -218.628435772 852.641325575 -3039.47037474 795.201555523 5690.14222649 -1053.02155556 -88.4301005247 1168.05314421 3183.08482003 8102.54010133 29836.1752184 -1425.25171201 84.3108851058 570.951012576 11880.3914128 14417.9787544 36179.5377684 -664.395706653 -78.4776962625 1545.79073342 -1199.78279841 215.021989574 974.109666239 -16146.8079281 -3369.25852912 -1182.17424789 -1250.89257408 150.096908013 778.560611559 -719.200622409 -35.9700707237 1407.712779 -4386.176208 315.883362567 5439.12074989 11880.3914128 14417.9787544 36179.5377684 -1422.87970844 118.375021663 495.904747691 -758.353297094 185.049382976 754.72050839 1843.77892645 3802.52655401 17068.1770472 -509.27836142 -22.6346329078 1561.64861053 -22980.9696097 -4379.01887907 -410.121170252 -600.377720229 -4.06788492115 2704.32677082 -3039.47037474 795.201555523 5690.14222649 -19660.6830356 -4088.38311643 604.581776804 -2094.56413131 7021.06565996 21681.5969268 -430.819479664 355.419614222 2038.8798213 -3110.92450533 -143.462283616 959.458286259 -794.510840947 52.4763468569 618.132012521 -34597.0592429 -13739.7748117 -11202.1901296 -5236.826578 5687.11149964 17462.5761487 -2192.82524227 -523.313151079 206.248493447 -14375.2904144 -431.083271672 2793.27362023 -3424.456448 1981.02051165 14611.3553827 -7140.16014196 -930.385111686 3111.41299906 -408.509107368 942.66932397 8675.07896716 -15736.0744055 -4813.04586239 6278.7922441 -8177.97267909 -3750.67596806 3702.46381955 -2191.13011386 2445.34893315 12845.8856621 -12269.8022642 -6548.12985414 4495.40154011 -629.828495663 1869.89422963 18400.1415939 -306.566571847 970.083720853 9067.69519666 -545.578554541 1525.76418068 17758.9148586 -9093.59737075 -747.075766924 276.000822388 -1259.02440146 736.589829106 3993.91442855 -1278.85285792 947.756900991 4668.43808151 -834.238050505 1782.59816328 10442.6851669 -1146.30581722 684.284578525 8337.14123926 -3906.95676304 -385.367508168 776.981959052 -5075.32610541 -447.238814708 1081.6595711 -9158.48308861 -2519.2309005 3501.10737451 -6605.87181589 -1092.09767221 2353.03182451 -12306.1916262 -845.868959951 1271.7051335 -2140.02166603 2045.20746567 7725.12766959 -11772.0608557 -1235.75816186 3659.8215907 -1485.97803887 568.737186289 8190.16251457 -11744.1658916 -328.255513778 1337.31610197 -2290.07386011 2001.85272649 10841.4836289 -4792.03720816 3074.45972613 8118.70241738 -5312.71865763 3078.88488211 8010.82589253 -8015.70241602 -2892.43582883 2895.50900105 -8056.60474426 -2844.98995213 2722.54479178 -7810.98244555 -1715.60836554 707.339108081 -2620.89392712 1714.71587127 8492.20828365 -787.365551289 -158.688840044 1567.15954221 -1699.31145987 -49.7860986007 591.034185555 -27662.8846885 -5521.42151172 -668.50411332 1737.07351202 5469.91788975 27253.0583194 -758.477208268 5169.29719419 12443.8657631 -25710.9484641 -5274.92747545 -4779.63630052 260.744690807 446.357679406 1911.59770252 -692.934682928 -62.8649385156 1084.00220465</DataArray>
        <DataArray type="Float64" Name="PrincipalStrain" NumberOfComponents="3" format="ascii">-2.36591236067e-07 2.93370450975e-08 4.87958672263e-08 -2.36861509389e-07 1.61316022847e-08 4.72231543383e-08 -1.2377468311e-08 1.31335823579e-09 1.02443712741e-08 -1.52128799458e-08 3.24961720918e-09 4.29458067639e-08 -5.51495629538e-08 4.39818906155e-09 2.7730853505e-08 -4.76322015545e-08 -2.16018254088e-08 6.82802643273e-08 -6.36667942853e-08 -1.81926773534e-08 6.50431754586e-08 -1.59546041167e-08 -8.61298190763e-09 4.99137360394e-08 -9.26652062866e-08 4.70598019334e-09 2.77809880731e-08 -1.17747308021e-08 -7.23845698253e-10 1.28314922998e-08 -7.03153713212e-08 -7.88363806176e-09 1.06959536486e-07 -9.43375218969e-09 1.11395429332e-09 1.79784245984e-08 -3.73325219725e-08 -7.74786910829e-09 6.32701216257e-08 -1.11262542756e-08 -7.93964048364e-10 3.72609299722e-09 -8.16856801051e-08 -2.29721221605e-08 6.34512572191e-08 -1.17713399191e-07 -3.62872058843e-08 2.12045385823e-07 -2.16253940953e-07 -2.22607448906e-08 7.70383084846e-08 -1.81105991835e-07 -2.32124780894e-08 4.60494227093e-08 -7.9482672814e-08 -3.29071513694e-08 2.25755957431e-07 -4.41813603228e-08 -2.48817624315e-08 3.52302004799e-08 -6.13738901959e-08 -7.94251993024e-09 1.2751773607e-07 -1.58666753463e-08 -7.50600619147e-09 4.10488290643e-08 -3.72937053691e-08 -3.08406944171e-08 1.86085688896e-07 -4.82555686326e-08 4.03761796263e-08 1.85796653451e-07 -6.31108399401e-08 -4.07243021035e-09 3.84656356093e-08 -7.35229781399e-08 -7.90681851111e-09 6.89236642079e-08 -1.07851517223e-07 5.35043766102e-09 4.02374036212e-08 -1.85108321539e-07 8.92382243412e-09 7.80316645166e-08 -4.52624201978e-08 1.42850707371e-08 3.54832220392e-08 -2.59408648844e-08 1.13677684036e-08 1.76512765326e-07 -3.32534212736e-08 -1.44641443685e-08 1.76479115243e-07 -5.95888115048e-08 4.70024332531e-09 1.14697027795e-07 -1.68646898809e-07 2.88969249414e-08 6.86534904409e-08 -1.68640338192e-07 2.74218502966e-08 7.16366855692e-08 -4.65985470022e-08 3.13082176443e-08 3.96693715619e-08 -5.40947225516e-08 -1.836300465e-10 5.57857478061e-09 -5.38961713522e-08 -2.65203739942e-10 1.13720660542e-07 -1.1757493285e-07 -3.38439490438e-12 4.49629661285e-08 -6.29655273047e-08 -1.76311443283e-08 4.9852062397e-08 -3.51573496283e-08 1.11581098686e-09 5.52820653436e-08 -1.62031550811e-07 -6.51659533944e-09 1.80859042106e-08 -3.25053747597e-08 -1.41430315214e-08 1.79543757114e-08 -8.52710569376e-08 2.01612850109e-09 6.40876355574e-08 -6.54414559761e-08 -1.88351929831e-08 5.21275827015e-08 -3.10857615903e-08 -1.95749068089e-08 5.70577790746e-08 -3.29938270663e-08 -1.83651088858e-08 1.46983324831e-07 -3.39486307948e-08 -1.69875084044e-08 1.46976521739e-07 -1.61665803777e-07 2.97626251295e-08 7.24436123806e-08 -2.98460949186e-08 -2.13752336038e-08 5.60449810291e-08 -1.61695839768e-07 2.87068897998e-08 7.50440648021e-08 -5.1152606757e-08 -1.53758917312e-10 2.27241287624e-08 -3.40776488086e-08 3.45289299902e-09 3.85205559673e-08 -6.45813095176e-08 -2.79683126702e-08 2.35850775846e-07 -1.0733495426e-07 -3.62845921131e-08 2.33345255412e-07 -8.10807994831e-09 2.16818780683e-08 6.94606514751e-08 -4.1140111761e-08 3.73658372015e-08 7.38196888327e-08 -2.64733893707e-08 1.05952124494e-09 2.2913454623e-08 -3.27346052979e-08 -2.54323185401e-09 3.16870316937e-08 -1.59427309835e-08 -4.48249324688e-09 2.28591862497e-08 -3.87349568007e-07 0 4.7126572669e-08 -3.24599319984e-08 1.04501688946e-09 7.65970020592e-08 -2.27876714886e-08 5.90959280971e-10 3.51987999618e-08 -2.15506747621e-08 -1.66375706127e-10 3.6443803912e-08 -5.47070555957e-08 8.85719759125e-09 6.9901553038e-08 -7.12153358478e-08 0 9.09060410322e-08 -2.42086588397e-08 4.74796323814e-09 1.51827787721e-08 -3.46698360202e-08 1.46971814724e-09 1.42342144915e-08 -3.45113525323e-08 -2.69777522557e-10 1.47496232497e-08 -1.13553860907e-07 5.05799888889e-10 2.90902598797e-07 -3.29250649216e-07 2.41117323827e-09 1.11011793828e-07 -2.39004663696e-08 1.58603447401e-09 2.35468674922e-08 -2.13718774061e-07 2.6950541623e-08 6.63444993297e-08 -4.59984491533e-08 6.83238109318e-09 4.32076450783e-08 -2.13638679906e-07 -9.62538168922e-09 4.11952504288e-08 -1.81587131305e-07 1.16238752986e-08 4.71657574319e-08 -7.98580212541e-08 -2.00897899868e-08 2.09015227654e-07 -5.69835997289e-08 -1.07332710363e-10 3.02573341123e-08 -4.17123580004e-08 -9.37574917854e-09 1.05332495072e-07 -8.30503198088e-08 8.14878608067e-11 1.85530265455e-08 -3.94814529011e-08 -1.26395873932e-08 1.0315475871e-07 -8.1545262281e-08 1.01898678854e-08 6.56203979901e-08 -3.90255844855e-08 -1.18085402798e-08 4.85296540962e-08 -7.57460021325e-08 -2.33562809265e-08 2.08191891469e-07 -3.68023714537e-08 1.20539665761e-11 1.86308065614e-08 -3.33268253275e-08 2.10625887005e-09 2.11731864e-08 -9.40877198494e-08 1.25127419704e-08 1.74413720304e-08 -1.94332868624e-08 5.09552119088e-09 2.37224053888e-08 -3.06094359648e-08 4.5376951332e-09 4.00239039942e-08 -3.34732967752e-08 -1.61424201122e-08 1.69851811764e-07 -1.68670539712e-07 1.41433270595e-08 6.83592341064e-08 -5.47492926856e-08 -8.44311759106e-09 4.30139368707e-08 -2.68969784575e-08 -1.71104231681e-08 1.70938688585e-07 -4.21133407526e-08 -2.55598681579e-09 3.4039987887e-08 -1.57845203723e-08 8.59355580223e-09 9.16542757415e-08 -1.17311895543e-07 1.25357970218e-08 1.63126490669e-08 -5.50132498944e-08 -6.33475906453e-09 4.26155638941e-08 -1.16480695091e-07 1.02409146472e-08 3.23074057637e-08 -3.96913123086e-08 5.91795996349e-09 4.75814844743e-08 -4.53515353462e-08 7.14348491109e-09 4.60009164182e-08 -1.05918575937e-07 6.31638238172e-09 2.0056062115e-08 -1.69259680545e-08 1.68920247457e-09 3.03019476436e-08 -2.9684214362e-08 -8.71050300881e-09 3.43751352257e-08 -1.69245178631e-07 2.02421017091e-08 6.45074542925e-08 -4.41767320694e-08 3.858741266e-09 3.14247241784e-08 -1.49082307932e-08 3.53455810051e-09 9.13456225947e-08 -3.49649114057e-08 -1.44816776356e-08 1.2754023761e-07 -3.44347879304e-08 -1.1975922945e-08 1.27102440768e-07 -3.46039123679e-08 1.99723014842e-09 4.34626708393e-08 -5.79970520478e-08 1.12177116748e-08 4.53714959203e-08 -1.70778856061e-07 1.35609302674e-08 5.15857698145e-08 -3.93893738126e-08 -1.64883632232e-08 1.75930884188e-07 -3.36352299095e-08 -1.80321860318e-08 1.7675628402e-07 -5.79041197399e-08 -2.09466505486e-09 2.60290279992e-08 -1.62671276849e-07 7.23029935478e-09 3.22885256427e-08 -1.96011835549e-08 -3.5418007094e-09 1.98687678337e-08 -3.45882786319e-08 -3.25637751709e-09 1.62646005761e-08 -7.15368951437e-08 -2.09955416847e-09 4.4307636395e-08 -3.34317911609e-08 1.16156284859e-08 2.57742338776e-08 -5.93289099495e-08 -6.87873357846e-09 5.08318736985e-08 -1.06356898198e-07 7.03305545767e-09 3.44492013362e-08 -3.19185121285e-08 -1.79785769491e-08 1.47083706808e-07 -2.49190386912e-08 -1.83680198721e-08 3.62235920399e-08 -1.59603123378e-07 1.96908961758e-08 6.69920837373e-08 -2.64628726221e-08 -1.71166439552e-08 3.66066230521e-08 -1.59591394467e-07 1.90307671842e-08 7.08191960849e-08 -3.27794782181e-08 -1.77969343632e-08 1.47076810382e-07 -3.70973339308e-08 -1.29961725015e-08 5.69506323685e-08 -3.60751204639e-08 -1.35039491027e-08 5.59649509251e-08 -2.3691360252e-07 4.08080696575e-08 4.86543568339e-08 -1.47079721763e-08 -1.22223263351e-10 4.04587268199e-08 -5.48140456285e-08 -1.19582610487e-08 6.16630041769e-08 -2.33774049249e-07 2.79878758493e-08 4.40171390238e-08 -1.07656670173e-08 -1.6613777057e-09 1.20549425831e-08 -4.05991309768e-08 -2.84288236204e-09 9.69783470851e-09 -4.15951964402e-08 -7.86494845257e-09 6.33916420564e-08 -1.36897390409e-08 1.76690444171e-09 1.54290807814e-08 -6.379171661e-08 -1.73852865038e-08 7.555006585e-08 -7.3907981322e-08 -3.27859121326e-08 2.33509630739e-07 -2.65413948908e-08 -6.03435828264e-10 2.00306184855e-08 -4.18447280576e-08 -1.01083812832e-08 6.36264948621e-08 -2.51597966943e-08 1.59302353954e-09 3.18799098331e-08 -7.00534705603e-08 -3.09653585816e-08 2.33366287932e-07 -4.72533135903e-08 5.17157729537e-09 1.66938532764e-08 -1.02506182645e-08 -7.6369235245e-09 5.34009591295e-08 -1.92971433291e-08 -4.70983571716e-09 2.47493360746e-08 -2.6010651217e-07 4.19670688923e-08 7.56978602141e-08 -9.89831735666e-08 -5.46621351518e-09 1.79568352853e-07 -2.20320024753e-08 7.55806682069e-10 2.43083453301e-08 -2.32249612921e-08 1.74692720473e-09 2.50390447263e-08 -1.41296621582e-07 1.65951708055e-09 1.14638958368e-07 -5.83913127831e-09 2.99735550097e-09 1.76172501083e-07 -2.41784335144e-08 3.44659854864e-09 1.92393593502e-08 -1.32323408545e-07 2.36409446911e-08 1.62226988857e-07 -2.53537528581e-08 2.18531313255e-09 1.8428163933e-08 -3.42991967891e-07 2.29640148641e-08 5.93707543986e-08 -7.40501875297e-09 1.46341301909e-09 2.25893308161e-08 -1.78410781856e-08 -4.03564920806e-10 2.85369668698e-08 -1.48995183269e-07 2.18463155305e-08 1.1236274019e-07 -1.90744623903e-08 2.08952570079e-09 1.90685278983e-08 -1.28344991115e-07 1.30056172004e-08 7.61629509869e-08 -1.78696470581e-07 2.60538195753e-08 1.19385113599e-07 -1.99652845983e-08 -5.10228397401e-09 2.31686672828e-08 -2.87209761556e-08 -2.09914031802e-10 1.09553160382e-08 -5.47053684188e-08 -1.38380028263e-08 3.04511542454e-07 -2.83126380577e-08 1.4834021666e-09 1.06164583376e-08 -5.50047525599e-08 -4.69232547118e-08 2.89141530232e-07 -3.87349568007e-07 0 4.7126572669e-08 -1.21727727146e-07 -1.92949853035e-08 1.75109523135e-07 -5.61238562359e-08 -1.61969848548e-08 3.34044805693e-07 -1.16888432052e-08 -4.9313905587e-09 2.27584953892e-08 -1.85012035342e-08 -4.20419151938e-09 2.58537808815e-08 -2.43860784442e-08 5.76712214267e-09 1.53865499748e-08 -1.81452928544e-08 -4.33552168901e-10 1.98595980992e-08 -3.87349568007e-07 0 4.7126572669e-08 -8.73239634533e-08 0 9.51458371931e-08 -3.57848520426e-07 2.63905556027e-08 4.119579268e-08 -3.87391434945e-07 3.11600584509e-08 1.10991211121e-07 -4.71266220573e-08 0 4.04143238832e-07 -1.48859280442e-08 -2.52940324537e-09 1.52712045963e-08 -1.50123233411e-08 -5.24708340196e-09 2.41365513043e-08 -2.50763065403e-08 4.44764652291e-09 1.74028587377e-08 -2.16665481818e-08 4.3000507141e-09 1.24193464811e-08 -7.12153358478e-08 0 9.09060410322e-08 -8.73239634533e-08 0 9.51458371931e-08 -1.49792980401e-08 -3.09881049549e-09 1.67961993581e-08 -7.12153358478e-08 0 9.09060410322e-08 -1.96701209809e-08 -1.75627967317e-09 2.15784091577e-08 -1.17121853941e-07 -2.57605415744e-08 3.778641106e-07 -2.31690040187e-08 4.86572992764e-09 1.3903332295e-08 -4.71266220573e-08 0 4.04143238832e-07 -1.57798516828e-08 -4.89851720417e-09 2.52664679185e-08 -2.2236032788e-08 4.03891327466e-09 1.81362558413e-08 -2.11162544214e-07 2.61348017668e-08 6.67520812754e-08 -2.18498547136e-08 4.16852138244e-09 1.58399901626e-08 -1.6153191927e-08 -3.46462453857e-09 2.33466283848e-08 -8.73239634533e-08 0 9.51458371931e-08 -4.71266220573e-08 0 4.04143238832e-07 -2.29594805606e-08 5.6638215698e-09 1.26750879103e-08 -1.48612037786e-08 2.65913170838e-09 1.32387383232e-08 -6.31061736274e-08 -2.67294319729e-08 2.19632648616e-07 -1.3871179353e-08 -4.83351010915e-09 2.45888929832e-08 -3.07774679928e-07 3.76901193561e-08 1.11398219663e-07 -2.01493626571e-08 -9.07503714428e-09 4.12237207481e-08 -7.12153358478e-08 0 9.09060410322e-08 -2.65936323339e-07 2.3263532303e-08 1.10418594606e-07 -1.52933755819e-07 1.6356511733e-08 2.88623520974e-07 -1.64158472903e-08 -1.81426411814e-09 2.94499968705e-08 -4.79389043732e-08 7.1711083158e-09 2.76539188992e-08 -1.42241906966e-08 1.50557136264e-09 1.20106051535e-08 -3.87349568007e-07 0 4.7126572669e-08 -1.74024755321e-07 2.88483804063e-08 2.47535581031e-07 -2.99672263569e-08 1.03799819384e-09 1.45870001636e-08 -2.15484964557e-07 4.34788823799e-08 1.03359796087e-07 -1.20030988804e-07 -1.96435595536e-08 2.14919802337e-07 -1.11349550117e-07 3.97484330262e-09 7.90368082165e-08 -4.70547656387e-08 -2.19614519138e-08 1.2164044146e-07 -2.31082833144e-07 -2.82265887708e-08 1.7776469035e-07 -1.16621557636e-07 -3.44003330029e-08 1.04015120196e-07 -9.68357213205e-08 -1.07296818759e-08 1.8242314309e-07 -1.66485482429e-07 -6.02258519558e-08 1.44868302509e-07 -9.58691320388e-08 -4.94457099975e-08 2.57544598195e-07 -4.73985749586e-08 -2.3689355237e-08 1.26694857885e-07 -9.04426038045e-08 -5.19748101504e-08 2.49497988153e-07 -1.27889641248e-07 2.71171885369e-08 4.61171823384e-08 -3.82596525537e-08 -1.19824541455e-09 5.92949257179e-08 -4.23387336096e-08 -9.87409515501e-10 6.81109552656e-08 -6.4311757851e-08 -1.57133710236e-08 1.45116816187e-07 -5.50390508936e-08 -2.10423721155e-08 1.21082108727e-07 -5.74920156901e-08 7.90892761471e-09 2.94954177202e-08 -7.52236047476e-08 1.07265877941e-08 3.91204149591e-08 -1.35043514726e-07 -1.17431169467e-08 1.00063165304e-07 -9.97736008797e-08 2.62506178859e-09 6.66060381563e-08 -1.77627749689e-07 3.52068141121e-08 7.45331901333e-08 -7.24446029516e-08 5.28108092287e-09 1.10765313281e-07 -1.78561141205e-07 1.71130516804e-08 1.08030961371e-07 -5.87663992732e-08 -2.06074022346e-08 1.20933353862e-07 -1.72098343829e-07 3.991142033e-08 7.08434646224e-08 -8.77582109533e-08 -8.05100291642e-09 1.56113570986e-07 -1.16428369303e-07 2.96637166195e-08 1.23342509457e-07 -1.23423312715e-07 3.24207530234e-08 1.24013943217e-07 -1.14523205253e-07 -1.93768257762e-08 8.81135782072e-08 -1.14569588517e-07 -1.77824566626e-08 8.56146171529e-08 -1.07264309547e-07 5.93549479577e-09 5.09330907344e-08 -8.118530248e-08 -6.6683479552e-10 1.25200881434e-07 -1.72843823134e-08 -5.60895767601e-09 2.64425122802e-08 -2.65955126565e-08 4.03852976706e-09 1.59394779014e-08 -3.68655814299e-07 4.25427875545e-08 1.32668396382e-07 -1.15425990725e-07 -4.61017379953e-08 3.58442298555e-07 -8.63203727924e-08 2.37668661103e-08 1.58865996677e-07 -3.24208276161e-07 5.53178279133e-08 6.45160925905e-08 -6.38059891103e-09 -2.93350055134e-09 2.4278099878e-08 -1.42753694681e-08 -2.57407421473e-09 1.87248870154e-08</DataArray>
        <DataArray type="Float64" Name="ShellTopVonMises" format="ascii">0 0 0 0 0 0 0 0 0 0 0 0 0 0 0 0 0 0 0 0 0 0 0 0 0 0 0 0 0 0 0 0 0 0 0 0 0 0 0 0 0 0 0 0 0 0 0 0 0 0 0 0 0 0 0 0 0 0 0 0 0 0 0 0 0 0 0 0 0 0 0 0 0 0 0 0 0 0 0 0 0 0 0 0 0 0 0 0 0 0 0 0 0 0 0 0 0 0 0 0 0 0 0 0 0 0 0 0 0 0 0 0 0 0 0 0 0 0 0 0 0 0 0 0 0 0 0 0 0 0 0 0 0 0 0 0 0 0 0 0 0 0 0 0 0 0 0 0 0 0 0 0 0 0 0 0 0 0 0 0 0 0 0 0 0 0 0 0 0 0 0 0 0 0 0 0 0 0 0 0 0 0 0 0 0 0 0 0 0 0 0 0 0 0 0 0 0 0 0 0 0 0 0 0 0 0 0 0 0 0 0 0 0 0 0 0 0 0 0 0 0 0 0 0 0 0 0 0 0 0 0 0 0 0 0 0 0 0 0 0 0 0 0 0 0 0 0 0 0 0 0 0</DataArray>
        <DataArray type="Float64" Name="ShellBottomVonMises" format="ascii">0 0 0 0 0 0 0 0 0 0 0 0 0 0 0 0 0 0 0 0 0 0 0 0 0 0 0 0 0 0 0 0 0 0 0 0 0 0 0 0 0 0 0 0 0 0 0 0 0 0 0 0 0 0 0 0 0 0 0 0 0 0 0 0 0 0 0 0 0 0 0 0 0 0 0 0 0 0 0 0 0 0 0 0 0 0 0 0 0 0 0 0 0 0 0 0 0 0 0 0 0 0 0 0 0 0 0 0 0 0 0 0 0 0 0 0 0 0 0 0 0 0 0 0 0 0 0 0 0 0 0 0 0 0 0 0 0 0 0 0 0 0 0 0 0 0 0 0 0 0 0 0 0 0 0 0 0 0 0 0 0 0 0 0 0 0 0 0 0 0 0 0 0 0 0 0 0 0 0 0 0 0 0 0 0 0 0 0 0 0 0 0 0 0 0 0 0 0 0 0 0 0 0 0 0 0 0 0 0 0 0 0 0 0 0 0 0 0 0 0 0 0 0 0 0 0 0 0 0 0 0 0 0 0 0 0 0 0 0 0 0 0 0 0 0 0 0 0 0 0 0 0</DataArray>
      </CellData>
    </Piece>
  </UnstructuredGrid>
</VTKFile>
