<?xml version="1.0"?>
<VTKFile type="UnstructuredGrid" version="0.1" byte_order="LittleEndian">
  <UnstructuredGrid>
    <Piece NumberOfPoints="116" NumberOfCells="252">
      <Points>
        <DataArray type="Float64" NumberOfComponents="3" format="ascii">0 0 1 0 0 0 0 1 1 0 1 0 8 0 1 8 0 0 8 1 1 8 1 0 0 0 0.5 0 0.5 1 0 1 0.5 0 0.5 0 8 0 0.5 8 0.5 1 8 1 0.5 8 0.5 0 0.666666666667 0 0 1.33333333333 0 0 2 0 0 2.66666666667 0 0 3.33333333333 0 0 4 0 0 4.66666666667 0 0 5.33333333333 0 0 6 0 0 6.66666666667 0 0 7.33333333333 0 0 0.666666666667 0 1 1.33333333333 0 1 2 0 1 2.66666666667 0 1 3.33333333333 0 1 4 0 1 4.66666666667 0 1 5.33333333333 0 1 6 0 1 6.66666666667 0 1 7.33333333333 0 1 0.666666666667 1 0 1.33333333333 1 0 2 1 0 2.66666666667 1 0 3.33333333333 1 0 4 1 0 4.66666666667 1 0 5.33333333333 1 0 6 1 0 6.66666666667 1 0 7.33333333333 1 0 0.666666666667 1 1 1.33333333333 1 1 2 1 1 2.66666666667 1 1 3.33333333333 1 1 4 1 1 4.66666666667 1 1 5.33333333333 1 1 6 1 1 6.66666666667 1 1 7.33333333333 1 1 0 0.738611516035 0.738611516035 0 0.375 0.625 0 0.649143586006 0.357476919339 0 0.28125 0.28125 8 0.738611516035 0.738611516035 8 0.375 0.625 8 0.649143586006 0.357476919339 8 0.28125 0.28125 1.66666666667 0 0.5 1.0141723356 0 0.497637944067 6.9858276644 0 0.497637944067 3.66666666667 0 0.5 6.33333333333 0 0.5 2.33333333333 0 0.5 3 0 0.5 5 0 0.5 5.66666666667 0 0.5 4.33333333333 0 0.5 7.5 0 0.472222222222 0.5 0 0.472222222222 1.0141723356 1 0.497637944067 1.66666666667 1 0.5 6.9858276644 1 0.497637944067 3.66666666667 1 0.5 6.33333333333 1 0.5 3 1 0.5 2.33333333333 1 0.5 5.66666666667 1 0.5 5 1 0.5 4.33333333333 1 0.5 7.5 1 0.472222222222 0.5 1 0.472222222222 1.66666666667 0.5 0 1.0141723356 0.497637944067 0 6.9858276644 0.497637944067 0 6.33333333333 0.5 0 3 0.5 0 2.33333333333 0.5 0 3.66666666667 0.5 0 4.33333333333 0.5 0 5.66666666667 0.5 0 5 0.5 0 7.5 0.472222222222 0 0.5 0.472222222222 0 1.0141723356 0.497637944067 1 1.66666666667 0.5 1 6.9858276644 0.497637944067 1 3 0.5 1 6.33333333333 0.5 1 2.33333333333 0.5 1 3.66666666667 0.5 1 5.66666666667 0.5 1 4.33333333333 0.5 1 5 0.5 1 7.5 0.472222222222 1 0.5 0.472222222222 1</DataArray>
      </Points>
      <Cells>
        <DataArray type="Int32" Name="connectivity" format="ascii">80 69 81 104 69 80 81 93 82 106 84 94 106 108 94 70 70 95 108 94 106 108 84 94 81 69 93 92 81 69 105 104 87 84 108 95 76 95 108 72 100 87 108 95 95 76 108 100 97 85 86 107 73 86 107 97 86 73 107 109 92 105 73 81 105 92 73 68 85 97 96 107 97 92 73 81 73 96 97 107 86 81 73 109 81 73 97 86 73 74 96 107 109 81 73 105 107 74 96 110 112 77 110 99 101 77 112 99 96 83 107 110 89 112 110 99 110 71 83 99 71 96 74 110 96 98 83 71 71 110 77 99 83 96 71 110 96 83 85 107 88 112 101 113 101 113 112 75 71 98 83 99 88 111 113 101 89 110 83 99 101 111 113 75 111 88 87 101 111 101 76 75 100 87 101 76 87 111 101 76 101 112 77 75 112 89 101 99 112 88 101 89 108 111 87 76 100 108 87 76 95 70 108 72 95 108 94 84 69 81 105 92 105 69 92 68 91 69 93 80 80 91 69 104 82 114 106 94 70 94 106 78 65 64 66 90 60 62 91 61 91 79 69 104 93 79 69 91 94 114 106 78 114 82 90 94 102 66 65 67 63 103 62 61 94 102 114 78 102 114 90 94 79 91 115 104 79 93 103 91 90 66 65 102 103 91 62 61 77 110 32 112 107 52 86 109 52 86 85 107 109 51 81 105 68 73 105 29 54 112 110 89 109 73 107 30 73 74 19 96 19 73 96 97 73 74 107 30 92 18 73 68 74 107 31 110 92 97 40 81 81 97 40 86 81 86 51 109 71 110 32 77 54 110 83 89 56 111 88 87 45 87 101 100 76 34 111 75 101 23 76 75 92 73 18 97 23 100 101 76 96 74 20 71 41 97 85 86 73 109 105 29 45 87 88 101 56 111 113 88 34 113 111 75 41 97 96 85 98 43 83 99 31 71 74 110 89 83 43 99 33 77 112 75 98 96 20 71 96 98 42 83 112 55 88 89 71 21 98 99 55 113 112 88 42 96 83 85 53 85 83 107 21 71 77 99 83 53 107 110 84 108 57 87 84 87 46 95 112 113 33 75 76 24 95 72 76 108 35 72 22 101 77 75 88 89 44 101 99 101 77 22 89 44 101 99 108 111 57 87 100 46 87 95 111 108 35 76 24 95 100 76 84 58 106 82 50 80 81 104 84 94 47 82 70 108 36 106 93 81 39 80 105 69 28 104 95 94 70 25 92 17 69 93 108 70 36 72 94 84 47 95 106 108 58 84 81 93 39 92 69 105 28 68 105 50 81 104 72 95 70 25 69 17 92 68 64 65 114 90 115 60 91 61 65 102 67 78 103 63 79 61 65 114 90 102 102 65 114 78 91 103 79 61 115 91 79 61 91 80 49 104 59 114 106 82 115 91 49 104 59 114 82 90 91 93 38 80 48 90 82 94 78 70 94 26 79 69 16 93 49 60 91 115 64 114 59 90 90 48 102 94 38 103 93 91 94 102 78 26 16 79 93 103 66 64 14 90 62 91 10 60 79 16 1 63 78 67 5 26 67 102 5 26 63 16 1 103 102 15 66 67 103 11 63 62 60 2 9 115 2 10 91 60 114 6 13 64 64 6 14 90 13 65 114 64 9 60 115 61 79 8 0 61 65 12 4 78 2 60 49 115 60 91 2 49 59 6 114 64 59 6 64 90 103 3 11 62 66 7 15 102 102 67 78 26 63 79 16 103 8 79 63 61 67 12 65 78 7 66 90 102 3 103 91 62 65 4 114 78 115 79 0 61 5 15 102 67 67 5 12 78 1 8 79 63 63 1 11 103 65 4 13 114 0 9 115 61 50 49 80 104 59 106 58 82 28 104 69 27 93 39 38 80 106 37 36 70 82 47 48 94 66 14 7 90 10 3 91 62 17 16 69 93 94 70 25 26 108 36 35 72 108 57 58 84 46 47 84 95 24 95 72 25 54 55 112 89 92 17 18 68 39 92 40 81 52 51 86 109 105 28 68 29 23 24 100 76 31 107 74 30 73 19 18 97 51 50 81 105 53 52 85 107 109 73 30 29 97 41 40 86 110 31 71 32 77 32 33 112 96 42 41 85 74 20 19 96 98 43 42 83 83 53 110 54 20 21 98 71 87 45 46 100 99 77 21 22 113 34 33 75 111 56 57 87 113 55 56 88 44 89 43 99 22 23 101 75 44 45 88 101 35 34 111 76 114 4 37 78 0 79 115 27 48 7 90 102 38 3 103 91 104 79 27 115 104 27 79 69 106 78 37 70 37 78 106 114</DataArray>
        <DataArray type="Int32" Name="offsets" format="ascii">4 8 12 16 20 24 28 32 36 40 44 48 52 56 60 64 68 72 76 80 84 88 92 96 100 104 108 112 116 120 124 128 132 136 140 144 148 152 156 160 164 168 172 176 180 184 188 192 196 200 204 208 212 216 220 224 228 232 236 240 244 248 252 256 260 264 268 272 276 280 284 288 292 296 300 304 308 312 316 320 324 328 332 336 340 344 348 352 356 360 364 368 372 376 380 384 388 392 396 400 404 408 412 416 420 424 428 432 436 440 444 448 452 456 460 464 468 472 476 480 484 488 492 496 500 504 508 512 516 520 524 528 532 536 540 544 548 552 556 560 564 568 572 576 580 584 588 592 596 600 604 608 612 616 620 624 628 632 636 640 644 648 652 656 660 664 668 672 676 680 684 688 692 696 700 704 708 712 716 720 724 728 732 736 740 744 748 752 756 760 764 768 772 776 780 784 788 792 796 800 804 808 812 816 820 824 828 832 836 840 844 848 852 856 860 864 868 872 876 880 884 888 892 896 900 904 908 912 916 920 924 928 932 936 940 944 948 952 956 960 964 968 972 976 980 984 988 992 996 1000 1004 1008</DataArray>
        <DataArray type="UInt8" Name="types" format="ascii">10 10 10 10 10 10 10 10 10 10 10 10 10 10 10 10 10 10 10 10 10 10 10 10 10 10 10 10 10 10 10 10 10 10 10 10 10 10 10 10 10 10 10 10 10 10 10 10 10 10 10 10 10 10 10 10 10 10 10 10 10 10 10 10 10 10 10 10 10 10 10 10 10 10 10 10 10 10 10 10 10 10 10 10 10 10 10 10 10 10 10 10 10 10 10 10 10 10 10 10 10 10 10 10 10 10 10 10 10 10 10 10 10 10 10 10 10 10 10 10 10 10 10 10 10 10 10 10 10 10 10 10 10 10 10 10 10 10 10 10 10 10 10 10 10 10 10 10 10 10 10 10 10 10 10 10 10 10 10 10 10 10 10 10 10 10 10 10 10 10 10 10 10 10 10 10 10 10 10 10 10 10 10 10 10 10 10 10 10 10 10 10 10 10 10 10 10 10 10 10 10 10 10 10 10 10 10 10 10 10 10 10 10 10 10 10 10 10 10 10 10 10 10 10 10 10 10 10 10 10 10 10 10 10 10 10 10 10 10 10 10 10 10 10 10 10 10 10 10 10 10 10</DataArray>
      </Cells>
      <PointData Vectors="Displacement">
        <DataArray type="Float64" Name="Displacement" NumberOfComponents="3" format="ascii">0 0 0 0 0 0 0 0 0 0 0 0 1.23897175618e-06 -8.84804573782e-08 -1.40680310068e-05 -1.26136997402e-06 -9.49515519294e-08 -1.40690243974e-05 1.26796758335e-06 -9.50252338998e-08 -1.40705188551e-05 -1.23292558709e-06 -8.75671356053e-08 -1.40701339278e-05 0 0 0 0 0 0 0 0 0 0 0 0 -1.03881684418e-08 -9.05817990871e-08 -1.4068823088e-05 1.24862642041e-06 -9.17742399067e-08 -1.40713358122e-05 1.79078306831e-08 -9.11417529403e-08 -1.4070072706e-05 -1.24230681983e-06 -9.07765095955e-08 -1.40721827811e-05 -2.06310136955e-07 -5.39549670309e-09 -1.65090535976e-07 -4.51854286839e-07 -1.03118808554e-08 -6.70304726206e-07 -5.73279345007e-07 6.55689317257e-10 -1.38649853793e-06 -7.77371065682e-07 2.18332730611e-08 -2.32452508772e-06 -8.76650570707e-07 -3.69920668139e-10 -3.45171829862e-06 -9.88652657406e-07 -1.08377939107e-08 -4.70038189961e-06 -1.07355364619e-06 -1.3829069146e-08 -6.05934440593e-06 -1.13032705665e-06 -3.32070050498e-08 -7.53376123196e-06 -1.19364934783e-06 -4.5709597648e-08 -9.10648295096e-06 -1.22520678352e-06 -5.83455647701e-08 -1.07306752191e-05 -1.25175132804e-06 -7.31626118231e-08 -1.23853813882e-05 2.45257774114e-07 1.7356652192e-08 -1.90555806024e-07 4.72637461603e-07 4.23165305956e-08 -6.70931493961e-07 5.97995326772e-07 4.96760699921e-08 -1.38632287895e-06 7.87791780177e-07 2.44855849714e-08 -2.31994970177e-06 8.93029494735e-07 3.24487466024e-08 -3.44410488252e-06 9.5569428133e-07 2.55649490768e-08 -4.68826397661e-06 1.0380240597e-06 1.43518773721e-08 -6.0677921914e-06 1.12200833543e-06 -2.80415812089e-09 -7.54048417248e-06 1.18375926225e-06 -2.74261028054e-08 -9.09904174136e-06 1.20533944957e-06 -4.64084548264e-08 -1.07244040641e-05 1.22775130627e-06 -7.05958484155e-08 -1.23882150539e-05 -2.47639145201e-07 4.02596345322e-08 -1.9011101512e-07 -3.99195815865e-07 5.19041577334e-08 -6.29475896255e-07 -6.51239144137e-07 6.3384237882e-08 -1.34265965494e-06 -7.45475068484e-07 5.66177135685e-08 -2.32660288016e-06 -8.56464155843e-07 3.4374783688e-08 -3.44552806172e-06 -9.70733657332e-07 2.27673177388e-08 -4.69751978465e-06 -1.05195085781e-06 -3.70984263436e-10 -6.06394716531e-06 -1.10683515701e-06 -1.16660033776e-08 -7.53909424797e-06 -1.16939835215e-06 -3.18332289203e-08 -9.11039454924e-06 -1.20667140679e-06 -4.99973180086e-08 -1.07290228713e-05 -1.22347108785e-06 -6.94067880216e-08 -1.23900020057e-05 2.08245404432e-07 -2.80821219479e-08 -1.78755969024e-07 3.89558988914e-07 -1.66361389021e-08 -6.30204952047e-07 6.51073839015e-07 -9.23836405577e-09 -1.35779267097e-06 7.86568068125e-07 -1.03577738305e-08 -2.32661988122e-06 8.71208708287e-07 4.82787602823e-09 -3.44330093355e-06 9.73875392385e-07 8.17986629552e-09 -4.69077161156e-06 1.06085565256e-06 -1.60432630603e-08 -6.0731727325e-06 1.14522022085e-06 -3.02277099613e-08 -7.54591560291e-06 1.20771214282e-06 -3.53126064231e-08 -9.10209294545e-06 1.243811751e-06 -5.47936381197e-08 -1.07330571868e-05 1.26144149077e-06 -7.45622596236e-08 -1.23887888324e-05 0 0 0 0 0 0 0 0 0 0 0 0 6.04186102045e-07 -9.27786756018e-08 -1.40694464321e-05 3.08690596731e-07 -9.07564706572e-08 -1.40687436856e-05 -3.47167950472e-07 -9.01523771015e-08 -1.4069669639e-05 -5.47805782073e-07 -9.207572976e-08 -1.40696632685e-05 1.18234655514e-08 2.03365508559e-08 -9.91758710678e-07 5.3844141088e-09 9.67817110528e-09 -3.69690980214e-07 -1.95841130265e-08 -5.89651601172e-08 -1.15134860025e-05 -5.62514877973e-09 2.06710667457e-09 -4.04444170604e-06 -5.70919610349e-09 -4.32169887051e-08 -9.90842024388e-06 1.84825012197e-08 2.75336614999e-08 -1.79153777851e-06 1.31312073741e-08 3.14191385362e-08 -2.85812929188e-06 -6.26347384328e-09 2.63989855774e-10 -6.7780811663e-06 4.73386195634e-09 -3.18266582366e-08 -8.30139900923e-06 -1.73381655345e-08 5.11406125792e-09 -5.35416735829e-06 -7.90662371806e-08 -7.68109672775e-08 -1.28042316332e-05 -1.78752092931e-08 -3.22176175268e-09 -8.49915624693e-08 -3.3782763915e-09 1.38283905815e-08 -3.85268186868e-07 -2.11586276727e-09 2.22051594029e-08 -9.03409845032e-07 1.28809058424e-08 -6.27284082175e-08 -1.1519584339e-05 1.37031616896e-08 2.40954383804e-08 -4.03794393535e-06 1.6488934267e-08 -4.29937337811e-08 -9.9070451356e-06 2.11294933963e-08 3.14610337823e-08 -2.85362648634e-06 1.87287502976e-08 1.7094158289e-08 -1.80962283607e-06 2.80912284578e-08 -2.22013439789e-08 -8.30619947568e-06 1.71269663282e-08 -2.36453282173e-08 -6.78347131815e-06 5.62654257819e-09 1.73062420541e-09 -5.35754575839e-06 -5.13223970221e-08 -7.5677328294e-08 -1.28074864599e-05 -1.34792213033e-08 -3.01638901284e-09 -8.52442172575e-08 -5.19673851694e-07 4.53345001146e-09 -9.7438471856e-07 -3.23588536785e-07 3.50805069824e-08 -3.79163631059e-07 -1.22216650707e-06 -6.09459038366e-08 -1.15172518426e-05 -1.19579285546e-06 -4.75985385061e-08 -9.91694503012e-06 -8.18346238118e-07 2.27701045102e-08 -2.86091245404e-06 -7.15993498363e-07 5.62935381549e-08 -1.80131453774e-06 -9.2189830644e-07 1.28899409884e-08 -4.07908443517e-06 -1.01519951358e-06 -4.47179346857e-10 -5.36313349242e-06 -1.15971217381e-06 -3.07939132798e-08 -8.31813014053e-06 -1.0831208567e-06 -1.46770663262e-08 -6.77120159736e-06 -1.23477015163e-06 -7.62896949249e-08 -1.28101211192e-05 -1.6162732492e-07 3.37784021284e-09 -1.2947355045e-07 3.31365867244e-07 -6.10953360989e-09 -3.84934186636e-07 5.23180843263e-07 3.61836555363e-08 -9.80100875386e-07 1.22790151846e-06 -6.20727598598e-08 -1.15225278109e-05 8.27323208733e-07 6.08928910978e-09 -2.85163909366e-06 1.19976985611e-06 -3.86926543169e-08 -9.89993280674e-06 6.96592247371e-07 6.18833110017e-09 -1.83618997711e-06 9.21857768833e-07 2.58023215103e-08 -4.02145523332e-06 1.14817616634e-06 -2.40750847e-08 -8.31238798434e-06 1.00584224861e-06 7.29751854414e-09 -5.36692066298e-06 1.08436037529e-06 -8.6838762713e-09 -6.81557750476e-06 1.23927312536e-06 -7.82866689726e-08 -1.28067985683e-05 1.86115355505e-07 -1.13838230538e-08 -1.44351235901e-07</DataArray>
        <DataArray type="Float64" Name="DisplacementMagnitude" format="ascii">0 0 0 0 1.41227609274e-05 1.41257749346e-05 1.41278544882e-05 1.41243209484e-05 0 0 0 0 1.40691185245e-05 1.41269240102e-05 1.40703792934e-05 1.412720407e-05 2.64287474285e-07 8.0844731269e-07 1.50034257188e-06 2.45116285649e-06 3.56130251074e-06 4.8032428147e-06 6.15372759424e-06 7.61815596194e-06 9.18449344651e-06 1.08005521398e-05 1.24486909467e-05 3.11069356171e-07 8.21782166064e-07 1.51061485742e-06 2.4501800039e-06 3.55814741704e-06 4.78474913034e-06 6.15595662777e-06 7.62350392691e-06 9.17576148301e-06 1.07920266616e-05 1.24491055609e-05 3.14782754417e-07 7.471888951e-07 1.49360802537e-06 2.44377159432e-06 3.55054588762e-06 4.796825441e-06 6.15451508801e-06 7.61991878173e-06 9.18519432039e-06 1.07967813439e-05 1.2450455755e-05 2.7587760058e-07 7.41074387998e-07 1.50584973638e-06 2.45600421029e-06 3.55180929116e-06 4.79080770872e-06 6.16515199655e-06 7.63238398896e-06 9.18193397862e-06 1.08050259874e-05 1.24530672084e-05 0 0 0 0 1.40827189006e-05 1.40724225176e-05 1.40742408956e-05 1.4080624759e-05 9.92037655457e-07 3.69856836848e-07 1.15136536494e-05 4.04444614611e-06 9.90851613676e-06 1.79184466883e-06 2.85833214305e-06 6.77808406541e-06 8.3014613687e-06 5.35419787328e-06 1.28047061314e-05 8.69106929384e-08 3.85531079098e-07 9.03685174206e-07 1.15197623289e-05 4.03803907755e-06 9.90715214705e-06 2.85387812909e-06 1.80980048214e-06 8.3062766476e-06 6.78353414959e-06 5.35754899243e-06 1.28078128682e-05 8.63560338683e-08 1.10431292851e-06 4.99705155294e-07 1.1582076471e-05 9.98889307704e-06 2.97574009496e-06 1.93921368498e-06 4.18198427391e-06 5.45837256971e-06 8.39864093922e-06 6.85729810337e-06 1.28697195204e-05 2.07118811873e-07 5.07951761899e-07 1.11158678366e-06 1.15879352052e-05 2.96923328347e-06 9.97244275025e-06 1.96389222886e-06 4.12584411962e-06 8.39134566806e-06 5.46036713835e-06 6.90130491694e-06 1.28668572795e-05 2.35808813e-07</DataArray>
        <DataArray type="Float64" Name="NodalVonMises" format="ascii">18047.9641192 18510.3080488 19797.3680783 16910.4624386 1901.76391969 1771.55113944 1695.71454477 1679.32855147 8162.60961821 24168.2458382 8086.57070332 21186.8022221 1649.19474695 1934.02127031 1421.33719333 1858.94007384 19741.6054887 17122.0479299 16040.4350136 12266.775511 9301.71487379 8414.12105796 6737.67744503 6351.28449028 4088.80752502 2968.60014027 2228.56835879 19640.7531538 16592.361254 14941.8999187 12986.4642575 8638.52892504 7901.39340746 7556.879108 6616.13526146 4942.14288125 3043.47028344 2312.25547919 18233.2670558 17958.8002063 17176.6890532 9628.27239349 9866.50069985 8468.32474263 6517.3451058 6268.50803709 4227.68598033 2748.72204732 1985.56563936 18591.3635876 18588.2973927 17104.6770008 10957.0488857 9592.14400799 8642.30777032 7691.44831884 6617.32378458 5107.37066751 2952.37680529 1850.32277244 16444.789653 14535.0341669 14168.0631206 17315.0891283 1823.58973191 2014.73297496 1801.8848781 1905.65692595 8750.82437197 12133.9524922 2929.13930012 7819.17449465 2698.56867424 11857.8571384 6654.96207652 5725.61687483 4519.10331409 5829.02644834 2116.39412669 14210.9079811 9583.50159307 14522.2514716 1757.84418086 8605.94063442 2753.7172415 7350.82271392 8642.44208593 4483.75186361 5722.23000401 5815.12343542 1826.12139592 12863.5658141 14902.9967128 15438.8672752 2609.63529151 3183.06457668 8616.63095314 12173.6546142 10813.235 7309.58661418 5515.79259473 5807.24849922 2025.46709983 18513.8661901 14738.9638188 14558.2016345 2594.41641503 9233.9400145 3806.51639247 14501.243964 7802.40671721 5706.78663981 6867.69136218 8241.87460733 2089.9986316 19211.3384855</DataArray>
        <DataArray type="Float64" Name="NodalStressTrace" format="ascii">28655.8834751 -38052.1181505 38231.8265613 -29644.6001652 382.625041233 -519.590167233 669.021409122 -534.86788493 -6256.32325258 65140.3744268 -4717.72745616 -56569.563722 -73.895526811 891.016373925 -80.2829268874 -748.381180549 -26623.2230728 -19971.1114896 -16698.9725721 -12046.9981444 -10027.5136249 -8560.50931171 -7156.5370024 -6279.2975048 -4069.43497611 -2845.79786402 -928.913666332 19176.8130404 18754.4379915 15431.3441216 10679.7381802 9553.00038176 8613.29821243 6532.92119993 5602.60903771 4674.93113354 2325.86329667 1117.87006033 -21874.292622 -18134.7333664 -15522.2383391 -11989.386297 -8706.80210203 -8106.87067187 -6845.61191271 -6040.32438958 -3710.99534961 -2197.24719218 -1540.98967553 28074.8622647 19795.3414666 15675.4456388 12789.3513272 10566.095966 8865.87196777 6750.2334173 5670.4341929 4550.90488363 2855.78759288 1238.03793472 25805.626844 5331.91508204 -28535.1872636 -33904.1371506 538.72427867 321.14488873 -253.953964757 -396.464382224 709.478203496 -618.664164377 -6.17112660163 -5153.18586189 -382.038915618 -583.666639486 2564.54172911 2651.48972365 -1150.3269249 625.769090577 -80.4458003548 -2154.62173636 690.839718782 -1061.01343556 319.613328357 -1285.81200444 -39.9436759022 -3944.56791957 4652.59163061 -1121.79526682 2557.27084715 309.614022816 -320.907549896 -505.726320419 -16058.8571407 -17900.4290722 -917.013951352 -2702.73836595 -5991.42266464 -13414.3031195 -12363.7154208 -5254.21047924 -6705.78322835 -4837.08657985 -1008.84153043 -34621.5991122 16131.5767352 14798.7800987 2475.44285112 7865.45796215 2476.98040452 16322.5278192 8818.27917312 4317.49284754 5343.6350454 7760.51286642 662.611866042 34750.0743363</DataArray>
        <DataArray type="Float64" Name="NodalPrincipalStress" NumberOfComponents="3" format="ascii">1866.65939667 5561.51357175 21227.7105067 -24816.8366209 -8277.53209186 -4957.74943774 4555.61713245 8054.24002325 25621.9694056 -20899.1050095 -6164.33080836 -2581.16434733 -805.772797994 -144.357167212 1332.75500644 -1306.80324957 111.865523079 675.347559255 -530.974323682 -125.547994789 1325.54372759 -1255.20695625 100.775627822 619.563443499 -7086.08471691 -1443.76690444 2273.52836877 12356.5925411 15032.3940985 37751.3877872 -6464.45084528 -1088.70633604 2835.42972516 -32910.075917 -13054.5147051 -10604.9731 -954.043716221 -56.4050636823 936.553253092 -583.684448232 -76.9992960602 1551.70011822 -829.342603357 -49.1097978868 798.169474356 -1455.6181672 108.056940854 599.180045801 -21545.0152947 -5219.11892261 140.911144483 -17211.3163557 -4275.87339064 1516.07825672 -15553.1403484 -3370.76434123 2224.93211755 -11764.3918133 -2256.52752078 1973.92118972 -9301.02758838 -1593.1240987 866.638062177 -8268.08411507 -1225.05142464 932.626228001 -6413.83715576 -1792.33693732 1049.63709069 -5992.26791156 -1284.96318322 997.933589971 -4020.12877827 -512.422235062 463.116037216 -2851.63846847 -457.653248382 463.493852833 -1676.57372807 -98.105822716 845.765884452 -2437.51370445 2606.56639206 19007.7603528 -1818.46915077 4120.61817462 16452.2889676 -1852.60014142 2709.27643935 14574.6678237 -2407.21454177 1192.06245719 11894.8902648 -1062.14773016 2245.86126252 8369.28684941 -1170.72741032 2256.6613638 7527.36425895 -1283.26855522 760.636354643 7055.55340051 -1077.90678573 511.315939227 6169.19988422 -788.238828254 794.099355709 4669.07060609 -695.570111647 320.187659297 2701.24574902 -746.57185955 40.9726469663 1823.46927292 -18514.6362433 -4846.72208327 1487.06570458 -17341.9229219 -3215.05100213 2422.24055762 -15598.8115822 -3077.66569367 3154.23893673 -9864.00764383 -2929.69765693 804.319003775 -9205.79011264 -1168.50972666 1667.49773727 -8134.55821204 -1139.43163901 1167.11917918 -6208.99223796 -1626.69078807 990.071113319 -5869.05407324 -1189.29804916 1018.02773281 -4008.53132328 -292.753311312 590.289284981 -2500.09085061 -240.572253681 543.415912118 -1794.50288827 -148.871009654 402.384222396 1014.8478191 5876.82736762 21183.1870779 -2106.70860076 3493.4794731 18408.5705943 -2499.71469255 1845.03868469 16330.1216467 -1006.32157569 2919.16899599 10876.5039069 -1683.54316359 2983.70017968 9265.93894988 -1277.047234 1803.02823021 8339.89097156 -1248.40133893 774.389972268 7224.24478396 -1041.07261282 513.515290976 6197.99151474 -898.11775972 700.556050294 4748.46659305 -361.422802555 359.842411362 2857.36798407 -421.594440136 47.3449260988 1612.28744875 1294.30003588 5407.12808946 19104.1987187 -5844.85215779 1366.3708257 9810.39641414 -18730.9485829 -6295.30311287 -3508.93556786 -22627.8934029 -7207.14957489 -4069.09417284 -691.359023611 -111.01334257 1341.09664485 -993.460711219 14.5707308463 1300.0348691 -1180.65035183 71.2777572336 855.418629836 -1321.62728667 97.7784174391 827.38448701 -4737.68799009 155.094110805 5292.07208278 -7011.1737842 56.9480951514 6335.56152467 -1617.01780476 -69.3139608598 1680.16063901 -6665.08484498 -409.562297897 1921.46128099 -1718.0104093 -14.0364020837 1350.00789577 -6739.16413632 -154.75252662 6310.25002345 -2480.17885889 142.570356992 4902.15023101 -1824.1329017 -46.6190096815 4522.24163503 -2982.08474408 -138.383953023 1970.1417722 -2857.5639224 -48.8951595936 3532.22817257 -1208.16461811 -68.2993661582 1196.01818391 -8619.67711299 -546.350198393 7011.40557502 -5207.15133575 213.468515173 5684.52253936 -8352.19400911 -229.96652222 7521.14709576 -835.765528813 16.7039806446 1138.67487653 -5631.22997725 405.913604082 3939.50436873 -1516.44630115 -46.0712224514 1522.5738477 -5902.75533489 -250.760297325 2208.94771264 -2803.48570286 719.67283826 6736.4044952 -2949.34791966 -148.195022074 1975.74767492 -1866.18064698 -62.982852406 4486.43434654 -2994.54317919 -79.824054574 3383.98125658 -1161.50089354 -54.2851904517 894.878534091 -7344.49711752 33.2250421443 6805.54575496 -14809.6944377 -2588.82311943 1339.66041637 -15653.3044013 -3470.94764677 1223.82297584 -1808.98872857 -221.480387515 1113.45516473 -2922.12729308 -379.440134712 598.829061842 -7273.92404494 -915.75444495 2198.25582525 -12080.2260318 -2471.43716496 1137.36007721 -11217.2377816 -1625.38719654 478.9095573 -6217.17298461 -800.093223086 1763.05572845 -5826.98089604 -958.672488197 79.8701558833 -4875.79715422 -1426.68513712 1465.39571149 -1607.52142503 -69.9786798545 668.658574449 -23536.9470383 -7276.83258704 -3807.81948681 -1569.40443501 3145.54730949 14555.4338607 -1837.42526199 2534.49378608 14101.7115746 -356.224080939 342.517198888 2489.14973317 -2086.43939231 1896.52729585 8055.37005861 -1129.69442035 527.417119738 3079.25770513 -972.280275987 2485.33975487 14809.4683403 -1042.95498227 2335.17783825 7526.05631713 -1249.43522243 497.43848548 5069.48958449 -1396.48638804 677.339589347 6062.78184409 -1074.58923294 876.423490131 7958.67860922 -845.77484174 14.4936443113 1493.89306347 3533.6820751 7101.22486215 24115.167399</DataArray>
        <DataArray type="Float64" Name="ShellTopNodalVonMises" format="ascii">0 0 0 0 0 0 0 0 0 0 0 0 0 0 0 0 0 0 0 0 0 0 0 0 0 0 0 0 0 0 0 0 0 0 0 0 0 0 0 0 0 0 0 0 0 0 0 0 0 0 0 0 0 0 0 0 0 0 0 0 0 0 0 0 0 0 0 0 0 0 0 0 0 0 0 0 0 0 0 0 0 0 0 0 0 0 0 0 0 0 0 0 0 0 0 0 0 0 0 0 0 0 0 0 0 0 0 0 0 0 0 0 0 0 0 0</DataArray>
        <DataArray type="Float64" Name="ShellBottomNodalVonMises" format="ascii">0 0 0 0 0 0 0 0 0 0 0 0 0 0 0 0 0 0 0 0 0 0 0 0 0 0 0 0 0 0 0 0 0 0 0 0 0 0 0 0 0 0 0 0 0 0 0 0 0 0 0 0 0 0 0 0 0 0 0 0 0 0 0 0 0 0 0 0 0 0 0 0 0 0 0 0 0 0 0 0 0 0 0 0 0 0 0 0 0 0 0 0 0 0 0 0 0 0 0 0 0 0 0 0 0 0 0 0 0 0 0 0 0 0 0 0</DataArray>
      </PointData>
      <CellData Scalars="VonMises">
        <DataArray type="Int32" Name="ElementIndex" format="ascii">0 1 2 3 4 5 6 7 8 9 10 11 12 13 14 15 16 17 18 19 20 21 22 23 24 25 26 27 28 29 30 31 32 33 34 35 36 37 38 39 40 41 42 43 44 45 46 47 48 49 50 51 52 53 54 55 56 57 58 59 60 61 62 63 64 65 66 67 68 69 70 71 72 73 74 75 76 77 78 79 80 81 82 83 84 85 86 87 88 89 90 91 92 93 94 95 96 97 98 99 100 101 102 103 104 105 106 107 108 109 110 111 112 113 114 115 116 117 118 119 120 121 122 123 124 125 126 127 128 129 130 131 132 133 134 135 136 137 138 139 140 141 142 143 144 145 146 147 148 149 150 151 152 153 154 155 156 157 158 159 160 161 162 163 164 165 166 167 168 169 170 171 172 173 174 175 176 177 178 179 180 181 182 183 184 185 186 187 188 189 190 191 192 193 194 195 196 197 198 199 200 201 202 203 204 205 206 207 208 209 210 211 212 213 214 215 216 217 218 219 220 221 222 223 224 225 226 227 228 229 230 231 232 233 234 235 236 237 238 239 240 241 242 243 244 245 246 247 248 249 250 251</DataArray>
        <DataArray type="Float64" Name="VonMises" format="ascii">6861.13785306 7232.11358771 1075.97416413 3189.16419978 4419.52906137 4044.66413512 21049.0511813 20781.1456106 1718.98050423 1728.36873011 4252.22053873 4172.34564938 4431.85685178 9075.37977874 15397.7219592 9021.59142453 7887.96076675 9905.91640608 20548.6336093 11741.5425447 5362.63300186 6818.20882594 3054.77931392 19722.7957359 9976.20121858 7008.83847953 6819.61856326 11721.514472 7065.60428905 11431.2922267 4459.71076551 11344.0316893 4746.50232153 9683.25293482 6559.05665301 8338.45237948 8332.5758003 11035.0917102 8038.73193474 4674.49075284 8028.18427331 3591.49078025 3643.9174932 7422.82844296 2902.426104 3790.73453426 6867.84950592 3921.53242855 7130.31259727 3123.76849489 3351.99688453 3884.39855652 8378.84364044 5075.96600426 4584.25791971 4499.46214277 2674.2722142 2953.26962596 1848.83205075 8086.57070332 5211.96546982 5948.85409764 2885.915186 1996.56797335 1935.86458919 21186.8022221 2385.80416532 2352.20567694 19394.9123729 21852.6263333 2151.14172665 12687.3275236 7693.52165147 13405.0390617 4492.12192012 18815.2221862 7216.51059685 7567.75406218 14191.8874391 3406.54072208 10791.1815299 5504.68720575 6888.2383024 9656.61275978 20296.3800231 8257.99594695 5912.91522155 5252.74944945 4782.14577944 2265.71205423 7250.32954832 2276.92432111 3645.4830634 19167.5116933 7190.13063275 3672.84705897 4231.48705415 17012.5443363 3566.03674841 7497.39889987 7467.62418123 9686.01164248 9878.02473848 4046.37352471 2954.250392 3687.42362447 10312.619938 10353.4546851 3834.57648101 9679.41220892 8108.89162719 4444.78360543 5554.31297683 2503.90537902 8553.6534512 2374.00107326 1796.90287103 8090.1573708 1695.53539942 2920.03919889 2788.75599613 2725.50865813 6824.45192619 6853.10787971 6046.0639433 4113.53413735 6096.77925342 4022.8986759 999.918288931 6892.53257841 1178.03776344 3101.90061548 7297.45796844 19676.5303414 2483.7779092 20419.19923 2772.39421598 3195.75036216 3951.67659226 20054.0259332 6564.9379254 19623.3396747 2065.56083631 7075.24056135 2104.99464105 13495.4541936 2128.48378891 17805.4488612 2200.72621001 2359.35230685 9008.39144303 12422.9809473 12713.741264 2176.38058626 18431.7369196 1161.16560379 10952.2838044 1661.41539777 2004.00527966 13375.4204103 14976.7931252 1930.19175842 1984.121952 20138.5918881 1904.90343878 20542.1022554 1725.99342976 8086.57070332 24100.7747512 2169.27674297 1785.43182628 20591.0456035 1955.55059086 21186.8022221 24168.2458382 8086.57070332 1887.79500548 1338.46666481 2019.43752813 24168.2458382 8162.60961821 1517.40405056 20970.3469488 25964.308823 1670.67470382 1885.92180498 21186.8022221 1841.11676151 1965.97173586 13452.9070358 8162.60961821 2078.83707095 1757.02839068 12837.0586651 1936.89045913 15065.7231954 1780.15286915 1351.34311935 8162.60961821 21186.8022221 1894.83127732 24168.2458382 18491.2544453 2277.60217735 25436.6049827 16310.7743669 3028.17286006 2377.1076394 1199.55148543 8086.57070332 26387.3828761 3541.82112916 3271.41344222 4580.31016261 4243.9924243 3783.24068642 9545.24847383 14606.3690522 28172.9425566 14344.507723 14691.3717666 6853.55533833 11402.1094104 23499.6210067 29346.0628725 11586.5268381 20847.1729749 11979.4376861 9449.02000526 9210.28252366 12616.1531913 11369.7587855 12051.6113176 12674.0827658 11851.6337127 6756.31448866 9621.53293117 9239.65291306 7429.10749088 9277.07669334 8989.41252239 7715.96892664 7501.35136297 7480.33963045 2257.92989175 24795.2778248 1919.61756828 25531.4181638 18478.0987832 9853.03102463 2238.07898395 1724.840181</DataArray>
        <DataArray type="Int32" Name="HasVonMises" format="ascii">1 1 1 1 1 1 1 1 1 1 1 1 1 1 1 1 1 1 1 1 1 1 1 1 1 1 1 1 1 1 1 1 1 1 1 1 1 1 1 1 1 1 1 1 1 1 1 1 1 1 1 1 1 1 1 1 1 1 1 1 1 1 1 1 1 1 1 1 1 1 1 1 1 1 1 1 1 1 1 1 1 1 1 1 1 1 1 1 1 1 1 1 1 1 1 1 1 1 1 1 1 1 1 1 1 1 1 1 1 1 1 1 1 1 1 1 1 1 1 1 1 1 1 1 1 1 1 1 1 1 1 1 1 1 1 1 1 1 1 1 1 1 1 1 1 1 1 1 1 1 1 1 1 1 1 1 1 1 1 1 1 1 1 1 1 1 1 1 1 1 1 1 1 1 1 1 1 1 1 1 1 1 1 1 1 1 1 1 1 1 1 1 1 1 1 1 1 1 1 1 1 1 1 1 1 1 1 1 1 1 1 1 1 1 1 1 1 1 1 1 1 1 1 1 1 1 1 1 1 1 1 1 1 1 1 1 1 1 1 1 1 1 1 1 1 1 1 1 1 1 1 1</DataArray>
        <DataArray type="Float64" Name="StressTrace" format="ascii">-1961.37117666 1256.78255212 -764.435584364 5749.12497691 -3247.65189576 4971.98553273 -31063.6254852 30327.1853479 -15.3112118612 260.823654626 -5045.17031797 -4574.04937218 -2895.79958583 17886.1630423 20026.579858 3021.6421827 755.370089686 -19283.7881802 -29276.8439609 -18097.9419864 -8818.58657014 3901.7785229 -5728.18117344 18103.7588677 20491.8554872 20792.0590135 -19083.2194995 22921.6083008 20790.0802066 -15859.5727554 2226.22425482 -10065.3948189 5697.48478943 -14288.1847953 5634.39393248 8657.52453545 8664.66305285 -7374.54375752 4798.16143172 1825.67486507 4805.29994912 -1593.61255087 -1498.35402574 -13404.976417 -9782.06221002 -2761.22612334 -19085.1983064 -3312.60054733 12221.7139013 8598.79969434 798.457953147 -4024.79133993 -950.7209313 73.681044834 -873.325347744 -4133.74011075 2793.54108724 -868.099536994 259.522226359 -4717.72745616 -2889.3162942 5482.88958961 3083.0849384 -716.775271187 -622.188464487 -56569.563722 -3633.82623667 -2944.20550877 29791.4759856 -38685.7534065 158.632069268 -21992.7008193 16500.3991766 25297.7025754 -860.400758403 25653.5722223 149.024141885 17030.9083403 20654.9284099 -1864.73872335 -19557.1794189 -6814.03496898 2562.31013411 18665.6602914 -30969.4318101 2209.19067371 -1268.77321564 1405.82495256 -1933.49700126 599.325111483 -14005.2351318 797.410109774 1663.81625314 -38169.6914323 -14400.9173908 -1809.66037171 -3528.17011926 27558.5887869 1669.89146946 6991.09909407 7101.06408463 -19916.1587136 -12557.5267116 400.029058985 2012.34720718 -994.456702151 -15085.5336363 -15557.2106763 -1642.08863175 -13650.372987 10328.036451 3311.20264145 -232.430404724 405.909750895 24331.2729647 -3915.97761334 153.873174982 10431.432474 -858.460667013 -2637.52811866 1086.12032212 1288.71774487 -15235.8730541 -14483.8800142 11425.9151439 -5218.45992402 10803.512895 -5204.72489082 -1021.04175438 -2309.1148741 399.313421631 4468.77418926 1000.46678262 38243.5375659 -5684.82611612 -38618.6701164 -903.023018993 -3966.67168576 7152.00820732 -30941.2413398 -1828.1651017 29758.2073162 -426.000753678 3168.07216004 749.421252013 16112.3790095 -59.3744481724 -28707.103727 1088.2201589 346.978855212 27309.7535805 -4829.12184057 -2276.42861552 3338.73639793 38731.8251074 -99.5489726288 8177.86964629 -252.484712501 1129.20591036 11197.6923957 7506.03682679 163.935747931 -2942.10405816 -36855.0317435 -3117.51832005 -48066.9041338 191.309191675 -4717.72745616 -40073.5100067 -638.537969017 -643.618856939 -49309.0756205 -639.957572823 -56569.563722 65140.3744268 -4717.72745616 755.803317014 -377.14588397 808.244453564 65140.3744268 -6256.32325258 -305.227104764 48045.4305844 44459.2286902 1337.11271099 960.315492456 -56569.563722 -765.859009994 -208.715694079 -4826.20732989 -6256.32325258 40.4174084781 -558.078069683 -22426.9237548 280.09090719 19608.9636111 -839.326958829 43.1231158528 -6256.32325258 -56569.563722 1109.0013512 65140.3744268 31983.0809947 1727.67623163 22034.3320822 -23955.8226631 1850.21487275 -2208.84755978 -55.012088367 -4717.72745616 -28661.3337417 -2094.29706826 3887.48714366 3564.50768695 -3012.78294479 -3178.06751803 10352.8476009 -15772.5142604 -18642.3362453 18567.791119 16568.0474195 -7036.48682858 11428.3431417 -15415.9947298 19749.1924297 8152.31237278 17449.7161383 -14686.3759747 7717.96903497 8828.99968559 -9826.84038034 -11350.0797055 -12754.3599929 10013.2289311 -11864.7807861 -6766.61170463 -9132.79322467 7865.70934226 7129.17431703 7962.13824901 -9127.94319017 -5343.60205296 -5059.34219134 6646.2526142 446.635011309 36130.5191152 -760.522371678 -34864.1857277 30482.2603555 -11939.8593914 -845.933031845 3020.56338911</DataArray>
        <DataArray type="Float64" Name="HydrostaticPressure" format="ascii">653.790392221 -418.927517375 254.811861455 -1916.3749923 1082.55063192 -1657.32851091 10354.5418284 -10109.0617826 5.10373728708 -86.9412182086 1681.72343932 1524.68312406 965.26652861 -5962.05434742 -6675.52661934 -1007.2140609 -251.790029895 6427.92939341 9758.94798696 6032.64732878 2939.52885671 -1300.59284097 1909.39372448 -6034.58628925 -6830.61849574 -6930.68633783 6361.07316651 -7640.53610028 -6930.02673553 5286.52425178 -742.074751607 3355.13160629 -1899.16159648 4762.72826511 -1878.13131083 -2885.84151182 -2888.22101762 2458.18125251 -1599.38714391 -608.558288356 -1601.76664971 531.204183624 499.451341912 4468.32547234 3260.68740334 920.40870778 6361.7327688 1104.20018244 -4073.90463377 -2866.26656478 -266.152651049 1341.59711331 316.9069771 -24.560348278 291.108449248 1377.91337025 -931.180362413 289.366512331 -86.5074087862 1572.57581872 963.105431398 -1827.6298632 -1027.69497947 238.925090396 207.396154829 18856.5212407 1211.27541222 981.401836257 -9930.49199521 12895.2511355 -52.8773564228 7330.90027311 -5500.13305887 -8432.56752513 286.800252801 -8551.19074075 -49.6747139618 -5676.96944676 -6884.97613662 621.579574449 6519.0598063 2271.34498966 -854.103378038 -6221.88676379 10323.1439367 -736.396891237 422.924405212 -468.608317519 644.499000419 -199.775037161 4668.41171061 -265.803369925 -554.605417714 12723.2304774 4800.30579694 603.220123904 1176.05670642 -9186.1962623 -556.630489821 -2330.36636469 -2367.02136154 6638.71957122 4185.84223721 -133.343019662 -670.782402395 331.485567384 5028.51121211 5185.73689211 547.362877251 4550.12432899 -3442.67881701 -1103.73421382 77.4768015746 -135.303250298 -8110.42432157 1305.32587111 -51.2910583273 -3477.14415801 286.153555671 879.176039555 -362.040107373 -429.572581624 5078.62435136 4827.96000474 -3808.63838129 1739.48664134 -3601.17096499 1734.90829694 340.347251461 769.704958032 -133.104473877 -1489.59139642 -333.488927541 -12747.8458553 1894.94203871 12872.8900388 301.007672998 1322.22389525 -2384.00273577 10313.7471133 609.388367234 -9919.40243873 142.000251226 -1056.02405335 -249.807084004 -5370.79300317 19.7914827241 9569.03457568 -362.740052967 -115.659618404 -9103.25119352 1609.70728019 758.809538507 -1112.91213264 -12910.6083691 33.1829908763 -2725.95654876 84.1615708337 -376.401970121 -3732.5641319 -2502.0122756 -54.6452493104 980.701352719 12285.0105812 1039.17277335 16022.3013779 -63.7697305584 1572.57581872 13357.8366689 212.845989672 214.53961898 16436.3585402 213.319190941 18856.5212407 -21713.4581423 1572.57581872 -251.934439005 125.715294657 -269.414817855 -21713.4581423 2085.44108419 101.742368255 -16015.1435281 -14819.7428967 -445.704236996 -320.105164152 18856.5212407 255.286336665 69.5718980263 1608.73577663 2085.44108419 -13.4724694927 186.026023228 7475.6412516 -93.3636357298 -6536.3212037 279.775652943 -14.3743719509 2085.44108419 18856.5212407 -369.667117066 -21713.4581423 -10661.0269982 -575.892077209 -7344.77736073 7985.27422105 -616.738290917 736.282519928 18.337362789 1572.57581872 9553.77791391 698.099022755 -1295.82904789 -1188.16922898 1004.2609816 1059.35583934 -3450.94920031 5257.50475347 6214.11208178 -6189.26370632 -5522.68247317 2345.49560953 -3809.4477139 5138.66490993 -6583.06414323 -2717.43745759 -5816.5720461 4895.45865823 -2572.65634499 -2942.9998952 3275.61346011 3783.35990184 4251.45333096 -3337.74297704 3954.92692869 2255.53723488 3044.26440822 -2621.90311409 -2376.39143901 -2654.046083 3042.64773006 1781.20068432 1686.44739711 -2215.41753807 -148.878337103 -12043.5063717 253.507457226 11621.3952426 -10160.7534518 3979.95313047 281.977677282 -1006.85446304</DataArray>
        <DataArray type="Float64" Name="PrincipalStress" NumberOfComponents="3" format="ascii">-4764.55894492 -335.623424056 3138.81119231 -3741.61433399 389.244033801 4609.15285231 -847.127170561 -309.052168622 391.743754818 467.117220476 1293.78636392 3988.22139251 -3788.94534082 -737.974349926 1279.26779499 74.3307297574 558.406502858 4339.24830011 -24306.6082645 -4679.43142348 -2077.58579717 1411.11534796 5119.33593848 23796.7340614 -954.472414853 -86.2871827066 1025.4483857 -871.250327371 11.8217404925 1120.2522415 -4473.26784234 -713.25252242 141.350046788 -4295.14236723 -354.487048094 75.5800431452 -3863.12281103 -15.2773713502 982.600596551 1291.58422396 4966.49305861 11628.0857597 -850.987225767 4393.6500295 16483.9170543 -4526.11624928 1732.70413714 5815.05429484 -4212.45749261 77.0806929434 4890.74688935 -12987.0105367 -3813.89679716 -2482.88084641 -23364.64406 -4339.05217157 -1573.1477293 -13727.0667109 -3431.04587829 -939.829397173 -6362.13119346 -2122.81651618 -333.638860495 -2475.12857185 996.665147247 5380.24194751 -3222.30524482 -2601.17992716 95.3039985489 -2781.49344627 1994.52316764 18890.7291464 2846.34494287 4210.91867744 13434.5918669 4228.84891767 4980.14150472 11583.0685911 -10852.5197522 -4725.74301918 -3504.95672815 1650.37233187 6289.76700996 14981.468959 3988.32696991 5214.85665766 11586.896579 -12794.6830143 -2663.29027185 -401.599469216 -1992.64985329 1099.17254799 3119.70156012 -10723.0956402 -1147.8061118 1805.50693316 -715.874166335 1663.64597246 4749.7129833 -11122.1969405 -2543.72165061 -622.266204205 -2326.41016382 2940.3148883 5020.489208 -734.35097711 1042.54881098 8349.32670157 -707.723721476 1019.33834536 8353.04842897 -9571.63639878 -526.307497057 2723.40013831 -2108.3479811 102.146100533 6804.36331228 -2275.79329691 1028.96687876 3072.50128322 -2082.94732524 82.4162682723 6805.83100609 -2597.68672082 -545.263946626 1549.33811658 -2605.78389907 -494.410660811 1601.84053414 -9373.83518939 -2579.58140846 -1451.55981916 -5056.32083302 -2987.21130283 -1738.53007416 -2479.13211251 -1863.74124616 1581.64723533 -10859.4962557 -4854.50120587 -3371.20084479 -2808.793504 -1968.56017597 1464.75313265 374.034292606 3339.20465819 8508.47495053 1271.93426045 2503.16482514 4823.70060875 -1604.455844 142.725457188 2260.18833996 -3772.03020753 -900.501753673 647.740621263 -5111.98615183 -400.714879449 4561.98009998 -2997.88342981 217.790520711 2853.77395393 -3186.80536508 310.368486504 2003.11153083 -4325.26588889 -387.167098473 578.692876619 -361.34112916 513.97894593 2640.90327047 -1918.61766027 -432.040621795 1482.55874507 -845.328182229 -146.25579644 1251.10620503 -6464.45084528 -1088.70633604 2835.42972516 -4248.11616111 -301.104901862 1659.90476878 -1716.72665145 2058.88598392 5140.73025714 -361.896677243 570.125808808 2874.85580684 -1465.98394417 -72.0567778898 821.265450872 -1448.26428598 105.83231177 720.243509723 -32910.075917 -13054.5147051 -10604.9731 -2711.98978152 -917.258149952 -4.57830519395 -2509.8544312 -520.762452707 86.4113751361 562.153625517 6896.94007037 22332.3822898 -27037.8614738 -8851.98529357 -2795.90663905 -1223.63771574 125.13825329 1257.13153172 -15737.1188243 -3938.78451342 -2316.79748161 2623.56980423 3260.89790417 10615.9314682 3761.34655918 4170.21404712 17366.1419691 -3267.27421484 950.518421996 1456.35503444 371.246566582 4405.83768024 20876.4879754 -4021.10590576 -135.49810094 4305.62814859 3018.75937258 3292.48593416 10719.6630335 488.694847122 4045.54726951 16120.6862932 -2617.82338273 -561.237614544 1314.32227393 -13650.7914928 -3771.93403205 -2134.45389402 -5589.25200517 -1970.38516932 745.602205503 -3122.89739879 854.252459614 4830.95507329 2512.8999274 3519.41271633 12633.3476476 -23738.9798171 -5140.30241105 -2090.14958196 -2852.62514642 -1084.43296319 6146.24878333 -3570.23458474 -904.754119843 3206.21548895 -2218.91884534 -131.856458159 3756.60025605 -3292.23702152 -858.513366676 2217.25338694 -637.367798798 -470.480562824 1707.1734731 -9490.89707149 -2540.28101247 -1974.05704788 -582.127574037 -400.592546379 1780.13023019 -1653.43362801 779.266309948 2537.98357121 -25471.8548189 -7103.19581068 -5594.64080265 -9585.98306481 -2643.32585187 -2171.60847413 -2866.89801877 -279.727408445 1336.96505551 -3982.91442935 -16.8746918553 471.619001949 2744.96746489 4322.35127178 20491.2700502 -1600.15517116 768.952072425 2501.0945682 -1270.34262481 1128.52702255 7132.91469633 -1209.06583289 1155.53656459 7154.59335293 -13042.0069176 -4159.1381406 -2715.01365542 -10653.8082325 -2023.86024573 120.141766625 -1867.32563077 -433.392090051 2700.7467798 -912.984989897 448.782922392 2476.54927469 -2306.27267812 -611.974589072 1923.79056504 -11869.1659943 -2203.26779964 -1013.09984238 -11982.0402813 -2831.15430735 -744.016087696 -2619.63603514 -807.601462208 1785.14886559 -10926.8781018 -2217.95928988 -505.535595296 -162.307773624 1756.46247959 8733.88174506 -1336.43065566 867.944519202 3779.68877791 -2742.25678446 -971.670504263 3481.496884 -1284.43299121 84.8364870938 1605.50625502 3991.98171222 6753.92432961 13585.3669229 -2762.28520707 -1112.17708397 -41.5153223006 -1125.62156061 446.242437177 833.252298414 -105.397466498 1776.86392148 8759.96601905 -1395.36986893 80.0150225902 456.894179329 -2664.94866215 -657.461648351 684.882191833 -1066.99312833 46.6127087405 2106.50074171 -980.212068023 141.734876148 2127.19493675 -9627.88838343 -2854.28089377 -2753.70377686 -9394.76066899 -2659.7897615 -2429.32958372 1424.48708725 2186.13945581 7815.28860081 -4421.33557663 -894.699670669 97.5753232853 1270.98123293 1882.18869132 7650.34297073 -4386.73904211 -756.003769151 -61.9820795573 -817.131027165 -505.423807148 301.51307993 -5071.78174191 -16.797446006 2779.46431382 -574.032350303 190.768974854 782.576797081 197.212258598 737.718163024 3533.84376764 -3332.29826981 -603.53939233 4936.30444476 5765.05566113 6622.28910058 25856.1928042 -3525.54859516 -1329.09001346 -830.187507497 -26474.3894629 -6552.39282249 -5591.88783096 -1836.31419482 -424.523293927 1357.81446976 -3395.10488414 -711.983780332 140.416978712 951.182584899 1185.85826562 5014.9673568 -23583.5100079 -5089.43171675 -2268.29961515 -4846.01466782 557.933275912 2459.9162902 1890.63976445 4988.80115412 22878.7663976 -1473.72152645 220.431059054 827.289713713 -2261.54778844 -188.917080123 5618.53702861 -803.130120023 -27.1502571977 1579.70162923 -1158.56590855 3274.99684747 13995.9480706 -1331.94903894 168.494972537 1104.07961823 -21421.4582122 -4206.77621774 -3078.86929712 -930.801486765 409.959881805 1609.06176386 -1203.0124335 32.4712672431 1517.52002146 5879.77773494 6326.67545938 15103.3003862 -9020.97716795 -1105.36804178 5297.22336916 -8715.12519508 689.028180449 5749.66839911 146.264640738 659.180941459 2533.29081573 6102.95071892 7455.27113421 25173.6032543 -651.79549751 -126.895485823 679.142010704 -2369.65885959 744.945287852 9802.58321804 -1150.60398025 189.973132486 708.146135262 -642.612600206 137.653929384 1634.16458118 -3827.16797485 3417.09199337 11607.7683772 -4842.89314887 317.214438265 12031.7155374 -857.16013734 -275.796941886 1296.89282716 -2293.22534129 -466.591476587 -182.287240277 -25675.6499259 -6429.75709655 -4749.62472107 -2234.82979852 -811.959396704 -70.7291248294 -29495.6066323 -11409.7617026 -7161.53579894 -929.590567255 57.51423523 1063.3855237 -6464.45084528 -1088.70633604 2835.42972516 -29160.0409693 -7973.38619071 -2940.08284666 -1597.49998967 118.043365506 840.918655142 -1359.69432827 76.8714961039 639.203975229 -30111.1448802 -10638.4605672 -8559.47017313 -1475.64170105 135.649845649 700.034282576 -32910.075917 -13054.5147051 -10604.9731 12356.5925411 15032.3940985 37751.3877872 -6464.45084528 -1088.70633604 2835.42972516 -557.280996562 -178.203979297 1491.28829287 -799.550712331 -295.377994066 717.782822426 -663.12491092 -105.23934368 1576.60870816 12356.5925411 15032.3940985 37751.3877872 -7086.08471691 -1443.76690444 2273.52836877 -916.036075679 -214.402532666 825.211503581 8339.68427135 9733.55280967 29972.1935034 3990.64256261 8539.71952088 31928.8666067 -215.407801589 -0.00181908237884 1552.52233166 -551.657784247 -28.6081867102 1540.58146341 -32910.075917 -13054.5147051 -10604.9731 -1449.1334288 94.7556920208 588.518726783 -1293.42179141 136.161138875 948.544958455 -10055.9993793 5.35472573252 5224.4373237 -7086.08471691 -1443.76690444 2273.52836877 -1118.15576441 -113.594604197 1272.16777709 -1314.72040307 107.053151174 649.58918221 -15986.8895518 -3993.9772662 -2446.05693685 -907.441083227 -112.850817105 1300.38280752 153.627598389 3011.67302751 16443.6629852 -1442.07937176 93.7652848908 508.987128042 -827.939308568 158.781945816 712.280478605 -7086.08471691 -1443.76690444 2273.52836877 -32910.075917 -13054.5147051 -10604.9731 -530.647437215 52.4454347959 1587.20335362 12356.5925411 15032.3940985 37751.3877872 1213.82770568 8526.17812225 22243.0751668 -399.810060869 56.1910486363 2071.29524386 -5242.51659817 3797.50733805 23479.3413423 -17778.2324639 -7181.95159825 1004.36139902 -721.055551626 -23.6932478521 2594.96367223 -2236.09476889 -429.624997436 456.872206538 -758.886530486 90.5343651754 613.340076943 -6464.45084528 -1088.70633604 2835.42972516 -26620.1319322 -4715.55179431 2674.34998473 -2931.38386034 -245.405469462 1082.49226153 -422.122958736 991.249015943 3318.36108646 -1179.93270709 702.744138339 4041.6962557 -3795.13139912 -11.4492118091 793.79766614 -3475.89989196 -476.548569658 774.380943585 -1029.82173127 1778.20185852 9604.46747367 -13489.1962393 -5646.63186563 3363.3138445 -24673.650946 14.7186988096 6016.59600184 -340.350620809 3403.33511631 15504.8066235 -2950.40099822 5504.74298395 14013.7054338 -6822.50631006 -897.151624028 683.171105508 -1344.43988244 1547.57812597 11225.2048982 -20128.6129366 -1587.48214821 6300.10035505 -6459.52013124 475.736062049 25732.9764989 -4179.0080263 3152.60839851 9178.71200056 -3183.86112659 1145.50960259 19488.0676623 -11129.9904192 -6100.64609923 2544.26054371 -3549.72533485 4349.84629782 6917.848072 -1537.83526532 1547.75771138 8819.07723952 -11301.1188092 -1442.13169604 2916.41012486 -10660.3394412 -3105.45628829 2415.71602392 -12203.5707044 -1268.69742244 717.908134011 -3804.88955581 2999.93849486 10818.1799921 -11807.7068993 -784.044898435 726.971011668 -6692.03675676 -711.106799948 636.531852086 -9053.31846794 -1983.03799735 1903.56324062 -1183.56881093 329.898374774 8719.37977842 -1074.74021197 1025.517691 7178.396838 -1181.8398157 370.497013175 8773.48105153 -8767.86892129 -1713.95181028 1353.87754141 -5907.14864334 -2378.64156692 2942.1881573 -5693.12729353 -2274.75645665 2908.54155884 -1336.86492506 960.421363926 7022.69617533 -868.966595854 -302.620753874 1618.22236104 2042.50216407 5645.75406541 28442.2628857 -1498.08746266 110.75930292 626.80578806 -28235.0037239 -6520.12492612 -109.057077662 3155.92512504 4887.48169913 22438.8535314 -9705.96550875 -3904.47753435 1670.58365169 -1625.88796245 -171.355506466 951.310437072 229.62267173 661.560096057 2129.38062133</DataArray>
        <DataArray type="Float64" Name="PrincipalStrain" NumberOfComponents="3" format="ascii">-8.00787896485e-08 2.17287002465e-09 6.66980843286e-08 -7.48733342831e-08 1.84260683291e-09 8.02123420338e-08 -1.24562092346e-08 -2.46338776998e-09 1.05513936653e-08 -1.59640729493e-08 -6.11645999612e-10 4.94278616741e-08 -5.64476196335e-08 2.13270197474e-10 3.76763386031e-08 -1.99280815876e-08 -1.09381029443e-08 5.92775304333e-08 -3.1827861569e-07 4.62260970718e-08 9.45460872747e-08 -1.037672236e-07 -3.49002697762e-08 3.11965695364e-07 -1.76602967964e-08 -1.53685677086e-09 1.91096609281e-08 -1.72981788853e-08 -8.98269053535e-10 1.96868688224e-08 -6.14528157093e-08 8.37604023207e-09 2.42472308031e-08 -6.01638609393e-08 1.30197378448e-08 2.10066981106e-08 -5.93331396942e-08 1.21268470428e-08 3.06588664466e-08 -5.26684203076e-08 1.55798866215e-08 1.39295179642e-07 -1.0163224787e-07 -4.23184170078e-09 2.20301688759e-07 -9.70063396982e-08 1.92288960496e-08 9.5043970407e-08 -8.14686538185e-08 -1.80580180113e-09 8.75908561321e-08 -1.58542532051e-07 1.18152945394e-08 3.65341621962e-08 -3.08442629853e-07 4.48897909317e-08 9.62565877168e-08 -1.77368630404e-07 1.3843185059e-08 6.0108633994e-08 -8.0359922578e-08 -1.62979285704e-09 3.15977921771e-08 -6.26885814326e-08 1.78758763643e-09 8.31968710699e-08 -3.52934638034e-08 -2.37582793326e-08 2.63192792878e-08 -1.29243844864e-07 -4.05463934628e-08 2.73240288999e-07 -3.49615460061e-08 -9.61946236421e-09 1.6167732544e-07 -1.05730587296e-08 3.37951788704e-09 1.26005306634e-07 -1.19761568971e-07 -5.97857250108e-09 1.66931729037e-08 -6.75856922689e-08 1.857449461e-08 1.79991816521e-07 -1.50314143013e-08 7.74699418537e-09 1.26084878439e-07 -1.69645944171e-07 1.85084924744e-08 6.05113216661e-08 -4.65473155103e-08 1.08722433706e-08 4.83963535958e-08 -1.5600579838e-07 2.18210071474e-08 7.6668249411e-08 -3.77125979009e-08 6.47849039104e-09 6.37911634495e-08 -1.45320008344e-07 1.39945327544e-08 4.96787053305e-08 -6.73521627531e-08 3.04584453579e-08 6.90902541522e-08 -5.07416232983e-08 -1.77420558051e-08 1.17955247877e-07 -5.02777107682e-08 -1.82037009556e-08 1.17993772026e-07 -1.46153774159e-07 2.1830905444e-08 8.21826186723e-08 -5.97185829277e-08 -1.86665499832e-08 1.05803198235e-07 -5.00890535072e-08 1.12850640409e-08 4.92364172666e-08 -5.92774501079e-08 -1.90635547997e-08 1.0579986176e-07 -4.14129853116e-08 -3.29656236217e-09 3.56031902402e-08 -4.1971612301e-08 -2.76039501906e-09 3.61699843158e-08 -1.1663561173e-07 9.54338705868e-09 3.04923594313e-08 -5.19799774275e-08 -1.35536575811e-08 9.63613666567e-09 -3.42071987037e-08 -2.27785111858e-08 4.1207274899e-08 -1.19882652008e-07 -8.36131536726e-09 1.91856913385e-08 -3.79664484429e-08 -2.23621152081e-08 4.13994176663e-08 -4.54324227144e-08 9.63502693212e-09 1.05635760933e-07 -1.32303624245e-08 9.63534806255e-09 5.27310126153e-08 -3.32189997592e-08 -7.7134702286e-10 3.85529636572e-08 -5.28028838257e-08 5.255017458e-10 2.92785744232e-08 -9.08623673998e-08 -3.36732948419e-09 8.8797005848e-08 -5.59907538886e-08 3.72890519248e-09 5.2682883238e-08 -5.54407052897e-08 9.50680909684e-09 4.09434656343e-08 -6.2610337462e-08 1.05257829316e-08 2.8463182469e-08 -1.86829399154e-08 -2.42699566375e-09 3.70730275062e-08 -3.19110442465e-08 -4.3031849605e-09 3.12536604242e-08 -1.68111900687e-08 -3.82841718972e-09 2.2122591409e-08 -9.98352551716e-08 0 7.2876812565e-08 -6.65108017313e-08 6.79083594055e-09 4.32095869668e-08 -5.53801646253e-08 1.47383557459e-08 7.19726065343e-08 -1.99341594562e-08 -2.62517042958e-09 4.01769581053e-08 -2.41535220866e-08 1.7336967157e-09 1.83239666784e-08 -2.4229814749e-08 4.63197920925e-09 1.60424728855e-08 -3.68746136793e-07 0 4.54914869524e-08 -3.47919834997e-08 -1.4612531991e-09 1.54885153464e-08 -3.39935586847e-08 2.94672091589e-09 1.42228062901e-08 -1.17237758322e-07 4.08275654193e-10 2.870664883e-07 -3.36335627058e-07 1.40207343281e-09 1.13872105588e-07 -2.34045521607e-08 1.64414440709e-09 2.26668767208e-08 -1.98006346083e-07 2.11055768336e-08 5.12281931386e-08 -2.19925572498e-08 -1.01564639652e-08 1.2643701651e-07 -3.85651463669e-08 -3.09718930194e-08 2.14095339817e-07 -5.69905178824e-08 2.13399168017e-08 3.07340253185e-08 -1.03049301859e-07 -2.81211811766e-08 2.77762324305e-07 -7.53163560008e-08 -3.15506819696e-09 7.93229907228e-08 -1.69269331104e-08 -1.1843439824e-08 1.26089849164e-07 -7.94453603101e-08 -1.33895296086e-08 2.10863052261e-07 -4.06249825793e-08 -2.43124688433e-09 3.24005796159e-08 -1.69698215929e-07 1.37662797715e-08 4.41766251921e-08 -7.45973873717e-08 -7.38986042031e-09 4.30499051121e-08 -6.89779951237e-08 4.88335938948e-09 7.87364079292e-08 -3.33275454542e-08 -1.46351650883e-08 1.54623626493e-07 -3.08140631702e-07 3.72633772664e-08 9.3909072664e-08 -6.2445284178e-08 -2.96074293466e-08 1.04676660232e-07 -6.08667570782e-08 -1.13649770158e-08 6.49816014332e-08 -4.72334569244e-08 -8.47372687677e-09 6.37404692443e-08 -5.28551289657e-08 -7.65740394717e-09 4.946397862e-08 -1.44053667412e-08 -1.13060323588e-08 2.91361140227e-08 -1.16237080763e-07 1.28457889049e-08 2.33613768187e-08 -1.42284125597e-08 -1.08570477603e-08 2.96420895188e-08 -3.78372656051e-08 7.34144752842e-09 4.00033395232e-08 -3.09464340499e-07 3.16678982257e-08 5.96839198033e-08 -1.16307182386e-07 1.26278801402e-08 2.13883457268e-08 -4.54867044699e-08 2.56074972193e-09 3.25850383382e-08 -5.88476817483e-08 1.48073419481e-08 2.38793676902e-08 -6.71302704531e-08 -3.78359997537e-08 2.62443920418e-07 -3.68738451908e-08 7.12386076161e-09 3.92922213975e-08 -5.35539305783e-08 -9.00349427008e-09 1.02506562529e-07 -5.28872115449e-08 -8.97316702035e-09 1.0243788762e-07 -1.56853733983e-07 8.1138290188e-09 3.49332837436e-08 -1.44038466983e-07 1.62319956292e-08 5.60491758586e-08 -3.63933148242e-08 -9.76312049659e-09 4.84423156579e-08 -2.55797807003e-08 -2.89805186373e-10 3.73687127849e-08 -3.8568821013e-08 -7.10328507356e-09 3.998949636e-08 -1.55775081453e-07 2.3734456448e-08 4.58375756542e-08 -1.55849845183e-07 1.40951800478e-08 5.28563184128e-08 -4.16128608022e-08 -7.96079016205e-09 4.01902873542e-08 -1.44426137661e-07 1.73109259893e-08 4.91130803172e-08 -4.7277300586e-08 -1.16429958834e-08 1.17937647618e-07 -3.90102949257e-08 1.92810117898e-09 5.60033516978e-08 -4.99314956912e-08 -1.70491790589e-08 6.56525010088e-08 -2.55933687693e-08 -1.64078457808e-10 2.80769315179e-08 -3.01400809074e-08 2.11531391298e-08 1.4802278729e-07 -3.45168212169e-08 -3.87195607377e-09 1.60117623573e-08 -2.15638568755e-08 7.62790308336e-09 1.48152290778e-08 -4.66635206951e-08 -1.17072377755e-08 1.17978944037e-07 -2.22348947073e-08 5.16511042102e-09 1.21642947605e-08 -3.81882117884e-08 -9.06310103679e-10 2.40229326426e-08 -2.44703880495e-08 -3.78913678961e-09 3.44659266798e-08 -2.37270144556e-08 -2.89085692098e-09 3.39819727758e-08 -1.13507042603e-07 1.22885250617e-08 1.41563858043e-08 -1.1240035522e-07 1.26776759187e-08 1.6957650649e-08 -2.25134475677e-08 -8.36847500867e-09 9.61728662556e-08 -5.9745689606e-08 5.74897721907e-09 2.41769413925e-08 -2.2696832367e-08 -1.13458367111e-08 9.57770284779e-08 -5.91620469643e-08 8.26589381928e-09 2.11548680546e-08 -1.07993972714e-08 -5.01054889968e-09 9.97542186034e-09 -8.42940257465e-08 9.58425403459e-09 6.15148295742e-08 -1.23719440269e-08 1.83150915458e-09 1.28222258531e-08 -1.54893760086e-08 -5.45140921212e-09 4.64766377308e-08 -6.61732540791e-08 -1.54963034974e-08 8.73865106201e-08 -5.68355558613e-08 -4.09155062717e-08 3.1628556251e-07 -4.11109334124e-08 -3.19559752357e-10 8.94577250127e-09 -3.2615864667e-07 4.38212909382e-08 6.16592407809e-08 -3.0232879251e-08 -4.01390537725e-09 2.90866530912e-08 -4.60519263379e-08 3.77746558996e-09 1.96077654008e-08 -1.29866443118e-08 -8.62838166985e-09 6.24836443092e-08 -3.05374151547e-07 3.80873024307e-08 9.04797557462e-08 -8.21624219665e-08 1.81966112742e-08 5.35191529682e-08 -9.24232928724e-08 -3.48860099214e-08 2.97356201743e-07 -2.55433965468e-08 5.9194371839e-09 1.71896693419e-08 -5.55776253284e-08 -1.70859121739e-08 9.07668069883e-08 -1.81270790233e-08 -3.71602442801e-09 2.61255106057e-08 -9.05692769138e-08 -8.23168287347e-09 1.90871696984e-07 -2.44817345167e-08 3.38365426786e-09 2.07587976878e-08 -2.74796636539e-07 4.49046005007e-08 6.58514433121e-08 -2.19501140066e-08 2.94973998108e-09 2.52187749336e-08 -2.38287117158e-08 -8.84014416393e-10 2.66954624477e-08 -7.84592883921e-09 4.53600328973e-10 1.63448063256e-07 -1.4683619666e-07 1.67972826486e-10 1.19073241887e-07 -1.52096202414e-07 2.25523602749e-08 1.16535678621e-07 -1.15925269488e-08 -2.06693850688e-09 3.27379591581e-08 -5.26530228232e-08 -2.7538500825e-08 3.01516238548e-07 -1.16781350711e-08 -1.92999199688e-09 1.30392757958e-08 -7.90559630195e-08 -2.12133145669e-08 1.46999961279e-07 -2.02862822939e-08 4.61014979975e-09 1.42333627084e-08 -1.67736879054e-08 -2.28302378441e-09 2.55093168919e-08 -1.19066086943e-07 1.54701696095e-08 1.67582731023e-07 -1.22108173451e-07 -2.62776039756e-08 1.91277416437e-07 -1.66212700417e-08 -5.82452498331e-09 2.33825707275e-08 -2.99794532319e-08 3.94374711263e-09 9.22368292983e-09 -3.1888336258e-07 3.85403613933e-08 6.97428197951e-08 -2.81431891723e-08 -1.71845313855e-09 1.20472519105e-08 -3.41774534027e-07 -5.89455675973e-09 7.30010671647e-08 -1.80837213562e-08 2.48224975664e-10 1.89286917615e-08 -9.98352551716e-08 0 7.2876812565e-08 -3.69800003687e-07 2.36664422012e-08 1.17142075733e-07 -2.69312656551e-08 4.92882522662e-09 1.83536520341e-08 -2.24930995668e-08 4.18598002881e-09 1.46292974983e-08 -3.47882366545e-07 1.37531992689e-08 5.23630208728e-08 -2.46620991359e-08 5.2618867313e-09 1.57433119885e-08 -3.68746136793e-07 0 4.54914869524e-08 -4.96934574944e-08 0 4.21924168505e-07 -9.98352551716e-08 0 7.2876812565e-08 -1.35886612948e-08 -6.54865954557e-09 2.44561969376e-08 -1.32324594406e-08 -3.86925181563e-09 1.49465919192e-08 -1.57790817181e-08 -5.41834975504e-09 2.58159712078e-08 -4.96934574944e-08 0 4.21924168505e-07 -1.04785902231e-07 0 6.90354836453e-08 -1.5703982385e-08 -2.67364515767e-09 1.66334726584e-08 -5.10291374651e-08 -2.51430074677e-08 3.50717462558e-07 -1.16427618224e-07 -3.19447604274e-08 4.02425114024e-07 -9.73091364804e-09 -5.73051683006e-09 2.31020745409e-08 -1.43607109608e-08 -4.64693272086e-09 2.44951607814e-08 -3.68746136793e-07 0 4.54914869524e-08 -2.36302250634e-08 5.04200146608e-09 1.42118863974e-08 -2.31261945801e-08 3.42320269659e-09 1.85103307745e-08 -1.66070528488e-07 2.0783190606e-08 1.17709010283e-07 -1.04785902231e-07 0 6.90354836453e-08 -2.09389673755e-08 -2.28283154284e-09 2.34527555382e-08 -2.20244729012e-08 4.37989310615e-09 1.4455562254e-08 -2.00783989869e-07 2.19415240055e-08 5.06886158362e-08 -1.80528668622e-08 -3.29619049133e-09 2.29495768232e-08 -8.1185331506e-08 -2.81073449652e-08 2.21343897106e-07 -2.31843585092e-08 5.33847082867e-09 1.30497336301e-08 -1.55608290842e-08 2.7639942115e-09 1.30432526776e-08 -1.04785902231e-07 0 6.90354836453e-08 -3.68746136793e-07 0 4.54914869524e-08 -1.46077439106e-08 -3.7788762875e-09 2.47237707763e-08 -4.96934574944e-08 0 4.21924168505e-07 -1.14527832586e-07 2.12729608644e-08 2.76015334549e-07 -1.48293706945e-08 -6.36077866087e-09 3.10625849647e-08 -1.91793874318e-07 -2.39077155028e-08 3.41612058862e-07 -2.27499362916e-07 -3.0711289697e-08 1.21320237395e-07 -2.13205239848e-08 -8.3695097719e-09 4.02626901724e-08 -3.20609847374e-08 1.48773958954e-09 1.79512590919e-08 -1.38578409017e-08 1.91711858912e-09 1.1626367522e-08 -9.98352551716e-08 0 7.2876812565e-08 -3.71539591276e-07 3.52597541418e-08 1.72500787181e-07 -4.54644271137e-08 4.41802871685e-09 2.90789865782e-08 -2.45000855636e-08 1.74825110896e-09 4.49660467042e-08 -3.71894975043e-08 -2.22549894638e-09 5.97836118047e-08 -5.75690847917e-08 1.26992986869e-08 2.76538835631e-08 -5.0932137202e-08 4.77010164078e-09 2.80016497439e-08 -6.34946075846e-08 -1.13455980601e-08 1.33999334793e-07 -1.82917154756e-07 -3.72695306742e-08 1.30058032514e-07 -3.78329219374e-07 8.01690740293e-08 1.91632509657e-07 -8.58970448963e-08 -1.63714526354e-08 2.08370161069e-07 -1.25799078908e-07 3.12250236183e-08 1.89248611972e-07 -9.65473164929e-08 1.34949848191e-08 4.28438355105e-08 -7.39467827099e-08 -2.02378768393e-08 1.59489477502e-07 -3.07748548553e-07 3.6586737518e-08 1.83070412579e-07 -2.0460191285e-07 -7.5804297832e-08 3.93258738852e-07 -1.12548630657e-07 2.36099600891e-08 1.35523312698e-07 -1.33913347229e-07 -5.35107479731e-08 2.8713675885e-07 -1.4375821075e-07 -5.03561019514e-08 1.10192164275e-07 -9.90004806542e-08 4.77058496667e-08 9.53973111873e-08 -6.63983678656e-08 -9.09449829825e-09 1.25944292939e-07 -1.6776289054e-07 1.53325844178e-08 9.62769325202e-08 -1.49334533741e-07 -9.02956090175e-09 9.3506496325e-08 -1.71976198827e-07 3.11000192671e-08 6.79941224582e-08 -1.13576072884e-07 1.27993051996e-08 1.5799521872e-07 -1.68436924761e-07 3.62882266837e-08 6.43499507285e-08 -9.52809181772e-08 1.57934953065e-08 4.08210702729e-08 -1.2899251487e-07 2.31269386927e-09 7.44924311458e-08 -5.5690746527e-08 -2.75834987925e-08 1.28221155847e-07 -5.05130652953e-08 -1.15082756686e-08 1.02759479918e-07 -5.60719033586e-08 -2.72427908225e-08 1.28812627033e-07 -1.23712094866e-07 7.28922290974e-09 6.4263196584e-08 -8.68030374351e-08 -2.12736203015e-08 7.75417888625e-08 -8.4046611774e-08 -2.05625819463e-08 7.56986669127e-08 -5.33114312405e-08 -1.06475430165e-08 1.01937560624e-07 -1.80521011143e-08 -7.53424976327e-09 2.81385509422e-08 -1.16912898875e-07 -4.99953635644e-08 3.73368371669e-07 -2.45622427136e-08 5.3163400757e-09 1.4900060514e-08 -3.7494641604e-07 2.83299044908e-08 1.47392593105e-07 -7.20282206301e-08 -3.98707413971e-08 2.86083306916e-07 -1.29082819199e-07 -2.13408996747e-08 8.21959509231e-08 -2.65696348805e-08 4.43110730688e-10 2.12926211107e-08 -8.68085062122e-09 -6.59155597998e-10 2.66003684427e-08</DataArray>
        <DataArray type="Float64" Name="ShellTopVonMises" format="ascii">0 0 0 0 0 0 0 0 0 0 0 0 0 0 0 0 0 0 0 0 0 0 0 0 0 0 0 0 0 0 0 0 0 0 0 0 0 0 0 0 0 0 0 0 0 0 0 0 0 0 0 0 0 0 0 0 0 0 0 0 0 0 0 0 0 0 0 0 0 0 0 0 0 0 0 0 0 0 0 0 0 0 0 0 0 0 0 0 0 0 0 0 0 0 0 0 0 0 0 0 0 0 0 0 0 0 0 0 0 0 0 0 0 0 0 0 0 0 0 0 0 0 0 0 0 0 0 0 0 0 0 0 0 0 0 0 0 0 0 0 0 0 0 0 0 0 0 0 0 0 0 0 0 0 0 0 0 0 0 0 0 0 0 0 0 0 0 0 0 0 0 0 0 0 0 0 0 0 0 0 0 0 0 0 0 0 0 0 0 0 0 0 0 0 0 0 0 0 0 0 0 0 0 0 0 0 0 0 0 0 0 0 0 0 0 0 0 0 0 0 0 0 0 0 0 0 0 0 0 0 0 0 0 0 0 0 0 0 0 0 0 0 0 0 0 0 0 0 0 0 0 0</DataArray>
        <DataArray type="Float64" Name="ShellBottomVonMises" format="ascii">0 0 0 0 0 0 0 0 0 0 0 0 0 0 0 0 0 0 0 0 0 0 0 0 0 0 0 0 0 0 0 0 0 0 0 0 0 0 0 0 0 0 0 0 0 0 0 0 0 0 0 0 0 0 0 0 0 0 0 0 0 0 0 0 0 0 0 0 0 0 0 0 0 0 0 0 0 0 0 0 0 0 0 0 0 0 0 0 0 0 0 0 0 0 0 0 0 0 0 0 0 0 0 0 0 0 0 0 0 0 0 0 0 0 0 0 0 0 0 0 0 0 0 0 0 0 0 0 0 0 0 0 0 0 0 0 0 0 0 0 0 0 0 0 0 0 0 0 0 0 0 0 0 0 0 0 0 0 0 0 0 0 0 0 0 0 0 0 0 0 0 0 0 0 0 0 0 0 0 0 0 0 0 0 0 0 0 0 0 0 0 0 0 0 0 0 0 0 0 0 0 0 0 0 0 0 0 0 0 0 0 0 0 0 0 0 0 0 0 0 0 0 0 0 0 0 0 0 0 0 0 0 0 0 0 0 0 0 0 0 0 0 0 0 0 0 0 0 0 0 0 0</DataArray>
      </CellData>
    </Piece>
  </UnstructuredGrid>
</VTKFile>
