$MeshFormat
4.1 0 8
$EndMeshFormat
$PhysicalNames
5
2 2 "x_min"
2 3 "x_max"
2 4 "y_min"
2 5 "z_min"
3 1 "domain"
$EndPhysicalNames
$Entities
8 12 6 1
1 0 0 1 0 
2 0 0 0 0 
3 0 1 1 0 
4 0 1 0 0 
5 8 0 1 0 
6 8 0 0 0 
7 8 1 1 0 
8 8 1 0 0 
1 -1e-07 -1e-07 -9.999999994736442e-08 1e-07 1e-07 1.0000001 0 2 2 -1 
2 -1e-07 -9.999999994736442e-08 0.9999999000000001 1e-07 1.0000001 1.0000001 0 2 1 -3 
3 -1e-07 0.9999999000000001 -9.999999994736442e-08 1e-07 1.0000001 1.0000001 0 2 4 -3 
4 -1e-07 -9.999999994736442e-08 -1e-07 1e-07 1.0000001 1e-07 0 2 2 -4 
5 7.9999999 -1e-07 -9.999999994736442e-08 8.000000099999999 1e-07 1.0000001 0 2 6 -5 
6 7.9999999 -9.999999994736442e-08 0.9999999000000001 8.000000099999999 1.0000001 1.0000001 0 2 5 -7 
7 7.9999999 0.9999999000000001 -9.999999994736442e-08 8.000000099999999 1.0000001 1.0000001 0 2 8 -7 
8 7.9999999 -9.999999994736442e-08 -1e-07 8.000000099999999 1.0000001 1e-07 0 2 6 -8 
9 -9.999999983634211e-08 -1e-07 -1e-07 8.000000099999999 1e-07 1e-07 0 2 2 -6 
10 -9.999999983634211e-08 -1e-07 0.9999999000000001 8.000000099999999 1e-07 1.0000001 0 2 1 -5 
11 -9.999999983634211e-08 0.9999999000000001 -1e-07 8.000000099999999 1.0000001 1e-07 0 2 4 -8 
12 -9.999999983634211e-08 0.9999999000000001 0.9999999000000001 8.000000099999999 1.0000001 1.0000001 0 2 3 -7 
1 -1e-07 -9.999999994736442e-08 -9.999999994736442e-08 1e-07 1.0000001 1.0000001 1 2 4 -1 4 3 -2 
2 7.9999999 -9.999999994736442e-08 -9.999999994736442e-08 8.000000099999999 1.0000001 1.0000001 1 3 4 -5 8 7 -6 
3 -9.999999983634211e-08 -1e-07 -9.999999994736442e-08 8.000000099999999 1e-07 1.0000001 1 4 4 -9 1 10 -5 
4 -9.999999983634211e-08 0.9999999000000001 -9.999999994736442e-08 8.000000099999999 1.0000001 1.0000001 0 4 -11 3 12 -7 
5 -9.999999983634211e-08 -9.999999994736442e-08 -1e-07 8.000000099999999 1.0000001 1e-07 1 5 4 -4 9 8 -11 
6 -9.999999983634211e-08 -9.999999994736442e-08 0.9999999000000001 8.000000099999999 1.0000001 1.0000001 0 4 -2 10 6 -12 
1 -9.999999983634211e-08 -9.999999994736442e-08 -9.999999994736442e-08 8.000000099999999 1.0000001 1.0000001 1 1 6 -1 2 -3 4 -5 6 
$EndEntities
$Nodes
27 116 1 116
0 1 0 1
1
0 0 1
0 2 0 1
2
0 0 0
0 3 0 1
3
0 1 1
0 4 0 1
4
0 1 0
0 5 0 1
5
8 0 1
0 6 0 1
6
8 0 0
0 7 0 1
7
8 1 1
0 8 0 1
8
8 1 0
1 1 0 1
9
0 0 0.4999999999999999
1 2 0 1
10
0 0.4999999999999999 1
1 3 0 1
11
0 1 0.4999999999999999
1 4 0 1
12
0 0.4999999999999999 0
1 5 0 1
13
8 0 0.4999999999999999
1 6 0 1
14
8 0.4999999999999999 1
1 7 0 1
15
8 1 0.4999999999999999
1 8 0 1
16
8 0.4999999999999999 0
1 9 0 11
17
18
19
20
21
22
23
24
25
26
27
0.6666666666666661 0 0
1.333333333333333 0 0
1.999999999999999 0 0
2.666666666666666 0 0
3.333333333333333 0 0
4 0 0
4.666666666666666 0 0
5.333333333333333 0 0
6 0 0
6.666666666666666 0 0
7.333333333333334 0 0
1 10 0 11
28
29
30
31
32
33
34
35
36
37
38
0.6666666666666661 0 1
1.333333333333333 0 1
1.999999999999999 0 1
2.666666666666666 0 1
3.333333333333333 0 1
4 0 1
4.666666666666666 0 1
5.333333333333333 0 1
6 0 1
6.666666666666666 0 1
7.333333333333334 0 1
1 11 0 11
39
40
41
42
43
44
45
46
47
48
49
0.6666666666666661 1 0
1.333333333333333 1 0
1.999999999999999 1 0
2.666666666666666 1 0
3.333333333333333 1 0
4 1 0
4.666666666666666 1 0
5.333333333333333 1 0
6 1 0
6.666666666666666 1 0
7.333333333333334 1 0
1 12 0 11
50
51
52
53
54
55
56
57
58
59
60
0.6666666666666661 1 1
1.333333333333333 1 1
1.999999999999999 1 1
2.666666666666666 1 1
3.333333333333333 1 1
4 1 1
4.666666666666666 1 1
5.333333333333333 1 1
6 1 1
6.666666666666666 1 1
7.333333333333334 1 1
2 1 0 4
61
62
63
64
0 0.7340561224489796 0.2659438775510204
0 0.6250000000000001 0.6250000000000002
0 0.3567176870748299 0.3516156462585034
0 0.2812499999999999 0.71875
2 2 0 4
65
66
67
68
8 0.7340561224489796 0.2659438775510204
8 0.6250000000000001 0.6250000000000002
8 0.3567176870748299 0.3516156462585034
8 0.2812499999999999 0.71875
2 3 0 12
69
70
71
72
73
74
75
76
77
78
79
80
6.985827664399093 0 0.4976379440665156
1.014172335600906 0 0.5023620559334845
6.333333333333332 0 0.5
2.333333333333333 0 0.5
5.666666666666666 0 0.5
2.999999999999999 0 0.5
3.666666666666667 0 0.5
1.666666666666666 0 0.5
4.333333333333332 0 0.5
5 0 0.5
7.5 0 0.4722222222222232
0.4999999999999998 0 0.5277777777777781
2 4 0 12
81
82
83
84
85
86
87
88
89
90
91
92
6.985827664399093 1 0.4976379440665156
5.666666666666666 1 0.5
1.014172335600906 1 0.5023620559334845
6.333333333333332 1 0.5
2.333333333333333 1 0.5
2.999999999999999 1 0.5
1.666666666666666 1 0.5
3.666666666666667 1 0.5
4.333333333333332 1 0.5
5 1 0.5
7.5 1 0.4722222222222232
0.4999999999999998 1 0.5277777777777781
2 5 0 12
93
94
95
96
97
98
99
100
101
102
103
104
6.985827664399093 0.5023620559334844 0
2.333333333333333 0.5 0
1.014172335600906 0.4976379440665154 0
6.333333333333332 0.5 0
2.999999999999999 0.5 0
4.333333333333332 0.5 0
5 0.5 0
1.666666666666666 0.5 0
3.666666666666667 0.5 0
5.666666666666666 0.5 0
7.5 0.5277777777777768 0
0.4999999999999997 0.472222222222222 0
2 6 0 12
105
106
107
108
109
110
111
112
113
114
115
116
6.985827664399093 0.5023620559334844 1
5.666666666666666 0.5 1
1.014172335600906 0.5023620559334845 1
2.333333333333333 0.5 1
2.999999999999999 0.5 1
4.333333333333332 0.5 1
5 0.5 1
6.333333333333332 0.5 1
3.666666666666667 0.5 1
1.666666666666666 0.5000000000000002 1
7.5 0.5277777777777768 1
0.4999999999999997 0.5277777777777781 1
3 1 0 0
$EndNodes
$Elements
5 380 1 380
2 1 2 14
1 9 1 64 
2 1 10 64 
3 2 9 63 
4 12 2 63 
5 10 3 62 
6 3 11 62 
7 11 4 61 
8 4 12 61 
9 63 9 64 
10 10 62 64 
11 11 61 62 
12 61 12 63 
13 62 61 63 
14 62 63 64 
2 2 2 14
15 13 68 5 
16 5 68 14 
17 6 67 13 
18 16 67 6 
19 14 66 7 
20 7 66 15 
21 15 65 8 
22 8 65 16 
23 67 68 13 
24 14 68 66 
25 15 66 65 
26 65 67 16 
27 66 67 65 
28 66 68 67 
2 3 2 50
29 1 9 80 
30 28 1 80 
31 9 2 80 
32 2 17 80 
33 13 5 79 
34 5 38 79 
35 6 13 79 
36 27 6 79 
37 17 18 70 
38 17 70 80 
39 18 19 76 
40 70 18 76 
41 19 20 72 
42 19 72 76 
43 20 21 74 
44 72 20 74 
45 21 22 75 
46 74 21 75 
47 22 23 77 
48 75 22 77 
49 23 24 78 
50 77 23 78 
51 24 25 73 
52 24 73 78 
53 25 26 71 
54 25 71 73 
55 26 27 69 
56 26 69 71 
57 69 27 79 
58 29 28 70 
59 70 28 80 
60 30 29 76 
61 29 70 76 
62 31 30 72 
63 72 30 76 
64 32 31 74 
65 31 72 74 
66 33 32 75 
67 32 74 75 
68 34 33 77 
69 33 75 77 
70 35 34 78 
71 34 77 78 
72 36 35 73 
73 73 35 78 
74 37 36 71 
75 71 36 73 
76 38 37 69 
77 69 37 71 
78 38 69 79 
2 5 2 50
79 2 12 104 
80 17 2 104 
81 12 4 104 
82 4 39 104 
83 16 6 103 
84 6 27 103 
85 8 16 103 
86 49 8 103 
87 18 17 95 
88 95 17 104 
89 19 18 100 
90 18 95 100 
91 20 19 94 
92 94 19 100 
93 21 20 97 
94 20 94 97 
95 22 21 101 
96 21 97 101 
97 23 22 98 
98 98 22 101 
99 24 23 99 
100 23 98 99 
101 25 24 102 
102 24 99 102 
103 26 25 96 
104 96 25 102 
105 27 26 93 
106 93 26 96 
107 27 93 103 
108 39 40 95 
109 39 95 104 
110 40 41 100 
111 95 40 100 
112 41 42 94 
113 41 94 100 
114 42 43 97 
115 94 42 97 
116 43 44 101 
117 97 43 101 
118 44 45 98 
119 44 98 101 
120 45 46 99 
121 98 45 99 
122 46 47 102 
123 99 46 102 
124 47 48 96 
125 47 96 102 
126 48 49 93 
127 48 93 96 
128 93 49 103 
3 1 4 252
129 95 107 100 83 
130 107 95 100 70 
131 84 105 93 81 
132 93 105 112 69 
133 69 96 112 93 
134 107 100 76 70 
135 107 100 83 87 
136 105 84 93 112 
137 96 82 102 71 
138 112 96 82 84 
139 82 112 106 73 
140 96 112 82 71 
141 73 102 82 71 
142 82 112 73 71 
143 100 85 87 108 
144 108 87 76 114 
145 94 100 76 108 
146 100 94 85 108 
147 87 76 100 108 
148 108 76 94 72 
149 82 106 111 73 
150 102 82 90 73 
151 108 94 109 72 
152 94 108 109 85 
153 109 94 74 72 
154 82 111 90 73 
155 102 90 99 73 
156 85 94 97 109 
157 86 97 88 113 
158 74 97 109 113 
159 97 86 109 113 
160 111 78 110 98 
161 97 101 88 113 
162 101 97 75 113 
163 97 74 75 113 
164 78 111 90 98 
165 90 111 110 98 
166 99 78 90 98 
167 89 90 110 98 
168 90 78 99 73 
169 74 97 94 109 
170 85 97 86 109 
171 111 78 90 73 
172 78 110 98 77 
173 89 113 88 98 
174 98 110 113 77 
175 89 110 113 98 
176 113 101 88 98 
177 113 75 98 77 
178 113 75 101 98 
179 93 112 84 96 
180 96 69 112 71 
181 100 107 76 87 
182 107 76 87 114 
183 107 92 95 70 
184 95 83 92 107 
185 105 81 91 93 
186 69 93 105 79 
187 67 68 66 79 
188 63 104 61 62 
189 70 92 95 80 
190 115 105 91 93 
191 115 105 93 79 
192 107 92 70 80 
193 80 62 63 64 
194 103 65 66 67 
195 93 91 115 103 
196 115 93 103 79 
197 92 107 116 80 
198 92 104 95 80 
199 66 103 67 79 
200 63 104 62 80 
201 76 19 94 72 
202 100 76 19 94 
203 100 94 41 85 
204 76 108 114 30 
205 108 76 72 30 
206 58 112 106 82 
207 25 96 102 71 
208 112 73 36 106 
209 41 100 85 87 
210 52 87 85 108 
211 108 52 87 114 
212 82 58 112 84 
213 73 112 36 71 
214 96 82 47 102 
215 82 96 47 84 
216 73 25 102 71 
217 86 54 109 113 
218 75 21 97 101 
219 110 78 34 77 
220 113 109 74 32 
221 113 74 75 32 
222 78 34 111 110 
223 98 99 78 23 
224 110 56 90 89 
225 99 90 45 98 
226 23 78 98 77 
227 21 74 75 97 
228 24 102 99 73 
229 46 82 90 102 
230 54 86 88 113 
231 97 101 43 88 
232 88 43 97 86 
233 56 111 110 90 
234 57 106 111 82 
235 35 111 106 73 
236 90 89 45 98 
237 20 74 94 72 
238 42 94 97 85 
239 109 53 85 108 
240 72 109 108 31 
241 53 85 86 109 
242 97 20 74 94 
243 86 42 97 85 
244 74 109 72 31 
245 111 35 78 73 
246 99 78 24 73 
247 90 57 111 82 
248 99 46 90 102 
249 110 33 113 77 
250 89 88 44 98 
251 101 44 88 98 
252 75 22 98 77 
253 75 22 101 98 
254 55 110 113 89 
255 55 113 88 89 
256 33 75 113 77 
257 95 100 40 83 
258 37 112 105 69 
259 107 76 29 70 
260 70 100 18 95 
261 84 59 105 81 
262 96 93 69 26 
263 107 87 83 51 
264 48 81 84 93 
265 87 40 100 83 
266 76 107 29 114 
267 37 112 69 71 
268 100 70 18 76 
269 71 96 69 26 
270 107 87 51 114 
271 93 84 48 96 
272 59 105 112 84 
273 68 115 66 79 
274 62 104 61 92 
275 80 116 62 64 
276 103 66 115 79 
277 91 66 115 103 
278 62 92 116 80 
279 92 62 104 80 
280 91 65 66 103 
281 83 39 95 92 
282 69 105 38 79 
283 39 104 95 92 
284 105 115 38 79 
285 79 69 93 27 
286 70 28 107 80 
287 93 91 49 81 
288 50 92 83 107 
289 104 39 61 92 
290 68 38 115 79 
291 93 103 79 27 
292 28 116 107 80 
293 91 93 49 103 
294 107 50 92 116 
295 104 12 63 61 
296 80 28 116 64 
297 1 116 28 64 
298 5 68 38 115 
299 38 68 5 79 
300 65 103 16 67 
301 67 13 68 79 
302 104 4 12 61 
303 4 11 61 92 
304 39 4 104 61 
305 61 39 4 92 
306 1 10 116 64 
307 68 13 5 79 
308 68 5 14 115 
309 8 65 91 49 
310 8 65 49 103 
311 80 63 9 64 
312 62 61 11 92 
313 7 15 66 91 
314 9 2 63 80 
315 65 66 15 91 
316 80 1 28 64 
317 16 103 6 67 
318 10 62 116 64 
319 14 68 115 66 
320 65 91 49 103 
321 104 63 2 80 
322 67 103 6 79 
323 115 7 66 91 
324 11 3 62 92 
325 62 3 10 116 
326 8 65 103 16 
327 65 15 8 91 
328 3 62 92 116 
329 115 7 14 66 
330 95 40 39 83 
331 105 38 37 69 
332 80 9 1 64 
333 95 17 18 70 
334 29 28 107 70 
335 59 60 105 81 
336 26 93 69 27 
337 67 6 13 79 
338 63 2 12 104 
339 51 50 83 107 
340 81 48 49 93 
341 42 41 94 85 
342 53 52 85 108 
343 102 24 25 73 
344 106 36 35 73 
345 18 76 19 100 
346 94 19 20 72 
347 108 72 31 30 
348 100 41 40 87 
349 29 76 114 30 
350 106 57 58 82 
351 52 51 87 114 
352 45 46 90 99 
353 112 37 36 71 
354 59 112 58 84 
355 54 53 86 109 
356 55 56 110 89 
357 47 48 84 96 
358 25 96 71 26 
359 42 97 43 86 
360 46 47 82 102 
361 21 75 22 101 
362 111 35 34 78 
363 74 21 20 97 
364 110 34 33 77 
365 101 44 43 88 
366 109 74 32 31 
367 75 113 32 33 
368 88 54 113 55 
369 23 98 22 77 
370 45 89 44 98 
371 24 78 99 23 
372 57 111 56 90 
373 7 115 60 91 
374 79 103 6 27 
375 104 2 17 80 
376 50 3 92 116 
377 95 80 17 70 
378 17 80 95 104 
379 105 91 60 115 
380 60 91 105 81 
$EndElements
