<?xml version="1.0"?>
<VTKFile type="UnstructuredGrid" version="0.1" byte_order="LittleEndian">
  <UnstructuredGrid>
    <Piece NumberOfPoints="148" NumberOfCells="329">
      <Points>
        <DataArray type="Float64" NumberOfComponents="3" format="ascii">0 0 1 0 0 0 0 1 1 0 1 0 8 0 1 8 0 0 8 1 1 8 1 0 0 0 0.5 0 0.5 1 0 1 0.5 0 0.5 0 8 0 0.5 8 0.5 1 8 1 0.5 8 0.5 0 0.533333333333 0 0 1.06666666667 0 0 1.6 0 0 2.13333333333 0 0 2.66666666667 0 0 3.2 0 0 3.73333333333 0 0 4.26666666667 0 0 4.8 0 0 5.33333333333 0 0 5.86666666667 0 0 6.4 0 0 6.93333333333 0 0 7.46666666667 0 0 0.533333333333 0 1 1.06666666667 0 1 1.6 0 1 2.13333333333 0 1 2.66666666667 0 1 3.2 0 1 3.73333333333 0 1 4.26666666667 0 1 4.8 0 1 5.33333333333 0 1 5.86666666667 0 1 6.4 0 1 6.93333333333 0 1 7.46666666667 0 1 0.533333333333 1 0 1.06666666667 1 0 1.6 1 0 2.13333333333 1 0 2.66666666667 1 0 3.2 1 0 3.73333333333 1 0 4.26666666667 1 0 4.8 1 0 5.33333333333 1 0 5.86666666667 1 0 6.4 1 0 6.93333333333 1 0 7.46666666667 1 0 0.533333333333 1 1 1.06666666667 1 1 1.6 1 1 2.13333333333 1 1 2.66666666667 1 1 3.2 1 1 3.73333333333 1 1 4.26666666667 1 1 4.8 1 1 5.33333333333 1 1 5.86666666667 1 1 6.4 1 1 6.93333333333 1 1 7.46666666667 1 1 0 0.734056122449 0.734056122449 0 0.625 0.375 0 0.356717687075 0.648384353741 0 0.28125 0.28125 8 0.734056122449 0.734056122449 8 0.625 0.375 8 0.356717687075 0.648384353741 8 0.28125 0.28125 4 0 0.487812041643 2.93333333333 0 0.48735279648 1.86626259092 0 0.499799759206 0.743332428672 0 0.516348085924 5.06707074242 0 0.500699879726 6.13353949443 0 0.513004285013 7.25632122069 0 0.516519720891 4.53340067929 0 0.498085320228 2.39993265404 0 0.497858759281 3.46666666667 0 0.507934800152 6.67608789696 0 0.504920667651 5.60010170614 0 0.502284027457 1.32382139215 0 0.502691307522 0.370370635419 0 0.381925806531 7.62960412037 0 0.381938316368 7.68846552491 0 0.699779719608 0.311481390108 0 0.699753413208 3.46666666667 1 0.48735279648 4.53333333333 1 0.48735279648 2.4002061611 1 0.486995714987 1.33373740908 1 0.499300120274 5.6 1 0.486893551316 7.25632122069 1 0.515748189016 4 1 0.507880128109 6.67337157389 1 0.494878543737 6.13445081787 1 0.496962015842 0.759811788872 1 0.473898736275 2.93335787632 1 0.506294554658 5.06666666667 1 0.506282392317 1.86676837281 1 0.497715972543 0.381337383603 1 0.612871769534 7.62960412037 1 0.381882082266 7.68846552491 1 0.699661467326 0.301477806715 1 0.284364337327 4 0.51264720352 0 2.3999705897 0.486908125665 0 1.33333333333 0.48735279648 0 5.06666666667 0.51264720352 0 7.25632122069 0.516519720891 0 6.13333333333 0.513106448684 0 4.53333333333 0.492119871891 0 6.67605353678 0.504937694929 0 1.86666316544 0.506284127358 0 3.46663725637 0.487846587159 0 5.6 0.493717607683 0 0.759770556652 0.524739316455 0 2.93322751229 0.506391881774 0 0.381335236986 0.387057325256 0 7.62960412037 0.381938316368 0 7.68846552491 0.699779719608 0 0.301473380303 0.715489453236 0 4 0.51264720352 1 2.4001767508 0.487010289335 1 1.33373740908 0.500200240794 1 5.06666666667 0.51264720352 1 7.25632122069 0.516519720891 1 6.13333333333 0.513106448684 1 4.53333333333 0.492119871891 1 6.67605353678 0.504937694929 1 3.46663725637 0.487846587159 1 5.6 0.493717607683 1 0.759721317897 0.47563015143 1 2.93325205528 0.506404044116 1 1.86676347109 0.497868421688 1 7.62960412037 0.381938316368 1 0.380676851289 0.613661453577 1 7.68846552491 0.699779719608 1 0.301401173727 0.284621592348 1</DataArray>
      </Points>
      <Cells>
        <DataArray type="Int32" Name="connectivity" format="ascii">109 82 88 143 111 77 144 128 128 77 144 94 82 109 88 122 109 133 82 143 91 84 140 124 105 91 140 124 109 122 82 100 108 140 84 124 143 99 88 109 133 109 82 100 84 108 117 87 84 134 108 87 120 108 137 87 105 91 124 119 91 105 140 136 120 137 103 87 117 108 84 124 134 140 84 108 126 107 142 89 88 81 126 142 99 88 126 142 105 140 101 124 120 117 108 87 108 134 137 87 122 116 82 100 137 80 103 87 103 114 120 87 99 143 88 132 105 85 91 119 85 105 91 136 140 108 101 124 107 99 126 142 107 126 123 89 107 142 89 139 142 81 126 89 114 103 80 87 98 108 137 120 142 99 88 132 126 115 88 99 98 137 103 120 107 123 97 89 89 97 107 139 80 139 103 89 80 137 103 131 103 97 89 139 89 103 80 114 105 104 85 119 104 85 136 105 104 90 102 138 100 133 141 92 139 80 103 131 77 78 144 94 100 125 116 92 144 102 111 128 144 102 128 94 145 73 93 74 119 104 85 121 138 85 136 104 90 85 104 121 90 85 138 104 73 93 127 145 110 73 127 145 106 100 141 92 100 106 125 92 145 93 127 83 145 127 110 83 102 86 90 118 112 146 144 77 102 144 86 94 128 102 86 94 146 112 76 77 144 135 146 112 96 145 93 74 106 127 83 110 141 145 110 83 77 144 112 111 76 78 146 77 118 102 86 128 135 144 86 102 144 102 112 111 96 147 145 74 127 106 83 125 146 78 144 77 130 113 73 110 141 110 106 83 96 93 145 83 73 127 130 110 106 113 130 110 102 144 112 135 145 141 147 96 144 78 95 94 73 75 93 74 79 78 77 94 106 130 127 110 77 111 129 128 77 128 79 94 127 75 93 73 145 141 96 83 145 72 73 74 127 125 130 106 144 95 86 94 110 72 73 145 133 59 100 141 90 121 118 28 109 99 61 143 85 119 121 27 90 85 121 27 91 119 26 124 133 109 60 143 143 133 82 32 17 116 125 92 143 99 61 132 119 91 26 85 140 105 68 136 60 100 109 133 105 140 68 101 88 142 34 81 142 88 34 132 45 125 116 100 102 138 70 104 106 100 59 141 118 86 90 28 37 80 137 87 107 63 142 139 32 133 82 92 99 107 62 142 124 91 84 25 84 140 39 91 63 107 97 139 62 99 142 132 137 108 66 134 108 137 66 98 140 134 67 108 139 103 64 131 42 86 90 138 103 139 64 97 37 137 80 131 108 67 140 101 65 137 103 98 131 137 103 65 35 89 142 139 104 136 69 105 89 142 81 35 84 117 124 25 109 46 122 100 84 39 140 134 80 89 36 139 82 18 116 122 136 41 85 138 104 105 55 119 121 56 104 118 139 36 80 131 90 85 41 138 116 122 46 100 135 138 70 102 83 17 125 92 69 138 136 104 31 141 133 92 18 82 116 92 125 45 106 100 119 55 104 121 122 47 109 99 99 126 48 107 86 42 135 138 47 122 115 99 115 126 48 99 102 104 56 118 103 97 50 114 123 50 97 114 141 31 83 92 71 146 135 112 30 147 141 96 130 44 113 106 94 86 128 29 96 141 30 83 110 58 145 141 44 130 125 106 112 135 71 102 43 95 86 144 127 93 16 83 58 110 106 141 86 118 128 29 125 127 16 83 119 85 26 27 99 62 61 132 37 80 36 131 97 64 63 139 137 65 66 98 35 142 81 34 67 68 140 101 144 86 43 135 18 82 19 122 25 84 117 24 61 60 109 143 32 82 143 33 84 38 39 134 46 45 116 100 59 58 106 141 146 13 78 76 126 49 48 107 118 86 28 29 16 17 125 83 91 124 26 25 98 51 52 120 54 101 53 124 52 53 108 117 81 21 20 126 80 22 114 23 137 38 37 87 123 50 49 97 123 21 22 89 133 32 31 92 51 103 50 114 41 85 40 136 48 47 115 99 122 47 46 109 140 40 39 91 88 33 34 132 23 24 120 87 54 55 105 119 138 69 70 104 136 68 69 105 88 20 19 115 76 112 14 77 63 62 107 142 60 59 100 133 121 90 27 28 134 66 67 108 89 35 36 139 90 41 42 138 103 64 131 65 2 72 110 145 55 56 104 121 116 17 18 92 56 57 102 118 42 43 86 135 79 128 5 94 75 93 1 127 135 70 71 102 30 141 31 83 145 9 72 74 79 12 78 94 8 93 75 74 125 45 44 106 72 73 10 110 7 77 111 129 127 11 75 73 15 77 128 79 144 13 78 146 4 78 95 144 112 14 77 111 14 7 77 111 93 8 96 74 95 78 12 94 78 4 13 144 94 128 5 29 10 2 72 110 72 2 9 145 15 77 129 128 1 11 75 127 79 5 12 94 5 15 128 79 58 2 110 145 93 16 1 127 9 145 147 74 93 1 8 75 73 113 10 110 11 127 130 73 77 7 15 129 96 0 147 74 7 111 57 129 113 3 130 73 4 95 43 144 8 0 96 74 78 12 4 95 113 10 3 73 3 11 130 73 6 146 112 76 6 13 146 76 112 14 6 76 147 0 9 74 6 146 71 112 30 0 147 96 3 130 44 113 124 105 54 101 124 54 105 119 114 87 23 120 23 87 114 80 87 134 38 84 87 38 134 137 87 117 24 120 87 24 117 84 107 123 49 97 107 49 123 126 89 126 21 81 89 21 126 123 91 136 40 85 40 136 91 140 114 89 22 80 114 22 89 123 99 122 88 109 99 88 122 115 114 97 89 103 114 89 97 123 120 108 52 98 120 52 108 117 120 103 51 114 120 51 103 98 124 108 53 117 124 53 108 101 126 88 20 81 126 20 88 115 88 122 19 82 19 122 88 115 138 86 102 135 138 102 86 90 143 88 33 82 143 33 88 132 128 102 129 118 128 129 102 111 57 129 102 118 57 102 129 111 118 104 90 102 118 90 104 121 100 92 82 133 82 92 100 116 83 106 92 125 83 92 106 141</DataArray>
        <DataArray type="Int32" Name="offsets" format="ascii">4 8 12 16 20 24 28 32 36 40 44 48 52 56 60 64 68 72 76 80 84 88 92 96 100 104 108 112 116 120 124 128 132 136 140 144 148 152 156 160 164 168 172 176 180 184 188 192 196 200 204 208 212 216 220 224 228 232 236 240 244 248 252 256 260 264 268 272 276 280 284 288 292 296 300 304 308 312 316 320 324 328 332 336 340 344 348 352 356 360 364 368 372 376 380 384 388 392 396 400 404 408 412 416 420 424 428 432 436 440 444 448 452 456 460 464 468 472 476 480 484 488 492 496 500 504 508 512 516 520 524 528 532 536 540 544 548 552 556 560 564 568 572 576 580 584 588 592 596 600 604 608 612 616 620 624 628 632 636 640 644 648 652 656 660 664 668 672 676 680 684 688 692 696 700 704 708 712 716 720 724 728 732 736 740 744 748 752 756 760 764 768 772 776 780 784 788 792 796 800 804 808 812 816 820 824 828 832 836 840 844 848 852 856 860 864 868 872 876 880 884 888 892 896 900 904 908 912 916 920 924 928 932 936 940 944 948 952 956 960 964 968 972 976 980 984 988 992 996 1000 1004 1008 1012 1016 1020 1024 1028 1032 1036 1040 1044 1048 1052 1056 1060 1064 1068 1072 1076 1080 1084 1088 1092 1096 1100 1104 1108 1112 1116 1120 1124 1128 1132 1136 1140 1144 1148 1152 1156 1160 1164 1168 1172 1176 1180 1184 1188 1192 1196 1200 1204 1208 1212 1216 1220 1224 1228 1232 1236 1240 1244 1248 1252 1256 1260 1264 1268 1272 1276 1280 1284 1288 1292 1296 1300 1304 1308 1312 1316</DataArray>
        <DataArray type="UInt8" Name="types" format="ascii">10 10 10 10 10 10 10 10 10 10 10 10 10 10 10 10 10 10 10 10 10 10 10 10 10 10 10 10 10 10 10 10 10 10 10 10 10 10 10 10 10 10 10 10 10 10 10 10 10 10 10 10 10 10 10 10 10 10 10 10 10 10 10 10 10 10 10 10 10 10 10 10 10 10 10 10 10 10 10 10 10 10 10 10 10 10 10 10 10 10 10 10 10 10 10 10 10 10 10 10 10 10 10 10 10 10 10 10 10 10 10 10 10 10 10 10 10 10 10 10 10 10 10 10 10 10 10 10 10 10 10 10 10 10 10 10 10 10 10 10 10 10 10 10 10 10 10 10 10 10 10 10 10 10 10 10 10 10 10 10 10 10 10 10 10 10 10 10 10 10 10 10 10 10 10 10 10 10 10 10 10 10 10 10 10 10 10 10 10 10 10 10 10 10 10 10 10 10 10 10 10 10 10 10 10 10 10 10 10 10 10 10 10 10 10 10 10 10 10 10 10 10 10 10 10 10 10 10 10 10 10 10 10 10 10 10 10 10 10 10 10 10 10 10 10 10 10 10 10 10 10 10 10 10 10 10 10 10 10 10 10 10 10 10 10 10 10 10 10 10 10 10 10 10 10 10 10 10 10 10 10 10 10 10 10 10 10 10 10 10 10 10 10 10 10 10 10 10 10 10 10 10 10 10 10 10 10 10 10 10 10 10 10 10 10 10 10 10 10 10 10 10 10 10 10 10 10 10 10</DataArray>
      </Cells>
      <PointData Vectors="Displacement">
        <DataArray type="Float64" Name="Displacement" NumberOfComponents="3" format="ascii">0 0 0 0 0 0 0 0 0 0 0 0 1.5325237424e-06 2.84955072857e-07 -1.644458246e-05 -1.48903713964e-06 3.03803830055e-07 -1.64442116519e-05 1.4845170108e-06 2.79319020882e-07 -1.64185627768e-05 -1.53955412711e-06 3.09141066351e-07 -1.64189040569e-05 0 0 0 0 0 0 0 0 0 0 0 0 2.18064356908e-08 2.94270167716e-07 -1.64431760831e-05 1.5059247725e-06 2.81338741285e-07 -1.64337973315e-05 -2.81143178784e-08 2.94405308424e-07 -1.64184161155e-05 -1.51190646656e-06 3.07318613857e-07 -1.64331920541e-05 -1.94135820497e-07 -2.99280108058e-08 -1.45908365469e-07 -3.50314261895e-07 -1.2491290694e-08 -4.82741520019e-07 -5.06065530398e-07 9.11714855747e-09 -1.00012174098e-06 -6.7697753972e-07 4.08316216978e-08 -1.65200617264e-06 -8.49188775187e-07 4.13292763853e-08 -2.49862552883e-06 -9.54564769949e-07 5.66579451095e-08 -3.49668794359e-06 -1.08143814098e-06 7.10003485813e-08 -4.60214727092e-06 -1.16286528367e-06 9.57906775254e-08 -5.8322132021e-06 -1.26704397774e-06 1.24747307394e-07 -7.17296013249e-06 -1.33321675947e-06 1.57980924596e-07 -8.59347557812e-06 -1.39467795205e-06 1.88108768411e-07 -1.0081247647e-05 -1.43691316325e-06 2.15412817545e-07 -1.16288450753e-05 -1.46458500405e-06 2.45838860459e-07 -1.3210624802e-05 -1.48197808617e-06 2.7773547555e-07 -1.48177137965e-05 2.17778595171e-07 4.11837187455e-08 -1.49142125858e-07 3.78603701015e-07 4.21866737422e-08 -4.78874287976e-07 5.32930196879e-07 5.98452983726e-08 -9.87965996674e-07 6.88434789317e-07 7.28187043225e-08 -1.6593095888e-06 8.5968881801e-07 8.22485798159e-08 -2.49688665305e-06 9.59182664048e-07 8.07615120919e-08 -3.49679418086e-06 1.09384389629e-06 8.92238832053e-08 -4.60808768221e-06 1.20877817523e-06 1.10721669849e-07 -5.83858492972e-06 1.31327317525e-06 1.36091113178e-07 -7.17289250599e-06 1.37912250348e-06 1.59459011492e-07 -8.59361583932e-06 1.43977284622e-06 1.84961105333e-07 -1.00809488768e-05 1.48045388841e-06 2.11828390985e-07 -1.16265516749e-05 1.5032416353e-06 2.36754671236e-07 -1.32095142479e-05 1.5240879595e-06 2.58918012935e-07 -1.48183880948e-05 -2.07146185002e-07 4.12744660989e-08 -1.65730562946e-07 -3.84918694239e-07 4.28342428219e-08 -4.8120247867e-07 -5.76867432597e-07 7.33596411758e-08 -9.77080162562e-07 -6.98281845947e-07 9.22980065394e-08 -1.63596856521e-06 -8.70102032937e-07 9.0885817883e-08 -2.4701951183e-06 -1.01201741773e-06 1.0512516182e-07 -3.47926318791e-06 -1.11703695009e-06 1.0793213712e-07 -4.59915405367e-06 -1.22770379033e-06 1.31723228167e-07 -5.83334421441e-06 -1.2935608064e-06 1.59037353899e-07 -7.15877602579e-06 -1.3829035173e-06 1.79572169332e-07 -8.57293415799e-06 -1.42871360201e-06 2.0591022427e-07 -1.006563237e-05 -1.4743505803e-06 2.28795967466e-07 -1.16027229496e-05 -1.514951005e-06 2.5539118161e-07 -1.31829665484e-05 -1.53370895334e-06 2.81499056322e-07 -1.47934402657e-05 2.16558232387e-07 -2.01449529745e-08 -1.46255097606e-07 3.43621981265e-07 -5.65965118158e-09 -4.75789599506e-07 5.12770672314e-07 7.56909467542e-09 -9.88058479183e-07 6.65127515497e-07 1.73291110571e-08 -1.64469494009e-06 8.40460674737e-07 3.13618161688e-08 -2.47011468301e-06 9.80529282586e-07 3.81748344033e-08 -3.46900069041e-06 1.06311627156e-06 4.8487508761e-08 -4.59372886584e-06 1.17037601902e-06 7.34164023624e-08 -5.82672088044e-06 1.23628669627e-06 1.05861193235e-07 -7.15581972243e-06 1.32616455942e-06 1.38167262596e-07 -8.57310901866e-06 1.37000142255e-06 1.67125711491e-07 -1.00658062455e-05 1.41498104422e-06 1.99931483084e-07 -1.16029936466e-05 1.45223574676e-06 2.28161707736e-07 -1.31835913313e-05 1.47342297567e-06 2.53138852425e-07 -1.47948588768e-05 0 0 0 0 0 0 0 0 0 0 0 0 6.91467750652e-07 2.87739850694e-07 -1.64257018654e-05 -3.85368068412e-07 2.97718173959e-07 -1.64280098572e-05 4.50043346587e-07 2.91030519901e-07 -1.64352617432e-05 -6.50361020505e-07 2.9903207749e-07 -1.64365994038e-05 -1.47524372254e-08 1.04431568946e-07 -5.19008954357e-06 -1.7690266417e-08 6.60402743445e-08 -2.97566543156e-06 -4.91072993543e-10 4.67303906287e-08 -1.27642565365e-06 3.09937688743e-08 5.63436972406e-09 -2.23807711596e-07 2.49622337477e-08 1.44648639457e-07 -7.86411126834e-06 6.03558194031e-08 2.00438449506e-07 -1.0842320615e-05 7.04280922041e-08 2.57831695213e-07 -1.41773420286e-05 1.78689549251e-08 1.15151486347e-07 -6.47126871134e-06 2.78822798963e-09 5.68569168548e-08 -2.02077092386e-06 1.91845466908e-08 7.29265761744e-08 -4.01189208585e-06 3.48617087679e-08 2.2670280684e-07 -1.24396977707e-05 2.96378008567e-08 1.7265114623e-07 -9.31601249471e-06 1.16161387689e-08 3.15785742671e-08 -6.73416958896e-07 -2.30649200101e-08 -1.50146243208e-10 -5.29098012063e-08 -3.3304891731e-07 2.78774456075e-07 -1.53136500755e-05 6.23421548525e-07 2.74680778196e-07 -1.54930321171e-05 3.36978387668e-08 2.27038358509e-08 -3.74740697488e-08 -4.40715997933e-08 8.44022467999e-08 -4.01070673152e-06 -5.7570440722e-08 1.18349528487e-07 -6.47716617448e-06 -2.95540120137e-08 5.66444478146e-08 -1.99718086946e-06 -2.61419414663e-08 3.37455640032e-08 -6.71307192115e-07 -6.55009827838e-08 1.72810457972e-07 -9.30927763009e-06 1.8155491835e-08 2.55630975398e-07 -1.41526971167e-05 -4.57979098869e-09 8.95566465028e-08 -5.18059973883e-06 -4.37556177527e-08 2.29137375977e-07 -1.23998572823e-05 -3.76513446295e-08 2.0033443643e-07 -1.08232549965e-05 -4.07016524732e-08 1.62837807254e-08 -2.47043605084e-07 2.50769109555e-09 6.66029786971e-08 -2.92872508166e-06 -1.27157942308e-08 1.44269697192e-07 -7.83608198638e-06 -1.79662948016e-08 3.82747816236e-08 -1.27852108031e-06 2.47582502821e-08 -3.99618913407e-09 -6.02286877008e-08 -3.8425852968e-07 2.7892842134e-07 -1.52881945839e-05 5.74544702962e-07 2.72900987197e-07 -1.54667185644e-05 -3.90340787064e-08 1.0996059636e-08 -3.75256037222e-08 -1.13831325256e-06 9.24016890519e-08 -5.18983703881e-06 -7.71308732011e-07 6.69011815866e-08 -2.0878881223e-06 -4.68227682637e-07 1.64378167843e-08 -7.31674737862e-07 -1.31169354142e-06 1.4858121765e-07 -7.87246013408e-06 -1.49626979993e-06 2.67698109189e-07 -1.416747308e-05 -1.42952667435e-06 2.08610364645e-07 -1.08378448348e-05 -1.22916093689e-06 1.38578498281e-07 -6.49055268491e-06 -1.46757375143e-06 2.3428949744e-07 -1.24325975153e-05 -6.22149864834e-07 6.5797403719e-08 -1.28971801611e-06 -1.0292950741e-06 9.50524509332e-08 -4.04346566233e-06 -1.37704779541e-06 1.8585735477e-07 -9.31876291282e-06 -2.96120069924e-07 6.16812700973e-09 -2.68469981174e-07 -9.11227953724e-07 6.69623765243e-08 -2.97132875548e-06 -1.53587687136e-07 -5.33408621722e-09 -7.69535748953e-08 -1.4998453928e-06 2.87253069002e-07 -1.53037462026e-05 -1.51945248057e-06 2.91852093321e-07 -1.54749249564e-05 -1.1836446377e-07 9.78273644924e-09 -5.58855487979e-08 1.13017438626e-06 8.14206109219e-08 -5.23290527741e-06 7.63853978115e-07 5.05151760064e-08 -2.09255307743e-06 4.66705596906e-07 2.92561659503e-08 -7.06296286348e-07 1.30468410656e-06 1.41662012747e-07 -7.87112816622e-06 1.48829481293e-06 2.46223796905e-07 -1.41730303261e-05 1.42249905961e-06 1.91911362607e-07 -1.08370634525e-05 1.22681868963e-06 9.8530998421e-08 -6.48259833258e-06 1.46203982602e-06 2.21602345166e-07 -1.24265111641e-05 1.02409862871e-06 5.34667900657e-08 -4.01796219362e-06 1.37189777703e-06 1.59344849688e-07 -9.31879224692e-06 2.94170906962e-07 5.29597028167e-09 -2.49076067176e-07 9.05390832273e-07 6.59180480545e-08 -2.96834552313e-06 6.15725061329e-07 3.90950353237e-08 -1.31096434593e-06 1.50565399882e-06 2.64482018803e-07 -1.53061194917e-05 1.56935362331e-07 7.76211153865e-09 -7.9506226045e-08 1.49327799218e-06 2.65749635896e-07 -1.54771749782e-05 1.09371633762e-07 1.41477125539e-08 -6.65625849633e-08</DataArray>
        <DataArray type="Float64" Name="DisplacementMagnitude" format="ascii">0 0 0 0 1.65182965435e-05 1.65142854894e-05 1.64879050678e-05 1.64938232541e-05 0 0 0 0 1.64458234866e-05 1.65050493983e-05 1.64210795212e-05 1.65054568849e-05 2.44690935151e-07 5.96586531511e-07 1.12090541093e-06 1.7858023981e-06 2.63931036794e-06 3.62508352975e-06 4.72803437017e-06 5.94778465957e-06 7.28507511248e-06 8.69771506846e-06 1.01790012092e-05 1.1719264478e-05 1.32938351742e-05 1.48942283519e-05 2.67146006727e-07 6.11915894179e-07 1.12413204966e-06 1.79793029184e-06 2.64202056216e-06 3.62686136324e-06 4.73697450465e-06 5.96342837189e-06 7.29339386887e-06 8.70503528136e-06 1.01849244826e-05 1.17223427194e-05 1.32968813958e-05 1.48988089582e-05 2.684767085e-07 6.17699764458e-07 1.13703268019e-06 1.78115400928e-06 2.62053462142e-06 3.6249831564e-06 4.7340932504e-06 5.96259275227e-06 7.27644601624e-06 8.68561272331e-06 1.01686074064e-05 1.16982578649e-05 1.32721855103e-05 1.4875395113e-05 2.6209509862e-07 5.86927457748e-07 1.11321633651e-06 1.77418047445e-06 2.60937238748e-06 3.60511591798e-06 4.71539098466e-06 5.94355501468e-06 7.26260058709e-06 8.67617432265e-06 1.01599847575e-05 1.16906631769e-05 1.32652978413e-05 1.48702018725e-05 0 0 0 0 1.64427675177e-05 1.64352259653e-05 1.6443997882e-05 1.64521788709e-05 5.19116105099e-06 2.97645074274e-06 1.2772808696e-06 2.26013830553e-07 7.86548106493e-06 1.08443411379e-05 1.41798612227e-05 6.47231781503e-06 2.02157255866e-06 4.01260070787e-06 1.24418121722e-05 9.3176593423e-06 6.74257029301e-07 5.77188023322e-08 1.53198079431e-05 1.55080027127e-05 5.52748984933e-08 4.01183680269e-06 6.47850311556e-06 1.99820255691e-06 6.72662999116e-07 9.311111847e-06 1.41550172199e-05 5.18137578461e-06 1.24020514074e-05 1.08251743741e-05 2.50903026769e-07 2.92948337582e-06 7.83742026015e-06 1.27922003559e-06 6.52413619323e-08 1.52955663287e-05 1.5479791979e-05 5.52516385521e-08 5.31401012631e-06 2.22680707278e-06 8.68824082674e-07 7.98237088136e-06 1.42487816694e-05 1.0933706849e-05 6.60736821773e-06 1.25211079886e-05 1.43344770177e-06 4.17349947652e-06 9.42179100874e-06 3.99751513311e-07 3.10863553937e-06 1.71870540829e-07 1.53797496196e-05 1.55520807576e-05 1.31259448348e-07 5.3541779109e-06 2.22818380408e-06 8.47068168177e-07 7.97978241263e-06 1.42530851479e-05 1.09317097391e-05 6.59839932078e-06 1.2514185861e-05 4.146764629e-06 9.42058295611e-06 3.85491189321e-07 3.10405426707e-06 1.44888691388e-06 1.5382270268e-05 1.76097127477e-07 1.55513165789e-05 1.28813391226e-07</DataArray>
        <DataArray type="Float64" Name="NodalVonMises" format="ascii">19198.5773949 18061.3405892 18922.5441925 19787.2061124 1809.73773156 1772.3241826 1753.72535407 1693.32940651 7186.36301712 23940.2672965 7535.33387945 23695.5999114 1699.83201263 1745.07617812 1605.44389183 1900.10181776 19066.3372866 17317.1562537 17293.5112484 17564.5638822 15184.8222571 12503.9366813 11415.8010661 10262.521768 8941.34494455 6914.46964744 5666.73416678 4123.26786736 2943.11465849 2240.69943275 23265.509827 17485.5776341 16128.1075814 16788.6985874 15144.2118569 12641.1509527 12719.4509765 11141.5508356 8913.26250509 6904.42476505 5644.11111717 3972.81406975 2927.58218787 2381.08495701 23543.0248277 19060.408243 16489.3650551 15859.2856498 16108.1177659 12899.0583985 11417.5939029 9908.54957819 8664.11544976 7654.37207217 5390.34980982 4705.12148987 3455.61227499 2152.76260351 18490.7439149 16604.7523723 16528.3949581 16783.4937802 16396.4922951 12284.28638 10861.7018098 9711.72990719 8574.44289433 7497.64819525 5310.7794497 4622.26533814 3487.29807505 2413.12703014 17943.1489306 13870.2730072 15125.0037404 14028.5534157 1690.09949977 1849.88025019 1817.32918897 1886.52663792 8286.45963592 7317.66566879 11976.4410954 13462.8473962 4957.20932149 3133.28932702 2300.60597877 7196.26325302 12915.0880984 8927.80861378 2405.46857243 4203.86622485 12492.612443 10847.5519542 1886.4766879 1825.18618297 17723.8956142 7196.11372639 4893.83321566 13594.7816498 13322.7194631 3716.6147608 2318.13961112 7878.93649481 3459.07210889 4060.22789043 13337.6916891 9691.29699375 6553.34531939 9859.30515299 12500.8130869 1601.45069102 2003.62469009 14237.0610041 9139.54078131 19804.5977656 17984.4578345 8415.54015207 2570.70381583 4609.54716953 7911.12582985 3999.83157398 13688.0482541 12510.7707644 4987.16974547 17901.3720713 10680.9285088 15477.2165878 2005.48657837 1876.64298381 19054.4973407 13395.1236133 20004.1331894 15336.0142033 8291.39510711 2821.29821535 4545.05572081 7527.23009554 3338.50680724 10352.4050381 4952.9810646 16454.5753665 10608.5544269 14794.433299 2037.96603101 17968.8030875 1891.17269975 23495.4333025</DataArray>
        <DataArray type="Float64" Name="NodalStressTrace" format="ascii">37329.082993 -38170.5385518 39799.2235116 -39024.912559 692.959304009 -820.028788285 564.378882158 -482.590662796 -1326.0749468 67990.139028 -403.412627778 -68137.0778557 -47.5397692674 657.938615997 107.452956338 -863.306680664 -21258.9497426 -18728.9162899 -19412.7776707 -17192.7053232 -16552.8328682 -14068.7408811 -11935.533201 -10545.7707946 -9135.90448863 -7410.22433095 -5929.36984052 -4829.21682931 -3163.40514972 -1389.35886332 28689.781742 18002.7614534 17933.2519188 17058.3133498 15950.8430357 15204.7243599 12740.8917865 10800.2613426 9678.3226286 7474.38149239 5826.35839654 4634.59391265 3119.80190897 1435.33420836 -25743.2913615 -18901.4071701 -18571.1147691 -17878.9084159 -15254.879012 -14698.3606817 -13336.7582748 -11926.7322027 -9592.86295375 -7681.20924005 -6379.18694735 -4314.29566093 -2889.56146655 -1258.22383062 24842.3012607 19122.8087124 19324.3612113 17325.1500549 15191.9892372 14470.8341324 12723.001901 11152.1580428 9786.86182605 7741.70215159 6227.14400629 4404.45923871 2832.5689886 1794.95141398 45083.8339617 -13910.9860967 30005.3973189 -33744.3631902 82.9279768253 -216.221991997 224.22832851 -556.321783847 4377.00875041 -239.141993384 -471.94352567 2448.04896545 117.195673743 256.802012669 621.271260618 -2192.09877612 -804.552441407 -1270.84463851 -548.214671399 10.1546696025 1277.82706234 -6143.58834801 -195.574601475 251.446766105 22263.8125754 -3182.85133427 -16.6380684926 -877.605984415 -2324.80703187 -93.4468909064 110.085816713 1187.14754904 -362.0983431 -10.1276327931 -7574.04253112 1146.87427805 219.056382556 3523.22120262 11287.6977251 223.813196606 580.295472082 -16181.2537751 -9942.03821111 -25155.3461058 -22967.8926769 -9977.97539769 -2343.24830953 -5331.02733294 -9139.7988417 -4670.55401416 -13219.9330471 -16104.7226515 -5267.38160512 -22702.566383 -9700.6615181 -27259.0834367 -871.495498525 -718.454654264 -28681.9733097 17435.691394 24603.0546652 19230.1064401 10436.6016109 2733.6497961 5615.96909533 6783.63956549 3349.04838691 10671.0788613 5276.5366558 21747.6368801 10325.2980615 15948.0532208 437.640947451 31664.6082506 837.512473979 40768.3538225</DataArray>
        <DataArray type="Float64" Name="NodalPrincipalStress" NumberOfComponents="3" format="ascii">4350.35054989 7941.18469633 25037.5477468 -24547.2474305 -8404.21892234 -5219.07219892 5546.06573863 8531.70307643 25721.4546966 -25837.9009993 -8667.1371426 -4519.87441709 -618.656098895 -81.1041254588 1392.71952836 -1420.81811183 62.7483151252 538.041008417 -681.94134848 -51.7371304932 1298.05736113 -1224.28059196 46.0363601348 695.653569034 -4576.92601233 -179.045088192 3429.89615372 13859.1534118 15538.270276 38592.7153402 -4207.65992617 -336.273666567 4140.52096496 -38491.436133 -15474.2237578 -14171.4179648 -1002.18610041 7.8368619948 946.809469148 -607.39995053 -71.8498625302 1337.18842906 -886.831223507 35.8696285724 958.414551272 -1508.90447077 39.189651602 606.408138508 -19436.5282092 -3308.88238161 1486.46084826 -17387.1027939 -2878.89563196 1537.08213595 -17679.9437291 -3114.05288412 1381.21894253 -17008.844007 -2226.39200758 2042.5306914 -15178.2240442 -2632.84344626 1258.23462221 -12818.6855661 -1876.70657024 626.651255173 -11146.9978137 -1904.74512378 1116.20973639 -10112.3506768 -1528.16709557 1094.74697775 -8919.37179718 -889.879974521 673.34728307 -6943.92064526 -949.268646033 482.964960338 -5652.48291117 -781.130146257 504.243216906 -4277.10449882 -742.285907218 190.173576737 -2958.17513478 -436.193491541 230.963476598 -1896.24079145 -92.5606477841 599.442575914 -758.328635218 4818.94884103 24629.1615361 -2181.88916944 3061.64523107 17123.0053917 -1123.46381698 2644.3433892 16412.3723466 -1494.72090694 1934.64487395 16618.3893828 -1521.44487806 2595.4261791 14876.8617346 -682.816787202 2668.05229008 13219.488857 -1339.38337773 1556.22679572 12524.0483685 -1235.2115939 1152.36697264 10883.1059639 -628.494100418 1279.05164387 9027.76508515 -466.217942336 985.514054943 6955.08537978 -522.022302893 744.784787651 5603.59591178 -306.102222036 902.870627935 4037.82550675 -220.118918039 409.084598717 2930.83622829 -582.226353691 -10.4140024564 2027.9745645 -23724.3120062 -4371.18350928 2352.20415398 -18628.0134303 -2293.4361229 2020.04238305 -16690.3990282 -2971.36501415 1090.64927322 -15943.4838553 -3242.92404877 1307.49948812 -15533.2591874 -1651.28595193 1929.66612742 -13351.3592644 -1832.14708231 485.14566504 -11738.2929305 -2257.73557894 659.270234655 -10146.5651298 -2632.74844148 852.58136863 -8782.55959503 -1425.301229 614.997870278 -7459.17453074 -1079.84167082 857.806961518 -5622.7033257 -1042.93150828 286.447886625 -4490.68251023 -442.270805096 618.657654394 -3216.70673198 -201.94234635 529.087611781 -1796.61157102 -39.115753013 577.503493413 -1.86043259563 4706.99586356 20137.1658297 -1408.02544529 3676.89578002 16853.9383777 -738.496949923 2838.65936627 17224.198795 -1493.47531198 2183.51068835 16635.1146785 -2075.52587848 1551.86278756 15715.6523281 -730.872113118 2711.71616218 12489.9900834 -500.900706086 2026.42029491 11197.4823122 -576.001627797 1999.07413695 9729.0855336 -525.355569472 1531.11838754 8781.09900799 -745.144793622 1104.68557205 7382.16137317 -313.261427131 1023.23524464 5517.17018878 -600.877795813 546.728692082 4458.60834244 -644.441602574 291.979915498 3185.03067568 -514.566660519 160.049878716 2149.46819578 8065.6935513 10130.8273391 26887.3130713 -12578.1523024 -3423.51553701 2090.68174268 3724.84907912 6564.60636872 19715.9418711 -20475.8335892 -7643.85673069 -5624.67287027 -870.768782916 -104.175265528 1057.87202527 -1148.56667274 -22.068959489 954.413640231 -892.895950263 -55.5703687758 1172.69464755 -1359.74735212 31.9188341051 771.50673417 -2490.50805512 187.481250139 6680.03555539 -4234.68610075 -45.9003730072 4041.44448037 -6725.42912334 -191.289125122 6444.77472279 -6606.26141343 767.818309599 8286.49206929 -2655.53296231 41.2376446848 2731.49099137 -1623.06662194 74.3693454023 1805.4992892 -986.087125586 32.0753735713 1575.28301263 -4759.36189672 -461.313970392 3028.57709099 -7393.5810346 -278.161745861 6867.19033906 -5412.2707078 -147.509511785 4288.93558108 -1593.71337092 -54.9242001154 1100.42289964 -2282.55193811 -1.80832607258 2294.51493378 -6509.91750698 465.124540936 7322.62002838 -8433.32447323 -1260.27901852 3550.01514374 -1177.43392245 -1.23389656613 983.093217539 -860.915805352 -99.3254373541 1211.68800881 -594.849538148 4029.82844166 18828.8336719 -5483.97608692 -166.686961592 2467.81171424 -2808.53022093 69.8193905128 2722.07276193 -7796.76192875 -329.926570278 7249.08251461 -8296.59210355 -280.197568926 6251.9826406 -2140.62077403 -24.4603329059 2071.63421603 -1260.97185519 16.5506968657 1354.50697504 -3647.72097494 -113.444413529 4948.31293751 -2071.98527018 -44.8715010652 1754.75842814 -2237.11517937 -8.73033998707 2235.71788656 -10766.0099197 -925.164916637 4117.13230518 -4853.75384967 386.003805032 5614.62432269 -3471.01219343 62.5361170562 3627.53245893 -3764.17040514 119.766244536 7167.62536323 -2326.21078298 2275.46528176 11338.4432263 -867.384851984 139.214264008 951.983784581 -837.193381519 -10.418624822 1427.90747842 -14390.9929159 -3163.51246799 1373.25160874 -8985.34608867 -1882.77824472 926.086122273 -21265.9345335 -4095.96265347 206.551081178 -19276.9983849 -3732.86563362 41.9713415947 -8776.42166547 -1403.14622276 201.592490542 -2424.18849462 -332.295420741 413.235605829 -4729.02060461 -846.845574425 244.838846091 -8077.13961717 -1524.80925593 462.150031396 -4132.89239778 -711.87721259 174.215596204 -12894.3777747 -2408.63457052 2083.07929808 -13552.0455652 -2249.49020723 -303.186879075 -4924.31668732 -851.647145061 508.582227263 -19067.6853627 -4034.2666156 399.385595242 -9959.09675974 -1462.71365347 1721.14889511 -19097.1279593 -5730.3456636 -2431.60981377 -1534.68193976 -62.8394998293 726.025941063 -1437.20509252 63.2521601522 655.498278104 -21864.720115 -5656.79739546 -1160.45579929 258.329496668 2572.41485231 14604.9470451 -553.951996978 3961.44691062 21195.5597516 -341.306619092 3356.08166417 16215.331395 40.6012096801 1543.98638894 8852.01401231 -365.585368375 378.836377252 2720.39878722 -95.8780886916 919.52689607 4792.32028795 -1186.67995492 946.948276498 7023.37124391 -410.77003307 534.707464592 3225.11095539 -1133.15952651 1713.0943692 10091.1440186 -481.252200567 849.794254171 4907.9946022 -157.914862875 4180.3842334 17725.1675095 -1422.33584861 1594.52885819 10153.1050519 -1334.71579511 2551.91644884 14730.8525671 -911.851082504 -46.0674704831 1395.55950044 2970.084606 6520.8503995 22173.6732451 -639.125924128 -2.55405895377 1479.19245706 3849.4677775 7917.27730214 29001.6087429</DataArray>
        <DataArray type="Float64" Name="ShellTopNodalVonMises" format="ascii">0 0 0 0 0 0 0 0 0 0 0 0 0 0 0 0 0 0 0 0 0 0 0 0 0 0 0 0 0 0 0 0 0 0 0 0 0 0 0 0 0 0 0 0 0 0 0 0 0 0 0 0 0 0 0 0 0 0 0 0 0 0 0 0 0 0 0 0 0 0 0 0 0 0 0 0 0 0 0 0 0 0 0 0 0 0 0 0 0 0 0 0 0 0 0 0 0 0 0 0 0 0 0 0 0 0 0 0 0 0 0 0 0 0 0 0 0 0 0 0 0 0 0 0 0 0 0 0 0 0 0 0 0 0 0 0 0 0 0 0 0 0 0 0 0 0 0 0</DataArray>
        <DataArray type="Float64" Name="ShellBottomNodalVonMises" format="ascii">0 0 0 0 0 0 0 0 0 0 0 0 0 0 0 0 0 0 0 0 0 0 0 0 0 0 0 0 0 0 0 0 0 0 0 0 0 0 0 0 0 0 0 0 0 0 0 0 0 0 0 0 0 0 0 0 0 0 0 0 0 0 0 0 0 0 0 0 0 0 0 0 0 0 0 0 0 0 0 0 0 0 0 0 0 0 0 0 0 0 0 0 0 0 0 0 0 0 0 0 0 0 0 0 0 0 0 0 0 0 0 0 0 0 0 0 0 0 0 0 0 0 0 0 0 0 0 0 0 0 0 0 0 0 0 0 0 0 0 0 0 0 0 0 0 0 0 0</DataArray>
      </PointData>
      <CellData Scalars="VonMises">
        <DataArray type="Int32" Name="ElementIndex" format="ascii">0 1 2 3 4 5 6 7 8 9 10 11 12 13 14 15 16 17 18 19 20 21 22 23 24 25 26 27 28 29 30 31 32 33 34 35 36 37 38 39 40 41 42 43 44 45 46 47 48 49 50 51 52 53 54 55 56 57 58 59 60 61 62 63 64 65 66 67 68 69 70 71 72 73 74 75 76 77 78 79 80 81 82 83 84 85 86 87 88 89 90 91 92 93 94 95 96 97 98 99 100 101 102 103 104 105 106 107 108 109 110 111 112 113 114 115 116 117 118 119 120 121 122 123 124 125 126 127 128 129 130 131 132 133 134 135 136 137 138 139 140 141 142 143 144 145 146 147 148 149 150 151 152 153 154 155 156 157 158 159 160 161 162 163 164 165 166 167 168 169 170 171 172 173 174 175 176 177 178 179 180 181 182 183 184 185 186 187 188 189 190 191 192 193 194 195 196 197 198 199 200 201 202 203 204 205 206 207 208 209 210 211 212 213 214 215 216 217 218 219 220 221 222 223 224 225 226 227 228 229 230 231 232 233 234 235 236 237 238 239 240 241 242 243 244 245 246 247 248 249 250 251 252 253 254 255 256 257 258 259 260 261 262 263 264 265 266 267 268 269 270 271 272 273 274 275 276 277 278 279 280 281 282 283 284 285 286 287 288 289 290 291 292 293 294 295 296 297 298 299 300 301 302 303 304 305 306 307 308 309 310 311 312 313 314 315 316 317 318 319 320 321 322 323 324 325 326 327 328</DataArray>
        <DataArray type="Float64" Name="VonMises" format="ascii">7867.34350377 2106.30449393 2003.47442032 8204.84197987 18054.0448314 1921.38262851 3194.53540376 5031.86691512 268.342553173 5592.22563638 9088.37841021 2643.91520687 2608.65684492 3992.43408734 6749.02474468 6735.9787343 3591.45517699 9411.57506491 9404.58056034 4696.83891119 1347.9147724 1357.10522755 3926.10255223 11144.0449108 10635.7006229 18781.1560206 3205.98534972 11714.389168 21034.4126731 932.448542331 838.441736373 720.787028166 5053.98637671 15790.1222249 14619.0911071 5918.78047966 6625.54807508 4450.76652975 20922.6032848 20615.2784991 1663.51439769 4155.86996528 3101.4419074 6774.63174707 13626.2874695 6597.9163286 3493.67971047 3526.85488363 3499.67686289 3577.87580875 19379.7807723 14302.2637667 2026.80880439 20731.9416131 1756.33989959 2004.41210084 12653.7675398 5324.5019845 4936.4632935 1605.69461691 1109.69529999 7603.3249668 8371.12536644 6487.03514086 8080.07331713 7068.14320498 4115.68968204 697.152114511 2178.05514583 1866.16013368 1864.44887513 1816.19997408 2234.59194035 11263.9186692 7427.20283413 23344.2752802 1582.04681865 1717.41380411 2915.59914782 2891.56641872 1346.11214579 15492.6865568 21754.5628245 1647.26966426 8425.72680804 5228.43428967 14513.6249045 9519.4297995 15204.5483165 3649.39427241 28459.1079006 1814.81267331 7458.08761398 2073.89243149 16584.1186949 1616.91677021 2123.29230739 12923.8530547 23935.0754483 24259.4728195 25065.157341 1716.32543362 20419.6033579 19305.5631758 3817.50066658 6822.91918772 5187.90134185 1652.54849492 6885.2412282 17585.9640667 17695.99185 19098.3449822 18615.2682479 1578.45976725 5982.71362059 6306.68170993 3026.93481236 7203.91990471 18252.4180059 19615.5947711 2519.13159575 7020.45345954 1335.4049145 3440.0849761 14922.5229152 6100.89592266 6354.85133346 2224.22988077 2316.89720317 4491.11354532 18276.6228679 9611.72473196 3979.02805714 8788.57198525 13036.3521656 2046.22147947 5408.52486411 12416.4581416 3219.67736016 4265.73233859 12101.2823379 14050.3144215 2563.78332301 5270.44917064 8428.47691638 5957.29604075 8443.97634295 4723.49186388 18323.6516779 5100.91872734 2489.43781015 3928.98037049 13428.1086737 1766.12562681 19255.7633318 3047.66051799 7851.54316194 4443.25674878 18850.5262923 6799.92560853 7681.51579704 4621.44781463 6910.80615307 5780.89810274 3141.17327532 18663.1721054 17724.520552 1658.8246295 3542.08586873 13199.3981605 7338.31594196 2032.06813658 27448.245596 15193.67342 1783.74550771 14195.0463236 23078.5563977 25095.3657908 2162.4559374 1938.45183196 6423.49610677 6620.22964447 2448.12598686 23226.9737669 5773.68226683 22497.6740967 14514.9943187 11266.6881772 8744.66291978 13032.6311692 6019.98756718 2411.74805023 22811.2133845 8575.61838777 19198.1135886 20138.1029868 8506.33484965 24906.8176276 17070.1723865 1713.47833894 18901.4712888 2740.61368703 21079.4825479 8429.55340483 8756.1456342 6277.16781742 12015.8916606 13707.606639 11424.9447957 14194.665906 13341.6329535 16649.8660006 20577.4395662 15587.2586291 5528.51059492 22025.5811202 15837.5832204 8350.49066443 22087.8783478 14031.0947019 6250.36352808 5268.5394821 6213.48179867 22049.8616483 1912.82630718 18456.8208825 23022.8204672 3878.93936583 11962.3558684 18211.2090496 3495.70132994 13735.2420325 16069.3527411 5459.23680661 21239.2543228 2775.40729335 3027.23266674 1752.37348502 15601.998022 3113.86070436 23176.0287359 24259.4728195 1938.32339714 7458.08761398 24037.7047763 8167.33397833 1726.81575732 23649.8799957 1971.19414844 1906.6979314 1760.36003304 1669.15015896 1382.02244655 5056.38936913 1877.20957544 1809.4471598 1990.31254939 8167.33397833 24259.4728195 1905.42991154 23649.8799957 1461.55862363 1885.05207235 27194.0172309 25535.3967249 25046.5709561 7458.08761398 4576.84407717 24592.4496113 1838.73113873 17583.1508647 1825.74828343 17183.4555991 2146.90727909 8772.88747139 1522.23645431 9229.82348399 22890.1900429 1662.32013707 1550.68128235 1457.77665462 22195.5525909 2344.12334223 28242.7186524 29845.3553237 3038.66577159 5995.2021222 11288.8250512 4305.22252322 2436.15077915 10515.8984855 10947.8734062 2210.79328232 3992.89111196 15360.23824 5140.26048915 14518.0135963 1770.70519232 6926.73801703 3728.73349139 13859.6599768 5572.20689789 20885.9373339 3015.78642023 14240.0154138 3928.04545284 9956.37905145 11928.0236542 3362.77039527 8820.83363338 3503.59517733 6919.76272554 18062.0580155 6986.8076456 18410.3728504 3322.52844877 2963.80366693 6582.62502383 18346.1879913 2893.58856014 1072.66159562 2478.05560614 1531.83923112 1208.3323514 4521.5642775 8064.0833754 11092.1283899 9399.57623645 8790.93444486</DataArray>
        <DataArray type="Int32" Name="HasVonMises" format="ascii">1 1 1 1 1 1 1 1 1 1 1 1 1 1 1 1 1 1 1 1 1 1 1 1 1 1 1 1 1 1 1 1 1 1 1 1 1 1 1 1 1 1 1 1 1 1 1 1 1 1 1 1 1 1 1 1 1 1 1 1 1 1 1 1 1 1 1 1 1 1 1 1 1 1 1 1 1 1 1 1 1 1 1 1 1 1 1 1 1 1 1 1 1 1 1 1 1 1 1 1 1 1 1 1 1 1 1 1 1 1 1 1 1 1 1 1 1 1 1 1 1 1 1 1 1 1 1 1 1 1 1 1 1 1 1 1 1 1 1 1 1 1 1 1 1 1 1 1 1 1 1 1 1 1 1 1 1 1 1 1 1 1 1 1 1 1 1 1 1 1 1 1 1 1 1 1 1 1 1 1 1 1 1 1 1 1 1 1 1 1 1 1 1 1 1 1 1 1 1 1 1 1 1 1 1 1 1 1 1 1 1 1 1 1 1 1 1 1 1 1 1 1 1 1 1 1 1 1 1 1 1 1 1 1 1 1 1 1 1 1 1 1 1 1 1 1 1 1 1 1 1 1 1 1 1 1 1 1 1 1 1 1 1 1 1 1 1 1 1 1 1 1 1 1 1 1 1 1 1 1 1 1 1 1 1 1 1 1 1 1 1 1 1 1 1 1 1 1 1 1 1 1 1 1 1 1 1 1 1 1 1 1 1 1 1 1 1 1 1 1 1 1 1 1 1 1 1 1 1</DataArray>
        <DataArray type="Float64" Name="StressTrace" format="ascii">-11188.1760632 -280.813359075 -784.382810695 4580.01371646 35834.0326108 62.8933883643 -85.3273739223 6059.69534853 143.830407706 -6659.26547479 -10819.2588605 8102.43335786 -7694.36437322 1819.72637791 -12705.9735685 12844.6505594 2059.68489702 -13742.174013 13944.3691471 1089.40511126 215.988982555 -564.4892192 3.43329673533 -14096.5364227 15761.2248218 -30331.1054863 -5829.3207713 -22042.7057507 19817.7873089 2483.09338277 -2307.9037364 115.672548915 -395.057845813 -22834.2926878 28122.8520122 504.64792222 2050.79232198 609.947913763 17847.756982 -17912.2404209 301.547740497 10629.4901838 -2972.2206193 -3865.69869087 12352.4817965 -1447.3512341 2813.7463664 2397.84263188 -2422.90669274 -381.620755998 42668.7574879 15971.7229963 -273.05139779 -33117.358968 -347.50005514 200.024502646 29376.8424602 -8062.56302054 9747.45054119 3012.75200872 -1196.82781016 -17295.8185902 -23295.0262327 1050.63982172 6569.10613378 6480.42802079 1061.66352215 872.680000612 459.205119998 -428.292400684 -174.098880243 -493.529935542 2331.06511246 21176.5889903 864.973472093 59052.1790293 1482.78719617 -211.133646493 -4247.18697858 1553.04317917 6.38753138977 12895.5344635 -51311.2353084 890.369592057 -17405.7165803 5784.20019164 -2813.27026887 -16726.5698494 2009.65124995 -648.668269431 33961.3622038 182.447187289 -10898.1669057 -181.171427195 5934.12395838 -962.172176707 -238.939162324 -25501.9117482 37920.1273091 72144.3615889 -40820.881437 189.823940837 41722.4257247 38937.1176694 -6827.55400824 -12133.9588646 -9098.53426303 1989.04709901 -11873.6052707 35368.5450635 35163.0870904 -38686.9773638 26008.7784999 3221.71511812 12179.4915539 -9818.52910797 -2615.89177537 -7651.83036789 24882.9122238 -32889.0632419 -2597.49499524 -8952.45249642 2034.19948686 -6316.09593067 25974.1194021 -13641.8634503 -13063.7861285 6471.33653263 -6370.34858641 -5100.09260487 25453.4586667 15825.0505642 -2801.65601958 12732.9978761 20800.4901913 102.568210582 -3801.75162328 16132.4699607 -2738.58829387 -4434.50009159 17984.9986026 28186.3064025 -3257.39400772 -5854.86435281 -15828.6231918 7587.06704094 16072.0914438 -6425.94735289 -38011.1919066 9309.07112025 3037.51398674 -4152.28592081 18913.2592488 -1753.03329496 -29599.3534437 5333.89944364 11032.0493774 9007.83741299 40355.51744 9254.53736701 11361.6867026 -7590.31934683 6732.53224055 12669.6955604 5065.08180918 -26582.6509696 -26291.7597435 1441.14314583 6056.24444707 -24918.9216329 -12894.6840295 3782.53424164 43969.4378339 -8802.48871149 1245.70586574 14419.8144514 45092.4300323 -43375.6350294 -735.319935441 -225.358608057 15145.9397235 -8938.78068076 -3013.74349619 -42799.804695 -6977.13786146 27952.4094837 20020.2741257 16583.4348055 13748.2994296 20031.4742657 8596.64569421 2108.95376516 -24762.2874753 -12195.1593167 27473.3711006 25110.682581 12433.3513666 -28360.200184 22232.5118875 249.314123909 -19643.9094198 -2630.02378575 -23128.5685054 -8088.45134801 -12481.1524582 -9055.74685546 -11582.8298897 -20469.0633937 -13925.2412643 13364.3972148 -20303.6953087 -17500.8802257 25101.1014542 -14180.6606047 6815.34730912 -27753.542445 -23911.9724897 7762.43174551 26540.8160211 -13053.7449062 -6851.890914 5119.0629971 6748.33055245 -28091.2999327 -563.88739192 20425.8749269 24274.0577892 -5230.24229174 12375.7533299 18455.9811243 4166.9905162 17309.8342304 34707.6500678 -5852.48636961 -24132.1686679 -2994.61672161 3144.56709993 -920.537800751 -37047.1137504 3474.80850891 19449.1109488 72144.3615889 -290.507537209 -10898.1669057 -25718.0519572 11361.8385861 -856.173870877 -70483.5080578 -1062.89324415 404.195978942 636.812312497 623.759497911 -86.9591824711 -2440.46715076 -138.385571029 1020.23680234 -1159.37403709 11361.8385861 72144.3615889 -775.730437636 -70483.5080578 -162.879493635 -1037.32382167 40983.0438035 -34253.3654933 64168.3114592 -10898.1669057 -1679.06355428 -62872.8039006 -577.279219204 29959.5455885 -409.950378631 -39655.9049526 713.174576393 18932.5011749 401.613524804 -22658.2641291 -68708.4914064 184.826227195 958.007558798 456.898901831 63503.5214749 657.782840809 36920.7637338 -25076.989748 2343.35884982 -11952.4688698 -19141.1143507 3937.01734264 -5044.43460855 17959.9765415 -16580.2516096 5285.5378779 6777.68308557 -25623.5210837 4817.84785435 -23122.8677595 -3048.58032908 11776.2348606 5448.66235676 -21764.673671 221.000575992 -21143.5759259 2688.51190507 -22385.5474152 2144.87967932 -16452.3491464 -23824.6450061 2779.52925824 -12689.8016228 2603.54140777 6492.66314252 -24143.6312891 13406.8342348 -29324.0681195 4660.18280185 303.509420107 -11738.7633386 28320.5181355 -3292.48468832 2036.02710526 -2884.88107709 1256.55285484 125.880047956 -4893.35402854 -12661.2879054 16193.9551264 7751.37131306 -4397.46213913</DataArray>
        <DataArray type="Float64" Name="HydrostaticPressure" format="ascii">3729.39202108 93.6044530251 261.460936898 -1526.67123882 -11944.6775369 -20.9644627881 28.4424579741 -2019.89844951 -47.9434692355 2219.75515826 3606.41962017 -2700.81111929 2564.78812441 -606.575459304 4235.32452282 -4281.55018648 -686.561632342 4580.72467101 -4648.12304904 -363.135037088 -71.9963275184 188.163073067 -1.14443224511 4698.84547424 -5253.74160726 10110.3684954 1943.10692377 7347.56858357 -6605.92910295 -827.697794255 769.301245466 -38.5575163051 131.685948604 7611.43089592 -9374.28400408 -168.215974073 -683.597440661 -203.315971254 -5949.25232733 5970.74680696 -100.515913499 -3543.16339461 990.740206434 1288.56623029 -4117.49393218 482.450411368 -937.915455466 -799.280877293 807.635564247 127.206918666 -14222.9191626 -5323.90766543 91.0171325965 11039.119656 115.833351713 -66.6748342152 -9792.28082008 2687.52100685 -3249.1501804 -1004.25066957 398.942603388 5765.2728634 7765.00874422 -350.213273907 -2189.70204459 -2160.1426736 -353.887840716 -290.893333537 -153.068373333 142.764133561 58.032960081 164.509978514 -777.021704152 -7058.86299677 -288.324490698 -19684.0596764 -494.262398723 70.3778821644 1415.72899286 -517.681059723 -2.12917712992 -4298.51148782 17103.7451028 -296.789864019 5801.90552677 -1928.06673055 937.75675629 5575.52328313 -669.883749984 216.222756477 -11320.4540679 -60.8157290964 3632.7223019 60.3904757318 -1978.04131946 320.724058902 79.6463874414 8500.63724941 -12640.0424364 -24048.1205296 13606.960479 -63.2746469456 -13907.4752416 -12979.0392231 2275.85133608 4044.65295486 3032.84475434 -663.015699671 3957.86842358 -11789.5150212 -11721.0290301 12895.6591213 -8669.59283331 -1073.90503937 -4059.83051795 3272.84303599 871.963925123 2550.61012263 -8294.30407461 10963.0210806 865.831665081 2984.15083214 -678.06649562 2105.36531022 -8658.03980072 4547.28781675 4354.59537616 -2157.11217754 2123.4495288 1700.03086829 -8484.48622224 -5275.01685475 933.885339859 -4244.33262537 -6933.49673044 -34.1894035275 1267.25054109 -5377.4899869 912.862764624 1478.1666972 -5994.9995342 -9395.43546749 1085.79800257 1951.62145094 5276.20773059 -2529.02234698 -5357.36381461 2141.98245096 12670.3973022 -3103.02370675 -1012.50466225 1384.09530694 -6304.41974959 584.344431652 9866.45114791 -1777.96648121 -3677.34979247 -3002.612471 -13451.8391467 -3084.845789 -3787.22890086 2530.10644894 -2244.17741352 -4223.23185348 -1688.36060306 8860.88365653 8763.9199145 -480.381048609 -2018.74814902 8306.30721096 4298.22800984 -1260.84474721 -14656.479278 2934.16290383 -415.23528858 -4806.60481712 -15030.8100108 14458.5450098 245.106645147 75.1195360191 -5048.64657449 2979.59356025 1004.5811654 14266.601565 2325.71262049 -9317.46982789 -6673.42470856 -5527.81160184 -4582.76647653 -6677.15808857 -2865.54856474 -702.984588388 8254.09582509 4065.05310555 -9157.79036686 -8370.22752701 -4144.45045554 9453.40006133 -7410.83729585 -83.1047079695 6547.9698066 876.674595251 7709.52283514 2696.15044934 4160.38415273 3018.58228515 3860.94329657 6823.02113124 4641.74708809 -4454.79907161 6767.89843624 5833.62674191 -8367.03381806 4726.88686823 -2271.78243637 9251.18081499 7970.65749656 -2587.4772485 -8846.9386737 4351.24830207 2283.963638 -1706.35433237 -2249.44351748 9363.76664423 187.962463973 -6808.62497564 -8091.35259641 1743.41409725 -4125.25110998 -6151.99370809 -1388.99683873 -5769.94474347 -11569.2166893 1950.82878987 8044.05622265 998.20557387 -1048.18903331 306.845933584 12349.0379168 -1158.26950297 -6483.03698292 -24048.1205296 96.8358457364 3632.7223019 8572.68398572 -3787.27952872 285.391290292 23494.5026859 354.297748049 -134.731992981 -212.270770832 -207.919832637 28.986394157 813.489050253 46.1285236765 -340.078934114 386.458012362 -3787.27952872 -24048.1205296 258.576812545 23494.5026859 54.293164545 345.774607223 -13661.0146012 11417.7884978 -21389.4371531 3632.7223019 559.687851428 20957.6013002 192.426406401 -9986.51519616 136.65012621 13218.6349842 -237.724858798 -6310.83372498 -133.871174935 7552.75470971 22902.8304688 -61.6087423984 -319.335852933 -152.299633944 -21167.8404916 -219.260946936 -12306.9212446 8358.99658267 -781.119616606 3984.15628992 6380.37145022 -1312.33911421 1681.47820285 -5986.65884716 5526.75053652 -1761.8459593 -2259.22769519 8541.17369457 -1605.94928478 7707.62258649 1016.19344303 -3925.4116202 -1816.22078559 7254.89122365 -73.666858664 7047.85864196 -896.170635024 7461.84913839 -714.959893105 5484.11638213 7941.54833537 -926.509752748 4229.93387426 -867.847135923 -2164.22104751 8047.87709637 -4468.94474493 9774.68937318 -1553.39426728 -101.169806702 3912.92111287 -9440.17271184 1097.49489611 -678.675701752 961.627025696 -418.850951612 -41.9600159852 1631.11800951 4220.42930181 -5397.98504214 -2583.79043769 1465.82071304</DataArray>
        <DataArray type="Float64" Name="PrincipalStress" NumberOfComponents="3" format="ascii">-8573.83068052 -3047.93645809 433.591075384 -1336.58380906 -37.8808757361 1093.65132572 -1443.09462344 -209.880860492 868.592673239 -2693.53829243 623.109753438 6650.44225546 4207.61389872 7828.66827439 23797.7504377 -1094.24325646 32.853920075 1124.28272474 -1877.83959908 -18.3384111384 1810.85063629 -382.081395386 1192.89317908 5248.88356484 -91.5359936001 20.6693621227 214.697039184 -5779.33717468 -1399.83971007 519.911409952 -9166.95414273 -2910.19072465 1257.88600687 1740.03065899 1901.44685969 4460.95583919 -4297.56461274 -1826.76554006 -1570.03422042 -1646.93074555 506.764667853 2959.89245561 -8681.75130406 -2607.99562387 -1416.22664053 1478.44758172 2644.77437074 8721.42860698 -1074.92042289 162.880184496 2971.72513542 -10576.7756186 -3183.15064704 17.752252579 86.7631326598 3203.54570646 10654.060308 -2351.65145012 369.276022278 3071.78053911 -697.377341482 54.5975210885 858.768802949 -771.645323067 -495.231501123 702.387604991 -2260.97542164 -8.06055530252 2272.46927368 -12022.0551858 -2120.99734016 46.5161032388 818.326475952 2680.69119114 12262.2071547 -22520.0564442 -5346.70722392 -2464.34181814 -3612.682012 -2263.95915459 47.320395295 -15106.1104241 -4240.35718709 -2696.23813956 -4385.21170567 4559.72982363 19643.2691909 469.448032995 566.864806316 1446.78054345 -1324.61556681 -546.849928208 -436.438241381 -379.420762709 42.2454169093 452.847894715 -2886.73796675 -433.8997155 2925.57983644 -18025.5738618 -3734.22394504 -1074.49488093 3765.4190359 5276.19881279 19081.2341636 -3237.94748508 146.229978607 3596.36542869 -2474.65666058 -411.542206786 4936.99118935 -2291.26345476 59.2348915061 2841.97647702 -5101.25846283 4103.40867304 18845.6067718 -18678.1891753 -4150.66844148 4916.61719587 -799.114932717 -11.2957394043 1111.95841262 1503.00811815 2939.84647451 6186.63559118 -2843.06509941 -860.180258995 731.024739099 -4912.22779099 -1811.33451037 2857.86361049 -2573.88307006 2142.37340071 12783.9914659 -4617.28943272 285.675832296 2884.26236632 -356.129871449 -92.16781851 3262.04405636 -1092.39082751 535.811663 2954.42179639 -2932.96722143 -578.518409563 1088.57893826 -2251.71519891 -4.0552896203 1874.14973254 5808.62300776 9939.38512625 26920.7493539 -1491.97933647 2957.53912362 14506.1632091 -1295.52577235 -19.033667173 1041.50804174 -24323.2351449 -7701.65585172 -1092.46797146 -1167.14571707 -36.6074701859 856.253132121 -1065.36254805 17.8023583955 1247.5846923 5510.63535139 5638.40379634 18227.8033125 -6173.60809782 -1523.70515688 -365.249765845 1263.18292397 1969.50526623 6514.76235099 284.875320643 677.430710112 2050.44597797 -1038.1330054 -401.917201678 243.222396916 -10615.9079514 -4614.19546515 -2065.71517364 -13168.0878891 -6273.27567808 -3853.6626655 -3397.39760771 354.856384616 4093.18104481 -2130.34162847 1563.06902858 7136.37873367 -1666.45933241 1692.11618875 6454.77116446 -1934.71905334 187.462718201 2808.91985728 -68.7826625376 215.815841707 725.646821443 -939.319437008 -129.184899426 1527.70945643 -1177.57423044 -223.462138455 972.743968206 -1079.70398199 -160.275294832 1065.88039658 -1162.34118312 -259.544806759 928.35605434 -225.057564308 323.417477343 2232.70519942 1394.77927275 5621.17755238 14160.6321652 -4187.50400167 692.390289878 4360.08718389 11032.2599564 12806.7679976 35213.1510753 -221.234396604 180.937801817 1523.08379096 -993.97892151 -194.573009469 977.418284486 -3234.83621034 -1099.22638986 86.875621622 -994.858375978 238.952971036 2308.94858411 -681.479712913 -159.569241567 847.43648587 -2134.4860371 517.140142281 14512.8803583 -31520.6473265 -11262.1756979 -8528.41228402 -447.631434729 -30.1967499524 1368.19777674 -10977.9838311 -5103.43002481 -1324.30272437 -1109.9644483 1967.2343691 4926.93027085 -8641.80335539 -2155.33424198 7983.86732851 -11826.449647 -3399.24620753 -1500.87399488 -8972.63495334 2784.52073631 8197.76546699 -2323.18885579 -216.24808873 1890.76867509 -2631.29742105 7161.47102162 29431.1886032 -944.28246413 -19.8860318811 1146.6156833 -8387.31259222 -2514.96159362 4.10728014037 -1316.81774501 68.1037440773 1067.54257374 -7761.91291569 2317.2753502 11378.7615239 -1377.80491007 25.036892528 390.595840835 -1356.79487795 30.2891587791 1087.56655684 -16950.208608 -5734.92107449 -2816.7820657 1980.22920475 7687.00693233 28252.891172 15293.4977561 16648.6988282 40202.1650046 -30051.7770771 -7952.95819687 -2816.14616306 -861.824942262 -57.3285348627 1108.97741796 5827.24236392 8459.75150223 27435.4318586 6135.61684413 6960.90927069 25840.5915546 -4819.34548952 -1079.92355117 -928.284967549 -8216.84562524 -3527.63755712 -389.475682217 -6489.98002576 -1391.4659785 -1217.08825878 -293.410336695 667.686283565 1614.77115214 -8539.15092544 -1914.35109995 -1420.10324534 5219.36759835 6665.45186547 23483.7255997 5242.78313768 6421.59490837 23498.7090443 -25622.2779815 -6859.67161742 -6205.02776492 1131.98816048 3900.37485896 20976.4154805 174.514306124 1050.48944934 1996.71136266 1768.79500792 2377.92518693 8032.77135901 -6241.30088687 -4367.23225872 790.004037625 -2309.65309005 -1379.45488057 1073.21619525 -7228.96243525 -1151.42619703 728.558264386 971.277033611 3539.74900155 20371.8861887 -23965.1272499 -5672.79929992 -3251.13669204 -2300.0721056 -905.386475009 607.963585367 -7301.16457596 -2391.35993413 740.072013673 -100.578120986 693.597619797 1441.17998805 -3900.95951917 -2443.12852069 27.9921091861 3542.55391022 3826.52817399 18605.0373179 -8089.55995603 -4507.10757792 -1045.19591631 -8084.14681358 -4230.28311495 -749.356199951 984.848462558 1956.85067011 3529.63739996 -3539.17160829 -1950.50511366 -880.671864469 -4662.29593624 -595.868106827 158.0714382 798.419835253 4139.82934023 20515.2094912 1846.41185927 2301.18700086 11677.4517041 -3128.15294754 -1127.660909 1454.15783696 831.140608439 1826.74111324 10075.1161544 2304.06709095 2878.35190977 15618.0711906 -801.308252785 -481.941773497 1385.81823686 -4220.42585491 -1582.24888816 2000.92311979 85.7713121747 2510.83966946 13535.8589791 -2922.64008831 -560.689277847 744.741072281 -4321.05130653 -119.939251162 6.49046610253 1434.05688037 2512.4829507 14038.4587715 4131.79408054 5317.23842927 18737.2738927 -2486.83905486 -1233.10290254 462.547949674 -4767.44980934 -2363.74696327 1276.3324198 -10893.7729147 -2576.7965019 -2358.05377518 -348.518324039 1597.22064098 6338.364724 2495.9155042 2589.75528467 10986.420655 -4693.68320696 -2464.17542916 731.911283225 -24789.432506 -7939.59194693 -5282.1674537 1260.71344189 1548.79126946 6499.56640889 -456.150618259 1077.46273306 2416.20187194 -3931.54533658 -638.103820633 417.363236395 892.596629711 2834.66707477 15185.9955443 -1704.16738887 -339.441923682 290.576017601 -22665.6757053 -4321.06086055 -2612.61687788 586.312657647 948.644599161 3798.94218683 -936.981162608 3844.45162942 8124.57891058 1346.8183988 1703.39808437 5957.62092983 6506.25391739 7854.53906428 25994.7244584 -1246.90936713 4093.17464484 6408.2720893 -488.281553288 3483.96601779 8366.00223808 -5583.73626296 -1357.93035398 -648.652729899 -961.469202265 981.233885203 6712.76755761 1049.6077752 3916.45551371 7703.63227153 616.008380901 666.802660381 3782.2707679 -21243.2850121 -3724.08652954 -1615.27942798 -20450.5174502 -4432.94434699 -1408.29794635 -536.488240431 612.364252385 1365.26713387 185.845343841 1645.82971307 4224.56939017 -17102.9699426 -4104.81974938 -3711.1319409 -8635.41207466 -4089.71745845 -169.554496403 470.759517221 702.861846156 2608.91287826 4883.04737931 6145.60525284 32940.7852018 -12873.8753655 347.254857703 3724.13179636 -656.78049101 505.519828081 1396.96652867 -1840.12748424 2296.26211361 13963.679822 6540.12796782 8164.39326695 30387.9087975 -31014.229795 -8268.23002893 -4093.17520546 -1396.59586756 -420.556408523 1081.83234064 -1029.28596099 -352.825472927 1156.75282586 1092.98669139 5605.79584179 8447.15719028 -6951.18860197 -2660.82077436 673.228695567 -2605.00244943 -481.430807554 72.6897607866 -29684.9994323 -7796.56586837 -5318.23939435 -6058.78809696 -1271.52512773 353.175363225 75.2689988667 3708.64325678 24168.497228 791.149635054 2960.42944481 16268.6950458 -712.100891998 5026.9429134 12268.5927841 -41.8689166434 3821.11760363 9969.05074261 251.985148721 4824.73160188 14954.7575151 -111.267421648 2022.86059814 6685.05251772 -386.534767902 223.755221116 2271.73331195 -23021.9262658 -4014.04342169 2273.68221227 -9680.2512005 -2187.99494565 -326.913170511 1035.68721796 4652.6621948 21785.0216878 -305.955986908 3835.66783736 21580.9707306 343.321175569 2400.45663953 9689.57355152 -25964.5893518 -2720.51985772 324.909025567 -1498.8123202 5734.27811999 17997.0460877 -809.432274129 -88.0429013819 1146.78929942 -18945.7585996 -2300.91140303 1602.76058284 -2646.53739271 -384.609228576 401.122835532 -21327.6452541 -3904.61172718 2103.68847588 -8186.5069284 -989.133806692 1087.18938708 -9572.62716023 -3348.30981751 439.78451955 -7004.38271869 -2129.9124704 78.5483336227 -11781.1617028 -939.979302176 1138.31111522 -15564.7696493 -4758.4862284 -145.807516064 -11563.5163273 -3933.42869136 1571.70375437 -1916.80780367 1581.32729698 13699.8777215 -15537.410985 -3669.53007556 -1096.75424815 -16889.9800577 -1156.21511076 545.314942701 -1341.12246267 4827.21838901 21615.0055278 -14498.6361383 -2902.42220391 3220.39773751 -268.3828832 1229.11494869 5854.61524364 -23786.3684752 -3787.74357143 -179.430398348 -17782.8127316 -6441.0999793 311.940221211 -1164.93684082 902.349409231 8025.01917711 -80.0792593176 3168.65031 23452.2449704 -13649.4282523 -586.330286538 1182.01363265 -6350.02426921 -1040.0538995 538.187254709 -662.570322449 645.009512448 5136.6238071 -600.920204741 1071.61007405 6277.64068315 -23952.9438966 -3628.79225299 -509.563783119 -1332.85735958 -101.875567273 870.84553493 -1091.64553446 2589.26166816 18928.2587932 -2967.74172913 4403.75566354 22838.0438548 -4266.23953589 -973.838806214 9.83605035946 -777.812272972 1129.82985466 12023.7357483 -2347.59656873 2893.98609246 17909.5916006 -512.572057958 1173.01821727 3506.54435689 624.856831613 1782.63524464 14902.3421542 5224.54872199 7266.01788517 22217.0834607 -5572.81889048 -448.561699962 168.89422083 -21661.5067775 -4595.75081268 2125.08892224 -2825.97446045 -333.46811719 164.825856025 -182.603742313 278.459290713 3048.71155153 -1440.147842 14.1948309109 505.415210337 -22731.7558363 -7696.34138665 -6619.01652747 -201.436639891 479.652025392 3196.5931234 -5257.27605784 3654.54092943 21051.8460772 15293.4977561 16648.6988282 40202.1650046 -1229.09105203 -70.026770758 1008.61028558 -8387.31259222 -2514.96159362 4.10728014037 -24094.055566 -4264.39135175 2640.39496058 -236.214747572 2621.96275065 8976.09058307 -1386.97637392 -24.1621224562 554.964625501 -39243.4664518 -16265.4249364 -14974.6166696 -1608.89817522 -65.6499369513 611.654868029 -796.051640194 -149.585270698 1349.83288983 -660.951763247 -30.1375640447 1327.90163979 -747.145821416 190.907803203 1179.99751612 -866.888546744 58.1484660278 721.780898245 -4037.09176541 -55.2958982049 1651.92051285 -1137.79664705 -30.2323149674 1029.64339099 -421.40377255 -89.4107949947 1531.05136989 -1676.64283267 -9.72238308809 526.991178668 -236.214747572 2621.96275065 8976.09058307 15293.4977561 16648.6988282 40202.1650046 -1485.0955178 68.3960602954 640.969019869 -39243.4664518 -16265.4249364 -14974.6166696 -980.068786337 145.429627772 671.75966493 -1586.41298631 101.091184906 447.997979733 1902.43122397 7590.13284167 31490.4797379 -27826.4548419 -7140.14777268 713.237121229 11931.6212223 14201.0246456 38035.6655913 -8387.31259222 -2514.96159362 4.10728014037 -2709.3187081 -1360.18998392 2390.44513774 -37330.345184 -13510.2394494 -12032.2192673 -1355.21120376 52.9212981581 725.010686401 2798.35076434 5561.65418247 21599.5406417 -1288.04624343 97.2377988095 780.85806599 -24639.1587533 -8284.54516345 -6732.20103591 -730.480943564 -191.045048728 1634.70056869 2504.01290052 4369.03873268 12059.4495417 -661.78791622 -13.8230940674 1077.22453509 -13648.8915014 -5228.83018364 -3780.54244403 -38148.4664444 -15855.8057092 -14704.2192528 -793.626460533 -121.127903099 1099.58059083 -402.712115246 39.6395169539 1321.08015709 -600.433166293 -3.70218766838 1061.03425579 12917.9969128 14654.6588019 35930.8657602 -930.99365185 -121.75794816 1710.53444082 -818.958378107 7179.38706825 30560.3350436 -26915.0872983 -5299.36751413 7137.46506443 -1169.77714845 1283.98864122 2229.14735705 -7966.62916645 -2285.74830442 -1700.09139889 -13856.595691 -3389.75091572 -1894.7677439 -1379.86243662 1796.84151136 3520.0382679 -3076.67909859 -1703.83450251 -263.921007448 2136.18932502 2838.25714147 12985.530075 -12769.461633 -2685.99049965 -1124.7994769 421.653897112 1900.79583375 2963.08814704 -152.455032857 2489.24481356 4440.89330487 -18769.8124401 -3847.39166422 -3006.3169794 -1451.58801817 1794.55929035 4474.87658217 -17368.4045392 -3386.68423213 -2367.77898811 -2045.35652615 -1002.36114405 -0.862658878932 1390.5870386 1850.03593673 8535.61188527 322.949882919 841.783608674 4283.92886517 -16457.4447526 -3371.12030169 -1936.10861667 -3014.36593127 -170.575681894 3405.94218916 -20037.6211692 -4895.44344647 3789.48868982 -929.141171053 1078.87207458 2538.78100155 -16719.4121582 -4654.00828159 -1012.12697534 -1658.33072247 943.065112864 2860.14528893 -12118.1187946 -2355.98090918 -1978.24944258 -15859.1648943 -4622.60497767 -3342.87513417 -655.832326564 342.343233184 3093.01835162 -10084.3041608 -1782.81477531 -822.68268666 -966.849540717 533.339864597 3037.05108389 -1181.37921611 1086.33801272 6587.70434591 -20013.8034149 -3230.43331635 -899.394557876 904.241808819 3654.85696692 8847.73545905 -21964.7476744 -4917.58932254 -2441.73112259 15.7562058396 941.45855573 3702.96804028 -1569.03414004 22.0190027131 1850.52455743 -7750.82780533 -3836.92867229 -151.00686098 2157.97942378 4571.19002073 21591.348691 -2979.75362984 -522.122456185 209.3913977 10.467626361 792.194663891 1233.364815 -2594.03011327 -365.34588143 74.4949176143 -478.395466944 445.113187758 1289.83513402 -688.461001242 112.971821329 701.369227869 -4483.11532271 -1050.35975225 640.121046424 -9409.2586557 -2844.0120307 -408.01721902 -11.1733204043 3735.92648985 12469.201957 -2720.31054308 2346.10696149 8125.57489465 -6948.07035453 -518.819714473 3069.42792987</DataArray>
        <DataArray type="Float64" Name="PrincipalStrain" NumberOfComponents="3" format="ascii">-1.11278958082e-07 -8.65520823645e-09 5.6001731671e-08 -2.36187849151e-08 4.99983846653e-10 2.15141533023e-08 -2.34386881038e-08 -5.36146791869e-10 1.9492647406e-08 -6.96514842157e-08 -8.05659193529e-09 1.03879583102e-07 -7.54330244988e-08 -8.18487180782e-09 2.8838379694e-07 -2.059120357e-08 3.40601136974e-10 2.06099932237e-08 -3.45084752375e-08 2.51182528119e-11 3.39957719908e-08 -3.30659202652e-08 -3.81639245373e-09 7.15091432819e-08 -2.31637019989e-09 -2.32556450749e-10 3.37081469467e-09 -7.8790838352e-08 2.54268599074e-09 3.81952067911e-08 -1.2387518182e-07 -7.67814691268e-09 6.97289923869e-08 -2.40985929536e-09 5.87870146213e-10 4.81216083369e-08 -4.68360669229e-08 -9.49798430226e-10 3.81806893468e-09 -3.83846840369e-08 1.61251649765e-09 4.71706039845e-08 -1.06778351782e-07 6.01996799303e-09 2.81528205406e-08 -2.75916187371e-08 -5.9312640838e-09 1.06920886018e-07 -2.8790028841e-08 -5.80230327519e-09 4.63619600992e-08 -1.37530801432e-07 -2.20623389113e-10 5.92247161751e-08 -5.81502667382e-08 -2.67161796291e-10 1.38099537947e-07 -4.83424059791e-08 2.18910422261e-09 5.23784738208e-08 -1.38769605528e-08 8.82868949782e-11 1.50228964152e-08 -1.1911316489e-08 -6.77791693857e-09 1.54635807464e-08 -4.20042576736e-08 -1.64410155912e-10 4.2188286668e-08 -1.62853011639e-07 2.1023776923e-08 6.12775980146e-08 -5.23506146828e-08 -1.77638414007e-08 1.60178597922e-07 -2.88239167594e-07 3.06944607826e-08 8.42241040329e-08 -4.21098626316e-08 -1.70621524226e-08 2.58616106468e-08 -1.86073311801e-07 1.57192483143e-08 4.43957449112e-08 -1.66373020143e-07 -2.52677456201e-10 2.79870196507e-07 -1.92350817053e-09 -1.1433952312e-10 1.6226952738e-08 -1.47089873705e-08 -2.64768367869e-10 1.78573438749e-09 -7.54212508851e-09 2.8881824725e-10 7.91429283507e-09 -5.19177429005e-08 -6.36503252009e-09 5.60253020159e-08 -2.36899403057e-07 2.85113811112e-08 7.79063494446e-08 -5.05972979573e-08 -2.25399592435e-08 2.33839268699e-07 -6.22960872466e-08 5.52922793188e-10 6.46268668661e-08 -5.47470193622e-08 -1.64320366488e-08 8.28978692794e-08 -4.51660980759e-08 -1.51398593101e-09 5.0165500657e-08 -1.71228044233e-07 -2.84225995038e-10 2.73499452982e-07 -2.70113911451e-07 -3.17097823749e-10 1.68075349727e-07 -1.61330533526e-08 -1.50212547678e-09 1.93583087751e-08 -1.76419500223e-08 9.04219088161e-09 6.93397030483e-08 -4.00616920491e-08 -3.23668787004e-09 2.63142620946e-08 -7.46598074432e-08 -1.70717893746e-08 6.96418900128e-08 -1.00739893286e-07 -1.31522731148e-08 1.84477776667e-07 -7.95467270329e-08 1.15083421745e-08 5.97678063778e-08 -1.86727534686e-08 -1.37706010569e-08 4.85219051906e-08 -3.05637266475e-08 -3.256803952e-10 4.45913649391e-08 -4.40855054292e-08 -3.60027494429e-10 3.06003518222e-08 -4.01820504541e-08 1.56020500419e-09 3.64411554157e-08 -7.49916762325e-08 1.7224773965e-09 3.17090670195e-07 -9.615842909e-08 -1.35245148312e-08 2.00949932471e-07 -2.28895440674e-08 8.16737885886e-10 2.05125124799e-08 -3.09785685684e-07 -1.09921309746e-09 1.21642847536e-07 -2.01862773665e-08 8.09432932861e-10 1.73911298328e-08 -2.06425523323e-08 -5.26632641137e-10 2.23121821314e-08 -2.35603825894e-08 -2.11875400404e-08 2.12615593831e-07 -8.00988803e-08 6.25646003176e-09 2.77706315795e-08 -1.83156765886e-08 -5.19826166081e-09 7.92136556276e-08 -7.62125265401e-09 -3.30938278149e-10 2.51679166963e-08 -1.41503509139e-08 -2.33491455903e-09 9.64624941486e-09 -1.23027639426e-07 -1.15672646804e-08 3.5761655019e-08 -1.44714376943e-07 -1.6667864453e-08 2.82678057808e-08 -6.75972690933e-08 2.08744790692e-09 7.15134773105e-08 -6.77167993877e-08 8.75112814516e-10 1.04379435909e-07 -5.87217934053e-08 3.65175198763e-09 9.21010586794e-08 -4.04804832283e-08 -1.06853604261e-09 4.76156679689e-08 -5.01744944975e-09 2.67951343364e-10 9.73624096703e-09 -1.9412525773e-08 -4.36717007506e-09 2.64037251052e-08 -2.0033696848e-08 -2.31447228265e-09 1.99007839839e-08 -1.93055073217e-08 -2.23040313155e-09 2.0541059709e-08 -1.94712079628e-08 -2.70498954462e-09 1.93560264472e-08 -1.41699195334e-08 -3.98395447415e-09 3.14742460787e-08 -6.48537663217e-08 1.36364874429e-08 1.72226358824e-07 -8.14749606258e-08 9.15164764591e-09 7.72660185347e-08 -4.81959395063e-08 -1.524079017e-08 4.00877752701e-07 -1.04634410634e-08 -2.99452880699e-09 2.19310395628e-08 -1.75547500574e-08 -2.7086402623e-09 1.90569123397e-08 -4.18732997124e-08 -2.21197447493e-09 1.98156343098e-08 -2.51318406075e-08 -2.21820130577e-09 3.62245743656e-08 -1.26834269458e-08 -2.99080390648e-09 1.57107310316e-08 -9.49070312468e-08 -4.56625450582e-08 2.14258344668e-07 -3.6547815617e-07 1.07506026456e-08 6.15204946187e-08 -1.21290248966e-08 -4.37666646507e-09 2.1593517602e-08 -1.29280914377e-07 -2.01820579737e-08 5.00017347488e-08 -4.54030548612e-08 1.17449231762e-08 6.67107042087e-08 -1.48433761162e-07 -2.79707633417e-08 1.60328694396e-07 -1.47948765518e-07 8.55644121473e-09 4.38119251639e-08 -1.75247440205e-07 4.30997368887e-08 1.43631424744e-07 -4.03649290242e-08 -1.23602906457e-09 3.78942822635e-08 -1.94415647264e-07 -1.25499476147e-08 4.01030521758e-07 -1.83185908508e-08 -1.1512285376e-09 2.05123747443e-08 -1.09057947117e-07 0 4.67827076556e-08 -2.36787377193e-08 2.04123279227e-09 2.06022396288e-08 -1.69581771113e-07 1.76031538249e-08 1.8588789705e-07 -2.14642104297e-08 4.58856590426e-09 1.13775178014e-08 -2.41735941805e-08 1.58653793014e-09 2.12216896085e-08 -2.05495680942e-07 2.78823039464e-09 5.69822405578e-08 -1.25739146093e-07 -1.97561311528e-08 3.62181719012e-07 -2.51680199103e-08 0 4.37421514704e-07 -3.83157796701e-07 2.72488396453e-08 1.22646777416e-07 -1.68188515313e-08 -1.87820396532e-09 1.978176373e-08 -7.05901806332e-08 -2.17007252074e-08 3.30704767125e-07 -5.29261914781e-08 -3.75993321276e-08 3.1302333886e-07 -6.02411847701e-08 9.20522265645e-09 1.20213677808e-08 -1.00595880763e-07 -1.35105880698e-08 4.47695610356e-08 -8.15344822082e-08 1.31522072409e-08 1.63906506071e-08 -1.39735366772e-08 3.87540055615e-09 2.1464119544e-08 -1.07697351741e-07 1.53346450183e-08 2.45135337468e-08 -5.4648366303e-08 -2.77925156279e-08 2.84546853723e-07 -5.33329721161e-08 -3.14407535176e-08 2.85705651864e-07 -3.10040973811e-07 3.84074300929e-08 5.05651016392e-08 -9.04435563051e-08 -3.90306604761e-08 2.78095808209e-07 -1.05663705354e-08 5.70173926718e-09 2.32744319432e-08 -1.9348770798e-08 -8.03635318789e-09 9.69822185794e-08 -7.38304631507e-08 -3.90263314849e-08 5.67509140186e-08 -3.16825926351e-08 -1.44074830303e-08 3.11421226634e-08 -1.01458600792e-07 1.14099293461e-08 4.63239264867e-08 -8.86030503351e-08 -4.09028566447e-08 2.7169397683e-07 -3.04113520748e-07 3.56011411809e-08 8.05748753274e-08 -3.15835034101e-08 -5.68219884199e-09 2.24228737079e-08 -9.72254028546e-08 -6.04331664921e-09 5.21118480957e-08 -1.05858771906e-08 4.16310085254e-09 1.80467734058e-08 -4.53774085103e-08 -1.83034042527e-08 2.75888360163e-08 -4.55273676765e-08 -4.02535599208e-08 2.34204467038e-07 -9.17695558251e-08 -2.52382973746e-08 3.90543477696e-08 -9.4146500273e-08 -2.25747458698e-08 4.20710396944e-08 -9.44425654948e-09 8.60721301928e-09 3.78161094309e-08 -3.84259787836e-08 -8.92217245471e-09 1.09461593159e-08 -6.47279562236e-08 1.07914177512e-08 2.47931521589e-08 -9.42584544884e-08 -3.22037065389e-08 2.71910496266e-07 -3.35311393175e-08 -2.50853152594e-08 1.49045314944e-07 -4.6087171799e-08 -8.9351767975e-09 3.90128856275e-08 -3.91345224551e-08 -2.06447987946e-08 1.32539309113e-07 -4.63551405594e-08 -3.5689851067e-08 2.00904935577e-07 -1.53210170256e-08 -9.38992526744e-09 2.52970463536e-08 -6.20861160628e-08 -1.3091400966e-08 5.34532220387e-08 -6.75462611769e-08 -2.25092773988e-08 1.82241081208e-07 -4.25407946662e-08 1.32400609944e-09 2.55677126018e-08 -6.12430953001e-08 1.67775571566e-08 1.91255376201e-08 -5.04460805186e-08 -3.04181677838e-08 1.83635668889e-07 -4.40651373719e-08 -2.20497423241e-08 2.2717948771e-07 -3.22238938428e-08 -8.94022244265e-09 2.25504362413e-08 -6.34460778043e-08 -1.88058820915e-08 4.87955921655e-08 -1.34475969022e-07 1.99821643581e-08 2.40445292827e-08 -3.89884847648e-08 -2.85333255731e-09 8.51964861274e-08 -2.25276753956e-08 -2.07849366155e-08 1.35153134547e-07 -5.96286280454e-08 -1.82234836006e-08 4.11324124866e-08 -2.9747006694e-07 1.54555434425e-08 6.48077126025e-08 -1.64827694517e-08 -1.11327526539e-08 8.08102142212e-08 -2.14892857108e-08 6.99210509937e-09 3.18544033928e-08 -5.52189023043e-08 5.94501156316e-09 2.55465426223e-08 -6.44800308001e-08 -2.84130082489e-08 2.00968806185e-07 -2.41358231007e-08 1.20907839571e-09 1.2909411591e-08 -2.94079605483e-07 4.66060987772e-08 7.83343441696e-08 -1.19709054021e-08 -5.24188363117e-09 4.76922144255e-08 -6.46812903516e-08 2.41167472147e-08 1.03604825293e-07 -1.35926757923e-08 -6.97048163163e-09 7.20365140697e-08 -5.21217877057e-08 -2.70822064063e-08 3.09806950912e-07 -6.28191912481e-08 3.63537975455e-08 7.93484643712e-08 -5.77610290007e-08 1.60092830335e-08 1.06675669982e-07 -7.11680191113e-08 7.31123348397e-09 2.04835322169e-08 -4.67095662158e-08 -1.06307945914e-08 9.58119736104e-08 -3.48059794339e-08 1.8435478567e-08 8.87687612122e-08 -1.02673378226e-08 -9.32401548942e-09 4.85346779359e-08 -2.80592503211e-07 4.47640400352e-08 8.39276004928e-08 -2.67116353745e-07 3.03528610281e-08 8.65248656113e-08 -1.61396808044e-08 5.19615120504e-09 1.91786332898e-08 -2.25039198161e-08 4.61007561236e-09 5.25009553299e-08 -2.10831206222e-07 3.05630116524e-08 3.7874356667e-08 -1.05109006974e-07 -2.06889641019e-08 5.21140623361e-08 -7.46818428721e-09 -3.15771246414e-09 3.22403781322e-08 -9.77552822438e-08 -7.43077788783e-08 4.23316991602e-07 -2.01361305168e-07 4.41739704066e-08 1.06887399267e-07 -1.75360914005e-08 4.04948595406e-09 2.06049246792e-08 -9.59730009273e-08 -1.91543369673e-08 1.97526277617e-07 -7.17937521647e-08 -4.16288251809e-08 3.71093606102e-07 -3.90082974638e-07 3.23427353028e-08 1.09879467739e-07 -2.27854092456e-08 -4.65896214926e-09 2.32425431923e-08 -1.81494880981e-08 -5.58665046268e-09 2.24483750861e-08 -4.46128459747e-08 3.91964668184e-08 9.19646061475e-08 -9.07844425476e-08 -1.1106182892e-08 5.08118786924e-08 -3.54625733628e-08 3.97518570054e-09 1.42659962554e-08 -3.67865112192e-07 3.86343682802e-08 8.46604313692e-08 -8.26183309658e-08 6.28798131992e-09 3.64609904376e-08 -1.18398187808e-07 -5.09212373042e-08 3.29047479305e-07 -7.11083958876e-08 -3.08217708493e-08 2.16331733169e-07 -8.42965943037e-08 2.22856477965e-08 1.5677343111e-07 -5.96988488645e-08 1.20423293691e-08 1.26218230522e-07 -8.1169451234e-08 3.75298289606e-09 1.91882035571e-07 -3.89091622344e-08 7.24643847461e-10 8.73082080681e-08 -1.62168761117e-08 -4.88291917283e-09 3.31509596569e-08 -3.21425970043e-07 3.15775684911e-08 1.48349615979e-07 -1.27511125224e-07 1.16307766522e-08 4.61937239048e-08 -9.85088278118e-08 -3.13364353848e-08 2.868359552e-07 -1.13299250818e-07 -3.63833797964e-08 2.93172245363e-07 -4.69098268821e-08 -8.70588255135e-09 1.26663431528e-07 -3.6065580146e-07 7.10197748595e-08 1.27577739835e-07 -1.2311727975e-07 1.12115427104e-08 2.38948662112e-07 -1.61008027649e-08 -2.7035715567e-09 2.02290264582e-08 -2.67661619337e-07 4.14569714571e-08 1.13953736909e-07 -3.78784496399e-08 4.12878769396e-09 1.87209545988e-08 -2.96962403982e-07 2.66082186613e-08 1.38190936718e-07 -1.17370337179e-07 1.62951636529e-08 5.48554515372e-08 -1.24286708155e-07 -8.69224321871e-09 6.16580801839e-08 -9.12710496807e-08 -7.45173641184e-10 4.02690984336e-08 -1.69152303524e-07 3.21839410584e-08 7.07807630957e-08 -2.0133545037e-07 -6.4732969716e-10 8.50167035319e-08 -1.55071412088e-07 -1.33697845641e-08 8.88683894279e-08 -9.28738472746e-08 -2.79084811197e-08 1.97150312479e-07 -2.01536081256e-07 1.88674213484e-08 6.66475438574e-08 -2.38667285818e-07 5.35312060533e-08 8.51310499033e-08 -1.3248270911e-07 -1.79278075791e-08 2.93845382142e-07 -2.08486125691e-07 6.87213309038e-09 1.20581646288e-07 -3.419288487e-08 -6.3822108492e-09 7.95199374856e-08 -3.22803089775e-07 4.85999441519e-08 1.15611474509e-07 -2.27772354345e-07 -1.71405460883e-08 1.08273057635e-07 -5.49021059532e-08 -1.65096470236e-08 1.15768505808e-07 -1.15233540621e-07 -5.48999914762e-08 3.21795337932e-07 -1.97544760802e-07 4.50556299908e-08 7.78963027759e-08 -8.85637753682e-08 1.00499600693e-08 3.93601529332e-08 -3.42437188331e-08 -9.96009332783e-09 7.34556007158e-08 -4.00813633128e-08 -9.02008670679e-09 8.76633388908e-08 -3.24449101225e-07 5.29994292988e-08 1.10927958025e-07 -2.23364049982e-08 5.24685430297e-10 1.85895058998e-08 -1.07812881041e-07 -3.94531758495e-08 2.63985342187e-07 -1.5914687978e-07 -2.2247642488e-08 3.20103423921e-07 -5.68148387019e-08 4.32974627778e-09 2.25979936141e-08 -6.74840279121e-08 -3.2056388399e-08 1.70259006768e-07 -1.22695283952e-07 -2.53516059584e-08 2.53509639192e-07 -2.73777261458e-08 3.92609325134e-09 4.72630072728e-08 -6.25805198289e-08 -4.10789207299e-08 2.02572779018e-07 -5.1719738311e-08 -1.38067395662e-08 2.63855906836e-07 -7.84131235249e-08 1.67516528705e-08 2.82186913995e-08 -2.98861545862e-07 1.80739220557e-08 1.42889517133e-07 -3.96483111728e-08 6.6410923448e-09 1.58951232759e-08 -1.68679284998e-08 -8.30532931501e-09 4.31422126715e-08 -2.28004407768e-08 4.20878029156e-09 1.33314444809e-08 -2.63387835172e-07 1.58412903211e-08 3.58487519917e-08 -1.86330026361e-08 -5.98421313802e-09 4.44732643965e-08 -1.80988459426e-07 -1.54832868053e-08 3.07609523081e-07 -2.51680199103e-08 0 4.37421514704e-07 -2.15809443783e-08 -5.5464868895e-11 1.99763661774e-08 -1.09057947117e-07 0 4.67827076556e-08 -3.37240809266e-07 3.10243832839e-08 1.59256129084e-07 -5.30804392527e-08 0 1.18005231174e-07 -2.20888160691e-08 3.22059145814e-09 1.39758024916e-08 -4.26735056715e-07 0 2.3972153527e-08 -2.53242807793e-08 3.33604364582e-09 1.59145614526e-08 -1.65160846562e-08 -4.51028065129e-09 2.33360566157e-08 -1.50040140853e-08 -3.28889324296e-09 2.19318348282e-08 -1.65488202459e-08 8.72175639877e-10 1.92409845941e-08 -1.57266765147e-08 1.45258229396e-09 1.37771846066e-08 -6.45154164257e-08 9.43222110802e-09 4.1137668742e-08 -2.05374281408e-08 3.16237407318e-11 1.97150297085e-08 -1.21985135003e-08 -6.03292963136e-09 2.40613677164e-08 -2.61689067334e-08 4.78818733016e-09 1.47557249056e-08 -5.30804392527e-08 0 1.18005231174e-07 -2.51680199103e-08 0 4.37421514704e-07 -2.42557863121e-08 4.59477156678e-09 1.52282693874e-08 -4.26735056715e-07 0 2.3972153527e-08 -1.75032224878e-08 3.39889091706e-09 1.31735916071e-08 -2.50162819386e-08 6.32308124112e-09 1.27656360022e-08 -1.40310750713e-07 -3.46820063841e-08 4.09181578831e-07 -3.69976880663e-07 1.41973934787e-08 1.6004597008e-07 -5.3419797839e-08 -1.12737342638e-08 4.31369597584e-07 -1.09057947117e-07 -1.83670992316e-40 4.67827076556e-08 -4.31199322034e-08 -1.80646844688e-08 5.15899677906e-08 -4.23822965271e-07 1.85504269431e-08 4.59993731817e-08 -2.26941542733e-08 3.45687790524e-09 1.59385379726e-08 -7.64286811844e-08 -2.51101891333e-08 2.7273627368e-07 -2.21639286124e-08 3.56277502917e-09 1.62585799911e-08 -2.87630498478e-07 1.60980396186e-08 4.49272877015e-08 -1.66225371364e-08 -6.60444194664e-09 2.73022623768e-08 -3.46361940258e-08 0 1.42821915025e-07 -1.40115478361e-08 -1.9779154247e-09 1.82843976882e-08 -1.56372567331e-07 0 2.6896772307e-08 -4.14006556511e-07 0 2.13866056172e-08 -1.55308895264e-08 -3.04163060267e-09 1.96286699988e-08 -1.15846859637e-08 -3.36958422285e-09 2.0428599094e-08 -1.31090398104e-08 -2.02689306455e-09 1.77467837426e-08 -3.22522922259e-08 0 3.95129557797e-07 -2.01089514235e-08 -5.080288355e-09 2.89479988689e-08 -1.73441071595e-07 -2.49003704487e-08 4.09317234809e-07 -3.92378808048e-07 9.05598794323e-09 2.40025735831e-07 -3.17673992562e-08 1.38025368377e-08 3.13554844175e-08 -9.67268179352e-08 8.77525521689e-09 1.96517406054e-08 -1.75303429902e-07 1.90808302109e-08 4.68448034018e-08 -4.24989481485e-08 1.64969823139e-08 4.84992077925e-08 -3.55193206515e-08 -1.00236352956e-08 1.67176153269e-08 -3.72992405702e-08 -2.42608382648e-08 1.64188516215e-07 -1.66088923429e-07 2.11755404761e-08 5.01690880414e-08 -1.48215899589e-08 1.26481888644e-08 3.23764746826e-08 -3.18785209769e-08 1.71816190279e-08 5.34265195809e-08 -2.38767140671e-07 3.83635308803e-08 5.39834893127e-08 -4.76059825704e-08 1.26796103021e-08 6.2456931436e-08 -2.23458079617e-07 3.62024403725e-08 5.51249663328e-08 -2.4919848361e-08 -5.54993412198e-09 1.30493234597e-08 -2.46443901143e-08 -1.61117677204e-08 1.08048928467e-07 -1.73537694176e-08 -7.71828593933e-09 5.62072688242e-08 -2.12361086816e-07 3.0670652987e-08 5.73208699946e-08 -5.69282269065e-08 -4.114979418e-09 6.23060667587e-08 -2.81511924889e-07 -3.00052895032e-10 1.60991543922e-07 -2.87776727699e-08 8.51400179188e-09 3.56265961498e-08 -2.14565308302e-07 9.5064779782e-09 7.71414165229e-08 -3.9989912043e-08 8.32172489897e-09 4.39246424544e-08 -1.54540709844e-07 2.67561365999e-08 3.37711495509e-08 -1.92421726582e-07 1.62572432982e-08 4.00236546775e-08 -2.40920114572e-08 -5.55446534764e-09 4.55295011377e-08 -1.32895070317e-07 2.12754468419e-08 3.91064713453e-08 -2.91138117895e-08 -1.25315140508e-09 4.52443426675e-08 -4.97655989101e-08 -7.65085037454e-09 9.45173815276e-08 -2.68212215037e-07 4.34789439354e-08 8.67696637356e-08 -4.06647988425e-08 1.04180540938e-08 1.0685722609e-07 -2.82242164869e-07 3.43479188079e-08 8.03281425213e-08 -1.96795967566e-08 -2.4879816872e-09 4.87971944543e-08 -3.04399601155e-08 -8.91830321504e-10 3.30661299805e-08 -9.36349592192e-08 -2.09482610343e-08 4.75045726044e-08 -8.12968884249e-08 -3.64801201958e-08 2.79608540824e-07 -4.12276330327e-08 4.41408876365e-09 1.79993460501e-08 -8.53143167582e-09 5.98635616402e-09 1.41795161133e-08 -3.58110689161e-08 5.57878110383e-09 1.37472530861e-08 -1.4269713764e-08 2.88116125193e-09 1.85688545397e-08 -1.33251902286e-08 1.55856219058e-09 1.24859425977e-08 -6.2286338728e-08 1.46483615194e-09 3.28594795559e-08 -1.20480712583e-07 1.44529616739e-09 4.66851998128e-08 -6.96101693493e-08 -2.11728730977e-11 1.62168228659e-07 -8.37402157132e-08 1.03503950859e-08 1.17683370988e-07 -1.10189325988e-07 9.21104304178e-09 7.58499278652e-08</DataArray>
        <DataArray type="Float64" Name="ShellTopVonMises" format="ascii">0 0 0 0 0 0 0 0 0 0 0 0 0 0 0 0 0 0 0 0 0 0 0 0 0 0 0 0 0 0 0 0 0 0 0 0 0 0 0 0 0 0 0 0 0 0 0 0 0 0 0 0 0 0 0 0 0 0 0 0 0 0 0 0 0 0 0 0 0 0 0 0 0 0 0 0 0 0 0 0 0 0 0 0 0 0 0 0 0 0 0 0 0 0 0 0 0 0 0 0 0 0 0 0 0 0 0 0 0 0 0 0 0 0 0 0 0 0 0 0 0 0 0 0 0 0 0 0 0 0 0 0 0 0 0 0 0 0 0 0 0 0 0 0 0 0 0 0 0 0 0 0 0 0 0 0 0 0 0 0 0 0 0 0 0 0 0 0 0 0 0 0 0 0 0 0 0 0 0 0 0 0 0 0 0 0 0 0 0 0 0 0 0 0 0 0 0 0 0 0 0 0 0 0 0 0 0 0 0 0 0 0 0 0 0 0 0 0 0 0 0 0 0 0 0 0 0 0 0 0 0 0 0 0 0 0 0 0 0 0 0 0 0 0 0 0 0 0 0 0 0 0 0 0 0 0 0 0 0 0 0 0 0 0 0 0 0 0 0 0 0 0 0 0 0 0 0 0 0 0 0 0 0 0 0 0 0 0 0 0 0 0 0 0 0 0 0 0 0 0 0 0 0 0 0 0 0 0 0 0 0 0 0 0 0 0 0 0 0 0 0 0 0 0 0 0 0 0 0</DataArray>
        <DataArray type="Float64" Name="ShellBottomVonMises" format="ascii">0 0 0 0 0 0 0 0 0 0 0 0 0 0 0 0 0 0 0 0 0 0 0 0 0 0 0 0 0 0 0 0 0 0 0 0 0 0 0 0 0 0 0 0 0 0 0 0 0 0 0 0 0 0 0 0 0 0 0 0 0 0 0 0 0 0 0 0 0 0 0 0 0 0 0 0 0 0 0 0 0 0 0 0 0 0 0 0 0 0 0 0 0 0 0 0 0 0 0 0 0 0 0 0 0 0 0 0 0 0 0 0 0 0 0 0 0 0 0 0 0 0 0 0 0 0 0 0 0 0 0 0 0 0 0 0 0 0 0 0 0 0 0 0 0 0 0 0 0 0 0 0 0 0 0 0 0 0 0 0 0 0 0 0 0 0 0 0 0 0 0 0 0 0 0 0 0 0 0 0 0 0 0 0 0 0 0 0 0 0 0 0 0 0 0 0 0 0 0 0 0 0 0 0 0 0 0 0 0 0 0 0 0 0 0 0 0 0 0 0 0 0 0 0 0 0 0 0 0 0 0 0 0 0 0 0 0 0 0 0 0 0 0 0 0 0 0 0 0 0 0 0 0 0 0 0 0 0 0 0 0 0 0 0 0 0 0 0 0 0 0 0 0 0 0 0 0 0 0 0 0 0 0 0 0 0 0 0 0 0 0 0 0 0 0 0 0 0 0 0 0 0 0 0 0 0 0 0 0 0 0 0 0 0 0 0 0 0 0 0 0 0 0 0 0 0 0 0 0</DataArray>
      </CellData>
    </Piece>
  </UnstructuredGrid>
</VTKFile>
