<?xml version="1.0"?>
<VTKFile type="UnstructuredGrid" version="0.1" byte_order="LittleEndian">
  <UnstructuredGrid>
    <Piece NumberOfPoints="102" NumberOfCells="226">
      <Points>
        <DataArray type="Float64" NumberOfComponents="3" format="ascii">0 0 1 0 0 0 0 1 1 0 1 0 8 0 1 8 0 0 8 1 1 8 1 0 0 0 0.5 0 0.5 1 0 1 0.5 0 0.5 0 8 0 0.5 8 0.5 1 8 1 0.5 8 0.5 0 0.8 0 0 1.6 0 0 2.4 0 0 3.2 0 0 4 0 0 4.8 0 0 5.6 0 0 6.4 0 0 7.2 0 0 0.8 0 1 1.6 0 1 2.4 0 1 3.2 0 1 4 0 1 4.8 0 1 5.6 0 1 6.4 0 1 7.2 0 1 0.8 1 0 1.6 1 0 2.4 1 0 3.2 1 0 4 1 0 4.8 1 0 5.6 1 0 6.4 1 0 7.2 1 0 0.8 1 1 1.6 1 1 2.4 1 1 3.2 1 1 4 1 1 4.8 1 1 5.6 1 1 6.4 1 1 7.2 1 1 0 0.75 0.75 0 0.625 0.375 0 0.28125 0.28125 0 0.345703125 0.654296875 8 0.75 0.75 8 0.625 0.375 8 0.28125 0.28125 8 0.345703125 0.654296875 2 0 0.5 6 0 0.5 4.4 0 0.5 2.8 0 0.5 3.6 0 0.5 1.2 0 0.5 5.2 0 0.5 6.8 0 0.5 7.50773809524 0 0.5 0.492261904762 0 0.5 2 1 0.5 4.4 1 0.5 6 1 0.5 2.8 1 0.5 3.6 1 0.5 1.2 1 0.5 5.2 1 0.5 6.8 1 0.5 7.50773809524 1 0.5 0.492261904762 1 0.5 4.4 0.5 0 5.2 0.5 0 6.8 0.5 0 2 0.5 0 2.8 0.5 0 3.6 0.5 0 1.2 0.5 0 6 0.5 0 0.492261904762 0.5 0 7.50773809524 0.5 0 4.4 0.5 1 5.2 0.5 1 6.8 0.5 1 2 0.5 1 2.8 0.5 1 3.6 0.5 1 1.2 0.5 1 6 0.5 1 0.492261904762 0.5 1 7.50773809524 0.5 1 1.87764934491 0.540828024644 0.5 2.84929802191 0.5 0.5</DataArray>
      </Points>
      <Cells>
        <DataArray type="Int32" Name="connectivity" format="ascii">82 78 99 89 99 68 82 89 98 88 86 69 88 98 86 79 59 68 57 58 53 54 69 55 77 78 99 82 99 68 67 82 79 86 75 98 86 65 98 69 69 98 53 55 59 68 99 57 97 92 67 77 67 87 77 82 72 67 77 97 72 67 87 77 61 72 67 87 72 61 67 97 95 64 74 90 91 81 71 76 80 71 62 66 71 91 62 66 81 91 71 66 71 62 74 80 62 74 64 90 64 85 74 80 62 71 74 90 62 74 80 64 81 71 80 66 97 61 91 72 87 61 72 81 91 62 90 71 72 61 91 76 76 72 61 81 81 61 91 66 61 91 76 81 59 99 56 57 98 52 53 55 77 99 67 82 67 92 99 77 98 65 75 96 86 65 75 98 53 54 88 69 89 57 68 58 98 53 88 69 88 79 53 98 57 68 99 89 99 78 57 89 52 53 79 98 56 99 78 57 65 60 96 26 17 65 60 86 60 93 96 26 75 70 44 96 70 86 35 83 60 17 86 83 86 70 35 75 93 44 70 96 49 97 91 72 64 20 85 80 62 30 91 90 62 64 29 90 95 29 64 90 80 62 21 66 71 74 38 80 39 76 71 81 20 64 62 80 48 91 90 71 85 38 74 80 21 81 80 66 80 39 71 81 62 91 30 66 74 47 95 90 71 48 91 76 74 47 90 71 31 91 61 66 81 87 61 22 91 31 61 97 87 72 40 81 87 41 77 82 67 32 92 97 92 97 50 77 72 91 49 76 72 76 40 81 61 81 22 66 82 67 87 23 32 67 61 97 77 97 50 72 77 72 41 87 87 67 61 23 99 51 78 77 82 42 78 89 33 68 67 99 68 82 89 24 16 86 88 69 43 79 75 98 34 88 86 79 98 65 25 69 92 33 67 99 82 68 67 24 51 99 92 77 78 77 42 82 75 43 98 96 86 16 65 69 65 98 25 96 75 34 86 79 70 86 83 100 86 70 75 100 70 93 96 100 75 70 96 100 86 60 83 100 93 60 96 100 64 95 74 101 85 64 74 101 70 45 93 101 18 83 60 101 93 27 60 101 36 70 83 101 60 100 93 101 83 100 60 101 70 93 100 101 70 100 83 101 70 36 73 101 70 73 45 101 60 27 63 101 93 94 27 101 36 83 84 101 18 60 63 101 45 94 93 101 84 83 18 101 59 99 13 56 9 52 98 55 52 79 2 98 78 6 99 56 88 54 1 69 89 68 5 58 69 54 8 55 68 59 12 58 56 78 14 57 53 79 10 52 85 74 37 101 74 95 46 101 85 19 64 101 28 95 64 101 88 11 54 53 57 89 15 58 69 0 98 55 68 4 59 99 79 3 88 53 57 78 7 89 7 14 78 57 7 57 89 15 88 3 11 53 10 3 79 53 68 12 5 58 15 89 5 58 54 1 11 88 8 1 54 69 99 4 59 13 12 4 59 68 0 9 98 55 69 8 0 55 13 99 6 56 52 2 9 98 2 10 79 52 78 14 6 56 73 37 74 101 73 74 46 101 63 64 19 101 84 85 37 101 94 46 95 101 94 95 28 101 28 64 63 101 85 84 19 101 43 2 79 98 34 3 88 79 0 98 25 69 88 1 16 69 89 5 68 24 51 6 99 78 4 68 33 99 42 7 78 89 84 73 36 101 84 18 63 101 73 94 45 101 63 27 94 101 77 41 42 82 67 82 24 23 50 51 92 77 32 33 67 92 17 16 65 86 97 49 50 72 45 44 70 93 84 37 36 73 83 36 35 70 46 45 73 94 75 44 43 96 63 19 18 84 17 60 18 83 86 35 34 75 25 65 96 26 29 30 62 90 60 93 26 27 27 28 63 94 48 90 47 71 39 71 38 80 85 38 37 74 47 46 74 95 28 29 64 95 80 62 20 21 85 19 20 64 32 61 31 97 76 39 40 81 40 41 72 87 91 31 30 66 22 87 61 23 49 91 48 76 21 22 81 66 84 63 19 101 28 63 94 101 73 84 37 101 73 46 94 101 86 100 65 60 86 65 100 75 96 65 100 60 96 100 65 75</DataArray>
        <DataArray type="Int32" Name="offsets" format="ascii">4 8 12 16 20 24 28 32 36 40 44 48 52 56 60 64 68 72 76 80 84 88 92 96 100 104 108 112 116 120 124 128 132 136 140 144 148 152 156 160 164 168 172 176 180 184 188 192 196 200 204 208 212 216 220 224 228 232 236 240 244 248 252 256 260 264 268 272 276 280 284 288 292 296 300 304 308 312 316 320 324 328 332 336 340 344 348 352 356 360 364 368 372 376 380 384 388 392 396 400 404 408 412 416 420 424 428 432 436 440 444 448 452 456 460 464 468 472 476 480 484 488 492 496 500 504 508 512 516 520 524 528 532 536 540 544 548 552 556 560 564 568 572 576 580 584 588 592 596 600 604 608 612 616 620 624 628 632 636 640 644 648 652 656 660 664 668 672 676 680 684 688 692 696 700 704 708 712 716 720 724 728 732 736 740 744 748 752 756 760 764 768 772 776 780 784 788 792 796 800 804 808 812 816 820 824 828 832 836 840 844 848 852 856 860 864 868 872 876 880 884 888 892 896 900 904</DataArray>
        <DataArray type="UInt8" Name="types" format="ascii">10 10 10 10 10 10 10 10 10 10 10 10 10 10 10 10 10 10 10 10 10 10 10 10 10 10 10 10 10 10 10 10 10 10 10 10 10 10 10 10 10 10 10 10 10 10 10 10 10 10 10 10 10 10 10 10 10 10 10 10 10 10 10 10 10 10 10 10 10 10 10 10 10 10 10 10 10 10 10 10 10 10 10 10 10 10 10 10 10 10 10 10 10 10 10 10 10 10 10 10 10 10 10 10 10 10 10 10 10 10 10 10 10 10 10 10 10 10 10 10 10 10 10 10 10 10 10 10 10 10 10 10 10 10 10 10 10 10 10 10 10 10 10 10 10 10 10 10 10 10 10 10 10 10 10 10 10 10 10 10 10 10 10 10 10 10 10 10 10 10 10 10 10 10 10 10 10 10 10 10 10 10 10 10 10 10 10 10 10 10 10 10 10 10 10 10 10 10 10 10 10 10 10 10 10 10 10 10 10 10 10 10 10 10 10 10 10 10 10 10 10 10 10 10 10 10</DataArray>
      </Cells>
      <PointData Vectors="Displacement">
        <DataArray type="Float64" Name="Displacement" NumberOfComponents="3" format="ascii">0 0 0 0 0 0 0 0 0 0 0 0 1.34381867855e-06 -1.06646843491e-08 -1.47008574352e-05 -1.34290026322e-06 -2.75629654646e-08 -1.46994964505e-05 1.34414384027e-06 -1.70111356429e-08 -1.47116031493e-05 -1.34276168003e-06 -2.12578479233e-08 -1.47105899833e-05 0 0 0 0 0 0 0 0 0 0 0 0 2.30537871188e-11 -1.8803464098e-08 -1.47008339168e-05 1.3386889029e-06 -1.37465359644e-08 -1.47088017372e-05 -3.60585380799e-10 -1.9555340961e-08 -1.47115871542e-05 -1.33764496675e-06 -2.45144869591e-08 -1.4709315874e-05 -2.81623708294e-07 -3.31653005997e-08 -2.59048434741e-07 -4.4639365646e-07 -3.5309702439e-08 -8.5490348398e-07 -6.95965454293e-07 -4.4433759642e-08 -1.79443150129e-06 -8.8028927167e-07 -4.41141731907e-08 -3.07537071263e-06 -1.06188547706e-06 -4.23050841281e-08 -4.65420245308e-06 -1.13732000631e-06 -4.06224330643e-08 -6.44764999775e-06 -1.22245326664e-06 -3.08683357193e-08 -8.37776375506e-06 -1.28557930067e-06 -3.1605708968e-08 -1.04195703905e-05 -1.32708135673e-06 -2.75561948569e-08 -1.25400512134e-05 2.39281864675e-07 2.5960182461e-08 -2.60605322666e-07 4.33389477202e-07 1.86701652281e-08 -8.7136399996e-07 6.88316126491e-07 1.81167498728e-08 -1.79449818514e-06 8.7297845998e-07 9.02571511605e-09 -3.07537276653e-06 1.05933035708e-06 -5.33842148824e-09 -4.658710261e-06 1.16436084675e-06 -6.62429260386e-09 -6.45114654015e-06 1.22763198387e-06 -7.26504209179e-09 -8.37317818346e-06 1.2881716848e-06 -5.71456520718e-09 -1.04207060269e-05 1.33085960663e-06 -1.07977781124e-08 -1.25358617403e-05 -2.76097221967e-07 1.9244867084e-08 -2.68732372999e-07 -4.40368362909e-07 1.19313703967e-08 -8.63591070635e-07 -6.89609600763e-07 1.09211116133e-08 -1.80351555708e-06 -8.73402346032e-07 -1.36273670295e-10 -3.08455188281e-06 -1.05643712065e-06 -1.92071012302e-08 -4.66038158448e-06 -1.17061203444e-06 -1.73178144004e-08 -6.46102208037e-06 -1.22456689857e-06 -1.68027303545e-08 -8.39791612496e-06 -1.28423723899e-06 -2.08758098975e-08 -1.04322188797e-05 -1.32722924245e-06 -2.14978973481e-08 -1.25501918199e-05 2.43627467679e-07 -2.39245931414e-08 -2.69508239087e-07 4.39305093953e-07 -2.4392247263e-08 -8.80410744495e-07 6.94643606361e-07 -3.3698252537e-08 -1.80344609694e-06 8.78898950352e-07 -3.50613615262e-08 -3.08395006446e-06 1.06279626769e-06 -3.02744813389e-08 -4.66453460579e-06 1.17117507205e-06 -2.64663372725e-08 -6.4553746741e-06 1.22534642858e-06 -2.04323149435e-08 -8.39526044817e-06 1.28659503086e-06 -1.78255169446e-08 -1.04335139904e-05 1.33109682114e-06 -1.69571246336e-08 -1.25457451832e-05 0 0 0 0 0 0 0 0 0 0 0 0 6.67761447123e-07 -1.82322571546e-08 -1.47094121282e-05 -3.3514745901e-07 -2.03065954884e-08 -1.47081537287e-05 -5.86276934021e-07 -2.2409002578e-08 -1.47037774406e-05 4.10668261656e-07 -1.65080992888e-08 -1.47046770107e-05 -5.93928043094e-09 -1.15134659767e-08 -1.24165414548e-06 -2.57136073317e-10 -1.86455468271e-08 -9.37335091721e-06 -1.65601645792e-09 -1.99692977606e-08 -5.52326197232e-06 -3.94863118696e-09 -1.47935923844e-08 -2.37003291896e-06 -4.07039045458e-09 -1.98153944375e-08 -3.80735637297e-06 -2.32572292629e-08 1.06743699784e-08 -5.13496926622e-07 3.84836229315e-09 -2.39194432553e-08 -7.38569472767e-06 3.33229822623e-09 -1.82930459695e-08 -1.14653138524e-05 -2.03831080373e-10 -2.04286884296e-08 -1.33657569207e-05 -1.61253361986e-08 -1.42191164601e-08 -8.44457241055e-08 4.85498406916e-10 -7.78919228796e-09 -1.25064191794e-06 7.0444073871e-09 -2.29848150786e-08 -5.52149333013e-06 -2.0794235821e-10 -1.99413479578e-08 -9.39472614635e-06 2.4360243139e-09 -1.47766858398e-08 -2.37910111135e-06 2.0170549226e-09 -1.94079013929e-08 -3.81536608907e-06 -1.81545435414e-08 -2.0969491664e-08 -5.22245509648e-07 1.21410184132e-09 -2.07276864066e-08 -7.40880559112e-06 3.58313916405e-09 -2.011942104e-08 -1.1474864973e-05 -3.8435393989e-10 -1.78213640053e-08 -1.33759730872e-05 -9.58762115802e-09 1.26162829087e-08 -9.41487668729e-08 -1.0962170205e-06 -3.4950445497e-08 -5.52184999245e-06 -1.19448322723e-06 -2.22120387108e-08 -7.40012415736e-06 -1.31328102636e-06 -2.47697159204e-08 -1.14788100969e-05 -5.6281819091e-07 -1.42404903634e-08 -1.30841115059e-06 -7.74276812541e-07 -1.92986701041e-08 -2.42612940774e-06 -9.79552298826e-07 -2.55607696947e-08 -3.83776158799e-06 -3.49786276901e-07 -9.25379867222e-09 -5.00841911393e-07 -1.26588230021e-06 -2.6336515137e-08 -9.39417008871e-06 -1.89276346669e-07 -5.19235893788e-09 -1.52253539978e-07 -1.32997761023e-06 -2.44429570372e-08 -1.33782307715e-05 1.09488092145e-06 -1.86157552588e-08 -5.53358800135e-06 1.19422426654e-06 -1.62533193837e-08 -7.39023429745e-06 1.30710689414e-06 -1.33541272886e-08 -1.14847534661e-05 5.66644234415e-07 -5.25470303713e-09 -1.3080637964e-06 7.7367495207e-07 -1.03843979558e-08 -2.42594843436e-06 9.79458935293e-07 -1.55552274987e-08 -3.83859541378e-06 3.72876803828e-07 -5.69582528237e-10 -5.39350978925e-07 1.26426705625e-06 -1.15565989112e-08 -9.39539148567e-06 1.86374613724e-07 2.29587500393e-09 -8.41490743842e-08 1.33029020335e-06 -1.38980447027e-08 -1.33705936264e-05 5.63572858456e-09 -8.9259444405e-09 -1.13337237565e-06 -5.82691050951e-10 -1.50649832472e-08 -2.44732371785e-06</DataArray>
        <DataArray type="Float64" Name="DisplacementMagnitude" format="ascii">0 0 0 0 1.4762153356e-05 1.47607363208e-05 1.47728900105e-05 1.47717608457e-05 0 0 0 0 1.47008459423e-05 1.47696013992e-05 1.47116001556e-05 1.47700327859e-05 3.8408064489e-07 9.65077218949e-07 1.92518224732e-06 3.19918118933e-06 4.7739910935e-06 6.54731528737e-06 8.466538276e-06 1.04986265855e-05 1.26101066096e-05 3.54746213563e-07 9.73370553513e-07 1.92206426612e-06 3.19688762834e-06 4.77763441466e-06 6.55538494256e-06 8.46269732182e-06 1.05000253831e-05 1.2606313238e-05 3.85768232472e-07 9.69461804266e-07 1.9308933261e-06 3.20582157869e-06 4.77865931152e-06 6.56623474793e-06 8.48674505701e-06 1.0510989099e-05 1.26201947028e-05 3.64089851685e-07 9.84229153359e-07 1.93289501439e-06 3.20693633615e-06 4.78417553393e-06 6.56080892112e-06 8.48423769953e-06 1.05125571918e-05 1.26161732904e-05 0 0 0 0 1.47245727585e-05 1.47119856676e-05 1.4715478036e-05 1.4710419672e-05 1.24172172887e-06 9.37336946566e-06 5.52329831985e-06 2.37008237811e-06 3.80741011302e-06 5.14134160057e-07 7.38573446313e-06 1.14653289301e-05 1.33657725342e-05 8.71394862282e-08 1.25066626809e-06 5.52154566404e-06 9.39474731249e-06 2.37914824731e-06 3.81541598371e-06 5.22981528717e-07 7.40883468556e-06 1.14748831706e-05 1.33759849647e-05 9.54729457888e-08 5.62971940942e-06 7.49594030787e-06 1.15537180956e-05 1.42439701157e-06 2.54675890579e-06 3.96088248567e-06 6.10965377502e-07 9.47911299994e-06 2.42968385671e-07 1.34441993617e-05 5.6408959348e-06 7.48612040649e-06 1.15589043141e-05 1.42553295148e-06 2.54635162013e-06 3.96161539296e-06 6.55695747831e-07 9.48007837064e-06 2.04503873808e-07 1.3436615612e-05 1.13342153492e-06 2.44737015451e-06</DataArray>
        <DataArray type="Float64" Name="NodalVonMises" format="ascii">16824.195947 18809.6045372 16987.8878614 18705.7698026 1768.82833139 1745.23083257 1725.36156542 1828.13856973 8301.73235031 21890.7718835 9059.37301685 25237.3218066 1456.65952966 1901.90179506 1504.49952748 1792.64627159 16323.7305447 17171.9739968 15682.2286165 14357.4270693 10177.2458164 7472.90458205 6120.81017412 4420.8847659 2515.74153462 16336.6977112 16674.3567813 15653.9823723 14428.7352031 10584.7745654 7242.37475324 5677.73271777 4254.07157394 2696.87181257 16131.4089707 17184.093455 15670.1184976 14320.5820702 10908.6474044 7260.4411194 5290.35080032 4217.94245196 2582.22336276 16403.2438435 16716.4591153 15655.1347816 14379.6818588 10649.8298673 7415.65645316 5383.85764885 4140.72865397 2750.87542024 16092.5955096 14975.7461402 15371.0456462 14490.5070313 1816.46517183 1955.96565669 1783.86702403 1856.64463513 12804.7336076 4690.44231815 5192.99144214 11782.2907855 8239.78968602 11110.5644795 5180.93665654 3307.25060284 1834.92501728 12525.767066 12782.2046948 5710.31721373 4400.18511429 11758.867803 7653.7162676 11130.1969221 4114.6423431 3179.00735526 1843.35608868 13044.2950881 7373.86285055 5207.97200024 2724.46217533 17135.435303 18915.9881076 13351.4709497 13076.8731782 4461.25093648 18386.0933209 1959.16589218 7820.08476475 5067.27184138 3671.8782179 17032.1838199 18832.8073166 13503.1794012 13788.2253558 4396.33457546 14977.5355452 2181.31370467 12536.564051 12366.6760102</DataArray>
        <DataArray type="Float64" Name="NodalStressTrace" format="ascii">28678.5836544 -31532.7454438 30018.7858486 -30567.7040086 730.812289595 -469.357975458 731.386062965 -437.631749039 -5732.58626649 66256.5132222 -3408.41671156 -67288.0845475 -125.166117727 939.842559765 -80.4655915987 -834.905519637 -16771.7591054 -14987.9665537 -13062.309489 -11449.5354363 -9591.55892385 -6440.51137427 -4508.54413663 -3056.8938718 -1516.28184867 17578.4566529 14219.3166658 13197.7244479 11548.2282457 9814.93980752 6645.39949561 3946.76134406 2883.66761893 1603.37529775 -16669.4052827 -14914.3081932 -13045.793969 -11429.5956397 -9337.70533215 -6551.92646792 -4727.11627283 -3179.1046285 -1479.68245303 17930.9675323 14286.5364832 13205.7161656 11462.2951171 9566.83147306 6493.89096634 4932.9942869 3115.40678612 1569.59280389 37420.1286415 -4192.98697363 -27117.9973617 30997.4727797 598.186106714 164.75208387 -271.492426838 451.578114269 -1088.15214105 487.854476469 2069.08512776 147.62766791 -377.309441208 4350.27666566 -2709.60482202 313.567565828 -180.609924835 -3659.48658252 -1057.80039606 -134.977865113 219.541597099 150.037505416 -380.786023604 4416.24520616 339.32240998 295.580172343 -187.568976574 -1826.33482849 -8223.37439273 -5572.98842516 -2486.21554395 -16817.8210584 -16743.4288082 -12049.2759072 -11845.3872135 -4981.09375682 -29515.1909148 -884.258440348 9411.67521424 5335.26483043 3697.27620745 15380.9780215 16852.0171088 11904.4034137 15583.1475601 4346.88216832 23062.3447575 796.747270381 -2476.61107235 38.907606587</DataArray>
        <DataArray type="Float64" Name="NodalPrincipalStress" NumberOfComponents="3" format="ascii">1689.49378503 6943.33292365 20045.7569457 -22772.1083704 -6408.25224142 -2352.38483198 1972.83275258 7443.09148073 20602.8616153 -22361.6493518 -6114.14812438 -2091.90653244 -600.914657222 -44.6445345084 1376.37148133 -1253.56652732 63.3753621703 720.833189689 -594.79824808 -14.7611890574 1340.9455001 -1295.74992761 84.5514469425 773.566731624 -6970.7247804 -1322.90452304 2561.04303695 14298.4284601 15289.9645897 36668.1201723 -6532.59187295 -786.557702667 3910.73286406 -39168.6020257 -15528.019511 -12591.4630108 -875.954108535 -45.659773864 796.447764672 -572.244055059 -29.3553896126 1541.44200444 -899.865366516 -11.4213771704 830.821152088 -1412.29528823 -37.4952361724 614.885004766 -15491.3796406 -3946.7798227 2666.40035796 -15416.1549535 -3385.44847048 3813.63687031 -14305.1581193 -2126.49966421 3369.34829452 -12906.8919043 -1847.91692133 3305.27338931 -9211.2956115 -2463.76579089 2083.50247855 -6701.76497095 -1436.65459562 1697.90819229 -5274.67493571 -833.207162669 1599.33796174 -3682.66668679 -715.242090166 1341.01490516 -2050.68790581 -272.087545729 806.493602866 -2094.31290413 3533.31141139 16139.4581456 -3465.7386826 2558.50780725 15126.5475411 -3418.50708516 2329.25028805 14286.981245 -3310.88071548 1874.96033248 12984.1486287 -2049.39746258 2029.38694715 9834.95032294 -1435.17603103 1462.89829971 6617.67722693 -1699.9252497 938.812370672 4707.87422309 -1211.56252382 508.841354073 3586.38878868 -739.333892096 76.7716667328 2265.93752311 -15341.434577 -3891.15016426 2563.17945859 -15391.0961068 -3378.43142795 3855.21934158 -14291.4048214 -2124.54331936 3370.15417178 -12886.3551256 -1818.88112942 3275.64061535 -9798.68966657 -1992.37852036 2453.36285478 -6562.95350941 -1501.01608801 1512.04312949 -4787.29227618 -1113.34305432 1173.51905768 -3620.31238652 -711.94133618 1153.1490942 -2067.74506926 -284.814784578 872.877400804 -1992.94037054 3619.26167374 16304.6462291 -3456.16399958 2558.68895141 15184.0115314 -3414.53011597 2328.96562811 14291.2806534 -3306.12211003 1840.08980173 12928.3274254 -2142.80093612 1873.62704922 9836.00535996 -1612.91560839 1489.88816777 6616.91840695 -1096.94555897 1102.92764347 4927.0122024 -1049.0889738 548.487932215 3616.00782771 -812.652565763 107.595339886 2274.65002977 5758.87436676 8810.97128796 22850.2829868 -9965.94933659 -538.080643246 6311.04300621 -18962.5601941 -5947.73269135 -2207.70447629 4279.7163309 7138.37371473 19579.3827341 -711.134351659 -26.9152182734 1336.23567665 -1081.23138586 92.036769473 1153.94670025 -1177.49619341 41.7115455454 864.292221027 -802.957090325 -37.1740068958 1291.70921149 -7647.85469895 -217.904963233 6777.60752113 -2447.98073033 97.8524053323 2837.98280147 -2006.59310399 264.341062754 3811.337169 -6611.41100579 78.8592160615 6680.17945764 -4730.28354421 -124.898999102 4477.8731021 -3898.6759201 -121.746620129 8370.69920589 -4085.39420784 -337.857693003 1713.64707882 -1705.46914861 -22.1296644802 2041.16637892 -1108.09777492 -52.7845635329 980.272413614 -8471.27436364 -635.714169666 5447.50195078 -7615.44180611 -225.19317938 6782.83458942 -3205.93576971 -34.8682879227 3105.82619252 -2355.48458826 -11.3824781593 2586.40866352 -6592.55118859 68.0031838646 6674.58551014 -4419.91418051 -139.404234428 4178.53239134 -3873.0061343 -125.292865653 8414.54420612 -2212.31509567 60.3464053919 2491.29110025 -1639.72462586 -18.2174612507 1953.52225946 -1106.08502625 -72.577354534 991.093404208 -8131.14729691 -75.717506984 6380.52997541 -7222.17450972 -1893.31042412 892.110541112 -5072.24104133 -1158.83631044 658.088926609 -2468.21591994 -621.135024426 603.135400416 -16400.8240402 -3203.27496744 2786.27794922 -17590.9765287 -2901.97710659 3749.5248271 -12427.9643085 -2160.71969594 2539.40809728 -11569.9504981 -3212.33519451 2936.89847915 -4380.10648908 -1190.14062046 589.153352723 -21841.1503078 -5820.03252777 -1854.00807924 -1512.66084635 -83.1455915305 711.547997534 -588.432469527 1951.68373209 8048.42395169 -765.59399311 1257.38107772 4843.47774582 -576.458923023 719.865505197 3553.86962528 -3412.37870508 2989.84899514 15803.5077315 -3695.99190485 2983.99539068 17564.013623 -2701.523175 2147.73269496 12458.1938937 -1311.92267002 3036.3393699 13858.7308602 -733.253547768 910.659629113 4169.47608697 885.668691819 5170.70127824 17005.9747874 -867.980086848 68.1188815459 1596.60847568 -7946.52240305 -864.962325982 6334.87365668 -6989.31636596 14.2724251182 7013.95154742</DataArray>
        <DataArray type="Float64" Name="ShellTopNodalVonMises" format="ascii">0 0 0 0 0 0 0 0 0 0 0 0 0 0 0 0 0 0 0 0 0 0 0 0 0 0 0 0 0 0 0 0 0 0 0 0 0 0 0 0 0 0 0 0 0 0 0 0 0 0 0 0 0 0 0 0 0 0 0 0 0 0 0 0 0 0 0 0 0 0 0 0 0 0 0 0 0 0 0 0 0 0 0 0 0 0 0 0 0 0 0 0 0 0 0 0 0 0 0 0 0 0</DataArray>
        <DataArray type="Float64" Name="ShellBottomNodalVonMises" format="ascii">0 0 0 0 0 0 0 0 0 0 0 0 0 0 0 0 0 0 0 0 0 0 0 0 0 0 0 0 0 0 0 0 0 0 0 0 0 0 0 0 0 0 0 0 0 0 0 0 0 0 0 0 0 0 0 0 0 0 0 0 0 0 0 0 0 0 0 0 0 0 0 0 0 0 0 0 0 0 0 0 0 0 0 0 0 0 0 0 0 0 0 0 0 0 0 0 0 0 0 0 0 0</DataArray>
      </PointData>
      <CellData Scalars="VonMises">
        <DataArray type="Int32" Name="ElementIndex" format="ascii">0 1 2 3 4 5 6 7 8 9 10 11 12 13 14 15 16 17 18 19 20 21 22 23 24 25 26 27 28 29 30 31 32 33 34 35 36 37 38 39 40 41 42 43 44 45 46 47 48 49 50 51 52 53 54 55 56 57 58 59 60 61 62 63 64 65 66 67 68 69 70 71 72 73 74 75 76 77 78 79 80 81 82 83 84 85 86 87 88 89 90 91 92 93 94 95 96 97 98 99 100 101 102 103 104 105 106 107 108 109 110 111 112 113 114 115 116 117 118 119 120 121 122 123 124 125 126 127 128 129 130 131 132 133 134 135 136 137 138 139 140 141 142 143 144 145 146 147 148 149 150 151 152 153 154 155 156 157 158 159 160 161 162 163 164 165 166 167 168 169 170 171 172 173 174 175 176 177 178 179 180 181 182 183 184 185 186 187 188 189 190 191 192 193 194 195 196 197 198 199 200 201 202 203 204 205 206 207 208 209 210 211 212 213 214 215 216 217 218 219 220 221 222 223 224 225</DataArray>
        <DataArray type="Float64" Name="VonMises" format="ascii">1942.93050211 1935.38911713 16117.1508097 16127.1004921 1845.87980875 8301.73235031 2021.87563481 1973.36101184 6035.98529933 5968.44466676 12673.2717744 2195.36996438 3944.69245057 3940.34081979 3398.79818482 3265.98845983 4051.75727867 4234.05673139 12073.6940869 1909.99545501 6239.90056828 2410.23541927 2149.25555552 3357.79189961 2147.97185548 11830.1179382 2800.41252754 2672.42221574 8530.90334967 5566.95708915 5719.31683936 9800.59070657 4632.45932221 4331.06497707 4581.27827382 4854.17894622 2027.11728052 21890.7718835 3144.31114619 3945.81927615 17542.5318327 11095.9520752 15245.7759684 2142.32008475 9543.0038246 10647.7363569 2118.08761884 2276.5599472 16379.8353085 2066.08639717 7560.75452354 9878.56362848 16319.9765794 7564.75335537 17185.1514589 17181.5669316 9921.63035903 16299.1018215 5288.88994205 10250.9323159 8568.32365485 3852.56887506 10290.1874016 4835.79977851 4333.25770292 2532.60088441 4139.77690742 9011.00379433 10275.754015 7553.53583576 8602.54538854 2680.14585963 10408.8754824 3383.79130556 3622.69716903 3593.83802934 5476.58810635 5339.58672124 5427.97171296 3618.89417921 3402.96156017 3440.89476482 3716.19448201 3291.78283452 3568.97491826 3598.58747082 3006.06804186 2549.42571572 2450.65865778 2903.14031365 1405.52312906 1768.04399421 1377.05062988 1758.92152907 15913.3508111 6221.10695964 15873.4744315 6183.71511498 3000.22405868 1742.09694581 3044.26650749 1795.45725289 16644.959798 6756.98713813 16656.2140475 6628.98240262 18191.9957115 11117.1431455 17923.3906841 7666.63216795 18310.7740444 18032.3057677 7323.84383402 7126.66172503 10450.6290151 11054.6059134 10458.2901028 11060.2863421 11828.7693823 11476.0427648 11785.9931201 11246.8872711 2870.50547752 2752.60677608 2725.10724056 20888.3968808 21244.2905177 2875.40840826 20879.3027263 21243.4196107 2064.97546324 21890.7718835 12477.2715743 1689.90202917 16971.7028911 1777.87683642 8301.73235031 1825.98848333 1841.90103627 9059.37301685 8159.52395225 8146.11254227 8053.3864555 8127.4340449 25237.3218066 1881.37397077 12673.2717744 1751.56438625 16433.436569 1905.17502917 1378.95285363 1792.76388889 25237.3218066 9059.37301685 1309.82902911 1703.80095509 25237.3218066 8301.73235031 1908.10061804 1234.16107654 21890.7718835 8301.73235031 1732.62930391 21890.7718835 9059.37301685 1292.64469253 4256.13242057 4318.39242569 4347.6170251 21552.2344514 21584.1283752 21578.1210646 4281.34419014 21533.5886939 24524.1349711 24092.947818 24431.0077798 24727.6611007 2189.41650964 2186.27023605 2181.48724472 2235.66250722 17074.6672071 17078.6187066 17044.5453408 17038.0062294 4529.72969671 4372.53115398 4367.44180834 4228.72531699 17896.9231287 6205.15232699 24779.207639 18071.6006695 23699.3607716 18024.5171926 18222.7736454 18110.4767619 23730.8422983 17930.2312305 18075.8539025 10322.0547547 24740.8421198 18073.2516605 10942.6368684 11737.456825 17288.1210746 17625.1099494 17874.2872302 8873.88516724 17444.3888752 6378.53137673 6169.16137966 6272.48727415 7398.97474375 6809.28012516 6325.19384437 8628.3975467 16655.1046044 16637.9730284 16595.8798529 16579.8306676 11147.1260634 12258.9297356 7554.76195282 6971.14490262</DataArray>
        <DataArray type="Int32" Name="HasVonMises" format="ascii">1 1 1 1 1 1 1 1 1 1 1 1 1 1 1 1 1 1 1 1 1 1 1 1 1 1 1 1 1 1 1 1 1 1 1 1 1 1 1 1 1 1 1 1 1 1 1 1 1 1 1 1 1 1 1 1 1 1 1 1 1 1 1 1 1 1 1 1 1 1 1 1 1 1 1 1 1 1 1 1 1 1 1 1 1 1 1 1 1 1 1 1 1 1 1 1 1 1 1 1 1 1 1 1 1 1 1 1 1 1 1 1 1 1 1 1 1 1 1 1 1 1 1 1 1 1 1 1 1 1 1 1 1 1 1 1 1 1 1 1 1 1 1 1 1 1 1 1 1 1 1 1 1 1 1 1 1 1 1 1 1 1 1 1 1 1 1 1 1 1 1 1 1 1 1 1 1 1 1 1 1 1 1 1 1 1 1 1 1 1 1 1 1 1 1 1 1 1 1 1 1 1 1 1 1 1 1 1 1 1 1 1 1 1 1 1 1 1 1 1 1 1 1 1 1 1</DataArray>
        <DataArray type="Float64" Name="StressTrace" format="ascii">-2319.80941626 -2351.641673 -23300.6588641 -22847.8812302 -436.710266899 -5732.58626649 777.99446794 650.497977518 -4358.17226037 -4523.49899667 33204.0006853 616.65413997 3919.18020228 -7635.84752171 -1394.63140574 1986.50936133 4104.46847876 -3415.11030416 15787.9067878 -67.9064300421 491.686749633 -1221.99448807 931.651937321 387.337249446 -1612.95425068 -16208.971645 -3351.60472398 -1296.43767666 -16515.385501 11121.561192 -12299.2674885 17280.0186629 2221.45031511 164.325919599 2473.01518904 1473.45682167 842.056150827 66256.5132222 5228.46860292 280.42395315 33060.1723522 18668.5662386 -14987.7685749 600.811716225 483.42731871 -1091.15296058 760.020358002 871.909680471 35008.1284231 724.844926023 -4654.44406776 1089.77810827 29909.6255108 -4455.43661653 -32456.4306674 -32391.9505828 1187.34085341 29924.7565207 11947.7721482 -19622.4338233 18101.2741641 -1782.37035017 19786.9270252 108.079753829 3167.10015715 -611.986400828 -758.150933848 16624.8581829 -20613.4780261 -16898.9924968 -17416.4493023 -308.667614992 20047.1349577 -1033.7627995 -2243.49433796 -900.419304094 -12808.0954025 12155.8381541 -12928.9754157 -8845.54557417 6986.32762886 6326.15801492 365.567355001 97.1662079297 2438.88447885 -9448.27389333 -1678.61012519 -885.110194009 1869.87073369 2774.39622734 -445.598568531 -3004.86573682 -393.311456171 -3019.01413247 -22455.8831892 -2409.34890423 -22463.8759273 -2617.49670625 3082.6248954 -96.3741157703 2815.17337786 9.47030750166 35787.7441619 -2503.6586277 35864.2479733 -2833.86671298 -28035.3092005 -1511.65262695 23108.1453785 -4481.52881945 -27572.2561804 22752.7149152 -9564.15037915 9207.93852531 7964.12495607 -7218.30185623 7961.77001169 -7188.92769922 -4945.35191493 4308.78386556 -2406.37105578 1589.26324278 -3597.70896744 4375.77237902 4382.08458623 19581.206726 -19876.0215018 -3582.99771649 19601.3661411 -19885.3008553 469.480818347 66256.5132222 34980.0658242 913.794711865 -23064.2850628 -116.311487718 -5732.58626649 -92.104862152 -19.9610535374 -3408.41671156 -8174.22831465 8445.42218668 -8782.69978723 8497.21193571 -67288.0845475 -724.040971647 33204.0006853 1190.14757026 -22063.4030129 -175.00429279 -188.600430097 -894.954950104 -67288.0845475 -3408.41671156 -246.370478514 -885.720637159 -67288.0845475 -5732.58626649 1060.12437631 -37.0230125158 66256.5132222 -5732.58626649 1289.92248463 66256.5132222 -3408.41671156 -32.8352911618 -4529.23207257 4558.60652745 -4676.68866378 -14073.3950389 14296.746457 14330.3537916 4649.34580688 -14286.5425672 22246.9810597 -29510.9117626 20986.4069765 -30046.0258986 -629.029298441 754.662346522 710.000224323 -491.967323163 -22256.5605725 -22243.4159292 22416.1772509 22425.3486246 -2431.36705964 -2320.70984801 3154.13405971 3014.18752743 -12081.468706 3866.44526389 15578.3322169 -8836.36884189 -16519.176231 9298.52404952 16098.4938117 -8875.61554233 -16568.2250343 -11868.9667278 16080.6683681 7470.13035168 15541.416852 9294.51988673 6832.27610143 -5411.99089892 -14492.4525608 13631.409171 13785.0722034 -4539.15510444 -13446.4958338 3212.76544461 -2767.27926962 -3309.37661388 1318.86108166 -3232.98797318 3552.19238048 -4431.97764971 -18629.1702233 18732.8658498 -18471.8970092 18543.0623109 -1898.77249609 -4749.12647331 -4524.3082575 -6306.78538994</DataArray>
        <DataArray type="Float64" Name="HydrostaticPressure" format="ascii">773.269805418 783.880557667 7766.88628803 7615.96041006 145.570088966 1910.86208883 -259.331489313 -216.832659173 1452.72408679 1507.83299889 -11068.0002284 -205.55137999 -1306.39340076 2545.28250724 464.877135245 -662.169787109 -1368.15615959 1138.37010139 -5262.63559595 22.6354766807 -163.895583211 407.331496023 -310.550645774 -129.112416482 537.651416892 5402.99054834 1117.20157466 432.145892222 5505.12850032 -3707.18706401 4099.75582949 -5760.00622095 -740.48343837 -54.7753065331 -824.338396346 -491.152273891 -280.685383609 -22085.5044074 -1742.82286764 -93.4746510501 -11020.0574507 -6222.85541288 4995.92285828 -200.270572075 -161.14243957 363.717653526 -253.340119334 -290.636560157 -11669.376141 -241.614975341 1551.48135592 -363.259369423 -9969.87517027 1485.14553884 10818.8102225 10797.3168609 -395.780284469 -9974.91884024 -3982.59071608 6540.81127442 -6033.75805469 594.123450056 -6595.64234172 -36.0265846096 -1055.70005238 203.995466943 252.716977949 -5541.61939431 6871.15934202 5632.99749892 5805.48310077 102.889204997 -6682.37831924 344.587599834 747.831445988 300.139768031 4269.36513416 -4051.94605136 4309.65847191 2948.51519139 -2328.77587629 -2108.71933831 -121.855785 -32.3887359766 -812.961492949 3149.42463111 559.536708397 295.036731336 -623.290244563 -924.798742447 148.532856177 1001.62191227 131.103818724 1006.33804416 7485.29439638 803.116301411 7487.95864242 872.498902083 -1027.5416318 32.1247052568 -938.391125955 -3.15676916722 -11929.248054 834.552875899 -11954.7493244 944.622237659 9345.10306685 503.884208983 -7702.71512616 1493.84293982 9190.75206014 -7584.23830506 3188.05012638 -3069.31284177 -2654.70831869 2406.10061874 -2653.92333723 2396.30923307 1648.45063831 -1436.26128852 802.12368526 -529.75441426 1199.23632248 -1458.59079301 -1460.69486208 -6527.06890867 6625.3405006 1194.33257216 -6533.78871368 6628.43361845 -156.493606116 -22085.5044074 -11660.0219414 -304.598237288 7688.09502094 38.7704959061 1910.86208883 30.7016207173 6.65368451246 1136.13890385 2724.74277155 -2815.14072889 2927.56659574 -2832.40397857 22429.3615158 241.346990549 -11068.0002284 -396.715856753 7354.46767096 58.3347642635 62.8668100323 298.318316701 22429.3615158 1136.13890385 82.1234928381 295.240212386 22429.3615158 1910.86208883 -353.374792104 12.3410041719 -22085.5044074 1910.86208883 -429.974161545 -22085.5044074 1136.13890385 10.9450970539 1509.74402419 -1519.53550915 1558.89622126 4691.13167963 -4765.58215235 -4776.78459718 -1549.78193563 4762.18085572 -7415.66035323 9836.97058754 -6995.46899216 10015.3419662 209.676432814 -251.554115507 -236.666741441 163.989107721 7418.85352415 7414.47197639 -7472.05908362 -7475.11620819 810.455686547 773.569949336 -1051.3780199 -1004.72917581 4027.15623533 -1288.81508796 -5192.77740562 2945.45628063 5506.39207701 -3099.50801651 -5366.1646039 2958.53851411 5522.7416781 3956.32224259 -5360.22278938 -2490.04345056 -5180.472284 -3098.17329558 -2277.42536714 1803.99696631 4830.81752026 -4543.80305701 -4595.02406779 1513.05170148 4482.16527795 -1070.92181487 922.426423206 1103.12553796 -439.620360555 1077.66265773 -1184.06412683 1477.32588324 6209.72340778 -6244.2886166 6157.29900307 -6181.02077028 632.924165362 1583.04215777 1508.1027525 2102.26179665</DataArray>
        <DataArray type="Float64" Name="PrincipalStress" NumberOfComponents="3" format="ascii">-2018.88350561 -458.133549361 157.207638715 -2025.29979054 -467.696355206 141.354472747 -18197.293699 -4786.06564568 -317.299519445 -18091.8491483 -4472.3591646 -283.672917322 -1281.55223489 12.6456237136 832.196344274 -6970.7247804 -1322.90452304 2561.04303695 -850.976898791 152.615738917 1476.35562781 -866.586853134 112.24306677 1404.84176388 -4053.97022349 -2810.95636367 2506.75432678 -4106.10454613 -2818.45761755 2401.06316702 6127.30980401 7602.90475884 19473.7861224 -1020.47593533 126.327703536 1510.80237176 -680.078374921 807.210583995 3792.04799321 -5083.58428114 -1861.96151923 -690.301721343 -2450.12830589 -418.133700327 1473.63060048 -1055.48509019 362.201946836 2679.79250468 -686.898525587 877.52397088 3913.84303347 -3710.90475213 -858.231282346 1154.02573032 -770.655763513 3665.0739226 12893.4886288 -1077.4321129 -112.959254848 1122.4849377 -3363.83098802 18.5325081562 3836.9852295 -1785.86018662 -433.018602921 996.884301477 -1057.37143638 625.244352998 1363.7790207 -1699.23377078 -75.2484165105 2161.81943674 -1871.7027959 -321.356119033 580.104664252 -12916.5153081 -3722.46821744 430.011880478 -2807.55052883 -958.426217123 414.372021976 -2004.03803179 -372.477886203 1080.07824133 -11183.4695157 -2941.82596497 -2390.09002024 1257.88499139 2517.08622998 7346.58997065 -7825.19455065 -2940.14252122 -1533.93041659 1299.31416915 3855.87978392 12124.8247098 -1768.04410459 434.71719989 3554.77721981 -2395.56092429 -42.77998533 2602.66682922 -1935.39878615 1071.10289408 3337.3110811 -2138.46283537 172.498973927 3439.42068312 -631.632811835 -126.573989454 1600.26295212 14298.4284601 15289.9645897 36668.1201723 329.51803687 1108.76976496 3790.18080109 -2118.79825488 -32.9538485354 2432.17605657 4450.79032333 5925.33017419 22684.0518546 2443.3908059 2605.61156953 13619.5638632 -14617.9034875 -3020.60028483 2650.73519743 -1077.21760001 285.96575177 1392.06356446 -5794.83107561 1202.35560507 5075.90278925 -7044.15556426 897.982157662 5055.02044602 -991.013461059 297.485902077 1453.54791698 -1040.93984273 325.747921335 1587.10160187 4020.59597487 8744.31268657 22243.2197617 -844.613883811 51.2551499626 1518.20365987 -6405.90721362 -299.3919025 2050.85504835 -4651.40142074 -826.511260665 6567.69078968 2967.02841538 6260.15105372 20682.4460417 -6331.56532755 -269.961251137 2146.08996215 -22163.8540374 -6528.54342274 -3764.03320724 -22143.4780149 -6484.58588689 -3763.88668096 -4642.87612665 -795.938869555 6626.15584962 2989.38408454 6259.68361483 20675.6888213 2051.44216589 2393.34251251 7502.98746985 -13328.4452238 -3834.9067037 -2459.08189579 2825.11623029 3545.33905536 11730.8188784 -3059.62601029 15.4089093486 1261.84675077 2240.7463363 4182.649606 13363.5310829 -2859.38716579 255.962752472 2711.50416714 -852.642096655 131.650305232 3888.09194857 -1329.4094498 -731.290740938 1448.71378991 -1736.64456414 -1525.95875012 2504.45238041 2014.53533946 3093.76952836 11516.5533151 -13595.504236 -4642.31363626 -2375.66015381 -10627.5194217 -3692.24135626 -2579.23171886 -11522.3100979 -3342.47555482 -2551.66364956 -1814.89938371 310.216568525 1196.01520019 2225.97188866 4304.03971189 13517.1233572 -2565.43085427 422.945372999 1108.72268176 -3007.30173573 -356.838768757 1120.64616652 -2507.79870531 -2.47742818575 1609.8568294 -7886.65188756 -2889.79032617 -2031.65318876 1888.84733021 2685.13234113 7581.85848274 -7906.20375979 -2857.22606052 -2165.54559543 -5323.07108401 -2130.80220742 -1391.67228274 690.004660509 1789.5332041 4506.78976425 548.900756847 1431.98519672 4345.27206135 -1965.48257158 9.82989901676 2321.22002756 -1939.44574548 184.131938206 1852.4800152 -1032.08106703 434.435456492 3036.53008938 -5468.0396277 -2523.62342918 -1456.61083646 -2399.74434989 -326.728482406 1047.86270711 -1842.42636682 -130.203813901 1087.51998671 -617.926801138 323.874599392 2163.92293543 -524.080944052 537.947159421 2760.53001197 -858.765808334 -322.732247388 735.89948719 -2099.48076424 -824.206475742 -81.1784968398 -811.255048108 -325.008735473 742.952327411 -2105.16377652 -811.473937044 -102.376418905 -17922.0050143 -3915.53898448 -618.339190367 -3732.75556769 -1880.66451371 3204.07117717 -17907.7500584 -3878.07032343 -678.055545457 -3853.44707204 -1848.10913855 3084.05950433 -508.385619179 685.93608691 2905.07442767 -982.543338486 -134.983065536 1021.15228825 -656.814189823 649.404537654 2822.58303003 -966.254476687 -120.197604638 1095.92238883 5271.59659253 7569.88023944 22946.2673299 -3774.38039079 -2320.48401154 3591.20577463 5295.95489175 7588.57435112 22979.7187304 -3808.49286531 -2427.56022053 3402.18637286 -21058.7390835 -6210.28513964 -766.284977402 -6965.49862892 -416.739123846 5870.58512582 -1202.18825544 5255.19099371 19055.1426402 -6099.70030178 -1109.76150058 2727.93298292 -20947.3332184 -6158.26218336 -466.660778657 -1442.83720119 5222.31622237 18973.235894 -7827.7547564 -2185.1710627 448.775439948 -505.679374925 2146.76428217 7566.85361806 -2930.74962973 1840.88627656 9053.98830924 -9116.94253514 -1688.52370695 3587.16438586 -2938.20259306 1843.78243821 9056.19016653 -9110.33921158 -1678.99038961 3600.40190196 -8642.79789281 -1305.5214894 5002.96746728 -4864.87285863 828.952119015 8344.70460517 -7612.99467474 -789.657177893 5996.28079685 -5747.38032101 116.935798982 7219.70776481 -3053.85426772 -680.454917329 136.600217611 36.9264813342 1164.55100347 3174.29489422 54.0952641062 1168.24803879 3159.74128333 -3771.02615624 3558.01095958 19794.2219227 -20164.7396326 -3454.73293475 3743.45106553 -3052.14058954 -674.577924165 143.720797216 -3755.00493506 3559.03299288 19797.3380832 -20167.2963362 -3457.89414707 3739.88962794 -771.904581957 -259.60961035 1500.99501065 14298.4284601 15289.9645897 36668.1201723 6461.42295792 8635.70796524 19882.934901 -542.608160719 85.080961229 1371.32191135 -18870.6394785 -3588.7759636 -604.869620716 -1124.23571748 91.72518294 916.19904682 -6970.7247804 -1322.90452304 2561.04303695 -1070.54065575 -58.9266093945 1037.36240299 -1080.71286891 14.9497470068 1045.80206837 -6532.59187295 -786.557702667 3910.73286406 -8026.8562724 -1126.4465323 979.074490047 -872.554309935 1206.39567278 8111.58082383 -8161.44054618 -1346.93736297 725.678121921 -869.108494626 1256.42725561 8109.89317473 -39168.6020257 -15528.019511 -12591.4630108 -1424.0740302 -11.5406145022 711.573673057 6127.30980401 7602.90475884 19473.7861224 -435.072915203 102.853350883 1522.36713458 -18207.7235731 -3221.82828174 -633.851158092 -1232.49850087 109.340455331 948.153752752 -908.864447094 48.5987206943 671.665296303 -1441.18101355 -29.7611377944 575.987201236 -39168.6020257 -15528.019511 -12591.4630108 -6532.59187295 -786.557702667 3910.73286406 -893.222294597 43.295440511 603.556375572 -1371.63082094 -71.1839562206 557.094140006 -39168.6020257 -15528.019511 -12591.4630108 -6970.7247804 -1322.90452304 2561.04303695 -548.378212384 27.2396286078 1581.26296009 -664.099375258 -121.348152708 748.42451545 14298.4284601 15289.9645897 36668.1201723 -6970.7247804 -1322.90452304 2561.04303695 -396.449370837 144.303812904 1542.06804257 14298.4284601 15289.9645897 36668.1201723 -6532.59187295 -786.557702667 3910.73286406 -710.018783545 -97.8125992125 774.996091595 -4156.95754363 -1070.68036536 698.405836426 -689.973432531 1025.93966642 4222.64029356 -4276.27200618 -1073.41672219 673.000064594 -18293.243973 -1898.79633704 6118.64527117 -6066.70621402 1978.81958651 18384.6330846 -6056.62312663 1996.96110232 18390.0158159 -652.557762856 1078.61459218 4223.28897756 -18346.1558746 -1991.61900901 6051.23231644 -6335.92853478 6633.2510706 21949.6585239 -25537.6799355 -4920.18700217 946.955175062 -6697.03834363 6203.36686904 21480.0784511 -26078.4671972 -5193.30896807 1225.75026665 -1625.17727625 189.664781451 806.483196358 -730.116677218 -190.61693115 1675.39595489 -756.108126043 -187.322964816 1653.43131518 -1600.45574891 210.027749539 898.460676206 -18273.0528601 -4961.80228331 978.29457094 -18272.5229231 -4952.50782191 981.61481586 -919.535775899 5032.74583282 18302.9671939 -915.07653798 5039.37165777 18301.0535048 -3604.78928719 -404.882807471 1578.30503502 -3489.86723198 -331.557961785 1500.71534576 -1004.91358768 294.326000426 3864.72164696 -881.586775052 133.48228031 3762.29202218 -14190.6659602 -4357.78732672 6466.98458092 -1897.91669754 597.844345613 5166.51761582 -7307.80078308 2090.45354331 20795.6794566 -14500.6041419 -120.819082582 5785.05438261 -20645.8388145 -1850.46030861 5977.12289205 -5611.0160534 286.124119636 14623.4159833 -3174.67397222 2154.57989864 17118.5878853 -14542.9719135 -112.5849775 5779.94134867 -20679.0744183 -1872.90940764 5983.7587916 -14111.8154488 -4338.78311089 6581.6318319 -3122.7210926 2189.41356396 17013.9758968 -2825.09497785 1362.52141949 8932.70391004 -7301.35483954 2083.85851381 20758.9131777 -5639.47764823 282.23012016 14651.7674148 -3324.94178607 1032.14395297 9125.07393452 -9032.03726416 -785.974890511 4406.02125576 -15714.5750695 -2672.8758599 3894.99836859 -4464.93211135 2515.16330078 15581.1779816 -4553.61519847 2556.96785376 15781.7195481 -6388.86545153 -1976.6001268 3826.31047389 -15391.2272066 -2517.59758295 4462.32895569 -2254.92363086 439.078414293 5028.61066118 -4368.05722572 -1144.32316576 2745.10112187 -4935.46237374 -635.95492922 2262.04068909 -3925.82599284 633.516155449 4611.17091905 -5248.67894342 -543.734129122 2559.42509936 -2575.82513267 1410.69381676 4717.32369639 -6931.28784482 -333.739651876 2833.04984698 -16723.2838785 -4045.34587334 2139.45952854 -2093.90206209 4078.56107083 16748.2068411 -16625.8937531 -4023.66859936 2177.66534328 -2131.55053893 4028.09646424 16646.5163855 -7131.54293344 -505.383308697 5738.15374605 -7973.34994947 -2800.0034953 6024.22697146 -6068.91313331 -1078.12072737 2622.72560319 -5493.16519009 -3159.13355173 2345.51335188</DataArray>
        <DataArray type="Float64" Name="PrincipalStrain" NumberOfComponents="3" format="ascii">-2.75515104631e-08 1.43384586725e-09 1.28616107887e-08 -2.75342460829e-08 1.39267485904e-09 1.27036188067e-08 -2.38089773563e-07 1.09758902834e-08 9.39672611993e-08 -2.38071993195e-07 1.48613922154e-08 9.26512796648e-08 -2.19286403612e-08 2.10646272711e-09 1.73266903947e-08 -1.04888090494e-07 0 7.21304546855e-08 -1.91381186973e-08 -4.99969711279e-10 2.40837710825e-08 -1.8881604319e-08 -7.03334377916e-10 2.3302069997e-08 -5.66101373203e-08 -3.35255942094e-08 6.52318900419e-08 -5.68698030139e-08 -3.29563600545e-08 6.39775973732e-08 -2.85099637195e-08 -1.10605741565e-09 2.19353167908e-07 -2.15944993988e-08 -2.96717534193e-10 2.54149548757e-08 -2.9426513544e-08 -1.80543287844e-09 5.3627261864e-08 -6.16843615567e-08 -1.85422454978e-09 1.99051716967e-08 -3.95253910848e-08 -1.78834841007e-09 3.33444171764e-08 -2.81154775092e-08 -1.78700396445e-09 4.12539635384e-08 -3.03472660984e-08 -1.29370544976e-09 5.50950771411e-08 -5.42806155217e-08 -1.30239394003e-09 3.6068093438e-08 -8.19746361275e-08 4.03200900428e-10 1.71788045443e-07 -1.97184259679e-08 -1.80678717557e-09 2.11371764003e-08 -6.45783758474e-08 -1.76305377553e-09 6.91510681923e-08 -2.79288556599e-08 -2.80465481968e-09 2.37506848334e-08 -2.36296921212e-08 7.61888682429e-09 2.13345306531e-08 -3.32172153836e-08 -3.05748737568e-09 3.84880584704e-08 -2.78475337066e-08 9.44618863721e-10 1.76860334104e-08 -1.704111201e-07 3.35468726324e-10 7.7452956259e-08 -3.77762038613e-08 -3.43532378665e-09 2.20595006538e-08 -3.16616876904e-08 -1.36128498664e-09 2.56147573818e-08 -1.36912781717e-07 1.61463127975e-08 2.63928374854e-08 -2.43031124114e-08 -9.1794655186e-10 8.87728372034e-08 -9.26138952758e-08 -1.89150044361e-09 2.42238672139e-08 -4.99271025567e-08 -2.44802685373e-09 1.51118093198e-07 -4.23556061499e-08 -1.44718192394e-09 5.64967898745e-08 -4.5193242535e-08 -1.49873938298e-09 4.76309871729e-08 -4.65417568386e-08 9.29327436566e-09 5.13799978389e-08 -4.60291247498e-08 -3.11126257711e-09 5.75601405936e-08 -1.53391357233e-08 -5.95947187912e-09 2.61103570358e-08 -1.84142424071e-08 0 3.97022889391e-07 -1.62881018992e-08 -1.81628409189e-09 4.79813494364e-08 -4.05509273899e-08 -1.8138169863e-09 4.39671669657e-08 -5.90289183618e-08 -3.16446068457e-08 2.79588795791e-07 -3.46308831988e-08 -3.16182118742e-08 1.72926616437e-07 -2.07242056589e-07 8.1364314597e-09 1.13461233273e-07 -2.25803770697e-08 2.73588517763e-09 2.32777016991e-08 -1.0969012277e-07 2.02576298712e-08 9.21949347201e-08 -1.26143662077e-07 2.13531813305e-08 9.85553209714e-08 -2.16617658111e-08 2.2675080757e-09 2.37372312097e-08 -2.30684957099e-08 2.31284847992e-09 2.57379882613e-08 -7.5366625137e-08 1.23595423659e-08 2.63053530903e-07 -1.8792164668e-08 -2.15459689793e-09 2.50887325718e-08 -9.90192308196e-08 1.43874821011e-08 5.80349254741e-08 -9.10536468492e-08 -2.00199724478e-08 1.17300922773e-07 -7.30821530464e-08 -1.19241611916e-08 2.55918460014e-07 -9.84914848693e-08 1.4081162264e-08 5.89506847965e-08 -2.72515443549e-07 1.78546107236e-08 6.91955147259e-08 -2.72413374923e-07 1.83946217412e-08 6.89218927084e-08 -9.13134460096e-08 -1.98703255206e-08 1.17968576407e-07 -7.27318235187e-08 -1.19976893847e-08 2.55728121593e-07 -1.3106526126e-08 -6.75694826022e-09 8.81364580904e-08 -1.63432123485e-07 1.28764490309e-08 3.84274811778e-08 -2.51104449978e-08 -1.17348782465e-08 1.4028117561e-07 -4.91828958333e-08 7.92489553148e-09 3.10730268722e-08 -4.31872552908e-08 -7.12333742505e-09 1.63378747145e-07 -5.35661034525e-08 4.29039502951e-09 4.98933070163e-08 -2.94080681828e-08 -1.11283521478e-08 5.86341355143e-08 -2.20662337784e-08 -1.09583148996e-08 2.95274835304e-08 -2.90027521889e-08 -2.50900156429e-08 4.97604767813e-08 -3.38365930513e-08 -1.37936724002e-08 1.42629455068e-07 -1.64144458557e-07 2.12908115247e-09 4.42240743981e-08 -1.24943964273e-07 3.85405694137e-09 2.45242359217e-08 -1.3934383338e-07 1.25673795633e-08 2.72538863752e-08 -3.23824130617e-08 7.08402605115e-09 2.35345720678e-08 -4.45768147437e-08 -5.984126598e-09 1.65115998243e-07 -4.32133038671e-08 1.22851117821e-08 2.50209760878e-08 -4.62349136437e-08 2.98797002864e-09 3.04269759696e-08 -4.27144646525e-08 3.8129304941e-09 3.37562809921e-08 -9.15745547583e-08 1.22430281038e-09 1.71611353622e-08 -1.70178559564e-08 -2.22970575361e-09 8.87094940191e-08 -9.14196037572e-08 2.34712494349e-09 1.51926192951e-08 -6.09475533852e-08 -1.66255996277e-09 1.20641386384e-08 -1.71270318571e-08 3.29278395238e-09 5.37561200696e-08 -1.69182345796e-08 -5.18094981947e-10 5.35858039325e-08 -3.80685364221e-08 -1.38416196826e-09 4.15416547047e-08 -3.64347047358e-08 3.0031665327e-09 3.3986773677e-08 -2.96195818684e-08 -2.38427500307e-09 4.59403396078e-08 -6.10567049715e-08 -6.37468985619e-09 1.34412582944e-08 -3.73726373901e-08 1.12622872043e-09 2.66543508114e-08 -3.04231602667e-08 1.3752585733e-09 2.39901291562e-08 -1.94895151655e-08 -1.99891772711e-09 3.21734085137e-08 -2.16232013639e-08 -1.89982229935e-09 3.93767163909e-08 -1.40387997182e-08 -4.08389072921e-09 1.5576412913e-08 -2.61123610352e-08 -2.42869567742e-09 1.13703953593e-08 -1.33805446527e-08 -4.35025598948e-09 1.54833066069e-08 -2.61572667105e-08 -2.13159826309e-09 1.10373556452e-08 -2.36597736598e-07 2.35223468131e-08 8.47560572753e-08 -5.89968223819e-08 -2.4600845665e-08 6.98299600228e-08 -2.3629874711e-07 2.42524479674e-08 8.3681293844e-08 -6.03461740253e-08 -2.31041838319e-08 6.84932338215e-08 -2.26526967651e-08 -4.7243650911e-10 4.07401326765e-08 -1.78342015043e-08 -2.09379643523e-09 1.93772887066e-08 -2.42630065733e-08 -4.65877726502e-12 4.03543703669e-08 -1.79853130278e-08 -2.27282826115e-09 2.03122573318e-08 -5.54749668326e-08 -1.27925562472e-08 2.72768918291e-07 -5.93656702816e-08 -3.23647375241e-08 7.74237870761e-08 -5.53504718957e-08 -1.27732533647e-08 2.73062285108e-07 -5.85840101573e-08 -3.29381181828e-08 7.5328604266e-08 -2.70939543548e-07 4.8174582662e-09 1.05920318422e-07 -1.22880748993e-07 -1.26092961308e-09 1.15503663595e-07 -1.2136126208e-07 -1.43850459602e-09 2.54846311696e-07 -9.40735963782e-08 -1.40330435608e-09 6.98681646232e-08 -2.70855090426e-07 3.79908593932e-09 1.09500254884e-07 -1.24307183373e-07 -5.25762649567e-10 2.54848459823e-07 -1.04383372422e-07 4.07467603422e-10 4.93236169382e-08 -4.88537820714e-08 4.05885846177e-10 1.01064687798e-07 -8.85601715068e-08 5.59238958203e-11 1.34013533074e-07 -1.38379067697e-07 -4.22718030894e-10 9.75543465498e-08 -8.86884910641e-08 1.19802373897e-10 1.34064517328e-07 -1.3838232379e-07 -3.71559953143e-10 9.76742968902e-08 -1.39314738374e-07 -3.05103373921e-09 1.14106618313e-07 -1.0881385537e-07 -3.07139149925e-09 1.36506868958e-07 -1.31071168006e-07 -4.35204306467e-09 1.21672519323e-07 -1.13548191288e-07 -4.63946334512e-09 1.27269158877e-07 -4.1295683683e-08 2.78173282435e-09 1.79556139018e-08 -1.80675326853e-08 2.87406558287e-09 4.01978806968e-08 -1.7775736179e-08 2.91567249366e-09 3.99005470352e-08 -1.53952800299e-07 -1.78421110049e-08 2.83687521167e-07 -2.89305072455e-07 2.10236233624e-08 1.54704183368e-07 -4.13269064493e-08 2.82782876473e-09 1.8024805019e-08 -1.53741660827e-07 -1.79095278796e-08 2.83658995227e-07 -2.89312785435e-07 2.10046837916e-08 1.54677811042e-07 -1.63474314578e-08 -6.83338198513e-09 2.58635609764e-08 -1.84142424071e-08 0 3.97022889391e-07 -2.99167128852e-08 1.04628658222e-08 2.19339937487e-07 -1.39932717499e-08 -2.3361880566e-09 2.15511438743e-08 -2.51607797189e-07 3.21982395166e-08 8.76136430274e-08 -2.03801855201e-08 2.20194548768e-09 1.75136029597e-08 -1.04888090494e-07 0 7.21304546855e-08 -1.94867341976e-08 -6.99616193818e-10 1.96600368934e-08 -1.99848344789e-08 3.63185531001e-10 1.95075857848e-08 -1.06712063162e-07 0 8.72353962392e-08 -1.14037780853e-07 1.41126857486e-08 5.32152190208e-08 -5.2399246556e-08 -1.37901754484e-08 1.14448977357e-07 -1.13929468198e-07 1.26255909187e-08 5.11170213524e-08 -5.25572089104e-08 -1.30829735489e-08 1.14195679235e-07 -4.3903938956e-07 0 5.45360492888e-08 -2.33440563967e-08 2.88870703773e-09 1.63179723781e-08 -2.85099637195e-08 -1.10605741565e-09 2.19353167908e-07 -1.3180558012e-08 -3.19049878472e-09 2.31719000554e-08 -2.43585996301e-07 3.47234876801e-08 8.27859199764e-08 -2.21392394757e-08 2.78062685382e-09 1.83585880916e-08 -1.60706236028e-08 1.7108352276e-09 1.32820716318e-08 -2.29292690368e-08 3.28281436998e-09 1.45324263805e-08 -4.3903938956e-07 0 5.45360492888e-08 -1.06712063162e-07 0 8.72353962392e-08 -1.55325405632e-08 1.85993166027e-09 1.22647775971e-08 -2.16771982297e-08 2.47395782944e-09 1.41419796165e-08 -4.3903938956e-07 0 5.45360492888e-08 -1.04888090494e-07 0 7.21304546855e-08 -1.47275569856e-08 -4.03751136719e-09 2.48229219317e-08 -1.21746040583e-08 -2.09493849666e-09 1.40579824834e-08 -1.84142424071e-08 0 3.97022889391e-07 -1.04888090494e-07 0 7.21304546855e-08 -1.28908703925e-08 -2.84831126593e-09 2.3110167285e-08 -1.84142424071e-08 0 3.97022889391e-07 -1.06712063162e-07 0 8.72353962392e-08 -1.30453404466e-08 -1.67579702325e-09 1.45335072346e-08 -5.77896454993e-08 -4.73069331455e-10 3.23813887018e-08 -3.23506774361e-08 -4.8371988413e-10 5.88835774771e-08 -5.93735286986e-08 1.08069432701e-10 3.25415240444e-08 -2.79417123618e-07 2.50511896216e-08 1.73946533774e-07 -1.73939171648e-07 -2.45222639235e-08 2.80157129612e-07 -1.73895945744e-07 -2.43293814921e-08 2.80113063188e-07 -3.20446976254e-08 1.05646110946e-10 5.85067418395e-08 -2.79486283812e-07 2.42408294061e-08 1.73608068307e-07 -2.13011448759e-07 2.78447439126e-08 3.12292310902e-07 -3.47795862677e-07 3.51004346567e-08 1.4406164652e-07 -2.14315313424e-07 2.52636405258e-08 3.08973998478e-07 -3.55545708382e-07 3.23215158726e-08 1.51532615946e-07 -2.74860238513e-08 6.21818579169e-09 1.76733849257e-08 -1.67935769191e-08 -6.77429592074e-09 2.78802291057e-08 -1.70848661593e-08 -6.52171316511e-09 2.76637234634e-08 -2.76143182376e-08 6.00894673357e-09 1.87941296574e-08 -2.43971436377e-07 3.2375029062e-09 1.13553587342e-07 -2.44017928876e-07 3.35378014669e-09 1.13558914848e-07 -1.13146424056e-07 -2.6040513227e-09 2.43842916812e-07 -1.13102915525e-07 -2.52030617534e-09 2.43768070984e-07 -5.65259422208e-08 2.90089240258e-09 3.97315237632e-08 -5.48659206739e-08 3.78839434402e-09 3.78163271984e-08 -3.21803983127e-08 -8.05166310511e-09 5.82556846162e-08 -2.92902723685e-08 -1.04389899118e-08 5.69531910086e-08 -2.11763216235e-07 -2.9152613042e-08 1.71878865243e-07 -5.18175040853e-08 -5.46765614099e-09 7.93791331628e-08 -2.02480581187e-07 -2.79415722681e-08 3.19441194694e-07 -2.31426781885e-07 3.56263692173e-08 1.45306876428e-07 -3.12626251278e-07 3.64307781159e-08 1.81800180414e-07 -1.44055401204e-07 -3.45370837047e-08 2.31726908049e-07 -1.2795177582e-07 -2.89799182182e-08 2.48923087248e-07 -2.32045411784e-07 3.59474884564e-08 1.45380120228e-07 -3.13033274764e-07 3.62240754337e-08 1.82133627705e-07 -2.11209572358e-07 -2.9710400369e-08 1.73097305711e-07 -1.26910541869e-07 -2.82566125327e-08 2.47056687934e-07 -8.4480893953e-08 -6.7108751453e-09 1.33878228251e-07 -2.022026621e-07 -2.79058426807e-08 3.18916601078e-07 -1.44566812982e-07 -3.45922401402e-08 2.32270595332e-07 -9.1030102176e-08 -1.01127955937e-08 1.40184475492e-07 -1.44543588196e-07 8.59757017158e-09 1.05020355745e-07 -2.29731597458e-07 1.24713878624e-08 1.34446194963e-07 -1.41340492801e-07 -1.17101494328e-08 2.30944408925e-07 -1.43646020272e-07 -1.15923350162e-08 2.3401019645e-07 -9.91968365094e-08 -1.7254766193e-08 9.05135735341e-08 -2.28209237406e-07 1.08724556044e-08 1.40499662751e-07 -5.56461479072e-08 -5.61468135432e-09 7.9619488945e-08 -6.92612944651e-08 -9.39194763723e-09 6.28402177045e-08 -7.74755443101e-08 2.37245108825e-09 5.61923697139e-08 -7.85604587884e-08 6.11303825121e-09 7.99837695753e-08 -8.36198033499e-08 3.75774320138e-09 6.13878431589e-08 -6.30604340944e-08 1.09749178235e-08 7.23837584451e-08 -1.09729727191e-07 1.27961678211e-08 7.16079727999e-08 -2.30735971073e-07 4.71144902368e-09 1.19572120773e-07 -1.19170463367e-07 -4.53900518381e-09 2.30754416264e-07 -2.29601325376e-07 4.43999890843e-09 1.19607629272e-07 -1.19056205627e-07 -4.66276128199e-09 2.29679322971e-07 -1.24305343781e-07 -1.24809360686e-09 1.14703308838e-07 -1.2772309989e-07 -3.16466657414e-08 1.3223190007e-07 -9.33184942294e-08 -6.32349547666e-10 6.80976537342e-08 -7.49868447163e-08 -3.16405428609e-08 7.05886139203e-08</DataArray>
        <DataArray type="Float64" Name="ShellTopVonMises" format="ascii">0 0 0 0 0 0 0 0 0 0 0 0 0 0 0 0 0 0 0 0 0 0 0 0 0 0 0 0 0 0 0 0 0 0 0 0 0 0 0 0 0 0 0 0 0 0 0 0 0 0 0 0 0 0 0 0 0 0 0 0 0 0 0 0 0 0 0 0 0 0 0 0 0 0 0 0 0 0 0 0 0 0 0 0 0 0 0 0 0 0 0 0 0 0 0 0 0 0 0 0 0 0 0 0 0 0 0 0 0 0 0 0 0 0 0 0 0 0 0 0 0 0 0 0 0 0 0 0 0 0 0 0 0 0 0 0 0 0 0 0 0 0 0 0 0 0 0 0 0 0 0 0 0 0 0 0 0 0 0 0 0 0 0 0 0 0 0 0 0 0 0 0 0 0 0 0 0 0 0 0 0 0 0 0 0 0 0 0 0 0 0 0 0 0 0 0 0 0 0 0 0 0 0 0 0 0 0 0 0 0 0 0 0 0 0 0 0 0 0 0 0 0 0 0 0 0</DataArray>
        <DataArray type="Float64" Name="ShellBottomVonMises" format="ascii">0 0 0 0 0 0 0 0 0 0 0 0 0 0 0 0 0 0 0 0 0 0 0 0 0 0 0 0 0 0 0 0 0 0 0 0 0 0 0 0 0 0 0 0 0 0 0 0 0 0 0 0 0 0 0 0 0 0 0 0 0 0 0 0 0 0 0 0 0 0 0 0 0 0 0 0 0 0 0 0 0 0 0 0 0 0 0 0 0 0 0 0 0 0 0 0 0 0 0 0 0 0 0 0 0 0 0 0 0 0 0 0 0 0 0 0 0 0 0 0 0 0 0 0 0 0 0 0 0 0 0 0 0 0 0 0 0 0 0 0 0 0 0 0 0 0 0 0 0 0 0 0 0 0 0 0 0 0 0 0 0 0 0 0 0 0 0 0 0 0 0 0 0 0 0 0 0 0 0 0 0 0 0 0 0 0 0 0 0 0 0 0 0 0 0 0 0 0 0 0 0 0 0 0 0 0 0 0 0 0 0 0 0 0 0 0 0 0 0 0 0 0 0 0 0 0</DataArray>
      </CellData>
    </Piece>
  </UnstructuredGrid>
</VTKFile>
