$MeshFormat
4.1 0 8
$EndMeshFormat
$PhysicalNames
5
2 2 "x_min"
2 3 "x_max"
2 4 "y_min"
2 5 "z_min"
3 1 "domain"
$EndPhysicalNames
$Entities
8 12 6 1
1 0 0 1 0 
2 0 0 0 0 
3 0 1 1 0 
4 0 1 0 0 
5 8 0 1 0 
6 8 0 0 0 
7 8 1 1 0 
8 8 1 0 0 
1 -1e-07 -1e-07 -9.999999994736442e-08 1e-07 1e-07 1.0000001 0 2 2 -1 
2 -1e-07 -9.999999994736442e-08 0.9999999000000001 1e-07 1.0000001 1.0000001 0 2 1 -3 
3 -1e-07 0.9999999000000001 -9.999999994736442e-08 1e-07 1.0000001 1.0000001 0 2 4 -3 
4 -1e-07 -9.999999994736442e-08 -1e-07 1e-07 1.0000001 1e-07 0 2 2 -4 
5 7.9999999 -1e-07 -9.999999994736442e-08 8.000000099999999 1e-07 1.0000001 0 2 6 -5 
6 7.9999999 -9.999999994736442e-08 0.9999999000000001 8.000000099999999 1.0000001 1.0000001 0 2 5 -7 
7 7.9999999 0.9999999000000001 -9.999999994736442e-08 8.000000099999999 1.0000001 1.0000001 0 2 8 -7 
8 7.9999999 -9.999999994736442e-08 -1e-07 8.000000099999999 1.0000001 1e-07 0 2 6 -8 
9 -9.999999983634211e-08 -1e-07 -1e-07 8.000000099999999 1e-07 1e-07 0 2 2 -6 
10 -9.999999983634211e-08 -1e-07 0.9999999000000001 8.000000099999999 1e-07 1.0000001 0 2 1 -5 
11 -9.999999983634211e-08 0.9999999000000001 -1e-07 8.000000099999999 1.0000001 1e-07 0 2 4 -8 
12 -9.999999983634211e-08 0.9999999000000001 0.9999999000000001 8.000000099999999 1.0000001 1.0000001 0 2 3 -7 
1 -1e-07 -9.999999994736442e-08 -9.999999994736442e-08 1e-07 1.0000001 1.0000001 1 2 4 -1 4 3 -2 
2 7.9999999 -9.999999994736442e-08 -9.999999994736442e-08 8.000000099999999 1.0000001 1.0000001 1 3 4 -5 8 7 -6 
3 -9.999999983634211e-08 -1e-07 -9.999999994736442e-08 8.000000099999999 1e-07 1.0000001 1 4 4 -9 1 10 -5 
4 -9.999999983634211e-08 0.9999999000000001 -9.999999994736442e-08 8.000000099999999 1.0000001 1.0000001 0 4 -11 3 12 -7 
5 -9.999999983634211e-08 -9.999999994736442e-08 -1e-07 8.000000099999999 1.0000001 1e-07 1 5 4 -4 9 8 -11 
6 -9.999999983634211e-08 -9.999999994736442e-08 0.9999999000000001 8.000000099999999 1.0000001 1.0000001 0 4 -2 10 6 -12 
1 -9.999999983634211e-08 -9.999999994736442e-08 -9.999999994736442e-08 8.000000099999999 1.0000001 1.0000001 1 1 6 -1 2 -3 4 -5 6 
$EndEntities
$Nodes
27 102 1 102
0 1 0 1
1
0 0 1
0 2 0 1
2
0 0 0
0 3 0 1
3
0 1 1
0 4 0 1
4
0 1 0
0 5 0 1
5
8 0 1
0 6 0 1
6
8 0 0
0 7 0 1
7
8 1 1
0 8 0 1
8
8 1 0
1 1 0 1
9
0 0 0.5
1 2 0 1
10
0 0.5 1
1 3 0 1
11
0 1 0.5
1 4 0 1
12
0 0.5 0
1 5 0 1
13
8 0 0.5
1 6 0 1
14
8 0.5 1
1 7 0 1
15
8 1 0.5
1 8 0 1
16
8 0.5 0
1 9 0 9
17
18
19
20
21
22
23
24
25
0.7999999999999999 0 0
1.6 0 0
2.4 0 0
3.2 0 0
4 0 0
4.800000000000001 0 0
5.600000000000001 0 0
6.4 0 0
7.2 0 0
1 10 0 9
26
27
28
29
30
31
32
33
34
0.7999999999999999 0 1
1.6 0 1
2.4 0 1
3.2 0 1
4 0 1
4.800000000000001 0 1
5.600000000000001 0 1
6.4 0 1
7.2 0 1
1 11 0 9
35
36
37
38
39
40
41
42
43
0.7999999999999999 1 0
1.6 1 0
2.4 1 0
3.2 1 0
4 1 0
4.800000000000001 1 0
5.600000000000001 1 0
6.4 1 0
7.2 1 0
1 12 0 9
44
45
46
47
48
49
50
51
52
0.7999999999999999 1 1
1.6 1 1
2.4 1 1
3.2 1 1
4 1 1
4.800000000000001 1 1
5.600000000000001 1 1
6.4 1 1
7.2 1 1
2 1 0 4
53
54
55
56
0 0.75 0.75
0 0.625 0.3749999999999999
0 0.28125 0.2812500000000001
0 0.3457031249999999 0.6542968750000001
2 2 0 4
57
58
59
60
8 0.75 0.75
8 0.625 0.3749999999999999
8 0.28125 0.2812500000000001
8 0.3457031249999999 0.6542968750000001
2 3 0 10
61
62
63
64
65
66
67
68
69
70
2 0 0.5
6.000000000000001 0 0.5
4.4 0 0.5
2.8 0 0.5
3.6 0 0.5
1.2 0 0.5000000000000002
5.200000000000001 0 0.5
6.799999999999998 0 0.5
7.507738095238095 0 0.5000000000000002
0.4922619047619047 0 0.5
2 4 0 10
71
72
73
74
75
76
77
78
79
80
2 1 0.5
4.4 1 0.5
6.000000000000001 1 0.5
2.8 1 0.5
3.6 1 0.5
1.2 1 0.5000000000000002
5.200000000000001 1 0.5
6.799999999999998 1 0.5
7.507738095238095 1 0.5000000000000002
0.4922619047619047 1 0.5
2 5 0 10
81
82
83
84
85
86
87
88
89
90
4.4 0.5 0
5.200000000000001 0.5 0
6.799999999999998 0.5 0
2 0.5 0
2.8 0.5 0
3.6 0.5 0
1.2 0.5000000000000002 0
6.000000000000001 0.5 0
0.4922619047619047 0.5 0
7.507738095238095 0.5 0
2 6 0 10
91
92
93
94
95
96
97
98
99
100
4.4 0.5 1
5.200000000000001 0.5 1
6.799999999999998 0.5 1
2 0.4999999999999999 1
2.8 0.5 1
3.6 0.5 1
1.2 0.4999999999999999 1
6.000000000000001 0.5 1
0.4922619047619047 0.5 1
7.507738095238095 0.5 1
3 1 0 2
101
102
1.877649344909453 0.5408280246443219 0.5000000000000001
2.849298021914151 0.5 0.5
$EndNodes
$Elements
5 338 1 338
2 1 2 14
1 9 1 56 
2 1 10 56 
3 2 9 55 
4 12 2 55 
5 10 3 53 
6 3 11 53 
7 11 4 54 
8 4 12 54 
9 55 9 56 
10 10 53 56 
11 53 11 54 
12 54 12 55 
13 53 54 56 
14 54 55 56 
2 2 2 14
15 13 60 5 
16 5 60 14 
17 6 59 13 
18 16 59 6 
19 14 57 7 
20 7 57 15 
21 15 58 8 
22 8 58 16 
23 59 60 13 
24 14 60 57 
25 57 58 15 
26 58 59 16 
27 57 60 58 
28 58 60 59 
2 3 2 42
29 1 9 70 
30 26 1 70 
31 9 2 70 
32 2 17 70 
33 13 5 69 
34 5 34 69 
35 6 13 69 
36 25 6 69 
37 17 18 66 
38 17 66 70 
39 18 19 61 
40 18 61 66 
41 19 20 64 
42 61 19 64 
43 20 21 65 
44 64 20 65 
45 21 22 63 
46 21 63 65 
47 22 23 67 
48 63 22 67 
49 23 24 62 
50 23 62 67 
51 24 25 68 
52 62 24 68 
53 68 25 69 
54 27 26 66 
55 66 26 70 
56 28 27 61 
57 61 27 66 
58 29 28 64 
59 28 61 64 
60 30 29 65 
61 29 64 65 
62 31 30 63 
63 63 30 65 
64 32 31 67 
65 31 63 67 
66 33 32 62 
67 62 32 67 
68 34 33 68 
69 33 62 68 
70 34 68 69 
2 5 2 42
71 2 12 89 
72 17 2 89 
73 12 4 89 
74 4 35 89 
75 16 6 90 
76 6 25 90 
77 8 16 90 
78 43 8 90 
79 18 17 87 
80 87 17 89 
81 19 18 84 
82 84 18 87 
83 20 19 85 
84 19 84 85 
85 21 20 86 
86 20 85 86 
87 22 21 81 
88 81 21 86 
89 23 22 82 
90 22 81 82 
91 24 23 88 
92 23 82 88 
93 25 24 83 
94 83 24 88 
95 25 83 90 
96 35 36 87 
97 35 87 89 
98 36 37 84 
99 36 84 87 
100 37 38 85 
101 84 37 85 
102 38 39 86 
103 85 38 86 
104 39 40 81 
105 39 81 86 
106 40 41 82 
107 81 40 82 
108 41 42 88 
109 82 41 88 
110 42 43 83 
111 42 83 88 
112 83 43 90 
3 1 4 226
113 83 79 100 90 
114 100 69 83 90 
115 99 89 87 70 
116 89 99 87 80 
117 60 69 58 59 
118 54 55 70 56 
119 78 79 100 83 
120 100 69 68 83 
121 80 87 76 99 
122 87 66 99 70 
123 70 99 54 56 
124 60 69 100 58 
125 98 93 68 78 
126 68 88 78 83 
127 73 68 78 98 
128 73 68 88 78 
129 62 73 68 88 
130 73 62 68 98 
131 96 65 75 91 
132 92 82 72 77 
133 81 72 63 67 
134 72 92 63 67 
135 82 92 72 67 
136 72 63 75 81 
137 63 75 65 91 
138 65 86 75 81 
139 63 72 75 91 
140 63 75 81 65 
141 82 72 81 67 
142 98 62 92 73 
143 88 62 73 82 
144 92 63 91 72 
145 73 62 92 77 
146 77 73 62 82 
147 82 62 92 67 
148 62 92 77 82 
149 60 100 57 58 
150 99 53 54 56 
151 78 100 68 83 
152 68 93 100 78 
153 99 66 76 97 
154 87 66 76 99 
155 54 55 89 70 
156 90 58 69 59 
157 99 54 89 70 
158 89 80 54 99 
159 58 69 100 90 
160 100 79 58 90 
161 53 54 80 99 
162 57 100 79 58 
163 66 61 97 27 
164 18 66 61 87 
165 61 94 97 27 
166 76 71 45 97 
167 71 87 36 84 
168 61 18 87 84 
169 87 71 36 76 
170 94 45 71 97 
171 50 98 92 73 
172 65 21 86 81 
173 63 31 92 91 
174 63 65 30 91 
175 96 30 65 91 
176 81 63 22 67 
177 72 75 39 81 
178 40 77 72 82 
179 21 65 63 81 
180 49 92 91 72 
181 86 39 75 81 
182 22 82 81 67 
183 81 40 72 82 
184 63 92 31 67 
185 75 48 96 91 
186 72 49 92 77 
187 75 48 91 72 
188 32 92 62 67 
189 82 88 62 23 
190 92 32 62 98 
191 88 73 41 82 
192 88 42 78 83 
193 68 33 93 98 
194 93 98 51 78 
195 73 92 50 77 
196 73 77 41 82 
197 62 82 23 67 
198 83 68 88 24 
199 33 68 62 98 
200 78 98 51 73 
201 78 73 42 88 
202 88 68 62 24 
203 100 52 79 78 
204 83 43 79 90 
205 34 69 68 100 
206 69 83 90 25 
207 17 87 89 70 
208 44 80 76 99 
209 35 89 87 80 
210 99 66 26 70 
211 93 34 68 100 
212 83 69 68 25 
213 52 100 93 78 
214 79 78 43 83 
215 76 44 99 97 
216 87 17 66 70 
217 66 99 26 97 
218 76 35 87 80 
219 71 87 84 101 
220 87 71 76 101 
221 71 94 97 101 
222 76 71 97 101 
223 87 61 84 101 
224 94 61 97 101 
225 65 96 75 102 
226 86 65 75 102 
227 71 46 94 102 
228 19 84 61 102 
229 94 28 61 102 
230 37 71 84 102 
231 61 101 94 102 
232 84 101 61 102 
233 71 94 101 102 
234 71 101 84 102 
235 71 37 74 102 
236 71 74 46 102 
237 61 28 64 102 
238 94 95 28 102 
239 37 84 85 102 
240 19 61 64 102 
241 46 95 94 102 
242 85 84 19 102 
243 60 100 14 57 
244 10 53 99 56 
245 53 80 3 99 
246 79 7 100 57 
247 89 55 2 70 
248 90 69 6 59 
249 70 55 9 56 
250 69 60 13 59 
251 57 79 15 58 
252 54 80 11 53 
253 86 75 38 102 
254 75 96 47 102 
255 86 20 65 102 
256 29 96 65 102 
257 89 12 55 54 
258 58 90 16 59 
259 70 1 99 56 
260 69 5 60 100 
261 80 4 89 54 
262 58 79 8 90 
263 8 15 79 58 
264 8 58 90 16 
265 89 4 12 54 
266 11 4 80 54 
267 69 13 6 59 
268 16 90 6 59 
269 55 2 12 89 
270 9 2 55 70 
271 100 5 60 14 
272 13 5 60 69 
273 1 10 99 56 
274 70 9 1 56 
275 14 100 7 57 
276 53 3 10 99 
277 3 11 80 53 
278 79 15 7 57 
279 74 38 75 102 
280 74 75 47 102 
281 64 65 20 102 
282 85 86 38 102 
283 95 47 96 102 
284 95 96 29 102 
285 29 65 64 102 
286 86 85 20 102 
287 44 3 80 99 
288 35 4 89 80 
289 1 99 26 70 
290 89 2 17 70 
291 90 6 69 25 
292 52 7 100 79 
293 5 69 34 100 
294 43 8 79 90 
295 85 74 37 102 
296 85 19 64 102 
297 74 95 46 102 
298 64 28 95 102 
299 78 42 43 83 
300 68 83 25 24 
301 51 52 93 78 
302 33 34 68 93 
303 18 17 66 87 
304 98 50 51 73 
305 46 45 71 94 
306 85 38 37 74 
307 84 37 36 71 
308 47 46 74 95 
309 76 45 44 97 
310 64 20 19 85 
311 18 61 19 84 
312 87 36 35 76 
313 26 66 97 27 
314 30 31 63 91 
315 61 94 27 28 
316 28 29 64 95 
317 49 91 48 72 
318 40 72 39 81 
319 86 39 38 75 
320 48 47 75 96 
321 29 30 65 96 
322 81 63 21 22 
323 86 20 21 65 
324 33 62 32 98 
325 77 40 41 82 
326 41 42 73 88 
327 92 32 31 67 
328 23 88 62 24 
329 50 92 49 77 
330 22 23 82 67 
331 85 64 20 102 
332 29 64 95 102 
333 74 85 38 102 
334 74 47 95 102 
335 87 101 66 61 
336 87 66 101 76 
337 97 66 101 61 
338 97 101 66 76 
$EndElements
