$MeshFormat
4.1 0 8
$EndMeshFormat
$PhysicalNames
5
2 2 "x_min"
2 3 "x_max"
2 4 "y_min"
2 5 "z_min"
3 1 "domain"
$EndPhysicalNames
$Entities
8 12 6 1
1 0 0 1 0 
2 0 0 0 0 
3 0 1 1 0 
4 0 1 0 0 
5 8 0 1 0 
6 8 0 0 0 
7 8 1 1 0 
8 8 1 0 0 
1 -1e-07 -1e-07 -9.999999994736442e-08 1e-07 1e-07 1.0000001 0 2 2 -1 
2 -1e-07 -9.999999994736442e-08 0.9999999000000001 1e-07 1.0000001 1.0000001 0 2 1 -3 
3 -1e-07 0.9999999000000001 -9.999999994736442e-08 1e-07 1.0000001 1.0000001 0 2 4 -3 
4 -1e-07 -9.999999994736442e-08 -1e-07 1e-07 1.0000001 1e-07 0 2 2 -4 
5 7.9999999 -1e-07 -9.999999994736442e-08 8.000000099999999 1e-07 1.0000001 0 2 6 -5 
6 7.9999999 -9.999999994736442e-08 0.9999999000000001 8.000000099999999 1.0000001 1.0000001 0 2 5 -7 
7 7.9999999 0.9999999000000001 -9.999999994736442e-08 8.000000099999999 1.0000001 1.0000001 0 2 8 -7 
8 7.9999999 -9.999999994736442e-08 -1e-07 8.000000099999999 1.0000001 1e-07 0 2 6 -8 
9 -9.999999983634211e-08 -1e-07 -1e-07 8.000000099999999 1e-07 1e-07 0 2 2 -6 
10 -9.999999983634211e-08 -1e-07 0.9999999000000001 8.000000099999999 1e-07 1.0000001 0 2 1 -5 
11 -9.999999983634211e-08 0.9999999000000001 -1e-07 8.000000099999999 1.0000001 1e-07 0 2 4 -8 
12 -9.999999983634211e-08 0.9999999000000001 0.9999999000000001 8.000000099999999 1.0000001 1.0000001 0 2 3 -7 
1 -1e-07 -9.999999994736442e-08 -9.999999994736442e-08 1e-07 1.0000001 1.0000001 1 2 4 -1 4 3 -2 
2 7.9999999 -9.999999994736442e-08 -9.999999994736442e-08 8.000000099999999 1.0000001 1.0000001 1 3 4 -5 8 7 -6 
3 -9.999999983634211e-08 -1e-07 -9.999999994736442e-08 8.000000099999999 1e-07 1.0000001 1 4 4 -9 1 10 -5 
4 -9.999999983634211e-08 0.9999999000000001 -9.999999994736442e-08 8.000000099999999 1.0000001 1.0000001 0 4 -11 3 12 -7 
5 -9.999999983634211e-08 -9.999999994736442e-08 -1e-07 8.000000099999999 1.0000001 1e-07 1 5 4 -4 9 8 -11 
6 -9.999999983634211e-08 -9.999999994736442e-08 0.9999999000000001 8.000000099999999 1.0000001 1.0000001 0 4 -2 10 6 -12 
1 -9.999999983634211e-08 -9.999999994736442e-08 -9.999999994736442e-08 8.000000099999999 1.0000001 1.0000001 1 1 6 -1 2 -3 4 -5 6 
$EndEntities
$Nodes
27 148 1 148
0 1 0 1
1
0 0 1
0 2 0 1
2
0 0 0
0 3 0 1
3
0 1 1
0 4 0 1
4
0 1 0
0 5 0 1
5
8 0 1
0 6 0 1
6
8 0 0
0 7 0 1
7
8 1 1
0 8 0 1
8
8 1 0
1 1 0 1
9
0 0 0.4999999999999988
1 2 0 1
10
0 0.4999999999999988 1
1 3 0 1
11
0 1 0.4999999999999988
1 4 0 1
12
0 0.4999999999999988 0
1 5 0 1
13
8 0 0.4999999999999988
1 6 0 1
14
8 0.4999999999999988 1
1 7 0 1
15
8 1 0.4999999999999988
1 8 0 1
16
8 0.4999999999999988 0
1 9 0 14
17
18
19
20
21
22
23
24
25
26
27
28
29
30
0.5333333333333329 0 0
1.066666666666666 0 0
1.599999999999999 0 0
2.133333333333332 0 0
2.666666666666663 0 0
3.199999999999994 0 0
3.733333333333325 0 0
4.266666666666655 0 0
4.799999999999989 0 0
5.333333333333324 0 0
5.866666666666659 0 0
6.399999999999994 0 0
6.933333333333329 0 0
7.466666666666665 0 0
1 10 0 14
31
32
33
34
35
36
37
38
39
40
41
42
43
44
0.5333333333333329 0 1
1.066666666666666 0 1
1.599999999999999 0 1
2.133333333333332 0 1
2.666666666666663 0 1
3.199999999999994 0 1
3.733333333333325 0 1
4.266666666666655 0 1
4.799999999999989 0 1
5.333333333333324 0 1
5.866666666666659 0 1
6.399999999999994 0 1
6.933333333333329 0 1
7.466666666666665 0 1
1 11 0 14
45
46
47
48
49
50
51
52
53
54
55
56
57
58
0.5333333333333329 1 0
1.066666666666666 1 0
1.599999999999999 1 0
2.133333333333332 1 0
2.666666666666663 1 0
3.199999999999994 1 0
3.733333333333325 1 0
4.266666666666655 1 0
4.799999999999989 1 0
5.333333333333324 1 0
5.866666666666659 1 0
6.399999999999994 1 0
6.933333333333329 1 0
7.466666666666665 1 0
1 12 0 14
59
60
61
62
63
64
65
66
67
68
69
70
71
72
0.5333333333333329 1 1
1.066666666666666 1 1
1.599999999999999 1 1
2.133333333333332 1 1
2.666666666666663 1 1
3.199999999999994 1 1
3.733333333333325 1 1
4.266666666666655 1 1
4.799999999999989 1 1
5.333333333333324 1 1
5.866666666666659 1 1
6.399999999999994 1 1
6.933333333333329 1 1
7.466666666666665 1 1
2 1 0 4
73
74
75
76
0 0.734056122448979 0.734056122448979
0 0.6249999999999998 0.3749999999999994
0 0.3567176870748296 0.6483843537414963
0 0.2812500000000003 0.2812500000000003
2 2 0 4
77
78
79
80
8 0.734056122448979 0.734056122448979
8 0.6249999999999998 0.3749999999999994
8 0.3567176870748296 0.6483843537414963
8 0.2812500000000003 0.2812500000000003
2 3 0 17
81
82
83
84
85
86
87
88
89
90
91
92
93
94
95
96
97
3.999999999999989 0 0.4878120416430596
2.933333333333328 0 0.4873527964796388
1.866262590918246 0 0.4997997592060622
0.7433324286717121 0 0.5163480859243994
5.067070742415075 0 0.5006998797263684
6.133539494429458 0 0.5130042850134051
7.256321220686783 0 0.5165197208906323
4.533400679291391 0 0.4980853202282379
2.399932654041927 0 0.4978587592809501
3.466666666666658 0 0.507934800152217
6.676087896963815 0 0.5049206676506729
5.600101706140749 0 0.5022840274566289
1.323821392153881 0 0.5026913075217435
0.37037063541912 0 0.3819258065305658
7.629604120365026 0 0.3819383163677542
7.688465524912163 0 0.6997797196083404
0.311481390108214 0 0.6997534132078518
2 4 0 17
98
99
100
101
102
103
104
105
106
107
108
109
110
111
112
113
114
3.466666666666658 1 0.4873527964796389
4.533333333333323 1 0.4873527964796395
2.400206161096129 1 0.4869957149865941
1.333737409081751 1 0.4993001202736324
5.599999999999991 1 0.4868935513162189
7.256321220686782 1 0.5157481890160843
3.99999999999999 1 0.5078801281089529
6.673371573891279 1 0.4948785437365038
6.134450817870762 1 0.4969620158421204
0.7598117888715218 1 0.4738987362752553
2.933357876320962 1 0.5062945546583049
5.066666666666656 1 0.506282392316593
1.866768372807423 1 0.4977159725433711
0.3813373836030082 1 0.6128717695339712
7.629604120365026 1 0.3818820822661108
7.688465524912163 1 0.6996614673260275
0.3014778067150879 1 0.2843643373274717
2 5 0 17
115
116
117
118
119
120
121
122
123
124
125
126
127
128
129
130
131
3.999999999999989 0.5126472035203615 0
2.399970589704819 0.4869081256649123 0
1.333333333333332 0.4873527964796394 0
5.066666666666657 0.51264720352036 0
7.256321220686783 0.5165197208906321 0
6.133333333333328 0.5131064486837813 0
4.533333333333323 0.4921198718910477 0
6.676053536781126 0.5049376949290689 0
1.866663165441048 0.5062841273581038 0
3.46663725637148 0.4878465871594408 0
5.599999999999991 0.4937176076834078 0
0.7597705566522953 0.5247393164546703 0
2.933227512290295 0.5063918817744568 0
0.3813352369860142 0.3870573252562164 0
7.629604120365026 0.3819383163677537 0
7.688465524912163 0.6997797196083406 0
0.3014733803032287 0.7154894532358044 0
2 6 0 17
132
133
134
135
136
137
138
139
140
141
142
143
144
145
146
147
148
3.999999999999989 0.5126472035203615 1
2.40017675080095 0.4870102893352888 1
1.333737409081751 0.5002002407939378 1
5.066666666666657 0.51264720352036 1
7.256321220686783 0.5165197208906321 1
6.133333333333328 0.5131064486837813 1
4.533333333333323 0.4921198718910477 1
6.676053536781126 0.5049376949290689 1
3.46663725637148 0.4878465871594408 1
5.599999999999991 0.4937176076834078 1
0.7597213178972517 0.4756301514295894 1
2.933252055277929 0.5064040441161684 1
1.86676347109156 0.4978684216882044 1
7.629604120365026 0.3819383163677537 1
0.3806768512894884 0.6136614535773424 1
7.688465524912163 0.6997797196083406 1
0.301401173726538 0.2846215923476457 1
3 1 0 0
$EndNodes
$Elements
5 489 1 489
2 1 2 14
1 9 1 75 
2 1 10 75 
3 2 9 76 
4 12 2 76 
5 10 3 73 
6 3 11 73 
7 11 4 74 
8 4 12 74 
9 9 75 76 
10 10 73 75 
11 73 11 74 
12 74 12 76 
13 73 74 75 
14 75 74 76 
2 2 2 14
15 13 79 5 
16 5 79 14 
17 6 80 13 
18 16 80 6 
19 14 77 7 
20 7 77 15 
21 15 78 8 
22 8 78 16 
23 13 80 79 
24 14 79 77 
25 77 78 15 
26 78 80 16 
27 77 79 78 
28 79 80 78 
2 3 2 66
29 1 9 97 
30 31 1 97 
31 9 2 94 
32 2 17 94 
33 13 5 96 
34 5 44 96 
35 6 13 95 
36 30 6 95 
37 9 94 97 
38 95 13 96 
39 17 18 84 
40 17 84 94 
41 18 19 93 
42 84 18 93 
43 19 20 83 
44 19 83 93 
45 20 21 89 
46 83 20 89 
47 21 22 82 
48 21 82 89 
49 22 23 90 
50 82 22 90 
51 23 24 81 
52 23 81 90 
53 24 25 88 
54 81 24 88 
55 25 26 85 
56 25 85 88 
57 26 27 92 
58 85 26 92 
59 27 28 86 
60 27 86 92 
61 28 29 91 
62 86 28 91 
63 29 30 87 
64 29 87 91 
65 87 30 95 
66 32 31 84 
67 84 31 97 
68 33 32 93 
69 32 84 93 
70 34 33 83 
71 83 33 93 
72 35 34 89 
73 34 83 89 
74 36 35 82 
75 82 35 89 
76 37 36 90 
77 36 82 90 
78 38 37 81 
79 81 37 90 
80 39 38 88 
81 38 81 88 
82 40 39 85 
83 85 39 88 
84 41 40 92 
85 40 85 92 
86 42 41 86 
87 86 41 92 
88 43 42 91 
89 42 86 91 
90 44 43 87 
91 87 43 91 
92 44 87 96 
93 94 84 97 
94 87 95 96 
2 5 2 66
95 2 12 128 
96 17 2 128 
97 12 4 131 
98 4 45 131 
99 16 6 129 
100 6 30 129 
101 8 16 130 
102 58 8 130 
103 128 12 131 
104 16 129 130 
105 18 17 126 
106 126 17 128 
107 19 18 117 
108 117 18 126 
109 20 19 123 
110 19 117 123 
111 21 20 116 
112 116 20 123 
113 22 21 127 
114 21 116 127 
115 23 22 124 
116 124 22 127 
117 24 23 115 
118 115 23 124 
119 25 24 121 
120 24 115 121 
121 26 25 118 
122 118 25 121 
123 27 26 125 
124 26 118 125 
125 28 27 120 
126 120 27 125 
127 29 28 122 
128 28 120 122 
129 30 29 119 
130 119 29 122 
131 30 119 129 
132 45 46 126 
133 45 126 131 
134 46 47 117 
135 46 117 126 
136 47 48 123 
137 117 47 123 
138 48 49 116 
139 48 116 123 
140 49 50 127 
141 116 49 127 
142 50 51 124 
143 50 124 127 
144 51 52 115 
145 51 115 124 
146 52 53 121 
147 115 52 121 
148 53 54 118 
149 53 118 121 
150 54 55 125 
151 118 54 125 
152 55 56 120 
153 55 120 125 
154 56 57 122 
155 120 56 122 
156 57 58 119 
157 57 119 122 
158 119 58 130 
159 129 119 130 
160 126 128 131 
3 1 4 329
161 110 83 89 144 
162 112 78 145 129 
163 129 78 145 95 
164 83 110 89 123 
165 110 134 83 144 
166 92 85 141 125 
167 106 92 141 125 
168 110 123 83 101 
169 109 141 85 125 
170 144 100 89 110 
171 134 110 83 101 
172 85 109 118 88 
173 85 135 109 88 
174 121 109 138 88 
175 106 92 125 120 
176 92 106 141 137 
177 121 138 104 88 
178 118 109 85 125 
179 135 141 85 109 
180 127 108 143 90 
181 89 82 127 143 
182 100 89 127 143 
183 106 141 102 125 
184 121 118 109 88 
185 109 135 138 88 
186 123 117 83 101 
187 138 81 104 88 
188 104 115 121 88 
189 100 144 89 133 
190 106 86 92 120 
191 86 106 92 137 
192 141 109 102 125 
193 108 100 127 143 
194 108 127 124 90 
195 108 143 90 140 
196 143 82 127 90 
197 115 104 81 88 
198 99 109 138 121 
199 143 100 89 133 
200 127 116 89 100 
201 99 138 104 121 
202 108 124 98 90 
203 90 98 108 140 
204 81 140 104 90 
205 81 138 104 132 
206 104 98 90 140 
207 90 104 81 115 
208 106 105 86 120 
209 105 86 137 106 
210 105 91 103 139 
211 101 134 142 93 
212 140 81 104 132 
213 78 79 145 95 
214 101 126 117 93 
215 145 103 112 129 
216 145 103 129 95 
217 146 74 94 75 
218 120 105 86 122 
219 139 86 137 105 
220 91 86 105 122 
221 91 86 139 105 
222 74 94 128 146 
223 111 74 128 146 
224 107 101 142 93 
225 101 107 126 93 
226 146 94 128 84 
227 146 128 111 84 
228 103 87 91 119 
229 113 147 145 78 
230 103 145 87 95 
231 129 103 87 95 
232 147 113 77 78 
233 145 136 147 113 
234 97 146 94 75 
235 107 128 84 111 
236 142 146 111 84 
237 78 145 113 112 
238 77 79 147 78 
239 119 103 87 129 
240 136 145 87 103 
241 145 103 113 112 
242 97 148 146 75 
243 128 107 84 126 
244 147 79 145 78 
245 131 114 74 111 
246 142 111 107 84 
247 97 94 146 84 
248 74 128 131 111 
249 107 114 131 111 
250 103 145 113 136 
251 146 142 148 97 
252 145 79 96 95 
253 74 76 94 75 
254 80 79 78 95 
255 107 131 128 111 
256 78 112 130 129 
257 78 129 80 95 
258 128 76 94 74 
259 146 142 97 84 
260 146 73 74 75 
261 128 126 131 107 
262 145 96 87 95 
263 111 73 74 146 
264 134 60 101 142 
265 91 122 119 29 
266 110 100 62 144 
267 86 120 122 28 
268 91 86 122 28 
269 92 120 27 125 
270 134 110 61 144 
271 144 134 83 33 
272 18 117 126 93 
273 144 100 62 133 
274 120 92 27 86 
275 141 106 69 137 
276 61 101 110 134 
277 106 141 69 102 
278 89 143 35 82 
279 143 89 35 133 
280 46 126 117 101 
281 103 139 71 105 
282 107 101 60 142 
283 119 87 91 29 
284 38 81 138 88 
285 108 64 143 140 
286 33 134 83 93 
287 100 108 63 143 
288 125 92 85 26 
289 85 141 40 92 
290 64 108 98 140 
291 63 100 143 133 
292 138 109 67 135 
293 109 138 67 99 
294 141 135 68 109 
295 140 104 65 132 
296 43 87 91 139 
297 104 140 65 98 
298 38 138 81 132 
299 109 68 141 102 
300 66 138 104 99 
301 132 138 104 66 
302 36 90 143 140 
303 105 137 70 106 
304 90 143 82 36 
305 85 118 125 26 
306 110 47 123 101 
307 85 40 141 135 
308 81 90 37 140 
309 83 19 117 123 
310 137 42 86 139 
311 105 106 56 120 
312 122 57 105 119 
313 140 37 81 132 
314 91 86 42 139 
315 117 123 47 101 
316 136 139 71 103 
317 84 18 126 93 
318 70 139 137 105 
319 32 142 134 93 
320 19 83 117 93 
321 126 46 107 101 
322 120 56 105 122 
323 123 48 110 100 
324 100 127 49 108 
325 87 43 136 139 
326 48 123 116 100 
327 116 127 49 100 
328 103 105 57 119 
329 104 98 51 115 
330 124 51 98 115 
331 142 32 84 93 
332 72 147 136 113 
333 31 148 142 97 
334 131 45 114 107 
335 95 87 129 30 
336 97 142 31 84 
337 111 59 146 142 
338 45 131 126 107 
339 113 136 72 103 
340 44 96 87 145 
341 128 94 17 84 
342 59 111 107 142 
343 87 119 129 30 
344 126 128 17 84 
345 120 86 27 28 
346 100 63 62 133 
347 38 81 37 132 
348 98 65 64 140 
349 138 66 67 99 
350 36 143 82 35 
351 68 69 141 102 
352 145 87 44 136 
353 19 83 20 123 
354 26 85 118 25 
355 62 61 110 144 
356 33 83 144 34 
357 85 39 40 135 
358 47 46 117 101 
359 60 59 107 142 
360 147 14 79 77 
361 127 50 49 108 
362 119 87 29 30 
363 17 18 126 84 
364 92 125 27 26 
365 99 52 53 121 
366 55 102 54 125 
367 53 54 109 118 
368 82 22 21 127 
369 81 23 115 24 
370 138 39 38 88 
371 124 51 50 98 
372 124 22 23 90 
373 134 33 32 93 
374 52 104 51 115 
375 42 86 41 137 
376 49 48 116 100 
377 123 48 47 110 
378 141 41 40 92 
379 89 34 35 133 
380 24 25 121 88 
381 55 56 106 120 
382 139 70 71 105 
383 137 69 70 106 
384 89 21 20 116 
385 77 113 15 78 
386 64 63 108 143 
387 61 60 101 134 
388 122 91 28 29 
389 135 67 68 109 
390 90 36 37 140 
391 91 42 43 139 
392 104 65 132 66 
393 3 73 111 146 
394 56 57 105 122 
395 117 18 19 93 
396 57 58 103 119 
397 43 44 87 136 
398 80 129 6 95 
399 76 94 2 128 
400 136 71 72 103 
401 31 142 32 84 
402 146 10 73 75 
403 80 13 79 95 
404 9 94 76 75 
405 126 46 45 107 
406 73 74 11 111 
407 8 78 112 130 
408 128 12 76 74 
409 16 78 129 80 
410 145 14 79 147 
411 5 79 96 145 
412 113 15 78 112 
413 15 8 78 112 
414 94 9 97 75 
415 96 79 13 95 
416 79 5 14 145 
417 95 129 6 30 
418 11 3 73 111 
419 73 3 10 146 
420 16 78 130 129 
421 2 12 76 128 
422 80 6 13 95 
423 6 16 129 80 
424 59 3 111 146 
425 94 17 2 128 
426 10 146 148 75 
427 94 2 9 76 
428 74 114 11 111 
429 12 128 131 74 
430 78 8 16 130 
431 97 1 148 75 
432 8 112 58 130 
433 114 4 131 74 
434 5 96 44 145 
435 9 1 97 75 
436 79 13 5 96 
437 114 11 4 74 
438 4 12 131 74 
439 7 147 113 77 
440 7 14 147 77 
441 113 15 7 77 
442 148 1 10 75 
443 7 147 72 113 
444 31 1 148 97 
445 4 131 45 114 
446 125 106 55 102 
447 125 55 106 120 
448 115 88 24 121 
449 24 88 115 81 
450 88 135 39 85 
451 88 39 135 138 
452 88 118 25 121 
453 88 25 118 85 
454 108 124 50 98 
455 108 50 124 127 
456 90 127 22 82 
457 90 22 127 124 
458 92 137 41 86 
459 41 137 92 141 
460 115 90 23 81 
461 115 23 90 124 
462 100 123 89 110 
463 100 89 123 116 
464 115 98 90 104 
465 115 90 98 124 
466 121 109 53 99 
467 121 53 109 118 
468 121 104 52 115 
469 121 52 104 99 
470 125 109 54 118 
471 125 54 109 102 
472 127 89 21 82 
473 127 21 89 116 
474 89 123 20 83 
475 20 123 89 116 
476 139 87 103 136 
477 139 103 87 91 
478 144 89 34 83 
479 144 34 89 133 
480 129 103 130 119 
481 129 130 103 112 
482 58 130 103 119 
483 58 103 130 112 
484 119 105 91 103 
485 119 91 105 122 
486 101 93 83 134 
487 83 93 101 117 
488 84 107 93 126 
489 84 93 107 142 
$EndElements
