$MeshFormat
4.1 0 8
$EndMeshFormat
$PhysicalNames
5
2 2 "x_min"
2 3 "x_max"
2 4 "y_min"
2 5 "z_min"
3 1 "domain"
$EndPhysicalNames
$Entities
8 12 6 1
1 0 0 1 0 
2 0 0 0 0 
3 0 1 1 0 
4 0 1 0 0 
5 8 0 1 0 
6 8 0 0 0 
7 8 1 1 0 
8 8 1 0 0 
1 -1e-07 -1e-07 -9.999999994736442e-08 1e-07 1e-07 1.0000001 0 2 2 -1 
2 -1e-07 -9.999999994736442e-08 0.9999999000000001 1e-07 1.0000001 1.0000001 0 2 1 -3 
3 -1e-07 0.9999999000000001 -9.999999994736442e-08 1e-07 1.0000001 1.0000001 0 2 4 -3 
4 -1e-07 -9.999999994736442e-08 -1e-07 1e-07 1.0000001 1e-07 0 2 2 -4 
5 7.9999999 -1e-07 -9.999999994736442e-08 8.000000099999999 1e-07 1.0000001 0 2 6 -5 
6 7.9999999 -9.999999994736442e-08 0.9999999000000001 8.000000099999999 1.0000001 1.0000001 0 2 5 -7 
7 7.9999999 0.9999999000000001 -9.999999994736442e-08 8.000000099999999 1.0000001 1.0000001 0 2 8 -7 
8 7.9999999 -9.999999994736442e-08 -1e-07 8.000000099999999 1.0000001 1e-07 0 2 6 -8 
9 -9.999999983634211e-08 -1e-07 -1e-07 8.000000099999999 1e-07 1e-07 0 2 2 -6 
10 -9.999999983634211e-08 -1e-07 0.9999999000000001 8.000000099999999 1e-07 1.0000001 0 2 1 -5 
11 -9.999999983634211e-08 0.9999999000000001 -1e-07 8.000000099999999 1.0000001 1e-07 0 2 4 -8 
12 -9.999999983634211e-08 0.9999999000000001 0.9999999000000001 8.000000099999999 1.0000001 1.0000001 0 2 3 -7 
1 -1e-07 -9.999999994736442e-08 -9.999999994736442e-08 1e-07 1.0000001 1.0000001 1 2 4 -1 4 3 -2 
2 7.9999999 -9.999999994736442e-08 -9.999999994736442e-08 8.000000099999999 1.0000001 1.0000001 1 3 4 -5 8 7 -6 
3 -9.999999983634211e-08 -1e-07 -9.999999994736442e-08 8.000000099999999 1e-07 1.0000001 1 4 4 -9 1 10 -5 
4 -9.999999983634211e-08 0.9999999000000001 -9.999999994736442e-08 8.000000099999999 1.0000001 1.0000001 0 4 -11 3 12 -7 
5 -9.999999983634211e-08 -9.999999994736442e-08 -1e-07 8.000000099999999 1.0000001 1e-07 1 5 4 -4 9 8 -11 
6 -9.999999983634211e-08 -9.999999994736442e-08 0.9999999000000001 8.000000099999999 1.0000001 1.0000001 0 4 -2 10 6 -12 
1 -9.999999983634211e-08 -9.999999994736442e-08 -9.999999994736442e-08 8.000000099999999 1.0000001 1.0000001 1 1 6 -1 2 -3 4 -5 6 
$EndEntities
$Nodes
27 429 1 429
0 1 0 1
1
0 0 1
0 2 0 1
2
0 0 0
0 3 0 1
3
0 1 1
0 4 0 1
4
0 1 0
0 5 0 1
5
8 0 1
0 6 0 1
6
8 0 0
0 7 0 1
7
8 1 1
0 8 0 1
8
8 1 0
1 1 0 2
9
10
0 0 0.333333333333333
0 0 0.6666666666666665
1 2 0 2
11
12
0 0.333333333333333 1
0 0.6666666666666665 1
1 3 0 2
13
14
0 1 0.333333333333333
0 1 0.6666666666666665
1 4 0 2
15
16
0 0.333333333333333 0
0 0.6666666666666665 0
1 5 0 2
17
18
8 0 0.333333333333333
8 0 0.6666666666666665
1 6 0 2
19
20
8 0.333333333333333 1
8 0.6666666666666665 1
1 7 0 2
21
22
8 1 0.333333333333333
8 1 0.6666666666666665
1 8 0 2
23
24
8 0.333333333333333 0
8 0.6666666666666665 0
1 9 0 22
25
26
27
28
29
30
31
32
33
34
35
36
37
38
39
40
41
42
43
44
45
46
0.3478260869565211 0 0
0.6956521739130421 0 0
1.043478260869563 0 0
1.391304347826084 0 0
1.739130434782606 0 0
2.086956521739128 0 0
2.43478260869565 0 0
2.782608695652172 0 0
3.130434782608694 0 0
3.478260869565215 0 0
3.826086956521737 0 0
4.17391304347826 0 0
4.521739130434781 0 0
4.869565217391303 0 0
5.217391304347824 0 0
5.565217391304347 0 0
5.913043478260868 0 0
6.260869565217392 0 0
6.608695652173913 0 0
6.956521739130435 0 0
7.304347826086957 0 0
7.652173913043478 0 0
1 10 0 22
47
48
49
50
51
52
53
54
55
56
57
58
59
60
61
62
63
64
65
66
67
68
0.3478260869565211 0 1
0.6956521739130421 0 1
1.043478260869563 0 1
1.391304347826084 0 1
1.739130434782606 0 1
2.086956521739128 0 1
2.43478260869565 0 1
2.782608695652172 0 1
3.130434782608694 0 1
3.478260869565215 0 1
3.826086956521737 0 1
4.17391304347826 0 1
4.521739130434781 0 1
4.869565217391303 0 1
5.217391304347824 0 1
5.565217391304347 0 1
5.913043478260868 0 1
6.260869565217392 0 1
6.608695652173913 0 1
6.956521739130435 0 1
7.304347826086957 0 1
7.652173913043478 0 1
1 11 0 22
69
70
71
72
73
74
75
76
77
78
79
80
81
82
83
84
85
86
87
88
89
90
0.3478260869565211 1 0
0.6956521739130421 1 0
1.043478260869563 1 0
1.391304347826084 1 0
1.739130434782606 1 0
2.086956521739128 1 0
2.43478260869565 1 0
2.782608695652172 1 0
3.130434782608694 1 0
3.478260869565215 1 0
3.826086956521737 1 0
4.17391304347826 1 0
4.521739130434781 1 0
4.869565217391303 1 0
5.217391304347824 1 0
5.565217391304347 1 0
5.913043478260868 1 0
6.260869565217392 1 0
6.608695652173913 1 0
6.956521739130435 1 0
7.304347826086957 1 0
7.652173913043478 1 0
1 12 0 22
91
92
93
94
95
96
97
98
99
100
101
102
103
104
105
106
107
108
109
110
111
112
0.3478260869565211 1 1
0.6956521739130421 1 1
1.043478260869563 1 1
1.391304347826084 1 1
1.739130434782606 1 1
2.086956521739128 1 1
2.43478260869565 1 1
2.782608695652172 1 1
3.130434782608694 1 1
3.478260869565215 1 1
3.826086956521737 1 1
4.17391304347826 1 1
4.521739130434781 1 1
4.869565217391303 1 1
5.217391304347824 1 1
5.565217391304347 1 1
5.913043478260868 1 1
6.260869565217392 1 1
6.608695652173913 1 1
6.956521739130435 1 1
7.304347826086957 1 1
7.652173913043478 1 1
2 1 0 8
113
114
115
116
117
118
119
120
0 0.4999999999999998 0.295191706296517
0 0.4999999999999998 0.7050506247151783
0 0.7525600817161047 0.5000403885019491
0 0.2474399182838951 0.5000403885019491
0 0.2423197548516854 0.2423197548516854
0 0.2423197548516856 0.7576802451483143
0 0.7576802451483144 0.7576802451483144
0 0.7576802451483147 0.2423197548516856
2 2 0 8
121
122
123
124
125
126
127
128
8 0.295191706296517 0.4999999999999999
8 0.7050506247151784 0.4999999999999998
8 0.5000403885019491 0.7525600817161049
8 0.5000403885019491 0.2474399182838951
8 0.2423197548516856 0.2423197548516857
8 0.2423197548516853 0.7576802451483147
8 0.7576802451483142 0.2423197548516856
8 0.7576802451483146 0.7576802451483146
2 3 0 68
129
130
131
132
133
134
135
136
137
138
139
140
141
142
143
144
145
146
147
148
149
150
151
152
153
154
155
156
157
158
159
160
161
162
163
164
165
166
167
168
169
170
171
172
173
174
175
176
177
178
179
180
181
182
183
184
185
186
187
188
189
190
191
192
193
194
195
196
7.675433567148854 0 0.4999999999999989
0.3245664328511434 0 0.4999999999999998
0.8695652173913027 0 0.3012262274032823
1.575295383836024 0 0.3050143042436357
6.080957716660749 0 0.2805048225114082
5.397303152904465 0 0.2805048225114082
7.134540805830387 0 0.2795466800336114
2.614694457252291 0 0.2805048225114093
3.298349021008574 0 0.2805048225114095
4.358109752805172 0 0.3003324756516193
5.73913043478261 0 0.6987737725967171
1.217391304347824 0 0.6987737725967178
4.707409831866667 0 0.7055620595812823
1.924801136214493 0 0.7055620595812822
2.956521739130433 0 0.6987737725967171
3.652173913043477 0 0.7161743333964936
6.434782608695647 0 0.7161743333964921
7.13043478260869 0 0.6987737725967171
5.391304347826091 0 0.6987737725967105
5.045437870528501 0 0.7173057145605863
4.869565217391301 0 0.3975475451934328
5.739130434782609 0 0.2802782920804154
2.608695652173912 0 0.6987737725967159
2.262829174876327 0 0.717305714560587
2.086956521739128 0 0.3975475451934336
3.999999999999999 0 0.7190744268631231
3.826086956521738 0 0.404141180839353
1.217828535038668 0 0.2925008337837497
6.782608695652169 0 0.7190744268631213
6.60869565217391 0 0.4041411808393514
2.956521739130433 0 0.2802782920804188
0.8695652173913031 0 0.6987737725967174
1.578414762476782 0 0.6639467719317801
3.304347826086954 0 0.7085030685673641
4.361052840031381 0 0.6664567341698495
6.086956521739125 0 0.7085030685673652
7.466601482673078 0 0.7335091043862977
7.470428595152091 0 0.2534906072184769
0.5333985173269172 0 0.7335091043863006
0.5333985173269171 0 0.2664908956136992
3.581471514832275 0 0.2439414177620912
5.114180659080765 0 0.2429994698126736
2.33157196342859 0 0.2429994698126737
1.815702256505458 0 0.4537787087109512
4.598357963201512 0 0.4533443354401622
6.853040696455275 0 0.2438045402652587
4.071314521178381 0 0.2467739396392634
6.364080210484448 0 0.2439414177620876
0.2455295777300714 0 0.7586030367227483
0.2455295777300711 0 0.2413969632772514
7.754470422269927 0 0.7586030367227471
7.754470422269925 0 0.2413969632772527
5.912043677414468 0 0.4950018109579968
1.374430467538623 0 0.4979298043812934
1.043478260869564 0 0.5
3.129434981762297 0 0.4950018109580001
2.782608695652173 0 0.4999999999999993
5.565217391304349 0 0.4999999999999911
0.6973989954370952 0 0.4999999999999999
7.303673978143988 0 0.4972169280805425
6.256150116472483 0 0.4920238676015473
6.961008144383215 0 0.4916771046426011
4.643467456244813 0 0.2302448712570428
4.148096599921667 0 0.4843003188903322
3.473541420820317 0 0.4920238676015529
2.44147145333413 0 0.4871061705977267
1.860808223720469 0 0.2312681116296041
5.224080148986303 0 0.4871061705977258
2 4 0 68
197
198
199
200
201
202
203
204
205
206
207
208
209
210
211
212
213
214
215
216
217
218
219
220
221
222
223
224
225
226
227
228
229
230
231
232
233
234
235
236
237
238
239
240
241
242
243
244
245
246
247
248
249
250
251
252
253
254
255
256
257
258
259
260
261
262
263
264
0.3245664328511434 1 0.4999999999999998
7.675433567148854 1 0.4999999999999989
0.8828230834422145 1 0.3034046248809372
1.565217391304345 1 0.7161743333964933
6.080957716660749 1 0.2805048225114082
5.397303152904465 1 0.2805048225114082
7.134540805830387 1 0.2795466800336114
2.60869565217391 1 0.3012262274032828
3.298349021008574 1 0.2805048225114095
4.358109752805172 1 0.3003324756516193
5.73913043478261 1 0.6987737725967171
4.707409831866667 1 0.7055620595812823
1.919042283339247 1 0.2805048225114096
2.956521739130433 1 0.6987737725967171
3.652173913043477 1 0.7161743333964936
6.434782608695647 1 0.7161743333964921
2.26086956521739 1 0.698773772596717
0.8847170643066306 1 0.6643567418162984
7.13043478260869 1 0.6987737725967171
5.391304347826091 1 0.6987737725967105
5.045437870528501 1 0.7173057145605863
4.869565217391301 1 0.3975475451934328
5.739130434782609 1 0.2802782920804154
3.999999999999999 1 0.7190744268631231
3.826086956521738 1 0.404141180839353
1.913043478260868 1 0.7085030685673623
6.782608695652169 1 0.7190744268631213
6.60869565217391 1 0.4041411808393514
1.231674270120671 1 0.7027259812511752
1.391304347826085 1 0.3975475451934349
2.608695652173912 1 0.698773772596716
2.260869565217388 1 0.3012262274032842
2.956521739130433 1 0.3012262274032826
3.304347826086954 1 0.7085030685673641
4.361052840031381 1 0.6664567341698495
6.086956521739125 1 0.7085030685673652
7.466601482673078 1 0.7335091043862977
7.470428595152091 1 0.2534906072184769
0.5390494981943257 1 0.7171006792586387
0.53246538639334 1 0.2574669313596981
3.581471514832275 1 0.2439414177620912
1.121582014008685 1 0.452971551149294
5.114180659080765 1 0.2429994698126736
1.635919789515546 1 0.2429994698126741
4.598357963201512 1 0.4533443354401622
6.853040696455275 1 0.2438045402652587
4.071314521178381 1 0.2467739396392634
6.364080210484448 1 0.2439414177620876
0.2455295777300714 1 0.7586030367227483
0.2455295777300711 1 0.2413969632772514
7.754470422269927 1 0.7586030367227471
7.754470422269925 1 0.2413969632772527
5.912043677414468 1 0.4950018109579968
2.782608695652172 1 0.4999999999999997
2.434782608695649 1 0.4999999999999997
3.129720639146981 1 0.4989236667941505
5.565217391304349 1 0.4999999999999911
2.087670665200839 1 0.4989236667941502
0.6648895193703555 1 0.4941152017668954
7.303673978143988 1 0.4972169280805425
6.256150116472483 1 0.4920238676015473
6.961008144383215 1 0.4916771046426011
4.643467456244813 1 0.2302448712570428
4.148096599921667 1 0.4843003188903322
1.166098410794526 1 0.2307847442447332
1.745713372431525 1 0.487745760869896
3.473558771244557 1 0.4922620755605027
5.224080148986303 1 0.4871061705977258
2 5 0 68
265
266
267
268
269
270
271
272
273
274
275
276
277
278
279
280
281
282
283
284
285
286
287
288
289
290
291
292
293
294
295
296
297
298
299
300
301
302
303
304
305
306
307
308
309
310
311
312
313
314
315
316
317
318
319
320
321
322
323
324
325
326
327
328
329
330
331
332
0.3245664328511434 0.4999999999999998 0
7.675433567148855 0.4999999999999982 0
0.8695652173913027 0.3012262274032823 0
1.565217391304345 0.3012262274032826 0
6.086956521739131 0.3012262274032828 0
5.391304347826084 0.3012262274032828 0
7.130434782608692 0.3012262274032828 0
2.956521739130433 0.3012262274032828 0
4.34782608695652 0.3012262274032828 0
2.260869565217389 0.301226227403283 0
3.652173913043476 0.3012262274032832 0
5.73913043478261 0.6987737725967171 0
1.217391304347824 0.6987737725967178 0
4.695652173913041 0.6987737725967171 0
1.913043478260867 0.6987737725967169 0
6.434782608695647 0.6987737725967171 0
2.608695652173911 0.6987737725967171 0
3.304347826086954 0.6987737725967171 0
4 0.6987737725967168 0
7.13043478260869 0.6987737725967171 0
5.391304347826082 0.6987737725967171 0
5.739130434782611 0.3012262274032777 0
4.69565217391304 0.3012262274032809 0
3.652173913043475 0.6987737725967181 0
1.913043478260868 0.3012262274032835 0
1.217391304347824 0.3012262274032827 0
2.608695652173912 0.301226227403284 0
2.260869565217388 0.6987737725967162 0
6.434782608695647 0.3012262274032724 0
6.782608695652168 0.3012262274032828 0
0.8695652173913027 0.6987737725967177 0
1.565217391304345 0.6987737725967177 0
5.043478260869562 0.3012262274032841 0
2.956521739130432 0.6987737725967168 0
6.782608695652169 0.6987737725967147 0
3.304347826086954 0.3012262274032815 0
3.999999999999998 0.3012262274032834 0
4.34782608695652 0.6987737725967187 0
5.043478260869562 0.6987737725967155 0
6.086956521739125 0.6987737725967204 0
7.466601482673079 0.7335091043862972 0
7.466601482673081 0.2664908956136993 0
0.5333985173269171 0.266490895613699 0
0.5333985173269172 0.7335091043863006 0
0.2455295777300713 0.7586030367227483 0
0.2455295777300711 0.2413969632772514 0
7.754470422269926 0.2413969632772521 0
7.754470422269929 0.7586030367227476 0
6.608695652173907 0.5000000000000002 0
5.565217391304347 0.5000000000000011 0
4.52173913043478 0.5000000000000009 0
1.043478260869563 0.5 0
4.869565217391301 0.4999999999999997 0
3.826086956521737 0.5000000000000002 0
1.391304347826085 0.5 0
3.478260869565216 0.5000000000000001 0
1.739130434782606 0.4999999999999998 0
5.913043478260867 0.5000000000000016 0
2.43478260869565 0.5000000000000004 0
3.130434782608693 0.5000000000000003 0
4.173913043478258 0.4999999999999997 0
5.217391304347823 0.4999999999999999 0
6.956521739130433 0.5000000000000042 0
2.086956521739128 0.5000000000000002 0
2.782608695652172 0.500000000000001 0
6.260869565217384 0.5000000000000024 0
0.6970006082251141 0.4999999999999998 0
7.302999391774882 0.4999999999999973 0
2 6 0 68
333
334
335
336
337
338
339
340
341
342
343
344
345
346
347
348
349
350
351
352
353
354
355
356
357
358
359
360
361
362
363
364
365
366
367
368
369
370
371
372
373
374
375
376
377
378
379
380
381
382
383
384
385
386
387
388
389
390
391
392
393
394
395
396
397
398
399
400
0.3245664328511434 0.4999999999999998 1
7.675433567148855 0.4999999999999988 1
0.8695652173913027 0.3012262274032823 1
1.565217391304345 0.3012262274032826 1
6.086956521739131 0.3012262274032828 1
5.391304347826084 0.3012262274032828 1
7.130434782608692 0.3012262274032828 1
2.956521739130433 0.3012262274032828 1
4.34782608695652 0.3012262274032828 1
2.260869565217389 0.301226227403283 1
3.652173913043476 0.6987737725967168 1
5.73913043478261 0.6987737725967171 1
1.217391304347824 0.6987737725967178 1
4.695652173913041 0.6987737725967171 1
1.913043478260867 0.6987737725967169 1
6.434782608695647 0.6987737725967171 1
2.608695652173911 0.6987737725967171 1
7.13043478260869 0.6987737725967171 1
3.652173913043476 0.3012262274032832 1
5.391304347826082 0.6987737725967171 1
5.739130434782611 0.3012262274032777 1
4.69565217391304 0.3012262274032809 1
3.999999999999998 0.6987737725967164 1
1.913043478260868 0.3012262274032835 1
1.217391304347824 0.3012262274032827 1
2.608695652173912 0.301226227403284 1
2.956521739130432 0.6987737725967168 1
3.304347826086953 0.6987737725967154 1
2.260869565217388 0.6987737725967162 1
6.434782608695647 0.3012262274032724 1
6.782608695652168 0.3012262274032828 1
0.8695652173913027 0.6987737725967177 1
1.565217391304345 0.6987737725967177 1
5.043478260869562 0.3012262274032841 1
6.782608695652169 0.6987737725967147 1
4.347826086956521 0.6987737725967176 1
3.304347826086954 0.3012262274032815 1
3.999999999999998 0.3012262274032834 1
5.043478260869562 0.6987737725967155 1
6.086956521739125 0.6987737725967204 1
7.466601482673078 0.7335091043862976 1
7.466601482673079 0.2664908956137 1
0.5333985173269171 0.266490895613699 1
0.5333985173269172 0.7335091043863006 1
0.2455295777300713 0.7586030367227483 1
7.754470422269926 0.7586030367227473 1
0.2455295777300711 0.2413969632772514 1
7.754470422269924 0.2413969632772522 1
6.608695652173907 0.5000000000000002 1
5.565217391304347 0.5000000000000011 1
4.52173913043478 0.4999999999999994 1
1.043478260869563 0.5 1
4.173913043478259 0.4999999999999999 1
4.869565217391301 0.4999999999999994 1
1.391304347826085 0.5 1
1.739130434782606 0.4999999999999998 1
5.913043478260867 0.5000000000000016 1
2.43478260869565 0.5000000000000004 1
3.826086956521737 0.4999999999999999 1
5.217391304347823 0.4999999999999999 1
3.478260869565214 0.4999999999999998 1
6.956521739130433 0.5000000000000042 1
2.086956521739128 0.5000000000000002 1
3.130434782608693 0.5 1
2.782608695652172 0.500000000000001 1
6.260869565217384 0.5000000000000024 1
0.6970006082251141 0.4999999999999998 1
7.302601004562899 0.4999999999999984 1
3 1 0 29
401
402
403
404
405
406
407
408
409
410
411
412
413
414
415
416
417
418
419
420
421
422
423
424
425
426
427
428
429
4.729948513577602 0.5 0.5
3.987474499658773 0.5 0.4999999999999999
1.209013251438002 0.4916210792352265 0.5083789207647739
1.947019879118405 0.5002015381708169 0.5
5.738664212368836 0.4998378356821661 0.4998378356821667
2.956057853701917 0.5000000000000002 0.5
6.782608695652169 0.5016498872027989 0.5
0.4947788554833458 0.4999999999999999 0.5
5.230110259229221 0.5000408412529216 0.5
2.447196660209737 0.4999772465430938 0.5000227534569062
7.489542798366767 0.4996825395116391 0.5000743958638513
3.487391144683097 0.4998279283846155 0.5
6.282159312888203 0.4997131563696581 0.5
1.575274443483656 0.6303687664370033 0.400357787063523
4.358711506618187 0.5328300326943481 0.3612389092089003
0.8519943493612633 0.3839274988767815 0.3839274988767816
7.13574529057309 0.377543784837671 0.384255208249015
7.093863255334377 0.6391190076059128 0.6391190076059128
1.638029150128122 0.3625206520292529 0.6446272617025682
0.9022444016823264 0.6364293196687663 0.6421908109831659
1.731694063255788 0.3038049786125461 0.3209219897761043
4.442622614738086 0.3937536608980042 0.6737032509120492
1.74125433132626 0.6981654020520097 0.6979827290582667
6.010495588192985 0.6599424264921177 0.3421204505202126
6.010327994176804 0.3403975957847293 0.6581326136603772
3.221671805868649 0.3372042859271577 0.338923471091833
3.221777151068421 0.6624956569549014 0.6611224345253834
1.043478260869563 0.690264552032375 0.290130082001737
0.6995882690947498 0.3021847051490266 0.6978152948509735
$EndNodes
$Elements
5 1606 1 1606
2 1 2 26
1 10 1 118 
2 1 11 118 
3 2 9 117 
4 15 2 117 
5 12 3 119 
6 3 14 119 
7 13 4 120 
8 4 16 120 
9 9 10 116 
10 9 116 117 
11 116 10 118 
12 11 12 114 
13 11 114 118 
14 114 12 119 
15 14 13 115 
16 115 13 120 
17 14 115 119 
18 16 15 113 
19 113 15 117 
20 16 113 120 
21 113 114 115 
22 114 113 116 
23 113 115 120 
24 116 113 117 
25 115 114 119 
26 114 116 118 
2 2 2 26
27 18 126 5 
28 5 126 19 
29 6 125 17 
30 23 125 6 
31 20 128 7 
32 7 128 22 
33 21 127 8 
34 8 127 24 
35 17 121 18 
36 17 125 121 
37 121 126 18 
38 19 123 20 
39 19 126 123 
40 123 128 20 
41 22 122 21 
42 122 127 21 
43 22 128 122 
44 24 124 23 
45 124 125 23 
46 24 127 124 
47 122 123 121 
48 121 124 122 
49 123 126 121 
50 121 125 124 
51 122 128 123 
52 124 127 122 
2 3 2 186
53 1 10 177 
54 47 1 177 
55 9 2 178 
56 2 25 178 
57 18 5 179 
58 5 68 179 
59 6 17 180 
60 46 6 180 
61 10 9 130 
62 130 9 178 
63 10 130 177 
64 17 18 129 
65 17 129 180 
66 129 18 179 
67 25 26 168 
68 25 168 178 
69 26 27 131 
70 26 131 168 
71 27 28 156 
72 131 27 156 
73 28 29 132 
74 28 132 156 
75 29 30 195 
76 132 29 195 
77 30 31 171 
78 153 30 171 
79 30 153 195 
80 31 32 136 
81 31 136 171 
82 32 33 159 
83 136 32 159 
84 33 34 137 
85 33 137 159 
86 34 35 169 
87 137 34 169 
88 35 36 175 
89 35 155 169 
90 155 35 175 
91 36 37 138 
92 36 138 175 
93 37 38 191 
94 138 37 191 
95 38 39 170 
96 149 38 170 
97 38 149 191 
98 39 40 134 
99 39 134 170 
100 40 41 150 
101 134 40 150 
102 41 42 133 
103 41 133 150 
104 42 43 176 
105 133 42 176 
106 43 44 174 
107 158 43 174 
108 43 158 176 
109 44 45 135 
110 44 135 174 
111 45 46 166 
112 135 45 166 
113 166 46 180 
114 48 47 167 
115 167 47 177 
116 49 48 160 
117 160 48 167 
118 50 49 140 
119 140 49 160 
120 51 50 161 
121 50 140 161 
122 52 51 142 
123 142 51 161 
124 53 52 152 
125 52 142 152 
126 54 53 151 
127 151 53 152 
128 55 54 143 
129 143 54 151 
130 56 55 162 
131 55 143 162 
132 57 56 144 
133 144 56 162 
134 58 57 154 
135 57 144 154 
136 59 58 163 
137 58 154 163 
138 60 59 141 
139 141 59 163 
140 61 60 148 
141 60 141 148 
142 62 61 147 
143 147 61 148 
144 63 62 139 
145 139 62 147 
146 64 63 164 
147 63 139 164 
148 65 64 145 
149 145 64 164 
150 66 65 157 
151 65 145 157 
152 67 66 146 
153 146 66 157 
154 68 67 165 
155 67 146 165 
156 68 165 179 
157 165 129 179 
158 129 165 188 
159 129 166 180 
160 166 129 188 
161 130 167 177 
162 167 130 187 
163 168 130 178 
164 130 168 187 
165 131 156 183 
166 168 131 187 
167 131 183 187 
168 156 132 182 
169 161 132 172 
170 132 161 182 
171 172 132 195 
172 150 133 181 
173 133 176 189 
174 181 133 189 
175 134 150 186 
176 170 134 196 
177 134 186 196 
178 135 166 188 
179 174 135 190 
180 135 188 190 
181 136 159 185 
182 171 136 194 
183 136 185 194 
184 159 137 184 
185 137 169 193 
186 184 137 193 
187 163 138 173 
188 138 163 192 
189 173 138 191 
190 175 138 192 
191 139 147 186 
192 164 139 181 
193 181 139 186 
194 140 160 183 
195 161 140 182 
196 182 140 183 
197 148 141 149 
198 149 141 173 
199 141 163 173 
200 152 142 153 
201 153 142 172 
202 142 161 172 
203 143 151 185 
204 162 143 184 
205 184 143 185 
206 154 144 155 
207 155 144 193 
208 144 162 193 
209 157 145 158 
210 158 145 189 
211 145 164 189 
212 146 157 190 
213 165 146 188 
214 188 146 190 
215 147 148 196 
216 186 147 196 
217 148 149 196 
218 149 170 196 
219 149 173 191 
220 150 181 186 
221 151 152 194 
222 185 151 194 
223 152 153 194 
224 153 171 194 
225 153 172 195 
226 154 155 192 
227 163 154 192 
228 169 155 193 
229 155 175 192 
230 156 182 183 
231 157 158 190 
232 158 174 190 
233 176 158 189 
234 159 184 185 
235 160 167 187 
236 183 160 187 
237 162 184 193 
238 164 181 189 
2 5 2 186
239 2 15 310 
240 25 2 310 
241 16 4 309 
242 4 69 309 
243 23 6 311 
244 6 46 311 
245 8 24 312 
246 90 8 312 
247 15 16 265 
248 15 265 310 
249 265 16 309 
250 24 23 266 
251 266 23 311 
252 24 266 312 
253 26 25 307 
254 307 25 310 
255 27 26 267 
256 267 26 307 
257 28 27 290 
258 27 267 290 
259 29 28 268 
260 268 28 290 
261 30 29 289 
262 29 268 289 
263 31 30 274 
264 274 30 289 
265 32 31 291 
266 31 274 291 
267 33 32 272 
268 272 32 291 
269 34 33 300 
270 33 272 300 
271 35 34 275 
272 275 34 300 
273 36 35 301 
274 35 275 301 
275 37 36 273 
276 273 36 301 
277 38 37 287 
278 37 273 287 
279 39 38 297 
280 38 287 297 
281 40 39 270 
282 270 39 297 
283 41 40 286 
284 40 270 286 
285 42 41 269 
286 269 41 286 
287 43 42 293 
288 42 269 293 
289 44 43 294 
290 43 293 294 
291 45 44 271 
292 271 44 294 
293 46 45 306 
294 45 271 306 
295 46 306 311 
296 69 70 308 
297 69 308 309 
298 70 71 295 
299 70 295 308 
300 71 72 277 
301 71 277 295 
302 72 73 296 
303 277 72 296 
304 73 74 279 
305 73 279 296 
306 74 75 292 
307 279 74 292 
308 75 76 281 
309 75 281 292 
310 76 77 298 
311 281 76 298 
312 77 78 282 
313 77 282 298 
314 78 79 288 
315 282 78 288 
316 79 80 283 
317 79 283 288 
318 80 81 302 
319 283 80 302 
320 81 82 278 
321 81 278 302 
322 82 83 303 
323 278 82 303 
324 83 84 285 
325 83 285 303 
326 84 85 276 
327 84 276 285 
328 85 86 304 
329 276 85 304 
330 86 87 280 
331 86 280 304 
332 87 88 299 
333 280 87 299 
334 88 89 284 
335 88 284 299 
336 89 90 305 
337 284 89 305 
338 305 90 312 
339 265 307 310 
340 307 265 331 
341 308 265 309 
342 265 308 331 
343 266 305 312 
344 305 266 332 
345 306 266 311 
346 266 306 332 
347 290 267 316 
348 267 307 331 
349 316 267 331 
350 289 268 321 
351 268 290 319 
352 268 319 321 
353 269 286 322 
354 293 269 330 
355 269 322 330 
356 286 270 314 
357 270 297 326 
358 314 270 326 
359 271 294 327 
360 306 271 332 
361 271 327 332 
362 272 291 329 
363 300 272 324 
364 324 272 329 
365 287 273 315 
366 273 301 325 
367 315 273 325 
368 274 289 328 
369 291 274 323 
370 323 274 328 
371 275 300 320 
372 301 275 318 
373 318 275 320 
374 285 276 314 
375 276 304 322 
376 314 276 322 
377 295 277 316 
378 277 296 319 
379 316 277 319 
380 302 278 315 
381 278 303 317 
382 315 278 317 
383 279 292 328 
384 296 279 321 
385 321 279 328 
386 280 299 313 
387 304 280 330 
388 280 313 330 
389 292 281 323 
390 281 298 329 
391 323 281 329 
392 282 288 320 
393 298 282 324 
394 282 320 324 
395 288 283 318 
396 283 302 325 
397 318 283 325 
398 299 284 327 
399 284 305 332 
400 327 284 332 
401 303 285 326 
402 285 314 326 
403 286 314 322 
404 297 287 317 
405 287 315 317 
406 288 318 320 
407 289 321 328 
408 290 316 319 
409 291 323 329 
410 292 323 328 
411 294 293 313 
412 313 293 330 
413 294 313 327 
414 308 295 331 
415 295 316 331 
416 319 296 321 
417 297 317 326 
418 298 324 329 
419 313 299 327 
420 320 300 324 
421 301 318 325 
422 302 315 325 
423 317 303 326 
424 322 304 330 
3 1 4 1182
425 308 236 408 428 
426 308 295 236 428 
427 291 136 406 410 
428 203 305 234 411 
429 290 403 156 421 
430 281 406 204 410 
431 227 406 349 410 
432 151 358 406 410 
433 365 403 200 423 
434 211 402 343 412 
435 351 402 144 412 
436 203 284 305 411 
437 339 374 165 411 
438 345 225 365 403 
439 145 362 407 413 
440 285 405 202 409 
441 134 405 270 409 
442 255 408 236 428 
443 182 156 403 421 
444 212 407 348 413 
445 205 406 282 427 
446 228 404 292 410 
447 361 404 213 410 
448 242 284 203 407 
449 269 405 133 425 
450 403 414 200 423 
451 203 407 284 418 
452 162 406 369 426 
453 216 405 352 409 
454 338 405 147 409 
455 231 368 402 422 
456 406 369 426 427 
457 406 426 282 427 
458 200 365 225 403 
459 232 372 405 424 
460 136 159 272 406 
461 286 150 133 405 
462 231 402 415 422 
463 372 405 424 425 
464 202 276 219 405 
465 339 165 146 411 
466 269 424 405 425 
467 150 286 134 405 
468 199 255 236 428 
469 282 205 298 406 
470 136 272 291 406 
471 286 133 269 405 
472 355 220 368 402 
473 285 276 202 405 
474 270 134 286 405 
475 363 339 146 407 
476 162 340 369 406 
477 372 344 232 405 
478 143 340 162 406 
479 205 229 298 406 
480 344 207 232 405 
481 298 204 281 406 
482 358 340 151 406 
483 298 229 204 406 
484 359 349 227 406 
485 143 151 340 406 
486 210 359 227 406 
487 352 216 344 405 
488 207 344 216 405 
489 353 139 338 405 
490 139 147 338 405 
491 152 404 342 410 
492 290 156 268 421 
493 146 407 339 417 
494 292 228 209 404 
495 200 403 225 414 
496 366 148 401 409 
497 217 371 401 409 
498 362 363 157 407 
499 279 292 209 404 
500 335 403 160 429 
501 146 157 363 407 
502 348 212 367 407 
503 407 417 284 418 
504 351 370 144 402 
505 211 355 343 402 
506 345 365 387 403 
507 339 417 407 418 
508 185 406 136 410 
509 365 387 403 423 
510 146 339 411 417 
511 242 407 203 418 
512 173 401 191 415 
513 385 355 368 402 
514 385 402 368 422 
515 335 357 140 403 
516 140 160 335 403 
517 295 199 236 428 
518 182 132 156 421 
519 208 401 346 422 
520 157 145 362 407 
521 346 208 371 401 
522 141 354 366 401 
523 356 342 142 404 
524 153 274 404 410 
525 253 202 405 409 
526 186 405 134 409 
527 205 282 412 427 
528 367 212 223 407 
529 220 231 368 402 
530 221 288 402 412 
531 293 407 313 413 
532 362 381 407 413 
533 155 402 275 412 
534 282 426 412 427 
535 181 133 150 405 
536 412 426 369 427 
537 162 369 412 426 
538 313 407 280 413 
539 348 407 381 413 
540 288 318 402 412 
541 343 402 391 412 
542 275 402 318 412 
543 351 391 402 412 
544 144 370 154 402 
545 355 211 220 402 
546 242 299 284 407 
547 151 406 185 410 
548 149 297 401 409 
549 218 401 303 409 
550 269 133 413 425 
551 329 406 281 410 
552 204 406 250 410 
553 291 406 329 410 
554 250 406 227 410 
555 349 406 397 410 
556 358 397 406 410 
557 136 185 159 406 
558 202 219 253 405 
559 158 407 293 413 
560 150 134 186 405 
561 217 371 208 401 
562 141 366 148 401 
563 152 142 342 404 
564 280 407 224 413 
565 132 268 156 421 
566 269 413 424 425 
567 372 424 413 425 
568 232 413 372 424 
569 191 401 287 415 
570 205 252 229 406 
571 203 234 256 411 
572 216 253 405 409 
573 147 405 186 409 
574 352 405 382 409 
575 382 405 338 409 
576 314 405 285 409 
577 319 414 403 421 
578 314 270 405 409 
579 181 133 405 425 
580 362 381 363 407 
581 313 293 294 407 
582 363 394 339 407 
583 254 404 228 410 
584 254 213 404 410 
585 328 404 274 410 
586 342 404 395 410 
587 292 404 328 410 
588 395 404 361 410 
589 340 396 369 406 
590 324 282 298 406 
591 344 372 389 405 
592 143 185 151 406 
593 207 216 253 405 
594 242 203 258 418 
595 139 186 147 405 
596 286 269 322 405 
597 231 402 260 415 
598 252 406 205 427 
599 298 281 329 406 
600 359 397 349 406 
601 250 204 229 406 
602 358 397 340 406 
603 272 329 291 406 
604 382 352 344 405 
605 250 210 227 406 
606 143 162 184 406 
607 207 249 232 405 
608 208 231 401 422 
609 353 338 382 405 
610 285 314 276 405 
611 270 286 314 405 
612 408 255 420 428 
613 299 327 284 407 
614 299 280 313 407 
615 348 367 381 407 
616 241 401 231 415 
617 162 184 406 426 
618 249 232 405 424 
619 127 248 312 411 
620 378 247 128 411 
621 386 366 401 409 
622 297 317 401 409 
623 317 303 401 409 
624 386 401 371 409 
625 275 301 318 402 
626 391 370 351 402 
627 318 283 288 402 
628 391 343 355 402 
629 125 311 180 411 
630 126 179 380 411 
631 282 406 324 426 
632 269 322 405 424 
633 369 406 396 427 
634 372 389 405 425 
635 339 407 394 418 
636 220 260 231 402 
637 242 258 407 418 
638 411 417 339 418 
639 284 332 305 411 
640 357 335 384 403 
641 208 346 231 422 
642 339 400 374 411 
643 231 241 208 401 
644 312 234 305 411 
645 378 373 233 411 
646 165 188 146 411 
647 166 311 306 411 
648 153 171 274 410 
649 203 411 256 418 
650 374 179 165 411 
651 209 228 254 404 
652 284 407 327 417 
653 231 415 401 422 
654 149 170 297 409 
655 239 218 303 409 
656 246 120 309 408 
657 310 117 178 408 
658 245 377 119 408 
659 379 177 118 408 
660 312 248 234 411 
661 180 311 166 411 
662 378 233 247 411 
663 374 380 179 411 
664 178 168 307 408 
665 395 342 356 404 
666 354 386 366 401 
667 287 297 317 401 
668 386 346 371 401 
669 278 317 303 401 
670 368 231 346 422 
671 279 328 292 404 
672 301 402 175 415 
673 387 419 403 423 
674 140 183 160 403 
675 183 160 403 429 
676 408 420 416 428 
677 307 310 178 408 
678 245 376 377 408 
679 175 402 192 415 
680 154 402 370 422 
681 335 384 403 420 
682 146 190 157 407 
683 335 420 403 429 
684 190 407 146 417 
685 124 127 266 411 
686 221 237 288 412 
687 155 275 169 412 
688 128 123 334 411 
689 211 221 402 412 
690 155 144 402 412 
691 235 376 245 408 
692 183 403 416 429 
693 204 228 281 410 
694 281 228 292 410 
695 349 361 227 410 
696 153 404 152 410 
697 227 361 213 410 
698 145 407 158 413 
699 241 259 401 415 
700 293 158 294 407 
701 400 411 339 418 
702 403 419 414 423 
703 372 212 348 413 
704 232 212 372 413 
705 284 332 411 417 
706 182 403 419 421 
707 369 351 144 412 
708 369 144 162 412 
709 212 224 407 413 
710 188 146 411 417 
711 299 224 280 407 
712 115 197 119 408 
713 155 301 275 402 
714 221 288 283 402 
715 138 173 191 415 
716 192 402 154 422 
717 273 191 287 415 
718 278 401 259 415 
719 244 280 224 413 
720 158 293 176 413 
721 149 401 148 409 
722 177 408 379 429 
723 218 217 401 409 
724 287 149 297 401 
725 278 303 218 401 
726 312 266 127 411 
727 334 378 128 411 
728 375 167 379 429 
729 167 177 379 429 
730 152 342 358 410 
731 152 358 151 410 
732 301 175 273 415 
733 133 176 269 413 
734 197 245 119 408 
735 338 148 366 409 
736 338 147 148 409 
737 352 371 217 409 
738 352 217 216 409 
739 282 237 205 412 
740 140 403 357 419 
741 269 176 293 413 
742 288 237 282 412 
743 401 415 173 422 
744 138 191 273 415 
745 192 415 402 422 
746 171 136 291 410 
747 243 402 283 415 
748 385 370 402 422 
749 171 291 274 410 
750 170 134 270 409 
751 202 239 285 409 
752 297 170 270 409 
753 303 285 239 409 
754 175 192 138 415 
755 209 279 404 414 
756 248 127 122 411 
757 128 247 122 411 
758 121 125 180 411 
759 179 126 121 411 
760 211 412 343 427 
761 156 403 290 416 
762 243 260 402 415 
763 198 234 248 411 
764 166 129 180 411 
765 233 198 247 411 
766 305 266 312 411 
767 341 154 370 422 
768 179 129 165 411 
769 378 334 373 411 
770 306 311 266 411 
771 374 334 380 411 
772 145 362 413 425 
773 292 328 323 410 
774 323 328 274 410 
775 395 361 390 410 
776 390 342 395 410 
777 254 251 213 410 
778 254 228 251 410 
779 273 175 138 415 
780 310 113 117 408 
781 120 113 309 408 
782 118 114 379 408 
783 377 114 119 408 
784 157 158 145 407 
785 386 392 366 409 
786 297 326 317 409 
787 317 326 303 409 
788 392 386 371 409 
789 233 411 373 418 
790 169 412 275 426 
791 182 403 140 419 
792 235 376 408 420 
793 398 372 348 413 
794 330 269 293 413 
795 320 288 282 412 
796 369 393 351 412 
797 212 224 223 407 
798 287 191 149 401 
799 218 259 278 401 
800 325 402 301 415 
801 307 265 310 408 
802 265 308 309 408 
803 376 333 377 408 
804 280 413 244 424 
805 178 130 168 408 
806 357 403 387 419 
807 124 122 127 411 
808 128 122 123 411 
809 245 197 235 408 
810 121 124 125 411 
811 126 123 121 411 
812 248 122 198 411 
813 247 198 122 411 
814 129 121 180 411 
815 179 121 129 411 
816 368 346 383 422 
817 307 408 168 416 
818 148 149 141 401 
819 208 218 217 401 
820 142 152 153 404 
821 323 281 292 410 
822 204 251 228 410 
823 291 323 274 410 
824 349 390 361 410 
825 342 390 358 410 
826 251 227 213 410 
827 236 197 246 408 
828 144 154 155 402 
829 221 220 211 402 
830 325 301 273 415 
831 414 419 403 421 
832 288 320 318 412 
833 343 391 393 412 
834 275 318 320 412 
835 351 393 391 412 
836 297 270 326 409 
837 366 392 338 409 
838 371 352 392 409 
839 303 326 285 409 
840 173 415 138 422 
841 225 403 226 414 
842 294 407 174 417 
843 306 166 411 417 
844 138 415 192 422 
845 153 152 194 410 
846 403 414 319 428 
847 310 265 113 408 
848 309 113 265 408 
849 379 114 333 408 
850 333 114 377 408 
851 323 329 281 410 
852 251 204 250 410 
853 291 329 323 410 
854 251 250 227 410 
855 349 397 390 410 
856 358 390 397 410 
857 232 257 212 413 
858 149 148 196 409 
859 194 185 136 410 
860 218 264 217 409 
861 398 348 381 413 
862 313 280 330 413 
863 293 313 330 413 
864 362 398 381 413 
865 162 144 193 412 
866 392 382 338 409 
867 314 326 270 409 
868 314 285 326 409 
869 352 382 392 409 
870 186 134 196 409 
871 253 264 202 409 
872 403 420 416 429 
873 287 401 315 415 
874 189 176 133 413 
875 113 116 117 408 
876 113 120 115 408 
877 115 119 114 408 
878 118 116 114 408 
879 158 174 294 407 
880 175 301 155 402 
881 243 221 283 402 
882 163 192 154 422 
883 153 194 171 410 
884 278 259 302 415 
885 237 263 205 412 
886 242 224 299 407 
887 225 403 345 420 
888 149 196 170 409 
889 239 264 218 409 
890 336 140 357 419 
891 354 401 141 422 
892 151 185 194 410 
893 211 263 221 412 
894 155 193 144 412 
895 142 356 404 419 
896 243 283 302 415 
897 147 186 196 409 
898 216 264 253 409 
899 341 163 154 422 
900 171 194 136 410 
901 159 272 406 426 
902 277 319 414 428 
903 279 321 404 414 
904 196 134 170 409 
905 202 264 239 409 
906 275 412 320 426 
907 219 405 276 424 
908 273 287 315 415 
909 211 343 360 427 
910 343 412 393 427 
911 151 194 152 410 
912 211 360 230 427 
913 359 406 210 427 
914 147 196 148 409 
915 217 264 216 409 
916 191 173 149 401 
917 218 241 259 401 
918 221 263 237 412 
919 145 337 362 425 
920 330 413 280 424 
921 193 155 169 412 
922 139 405 353 425 
923 212 257 224 413 
924 385 341 370 422 
925 189 145 158 413 
926 283 402 325 415 
927 398 413 362 425 
928 164 337 145 425 
929 235 408 255 420 
930 267 156 290 416 
931 267 131 156 416 
932 183 403 156 416 
933 189 413 133 425 
934 241 206 259 415 
935 209 404 262 414 
936 223 367 407 418 
937 399 408 376 420 
938 278 315 401 415 
939 244 224 257 413 
940 319 290 403 428 
941 263 205 412 427 
942 158 176 189 413 
943 211 263 412 427 
944 225 238 403 420 
945 206 302 259 415 
946 226 277 414 428 
947 269 413 330 424 
948 209 240 279 414 
949 372 413 398 425 
950 169 275 300 426 
951 145 413 189 425 
952 200 225 226 414 
953 141 401 173 422 
954 238 226 225 403 
955 233 256 411 418 
956 373 411 400 418 
957 257 413 232 424 
958 282 320 412 426 
959 369 393 412 427 
960 321 404 414 421 
961 304 280 244 424 
962 350 233 373 418 
963 142 404 172 419 
964 162 412 193 426 
965 306 135 166 417 
966 161 140 336 419 
967 174 407 190 417 
968 307 168 131 416 
969 327 407 294 417 
970 169 193 412 426 
971 395 404 388 423 
972 319 316 290 428 
973 317 315 287 401 
974 278 315 317 401 
975 395 356 388 404 
976 328 279 321 404 
977 257 244 413 424 
978 328 404 321 421 
979 331 408 307 416 
980 215 233 350 418 
981 159 185 184 406 
982 168 408 187 416 
983 249 253 219 405 
984 186 181 150 405 
985 195 153 289 421 
986 361 227 97 349 
987 228 281 75 204 
988 75 292 281 228 
989 281 298 76 204 
990 204 298 76 229 
991 151 54 340 358 
992 227 98 349 359 
993 106 344 352 216 
994 139 338 62 353 
995 97 213 227 361 
996 54 143 151 340 
997 338 139 62 147 
998 98 227 210 359 
999 344 106 207 216 
1000 243 302 206 415 
1001 267 307 131 416 
1002 262 209 254 404 
1003 243 206 260 415 
1004 188 411 166 417 
1005 296 226 277 414 
1006 301 325 318 402 
1007 355 385 391 402 
1008 283 318 325 402 
1009 391 385 370 402 
1010 226 414 403 428 
1011 275 320 300 426 
1012 235 364 376 420 
1013 183 182 156 403 
1014 206 241 231 415 
1015 277 226 261 428 
1016 343 393 360 427 
1017 336 357 387 419 
1018 271 135 306 417 
1019 387 384 345 403 
1020 172 142 153 404 
1021 162 143 55 340 
1022 96 222 213 361 
1023 232 344 107 207 
1024 361 96 222 347 
1025 369 162 55 340 
1026 372 344 107 232 
1027 141 149 173 401 
1028 208 241 218 401 
1029 184 185 143 406 
1030 249 207 253 405 
1031 387 357 384 403 
1032 181 186 139 405 
1033 250 252 210 406 
1034 229 252 250 406 
1035 236 255 197 408 
1036 397 396 340 406 
1037 329 272 324 406 
1038 397 359 396 406 
1039 329 324 298 406 
1040 389 382 344 405 
1041 389 353 382 405 
1042 332 306 411 417 
1043 381 394 363 407 
1044 294 327 313 407 
1045 322 276 314 405 
1046 381 367 394 407 
1047 313 327 299 407 
1048 322 314 286 405 
1049 356 388 404 419 
1050 335 357 49 140 
1051 49 335 140 160 
1052 238 226 403 428 
1053 159 406 184 426 
1054 243 260 221 402 
1055 175 155 192 402 
1056 262 404 254 423 
1057 249 405 219 424 
1058 267 156 27 290 
1059 304 330 280 424 
1060 27 131 156 267 
1061 183 140 182 403 
1062 238 403 420 428 
1063 337 398 362 425 
1064 234 198 256 411 
1065 279 240 296 414 
1066 188 129 166 411 
1067 172 419 404 421 
1068 136 159 32 272 
1069 84 219 202 276 
1070 286 40 150 134 
1071 41 286 150 133 
1072 262 414 404 423 
1073 197 255 235 408 
1074 307 331 265 408 
1075 308 265 331 408 
1076 376 399 333 408 
1077 168 130 187 408 
1078 384 345 403 420 
1079 211 230 263 427 
1080 230 211 100 360 
1081 232 108 372 212 
1082 56 144 162 369 
1083 145 164 64 337 
1084 343 100 211 360 
1085 369 56 144 351 
1086 370 144 57 351 
1087 211 355 101 343 
1088 212 367 109 348 
1089 108 348 372 212 
1090 362 145 64 337 
1091 404 419 388 423 
1092 290 156 28 268 
1093 198 233 256 411 
1094 298 77 229 205 
1095 209 292 74 228 
1096 32 136 272 291 
1097 276 202 84 285 
1098 40 286 270 134 
1099 286 41 269 133 
1100 283 325 302 415 
1101 77 298 282 205 
1102 279 292 74 209 
1103 129 188 165 411 
1104 332 266 305 411 
1105 266 332 306 411 
1106 60 354 366 141 
1107 104 371 346 208 
1108 400 373 334 411 
1109 400 334 374 411 
1110 52 142 356 342 
1111 221 260 220 402 
1112 154 192 155 402 
1113 367 394 407 418 
1114 362 65 157 363 
1115 206 231 260 415 
1116 124 121 122 411 
1117 122 121 123 411 
1118 294 174 271 417 
1119 345 225 94 365 
1120 138 192 163 422 
1121 156 132 28 268 
1122 190 174 158 407 
1123 324 406 272 426 
1124 399 408 420 429 
1125 346 368 103 231 
1126 252 210 406 427 
1127 181 405 139 425 
1128 208 346 103 231 
1129 373 350 111 233 
1130 165 67 374 339 
1131 359 396 406 427 
1132 322 276 405 424 
1133 367 212 109 223 
1134 151 152 53 358 
1135 147 61 338 148 
1136 105 352 217 216 
1137 168 131 26 307 
1138 145 189 164 425 
1139 389 353 405 425 
1140 342 53 152 358 
1141 366 338 61 148 
1142 352 371 105 217 
1143 161 182 140 419 
1144 157 145 65 362 
1145 223 407 258 418 
1146 242 258 224 407 
1147 144 370 57 154 
1148 355 211 101 220 
1149 289 328 321 421 
1150 148 60 366 141 
1151 371 104 217 208 
1152 52 152 142 342 
1153 50 357 336 140 
1154 307 131 26 267 
1155 215 111 350 233 
1156 67 165 146 339 
1157 158 157 190 407 
1158 225 200 94 365 
1159 296 277 319 414 
1160 350 367 110 418 
1161 333 408 399 429 
1162 187 408 130 429 
1163 224 258 223 407 
1164 367 223 110 418 
1165 225 345 93 420 
1166 172 404 153 421 
1167 116 113 114 408 
1168 115 114 113 408 
1169 214 364 235 420 
1170 163 173 138 422 
1171 234 203 89 305 
1172 135 45 306 166 
1173 187 416 408 429 
1174 169 300 137 426 
1175 290 316 267 416 
1176 278 302 315 415 
1177 308 295 70 236 
1178 110 223 215 418 
1179 102 368 355 220 
1180 58 370 341 154 
1181 201 304 244 424 
1182 345 364 93 420 
1183 306 271 45 135 
1184 305 203 89 284 
1185 131 183 156 416 
1186 110 215 350 418 
1187 161 50 336 140 
1188 135 271 174 417 
1189 364 92 235 376 
1190 279 296 321 414 
1191 395 388 347 423 
1192 199 70 295 236 
1193 296 240 226 414 
1194 220 102 368 231 
1195 154 341 58 163 
1196 141 59 354 422 
1197 356 142 51 419 
1198 72 277 296 226 
1199 38 297 287 149 
1200 30 153 274 289 
1201 303 218 82 278 
1202 275 155 35 301 
1203 288 79 221 283 
1204 299 224 87 280 
1205 294 293 43 158 
1206 327 294 271 417 
1207 214 225 93 420 
1208 233 215 256 418 
1209 350 373 400 418 
1210 209 262 240 414 
1211 316 319 277 428 
1212 169 137 193 426 
1213 333 399 375 429 
1214 167 187 130 429 
1215 262 254 222 423 
1216 263 252 205 427 
1217 235 214 92 364 
1218 353 63 139 425 
1219 336 356 51 419 
1220 364 399 376 420 
1221 85 219 276 424 
1222 277 72 261 226 
1223 188 166 135 417 
1224 181 189 133 425 
1225 218 259 82 278 
1226 191 38 287 149 
1227 153 30 195 289 
1228 257 201 244 424 
1229 59 341 354 422 
1230 99 359 210 427 
1231 33 272 159 426 
1232 141 163 59 422 
1233 93 364 214 420 
1234 332 271 306 417 
1235 282 324 320 426 
1236 369 396 393 427 
1237 162 193 184 426 
1238 85 201 219 424 
1239 267 331 307 416 
1240 269 330 322 424 
1241 168 187 131 416 
1242 372 398 389 425 
1243 214 235 255 420 
1244 37 287 273 191 
1245 81 259 302 278 
1246 142 161 51 419 
1247 276 304 85 424 
1248 249 257 232 424 
1249 63 164 139 425 
1250 353 337 63 425 
1251 137 33 159 426 
1252 87 242 224 299 
1253 158 43 294 174 
1254 316 295 416 428 
1255 169 155 35 275 
1256 224 244 87 280 
1257 288 79 237 221 
1258 158 293 43 176 
1259 171 30 153 274 
1260 72 296 240 226 
1261 82 239 218 303 
1262 297 38 170 149 
1263 243 221 79 283 
1264 301 155 35 175 
1265 321 296 319 414 
1266 203 256 258 418 
1267 59 163 341 422 
1268 33 300 272 426 
1269 359 99 360 427 
1270 99 210 230 427 
1271 273 37 191 138 
1272 81 259 206 302 
1273 141 173 163 422 
1274 225 214 238 420 
1275 85 304 201 424 
1276 51 161 336 419 
1277 271 294 44 174 
1278 299 88 242 284 
1279 275 34 169 300 
1280 78 282 288 237 
1281 86 244 304 280 
1282 293 269 42 176 
1283 31 171 291 274 
1284 296 279 73 240 
1285 39 270 297 170 
1286 239 83 285 303 
1287 273 301 36 175 
1288 283 80 243 302 
1289 238 261 226 428 
1290 63 337 164 425 
1291 135 271 44 174 
1292 203 242 88 284 
1293 316 295 331 416 
1294 284 327 332 417 
1295 135 174 190 417 
1296 34 137 169 300 
1297 86 244 201 304 
1298 133 42 269 176 
1299 171 136 31 291 
1300 170 39 270 134 
1301 239 83 202 285 
1302 237 78 282 205 
1303 33 137 300 426 
1304 240 279 73 209 
1305 339 394 400 418 
1306 230 360 99 427 
1307 195 172 153 421 
1308 335 399 420 429 
1309 262 200 414 423 
1310 161 419 172 421 
1311 335 399 384 420 
1312 206 243 80 302 
1313 175 36 273 138 
1314 367 350 394 418 
1315 132 161 172 421 
1316 384 364 345 420 
1317 373 112 378 233 
1318 379 375 47 167 
1319 68 179 165 374 
1320 168 25 178 307 
1321 320 324 300 426 
1322 393 396 360 427 
1323 247 378 112 233 
1324 177 379 47 167 
1325 25 310 178 307 
1326 91 377 245 376 
1327 179 68 380 374 
1328 330 304 322 424 
1329 190 146 188 417 
1330 245 235 91 376 
1331 142 172 161 419 
1332 398 337 389 425 
1333 223 258 215 418 
1334 226 262 200 414 
1335 416 420 408 429 
1336 387 388 336 419 
1337 131 187 183 416 
1338 331 267 316 416 
1339 90 312 234 305 
1340 46 306 166 311 
1341 332 327 271 417 
1342 383 385 368 422 
1343 308 69 309 236 
1344 234 248 312 90 
1345 180 46 166 311 
1346 246 309 69 236 
1347 230 252 263 427 
1348 164 189 181 425 
1349 195 289 29 421 
1350 137 184 193 426 
1351 132 29 268 421 
1352 268 29 289 421 
1353 416 420 403 428 
1354 350 400 394 418 
1355 201 257 249 424 
1356 356 336 388 419 
1357 404 419 414 421 
1358 414 419 404 423 
1359 95 222 347 423 
1360 160 48 335 429 
1361 384 399 364 420 
1362 258 256 215 418 
1363 188 135 190 417 
1364 132 195 29 421 
1365 71 199 295 428 
1366 273 315 325 415 
1367 201 249 219 424 
1368 200 95 365 423 
1369 95 347 365 423 
1370 385 383 341 422 
1371 117 310 15 113 
1372 16 309 120 113 
1373 180 121 17 125 
1374 179 126 18 121 
1375 322 304 276 424 
1376 12 119 377 114 
1377 11 379 118 114 
1378 248 21 122 127 
1379 22 128 247 122 
1380 325 315 302 415 
1381 159 184 137 426 
1382 164 181 139 425 
1383 389 337 353 425 
1384 75 74 292 228 
1385 335 49 48 160 
1386 53 54 151 358 
1387 76 298 77 229 
1388 98 97 227 349 
1389 75 281 76 204 
1390 338 62 61 147 
1391 352 105 106 216 
1392 54 55 143 340 
1393 99 98 210 359 
1394 213 97 96 361 
1395 344 106 107 207 
1396 63 62 353 139 
1397 131 27 26 267 
1398 66 67 146 339 
1399 350 110 111 215 
1400 277 261 71 428 
1401 295 277 71 428 
1402 19 126 380 123 
1403 178 117 9 116 
1404 246 13 120 115 
1405 125 124 23 311 
1406 118 177 10 116 
1407 13 246 197 115 
1408 71 261 199 428 
1409 240 262 226 414 
1410 48 375 335 429 
1411 160 167 48 429 
1412 48 167 375 429 
1413 29 28 132 268 
1414 300 324 272 426 
1415 17 129 121 180 
1416 18 129 179 121 
1417 198 21 122 248 
1418 122 247 22 198 
1419 309 16 265 113 
1420 265 15 310 113 
1421 379 11 333 114 
1422 333 12 377 114 
1423 359 360 396 427 
1424 252 230 210 427 
1425 266 23 124 311 
1426 130 178 9 116 
1427 334 19 380 123 
1428 130 10 177 116 
1429 295 71 70 199 
1430 96 95 222 347 
1431 64 164 63 337 
1432 100 99 230 360 
1433 55 56 162 369 
1434 108 372 107 232 
1435 95 200 222 423 
1436 36 37 273 138 
1437 206 80 81 302 
1438 383 354 341 422 
1439 341 59 58 163 
1440 102 103 368 231 
1441 50 336 51 161 
1442 271 44 45 135 
1443 88 89 203 284 
1444 93 92 214 364 
1445 136 32 31 291 
1446 137 34 33 300 
1447 41 42 269 133 
1448 85 86 201 304 
1449 39 40 270 134 
1450 83 84 202 285 
1451 159 33 32 272 
1452 85 219 84 276 
1453 286 40 41 150 
1454 279 74 73 209 
1455 78 77 282 205 
1456 225 94 93 345 
1457 28 27 156 290 
1458 103 104 346 208 
1459 354 60 59 141 
1460 356 51 142 52 
1461 56 57 144 351 
1462 211 101 100 343 
1463 348 108 109 212 
1464 64 65 145 362 
1465 95 94 200 365 
1466 157 65 66 363 
1467 109 110 367 223 
1468 52 53 152 342 
1469 60 366 61 148 
1470 371 104 105 217 
1471 357 50 49 140 
1472 6 180 125 311 
1473 5 126 179 380 
1474 127 248 8 312 
1475 119 245 3 377 
1476 2 310 117 178 
1477 120 309 4 246 
1478 177 1 379 118 
1479 128 378 7 247 
1480 14 13 197 115 
1481 102 355 101 220 
1482 57 370 58 154 
1483 124 24 23 266 
1484 130 9 10 116 
1485 334 20 19 123 
1486 18 17 129 121 
1487 122 22 21 198 
1488 16 15 265 113 
1489 333 11 12 114 
1490 289 321 268 421 
1491 373 111 112 233 
1492 67 68 165 374 
1493 168 26 25 307 
1494 375 48 47 167 
1495 83 239 82 303 
1496 38 39 297 170 
1497 171 31 30 274 
1498 72 296 73 240 
1499 235 92 91 376 
1500 169 35 34 275 
1501 79 78 288 237 
1502 86 87 244 280 
1503 42 43 293 176 
1504 30 29 195 289 
1505 87 88 242 299 
1506 43 44 294 174 
1507 277 72 71 261 
1508 259 81 82 278 
1509 37 38 287 191 
1510 89 90 234 305 
1511 306 45 46 166 
1512 301 35 36 175 
1513 80 243 79 283 
1514 347 388 365 423 
1515 261 238 199 428 
1516 308 70 69 236 
1517 262 222 200 423 
1518 378 112 7 247 
1519 5 179 68 380 
1520 312 248 8 90 
1521 6 46 180 311 
1522 309 69 4 246 
1523 377 245 3 91 
1524 379 47 1 177 
1525 2 25 310 178 
1526 316 277 295 428 
1527 132 172 195 421 
1528 335 375 399 429 
1529 187 167 160 429 
1530 8 21 248 127 
1531 126 5 19 380 
1532 125 23 6 311 
1533 7 20 378 128 
1534 17 6 180 125 
1535 119 3 12 377 
1536 10 1 177 118 
1537 310 15 2 117 
1538 4 16 309 120 
1539 3 14 245 119 
1540 379 1 11 118 
1541 117 9 2 178 
1542 128 7 22 247 
1543 120 4 13 246 
1544 18 5 126 179 
1545 127 8 24 312 
1546 421 290 319 268 
1547 421 319 290 403 
1548 428 308 416 408 
1549 428 416 308 295 
1550 331 416 308 408 
1551 331 308 416 295 
1552 363 146 66 157 
1553 363 66 146 339 
1554 284 418 411 203 
1555 411 418 284 417 
1556 197 119 14 115 
1557 14 119 197 245 
1558 246 115 408 197 
1559 408 115 246 120 
1560 266 127 24 312 
1561 266 24 127 124 
1562 128 334 20 378 
1563 128 20 334 123 
1564 116 177 408 118 
1565 116 408 177 130 
1566 311 124 411 125 
1567 311 411 124 266 
1568 380 123 411 334 
1569 411 123 380 126 
1570 178 116 408 117 
1571 408 116 178 130 
1572 236 309 408 246 
1573 236 408 309 308 
1574 238 428 214 199 
1575 238 214 428 420 
1576 255 214 428 199 
1577 255 428 214 420 
1578 429 183 187 416 
1579 429 187 183 160 
1580 428 290 416 316 
1581 428 416 290 403 
1582 429 333 379 375 
1583 429 379 333 408 
1584 130 429 177 167 
1585 177 429 130 408 
1586 423 254 213 404 
1587 423 213 254 222 
1588 361 423 213 404 
1589 361 213 423 222 
1590 347 361 423 222 
1591 354 422 386 401 
1592 354 386 422 383 
1593 346 386 422 401 
1594 346 422 386 383 
1595 423 395 361 347 
1596 423 361 395 404 
1597 153 421 274 289 
1598 153 274 421 404 
1599 328 274 421 289 
1600 328 421 274 404 
1601 423 387 388 365 
1602 423 388 387 419 
1603 421 319 321 268 
1604 421 321 319 414 
1605 421 182 161 419 
1606 421 161 182 132 
$EndElements
