$MeshFormat
4.1 0 8
$EndMeshFormat
$PhysicalNames
5
2 2 "x_min"
2 3 "x_max"
2 4 "y_min"
2 5 "z_min"
3 1 "domain"
$EndPhysicalNames
$Entities
8 12 6 1
1 0 0 0.5 0 
2 0 0 0 0 
3 0 0.5 0.5 0 
4 0 0.5 0 0 
5 4 0 0.5 0 
6 4 0 0 0 
7 4 0.5 0.5 0 
8 4 0.5 0 0 
1 -1e-07 -1e-07 -9.999999997511999e-08 1e-07 1e-07 0.5000000999999999 0 2 2 -1 
2 -1e-07 -9.999999997511999e-08 0.4999999 1e-07 0.5000000999999999 0.5000000999999999 0 2 1 -3 
3 -1e-07 0.4999999 -9.999999997511999e-08 1e-07 0.5000000999999999 0.5000000999999999 0 2 4 -3 
4 -1e-07 -9.999999997511999e-08 -1e-07 1e-07 0.5000000999999999 1e-07 0 2 2 -4 
5 3.9999999 -1e-07 -9.999999997511999e-08 4.0000001 1e-07 0.5000000999999999 0 2 6 -5 
6 3.9999999 -9.999999997511999e-08 0.4999999 4.0000001 0.5000000999999999 0.5000000999999999 0 2 5 -7 
7 3.9999999 0.4999999 -9.999999997511999e-08 4.0000001 0.5000000999999999 0.5000000999999999 0 2 8 -7 
8 3.9999999 -9.999999997511999e-08 -1e-07 4.0000001 0.5000000999999999 1e-07 0 2 6 -8 
9 -9.999999983634211e-08 -1e-07 -1e-07 4.0000001 1e-07 1e-07 0 2 2 -6 
10 -9.999999983634211e-08 -1e-07 0.4999999 4.0000001 1e-07 0.5000000999999999 0 2 1 -5 
11 -9.999999983634211e-08 0.4999999 -1e-07 4.0000001 0.5000000999999999 1e-07 0 2 4 -8 
12 -9.999999983634211e-08 0.4999999 0.4999999 4.0000001 0.5000000999999999 0.5000000999999999 0 2 3 -7 
1 -1e-07 -9.999999997511999e-08 -9.999999997511999e-08 1e-07 0.5000000999999999 0.5000000999999999 1 2 4 -1 4 3 -2 
2 3.9999999 -9.999999997511999e-08 -9.999999997511999e-08 4.0000001 0.5000000999999999 0.5000000999999999 1 3 4 -5 8 7 -6 
3 -9.999999983634211e-08 -1e-07 -9.999999997511999e-08 4.0000001 1e-07 0.5000000999999999 1 4 4 -9 1 10 -5 
4 -9.999999983634211e-08 0.4999999 -9.999999997511999e-08 4.0000001 0.5000000999999999 0.5000000999999999 0 4 -11 3 12 -7 
5 -9.999999983634211e-08 -9.999999997511999e-08 -1e-07 4.0000001 0.5000000999999999 1e-07 1 5 4 -4 9 8 -11 
6 -9.999999983634211e-08 -9.999999997511999e-08 0.4999999 4.0000001 0.5000000999999999 0.5000000999999999 0 4 -2 10 6 -12 
1 -9.999999983634211e-08 -9.999999997511999e-08 -9.999999997511999e-08 4.0000001 0.5000000999999999 0.5000000999999999 1 1 6 -1 2 -3 4 -5 6 
$EndEntities
$Nodes
27 92 1 92
0 1 0 1
1
0 0 0.5
0 2 0 1
2
0 0 0
0 3 0 1
3
0 0.5 0.5
0 4 0 1
4
0 0.5 0
0 5 0 1
5
4 0 0.5
0 6 0 1
6
4 0 0
0 7 0 1
7
4 0.5 0.5
0 8 0 1
8
4 0.5 0
1 1 0 1
9
0 0 0.2500000000000006
1 2 0 1
10
0 0.2500000000000006 0.5
1 3 0 1
11
0 0.5 0.2500000000000006
1 4 0 1
12
0 0.2500000000000006 0
1 5 0 1
13
4 0 0.2500000000000006
1 6 0 1
14
4 0.2500000000000006 0.5
1 7 0 1
15
4 0.5 0.2500000000000006
1 8 0 1
16
4 0.2500000000000006 0
1 9 0 8
17
18
19
20
21
22
23
24
0.4444444444444451 0 0
0.8888888888888897 0 0
1.333333333333335 0 0
1.777777777777782 0 0
2.222222222222226 0 0
2.666666666666668 0 0
3.111111111111112 0 0
3.555555555555555 0 0
1 10 0 8
25
26
27
28
29
30
31
32
0.4444444444444451 0 0.5
0.8888888888888897 0 0.5
1.333333333333335 0 0.5
1.777777777777782 0 0.5
2.222222222222226 0 0.5
2.666666666666668 0 0.5
3.111111111111112 0 0.5
3.555555555555555 0 0.5
1 11 0 8
33
34
35
36
37
38
39
40
0.4444444444444451 0.5 0
0.8888888888888897 0.5 0
1.333333333333335 0.5 0
1.777777777777782 0.5 0
2.222222222222226 0.5 0
2.666666666666668 0.5 0
3.111111111111112 0.5 0
3.555555555555555 0.5 0
1 12 0 8
41
42
43
44
45
46
47
48
0.4444444444444451 0.5 0.5
0.8888888888888897 0.5 0.5
1.333333333333335 0.5 0.5
1.777777777777782 0.5 0.5
2.222222222222226 0.5 0.5
2.666666666666668 0.5 0.5
3.111111111111112 0.5 0.5
3.555555555555555 0.5 0.5
2 1 0 4
49
50
51
52
0 0.1306942419825076 0.1306942419825076
0 0.1875 0.3125000000000003
0 0.321261540330418 0.1754282069970847
0 0.3593749999999999 0.3593749999999998
2 2 0 4
53
54
55
56
4 0.1306942419825076 0.1306942419825076
4 0.1875 0.3125000000000003
4 0.321261540330418 0.1754282069970847
4 0.3593749999999999 0.3593749999999998
2 3 0 9
57
58
59
60
61
62
63
64
65
2.444444444444447 0 0.25
2.000000000000004 0 0.25
2.88888888888889 0 0.25
3.333333333333333 0 0.2499999999999998
3.74074074074074 0 0.25
1.555555555555559 0 0.25
1.111111111111112 0 0.25
0.6666666666666674 0 0.25
0.2592592592592596 0 0.2500000000000001
2 4 0 9
66
67
68
69
70
71
72
73
74
2.444444444444447 0.5 0.25
2.000000000000004 0.5 0.25
2.88888888888889 0.5 0.2499999999999998
3.333333333333333 0.5 0.2499999999999998
3.74074074074074 0.5 0.25
1.555555555555558 0.5 0.25
1.111111111111112 0.5 0.2499999999999999
0.6666666666666674 0.5 0.25
0.2592592592592596 0.5 0.2500000000000001
2 5 0 9
75
76
77
78
79
80
81
82
83
2.88888888888889 0.25 0
2.444444444444447 0.25 0
2.000000000000004 0.25 0
1.555555555555558 0.2499999999999999 0
3.333333333333333 0.2499999999999998 0
3.74074074074074 0.25 0
1.111111111111112 0.25 0
0.6666666666666674 0.25 0
0.2592592592592596 0.2500000000000001 0
2 6 0 9
84
85
86
87
88
89
90
91
92
2.444444444444447 0.2500000000000001 0.5
2.000000000000004 0.25 0.5
2.88888888888889 0.2500000000000001 0.5
1.555555555555558 0.2499999999999999 0.5
3.333333333333333 0.2499999999999998 0.5
3.74074074074074 0.25 0.5
1.111111111111112 0.25 0.5
0.6666666666666674 0.25 0.5
0.2592592592592596 0.2500000000000001 0.5
3 1 0 0
$EndNodes
$Elements
5 298 1 298
2 1 2 14
1 9 1 50 
2 1 10 50 
3 2 9 49 
4 12 2 49 
5 10 3 52 
6 3 11 52 
7 11 4 51 
8 4 12 51 
9 49 9 50 
10 50 10 52 
11 11 51 52 
12 12 49 51 
13 49 50 51 
14 51 50 52 
2 2 2 14
15 13 54 5 
16 5 54 14 
17 6 53 13 
18 16 53 6 
19 14 56 7 
20 7 56 15 
21 15 55 8 
22 8 55 16 
23 53 54 13 
24 54 56 14 
25 15 56 55 
26 16 55 53 
27 53 55 54 
28 55 56 54 
2 3 2 38
29 1 9 65 
30 25 1 65 
31 9 2 65 
32 2 17 65 
33 13 5 61 
34 5 32 61 
35 6 13 61 
36 24 6 61 
37 17 18 64 
38 17 64 65 
39 18 19 63 
40 18 63 64 
41 19 20 62 
42 19 62 63 
43 20 21 58 
44 20 58 62 
45 21 22 57 
46 21 57 58 
47 22 23 59 
48 57 22 59 
49 23 24 60 
50 59 23 60 
51 60 24 61 
52 26 25 64 
53 64 25 65 
54 27 26 63 
55 63 26 64 
56 28 27 62 
57 62 27 63 
58 29 28 58 
59 58 28 62 
60 30 29 57 
61 57 29 58 
62 31 30 59 
63 30 57 59 
64 32 31 60 
65 31 59 60 
66 32 60 61 
2 5 2 38
67 2 12 83 
68 17 2 83 
69 12 4 83 
70 4 33 83 
71 16 6 80 
72 6 24 80 
73 8 16 80 
74 40 8 80 
75 18 17 82 
76 82 17 83 
77 19 18 81 
78 81 18 82 
79 20 19 78 
80 78 19 81 
81 21 20 77 
82 77 20 78 
83 22 21 76 
84 76 21 77 
85 23 22 75 
86 75 22 76 
87 24 23 79 
88 23 75 79 
89 24 79 80 
90 33 34 82 
91 33 82 83 
92 34 35 81 
93 34 81 82 
94 35 36 78 
95 35 78 81 
96 36 37 77 
97 36 77 78 
98 37 38 76 
99 37 76 77 
100 38 39 75 
101 38 75 76 
102 39 40 79 
103 75 39 79 
104 79 40 80 
3 1 4 194
105 52 51 74 50 
106 56 54 70 55 
107 51 49 83 50 
108 80 55 54 53 
109 69 70 89 80 
110 79 80 89 61 
111 83 73 74 92 
112 83 73 92 65 
113 80 89 69 79 
114 89 88 79 61 
115 92 73 64 65 
116 73 83 64 65 
117 79 88 69 75 
118 86 69 88 75 
119 86 88 60 75 
120 66 68 84 76 
121 75 86 76 59 
122 79 60 88 75 
123 86 60 59 75 
124 86 69 75 68 
125 86 76 84 68 
126 86 76 59 84 
127 86 75 76 68 
128 59 84 76 57 
129 84 76 77 66 
130 76 84 77 57 
131 84 58 77 57 
132 77 84 66 67 
133 64 73 90 82 
134 73 64 90 91 
135 72 81 78 62 
136 62 87 71 90 
137 82 81 73 90 
138 77 85 62 58 
139 72 78 71 62 
140 62 71 72 90 
141 63 82 64 90 
142 67 85 62 77 
143 85 77 84 58 
144 77 85 84 67 
145 72 81 62 90 
146 85 62 87 67 
147 62 81 63 90 
148 67 62 78 77 
149 72 73 81 90 
150 81 82 63 90 
151 62 78 71 67 
152 71 87 62 67 
153 83 74 51 50 
154 54 70 55 80 
155 89 88 69 79 
156 79 88 60 61 
157 91 73 64 92 
158 64 82 83 73 
159 86 84 46 68 
160 76 75 59 22 
161 22 59 76 57 
162 60 31 88 86 
163 68 84 46 66 
164 79 69 39 75 
165 87 62 27 90 
166 84 59 30 57 
167 86 59 30 84 
168 86 69 47 88 
169 75 79 60 23 
170 75 68 38 76 
171 19 78 81 62 
172 27 62 63 90 
173 69 86 47 68 
174 68 66 38 76 
175 71 35 78 72 
176 35 81 78 72 
177 43 72 71 90 
178 87 43 71 90 
179 63 19 81 62 
180 69 68 39 75 
181 57 29 84 58 
182 31 60 59 86 
183 85 87 44 67 
184 91 73 42 90 
185 64 91 26 90 
186 78 36 67 77 
187 21 76 77 57 
188 64 18 82 63 
189 82 81 34 73 
190 84 85 45 67 
191 62 20 77 58 
192 75 60 59 23 
193 87 71 44 67 
194 73 81 34 72 
195 63 64 26 90 
196 73 72 42 90 
197 81 82 18 63 
198 66 84 45 67 
199 78 36 71 67 
200 66 67 37 77 
201 77 37 66 76 
202 85 28 62 58 
203 62 20 78 77 
204 28 62 87 85 
205 77 21 57 58 
206 85 84 29 58 
207 92 52 74 50 
208 70 89 54 56 
209 65 83 49 50 
210 53 54 80 61 
211 70 89 48 69 
212 70 69 40 80 
213 88 89 32 61 
214 61 79 80 24 
215 25 92 64 65 
216 41 74 73 92 
217 73 33 83 74 
218 17 64 83 65 
219 54 89 80 61 
220 65 92 83 50 
221 74 83 92 50 
222 70 54 89 80 
223 89 88 48 69 
224 60 79 61 24 
225 69 40 80 79 
226 88 32 60 61 
227 91 41 73 92 
228 33 83 82 73 
229 64 91 92 25 
230 17 64 82 83 
231 83 12 49 51 
232 55 80 16 53 
233 51 74 11 52 
234 56 70 15 55 
235 65 49 9 50 
236 13 54 53 61 
237 10 52 92 50 
238 89 14 54 56 
239 53 80 6 61 
240 83 49 2 65 
241 52 74 3 92 
242 70 7 89 56 
243 13 5 54 61 
244 65 9 1 50 
245 1 10 92 50 
246 14 54 5 89 
247 70 15 7 56 
248 7 14 89 56 
249 3 11 74 52 
250 52 3 10 92 
251 12 49 2 83 
252 9 2 49 65 
253 53 6 13 61 
254 16 80 6 53 
255 74 11 4 51 
256 8 15 70 55 
257 8 55 80 16 
258 4 12 83 51 
259 4 83 74 51 
260 55 70 8 80 
261 89 54 5 61 
262 65 1 92 50 
263 48 7 89 70 
264 40 8 70 80 
265 89 5 32 61 
266 41 3 74 92 
267 80 6 61 24 
268 4 83 33 74 
269 1 92 25 65 
270 83 2 17 65 
271 22 75 59 23 
272 69 39 40 79 
273 60 31 32 88 
274 86 46 47 68 
275 79 60 23 24 
276 36 35 78 71 
277 44 43 71 87 
278 47 48 88 69 
279 31 59 30 86 
280 21 22 76 57 
281 37 38 66 76 
282 38 39 68 75 
283 45 46 84 66 
284 21 77 20 58 
285 43 42 72 90 
286 27 63 26 90 
287 45 85 44 67 
288 37 67 36 77 
289 81 18 19 63 
290 81 35 34 72 
291 42 41 73 91 
292 19 20 78 62 
293 28 87 62 27 
294 64 91 25 26 
295 64 18 17 82 
296 34 33 82 73 
297 84 30 29 57 
298 85 29 28 58 
$EndElements
