<?xml version="1.0"?>
<VTKFile type="UnstructuredGrid" version="0.1" byte_order="LittleEndian">
  <UnstructuredGrid>
    <Piece NumberOfPoints="92" NumberOfCells="194">
      <Points>
        <DataArray type="Float64" NumberOfComponents="3" format="ascii">0 0 0.5 0 0 0 0 0.5 0.5 0 0.5 0 4 0 0.5 4 0 0 4 0.5 0.5 4 0.5 0 0 0 0.25 0 0.25 0.5 0 0.5 0.25 0 0.25 0 4 0 0.25 4 0.25 0.5 4 0.5 0.25 4 0.25 0 0.444444444444 0 0 0.888888888889 0 0 1.33333333333 0 0 1.77777777778 0 0 2.22222222222 0 0 2.66666666667 0 0 3.11111111111 0 0 3.55555555556 0 0 0.444444444444 0 0.5 0.888888888889 0 0.5 1.33333333333 0 0.5 1.77777777778 0 0.5 2.22222222222 0 0.5 2.66666666667 0 0.5 3.11111111111 0 0.5 3.55555555556 0 0.5 0.444444444444 0.5 0 0.888888888889 0.5 0 1.33333333333 0.5 0 1.77777777778 0.5 0 2.22222222222 0.5 0 2.66666666667 0.5 0 3.11111111111 0.5 0 3.55555555556 0.5 0 0.444444444444 0.5 0.5 0.888888888889 0.5 0.5 1.33333333333 0.5 0.5 1.77777777778 0.5 0.5 2.22222222222 0.5 0.5 2.66666666667 0.5 0.5 3.11111111111 0.5 0.5 3.55555555556 0.5 0.5 0 0.130694241983 0.130694241983 0 0.1875 0.3125 0 0.32126154033 0.175428206997 0 0.359375 0.359375 4 0.130694241983 0.130694241983 4 0.1875 0.3125 4 0.32126154033 0.175428206997 4 0.359375 0.359375 2.44444444444 0 0.25 2 0 0.25 2.88888888889 0 0.25 3.33333333333 0 0.25 3.74074074074 0 0.25 1.55555555556 0 0.25 1.11111111111 0 0.25 0.666666666667 0 0.25 0.259259259259 0 0.25 2.44444444444 0.5 0.25 2 0.5 0.25 2.88888888889 0.5 0.25 3.33333333333 0.5 0.25 3.74074074074 0.5 0.25 1.55555555556 0.5 0.25 1.11111111111 0.5 0.25 0.666666666667 0.5 0.25 0.259259259259 0.5 0.25 2.88888888889 0.25 0 2.44444444444 0.25 0 2 0.25 0 1.55555555556 0.25 0 3.33333333333 0.25 0 3.74074074074 0.25 0 1.11111111111 0.25 0 0.666666666667 0.25 0 0.259259259259 0.25 0 2.44444444444 0.25 0.5 2 0.25 0.5 2.88888888889 0.25 0.5 1.55555555556 0.25 0.5 3.33333333333 0.25 0.5 3.74074074074 0.25 0.5 1.11111111111 0.25 0.5 0.666666666667 0.25 0.5 0.259259259259 0.25 0.5</DataArray>
      </Points>
      <Cells>
        <DataArray type="Int32" Name="connectivity" format="ascii">51 50 73 49 55 53 69 54 50 48 82 49 79 54 53 52 68 69 88 79 78 79 88 60 82 72 73 91 82 72 91 64 79 88 68 78 88 87 78 60 91 72 63 64 72 82 63 64 78 87 68 74 85 68 87 74 85 87 59 74 65 67 83 75 74 85 75 58 78 59 87 74 85 59 58 74 85 68 74 67 85 75 83 67 85 75 58 83 85 74 75 67 58 83 75 56 83 75 76 65 75 83 76 56 83 57 76 56 76 83 65 66 63 72 89 81 72 63 89 90 71 80 77 61 61 86 70 89 81 80 72 89 76 84 61 57 71 77 70 61 61 70 71 89 62 81 63 89 66 84 61 76 84 76 83 57 76 84 83 66 71 80 61 89 84 61 86 66 61 80 62 89 66 61 77 76 71 72 80 89 80 81 62 89 61 77 70 66 70 86 61 66 82 73 50 49 53 69 54 79 88 87 68 78 78 87 59 60 90 72 63 91 63 81 82 72 85 83 45 67 75 74 58 21 21 58 75 56 59 30 87 85 67 83 45 65 78 68 38 74 86 61 26 89 83 58 29 56 85 58 29 83 85 68 46 87 74 78 59 22 74 67 37 75 18 77 80 61 26 61 62 89 68 85 46 67 67 65 37 75 70 34 77 71 34 80 77 71 42 71 70 89 86 42 70 89 62 18 80 61 68 67 38 74 56 28 83 57 30 59 58 85 84 86 43 66 90 72 41 89 63 90 25 89 77 35 66 76 20 75 76 56 63 17 81 62 81 80 33 72 83 84 44 66 61 19 76 57 74 59 58 22 86 70 43 66 72 80 33 71 62 63 25 89 72 71 41 89 80 81 17 62 65 83 44 66 77 35 70 66 65 66 36 76 76 36 65 75 84 27 61 57 61 19 77 76 27 61 86 84 76 20 56 57 84 83 28 57 91 51 73 49 69 88 53 55 64 82 48 49 52 53 79 60 69 88 47 68 69 68 39 79 87 88 31 60 60 78 79 23 24 91 63 64 40 73 72 91 72 32 82 73 16 63 82 64 53 88 79 60 64 91 82 49 73 82 91 49 69 53 88 79 88 87 47 68 59 78 60 23 68 39 79 78 87 31 59 60 90 40 72 91 32 82 81 72 63 90 91 24 16 63 81 82 82 11 48 50 54 79 15 52 50 73 10 51 55 69 14 54 64 48 8 49 12 53 52 60 9 51 91 49 88 13 53 55 52 79 5 60 82 48 1 64 51 73 2 91 69 6 88 55 12 4 53 60 64 8 0 49 0 9 91 49 13 53 4 88 69 14 6 55 6 13 88 55 2 10 73 51 51 2 9 91 11 48 1 82 8 1 48 64 52 5 12 60 15 79 5 52 73 10 3 50 7 14 69 54 7 54 79 15 3 11 82 50 3 82 73 50 54 69 7 79 88 53 4 60 64 0 91 49 47 6 88 69 39 7 69 79 88 4 31 60 40 2 73 91 79 5 60 23 3 82 32 73 0 91 24 64 82 1 16 64 21 74 58 22 68 38 39 78 59 30 31 87 85 45 46 67 78 59 22 23 35 34 77 70 43 42 70 86 46 47 87 68 30 58 29 85 20 21 75 56 36 37 65 75 37 38 67 74 44 45 83 65 20 76 19 57 42 41 71 89 26 62 25 89 44 84 43 66 36 66 35 76 80 17 18 62 80 34 33 71 41 40 72 90 18 19 77 61 27 86 61 26 63 90 24 25 63 17 16 81 33 32 81 72 83 29 28 56 84 28 27 57</DataArray>
        <DataArray type="Int32" Name="offsets" format="ascii">4 8 12 16 20 24 28 32 36 40 44 48 52 56 60 64 68 72 76 80 84 88 92 96 100 104 108 112 116 120 124 128 132 136 140 144 148 152 156 160 164 168 172 176 180 184 188 192 196 200 204 208 212 216 220 224 228 232 236 240 244 248 252 256 260 264 268 272 276 280 284 288 292 296 300 304 308 312 316 320 324 328 332 336 340 344 348 352 356 360 364 368 372 376 380 384 388 392 396 400 404 408 412 416 420 424 428 432 436 440 444 448 452 456 460 464 468 472 476 480 484 488 492 496 500 504 508 512 516 520 524 528 532 536 540 544 548 552 556 560 564 568 572 576 580 584 588 592 596 600 604 608 612 616 620 624 628 632 636 640 644 648 652 656 660 664 668 672 676 680 684 688 692 696 700 704 708 712 716 720 724 728 732 736 740 744 748 752 756 760 764 768 772 776</DataArray>
        <DataArray type="UInt8" Name="types" format="ascii">10 10 10 10 10 10 10 10 10 10 10 10 10 10 10 10 10 10 10 10 10 10 10 10 10 10 10 10 10 10 10 10 10 10 10 10 10 10 10 10 10 10 10 10 10 10 10 10 10 10 10 10 10 10 10 10 10 10 10 10 10 10 10 10 10 10 10 10 10 10 10 10 10 10 10 10 10 10 10 10 10 10 10 10 10 10 10 10 10 10 10 10 10 10 10 10 10 10 10 10 10 10 10 10 10 10 10 10 10 10 10 10 10 10 10 10 10 10 10 10 10 10 10 10 10 10 10 10 10 10 10 10 10 10 10 10 10 10 10 10 10 10 10 10 10 10 10 10 10 10 10 10 10 10 10 10 10 10 10 10 10 10 10 10 10 10 10 10 10 10 10 10 10 10 10 10 10 10 10 10 10 10 10 10 10 10 10 10 10 10 10 10 10 10</DataArray>
      </Cells>
      <PointData Vectors="Displacement">
        <DataArray type="Float64" Name="Displacement" NumberOfComponents="3" format="ascii">0 0 0 0 0 0 0 0 0 0 0 0 7.2750038867e-07 -4.11150867767e-08 -8.30892874075e-06 -7.29167769344e-07 -3.27346712792e-08 -8.30979800195e-06 7.3302724396e-07 -4.51966810654e-08 -8.29994377187e-06 -7.22811648121e-07 -2.89698251461e-08 -8.29991453684e-06 0 0 0 0 0 0 0 0 0 0 0 0 5.76848441502e-11 -3.61823319838e-08 -8.31033405753e-06 7.25903261003e-07 -4.2945566103e-08 -8.30629606659e-06 4.95367480865e-09 -3.75994917034e-08 -8.30013419983e-06 -7.2257777063e-07 -3.08912844412e-08 -8.30776287579e-06 -1.65819800549e-07 -1.66784427839e-08 -2.09110283042e-07 -3.09864649193e-07 -1.73018700665e-08 -6.9753495929e-07 -4.16811208504e-07 -7.57386695054e-09 -1.39140040827e-06 -5.66395592068e-07 -8.69376808043e-09 -2.26736940355e-06 -6.13854490925e-07 -1.83741838777e-08 -3.33830974673e-06 -6.62041916194e-07 -1.8434745538e-08 -4.50180232692e-06 -6.96238021934e-07 -2.43184938733e-08 -5.73195057687e-06 -7.17101868076e-07 -2.8870818709e-08 -7.00795134355e-06 1.76489836605e-07 1.32205402681e-08 -2.16881246968e-07 3.44966906164e-07 1.22678306024e-08 -6.85716677971e-07 4.20363464359e-07 1.34797088919e-08 -1.37476353122e-06 5.56602003317e-07 1.0278470617e-08 -2.275172739e-06 6.28241318504e-07 -7.27704622925e-09 -3.33817385423e-06 6.66910286857e-07 -2.09542930666e-08 -4.49964224347e-06 6.96310011211e-07 -2.73815716406e-08 -5.73146522754e-06 7.1577011898e-07 -3.52672933467e-08 -7.00723190387e-06 -1.61881707494e-07 1.40449253209e-08 -2.00760042742e-07 -3.40703531455e-07 6.7198500195e-09 -6.95472032073e-07 -4.53770087681e-07 2.08100263181e-08 -1.39775563678e-06 -5.1285113322e-07 1.15483695279e-08 -2.27438598878e-06 -6.06064047386e-07 -4.40065004134e-09 -3.32455096082e-06 -6.55430203684e-07 -1.21536761524e-08 -4.49279193101e-06 -6.89133183447e-07 -1.95989042547e-08 -5.72213444322e-06 -7.15112932662e-07 -2.45784339823e-08 -6.99758010166e-06 1.79236370464e-07 -2.35225549955e-08 -2.0625193241e-07 3.46735215503e-07 -1.07384963748e-08 -6.7760378743e-07 4.30934323205e-07 -7.47562712945e-09 -1.4005617808e-06 5.32021740409e-07 -1.52169515592e-08 -2.2799437784e-06 6.39931099231e-07 -2.2465492912e-08 -3.31985181183e-06 6.74799162922e-07 -2.66031148705e-08 -4.49110960633e-06 7.03306635971e-07 -3.23567687652e-08 -5.72182163003e-06 7.2751769475e-07 -3.88844591358e-08 -6.99631661447e-06 0 0 0 0 0 0 0 0 0 0 0 0 -3.45244013528e-07 -3.43821365228e-08 -8.30816069385e-06 1.80347306364e-07 -3.80601540355e-08 -8.30576976372e-06 -2.12994208482e-07 -3.50537489369e-08 -8.30413155931e-06 3.19398163255e-07 -4.07595548573e-08 -8.30267142569e-06 4.42509460601e-09 -2.27252756772e-08 -3.90376334559e-06 7.01603959158e-10 -4.24584885745e-09 -2.78417744143e-06 3.23749494943e-09 -2.29706996425e-08 -5.10395725641e-06 2.13049614232e-09 -2.77710019686e-08 -6.36159900902e-06 9.87645578733e-10 -3.34495685835e-08 -7.54615709891e-06 -1.14655485751e-08 2.82986023025e-09 -1.7772372973e-06 7.74341751941e-09 -3.36161725405e-09 -1.00652983348e-06 1.60779590917e-08 1.88961109972e-10 -3.98629956003e-07 2.13151663523e-10 6.81076013648e-11 -8.11877301138e-08 1.07530727793e-08 -1.04216356034e-08 -3.89198896744e-06 1.29904602344e-08 -1.06766053886e-08 -2.76219684122e-06 1.03422512543e-08 -2.26338309896e-08 -5.09543081751e-06 9.20810342565e-09 -3.07629675966e-08 -6.35089756664e-06 5.48982592758e-09 -3.50404869638e-08 -7.53787414034e-06 6.49411693855e-09 -2.00642529228e-09 -1.81081455936e-06 7.28715726232e-10 2.40447046261e-09 -1.00901008598e-06 2.1112951002e-08 -2.58585895395e-09 -3.88466673954e-07 7.64008354242e-09 -1.04601827499e-09 -6.92142301464e-08 -6.82506446679e-07 -1.87885997464e-08 -5.10596689483e-06 -6.45307327363e-07 -1.24925592156e-08 -3.90203447012e-06 -5.85289102769e-07 -9.37780474807e-09 -2.77382821842e-06 -4.87873332708e-07 1.41144278667e-08 -1.8010075656e-06 -7.05079759642e-07 -2.51404030475e-08 -6.36351196014e-06 -7.17325482104e-07 -2.74912123313e-08 -7.54640373165e-06 -3.71954368195e-07 9.93692508109e-10 -1.02940369375e-06 -2.81272118963e-07 -1.05741944663e-08 -4.1722163975e-07 -1.2724270896e-07 9.81979823054e-10 -7.00143191027e-08 6.53085945706e-07 -2.01262233934e-08 -3.89789465406e-06 5.92298467103e-07 -5.86445436641e-09 -2.79371564051e-06 6.84010073557e-07 -2.67055433138e-08 -5.10218409408e-06 4.90884499836e-07 -1.68122267939e-10 -1.81568490808e-06 7.06322312855e-07 -3.25708254979e-08 -6.35866910476e-06 7.19569548728e-07 -4.08010362795e-08 -7.54127057005e-06 3.76956152361e-07 2.93392512279e-09 -9.93474686103e-07 2.61871900753e-07 -3.6622910706e-09 -4.42944288995e-07 1.25982076893e-07 -4.59360051909e-09 -8.76292926234e-08</DataArray>
        <DataArray type="Float64" Name="DisplacementMagnitude" format="ascii">0 0 0 0 8.34081795058e-06 8.34179237501e-06 8.33237290912e-06 8.33137907241e-06 0 0 0 0 8.31041282442e-06 8.33806537584e-06 8.30022084019e-06 8.33918442693e-06 2.6739762e-07 7.6345954376e-07 1.45250956731e-06 2.33705874134e-06 3.39432863933e-06 4.55025972108e-06 5.7741316393e-06 7.04460436411e-06 2.79930206295e-07 7.67697875771e-07 1.43765848221e-06 2.34228999685e-06 3.39678447811e-06 4.54884476899e-06 5.77367223149e-06 7.04378233621e-06 2.58278032186e-07 7.74471045376e-07 1.46971465592e-06 2.33151909185e-06 3.3793449197e-06 4.54036516143e-06 5.76351552855e-06 7.03406837364e-06 2.74260545309e-07 7.61240775126e-07 1.46537830533e-06 2.34124375504e-06 3.38104015987e-06 4.54159962261e-06 5.76497441022e-06 7.03414814795e-06 0 0 0 0 8.31540195511e-06 8.30781470028e-06 8.30693663468e-06 8.30891264432e-06 3.90383199921e-06 2.78418076727e-06 5.10400997351e-06 6.36165998142e-06 7.5462312985e-06 1.77727653386e-06 1.00656523219e-06 3.98954105503e-07 8.11880384866e-08 3.89201777511e-06 2.76224802138e-06 5.09549158261e-06 6.3509787475e-06 7.53795758342e-06 1.81082731581e-06 1.00901321404e-06 3.89048583263e-07 6.96424775947e-08 5.1514139799e-06 3.95505380706e-06 2.8349205037e-06 1.8659710226e-06 6.40250372699e-06 7.58046970149e-06 1.09454237202e-06 5.03288898319e-07 1.45236621233e-07 3.95227896935e-06 2.85581843716e-06 5.14789913427e-06 1.88087195361e-06 6.39786095911e-06 7.57563244031e-06 1.06258952594e-06 5.14577446001e-07 1.53530055004e-07</DataArray>
        <DataArray type="Float64" Name="NodalVonMises" format="ascii">70217.53809 68379.6434636 70155.4753773 66880.508094 8053.4071492 6443.13772068 7029.58586801 6002.39936615 43809.1519341 91671.703438 37654.4141067 87824.9718607 6285.77111537 8174.48947916 5494.42245169 6624.21717663 71691.3596902 51339.4091837 55892.3196355 46743.9942081 25659.9430957 18718.6914753 12600.1132596 8730.99954143 69209.0965019 54881.7300093 51947.4117944 45079.8853472 26343.7672145 17478.6740574 13483.0636939 10494.6215739 73593.0628289 55652.1815842 45972.5459117 42032.4517607 31914.9477668 18929.7850584 12851.5870781 8362.09843099 70571.851695 58616.5397659 47956.0795913 45742.7649817 31478.2205315 16365.1266422 13520.1347982 9763.08527558 67831.3478305 57786.010907 60390.7891203 57366.8681348 6838.91418638 8211.15535298 6838.26672375 7656.50488609 18516.5640986 23021.5496515 14868.9479211 11378.1599984 8464.44315256 41501.6286937 36046.847728 53667.675416 50845.5868106 18520.7173457 34286.6907669 14861.7056114 10421.206839 6770.97575581 35986.7311734 38264.9778503 52851.6328369 48996.4955106 13739.8591902 20317.3438387 28844.0645667 45065.4866346 10157.0424426 7295.49765626 43714.680217 57130.2686123 62458.3094016 20542.6210868 35943.9106472 15488.2632438 48643.0123607 12325.2630567 8854.99895104 43316.6308214 71659.4581869 60339.9010937</DataArray>
        <DataArray type="Float64" Name="NodalStressTrace" format="ascii">114777.793713 -121085.080472 118878.029504 -110332.425083 1818.09964881 -1786.02583073 2567.04972202 -2303.2076051 431.632118635 255113.705708 15471.1691734 -257666.485644 -1224.83728877 4458.48801832 -898.509606293 -3103.38258088 -69745.714542 -39315.3340062 -35841.6113517 -30069.5446999 -21136.1827328 -12523.6147405 -7978.79163321 -3637.91511525 63969.9671141 41659.3234431 35614.9843219 32495.5715622 21987.749592 12788.0589726 8140.12989478 4780.53619234 -64047.2898997 -41108.4267529 -38096.8045841 -32463.0370169 -20260.2533658 -12441.5437258 -8059.45430384 -5133.53249211 62180.2296651 37546.3512012 42134.8767462 33521.9551595 18198.0080852 11719.1575848 7563.70606352 4628.75725244 -149621.002203 25396.5210589 -121893.585185 110609.690925 -1904.91332119 1457.07776198 -1468.6266253 1971.14060091 -9035.16029619 8970.93706265 2712.75250313 971.067384998 540.668585097 -1846.52522209 -10223.9250344 8758.91720244 -6287.64967263 -7533.16549712 865.863262562 2516.26557557 763.332650379 -30.237652063 16215.4038203 -13639.6446388 -148.058081979 6907.33685914 -12464.6538423 -17330.1683663 -24599.701372 -46510.8509225 -7892.82373945 -3077.9037594 -40319.1314979 -60080.7684998 -103154.388407 15332.5863475 31973.3131853 11725.882174 50607.6494642 8817.43818019 4019.91685353 30630.9053811 75254.6805488 91328.2681627</DataArray>
        <DataArray type="Float64" Name="NodalPrincipalStress" NumberOfComponents="3" format="ascii">6160.27756592 25611.13682 83006.3793273 -83231.1973258 -30117.3700084 -7736.51313815 8572.21175997 25717.3509063 84588.4668376 -78770.5907132 -26115.4078313 -5446.42653824 -3431.18600453 -400.823235274 5650.10888861 -4619.72438966 193.892288219 2639.80627071 -2242.24895163 -634.829321712 5444.12799536 -4603.3480568 178.582412268 2121.55803943 -25127.1842521 99.6074119926 25459.2089588 50290.1389056 58872.393625 145951.173178 -15745.8606455 3570.26980925 27646.7600097 -144349.288017 -59461.4966871 -53855.7009404 -3930.99687353 -577.370495957 3283.53008072 -2322.81677544 32.824003891 6748.48078987 -3301.60300767 -555.151489216 2958.24489059 -5177.76885683 -258.709978579 2333.09625453 -66736.9938224 -16762.5271571 13753.8064374 -44104.2648581 -9791.49809478 14580.4289466 -46512.653401 -6026.91223561 16697.9542848 -37217.2698236 -8073.87113632 15221.59626 -22098.908298 -5799.61710777 6762.34267295 -15424.4400378 -2813.47787668 5714.30317398 -10171.3959652 -2009.39876068 4202.00309271 -6396.36946627 -718.881010518 3477.33536154 -12893.3663905 12141.2608297 64722.072675 -15211.9882599 10593.390768 46277.920935 -16203.976264 9555.88523608 42263.0753498 -12005.2668801 5747.50601232 38753.3324299 -6493.68302846 5749.07914355 22732.3534769 -5632.70364241 4094.93506792 14325.8275471 -4713.06301659 2110.90842043 10742.2844909 -3944.92664859 788.753334429 7936.7095065 -66513.8336545 -13978.9349153 16445.4786701 -48033.1896698 -8236.8973286 15161.6602455 -39515.3681172 -10024.9925454 11443.5560785 -34756.5489942 -9952.58415329 12246.0961306 -25787.7046981 -5105.11527218 10632.5666045 -15575.532068 -2620.80342474 5754.79176692 -10416.8017044 -1777.97263434 4135.3200349 -7016.93044932 -527.232130362 2410.63008757 -14681.2961705 12095.0502076 64766.475628 -18963.7150338 9106.96005431 47403.1061807 -11091.9579946 10340.597272 42886.2374688 -12229.7962718 6462.23828612 39289.5131453 -10539.9824676 3554.61748031 25183.3730725 -5178.44447507 3328.3104452 13569.2916146 -4723.02635064 1629.6862244 10657.0461898 -3280.35713385 244.122231631 7664.99215466 -93501.7772465 -35589.9263726 -20529.2985842 -21244.3942329 5189.44127263 41451.4740192 -79184.248274 -28065.2600223 -14644.0768882 12309.463196 24424.6807169 73875.5470124 -4705.4075156 -349.074969245 3149.56916366 -3818.95781149 -233.190793492 5509.22636697 -4442.69732047 -350.635681004 3324.70637617 -2926.62951519 -679.298433706 5577.06854981 -14555.7405639 -462.918941897 5983.49920957 -8777.19369211 993.750857448 16754.3798973 -7486.71352092 948.016386378 9251.44963767 -6029.05879468 115.340343148 6884.78583653 -4462.23835064 -125.031661258 5127.938597 -24001.379536 -357.261183679 22512.1154976 -25667.6473231 668.011510424 14775.7107783 -26775.5797281 2241.24038672 33293.2565438 -30659.496736 -2717.68358808 27089.5306514 -13617.2179242 -1170.66726859 7254.71969571 -18775.14246 -117.604830414 19758.610553 -7510.34003467 808.070903918 9218.53470632 -5474.46654937 -51.3209357953 6289.12013555 -3577.02469839 -480.117973205 4026.90501954 -13409.7833113 2398.57732276 27226.6098089 -27503.0718969 -1634.15742377 15497.5846818 -29942.4732895 386.736389303 29407.6788182 -24420.8348655 894.987746362 30433.1839783 -12178.7754919 -3455.95483113 3170.07648071 -18021.2187711 -3685.68175092 4376.73215567 -25288.0097652 -6028.27425384 6716.58264703 -43146.5737297 -10037.0012995 6672.72410679 -8533.4680833 -2322.76635868 2963.41070253 -5391.32190368 -592.690000472 2906.10814476 -40637.5549453 -7457.2856651 7775.70911247 -55758.5244723 -11495.5940077 7173.34998025 -73406.999834 -24606.6424165 -5140.74615612 -6199.92460348 4872.50658965 16660.0043613 -7094.54260101 5913.64967499 33154.2061113 -4196.46789151 2790.97282098 13131.3772445 -6938.54087609 10189.0404187 47357.1499217 -3322.20802095 1646.93231579 10492.7138853 -3089.2165654 262.804465562 6846.32895337 -13829.277666 9959.19512799 34500.9879191 -9784.48981302 14437.1906448 70601.979717 2461.10095479 20188.4475024 68678.7197056</DataArray>
        <DataArray type="Float64" Name="ShellTopNodalVonMises" format="ascii">0 0 0 0 0 0 0 0 0 0 0 0 0 0 0 0 0 0 0 0 0 0 0 0 0 0 0 0 0 0 0 0 0 0 0 0 0 0 0 0 0 0 0 0 0 0 0 0 0 0 0 0 0 0 0 0 0 0 0 0 0 0 0 0 0 0 0 0 0 0 0 0 0 0 0 0 0 0 0 0 0 0 0 0 0 0 0 0 0 0 0 0</DataArray>
        <DataArray type="Float64" Name="ShellBottomNodalVonMises" format="ascii">0 0 0 0 0 0 0 0 0 0 0 0 0 0 0 0 0 0 0 0 0 0 0 0 0 0 0 0 0 0 0 0 0 0 0 0 0 0 0 0 0 0 0 0 0 0 0 0 0 0 0 0 0 0 0 0 0 0 0 0 0 0 0 0 0 0 0 0 0 0 0 0 0 0 0 0 0 0 0 0 0 0 0 0 0 0 0 0 0 0 0 0</DataArray>
      </PointData>
      <CellData Scalars="VonMises">
        <DataArray type="Int32" Name="ElementIndex" format="ascii">0 1 2 3 4 5 6 7 8 9 10 11 12 13 14 15 16 17 18 19 20 21 22 23 24 25 26 27 28 29 30 31 32 33 34 35 36 37 38 39 40 41 42 43 44 45 46 47 48 49 50 51 52 53 54 55 56 57 58 59 60 61 62 63 64 65 66 67 68 69 70 71 72 73 74 75 76 77 78 79 80 81 82 83 84 85 86 87 88 89 90 91 92 93 94 95 96 97 98 99 100 101 102 103 104 105 106 107 108 109 110 111 112 113 114 115 116 117 118 119 120 121 122 123 124 125 126 127 128 129 130 131 132 133 134 135 136 137 138 139 140 141 142 143 144 145 146 147 148 149 150 151 152 153 154 155 156 157 158 159 160 161 162 163 164 165 166 167 168 169 170 171 172 173 174 175 176 177 178 179 180 181 182 183 184 185 186 187 188 189 190 191 192 193</DataArray>
        <DataArray type="Float64" Name="VonMises" format="ascii">37654.4141067 7869.952247 87824.9718607 7124.87758678 6304.98412642 7536.08118622 40331.3073668 38547.3029965 8223.05188743 13716.0218133 41802.8876092 37456.3076376 9890.29123951 18647.7065318 18327.7650777 16072.6505527 15186.9986006 9519.24053487 14090.1878661 13479.0880658 24833.8612049 24705.0551566 15215.3455104 15046.0139652 26064.7995858 26021.4473273 15399.92402 15356.0156868 35656.1384034 74215.0903241 58072.7263883 54265.2057902 58259.3139391 15764.4465387 26502.2662353 38597.1465443 23486.7719787 16338.9703225 32359.4690736 34701.2689205 34371.3531243 57605.9933368 36862.0284449 51658.7048797 21920.079942 44475.7285535 33171.5347674 29413.2351358 53762.9669791 8289.23770974 13186.276301 12498.9298957 76594.6665217 85379.2038376 12151.7537172 15367.4366723 11665.6424575 8978.8218293 11206.8590573 9532.81717118 52082.3358337 11115.4507279 11760.4971745 9655.87880488 9144.53211413 15556.9537295 51819.1337827 33595.3588111 11319.4669989 12655.4116408 24446.0975055 53025.6533531 32793.9423358 46111.0547554 28581.9653007 8082.08574631 9763.75341593 11793.1170363 46074.9789272 59829.6282666 57084.3154707 41757.5729011 25559.8992751 18569.4728713 42997.0440247 32993.2121298 20556.5402645 8244.07278606 22413.3374939 19794.4320412 25395.0906012 30750.0424356 40166.7324772 10690.8296679 23695.1937533 15988.180218 25330.7495027 19107.7071417 48709.675469 50014.6994002 15165.9773085 29135.5865563 48008.6321585 9307.81182987 71425.6992379 8267.44539221 5494.97522978 4056.42040413 7583.37650371 6693.20655709 33114.4269034 35439.3831624 30588.6135713 35274.8669806 9744.19064958 35515.5211332 33863.9471094 8940.3893164 11503.8289756 6775.28708912 8232.79027068 10446.7043127 65880.346203 76793.1241206 65319.6072554 75000.3431506 87824.9718607 7149.06861171 37654.4141067 6999.85391689 43809.1519341 8186.62251686 91671.703438 8646.19126494 6505.06602234 52300.5161252 57252.7955888 7799.60434667 6103.0674128 43809.1519341 91671.703438 7931.25919688 5026.10262164 7946.01797565 37654.4141067 91671.703438 87824.9718607 43809.1519341 4567.62341646 6071.69575827 37654.4141067 4457.31081656 6651.8871599 87824.9718607 52925.188081 6163.94574141 8122.8191127 54414.2675545 7346.61852809 6736.45374672 10056.4828744 94042.9883756 8628.16568564 89117.4583278 90975.0294336 89583.9339345 20184.5093043 14422.7293024 13891.9226046 18398.2750202 12827.3388339 44474.237813 55957.5219511 14706.9183688 19268.3933056 27657.1774672 28138.058771 19368.7160923 23703.6187739 34256.7183319 56961.7993228 49620.19155 58525.2215544 58202.8025755 59715.1366913 61944.1949753 86924.6890387 83453.0427671 72491.7609827 87427.3224151 86906.2946949 97873.0552958 27770.3550216 38705.3738641</DataArray>
        <DataArray type="Int32" Name="HasVonMises" format="ascii">1 1 1 1 1 1 1 1 1 1 1 1 1 1 1 1 1 1 1 1 1 1 1 1 1 1 1 1 1 1 1 1 1 1 1 1 1 1 1 1 1 1 1 1 1 1 1 1 1 1 1 1 1 1 1 1 1 1 1 1 1 1 1 1 1 1 1 1 1 1 1 1 1 1 1 1 1 1 1 1 1 1 1 1 1 1 1 1 1 1 1 1 1 1 1 1 1 1 1 1 1 1 1 1 1 1 1 1 1 1 1 1 1 1 1 1 1 1 1 1 1 1 1 1 1 1 1 1 1 1 1 1 1 1 1 1 1 1 1 1 1 1 1 1 1 1 1 1 1 1 1 1 1 1 1 1 1 1 1 1 1 1 1 1 1 1 1 1 1 1 1 1 1 1 1 1 1 1 1 1 1 1 1 1 1 1 1 1 1 1 1 1 1 1</DataArray>
        <DataArray type="Float64" Name="StressTrace" format="ascii">15471.1691734 -169.821557095 -257666.485644 -1866.38144834 -1279.84948945 -11853.2305926 461.468087386 6675.1378217 -8222.53398419 14519.7294206 -6668.32073502 4737.68971513 -25585.1697733 25811.9843061 28561.4347934 16225.8109018 -39499.8998681 -23857.4136317 3133.91748381 2870.0338011 41411.1813736 41048.1085564 -39731.7137691 16417.3119443 -54185.4339732 -53076.3637627 -2965.73351855 12195.1376717 115895.422858 29298.1657104 -77227.0940764 84015.9031773 -54654.6885424 -13597.4337383 16393.7186515 -899.505050496 18693.0015842 -20819.7827231 43835.3264302 44506.9166539 20059.6061424 38129.8780651 26218.2615792 -67415.5952707 14571.969572 -58209.5541269 17257.1439877 -42888.1517587 -124927.07024 -39.4763041098 18150.426029 1334.59351129 68467.4619716 -151687.477845 34406.5712949 -38470.0169546 6496.29844937 25589.125763 4196.65103052 -21677.2125383 91048.7404742 8936.31987091 35917.4015806 22397.511181 -23560.7306935 -38031.5783913 -105234.031366 -2383.6139982 -1852.31183961 11121.4575938 -9289.34397815 -102910.156706 9217.8989265 114185.052394 787.705072457 3331.76926367 8991.23192997 -2171.19942386 79973.018915 85026.192733 84590.8445339 -98735.3613289 -58110.6171502 -10039.5301974 -81027.0994602 40230.4115833 -7644.26173503 3526.95059758 -1045.01090885 -13673.4318297 9694.48375685 -3168.47285604 -86942.0859085 7918.63260106 -14062.6220705 2203.3112937 -64177.2603511 -475.475217567 -84026.2734677 73144.0965622 -7999.98690604 55792.2918787 97945.3343445 2472.94335547 -135820.880237 -443.923284343 -602.071027499 -4352.14787285 16202.176351 -11747.2780976 1206.28067676 -3957.53521253 17768.8977591 23270.5427413 3212.20971269 40817.1895823 41734.0853223 4939.97636765 12475.7949878 339.068235481 -8822.83596191 -1286.30701744 110126.566453 -156498.541508 113266.961332 -172713.014532 -257666.485644 -2420.19672142 15471.1691734 65.1026328077 431.632118635 -550.850112129 255113.705708 2768.37529465 -1204.90377585 -139389.942492 119681.583196 5016.51736502 -736.978633331 431.632118635 255113.705708 5665.24082299 -1296.98082181 4941.84793731 15471.1691734 255113.705708 -257666.485644 431.632118635 -2386.68312085 -4461.45478538 15471.1691734 -1463.65062987 -2428.49623585 -257666.485644 -123635.661825 -3426.0927385 2233.61892967 116114.234752 1606.81440754 -1894.59081618 110.517475902 85245.6599374 908.93835915 -75498.7220356 87451.6022741 -87715.5258722 -7828.99747894 -5464.5553175 4095.75795992 4675.13427079 -4052.38895802 -12415.3357451 34115.0982184 5034.49064189 5046.83528006 -10291.7429777 -14428.2354824 -8427.81862322 3598.27374293 -8142.38389743 11021.4574456 18396.9413079 21044.7144136 -4638.82892334 -18454.8594139 -27772.3819072 57306.2274823 -20465.2596996 35397.8695036 53955.0241736 -41824.860505 -41960.7938147 1251.6791588 21915.7954005</DataArray>
        <DataArray type="Float64" Name="HydrostaticPressure" format="ascii">-5157.05639113 56.6071856983 85888.828548 622.127149448 426.616496485 3951.07686422 -153.822695795 -2225.04594057 2740.8446614 -4839.90980686 2222.77357834 -1579.22990504 8528.38992443 -8603.99476871 -9520.47826447 -5408.60363393 13166.6332894 7952.47121057 -1044.63916127 -956.6779337 -13803.7271245 -13682.7028521 13243.9045897 -5472.43731475 18061.8113244 17692.1212542 988.577839516 -4065.04589056 -38631.8076193 -9766.05523679 25742.3646921 -28005.3010591 18218.2295141 4532.47791275 -5464.57288384 299.835016832 -6231.00052808 6939.92757437 -14611.7754767 -14835.6388846 -6686.53538081 -12709.959355 -8739.4205264 22471.8650902 -4857.32319065 19403.184709 -5752.38132923 14296.0505862 41642.3567467 13.1587680366 -6050.14200968 -444.864503764 -22822.4873239 50562.492615 -11468.8570983 12823.3389849 -2165.43281646 -8529.70858766 -1398.88367684 7225.73751278 -30349.5801581 -2978.7732903 -11972.4671935 -7465.83706034 7853.57689783 12677.1927971 35078.0104553 794.537999401 617.437279871 -3707.15253127 3096.44799272 34303.3855687 -3072.6329755 -38061.6841314 -262.568357486 -1110.58975456 -2997.07730999 723.733141286 -26657.6729717 -28342.0642443 -28196.948178 32911.7871096 19370.2057167 3346.51006579 27009.0331534 -13410.1371944 2548.08724501 -1175.65019919 348.336969616 4557.81060991 -3231.49458562 1056.15761868 28980.6953028 -2639.54420035 4687.54069015 -734.4370979 21392.420117 158.491739189 28008.7578226 -24381.3655207 2666.66230201 -18597.4306262 -32648.4447815 -824.314451823 45273.6267456 147.974428114 200.6903425 1450.71595762 -5400.72545033 3915.75936587 -402.093558921 1319.17840418 -5922.9659197 -7756.84758042 -1070.7365709 -13605.7298608 -13911.3617741 -1646.65878922 -4158.59832928 -113.02274516 2940.94532064 428.769005812 -36708.8554844 52166.1805026 -37755.6537773 57571.004844 85888.828548 806.732240472 -5157.05639113 -21.7008776026 -143.877372878 183.616704043 -85037.9019028 -922.791764883 401.634591951 46463.3141639 -39893.8610654 -1672.17245501 245.659544444 -143.877372878 -85037.9019028 -1888.41360766 432.326940604 -1647.28264577 -5157.05639113 -85037.9019028 85888.828548 -143.877372878 795.561040284 1487.15159513 -5157.05639113 487.883543292 809.498745284 85888.828548 41211.8872748 1142.03091283 -744.539643225 -38704.7449173 -535.604802514 631.530272061 -36.8391586341 -28415.2199791 -302.97945305 25166.2406785 -29150.5340914 29238.5086241 2609.66582631 1821.51843917 -1365.25265331 -1558.37809026 1350.79631934 4138.44524836 -11371.6994061 -1678.1635473 -1682.27842669 3430.58099257 4809.41182746 2809.27287441 -1199.42458098 2714.12796581 -3673.81914853 -6132.31376932 -7014.90480452 1546.27630778 6151.61980463 9257.46063572 -19102.0758274 6821.7532332 -11799.2898345 -17985.0080579 13941.6201683 13986.9312716 -417.226386268 -7305.2651335</DataArray>
        <DataArray type="Float64" Name="PrincipalStress" NumberOfComponents="3" format="ascii">-15745.8606455 3570.26980925 27646.7600097 -3745.88233897 -1442.65365778 5018.71443965 -144349.288017 -59461.4966871 -53855.7009404 -4921.33270806 -221.500417953 3276.45167767 -3816.16488674 -884.552893625 3420.86829091 -8513.92209385 -3490.69033897 151.381840177 -23547.0883414 1008.60194405 22999.9544848 -19022.4680511 330.594146163 25367.0117266 -7840.85819457 -1932.07995694 1550.40416732 -893.740819349 1537.9678741 13875.5023658 -26268.4837768 -2400.19183433 22000.3548761 -19363.4130301 272.919715491 23828.1830297 -14564.8654715 -7807.25376549 -3213.05053628 1055.50863287 3823.84788615 20932.6277871 1285.69467726 5820.56583164 21455.1742845 -4721.82354939 7450.43075632 13497.2036949 -23111.9608504 -9836.98105573 -6550.95796199 -14107.9732681 -6211.75393901 -3537.68642456 -7271.81286394 1420.63470522 8985.09564254 -7023.47981366 1369.08296716 8524.4306476 2699.25862025 8721.50612303 29990.4166304 2451.12393822 8866.07601395 29730.9086043 -23162.6456353 -10123.7852879 -6445.28284599 -4179.05395743 7932.30413304 12664.0617686 -35310.4845972 -11259.665282 -7615.28409391 -35003.9800271 -10000.5049439 -8071.87879182 -10822.4769133 1374.28183423 6482.4615605 -4746.15198531 3956.83270144 12984.4569556 23204.5843125 30683.7679849 62007.0705606 -30990.9230252 5852.3353393 54436.7533963 -64262.3907253 -9844.32716512 -3120.37618596 1494.89364475 19942.2126865 62578.796846 -57051.9365023 615.567617764 1781.68034208 -13260.0480093 -5239.33369004 4901.94796105 -10078.0548017 5959.66412545 20512.1093278 -21345.7223225 -2598.07998892 23044.297261 -9374.83698494 12929.5962801 15138.2422891 -17073.0472117 -5334.18151536 1587.44600391 276.22482297 7818.38788053 35740.7137267 -3960.34083333 12553.4725776 35913.7849097 -12183.8196725 4864.31917478 27379.1066402 -14087.4739418 2284.87839204 49932.4736149 -12922.9323717 9521.05815301 29620.1357979 -56417.9187548 -10527.7225348 -469.953981193 -7097.97882669 3557.17461359 18112.7737851 -48433.6862066 -10111.5307945 335.662874094 -11460.0764941 2334.38283525 26382.8376465 -32375.7558492 -11830.592243 1318.19633337 -77078.7832474 -28580.3540922 -19267.9329005 -4424.82988681 -689.455935933 5074.80951863 -660.133731611 4487.10503231 14323.4547283 -6633.12272879 175.841742548 7791.87449753 -16903.1102612 14900.6023457 70469.9698871 -105388.81271 -36394.1599094 -9904.50522604 5762.00528033 9342.76617527 19301.7998393 -22888.4029292 -9446.1727749 -6135.44125054 -3349.47626416 174.020331551 9671.75438198 4135.32929856 7206.93324967 14246.8632148 -5040.74261639 1337.99976144 7899.39388547 -13276.3501417 -5883.90959648 -2516.95280012 6246.37412748 20757.0963076 64045.2700391 -3291.61355668 2694.01034661 9533.92308097 6579.18337194 9740.87766243 19597.3405462 2565.00203963 6301.69688826 13530.8122531 -13719.8257021 -6357.2891556 -3483.61583581 -22808.5143255 -9532.51602921 -5690.54803665 -68447.9784237 -26133.0611612 -10652.991781 -22494.9813412 5256.29687462 14855.0704684 -7610.70123308 423.424856683 5334.96453678 -2234.21437746 1490.19676263 11865.4752086 -16125.3975057 -5060.6966282 11896.7501557 -69401.6680369 -20404.2987194 -13104.1899498 -15683.1125408 2721.81660104 22179.1948662 20446.2829608 25051.5856812 68687.1837521 -14552.9949039 -2706.7350594 18047.4350358 -2665.72814937 -329.604838396 6327.10225144 -3508.01516841 6050.15139236 6449.09570602 -7850.25096812 -36.0195486389 5715.0710929 5434.39130432 18038.7704563 56499.8571544 -2096.41135513 21238.2375466 65884.3665416 819.039480289 18993.8964091 64777.9086445 -60543.1411339 -22030.873737 -16161.346458 -36144.8148745 -13576.9037121 -8388.89856366 -12993.0789541 -5242.56753524 8196.11629196 -53928.089462 -22080.1499851 -5018.86001309 -4145.812139 10712.3912099 33663.8325124 -10647.0186923 -8072.68011434 11075.4370716 -2942.44611824 82.5762038302 6386.82051199 -14637.2861696 3011.69395376 10580.581307 -14512.3962744 -7082.92948749 7921.89393217 -13499.3039536 9354.01756292 13839.7701475 -20719.5713521 3755.49046419 13795.6080318 -54262.5823988 -23982.2930828 -8697.21042691 -4050.27225764 3855.43548525 8113.46937345 -18114.5120374 -5181.09319687 9232.98316379 -7178.70745004 -1493.15667945 10875.1754232 -37512.8368924 -17688.9780032 -8975.44545555 -12385.4809873 2860.32338895 9049.68238082 -59191.0150705 -20267.955272 -4567.30312517 889.95401194 15634.6684303 56619.47412 -11965.5615875 -1454.77138092 5420.34606243 6622.16368825 11340.9885272 37829.1396632 12339.2827847 21380.3810284 64225.6705315 -3513.5000274 -849.430757674 6835.87414054 -90764.5910196 -34713.0791977 -10343.2100196 -5114.99202637 266.69333354 4404.37540849 -3446.14078631 -49.4290700509 2893.49882886 -4052.24615106 -789.387582652 489.485860864 1397.64796957 4728.17972221 10076.3486592 -7848.41514093 -3775.26514768 -123.597808998 -19722.5330426 2604.93426338 18323.879456 -22864.1047026 1056.13804257 17850.4314475 -9155.2127146 1571.9687411 25352.1417326 -11094.0853162 5006.36121736 29358.26684 -4352.1815555 684.822599152 6879.56866903 -3645.66588701 8187.11373618 36275.7417331 -3359.69390278 9955.67780441 35138.1014207 -2873.37019992 542.074670378 7271.27189719 -1927.8902806 3160.965749 11242.7195194 -3245.13471425 -823.923927344 4408.12687708 -8073.37650307 -2058.93809889 1309.47864006 -6824.37276402 381.551684897 5156.51406169 7424.4046701 23004.0226553 79698.1391279 -102464.054721 -35282.8865941 -18751.6001921 9776.13659011 22847.713602 80643.1111399 -107423.444448 -35971.6238869 -29317.946197 -144349.288017 -59461.4966871 -53855.7009404 -5179.20433402 -262.90596239 3021.913575 -15745.8606455 3570.26980925 27646.7600097 -3841.83167632 -313.13576012 4220.07006925 -25127.1842521 99.6074119926 25459.2089588 -4601.72387119 -749.542316653 4800.41607571 50290.1389056 58872.393625 145951.173178 -2866.75864197 -943.862979034 6578.99691565 -4254.77959944 -198.503359345 3248.37918294 -80445.6171519 -36231.1301733 -22713.1951664 20484.2637129 21136.787312 78060.5321714 -1785.11973206 37.2949935819 6764.3421035 -3572.1213062 -611.418492455 3446.56116532 -25127.1842521 99.6074119926 25459.2089588 50290.1389056 58872.393625 145951.173178 -2191.11108418 1015.03340086 6841.31850631 -2822.73358945 -1270.60246476 2796.3552324 -1910.58060018 27.3015898448 6825.12694764 -15745.8606455 3570.26980925 27646.7600097 50290.1389056 58872.393625 145951.173178 -144349.288017 -59461.4966871 -53855.7009404 -25127.1842521 99.6074119926 25459.2089588 -3619.14544321 -371.150678763 1603.61300113 -5246.67462693 -906.615383149 1691.8352247 -15745.8606455 3570.26980925 27646.7600097 -3240.24375723 -81.7162427665 1858.30937013 -5107.42760954 393.391409803 2285.53996389 -144349.288017 -59461.4966871 -53855.7009404 -76109.7569587 -28268.0454527 -19257.8594132 -5080.82625278 -187.108880897 1841.84239518 -3649.69009134 200.951031644 5682.35798937 17345.9598328 23990.7807964 74777.4941226 -2450.56188483 -1333.31140551 5390.68769789 -4984.89460763 589.763362935 2500.54042851 -4311.82153638 -2207.85888115 6630.19789343 -20739.6949331 19289.952879 86695.4019915 -5358.29788906 2251.83857413 4015.39767407 -78877.457232 -20302.3589946 23681.094191 -17867.8042227 19481.7654465 85837.6410503 -83002.6998825 -24876.4605851 20163.6345955 -14889.6819198 -1234.70854975 8295.39299064 -10957.2045355 149.633797159 5343.01542085 -6041.16026351 253.140811755 9883.77741168 -8549.57062549 595.35949958 12629.3453967 -9133.63012084 -528.173541183 5609.414704 -24400.7439337 -12752.927806 24738.3359946 -18637.9146869 7184.96185281 45568.0510525 -5296.83558365 -801.736346912 11133.0625724 -9096.17013326 1019.57916893 13123.4262444 -20570.1990379 -747.050513611 11025.5065738 -22491.4755779 -1392.88453276 9456.12462827 -14767.923991 -1048.00989964 7388.11526744 -12885.4699387 2037.11634451 14446.6273372 -19715.0576922 -7419.74282444 18992.4166192 -30493.0877116 6404.02495291 35110.5202043 -24408.4236795 10395.0190929 32410.3458946 -21078.3755352 -2386.47311841 44509.5630672 -35967.798872 154.558126679 31174.411822 -43733.6524368 1267.2536126 24011.5394103 -48133.6629927 -1882.04702814 22243.3281137 -22545.7897163 5030.08725354 74821.929945 -59315.9878394 3464.89366556 35385.8344743 -24158.8741628 1815.12866915 57741.6149972 -23759.2648869 3630.63000694 74083.6590536 -65427.7456426 -11208.3853737 34811.2705112 -75558.6099501 -1902.46281366 35500.2789491 -16722.2142517 2925.27309371 15048.6203168 -12366.666382 2679.9035609 31602.5582216</DataArray>
        <DataArray type="Float64" Name="PrincipalStrain" NumberOfComponents="3" format="ascii">-1.19576045672e-07 0 1.49044939336e-07 -2.29461932073e-08 -8.68811089516e-09 3.13108344699e-08 -5.25495851087e-07 0 3.47025450985e-08 -2.77991337427e-08 1.2950661484e-09 2.29490553118e-08 -2.17955214568e-08 -3.6474472137e-09 2.30051601191e-08 -3.57720454486e-08 -4.67584887081e-09 1.78703122382e-08 -1.46426929858e-07 5.58448619549e-09 1.41721430495e-07 -1.27294046728e-07 -7.48937598332e-09 1.47497970943e-07 -3.67921688461e-08 -2.14017851267e-10 2.13442172037e-08 -2.62751518635e-08 -1.12217170945e-08 6.51534964257e-08 -1.53088250902e-07 -5.33215792438e-09 1.45718845521e-07 -1.26636875493e-07 -5.07862516382e-09 1.40739671543e-07 -5.36132103856e-08 -1.1780376015e-08 1.66599296896e-08 -3.03401622338e-08 -1.32028239993e-08 9.27086706257e-08 -3.28429874171e-08 -4.76997550898e-09 9.20156958659e-08 -5.24100661178e-08 2.29419843461e-08 6.03743882513e-08 -8.66456149766e-08 -4.46716862862e-09 1.58748790945e-08 -5.32530531385e-08 -4.37169538665e-09 1.21820558933e-08 -4.94930093727e-08 4.31738034112e-09 5.11449956674e-08 -4.7578732848e-08 4.37522722368e-09 4.8670236674e-08 -4.24491343132e-08 -5.16855453406e-09 1.26496129559e-07 -4.34665307012e-08 -3.75492261332e-09 1.25408326755e-07 -8.66282152148e-08 -5.91146068325e-09 1.68602210998e-08 -4.93236367997e-08 2.56514370937e-08 5.4943270076e-08 -1.41180951354e-07 7.70507297754e-09 3.02655279518e-08 -1.40867928126e-07 1.39154890562e-08 2.58546033308e-08 -6.27595234843e-08 1.27442211432e-08 4.43662861153e-08 -4.68025661067e-08 7.07305338268e-09 6.29583463843e-08 -2.19174631005e-08 2.43822453473e-08 2.18288404149e-07 -2.33703093552e-07 -5.62577986678e-09 2.95134903343e-07 -2.87490379619e-07 4.93833471822e-08 9.10078056246e-08 -1.1076861531e-07 3.4290739968e-09 2.67369833079e-07 -2.75100528049e-07 8.18887831706e-08 8.91075762259e-08 -6.26611061455e-08 -1.30090651218e-08 4.97702974802e-08 -8.58075563697e-08 1.34735607982e-08 1.03560126336e-07 -1.30855178591e-07 -1.47983450974e-08 1.43940180735e-07 -8.47389931224e-08 5.33360699469e-08 6.70086404788e-08 -7.59477455154e-08 -3.27857691921e-09 3.95695934382e-08 -6.09119317104e-08 -1.42223508779e-08 1.58630142455e-07 -8.80977051405e-08 1.41306635938e-08 1.58742120888e-07 -1.04080225795e-07 1.45587183087e-09 1.40833127569e-07 -1.41679426399e-07 -4.03267690947e-08 2.54634534666e-07 -1.17453764557e-07 2.14852244055e-08 1.45908086017e-07 -2.52945789524e-07 3.11363775524e-08 9.33987543127e-08 -6.47569683156e-08 1.2035053623e-09 9.13095954714e-08 -2.16671075383e-07 2.05613152632e-08 8.52344189257e-08 -9.5596393517e-08 -1.02021214785e-08 1.38669265448e-07 -1.39152557506e-07 -1.19682113725e-08 6.94290512429e-08 -2.98687129284e-07 1.54124167698e-09 5.91895633399e-08 -2.7335409341e-08 -4.21166583562e-09 3.14718822165e-08 -3.00157221895e-08 1.84813682519e-09 6.27398254197e-08 -4.29687504801e-08 -8.18018038455e-10 4.63288513972e-08 -2.02448961576e-07 -5.56883591471e-09 3.3843201077e-07 -4.357105389e-07 -8.60078347015e-09 1.55382793141e-07 -1.34826882097e-08 8.68392685425e-09 7.03350876313e-08 -8.6732946293e-08 -3.51914057614e-09 1.69758640985e-08 -3.00152794201e-08 -8.20315763713e-09 5.05923388655e-08 -1.09562363846e-08 8.05845474131e-09 5.16389735728e-08 -3.7199812907e-08 2.28763990817e-09 4.29057940093e-08 -5.12194829655e-08 -5.45675578059e-09 1.53863101016e-08 -9.14015989359e-08 -1.57331877309e-09 2.66401090041e-07 -3.3142826595e-08 3.91103566343e-09 4.62533525904e-08 -1.05822956698e-08 8.99009755703e-09 7.00062963615e-08 -1.61178604895e-08 7.01406000204e-09 5.17657265465e-08 -5.12740676411e-08 -5.69646044877e-09 1.20929458166e-08 -8.68647385986e-08 -4.67998724083e-09 1.91036241417e-08 -2.73391250196e-07 -1.14417623799e-08 8.43872385451e-08 -1.35849483543e-07 3.5944143507e-08 9.53651228968e-08 -4.44677050053e-08 5.26736126463e-09 3.56721307129e-08 -2.97186474707e-08 -6.66276898437e-09 5.75651452052e-08 -8.65533979234e-08 -1.80576305867e-08 8.69170399803e-08 -2.82614863982e-07 2.07021841745e-08 6.58933337002e-08 -1.10254361814e-07 3.68091382575e-09 1.24131350705e-07 -3.65492755677e-08 -8.04025872686e-09 2.62084872188e-07 -9.12152614135e-08 -1.78812718998e-08 1.10596923928e-07 -2.12617970156e-08 -6.80008128103e-09 3.44081054655e-08 -3.45609014187e-08 2.46087011004e-08 2.70783563754e-08 -4.54950782448e-08 2.87873530441e-09 3.84807249902e-08 -8.06056998995e-08 -2.57859086334e-09 2.35513850601e-07 -1.34443774198e-07 1.00088142411e-08 2.86389612782e-07 -1.15773819218e-07 -3.26280013473e-09 2.80162037513e-07 -2.33740357502e-07 4.66891685982e-09 4.10040857301e-08 -1.40738448532e-07 -1.03233181264e-09 3.10838905348e-08 -6.609115991e-08 -1.81118035077e-08 6.5080048756e-08 -2.18087554584e-07 -2.0933643536e-08 8.46838658145e-08 -8.31365678843e-08 8.84278618043e-09 1.50923137101e-07 -5.4989741807e-08 -3.9053360134e-08 7.94826033981e-08 -2.32536434904e-08 -4.52731482998e-09 3.44989594586e-08 -8.91188987993e-08 2.01366924407e-08 6.69917093894e-08 -7.0305169561e-08 -2.43132323087e-08 6.8573769813e-08 -9.74163822223e-08 4.40565604988e-08 7.18255050699e-08 -1.23737623337e-07 2.77746640965e-08 8.99277728484e-08 -2.11708244504e-07 -2.42588344528e-08 7.0363105798e-08 -3.63854462631e-08 1.25546492881e-08 3.89139066913e-08 -9.20479953688e-08 -1.19839739752e-08 7.72460225431e-08 -4.75872051103e-08 -1.23909384352e-08 6.41749269621e-08 -1.40540523118e-07 -1.7821396661e-08 3.61195191101e-08 -7.59927748489e-08 1.83860141472e-08 5.67010936206e-08 -2.46383035959e-07 -5.43076101597e-09 9.17637522742e-08 -9.8982327396e-08 -7.70552385398e-09 2.4600993994e-07 -6.26439713905e-08 2.42282512673e-09 4.49830759665e-08 -3.87089274709e-08 -9.49715465807e-09 1.54477114279e-07 -6.35358699203e-08 -7.56716650698e-09 2.57665578036e-07 -2.52830144869e-08 -8.79115710294e-09 3.8784539886e-08 -3.67846210736e-07 -2.08606613616e-08 1.30000433551e-07 -3.10300602332e-08 2.28513485193e-09 2.78993572207e-08 -2.04731510188e-08 5.54111986589e-10 1.87722370751e-08 -1.8867979212e-08 1.3306690686e-09 9.24750467132e-09 -1.44938597374e-08 6.12371777894e-09 3.9231430246e-08 -3.18036012092e-08 -6.58886315572e-09 1.60166965599e-08 -1.23815129326e-07 1.44025254255e-08 1.1171028138e-07 -1.35886074046e-07 1.21916191386e-08 1.16156292597e-07 -8.20592659843e-08 -1.56529045919e-08 1.31557690117e-07 -1.01921303492e-07 -2.25187257053e-09 1.48498019379e-07 -3.15309473141e-08 -3.49493023377e-10 3.79989350283e-08 -8.08786787038e-08 -7.62813817927e-09 1.66253844659e-07 -8.04182270015e-08 2.01026451915e-09 1.57901458334e-07 -2.48446389056e-08 -3.70140875621e-09 3.79555264574e-08 -2.97571231483e-08 1.74531893973e-09 5.1775223233e-08 -2.0573312377e-08 -5.58486464853e-09 2.68040212836e-08 -3.73739936449e-08 -1.41755904691e-10 2.07103477174e-08 -4.04085356571e-08 4.19956807427e-09 3.37588589782e-08 -1.11363066023e-07 -1.49178118292e-08 3.36045766335e-07 -4.10731946122e-07 5.1514756189e-09 1.07488010488e-07 -1.01291003964e-07 -2.03717177002e-08 3.37409314678e-07 -4.18269397253e-07 2.40513966982e-08 6.52408300171e-08 -5.25495851087e-07 0 3.47025450985e-08 -2.86043172276e-08 1.82991078723e-09 2.21645079234e-08 -1.19576045672e-07 0 1.49044939336e-07 -2.38757712812e-08 -2.03146322856e-09 2.60312395247e-08 -1.56165853159e-07 0 1.56988009575e-07 -2.76999333281e-08 -3.85309513338e-09 3.05037901527e-08 -5.31282435008e-08 0 5.39059111516e-07 -2.17014229664e-08 -9.79778314828e-09 3.67723019141e-08 -2.46178206977e-08 4.92460788607e-10 2.1830305098e-08 -2.98868188333e-07 -2.51594594183e-08 5.85229953863e-08 -4.41663434863e-08 -4.01269116822e-08 3.12258175542e-07 -1.82171945771e-08 -6.93557960881e-09 3.47080453574e-08 -2.10603052765e-08 -2.73214500092e-09 2.2388681452e-08 -1.56165853159e-07 0 1.56988009575e-07 -5.31282435008e-08 0 5.39059111516e-07 -2.1657222173e-08 -1.80966107513e-09 3.42578181491e-08 -1.56212353321e-08 -6.01280456022e-09 1.91636002317e-08 -1.8887186483e-08 -6.8907729257e-09 3.51910030988e-08 -1.19576045672e-07 0 1.49044939336e-07 -5.31282435008e-08 0 5.39059111516e-07 -5.25495851087e-07 0 3.47025450985e-08 -1.56165853159e-07 0 1.56988009575e-07 -1.89946863806e-08 1.11194787554e-09 1.33366754177e-08 -2.61059075209e-08 7.61125892953e-10 1.68467725129e-08 -1.19576045672e-07 0 1.49044939336e-07 -1.79677223592e-08 1.58506701603e-09 1.35947493816e-08 -2.81481286745e-08 5.90456049285e-09 1.76178610658e-08 -5.25495851087e-07 0 3.47025450985e-08 -2.9453326428e-07 1.62971170885e-09 5.74070538583e-08 -2.6558315748e-08 3.73612512564e-09 1.62962996918e-08 -2.57842037983e-08 -1.9469016084e-09 3.19856176537e-08 -5.84977268707e-08 -1.73631209059e-08 2.97030818733e-07 -1.7465594155e-08 -1.05492816639e-08 3.10754746904e-08 -2.81523130717e-08 6.3574743651e-09 1.81860942949e-08 -2.6850110667e-08 -1.38255799441e-08 4.0886200089e-08 -2.50168101878e-07 -2.36552018326e-09 4.14906307656e-07 -3.44688988739e-08 1.26414697077e-08 2.35587403264e-08 -3.80433703766e-07 -1.78259527729e-08 2.54452566947e-07 -2.35541077008e-07 -4.32945524681e-09 4.06445012777e-07 -3.88518343265e-07 -2.86892428525e-08 2.5013039398e-07 -8.09899392957e-08 3.54084823339e-09 6.2536714912e-08 -6.00238061948e-08 8.73281205503e-09 4.08823173445e-08 -4.3248741574e-08 -4.28402063188e-09 5.53342059391e-08 -5.96046766399e-08 -2.99320443707e-09 7.15028987356e-08 -5.07523927128e-08 2.51948135175e-09 4.05140752505e-08 -1.3331603043e-07 -6.12105020202e-08 1.70878273888e-07 -1.64113421707e-07 -4.25751931845e-09 2.33352080489e-07 -3.99820640539e-08 -1.2155259255e-08 6.17268292934e-08 -6.35193893203e-08 -8.98084116245e-10 7.40304930176e-08 -1.1263683741e-07 1.00778915506e-08 8.29556259014e-08 -1.18621179079e-07 1.19891464387e-08 7.91496793403e-08 -7.93807409588e-08 5.5520605592e-09 5.77756925459e-08 -8.49075859203e-08 7.4703291666e-09 8.42911115021e-08 -1.10413618241e-07 -3.42997642978e-08 1.29204079877e-07 -2.04511672661e-07 2.38990247862e-08 2.01605900152e-07 -1.77381110361e-07 3.80687734686e-08 1.7435412986e-07 -1.60549059618e-07 -4.48372827524e-08 2.45471512682e-07 -2.16030904079e-07 7.58368686517e-09 1.99611352598e-07 -2.44368049256e-07 3.42089881931e-08 1.75006947893e-07 -2.58295463421e-07 2.80240639789e-08 1.77371624381e-07 -2.21435213694e-07 -5.07274038813e-08 3.8131733659e-07 -3.37958125149e-07 5.06854270243e-08 2.48291251078e-07 -2.00123320298e-07 -3.9331874196e-08 3.06879707835e-07 -2.24159769548e-07 -5.4603277348e-08 3.81534521512e-07 -3.45279100875e-07 -9.63544206784e-09 2.75248141981e-07 -4.07799784718e-07 4.81668404126e-08 2.79707622753e-07 -1.05306582261e-07 1.63207203532e-08 9.13700126864e-08 -1.07863832937e-07 -1.4718399957e-08 1.64326605086e-07</DataArray>
        <DataArray type="Float64" Name="ShellTopVonMises" format="ascii">0 0 0 0 0 0 0 0 0 0 0 0 0 0 0 0 0 0 0 0 0 0 0 0 0 0 0 0 0 0 0 0 0 0 0 0 0 0 0 0 0 0 0 0 0 0 0 0 0 0 0 0 0 0 0 0 0 0 0 0 0 0 0 0 0 0 0 0 0 0 0 0 0 0 0 0 0 0 0 0 0 0 0 0 0 0 0 0 0 0 0 0 0 0 0 0 0 0 0 0 0 0 0 0 0 0 0 0 0 0 0 0 0 0 0 0 0 0 0 0 0 0 0 0 0 0 0 0 0 0 0 0 0 0 0 0 0 0 0 0 0 0 0 0 0 0 0 0 0 0 0 0 0 0 0 0 0 0 0 0 0 0 0 0 0 0 0 0 0 0 0 0 0 0 0 0 0 0 0 0 0 0 0 0 0 0 0 0 0 0 0 0 0 0</DataArray>
        <DataArray type="Float64" Name="ShellBottomVonMises" format="ascii">0 0 0 0 0 0 0 0 0 0 0 0 0 0 0 0 0 0 0 0 0 0 0 0 0 0 0 0 0 0 0 0 0 0 0 0 0 0 0 0 0 0 0 0 0 0 0 0 0 0 0 0 0 0 0 0 0 0 0 0 0 0 0 0 0 0 0 0 0 0 0 0 0 0 0 0 0 0 0 0 0 0 0 0 0 0 0 0 0 0 0 0 0 0 0 0 0 0 0 0 0 0 0 0 0 0 0 0 0 0 0 0 0 0 0 0 0 0 0 0 0 0 0 0 0 0 0 0 0 0 0 0 0 0 0 0 0 0 0 0 0 0 0 0 0 0 0 0 0 0 0 0 0 0 0 0 0 0 0 0 0 0 0 0 0 0 0 0 0 0 0 0 0 0 0 0 0 0 0 0 0 0 0 0 0 0 0 0 0 0 0 0 0 0</DataArray>
      </CellData>
    </Piece>
  </UnstructuredGrid>
</VTKFile>
