$MeshFormat
4.1 0 8
$EndMeshFormat
$PhysicalNames
8
0 6 "anchor_origin"
0 7 "anchor_x"
0 8 "anchor_xy"
2 2 "x_min"
2 3 "x_max"
2 4 "y_min"
2 5 "z_min"
3 1 "domain"
$EndPhysicalNames
$Entities
8 12 6 1
1 0 0 0.2 0 
2 0 0 0 1 6 
3 0 0.2 0.2 0 
4 0 0.2 0 1 8 
5 1 0 0.2 0 
6 1 0 0 1 7 
7 1 0.2 0.2 0 
8 1 0.2 0 0 
1 -1e-07 -1e-07 -1.000000000028756e-07 1e-07 1e-07 0.2000001 0 2 2 -1 
2 -1e-07 -1.000000000028756e-07 0.1999999 1e-07 0.2000001 0.2000001 0 2 1 -3 
3 -1e-07 0.1999999 -1.000000000028756e-07 1e-07 0.2000001 0.2000001 0 2 4 -3 
4 -1e-07 -1.000000000028756e-07 -1e-07 1e-07 0.2000001 1e-07 0 2 2 -4 
5 0.9999999000000001 -1e-07 -1.000000000028756e-07 1.0000001 1e-07 0.2000001 0 2 6 -5 
6 0.9999999000000001 -1.000000000028756e-07 0.1999999 1.0000001 0.2000001 0.2000001 0 2 5 -7 
7 0.9999999000000001 0.1999999 -1.000000000028756e-07 1.0000001 0.2000001 0.2000001 0 2 8 -7 
8 0.9999999000000001 -1.000000000028756e-07 -1e-07 1.0000001 0.2000001 1e-07 0 2 6 -8 
9 -9.999999994736442e-08 -1e-07 -1e-07 1.0000001 1e-07 1e-07 0 2 2 -6 
10 -9.999999994736442e-08 -1e-07 0.1999999 1.0000001 1e-07 0.2000001 0 2 1 -5 
11 -9.999999994736442e-08 0.1999999 -1e-07 1.0000001 0.2000001 1e-07 0 2 4 -8 
12 -9.999999994736442e-08 0.1999999 0.1999999 1.0000001 0.2000001 0.2000001 0 2 3 -7 
1 -1e-07 -1.000000000028756e-07 -1.000000000028756e-07 1e-07 0.2000001 0.2000001 1 2 4 -1 4 3 -2 
2 0.9999999000000001 -1.000000000028756e-07 -1.000000000028756e-07 1.0000001 0.2000001 0.2000001 1 3 4 -5 8 7 -6 
3 -9.999999994736442e-08 -1e-07 -1.000000000028756e-07 1.0000001 1e-07 0.2000001 1 4 4 -9 1 10 -5 
4 -9.999999994736442e-08 0.1999999 -1.000000000028756e-07 1.0000001 0.2000001 0.2000001 0 4 -11 3 12 -7 
5 -9.999999994736442e-08 -1.000000000028756e-07 -1e-07 1.0000001 0.2000001 1e-07 1 5 4 -4 9 8 -11 
6 -9.999999994736442e-08 -1.000000000028756e-07 0.1999999 1.0000001 0.2000001 0.2000001 0 4 -2 10 6 -12 
1 -9.999999994736442e-08 -1.000000000028756e-07 -1.000000000028756e-07 1.0000001 0.2000001 0.2000001 1 1 6 -1 2 -3 4 -5 6 
$EndEntities
$Nodes
27 68 1 68
0 1 0 1
1
0 0 0.2
0 2 0 1
2
0 0 0
0 3 0 1
3
0 0.2 0.2
0 4 0 1
4
0 0.2 0
0 5 0 1
5
1 0 0.2
0 6 0 1
6
1 0 0
0 7 0 1
7
1 0.2 0.2
0 8 0 1
8
1 0.2 0
1 1 0 1
9
0 0 0.1000000000000001
1 2 0 1
10
0 0.1000000000000001 0.2
1 3 0 1
11
0 0.2 0.1000000000000001
1 4 0 1
12
0 0.1000000000000001 0
1 5 0 1
13
1 0 0.1000000000000001
1 6 0 1
14
1 0.1000000000000001 0.2
1 7 0 1
15
1 0.2 0.1000000000000001
1 8 0 1
16
1 0.1000000000000001 0
1 9 0 5
17
18
19
20
21
0.1666666666666664 0 0
0.333333333333333 0 0
0.4999999999999998 0 0
0.6666666666666665 0 0
0.8333333333333331 0 0
1 10 0 5
22
23
24
25
26
0.1666666666666664 0 0.2
0.333333333333333 0 0.2
0.4999999999999998 0 0.2
0.6666666666666665 0 0.2
0.8333333333333331 0 0.2
1 11 0 5
27
28
29
30
31
0.1666666666666664 0.2 0
0.333333333333333 0.2 0
0.4999999999999998 0.2 0
0.6666666666666665 0.2 0
0.8333333333333331 0.2 0
1 12 0 5
32
33
34
35
36
0.1666666666666664 0.2 0.2
0.333333333333333 0.2 0.2
0.4999999999999998 0.2 0.2
0.6666666666666665 0.2 0.2
0.8333333333333331 0.2 0.2
2 1 0 4
37
38
39
40
0 0.05227769679300298 0.05227769679300298
0 0.07500000000000001 0.1250000000000001
0 0.1285046161321672 0.07017128279883386
0 0.14375 0.14375
2 2 0 4
41
42
43
44
1 0.05227769679300298 0.05227769679300298
1 0.07500000000000001 0.1250000000000001
1 0.1285046161321672 0.07017128279883386
1 0.14375 0.14375
2 3 0 6
45
46
47
48
49
50
0.2499999999999996 0 0.1
0.1018253968253967 0 0.1
0.7499999999999997 0 0.09999999999999994
0.8981746031746032 0 0.09999999999999998
0.4166666666666665 0 0.1
0.5833333333333331 0 0.1
2 4 0 6
51
52
53
54
55
56
0.2499999999999997 0.2 0.1
0.1018253968253967 0.2 0.1
0.5833333333333331 0.2 0.1
0.4166666666666664 0.2 0.1
0.7499999999999997 0.2 0.1
0.8981746031746032 0.2 0.1
2 5 0 6
57
58
59
60
61
62
0.2499999999999996 0.09999999999999999 0
0.1018253968253967 0.1 0
0.5833333333333331 0.1 0
0.4166666666666665 0.1 0
0.7499999999999997 0.1 0
0.8981746031746032 0.1 0
2 6 0 6
63
64
65
66
67
68
0.2499999999999996 0.09999999999999999 0.2
0.1018253968253967 0.1 0.2
0.5833333333333331 0.1 0.2
0.4166666666666665 0.1 0.2
0.7499999999999997 0.1 0.2
0.8981746031746032 0.09999999999999998 0.2
3 1 0 0
$EndNodes
$Elements
8 223 1 223
0 2 15 1
1 2 
0 4 15 1
2 4 
0 6 15 1
3 6 
2 1 2 14
4 9 1 38 
5 1 10 38 
6 2 9 37 
7 12 2 37 
8 10 3 40 
9 3 11 40 
10 11 4 39 
11 4 12 39 
12 37 9 38 
13 38 10 40 
14 11 39 40 
15 12 37 39 
16 37 38 39 
17 39 38 40 
2 2 2 14
18 13 42 5 
19 5 42 14 
20 6 41 13 
21 16 41 6 
22 14 44 7 
23 7 44 15 
24 15 43 8 
25 8 43 16 
26 41 42 13 
27 42 44 14 
28 15 44 43 
29 16 43 41 
30 41 43 42 
31 43 44 42 
2 3 2 26
32 1 9 46 
33 22 1 46 
34 9 2 46 
35 2 17 46 
36 13 5 48 
37 5 26 48 
38 6 13 48 
39 21 6 48 
40 17 18 45 
41 17 45 46 
42 18 19 49 
43 45 18 49 
44 19 20 50 
45 49 19 50 
46 20 21 47 
47 20 47 50 
48 47 21 48 
49 23 22 45 
50 45 22 46 
51 24 23 49 
52 23 45 49 
53 25 24 50 
54 24 49 50 
55 26 25 47 
56 47 25 50 
57 26 47 48 
2 5 2 26
58 2 12 58 
59 17 2 58 
60 12 4 58 
61 4 27 58 
62 16 6 62 
63 6 21 62 
64 8 16 62 
65 31 8 62 
66 18 17 57 
67 57 17 58 
68 19 18 60 
69 18 57 60 
70 20 19 59 
71 59 19 60 
72 21 20 61 
73 20 59 61 
74 21 61 62 
75 27 28 57 
76 27 57 58 
77 28 29 60 
78 57 28 60 
79 29 30 59 
80 29 59 60 
81 30 31 61 
82 59 30 61 
83 61 31 62 
3 1 4 140
84 52 40 39 38 
85 43 42 44 56 
86 52 64 46 63 
87 46 58 52 63 
88 68 55 56 62 
89 62 68 67 48 
90 37 58 39 38 
91 62 43 42 41 
92 47 62 67 48 
93 58 51 52 63 
94 55 68 67 62 
95 46 45 58 63 
96 52 39 58 38 
97 56 43 42 62 
98 55 67 59 61 
99 67 59 61 47 
100 59 67 65 47 
101 55 67 65 59 
102 59 65 50 47 
103 45 60 54 66 
104 53 65 66 59 
105 65 50 66 59 
106 50 60 66 59 
107 53 55 65 59 
108 53 66 60 59 
109 54 57 45 51 
110 45 54 51 66 
111 66 49 60 50 
112 63 45 51 66 
113 60 57 45 54 
114 60 45 49 66 
115 60 54 66 53 
116 67 61 62 47 
117 61 67 62 55 
118 51 45 58 57 
119 45 51 58 63 
120 40 52 64 38 
121 42 68 44 56 
122 58 37 46 38 
123 41 42 62 48 
124 46 64 52 38 
125 46 52 58 38 
126 62 42 68 48 
127 56 42 68 62 
128 33 51 54 66 
129 23 49 45 66 
130 45 18 57 60 
131 28 57 54 51 
132 63 23 45 66 
133 57 60 28 54 
134 50 66 24 65 
135 59 50 60 19 
136 51 33 63 66 
137 34 65 66 53 
138 34 66 54 53 
139 29 53 60 59 
140 47 59 20 50 
141 65 25 50 47 
142 35 67 65 55 
143 49 66 24 50 
144 55 53 30 59 
145 53 60 54 29 
146 59 30 55 61 
147 59 47 20 61 
148 67 25 65 47 
149 45 18 60 49 
150 50 49 60 19 
151 65 35 55 53 
152 48 47 62 21 
153 68 26 67 48 
154 31 56 55 62 
155 36 68 55 56 
156 27 58 51 52 
157 58 17 45 46 
158 64 22 46 63 
159 52 32 64 63 
160 62 55 31 61 
161 36 68 67 55 
162 47 67 26 48 
163 61 62 47 21 
164 58 57 27 51 
165 32 52 51 63 
166 46 22 45 63 
167 45 17 58 57 
168 37 58 12 39 
169 43 62 16 41 
170 40 39 11 52 
171 43 44 15 56 
172 37 9 46 38 
173 13 42 41 48 
174 58 37 2 46 
175 41 62 6 48 
176 64 10 40 38 
177 42 68 14 44 
178 3 40 52 64 
179 44 68 7 56 
180 39 58 4 52 
181 8 43 56 62 
182 46 1 64 38 
183 68 42 5 48 
184 46 9 1 38 
185 1 10 64 38 
186 13 5 42 48 
187 68 5 42 14 
188 40 11 3 52 
189 40 3 10 64 
190 14 68 7 44 
191 44 7 15 56 
192 2 37 58 12 
193 2 37 9 46 
194 41 6 13 48 
195 16 62 6 41 
196 4 11 39 52 
197 15 8 43 56 
198 12 58 4 39 
199 8 43 62 16 
200 58 2 17 46 
201 4 58 27 52 
202 22 1 64 46 
203 32 3 52 64 
204 31 8 56 62 
205 68 5 26 48 
206 62 6 48 21 
207 36 7 68 56 
208 59 50 19 20 
209 50 24 25 65 
210 54 33 66 34 
211 67 35 36 55 
212 47 20 61 21 
213 57 28 27 51 
214 18 60 49 19 
215 34 35 65 53 
216 29 30 53 59 
217 25 67 26 47 
218 17 45 18 57 
219 66 23 49 24 
220 60 28 54 29 
221 30 31 55 61 
222 33 32 51 63 
223 45 22 23 63 
$EndElements
