$MeshFormat
4.1 0 8
$EndMeshFormat
$PhysicalNames
5
2 2 "inner_pressure"
2 3 "symmetry_x"
2 4 "symmetry_y"
2 5 "plane_strain_z"
3 1 "domain"
$EndPhysicalNames
$Entities
8 12 6 1
1 10 -1.224606353822377e-15 1 0 
2 0 10 1 0 
3 0 10 0 0 
4 10 -1.224606353822377e-15 0 0 
5 4 -9.796850830579018e-16 1 0 
6 -2.430244590637121e-14 4 1 0 
7 -2.430244590637121e-14 4 0 0 
8 4 -9.796850830579018e-16 0 0 
1 -9.99999993922529e-08 -1.000000002804313e-07 0.9999999000000001 10.0000001 10.0000001 1.0000001 0 2 1 -2 
2 -1.000000006123032e-07 9.999999899999999 -1.000000005579871e-07 1.000000006123032e-07 10.0000001 1.000000100000001 0 2 3 -2 
3 -9.99999993922529e-08 -1.000000002804313e-07 -1e-07 10.0000001 10.0000001 1e-07 0 2 4 -3 
4 9.999999899999997 -1.000000048984254e-07 -1.000000025008774e-07 10.0000001 1e-07 1.000000100000003 0 2 4 -1 
5 3.9999999 -1e-07 0.9999999000000001 10.0000001 1e-07 1.0000001 0 2 5 -1 
6 -1.000000244832933e-07 -9.999999983634211e-08 0.9999999000000001 4.0000001 4.0000001 1.0000001 0 2 5 -6 
7 -1e-07 3.9999999 0.9999999000000001 1e-07 10.0000001 1.0000001 0 2 6 -2 
8 -1e-07 3.9999999 -1e-07 1e-07 10.0000001 1e-07 0 2 7 -3 
9 -1e-07 3.9999999 -9.999999994736442e-08 1e-07 4.0000001 1.0000001 0 2 7 -6 
10 3.9999999 -1e-07 -1e-07 10.0000001 1e-07 1e-07 0 2 8 -4 
11 -1.000000244832933e-07 -9.999999983634211e-08 -1e-07 4.0000001 4.0000001 1e-07 0 2 8 -7 
12 3.999999899999999 -1.000000019593702e-07 -1.000000009465651e-07 4.000000100000001 1e-07 1.000000100000001 0 2 8 -5 
1 -9.99999993922529e-08 -1.000000002804313e-07 -9.999999994736442e-08 10.0000001 10.0000001 1.0000001 0 4 -1 -4 3 2 
2 -1.000000242612487e-07 -1.000000002804313e-07 0.9999999000000001 10.0000001 10.0000001 1.0000001 1 5 4 5 1 -7 -6 
3 -1.000000006123032e-07 3.999999899999999 -1.000000005579871e-07 1.000000006123032e-07 10.0000001 1.000000100000001 1 3 4 -7 -9 8 2 
4 -1.000000242612487e-07 -1.000000002804313e-07 -1e-07 10.0000001 10.0000001 1e-07 1 5 4 10 3 -8 -11 
5 3.999999899999997 -1.000000048984254e-07 -1.000000025008774e-07 10.0000001 1.000000024492127e-07 1.000000100000003 1 4 4 -10 12 5 -4 
6 -1.000000244832933e-07 -9.999999983634211e-08 -9.999999994736442e-08 4.0000001 4.0000001 1.0000001 1 2 4 -6 -12 11 9 
1 -1.000000269257839e-07 -1.000000047213234e-07 -1.000000025008774e-07 10.0000001 10.0000001 1.000000100000003 1 1 6 1 2 -3 -4 -5 -6 
$EndEntities
$Nodes
27 626 1 626
0 1 0 1
1
10 -1.224606353822377e-15 1
0 2 0 1
2
0 10 1
0 3 0 1
3
0 10 0
0 4 0 1
4
10 -1.224606353822377e-15 0
0 5 0 1
5
4 -9.796850830579018e-16 1
0 6 0 1
6
-2.430244590637121e-14 4 1
0 7 0 1
7
-2.430244590637121e-14 4 0
0 8 0 1
8
4 -9.796850830579018e-16 0
1 1 0 19
9
10
11
12
13
14
15
16
17
18
19
20
21
22
23
24
25
26
27
9.876883405951379 1.564344650402307 1
9.510565162951536 3.090169943749471 1
8.910065241883681 4.539904997395465 1
8.090169943749476 5.877852522924728 1
7.071067811865478 7.071067811865472 1
5.877852522924734 8.090169943749473 1
4.539904997395468 8.910065241883679 1
3.090169943749477 9.510565162951535 1
1.564344650402309 9.876883405951379 1
9.969173337331279 0.7845909572784484 1
9.723699203976766 2.334453638559051 1
9.238795325112868 3.826834323650894 1
8.526401643540924 5.224985647159485 1
7.604059656000311 6.494480483301834 1
6.494480483301839 7.604059656000308 1
5.224985647159492 8.52640164354092 1
3.826834323650898 9.238795325112868 1
2.334453638559057 9.723699203976766 1
0.78459095727845 9.969173337331279 1
1 2 0 1
28
0 10 0.4999999999999999
1 3 0 19
29
30
31
32
33
34
35
36
37
38
39
40
41
42
43
44
45
46
47
9.876883405951379 1.564344650402307 0
9.510565162951536 3.090169943749471 0
8.910065241883681 4.539904997395465 0
8.090169943749476 5.877852522924728 0
7.071067811865478 7.071067811865472 0
5.877852522924734 8.090169943749473 0
4.539904997395468 8.910065241883679 0
3.090169943749477 9.510565162951535 0
1.564344650402309 9.876883405951379 0
9.969173337331279 0.7845909572784484 0
9.723699203976766 2.334453638559051 0
9.238795325112868 3.826834323650894 0
8.526401643540924 5.224985647159485 0
7.604059656000311 6.494480483301834 0
6.494480483301839 7.604059656000308 0
5.224985647159492 8.52640164354092 0
3.826834323650898 9.238795325112868 0
2.334453638559057 9.723699203976766 0
0.78459095727845 9.969173337331279 0
1 4 0 1
48
10 -2.449212707644755e-15 0.4999999999999999
1 5 0 7
49
50
51
52
53
54
55
5.499999999999996 0 1
6.999999999999997 0 1
8.499999999999998 0 1
4.749999999999998 0 1
6.249999999999996 0 1
7.749999999999997 0 1
9.249999999999998 0 1
1 6 0 7
56
57
58
59
60
61
62
3.695518130045145 1.530733729460364 1
2.828427124746182 2.828427124746198 1
1.530733729460343 3.695518130045154 1
3.923141121612921 0.7803612880645158 1
3.325878449210177 2.222280932078415 1
2.222280932078397 3.325878449210189 1
0.7803612880644923 3.923141121612926 1
1 7 0 7
63
64
65
66
67
68
69
0 5.499999999999996 1
0 6.999999999999997 1
0 8.499999999999998 1
0 4.749999999999998 1
0 6.249999999999996 1
0 7.749999999999997 1
0 9.249999999999998 1
1 8 0 7
70
71
72
73
74
75
76
0 5.499999999999996 0
0 6.999999999999997 0
0 8.499999999999998 0
0 4.749999999999998 0
0 6.249999999999996 0
0 7.749999999999997 0
0 9.249999999999998 0
1 9 0 1
77
0 4 0.4999999999999999
1 10 0 7
78
79
80
81
82
83
84
5.499999999999996 0 0
6.999999999999997 0 0
8.499999999999998 0 0
4.749999999999998 0 0
6.249999999999996 0 0
7.749999999999997 0 0
9.249999999999998 0 0
1 11 0 7
85
86
87
88
89
90
91
3.695518130045145 1.530733729460364 0
2.828427124746182 2.828427124746198 0
1.530733729460343 3.695518130045154 0
3.923141121612921 0.7803612880645158 0
3.325878449210177 2.222280932078415 0
2.222280932078397 3.325878449210189 0
0.7803612880644923 3.923141121612926 0
1 12 0 1
92
4 -9.796850830579018e-16 0.4999999999999999
2 1 0 59
93
94
95
96
97
98
99
100
101
102
103
104
105
106
107
108
109
110
111
112
113
114
115
116
117
118
119
120
121
122
123
124
125
126
127
128
129
130
131
132
133
134
135
136
137
138
139
140
141
142
143
144
145
146
147
148
149
150
151
5.224985647159492 8.52640164354092 0.5006539612003342
6.494480483301839 7.604059656000308 0.5006539612003345
2.334453638559055 9.723699203976766 0.5006539612003355
8.526401643540924 5.224985647159485 0.500653961200334
0.7845909572784522 9.969173337331279 0.4993460387996641
9.23879532511287 3.826834323650894 0.4993460387996652
9.969173337331279 0.7845909572784489 0.4993460387996653
7.604059656000311 6.494480483301834 0.5006539612003348
9.723699203976766 2.334453638559051 0.4993460387996653
3.826834323650898 9.238795325112868 0.4993460387996673
9.992290362407228 0.3925981575906852 0.2496730193998326
9.992290362407228 0.3925981575906852 0.7496730193998327
9.930684569549262 1.175373974578375 0.7496730193998327
0.3925981575906867 9.992290362407228 0.749673019399832
0.3925981575906867 9.992290362407228 0.2496730193998321
1.175373974578379 9.930684569549262 0.749673019399832
1.175373974578379 9.930684569549262 0.2496730193998321
9.930684569549262 1.175373974578375 0.2496730193998326
9.807852804032306 1.95090322016128 0.7496730193998327
9.624552364536473 2.714404498650739 0.7496730193998327
9.876883405951379 1.564344650402306 0.5
9.807852804032306 1.95090322016128 0.2496730193998326
9.381913359224843 3.461170570774926 0.7496730193998327
9.081431738250815 4.186597375374277 0.7496730193998327
9.381913359224843 3.461170570774926 0.2496730193998326
9.510565162951536 3.090169943749471 0.5
9.624552364536473 2.714404498650739 0.2496730193998326
8.724960070727972 4.886212414969546 0.750326980600167
8.314696123025454 5.555702330196018 0.750326980600167
8.724960070727972 4.886212414969546 0.250326980600167
8.910065241883681 4.539904997395465 0.5
9.081431738250815 4.186597375374277 0.2496730193998326
7.85316930880745 6.190939493098337 0.7503269806001673
7.343225094356857 6.788007455329415 0.7503269806001673
8.314696123025454 5.555702330196018 0.250326980600167
8.090169943749476 5.877852522924728 0.5
7.85316930880745 6.190939493098337 0.2503269806001674
6.788007455329421 7.343225094356852 0.7503269806001672
6.190939493098343 7.853169308807447 0.7503269806001672
6.788007455329421 7.343225094356852 0.2503269806001672
7.071067811865478 7.071067811865472 0.5
7.343225094356857 6.788007455329415 0.2503269806001674
5.555702330196025 8.314696123025451 0.7503269806001671
4.886212414969552 8.72496007072797 0.7503269806001671
5.555702330196025 8.314696123025451 0.2503269806001671
5.877852522924734 8.090169943749473 0.5
6.190939493098343 7.853169308807447 0.2503269806001672
4.186597375374282 9.081431738250812 0.7496730193998337
3.461170570774932 9.381913359224841 0.7496730193998337
4.886212414969552 8.72496007072797 0.2503269806001671
4.539904997395468 8.910065241883679 0.5
4.186597375374282 9.081431738250812 0.2496730193998336
2.714404498650746 9.624552364536472 0.7503269806001678
1.950903220161283 9.807852804032304 0.7503269806001678
2.714404498650746 9.624552364536472 0.2503269806001677
3.090169943749477 9.510565162951535 0.5
3.461170570774932 9.381913359224841 0.2496730193998336
1.950903220161283 9.807852804032304 0.2503269806001677
1.564344650402309 9.876883405951379 0.5
2 2 0 119
152
153
154
155
156
157
158
159
160
161
162
163
164
165
166
167
168
169
170
171
172
173
174
175
176
177
178
179
180
181
182
183
184
185
186
187
188
189
190
191
192
193
194
195
196
197
198
199
200
201
202
203
204
205
206
207
208
209
210
211
212
213
214
215
216
217
218
219
220
221
222
223
224
225
226
227
228
229
230
231
232
233
234
235
236
237
238
239
240
241
242
243
244
245
246
247
248
249
250
251
252
253
254
255
256
257
258
259
260
261
262
263
264
265
266
267
268
269
270
4.151781691144196 3.117371796876182 1
4.498828603532464 7.341421046777705 1
7.954807817203381 3.294989283957155 1
1.073790095781633 6.232156893636143 1
6.55779903554749 5.862624478864281 1
2.99136057067224 4.467056150164767 1
6.249999999999997 1.299038105676657 1
4.612764624201247 4.612764624201273 1
2.21402351307411 8.557426049304151 1
5.93250767328428 3.547689022424284 1
8.320571667677605 1.927912540241669 1
3.765177645086732 5.969502459177136 1
5.081907711361383 5.961742937822812 1
2.924950121759761 7.312477054522028 1
7.201109168326291 4.644534173858537 1
6.780829516530406 2.463533955641751 1
1.344128556319789 5.01162874892313 1
5.097326393080342 1.731542947909024 1
1.318408734267293 7.513119333101351 1
3.458435167819065 8.349401086736853 1
5.843472118462456 6.869376932319902 1
2.350221471924629 6.128756687156004 1
5.877217642544139 4.925871047434239 1
1.034578117882798 8.901671123996088 1
7.322094451438836 1.067160119078228 1
9.188441702975688 0.7821723252011534 1
0.5172890589413994 9.450835561998044 1
1.299461384142554 9.389277264973733 1
0.5172890589413991 8.700835561998044 1
5.298663196540169 0.8657714739545119 1
4.548663196540171 0.8657714739545119 1
4.396422261562743 1.631138338684694 1
1.437431142890066 4.353573439484141 1
0.6720642781598823 4.505814374461565 1
0.6720642781598947 5.255814374461563 1
8.915568415314571 2.50904124199557 1
9.098727536814492 1.746128595321988 1
8.410285833838802 0.9639562701208347 1
8.43243652954353 3.91744714067631 1
8.732686490077459 3.192579613853312 1
8.137689742440493 2.611450912099412 1
7.645639556037883 5.261193348391632 1
8.055587205104986 4.592219585627001 1
7.577958492764836 3.969761728907846 1
6.814433423706484 6.466846145364876 1
7.323984489648483 5.870238500894505 1
6.87945410193689 5.253579326361409 1
5.860662320693595 7.479773438034687 1
6.457269965163967 6.970222372092687 1
6.200635577004973 6.366000705592091 1
4.519366800463966 8.125743144330691 1
5.188340563228598 7.715795495263588 1
5.17115036099746 7.105398989548803 1
3.274302555784271 8.929983124844194 1
3.999170082607267 8.629733164310267 1
3.978631885675765 7.845411066757279 1
1.88918408173821 9.217154727627765 1
2.652096728411793 9.033995606127842 1
2.836229340446588 8.453413568020501 1
1.624300815478454 8.72954858665012 1
6.624999999999997 0.6495190528383283 1
5.874999999999996 0.6495190528383283 1
5.67366319654017 1.51529052679284 1
7.911047225719416 0.533580059539114 1
7.161047225719416 0.533580059539114 1
6.786047225719416 1.183099112377442 1
7.821333059558221 1.497536329659949 1
3.92364991059467 2.324052763168273 1
3.490104407945189 2.97289946081119 1
4.624554042112269 2.424457372392603 1
2.909893847709211 3.647741637455483 1
2.261047150066291 4.08128714010496 1
3.571571130908218 3.792213973520475 1
2.167744563496015 4.739342449543948 1
0.5368950478908164 5.86607844681807 1
0.5368950478908164 6.61607844681807 1
1.208959326050711 5.621892821279636 1
0.6592043671336465 7.256559666550674 1
0.6592043671336465 8.006559666550675 1
1.196099415024463 6.872638113368748 1
1.176493426075046 8.20739522854872 1
4.382273157672721 3.865068210538728 1
3.802062597436743 4.539910387183021 1
5.042144682214238 3.332530409650233 1
5.272636148742763 4.080226823312779 1
5.514917033182311 2.639615985166654 1
4.423542678224058 5.965622698499974 1
4.790368157446924 6.651581992300258 1
4.132003124309598 6.65546175297742 1
3.711889362646112 7.326949050649866 1
3.345063883423247 6.640989756849581 1
5.46268991491192 6.415559935071357 1
3.191692644789414 7.830939070629441 1
6.566808420805286 4.096111598141411 1
6.943657745243831 3.421339153190719 1
6.356668594907343 3.005611489033018 1
7.367818666866894 2.879261619799453 1
7.550700592104006 2.19572324794171 1
1.847175014122209 5.570192718039567 1
1.712005783853131 6.180456790396073 1
1.834315103095961 6.820938010128678 1
5.819853373454436 5.912183708343546 1
5.479562676952761 5.443806992628526 1
6.217508339045814 5.394247763149259 1
6.539163405435215 4.785202610646388 1
4.18897113464399 5.291133541689204 1
3.378269107879486 5.218279304670951 1
3.05769955850568 6.04912957316657 1
2.670791021298434 5.297906418660386 1
5.939077954805374 2.097538451775387 1
6.515414758265202 1.881286030659204 1
7.051461983984621 1.76534703735999 1
5.90486265791421 4.236780034929261 1
5.244991133372693 4.769317835817755 1
4.847336167781314 5.287253781012042 1
1.766216123670702 8.035272691202751 1
2.121679428013527 7.41279819381169 1
2.569486817416936 7.934951551913089 1
2.637585796842195 6.720616870839017 1
2 3 0 23
271
272
273
274
275
276
277
278
279
280
281
282
283
284
285
286
287
288
289
290
291
292
293
0 9.249999999999998 0.5
0 6.249999999999996 0.5
0 7.749999999999997 0.5
0 4.749999999999998 0.5
0 9.625 0.25
0 9.625 0.75
0 8.874999999999998 0.75
0 8.874999999999998 0.25
0 4.374999999999999 0.75
0 4.374999999999999 0.25
0 5.124999999999997 0.75
0 5.124999999999997 0.25
0 6.624999999999996 0.75
0 5.874999999999996 0.75
0 5.499999999999996 0.5
0 5.874999999999996 0.25
0 8.124999999999998 0.75
0 7.374999999999997 0.75
0 6.999999999999997 0.5
0 6.624999999999996 0.25
0 7.374999999999997 0.25
0 8.499999999999998 0.5
0 8.124999999999998 0.25
2 4 0 119
294
295
296
297
298
299
300
301
302
303
304
305
306
307
308
309
310
311
312
313
314
315
316
317
318
319
320
321
322
323
324
325
326
327
328
329
330
331
332
333
334
335
336
337
338
339
340
341
342
343
344
345
346
347
348
349
350
351
352
353
354
355
356
357
358
359
360
361
362
363
364
365
366
367
368
369
370
371
372
373
374
375
376
377
378
379
380
381
382
383
384
385
386
387
388
389
390
391
392
393
394
395
396
397
398
399
400
401
402
403
404
405
406
407
408
409
410
411
412
4.151781691144196 3.117371796876182 0
4.498828603532464 7.341421046777705 0
7.954807817203381 3.294989283957155 0
1.073790095781633 6.232156893636143 0
6.55779903554749 5.862624478864281 0
2.99136057067224 4.467056150164767 0
6.249999999999997 1.299038105676657 0
4.612764624201247 4.612764624201273 0
2.21402351307411 8.557426049304151 0
5.93250767328428 3.547689022424284 0
8.320571667677605 1.927912540241669 0
3.765177645086732 5.969502459177136 0
5.081907711361383 5.961742937822812 0
2.924950121759761 7.312477054522028 0
7.201109168326291 4.644534173858537 0
6.780829516530406 2.463533955641751 0
1.344128556319794 5.011628748923129 0
5.097326393080342 1.731542947909024 0
1.318408734267293 7.513119333101351 0
3.458435167819065 8.349401086736853 0
5.843472118462456 6.869376932319902 0
2.350221471924629 6.128756687156004 0
5.877217642544139 4.925871047434239 0
1.034578117882798 8.901671123996088 0
7.322094451438836 1.067160119078228 0
1.299461384142554 9.389277264973733 0
0.5172890589413994 9.450835561998044 0
0.5172890589413991 8.700835561998044 0
9.188441702975688 0.7821723252011534 0
0.6720642781598968 5.255814374461563 0
0.6720642781598968 4.505814374461565 0
1.437431142890068 4.353573439484141 0
4.548663196540171 0.8657714739545119 0
5.298663196540169 0.8657714739545119 0
4.396422261562743 1.631138338684694 0
9.098727536814492 1.746128595321988 0
8.915568415314571 2.50904124199557 0
8.410285833838802 0.9639562701208347 0
8.732686490077459 3.192579613853312 0
8.43243652954353 3.91744714067631 0
8.137689742440493 2.611450912099412 0
8.055587205104986 4.592219585627001 0
7.645639556037883 5.261193348391632 0
7.577958492764836 3.969761728907846 0
7.323984489648483 5.870238500894505 0
6.814433423706484 6.466846145364876 0
6.87945410193689 5.253579326361409 0
6.457269965163967 6.970222372092687 0
5.860662320693595 7.479773438034687 0
6.200635577004973 6.366000705592091 0
5.188340563228598 7.715795495263588 0
4.519366800463966 8.125743144330691 0
5.17115036099746 7.105398989548803 0
3.999170082607267 8.629733164310267 0
3.274302555784271 8.929983124844194 0
3.978631885675765 7.845411066757279 0
2.652096728411793 9.033995606127842 0
1.88918408173821 9.217154727627765 0
2.836229340446588 8.453413568020501 0
1.624300815478454 8.72954858665012 0
0.5368950478908164 6.61607844681807 0
0.5368950478908164 5.86607844681807 0
1.208959326050713 5.621892821279635 0
0.6592043671336465 8.006559666550675 0
0.6592043671336465 7.256559666550674 0
1.196099415024463 6.872638113368748 0
1.176493426075046 8.20739522854872 0
5.874999999999996 0.6495190528383283 0
6.624999999999997 0.6495190528383283 0
5.67366319654017 1.51529052679284 0
7.161047225719416 0.533580059539114 0
7.911047225719416 0.533580059539114 0
6.786047225719416 1.183099112377442 0
7.821333059558221 1.497536329659949 0
3.490104407945189 2.97289946081119 0
3.92364991059467 2.324052763168273 0
4.624554042112269 2.424457372392603 0
2.261047150066291 4.08128714010496 0
2.909893847709211 3.647741637455483 0
3.571571130908218 3.792213973520475 0
2.167744563496017 4.739342449543948 0
3.802062597436743 4.539910387183021 0
4.382273157672721 3.865068210538728 0
5.272636148742763 4.080226823312779 0
5.042144682214238 3.332530409650233 0
5.514917033182311 2.639615985166654 0
4.132003124309598 6.65546175297742 0
4.790368157446924 6.651581992300258 0
4.423542678224058 5.965622698499974 0
3.345063883423247 6.640989756849581 0
3.711889362646112 7.326949050649866 0
5.46268991491192 6.415559935071357 0
3.191692644789414 7.830939070629441 0
6.943657745243831 3.421339153190719 0
6.566808420805286 4.096111598141411 0
7.367818666866894 2.879261619799453 0
6.356668594907343 3.005611489033018 0
7.550700592104006 2.19572324794171 0
1.712005783853131 6.180456790396073 0
1.847175014122211 5.570192718039566 0
1.834315103095961 6.820938010128678 0
5.819853373454436 5.912183708343546 0
6.217508339045814 5.394247763149259 0
5.479562676952761 5.443806992628526 0
6.539163405435215 4.785202610646388 0
3.378269107879486 5.218279304670951 0
4.18897113464399 5.291133541689204 0
2.670791021298434 5.297906418660386 0
3.057699558505681 6.04912957316657 0
6.515414758265202 1.881286030659204 0
5.939077954805374 2.097538451775387 0
7.051461983984621 1.76534703735999 0
5.244991133372693 4.769317835817755 0
5.90486265791421 4.236780034929261 0
4.847336167781314 5.287253781012042 0
2.569486817416936 7.934951551913089 0
2.121679428013527 7.41279819381169 0
1.766216123670702 8.035272691202751 0
2.637585796842195 6.720616870839017 0
2 5 0 23
413
414
415
416
417
418
419
420
421
422
423
424
425
426
427
428
429
430
431
432
433
434
435
9.249999999999998 0 0.5
6.249999999999996 0 0.5
7.749999999999998 0 0.5
4.749999999999998 0 0.5
9.625 0 0.75
9.625 0 0.25
8.874999999999998 0 0.75
8.874999999999998 0 0.25
4.374999999999999 0 0.25
4.374999999999999 0 0.75
5.124999999999997 0 0.75
5.124999999999997 0 0.25
5.874999999999996 0 0.75
6.624999999999996 0 0.75
5.499999999999996 0 0.5
5.874999999999996 0 0.25
7.374999999999998 0 0.75
8.124999999999998 0 0.75
6.999999999999997 0 0.5
6.624999999999996 0 0.25
7.374999999999998 0 0.25
8.499999999999998 0 0.5
8.124999999999998 0 0.25
2 6 0 23
436
437
438
439
440
441
442
443
444
445
446
447
448
449
450
451
452
453
454
455
456
457
458
0.7803612880645028 3.923141121612924 0.4965651424079462
3.923141121612921 0.7803612880645161 0.4965651424079324
2.222280932078397 3.325878449210189 0.5034348575920681
3.325967949502545 2.222146979585697 0.5
3.980738906688787 0.3920685613182434 0.7482825712039662
3.980738906688787 0.3920685613182434 0.2482825712039662
3.827761342928834 1.161138709017854 0.7482825712039662
0.3920685613182254 3.980738906688789 0.2482825712039731
0.3920685613182254 3.980738906688789 0.7482825712039731
1.161138709017836 3.82776134292884 0.7482825712039731
1.161138709017836 3.82776134292884 0.2482825712039731
3.827761342928834 1.161138709017854 0.2482825712039662
3.092092913560038 2.537510869713033 0.75
3.527723027950567 1.885515907667523 0.75
3.695518130045145 1.530733729460364 0.5
3.527723027950567 1.885515907667523 0.25
1.885586947303977 3.527685057393427 0.751717428796034
2.537573136654572 3.092041813450956 0.751717428796034
2.828427124746182 2.828427124746198 0.5
2.537573136654572 3.092041813450956 0.251717428796034
3.092092913560038 2.537510869713033 0.25
1.530733729460343 3.695518130045154 0.5
1.885586947303977 3.527685057393427 0.251717428796034
3 1 0 168
459
460
461
462
463
464
465
466
467
468
469
470
471
472
473
474
475
476
477
478
479
480
481
482
483
484
485
486
487
488
489
490
491
492
493
494
495
496
497
498
499
500
501
502
503
504
505
506
507
508
509
510
511
512
513
514
515
516
517
518
519
520
521
522
523
524
525
526
527
528
529
530
531
532
533
534
535
536
537
538
539
540
541
542
543
544
545
546
547
548
549
550
551
552
553
554
555
556
557
558
559
560
561
562
563
564
565
566
567
568
569
570
571
572
573
574
575
576
577
578
579
580
581
582
583
584
585
586
587
588
589
590
591
592
593
594
595
596
597
598
599
600
601
602
603
604
605
606
607
608
609
610
611
612
613
614
615
616
617
618
619
620
621
622
623
624
625
626
7.536047225719416 0.533580059539114 0.25
7.322094451438836 1.067160119078228 0.5
7.536047225719416 0.533580059539114 0.75
8.035285833838802 0.9639562701208347 0.25
7.821333059558221 1.497536329659949 0.5
4.33657056080646 0.3901806440322581 0.4982825712039662
4.92366319654017 0.8657714739545119 0.25
4.510233757346632 1.25595211798677 0.2482825712039662
4.92366319654017 0.8657714739545119 0.75
4.510233757346632 1.25595211798677 0.7482825712039662
7.0809293457739 6.178552481083058 0.7503269806001673
7.323984489648483 5.870238500894505 0.5
7.0809293457739 6.178552481083058 0.2503269806001674
6.55779903554749 5.862624478864281 0.5
8.035285833838802 0.9639562701208347 0.75
8.320571667677605 1.927912540241669 0.5
2.606820751375318 3.896467299687478 0.751717428796034
4.861907125345978 7.933911345159313 0.7503269806001671
4.861907125345978 7.933911345159313 0.2503269806001671
2.606820751375318 3.896467299687478 0.251717428796034
0.5368950478908164 6.24107844681807 0.25
0.5368950478908164 6.61607844681807 0.5
1.073790095781633 6.232156893636143 0.5
0.5368950478908164 6.24107844681807 0.75
7.863755405933608 4.934759910509011 0.750326980600167
8.055587205104986 4.592219585627001 0.5
7.863755405933608 4.934759910509011 0.250326980600167
7.201109168326291 4.644534173858537 0.5
0.5368950478908164 5.86607844681807 0.5
4.519366800463966 8.125743144330691 0.5
5.188340563228598 7.715795495263588 0.5
2.261047150066291 4.08128714010496 0.5
4.498828603532464 7.341421046777705 0.5
2.909893847709211 3.647741637455483 0.5
0.6592043671336465 7.631559666550674 0.25
0.5172890589413991 8.325835561998042 0.25
0.5172890589413991 8.325835561998042 0.75
1.034578117882798 8.901671123996088 0.5
1.176493426075046 8.20739522854872 0.5
8.410285833838802 0.9639562701208347 0.5
8.785285833838802 0.9639562701208347 0.25
8.785285833838802 0.9639562701208347 0.75
1.062244922192148 4.467384935268027 0.2482825712039731
2.274238575816582 9.14056262664046 0.7503269806001678
2.274238575816582 9.14056262664046 0.2503269806001677
1.062244922192146 4.467384935268027 0.7482825712039731
2.99136057067224 4.467056150164767 0.5
1.712005783853131 6.180456790396073 0.5
1.196099415024463 6.872638113368748 0.5
0.6720642781598968 4.880814374461563 0.25
0.6720642781598947 4.880814374461564 0.75
2.21402351307411 8.557426049304151 0.5
1.624300815478454 8.72954858665012 0.5
1.684515878220926 9.312685163986426 0.7503269806001678
6.249999999999996 0.6495190528383283 0.25
6.249999999999996 0.6495190528383283 0.75
6.249999999999997 1.299038105676657 0.5
5.874999999999996 0.6495190528383283 0.5
0.6592043671336465 7.631559666550674 0.75
3.73887482032337 2.66975938823094 0.75
3.73887482032337 2.66975938823094 0.25
1.684515878220926 9.312685163986426 0.2503269806001677
5.097326393080342 1.731542947909024 0.5
0.3901806440322514 4.336570560806461 0.4982825712039731
0.9095845375806252 9.435422230663683 0.2496730193998321
5.17115036099746 7.105398989548803 0.5
5.860662320693595 7.479773438034687 0.5
5.843472118462456 6.869376932319902 0.5
0.9095845375806252 9.435422230663683 0.749673019399832
3.711889362646112 7.326949050649866 0.5
4.132003124309598 6.65546175297742 0.5
3.999170082607267 8.629733164310267 0.5
3.978631885675765 7.845411066757279 0.5
3.458435167819065 8.349401086736853 0.5
4.396422261562743 1.631138338684694 0.5
4.211647171291443 1.97684496374736 0.25
8.915568415314571 2.50904124199557 0.5
9.022135435827185 2.13118308940036 0.7496730193998327
5.46268991491192 6.415559935071357 0.5
3.345063883423247 6.640989756849581 0.5
2.924950121759761 7.312477054522028 0.5
6.168976300882147 7.236718294160105 0.7503269806001672
6.168976300882147 7.236718294160105 0.2503269806001672
6.217508339045814 5.394247763149259 0.5
5.479562676952761 5.443806992628526 0.5
5.877217642544139 4.925871047434239 0.5
1.318408734267293 7.513119333101351 0.5
1.766216123670702 8.035272691202751 0.5
2.569486817416936 7.934951551913089 0.5
3.642634745734982 8.794098205924861 0.2496730193998336
3.191692644789414 7.830939070629441 0.5
3.642634745734982 8.794098205924861 0.7496730193998337
6.786047225719416 1.183099112377442 0.5
6.786047225719416 0.533580059539114 0.75
0.6592043671336465 7.256559666550674 0.5
3.765177645086732 5.969502459177136 0.5
7.645639556037883 5.261193348391632 0.5
4.790368157446924 6.651581992300258 0.5
5.081907711361383 5.961742937822812 0.5
4.423542678224058 5.965622698499974 0.5
5.298663196540169 0.8657714739545119 0.5
1.208959326050713 5.621892821279635 0.5
3.378269107879486 5.218279304670951 0.5
4.18897113464399 5.291133541689204 0.5
6.87945410193689 5.253579326361409 0.5
3.802062597436743 4.539910387183021 0.5
4.612764624201247 4.612764624201273 0.5
0.5172890589413991 8.700835561998044 0.5
5.819853373454436 5.912183708343546 0.5
5.244991133372693 4.769317835817755 0.5
1.847175014122211 5.570192718039566 0.5
2.670791021298434 5.297906418660386 0.5
2.167744563496015 4.739342449543948 0.5
1.344128556319792 5.01162874892313 0.5
6.200635577004973 6.366000705592091 0.5
6.786047225719416 0.533580059539114 0.25
1.299461384142554 9.389277264973733 0.5
3.05769955850568 6.04912957316657 0.5
0.6720642781598947 5.255814374461563 0.5
4.151781691144196 3.117371796876182 0.5
4.624554042112269 2.424457372392603 0.5
3.571571130908218 3.792213973520475 0.5
4.382273157672721 3.865068210538728 0.5
2.121679428013527 7.41279819381169 0.5
2.350221471924629 6.128756687156004 0.5
0.5172890589413991 9.075835561998044 0.25
0.5172890589413991 9.075835561998044 0.75
2.637585796842195 6.720616870839017 0.5
5.90486265791421 4.236780034929261 0.5
7.577958492764836 3.969761728907846 0.5
6.566808420805286 4.096111598141411 0.5
4.211647171291443 1.97684496374736 0.75
4.847336167781314 5.287253781012042 0.5
1.437431142890068 4.353573439484141 0.5
0.3922954786392261 9.609586668665639 0.4996730193998321
3.490104407945189 2.97289946081119 0.5
6.539163405435215 4.785202610646388 0.5
7.161047225719416 0.533580059539114 0.5
6.457269965163967 6.970222372092687 0.5
1.834315103095961 6.820938010128678 0.5
9.022135435827185 2.13118308940036 0.2496730193998326
8.596801571158124 3.560911803804024 0.2496730193998326
5.272636148742763 4.080226823312779 0.5
5.042144682214238 3.332530409650233 0.5
8.596801571158124 3.560911803804024 0.7496730193998327
5.67366319654017 1.51529052679284 0.5
6.515414758265202 1.881286030659204 0.5
2.836229340446588 8.453413568020501 0.5
2.652096728411793 9.033995606127842 0.5
3.274302555784271 8.929983124844194 0.5
8.732686490077459 3.192579613853312 0.5
6.814433423706484 6.466846145364876 0.5
5.514917033182311 2.639615985166654 0.5
5.93250767328428 3.547689022424284 0.5
6.356668594907343 3.005611489033018 0.5
5.939077954805374 2.097538451775387 0.5
6.780829516530406 2.463533955641751 0.5
7.954807817203381 3.294989283957155 0.5
6.943657745243831 3.421339153190719 0.5
8.43243652954353 3.91744714067631 0.5
7.367818666866894 2.879261619799453 0.5
7.051461983984621 1.76534703735999 0.5
7.550700592104006 2.19572324794171 0.5
9.098727536814492 1.746128595321988 0.5
8.137689742440493 2.611450912099412 0.5
9.609586668665639 0.3922954786392244 0.4996730193998327
9.563441702975688 0.7821723252011534 0.25
9.563441702975688 0.7821723252011534 0.75
$EndNodes
$Elements
6 469 1 469
2 2 9 70
1 1 9 51 18 177 55 
2 2 175 17 178 179 27 
3 65 175 2 180 178 69 
4 49 169 5 181 182 52 
5 5 169 56 182 183 59 
6 58 168 6 184 185 62 
7 6 168 63 185 186 66 
8 10 162 9 187 188 19 
9 9 162 51 188 189 177 
10 11 154 10 190 191 20 
11 154 162 10 192 187 191 
12 12 166 11 193 194 21 
13 11 166 154 194 195 190 
14 13 156 12 196 197 22 
15 156 166 12 198 193 197 
16 14 172 13 199 200 23 
17 13 172 156 200 201 196 
18 15 153 14 202 203 24 
19 153 172 14 204 199 203 
20 16 171 15 205 206 25 
21 15 171 153 206 207 202 
22 17 160 16 208 209 26 
23 160 171 16 210 205 209 
24 17 175 160 179 211 208 
25 50 158 49 212 213 53 
26 158 169 49 214 181 213 
27 51 176 50 215 216 54 
28 50 176 158 216 217 212 
29 162 176 51 218 215 189 
30 56 152 57 219 220 60 
31 56 169 152 183 221 219 
32 57 157 58 222 223 61 
33 152 157 57 224 222 220 
34 157 168 58 225 184 223 
35 63 155 64 226 227 67 
36 63 168 155 186 228 226 
37 64 170 65 229 230 68 
38 155 170 64 231 229 227 
39 170 175 65 232 180 230 
40 152 159 157 233 234 224 
41 152 161 159 235 236 233 
42 152 169 161 221 237 235 
43 163 164 153 238 239 240 
44 153 165 163 241 242 240 
45 164 172 153 243 204 239 
46 153 171 165 207 244 241 
47 154 166 161 195 245 246 
48 161 167 154 247 248 246 
49 154 167 162 248 249 192 
50 168 173 155 250 251 228 
51 155 173 170 251 252 231 
52 156 172 164 201 243 253 
53 164 174 156 254 255 253 
54 156 174 166 255 256 198 
55 159 163 157 257 258 234 
56 163 173 157 259 260 258 
57 157 173 168 260 250 225 
58 167 169 158 261 214 262 
59 158 176 167 217 263 262 
60 161 174 159 264 265 236 
61 159 164 163 266 238 257 
62 159 174 164 265 254 266 
63 160 170 165 267 268 269 
64 165 171 160 244 210 269 
65 160 175 170 211 232 267 
66 166 174 161 256 264 245 
67 161 169 167 237 261 247 
68 167 176 162 263 218 249 
69 165 173 163 270 259 242 
70 170 173 165 252 270 268 
2 3 9 16
71 2 3 271 28 275 276 
72 65 2 271 69 276 277 
73 3 72 271 76 278 275 
74 7 6 274 77 279 280 
75 6 63 274 66 281 279 
76 70 7 274 73 280 282 
77 63 64 272 67 283 284 
78 70 63 272 285 284 286 
79 63 70 274 285 282 281 
80 64 65 273 68 287 288 
81 64 71 272 289 290 283 
82 71 64 273 289 288 291 
83 72 65 271 292 277 278 
84 65 72 273 292 293 287 
85 71 70 272 74 286 290 
86 72 71 273 75 291 293 
2 4 9 70
87 3 37 317 47 319 320 
88 72 3 317 76 320 321 
89 4 80 29 84 322 38 
90 7 70 310 73 323 324 
91 87 7 310 91 324 325 
92 78 8 311 81 326 327 
93 8 85 311 88 328 326 
94 30 29 304 39 329 330 
95 29 80 304 322 331 329 
96 31 30 296 40 332 333 
97 296 30 304 332 330 334 
98 32 31 308 41 335 336 
99 31 296 308 333 337 335 
100 33 32 298 42 338 339 
101 298 32 308 338 336 340 
102 34 33 314 43 341 342 
103 33 298 314 339 343 341 
104 35 34 295 44 344 345 
105 295 34 314 344 342 346 
106 36 35 313 45 347 348 
107 35 295 313 345 349 347 
108 37 36 302 46 350 351 
109 302 36 313 350 348 352 
110 37 302 317 351 353 319 
111 70 71 297 74 354 355 
112 70 297 310 355 356 323 
113 71 72 312 75 357 358 
114 297 71 312 354 358 359 
115 312 72 317 357 321 360 
116 79 78 300 82 361 362 
117 300 78 311 361 327 363 
118 80 79 318 83 364 365 
119 79 300 318 362 366 364 
120 304 80 318 331 365 367 
121 85 86 294 89 368 369 
122 85 294 311 369 370 328 
123 86 87 299 90 371 372 
124 294 86 299 368 372 373 
125 299 87 310 371 325 374 
126 294 299 301 373 375 376 
127 294 301 303 376 377 378 
128 294 303 311 378 379 370 
129 305 295 306 380 381 382 
130 295 305 307 380 383 384 
131 306 295 314 381 346 385 
132 295 307 313 384 386 349 
133 296 303 308 387 388 337 
134 303 296 309 387 389 390 
135 296 304 309 334 391 389 
136 310 297 315 356 392 393 
137 297 312 315 359 394 392 
138 298 306 314 395 385 343 
139 306 298 316 395 396 397 
140 298 308 316 340 398 396 
141 301 299 305 375 399 400 
142 305 299 315 399 401 402 
143 299 310 315 374 393 401 
144 309 300 311 403 363 404 
145 300 309 318 403 405 366 
146 303 301 316 377 406 407 
147 301 305 306 400 382 408 
148 301 306 316 408 397 406 
149 302 307 312 409 410 411 
150 307 302 313 409 352 386 
151 302 312 317 411 360 353 
152 308 303 316 388 407 398 
153 303 309 311 390 404 379 
154 309 304 318 391 367 405 
155 307 305 315 383 402 412 
156 312 307 315 410 412 394 
2 5 9 16
157 4 1 413 48 417 418 
158 1 51 413 55 419 417 
159 80 4 413 84 418 420 
160 5 8 416 92 421 422 
161 49 5 416 52 422 423 
162 8 78 416 81 424 421 
163 50 49 414 53 425 426 
164 49 78 414 427 428 425 
165 78 49 416 427 423 424 
166 51 50 415 54 429 430 
167 79 50 414 431 426 432 
168 50 79 415 431 433 429 
169 51 80 413 434 420 419 
170 80 51 415 434 430 435 
171 78 79 414 82 432 428 
172 79 80 415 83 435 433 
2 6 9 16
173 8 5 437 92 440 441 
174 5 56 437 59 442 440 
175 6 7 436 77 443 444 
176 58 6 436 62 444 445 
177 7 87 436 91 446 443 
178 85 8 437 88 441 447 
179 56 57 439 60 448 449 
180 56 85 437 450 447 442 
181 85 56 439 450 449 451 
182 57 58 438 61 452 453 
183 86 57 438 454 453 455 
184 57 86 439 454 456 448 
185 87 58 436 457 445 446 
186 58 87 438 457 458 452 
187 86 85 439 89 451 456 
188 87 86 438 90 455 458 
3 1 11 281
189 415 318 176 304 459 460 461 462 463 367 
190 416 8 437 311 421 441 464 465 466 326 
191 416 437 5 169 464 440 422 467 182 468 
192 12 156 100 298 197 469 125 470 471 472 
193 415 176 162 304 461 218 473 462 474 463 
194 57 438 58 157 453 452 61 222 223 475 
195 298 100 12 32 471 125 470 338 128 129 
196 153 15 14 93 202 24 203 476 135 136 
197 93 295 35 34 477 345 142 137 44 344 
198 86 299 87 438 372 371 90 455 458 478 
199 64 272 297 155 283 479 480 227 481 482 
200 96 11 166 31 120 194 483 122 484 123 
201 31 166 96 308 484 483 122 335 485 486 
202 85 437 8 311 447 441 88 328 326 466 
203 304 415 318 80 462 459 367 331 365 435 
204 51 176 162 415 215 218 189 430 473 461 
205 56 5 437 169 59 440 442 183 468 182 
206 272 70 297 155 286 355 479 482 481 487 
207 15 295 35 93 488 345 143 136 142 477 
208 14 153 93 34 203 476 135 138 137 489 
209 58 87 299 438 457 371 490 452 478 458 
210 93 153 295 34 476 491 477 137 344 489 
211 295 15 153 93 488 202 491 477 476 136 
212 166 12 11 96 193 21 194 483 120 121 
213 86 299 438 57 372 478 455 454 453 492 
214 96 32 31 308 127 41 122 485 335 336 
215 273 312 317 175 493 360 494 495 496 497 
216 304 51 413 162 498 419 499 474 500 189 
217 156 13 12 100 196 22 197 469 125 126 
218 7 436 87 310 443 446 91 324 325 501 
219 298 33 100 32 339 134 471 338 129 42 
220 17 160 95 16 208 502 146 26 145 209 
221 272 64 63 155 283 67 284 482 226 227 
222 70 297 71 272 355 354 74 286 290 479 
223 36 37 302 95 46 351 350 147 503 150 
224 272 297 71 64 479 354 290 283 289 480 
225 6 436 168 58 444 504 185 62 184 445 
226 299 58 438 157 490 452 478 505 475 223 
227 315 312 297 155 394 359 392 506 481 507 
228 310 70 7 274 323 73 324 508 280 282 
229 63 168 6 274 186 185 66 281 279 509 
230 57 299 438 157 492 478 453 222 475 505 
231 160 95 302 175 502 503 510 211 511 512 
232 300 414 158 78 513 514 515 361 516 428 
233 71 312 72 273 358 357 75 291 293 493 
234 170 65 273 64 230 287 517 229 288 68 
235 158 50 49 414 212 53 213 514 425 426 
236 414 300 79 78 513 362 432 428 82 361 
237 311 416 8 78 465 421 326 327 81 424 
238 5 416 169 49 422 467 182 52 181 423 
239 152 439 56 57 518 449 219 220 60 448 
240 294 85 439 86 369 451 519 368 456 89 
241 95 317 302 175 520 353 503 512 511 496 
242 51 304 413 80 498 499 419 434 420 331 
243 416 437 169 311 464 468 467 465 521 466 
244 70 272 63 155 286 284 285 487 226 482 
245 7 436 310 274 443 501 324 280 508 522 
246 168 436 6 274 504 444 185 509 279 522 
247 317 37 3 97 319 47 320 523 107 109 
248 172 295 34 314 524 344 525 526 342 346 
249 175 97 2 17 527 106 178 179 27 108 
250 153 165 295 163 241 528 491 240 529 242 
251 15 313 295 171 530 349 488 206 531 532 
252 415 162 51 304 473 189 430 462 498 474 
253 56 85 439 311 450 451 449 533 534 328 
254 30 10 162 101 118 187 535 119 536 112 
255 314 172 295 306 526 524 346 385 381 537 
256 305 295 307 165 380 384 383 538 539 528 
257 172 14 13 94 199 23 200 540 130 131 
258 94 34 33 314 139 43 132 541 341 342 
259 298 174 306 316 542 543 395 396 397 544 
260 273 312 175 170 493 497 495 517 232 545 
261 312 307 302 160 410 409 411 546 510 547 
262 313 35 36 102 347 45 348 548 149 144 
263 313 307 295 171 386 384 349 532 531 549 
264 15 16 102 171 25 141 140 206 550 205 
265 176 300 414 158 551 513 552 217 514 515 
266 64 297 312 155 480 359 553 227 507 481 
267 305 295 165 163 380 528 538 554 242 529 
268 32 96 12 308 127 121 128 336 555 485 
269 172 164 153 306 243 239 204 537 556 557 
270 164 163 153 306 238 240 239 557 556 558 
271 172 153 14 34 204 203 199 525 138 489 
272 35 313 295 15 347 349 345 143 488 530 
273 295 153 172 34 491 204 524 344 525 489 
274 295 15 171 153 488 206 531 491 207 202 
275 311 49 416 78 559 423 465 327 424 427 
276 304 51 415 80 498 430 462 331 435 434 
277 155 310 70 297 560 323 487 481 355 356 
278 299 301 305 163 375 400 399 561 554 562 
279 12 156 298 308 197 472 470 555 340 563 
280 299 301 163 159 375 562 561 564 257 565 
281 65 273 317 175 287 494 566 180 496 495 
282 164 156 174 306 253 255 254 557 543 567 
283 306 174 301 316 543 568 408 397 406 544 
284 173 310 299 168 569 374 570 250 571 572 
285 153 295 172 306 491 524 204 556 537 381 
286 314 156 172 306 573 201 526 385 537 567 
287 300 176 414 318 551 552 513 366 574 460 
288 12 298 32 308 470 338 128 555 336 340 
289 295 153 163 306 491 240 529 381 558 556 
290 37 317 95 175 319 520 150 575 512 496 
291 163 299 173 305 561 570 259 554 576 399 
292 70 168 63 274 577 186 285 282 281 509 
293 439 294 152 311 519 578 518 534 579 370 
294 295 171 165 153 531 244 528 491 241 207 
295 301 299 152 159 375 580 581 565 233 564 
296 414 49 158 78 425 213 514 428 516 427 
297 306 156 174 298 567 255 543 395 542 472 
298 160 312 307 165 546 410 547 269 539 582 
299 299 315 310 173 401 393 374 570 569 583 
300 299 173 168 157 570 250 571 505 225 260 
301 72 317 3 271 321 320 76 278 275 584 
302 65 271 2 175 277 276 69 180 178 585 
303 71 312 273 64 358 493 291 289 288 553 
304 312 315 307 165 394 412 410 582 539 586 
305 157 299 163 159 505 561 258 234 257 564 
306 316 174 301 303 544 568 406 407 377 587 
307 308 296 166 303 337 588 486 388 589 387 
308 294 439 85 311 519 451 369 370 328 534 
309 152 56 439 169 219 449 518 221 590 183 
310 301 163 164 306 562 238 591 408 557 558 
311 310 87 299 58 325 371 374 592 490 457 
312 171 307 295 165 549 384 531 244 528 539 
313 96 166 12 308 483 193 121 485 555 486 
314 271 97 2 175 593 106 276 585 178 527 
315 97 3 317 271 107 320 523 593 584 275 
316 299 86 294 57 372 368 373 492 594 454 
317 174 316 308 303 544 398 595 587 388 407 
318 156 164 172 306 253 243 201 567 537 557 
319 318 50 414 79 596 426 574 364 432 431 
320 175 95 37 17 512 150 575 179 151 146 
321 13 172 94 314 200 540 130 597 541 526 
322 312 71 297 64 358 354 359 553 480 289 
323 299 163 173 157 561 259 570 505 260 258 
324 305 315 299 173 402 401 399 576 570 583 
325 157 152 299 159 224 580 505 234 564 233 
326 173 312 155 170 598 507 251 252 231 545 
327 101 162 30 304 536 535 119 599 330 474 
328 306 314 156 298 385 573 567 395 472 343 
329 174 306 301 164 543 408 568 254 591 557 
330 37 317 302 95 319 353 351 150 503 520 
331 175 160 95 17 211 502 512 179 146 208 
332 305 295 163 306 380 529 554 382 558 381 
333 31 296 30 98 333 332 40 124 117 600 
334 159 152 301 303 233 581 565 601 377 602 
335 154 11 10 98 190 20 191 603 115 116 
336 303 152 294 311 602 578 378 379 370 579 
337 158 300 311 309 515 363 604 605 404 403 
338 165 160 312 170 269 546 582 268 545 267 
339 168 310 299 58 572 374 571 184 490 592 
340 317 72 273 65 321 293 494 566 287 292 
341 156 12 166 308 197 193 198 563 486 555 
342 301 299 294 152 375 373 376 581 578 580 
343 173 165 312 170 270 582 598 252 545 268 
344 63 168 70 155 186 577 285 226 487 228 
345 312 173 155 315 598 251 507 394 506 583 
346 310 315 297 155 393 392 356 560 481 506 
347 176 50 414 318 216 426 552 460 574 596 
348 311 300 158 78 363 515 604 327 516 361 
349 307 313 302 171 386 352 409 549 606 532 
350 299 168 58 157 571 184 490 505 223 225 
351 302 95 160 16 503 502 510 607 209 145 
352 316 298 174 308 396 542 544 398 595 340 
353 57 152 299 157 220 580 492 222 505 224 
354 34 94 172 314 139 540 525 342 526 541 
355 312 315 165 173 394 586 582 598 270 583 
356 416 169 49 311 467 181 423 465 559 521 
357 160 307 302 171 547 409 510 210 606 549 
358 175 65 273 170 180 287 495 232 517 230 
359 312 317 72 273 360 321 357 493 293 494 
360 168 310 436 274 572 501 504 509 522 508 
361 169 56 439 311 183 449 590 521 534 533 
362 169 439 152 311 590 518 221 521 579 534 
363 160 302 312 175 510 411 546 211 497 511 
364 16 313 102 171 608 548 141 205 550 532 
365 102 313 15 171 548 530 140 550 206 532 
366 30 154 10 98 609 191 118 117 115 603 
367 152 299 294 57 580 373 578 220 594 492 
368 29 101 30 304 114 119 39 329 330 599 
369 158 176 50 414 217 216 212 514 426 552 
370 414 300 318 79 513 366 574 432 364 362 
371 294 301 152 303 376 581 578 378 602 377 
372 10 9 162 101 19 188 187 112 536 111 
373 163 301 305 306 562 400 554 558 382 408 
374 33 13 94 314 133 130 132 341 541 597 
375 159 301 163 164 565 562 257 266 238 591 
376 302 317 312 175 353 360 411 511 497 496 
377 70 310 168 274 323 572 577 282 509 508 
378 172 13 156 314 200 196 201 526 573 597 
379 16 302 313 171 607 352 608 205 532 606 
380 33 100 156 298 134 469 610 339 472 471 
381 152 161 169 303 235 237 221 602 611 612 
382 170 273 312 64 517 493 545 229 553 288 
383 95 302 36 16 503 350 147 145 148 607 
384 16 160 302 171 209 510 607 205 606 210 
385 303 169 152 311 611 221 602 379 579 521 
386 303 167 169 309 613 261 611 390 614 615 
387 164 301 174 159 591 568 254 266 265 565 
388 312 170 64 155 545 229 553 507 227 231 
389 154 161 166 296 246 245 195 616 588 617 
390 296 161 166 303 617 245 588 387 589 612 
391 156 13 100 33 196 126 469 610 134 133 
392 166 31 296 308 484 333 588 486 337 335 
393 31 11 166 296 123 194 484 333 588 618 
394 296 31 11 98 333 123 618 600 116 124 
395 298 156 174 308 472 255 542 340 595 563 
396 174 159 301 303 265 565 568 587 377 601 
397 171 160 307 165 210 547 549 244 539 269 
398 94 172 14 34 540 199 131 139 138 525 
399 303 296 167 309 387 619 613 390 615 389 
400 36 313 102 16 348 548 149 148 141 608 
401 313 35 102 15 347 144 548 530 140 143 
402 314 33 156 298 341 610 573 343 472 339 
403 166 174 308 303 256 595 486 589 388 587 
404 50 176 51 415 216 215 54 429 430 461 
405 415 79 318 80 433 364 459 435 365 83 
406 310 155 70 168 560 487 323 572 577 228 
407 315 305 307 165 402 383 412 586 539 538 
408 313 36 302 16 348 350 352 608 607 148 
409 152 159 161 303 233 236 235 602 612 601 
410 33 156 13 314 610 196 133 341 597 573 
411 271 317 97 175 584 523 593 585 527 496 
412 311 158 49 78 604 213 559 327 427 516 
413 158 169 167 309 214 261 262 605 615 614 
414 163 165 305 173 242 538 554 259 576 270 
415 167 303 169 161 613 611 261 247 237 612 
416 169 303 309 311 611 390 614 521 404 379 
417 176 309 304 318 620 391 463 460 367 405 
418 175 312 160 170 497 546 211 232 267 545 
419 154 167 161 296 248 247 246 616 617 619 
420 296 167 161 303 619 247 617 387 612 613 
421 156 166 174 308 198 256 255 563 595 486 
422 300 158 176 309 515 217 551 403 620 605 
423 315 305 165 173 402 538 586 583 270 576 
424 310 173 155 168 569 251 560 572 228 250 
425 30 296 154 98 332 616 609 117 603 600 
426 154 166 11 296 195 194 190 616 618 588 
427 154 10 162 30 191 187 192 609 535 118 
428 173 310 155 315 569 560 251 583 506 393 
429 169 158 311 309 214 604 521 614 404 605 
430 176 300 309 318 551 403 620 460 405 366 
431 296 11 154 98 618 190 616 600 603 116 
432 159 174 161 303 265 264 236 601 612 587 
433 439 294 86 57 519 368 456 448 454 594 
434 49 169 158 311 181 214 213 559 604 521 
435 436 87 310 58 446 325 501 445 592 457 
436 174 166 161 303 256 245 264 587 612 589 
437 56 437 85 311 442 447 450 533 328 466 
438 309 176 304 167 620 463 391 615 621 263 
439 162 101 29 304 536 114 622 474 329 599 
440 168 436 310 58 504 501 572 184 592 445 
441 176 167 162 304 263 249 218 463 474 621 
442 79 318 50 415 364 596 431 433 429 459 
443 162 296 30 304 623 332 535 474 330 334 
444 294 439 152 57 519 518 578 594 220 448 
445 317 37 97 175 319 109 523 496 527 575 
446 158 167 176 309 262 263 217 605 620 615 
447 101 9 162 29 111 188 536 114 622 113 
448 176 50 318 415 216 596 460 461 459 429 
449 65 317 271 175 566 584 277 180 585 496 
450 296 154 162 30 616 192 623 332 535 609 
451 175 37 97 17 575 109 527 179 108 151 
452 309 296 167 304 389 619 615 391 621 334 
453 437 56 169 311 442 183 468 466 521 533 
454 317 65 271 72 566 277 584 321 278 292 
455 296 162 167 304 623 249 619 334 621 474 
456 154 162 167 296 192 249 248 616 619 623 
457 97 2 3 271 106 28 107 593 275 276 
458 1 4 413 99 48 418 417 104 624 103 
459 436 7 6 274 443 77 444 522 279 280 
460 437 5 8 416 440 92 441 464 421 422 
461 413 4 29 99 418 38 625 624 110 103 
462 29 4 413 80 38 418 625 322 420 84 
463 413 304 29 80 499 329 625 420 322 331 
464 413 1 9 51 417 18 626 419 177 55 
465 9 1 413 99 18 417 626 105 624 104 
466 9 162 413 51 188 500 626 177 419 189 
467 29 413 162 304 625 500 622 329 474 499 
468 413 9 29 162 626 113 625 500 622 188 
469 29 9 413 99 113 626 625 110 624 105 
$EndElements
