$MeshFormat
4.1 0 8
$EndMeshFormat
$PhysicalNames
3
2 2 "x_min"
2 3 "x_max"
3 1 "domain"
$EndPhysicalNames
$Entities
2 3 3 1
1 3 1.224606353822377e-16 0.5 0 
2 0 1.224606353822377e-16 0.5 0 
1 2.9999999 -0.5000000999999999 -0.5000000999999999 3.0000001 0.5000000999999999 0.5000000999999999 0 2 1 -1 
2 -1.000000000583867e-07 -9.999999987753936e-08 0.4999999 3.0000001 1.000000001224606e-07 0.5000000999999999 0 2 2 -1 
3 -1e-07 -0.5000000999999999 -0.5000000999999999 1e-07 0.5000000999999999 0.5000000999999999 0 2 2 -2 
1 -1.000000000583867e-07 -0.5000000999999999 -0.5000000999999999 3.0000001 0.5000000999999999 0.5000000999999999 0 4 -1 -2 3 2 
2 2.9999999 -0.5000000999999999 -0.5000000999999999 3.0000001 0.5000000999999999 0.5000000999999999 1 3 1 1 
3 -1e-07 -0.5000000999999999 -0.5000000999999999 1e-07 0.5000000999999999 0.5000000999999999 1 2 1 3 
1 -1.000000000583867e-07 -0.5000000999999999 -0.5000000999999999 3.0000001 0.5000000999999999 0.5000000999999999 1 1 3 1 2 -3 
$EndEntities
$Nodes
9 72 1 72
0 1 0 1
1
3 1.224606353822377e-16 0.5
0 2 0 1
2
0 1.224606353822377e-16 0.5
1 1 0 6
3
4
5
6
7
8
3 -0.3909157412340143 0.3117449009293674
3 -0.4874639560909123 -0.1112604669781549
3 -0.2169418695587827 -0.4504844339512078
3 0.216941869558774 -0.450484433951212
3 0.4874639560909108 -0.1112604669781616
3 0.3909157412340163 0.311744900929365
1 2 0 6
9
10
11
12
13
14
0.4285714285714286 1.224606353822377e-16 0.5
0.8571428571428572 1.224606353822377e-16 0.5
1.285714285714286 1.224606353822377e-16 0.5
1.714285714285714 1.224606353822377e-16 0.5
2.142857142857143 1.224606353822377e-16 0.5
2.571428571428572 1.224606353822377e-16 0.5
1 3 0 6
15
16
17
18
19
20
0 -0.3909157412340143 0.3117449009293674
0 -0.4874639560909123 -0.1112604669781549
0 -0.2169418695587827 -0.4504844339512078
0 0.216941869558774 -0.450484433951212
0 0.4874639560909108 -0.1112604669781616
0 0.3909157412340163 0.311744900929365
2 1 0 46
21
22
23
24
25
26
27
28
29
30
31
32
33
34
35
36
37
38
39
40
41
42
43
44
45
46
47
48
49
50
51
52
53
54
55
56
57
58
59
60
61
62
63
64
65
66
1.49545473610637 -0.352857260187899 0.3542481530406184
1.928758070701013 0.3446998880068607 0.3621905399207131
1.071778653631468 0.3434507247448561 0.3633752876465777
2.614114111960383 -0.4089162896589217 -0.287728114809069
0.3833519846008721 -0.402085651239403 -0.2971988039467607
2.601381373690087 0.4158174232905144 -0.2776614314016932
0.3974188650618072 0.4165363122428562 -0.2765818153514829
2.357142857142857 -0.3446427627287315 0.3622448979609062
0.6428571428571429 -0.3446427627287316 0.362244897960906
2.342652133102561 0.3311347475026542 0.3746328589383924
2.207556237294371 0.4998978148829957 -0.01010814895053112
1.727350188571907 0.4997496249422691 0.01582126322584206
1.927254673870145 0.376416552553963 -0.3291057261175953
1.498141503827901 0.3768008640642623 -0.3286656490119181
1.501905407910611 0.3437838920226288 0.3630600991375581
1.927763552716815 -0.353797533789926 0.3533090786891361
2.217958173886315 -0.4976741998059347 -0.04817043540931037
1.711059247642707 0.04329225973411355 -0.4981222543182688
1.279730172075403 0.04426075189865387 -0.4980371329944845
1.089434931695171 0.3695781478107354 -0.3367669708578712
2.132979463421809 0.03140394481309401 -0.4990128177213248
0.8652464713193541 0.03258400719410848 -0.4989371528310698
1.079851178888893 -0.3140689192865505 -0.389051042844224
1.919853492631076 -0.3116264138606972 -0.3910102021486415
1.496245336338717 -0.3199968084879684 -0.3841901125191986
1.723989499953066 -0.4987223404280477 -0.03572152233556828
1.284237603538642 -0.4990806952771858 -0.03030609842326738
0.7916521259170748 -0.4971555647993849 -0.05325734117475788
1.292507283762974 0.4994405979903582 0.02364506458086787
1.060470901643197 -0.3586987428066821 0.348332042610073
0.6539919952870432 0.334082717459404 0.3720063680838542
0.7943263057082284 0.4998906442263953 -0.01045675929337083
0.3702871318263042 0.4849906254014328 0.1215898567838907
2.641088630011908 -0.4874009167860353 0.1115363004413015
0.3604495624617386 -0.4879490636480502 0.1091132956380252
2.629435937560334 0.4848864640984351 0.1220045775129645
2.544763924711703 0.01564750748569389 -0.4997550955312863
0.4527698831261081 0.01787439907151442 -0.4996804037160475
2.290529034050048 -0.2817670375865083 -0.4130464096560134
0.7141993582477668 -0.2806507773116014 -0.4138056804762277
2.272857250563467 0.3323568275864415 -0.3735491121080017
0.7328215767701467 0.3308843689030425 -0.3748540174729828
0.3138760197057388 0.2995658842815734 0.4003252190089939
2.687064669462048 -0.2987658486313897 0.4009226455210101
0.3129353305379515 -0.2987658486313896 0.4009226455210102
2.68706466946159 0.2987658486316378 0.4009226455208252
2 2 0 1
67
3 -1.205384998164456e-15 -5.709718412357947e-16
2 3 0 1
68
0 -1.205384998164456e-15 -5.709718412357947e-16
3 1 0 4
69
70
71
72
1.602624125647256 -0.000954849988943296 -0.0006038597469770757
0.592334145804455 0.004675300738466115 -0.01068803128937845
2.481236367123727 0.01903687181544263 0.006128333424594845
1.101907103792848 -0.0002822921367948705 0.0005266196199151807
$EndNodes
$Elements
3 172 1 172
2 2 2 7
1 3 67 1 
2 1 67 8 
3 4 67 3 
4 5 67 4 
5 6 67 5 
6 7 67 6 
7 8 67 7 
2 3 2 7
8 15 2 68 
9 2 20 68 
10 16 15 68 
11 17 16 68 
12 18 17 68 
13 19 18 68 
14 20 19 68 
3 1 4 158
15 33 69 41 71 
16 44 41 69 71 
17 33 31 69 71 
18 13 69 22 71 
19 13 36 69 71 
20 22 69 31 71 
21 44 69 37 71 
22 37 69 36 71 
23 33 41 61 71 
24 44 59 41 71 
25 33 61 31 71 
26 37 59 44 71 
27 33 38 41 69 
28 12 22 13 69 
29 13 22 30 71 
30 38 44 41 69 
31 28 36 13 71 
32 12 13 36 69 
33 22 31 30 71 
34 28 37 36 71 
35 68 9 65 70 
36 63 9 68 70 
37 10 70 51 72 
38 63 68 53 70 
39 29 70 10 72 
40 68 65 55 70 
41 53 68 27 70 
42 34 39 69 72 
43 68 55 25 70 
44 23 10 51 72 
45 58 68 25 70 
46 68 58 27 70 
47 45 69 39 72 
48 35 69 11 72 
49 14 67 64 71 
50 66 67 14 71 
51 51 70 52 72 
52 48 70 29 72 
53 29 10 50 72 
54 60 42 70 72 
55 57 24 67 71 
56 57 67 26 71 
57 23 51 52 72 
58 11 69 21 72 
59 34 40 39 72 
60 42 62 70 72 
61 67 24 54 71 
62 34 69 49 72 
63 48 29 50 72 
64 26 67 56 71 
65 60 70 48 72 
66 49 69 35 72 
67 47 69 45 72 
68 64 67 54 71 
69 6 26 57 67 
70 2 68 9 65 
71 1 64 14 67 
72 66 1 14 67 
73 63 2 68 9 
74 58 18 68 27 
75 67 57 5 24 
76 56 67 66 71 
77 39 38 34 69 
78 47 21 69 72 
79 33 34 38 69 
80 17 68 25 58 
81 52 70 62 72 
82 60 43 42 72 
83 45 39 43 72 
84 45 38 39 69 
85 60 48 43 72 
86 23 35 11 72 
87 26 7 56 67 
88 68 27 19 53 
89 42 40 62 72 
90 11 35 12 69 
91 34 49 40 72 
92 14 28 13 71 
93 40 52 62 72 
94 14 13 30 71 
95 51 10 9 70 
96 4 54 67 24 
97 33 32 34 69 
98 16 25 68 55 
99 21 11 12 69 
100 29 9 10 70 
101 47 45 43 72 
102 35 22 12 69 
103 49 35 23 72 
104 50 11 21 72 
105 8 66 56 67 
106 57 5 6 67 
107 41 59 57 71 
108 68 17 18 58 
109 68 53 20 63 
110 44 38 45 69 
111 61 41 57 71 
112 3 54 64 67 
113 47 50 21 72 
114 51 9 63 70 
115 35 32 22 69 
116 68 65 15 55 
117 53 51 63 70 
118 34 32 49 69 
119 39 40 42 72 
120 21 12 36 69 
121 24 59 37 71 
122 29 65 9 70 
123 49 32 35 69 
124 28 54 37 71 
125 47 46 45 69 
126 44 45 46 69 
127 29 55 65 70 
128 54 24 37 71 
129 47 21 46 69 
130 49 52 40 72 
131 6 7 26 67 
132 43 39 42 72 
133 27 18 68 19 
134 25 55 48 70 
135 52 51 53 70 
136 43 48 47 72 
137 56 7 8 67 
138 53 19 68 20 
139 29 48 55 70 
140 10 11 50 72 
141 10 23 11 72 
142 21 36 46 69 
143 49 23 52 72 
144 31 56 30 71 
145 48 50 47 72 
146 27 52 53 70 
147 48 60 25 70 
148 67 5 4 24 
149 28 64 54 71 
150 31 26 56 71 
151 54 3 4 67 
152 25 16 68 17 
153 61 26 31 71 
154 28 14 64 71 
155 42 58 60 70 
156 15 16 68 55 
157 42 62 58 70 
158 52 27 62 70 
159 24 57 59 71 
160 30 66 14 71 
161 58 25 60 70 
162 30 56 66 71 
163 20 2 68 63 
164 66 8 1 67 
165 64 1 3 67 
166 2 68 65 15 
167 58 62 27 70 
168 61 57 26 71 
169 31 69 32 33 
170 32 69 31 22 
171 69 37 46 44 
172 69 46 37 36 
$EndElements
