<?xml version="1.0"?>
<VTKFile type="UnstructuredGrid" version="0.1" byte_order="LittleEndian">
  <UnstructuredGrid>
    <Piece NumberOfPoints="72" NumberOfCells="158">
      <Points>
        <DataArray type="Float64" NumberOfComponents="3" format="ascii">3 1.22460635382e-16 0.5 0 1.22460635382e-16 0.5 3 -0.390915741234 0.311744900929 3 -0.487463956091 -0.111260466978 3 -0.216941869559 -0.450484433951 3 0.216941869559 -0.450484433951 3 0.487463956091 -0.111260466978 3 0.390915741234 0.311744900929 0.428571428571 1.22460635382e-16 0.5 0.857142857143 1.22460635382e-16 0.5 1.28571428571 1.22460635382e-16 0.5 1.71428571429 1.22460635382e-16 0.5 2.14285714286 1.22460635382e-16 0.5 2.57142857143 1.22460635382e-16 0.5 0 -0.390915741234 0.311744900929 0 -0.487463956091 -0.111260466978 0 -0.216941869559 -0.450484433951 0 0.216941869559 -0.450484433951 0 0.487463956091 -0.111260466978 0 0.390915741234 0.311744900929 1.49545473611 -0.352857260188 0.354248153041 1.9287580707 0.344699888007 0.362190539921 1.07177865363 0.343450724745 0.363375287647 2.61411411196 -0.408916289659 -0.287728114809 0.383351984601 -0.402085651239 -0.297198803947 2.60138137369 0.415817423291 -0.277661431402 0.397418865062 0.416536312243 -0.276581815351 2.35714285714 -0.344642762729 0.362244897961 0.642857142857 -0.344642762729 0.362244897961 2.3426521331 0.331134747503 0.374632858938 2.20755623729 0.499897814883 -0.0101081489505 1.72735018857 0.499749624942 0.0158212632258 1.92725467387 0.376416552554 -0.329105726118 1.49814150383 0.376800864064 -0.328665649012 1.50190540791 0.343783892023 0.363060099138 1.92776355272 -0.35379753379 0.353309078689 2.21795817389 -0.497674199806 -0.0481704354093 1.71105924764 0.0432922597341 -0.498122254318 1.27973017208 0.0442607518987 -0.498037132994 1.0894349317 0.369578147811 -0.336766970858 2.13297946342 0.0314039448131 -0.499012817721 0.865246471319 0.0325840071941 -0.498937152831 1.07985117889 -0.314068919287 -0.389051042844 1.91985349263 -0.311626413861 -0.391010202149 1.49624533634 -0.319996808488 -0.384190112519 1.72398949995 -0.498722340428 -0.0357215223356 1.28423760354 -0.499080695277 -0.0303060984233 0.791652125917 -0.497155564799 -0.0532573411748 1.29250728376 0.49944059799 0.0236450645809 1.06047090164 -0.358698742807 0.34833204261 0.653991995287 0.334082717459 0.372006368084 0.794326305708 0.499890644226 -0.0104567592934 0.370287131826 0.484990625401 0.121589856784 2.64108863001 -0.487400916786 0.111536300441 0.360449562462 -0.487949063648 0.109113295638 2.62943593756 0.484886464098 0.122004577513 2.54476392471 0.0156475074857 -0.499755095531 0.452769883126 0.0178743990715 -0.499680403716 2.29052903405 -0.281767037587 -0.413046409656 0.714199358248 -0.280650777312 -0.413805680476 2.27285725056 0.332356827586 -0.373549112108 0.73282157677 0.330884368903 -0.374854017473 0.313876019706 0.299565884282 0.400325219009 2.68706466946 -0.298765848631 0.400922645521 0.312935330538 -0.298765848631 0.400922645521 2.68706466946 0.298765848632 0.400922645521 3 -1.20538499816e-15 -5.70971841236e-16 0 -1.20538499816e-15 -5.70971841236e-16 1.60262412565 -0.000954849988943 -0.000603859746977 0.592334145804 0.00467530073847 -0.0106880312894 2.48123636712 0.0190368718154 0.00612833342459 1.10190710379 -0.000282292136795 0.000526619619915</DataArray>
      </Points>
      <Cells>
        <DataArray type="Int32" Name="connectivity" format="ascii">32 68 40 70 43 40 68 70 32 30 68 70 12 68 21 70 12 35 68 70 21 68 30 70 43 68 36 70 36 68 35 70 32 40 60 70 43 58 40 70 32 60 30 70 36 58 43 70 32 37 40 68 11 21 12 68 12 21 29 70 37 43 40 68 27 35 12 70 11 12 35 68 21 30 29 70 27 36 35 70 67 8 64 69 62 8 67 69 9 69 50 71 62 67 52 69 28 69 9 71 67 64 54 69 52 67 26 69 33 38 68 71 67 54 24 69 22 9 50 71 57 67 24 69 67 57 26 69 44 68 38 71 34 68 10 71 13 66 63 70 65 66 13 70 50 69 51 71 47 69 28 71 28 9 49 71 59 41 69 71 56 23 66 70 56 66 25 70 22 50 51 71 10 68 20 71 33 39 38 71 41 61 69 71 66 23 53 70 33 68 48 71 47 28 49 71 25 66 55 70 59 69 47 71 48 68 34 71 46 68 44 71 63 66 53 70 5 25 56 66 1 67 8 64 0 63 13 66 65 0 13 66 62 1 67 8 57 17 67 26 66 56 4 23 55 66 65 70 38 37 33 68 46 20 68 71 32 33 37 68 16 67 24 57 51 69 61 71 59 42 41 71 44 38 42 71 44 37 38 68 59 47 42 71 22 34 10 71 25 6 55 66 67 26 18 52 41 39 61 71 10 34 11 68 33 48 39 71 13 27 12 70 39 51 61 71 13 12 29 70 50 9 8 69 3 53 66 23 32 31 33 68 15 24 67 54 20 10 11 68 28 8 9 69 46 44 42 71 34 21 11 68 48 34 22 71 49 10 20 71 7 65 55 66 56 4 5 66 40 58 56 70 67 16 17 57 67 52 19 62 43 37 44 68 60 40 56 70 2 53 63 66 46 49 20 71 50 8 62 69 34 31 21 68 67 64 14 54 52 50 62 69 33 31 48 68 38 39 41 71 20 11 35 68 23 58 36 70 28 64 8 69 48 31 34 68 27 53 36 70 46 45 44 68 43 44 45 68 28 54 64 69 53 23 36 70 46 20 45 68 48 51 39 71 5 6 25 66 42 38 41 71 26 17 67 18 24 54 47 69 51 50 52 69 42 47 46 71 55 6 7 66 52 18 67 19 28 47 54 69 9 10 49 71 9 22 10 71 20 35 45 68 48 22 51 71 30 55 29 70 47 49 46 71 26 51 52 69 47 59 24 69 66 4 3 23 27 63 53 70 30 25 55 70 53 2 3 66 24 15 67 16 60 25 30 70 27 13 63 70 41 57 59 69 14 15 67 54 41 61 57 69 51 26 61 69 23 56 58 70 29 65 13 70 57 24 59 69 29 55 65 70 19 1 67 62 65 7 0 66 63 0 2 66 1 67 64 14 57 61 26 69 60 56 25 70 30 68 31 32 31 68 30 21 68 36 45 43 68 45 36 35</DataArray>
        <DataArray type="Int32" Name="offsets" format="ascii">4 8 12 16 20 24 28 32 36 40 44 48 52 56 60 64 68 72 76 80 84 88 92 96 100 104 108 112 116 120 124 128 132 136 140 144 148 152 156 160 164 168 172 176 180 184 188 192 196 200 204 208 212 216 220 224 228 232 236 240 244 248 252 256 260 264 268 272 276 280 284 288 292 296 300 304 308 312 316 320 324 328 332 336 340 344 348 352 356 360 364 368 372 376 380 384 388 392 396 400 404 408 412 416 420 424 428 432 436 440 444 448 452 456 460 464 468 472 476 480 484 488 492 496 500 504 508 512 516 520 524 528 532 536 540 544 548 552 556 560 564 568 572 576 580 584 588 592 596 600 604 608 612 616 620 624 628 632</DataArray>
        <DataArray type="UInt8" Name="types" format="ascii">10 10 10 10 10 10 10 10 10 10 10 10 10 10 10 10 10 10 10 10 10 10 10 10 10 10 10 10 10 10 10 10 10 10 10 10 10 10 10 10 10 10 10 10 10 10 10 10 10 10 10 10 10 10 10 10 10 10 10 10 10 10 10 10 10 10 10 10 10 10 10 10 10 10 10 10 10 10 10 10 10 10 10 10 10 10 10 10 10 10 10 10 10 10 10 10 10 10 10 10 10 10 10 10 10 10 10 10 10 10 10 10 10 10 10 10 10 10 10 10 10 10 10 10 10 10 10 10 10 10 10 10 10 10 10 10 10 10 10 10 10 10 10 10 10 10 10 10 10 10 10 10 10 10 10 10 10 10</DataArray>
      </Cells>
      <PointData Vectors="Displacement">
        <DataArray type="Float64" Name="Displacement" NumberOfComponents="3" format="ascii">1.28618358248e-10 -3.15415338861e-07 -2.47676571858e-11 0 0 0 3.99616092005e-11 -1.9674660506e-07 -2.48949140559e-07 -2.65799057524e-10 7.03963415452e-08 -3.10179726362e-07 -5.30282062827e-10 2.85486850332e-07 -1.3711122179e-07 2.86741183178e-10 2.85509225002e-07 1.37562263428e-07 2.7186984253e-10 7.0374851112e-08 3.10571279207e-07 1.95410243449e-10 -1.96941761389e-07 2.49249471556e-07 -8.09016885185e-11 -4.24733317635e-08 2.60132998843e-10 -1.52169681087e-10 -8.64338589597e-08 3.75665780325e-10 -2.50096399424e-10 -1.4562374664e-07 6.13569169548e-11 -3.67429558079e-10 -1.87764793708e-07 2.59266984452e-10 -1.80836832921e-10 -2.18029006778e-07 6.66894539218e-10 -2.97762945694e-11 -2.74077727019e-07 -2.27889015857e-10 0 0 0 0 0 0 0 0 0 0 0 0 0 0 0 0 0 0 -3.21782414223e-10 -1.1184878541e-07 -1.11416910405e-07 1.59107543357e-10 -1.53079769816e-07 1.4732182021e-07 6.71686284977e-10 -8.37714530735e-08 8.08662725855e-08 -1.27931365887e-09 1.56778729018e-07 -2.25575652747e-07 6.61267575236e-10 2.68103748315e-08 -3.16636886786e-08 1.25987939634e-09 1.50864826874e-07 2.29190275292e-07 -2.99266789079e-10 2.58793672131e-08 3.40524529652e-08 -5.71426138002e-10 -1.75407284754e-07 -1.67829123474e-07 3.82767959557e-10 -5.42079242567e-08 -5.11379426158e-08 8.49179812335e-10 -1.79735908887e-07 1.60523457848e-07 3.21013379993e-10 4.60899940836e-09 2.21695295044e-07 -6.27490016285e-11 -5.45914456026e-09 1.90395817762e-07 -5.71280524518e-11 1.39994369388e-07 1.61250783321e-07 1.47209619365e-10 1.0475456139e-07 1.20136419033e-07 9.15486515782e-11 -1.14701601168e-07 1.09493825436e-07 -2.71161776296e-10 -1.49649838837e-07 -1.51486570426e-07 -1.2367139229e-10 2.18530825516e-08 -2.22061801094e-07 2.32893008996e-10 1.8818812721e-07 1.64093745864e-08 2.95429599467e-10 1.46207582548e-07 1.31089130791e-08 -5.3952563693e-11 8.14341254126e-08 8.91486939953e-08 4.34486482402e-10 2.18602839284e-07 1.42874003466e-08 3.25947908241e-10 9.21390702295e-08 6.227042149e-09 8.31770407178e-10 9.25422970738e-08 -7.48337483043e-08 3.51509809644e-10 1.66910054696e-07 -1.33722761815e-07 3.30671913475e-10 1.22515677746e-07 -1.0131299872e-07 3.51606809199e-10 1.40782640042e-08 -1.89924578855e-07 1.92464125503e-10 9.26450137099e-09 -1.45597800181e-07 4.41119877874e-10 1.1160218059e-08 -8.42866322638e-08 -2.73340740211e-11 -6.53724302864e-09 1.4703930953e-07 -9.45393963188e-10 -7.89944880054e-08 -8.27377177017e-08 -4.93777846074e-10 -5.63261549196e-08 5.06424520323e-08 -2.97715639305e-10 4.32392082179e-09 8.57867784372e-08 3.85181638062e-10 -8.48154391671e-09 3.88754949397e-08 8.08090470025e-11 -6.21406274909e-08 -2.70552766057e-07 -3.83643940697e-10 -7.80175283596e-09 -3.8051168358e-08 9.207434374e-11 -6.83137212659e-08 2.6902932593e-07 -1.38626395248e-11 2.69210986522e-07 8.70898035284e-09 6.65654812666e-11 4.78294191464e-08 1.59955343644e-09 5.79274623803e-10 1.95008385662e-07 -1.3348409578e-07 5.63222910436e-11 7.01783497308e-08 -4.55134201617e-08 -9.74039584056e-11 1.74411437888e-07 1.57010852275e-07 5.48561701551e-10 6.50605567285e-08 5.51611831205e-08 -8.18697326407e-10 -3.01506635539e-08 2.12212996396e-08 5.72652390741e-10 -2.2382418808e-07 -1.68947833308e-07 7.55442183961e-10 -3.03595117789e-08 -2.08882887025e-08 -3.92420968019e-10 -2.24445411155e-07 1.6922464272e-07 1.04571881008e-10 -1.38114861555e-10 -1.08869190055e-10 0 0 0 2.33618233555e-11 6.35974136431e-10 7.97650896334e-11 2.32866316672e-11 1.79389109024e-09 7.26726779796e-10 1.46640003851e-11 -2.18124023896e-09 9.81134232973e-09 -5.91897150956e-12 -1.04622786099e-10 -5.97063414904e-11</DataArray>
        <DataArray type="Float64" Name="DisplacementMagnitude" format="ascii">3.15415366058e-07 0 3.17308844479e-07 3.18067883003e-07 3.16705715218e-07 3.1692108813e-07 3.1844499219e-07 3.17665538948e-07 4.24742054117e-08 8.64348092788e-08 1.45623974326e-07 1.87765332211e-07 2.18030101699e-07 2.74077823379e-07 0 0 0 0 0 0 1.57873310809e-07 2.12455077492e-07 1.16436512978e-07 2.74709995501e-07 4.14948509354e-08 2.74390170327e-07 4.27714947238e-08 2.42764611833e-07 7.45233838369e-08 2.40984436363e-07 2.21743432304e-07 1.90474075973e-07 2.13542131312e-07 1.5939353494e-07 1.58572896487e-07 2.12939730469e-07 2.23134524484e-07 1.88902337297e-07 1.46794373446e-07 1.20743568498e-07 2.19069669124e-07 9.23498270639e-08 1.19016210976e-07 2.13871145659e-07 1.58979635007e-07 1.90445968185e-07 1.45892383097e-07 8.5023416964e-08 1.47184560469e-07 1.14396472129e-07 7.57465345243e-08 8.58961947964e-08 3.97918215078e-08 2.77597304266e-07 3.88446385412e-08 2.77567201235e-07 2.69351817879e-07 4.78562048019e-08 2.36318873271e-07 8.36449362362e-08 2.34673745625e-07 8.5299080212e-08 3.6879212796e-08 2.80429965374e-07 3.68590728759e-08 2.81092291404e-07 2.04605703301e-10 0 6.41382371541e-10 1.93564442068e-09 1.00508936082e-08 1.20606006522e-10</DataArray>
        <DataArray type="Float64" Name="NodalVonMises" format="ascii">6191.82483672 6432.50491982 6439.87521422 6282.91149447 6144.8503265 6143.99179715 6229.69884268 6382.61141881 5106.18805731 5307.81595118 5234.24728459 5921.26206778 4588.32440231 5287.12736125 6365.7032797 6157.87522454 6040.66725168 6055.68139196 6150.26392314 6369.37799019 5229.723553 4505.26592233 6403.40983004 5193.34759795 5024.6403762 5272.79643088 5039.61290705 6134.77526005 5126.62854269 6224.0347761 4787.49518424 5817.19619435 4351.38175734 5076.41108023 5161.42876529 4565.13474779 4729.46855429 5951.99738555 5077.19361459 6276.99453449 4372.22810853 5214.62827243 6285.2551668 4426.71124983 5164.77795666 5929.51569521 5133.91304223 5171.13764703 5042.88618995 6435.65099929 5145.07046295 5181.58423173 4960.50609684 5195.67185445 4926.26054415 5283.91399081 5353.07209994 5222.18240138 5825.36753503 4875.8421589 5916.73614906 4882.34260234 5019.78824151 4885.9097326 5003.55798256 4939.7538904 4481.79983876 4432.46620142 4183.92740427 3704.34304829 4077.69470355 4475.82739325</DataArray>
        <DataArray type="Float64" Name="NodalStressTrace" format="ascii">-48.0047124407 21.5347741301 402.905252841 -58.7977788849 147.703646677 -119.469777801 54.3368832866 -482.455534073 16.8226824387 32.1366721123 95.1783272413 90.4858785056 -83.8755995011 8.28742241523 -936.656151663 -47.8259594926 -126.206503175 -108.036948219 -29.1165713974 958.93554412 -74.5595500857 112.979347901 -116.50585316 162.094660312 178.119671842 -150.134075022 -293.853818638 -84.5753413905 63.0450093933 134.542876579 -27.970166055 -58.9313997538 -213.510612431 -116.513735471 69.3616853289 -75.678052348 77.0116179941 -100.861803599 -63.0360502406 65.5973298882 103.218998687 -98.8768554319 -125.299851809 68.6999497863 139.87974303 12.0974159919 -52.7897268479 -98.663908537 45.5443244137 116.62980942 -6.41942848473 106.699824659 509.93880361 35.7194840648 -548.254433793 15.6158017917 41.4769020249 -171.518441698 -71.0047751728 -135.184468796 114.253831014 -30.9548853525 429.400394101 486.327099587 -415.2796741 -413.19739173 -10.7423177847 -17.5293290202 8.15888104403 5.20160020465 13.1443960251 14.8537015528</DataArray>
        <DataArray type="Float64" Name="NodalPrincipalStress" NumberOfComponents="3" format="ascii">-3595.60681075 -2.80550119754 3550.4075995 -3708.6647813 11.827710374 3718.37184506 -3506.57864446 -14.742636521 3924.22653382 -3663.88140709 15.5393596619 3589.54426855 -3514.85622235 82.650766139 3579.90910289 -3543.52804122 -124.705837003 3548.76410043 -3548.36099559 -39.6130828849 3642.31096176 -3924.67547317 3.10995047839 3439.10998862 -2931.63030496 11.6235494489 2936.82943795 -3034.59203012 24.0277107325 3042.7009915 -2966.32678831 31.7349502203 3029.77016533 -3373.9849833 6.44934709764 3458.02151471 -2655.76697316 -45.8724216335 2617.7637953 -3047.02634898 20.2272730634 3035.08649833 -4039.85227343 -198.950715008 3302.14683678 -3545.8691327 -65.33211693 3563.37529014 -3507.24408268 -86.2154874783 3467.25306698 -3562.54889724 26.5371997388 3427.97474928 -3593.36511477 58.7174209574 3505.53112242 -3304.11218744 219.41569967 4043.63203189 -3009.16325193 -52.1858775346 2986.78957938 -2546.72063687 27.7873582446 2631.91262652 -3771.32708067 35.3176483154 3619.50357919 -2979.49516275 132.308139649 3009.28168341 -2770.70667709 -74.514017277 3023.3403662 -3039.18448324 -153.713397836 3042.76380605 -3083.70269102 63.7693129832 2726.0795594 -3596.94719826 34.8480078295 3477.52384904 -2903.0583965 -17.6188700493 2983.72227594 -3504.06194289 -33.977969391 3672.58278886 -2726.9609815 -68.0404504311 2767.03126587 -3385.83361184 0.469557935249 3326.43265416 -2580.66540404 -49.472181721 2416.62697333 -2946.75566323 -37.221446435 2867.4633742 -2945.41921132 50.5169259501 2964.2639707 -2628.5584642 -64.6145856493 2617.4949975 -2714.05159351 70.6326414828 2720.43057002 -3480.35887504 -7.93479868552 3387.43187013 -2926.92410465 -24.9133876795 2888.80144209 -3607.06527563 34.5306873262 3638.13191819 -2490.63541291 62.7461155482 2531.10829605 -3018.11697291 -51.4301670697 2970.67028454 -3648.86252795 -82.2920833404 3605.85475948 -2534.17395985 54.0565844059 2548.81732523 -2914.12386536 48.3695228888 3005.6340855 -3410.01408329 -12.3564449857 3434.46794427 -2953.15301298 -35.7972597658 2936.1605459 -2952.6282667 -151.349410712 3005.31376887 -2883.52648187 36.5200039297 2892.55080236 -3653.27469424 -4.84553776714 3774.75004143 -2975.68408926 40.469558554 2928.79510222 -3011.63028637 160.286548591 2958.04356244 -2701.96894602 194.871552909 3017.03619672 -3027.53677658 105.289116409 2957.96714423 -3021.20203449 -186.973083467 2659.92068417 -2994.04335567 -81.3241637513 3090.98332121 -3067.65175809 3.78913883321 3105.33952129 -3073.91160896 -46.2287721381 2948.6219394 -3416.91566786 42.6598119288 3303.25108075 -2788.26098816 -161.877146262 2814.95366563 -3356.92782562 3.99807445789 3467.18358217 -2879.77055424 116.387798404 2732.42787049 -2706.96932899 66.7413735908 3069.6283495 -2615.29844 92.664583621 3008.96095597 -3058.52293157 -57.2239080145 2700.46716548 -3034.23346928 -25.6387892515 2646.6748668 -2585.87832219 0.332187957632 2574.80381645 -2561.75644296 0.977493387114 2543.24962055 -2384.52518461 2.46304289204 2390.22102276 -2120.85949698 3.90602764971 2122.15506954 -2336.22214743 8.67202031657 2340.69452314 -2552.02712142 3.51512520615 2563.36569777</DataArray>
        <DataArray type="Float64" Name="ShellTopNodalVonMises" format="ascii">0 0 0 0 0 0 0 0 0 0 0 0 0 0 0 0 0 0 0 0 0 0 0 0 0 0 0 0 0 0 0 0 0 0 0 0 0 0 0 0 0 0 0 0 0 0 0 0 0 0 0 0 0 0 0 0 0 0 0 0 0 0 0 0 0 0 0 0 0 0 0 0</DataArray>
        <DataArray type="Float64" Name="ShellBottomNodalVonMises" format="ascii">0 0 0 0 0 0 0 0 0 0 0 0 0 0 0 0 0 0 0 0 0 0 0 0 0 0 0 0 0 0 0 0 0 0 0 0 0 0 0 0 0 0 0 0 0 0 0 0 0 0 0 0 0 0 0 0 0 0 0 0 0 0 0 0 0 0 0 0 0 0 0 0</DataArray>
      </PointData>
      <CellData Scalars="VonMises">
        <DataArray type="Int32" Name="ElementIndex" format="ascii">0 1 2 3 4 5 6 7 8 9 10 11 12 13 14 15 16 17 18 19 20 21 22 23 24 25 26 27 28 29 30 31 32 33 34 35 36 37 38 39 40 41 42 43 44 45 46 47 48 49 50 51 52 53 54 55 56 57 58 59 60 61 62 63 64 65 66 67 68 69 70 71 72 73 74 75 76 77 78 79 80 81 82 83 84 85 86 87 88 89 90 91 92 93 94 95 96 97 98 99 100 101 102 103 104 105 106 107 108 109 110 111 112 113 114 115 116 117 118 119 120 121 122 123 124 125 126 127 128 129 130 131 132 133 134 135 136 137 138 139 140 141 142 143 144 145 146 147 148 149 150 151 152 153 154 155 156 157</DataArray>
        <DataArray type="Float64" Name="VonMises" format="ascii">969.300580787 852.039466056 1438.25035091 1056.12120285 829.247885243 1304.93262186 1595.12954739 1510.32289747 4331.8338294 4454.13569194 4249.61698039 4168.68218313 5153.4481292 5086.79785167 4981.13134211 5273.56161741 5092.01001826 5254.88952039 4918.7152881 4852.5671153 1142.11863403 1167.87325219 1877.93389333 654.851011576 1974.088741 526.900217503 462.548434398 2052.11349955 423.198993113 6255.67134766 851.094119185 717.558956921 2012.41249135 2154.20759539 1151.55459145 1336.23145826 1498.00195115 1478.91743037 6107.41371755 1639.10047649 806.446208572 818.975660108 6247.75122547 2043.72361339 5675.63640026 1357.25496033 575.510656881 1985.46396486 6203.91606299 634.470473083 369.742599202 1939.76252909 2017.31906787 726.274358688 6957.81527498 6603.53599097 6306.5626556 6225.14489984 6586.49112183 6798.36084007 6905.41582962 836.516843853 5599.21880076 1876.92079933 6954.58236044 6720.13434753 348.268933372 6104.38541278 5796.38705643 5598.93064482 6418.84647849 5910.0435372 6994.49294985 6987.92828971 6301.10467727 5587.24580304 5673.60934509 7203.04433723 6480.69241171 7203.35306072 5884.05651502 7003.55750271 6974.70746086 6961.31283581 5621.06589061 5863.01269092 5768.75017289 6918.9402684 6017.14759466 6057.34113313 7172.16469372 5668.32823739 6916.11306975 5632.97896529 7118.63778582 7132.2427607 7027.39248367 7186.56164659 6153.55438288 6799.82101054 7046.37306971 7076.02995259 6548.50643303 5695.95680998 6966.64241199 7058.63307259 7093.70598075 6802.59524296 5717.70972481 6979.30914155 5838.69221919 7153.48924 6596.07034898 6807.13694304 5877.095747 6564.28196066 5805.83187909 6916.20761156 5735.70437052 6096.1335029 6048.82132741 6706.95426866 5888.77169911 5727.15910921 5987.01410675 7259.6630192 7240.68768479 7149.45378509 6749.15759048 7319.6874921 6832.01768002 6135.59638361 6446.69669387 5860.80691249 6302.65451795 6995.94775806 5984.37006821 5768.88844222 7391.87606606 6379.06643003 6222.45937645 5743.42439559 6209.87125259 6561.68630174 6494.20074957 6492.06145685 6929.66407499 6429.26001671 6262.33707556 6086.89786359 6148.69392787 6277.65549093 6917.5196794 6582.96138579 4739.31436675 4729.11573396 4784.40949201 4773.95368795</DataArray>
        <DataArray type="Int32" Name="HasVonMises" format="ascii">1 1 1 1 1 1 1 1 1 1 1 1 1 1 1 1 1 1 1 1 1 1 1 1 1 1 1 1 1 1 1 1 1 1 1 1 1 1 1 1 1 1 1 1 1 1 1 1 1 1 1 1 1 1 1 1 1 1 1 1 1 1 1 1 1 1 1 1 1 1 1 1 1 1 1 1 1 1 1 1 1 1 1 1 1 1 1 1 1 1 1 1 1 1 1 1 1 1 1 1 1 1 1 1 1 1 1 1 1 1 1 1 1 1 1 1 1 1 1 1 1 1 1 1 1 1 1 1 1 1 1 1 1 1 1 1 1 1 1 1 1 1 1 1 1 1 1 1 1 1 1 1 1 1 1 1 1 1</DataArray>
        <DataArray type="Float64" Name="StressTrace" format="ascii">-2280.39500868 2827.51401245 3499.13380374 2515.4525683 -2663.38977596 -3066.01524136 -3280.74690602 2907.38972545 -81.328388955 -399.594876117 -1210.89979145 792.818989847 2.20273517979 33.2500533736 41.0968678368 -27.5869792838 -141.436437034 -213.850788145 136.682918996 -147.776584347 -2506.69628412 2600.91740936 4964.46345335 -1629.84926011 -4725.31367569 1414.20103368 320.427032694 5110.24654541 -220.137431977 1174.57101315 910.578409805 -331.927655271 -4965.984975 -5369.26063349 2905.33728817 -2780.93160932 -2418.84199065 2480.03872414 -1554.66417826 3624.91298669 -949.534688263 281.708946877 -1857.31713132 5026.29378055 -769.030075518 -3052.09857439 -11.0082660079 -4915.17663147 2289.43481482 -224.610594508 -2038.78527649 4987.10666968 4729.35488487 -1503.95586416 28.583687182 -475.400631306 821.504493327 -1022.24775342 600.398554866 -202.909289146 679.168737157 1911.87742118 -1976.68541056 -4391.90812356 1006.92575058 -753.015563498 1906.57229214 1507.83806941 555.052005511 1833.32104903 -2611.58108511 829.837365742 90.1006767493 -144.789330026 -1770.70211715 1994.9069292 213.473423559 931.711627163 2441.76710123 -1173.83891154 -3548.19899718 205.153143727 -1588.76210974 -275.600568186 -1679.72275688 3674.28330095 83.9905357035 -1023.31507806 -430.996637979 -312.580527769 -2005.98421171 -183.482733671 -1606.82122086 29.4036700529 3190.43103296 -1443.34796654 2391.76171577 1811.16011459 -94.2546167249 -509.713115387 1530.06058431 -3079.90917574 -724.712620981 1986.89862398 -330.429489727 1431.64691154 326.22325427 298.991222329 -1963.44571677 -793.667258449 -1484.95463747 1811.60704814 959.045701505 566.980188063 1255.00327977 608.505136935 -203.510286913 39.2219489309 -150.605225564 -53.3095007672 2868.39396115 -326.320585302 276.420260024 208.044841397 -2917.45583465 565.071916516 -293.119455935 -1830.95434761 -122.01027262 1080.60932249 -193.228552059 -8.43522819801 2483.23211858 -52.5750634548 340.06523168 -645.080649276 -328.971416926 344.992383918 272.177922672 -696.348627356 -2900.12562151 -212.86969421 2090.36795429 -2458.33544673 532.349977001 1081.1128723 -1011.78247314 -358.405810604 -521.669241999 282.197349471 -273.47293914 482.810414959 625.744593139 -800.442302963 -1054.9618901 736.622109805 268.936275811 52.9468773215</DataArray>
        <DataArray type="Float64" Name="HydrostaticPressure" format="ascii">760.131669561 -942.504670817 -1166.37793458 -838.484189432 887.796591987 1022.00508045 1093.58230201 -969.129908483 27.109462985 133.198292039 403.633263818 -264.272996616 -0.734245059929 -11.0833511245 -13.6989559456 9.19565976127 47.1454790115 71.2835960483 -45.5609729985 49.2588614489 835.565428041 -866.972469787 -1654.82115112 543.283086704 1575.10455856 -471.400344559 -106.809010898 -1703.41551514 73.3791439923 -391.52367105 -303.526136602 110.642551757 1655.328325 1789.7535445 -968.445762723 926.977203107 806.28066355 -826.679574714 518.221392752 -1208.3043289 316.511562754 -93.9029822924 619.105710441 -1675.43126018 256.343358506 1017.36619146 3.66942200265 1638.39221049 -763.144938272 74.8701981692 679.595092163 -1662.36888989 -1576.45162829 501.318621386 -9.52789572734 158.466877102 -273.834831109 340.749251141 -200.132851622 67.6364297155 -226.389579052 -637.292473726 658.895136854 1463.96937452 -335.641916858 251.005187833 -635.524097381 -502.612689804 -185.01733517 -611.107016343 870.52702837 -276.612455247 -30.0335589164 48.2631100087 590.234039049 -664.968976399 -71.1578078529 -310.570542388 -813.922367076 391.27963718 1182.73299906 -68.3843812422 529.587369915 91.866856062 559.907585626 -1224.76110032 -27.9968452345 341.105026019 143.665545993 104.193509256 668.661403905 61.1609112238 535.607073622 -9.80122335096 -1063.47701099 481.115988845 -797.253905256 -603.720038196 31.418205575 169.904371796 -510.020194771 1026.63639191 241.57087366 -662.299541327 110.143163242 -477.215637181 -108.741084757 -99.6637407764 654.481905591 264.555752816 494.984879158 -603.869016046 -319.681900502 -188.993396021 -418.334426589 -202.835045645 67.8367623043 -13.073982977 50.2017418545 17.7698335891 -956.131320382 108.773528434 -92.1400866745 -69.3482804658 972.485278215 -188.357305505 97.7064853116 610.318115871 40.6700908732 -360.203107495 64.4095173529 2.81174273267 -827.744039527 17.5250211516 -113.355077227 215.026883092 109.657138975 -114.997461306 -90.7259742241 232.116209119 966.708540503 70.9565647367 -696.789318096 819.445148909 -177.449992334 -360.370957433 337.260824381 119.468603535 173.889747333 -94.0657831571 91.1576463798 -160.936804986 -208.581531046 266.814100988 351.653963368 -245.540703268 -89.6454252702 -17.6489591072</DataArray>
        <DataArray type="Float64" Name="PrincipalStress" NumberOfComponents="3" format="ascii">-1398.56935398 -527.395181881 -354.430472827 645.108470276 672.088177967 1510.31736421 579.890318476 802.700465448 2116.54301981 395.68972684 585.806395416 1533.95644604 -1440.16999765 -631.105203031 -592.114575279 -1880.84191579 -712.65268725 -472.520638315 -2135.30454617 -757.808093293 -387.634266561 285.972954215 670.137663459 1951.27910778 -2544.56714158 6.16711863848 2457.07163399 -2765.37960071 -7.41197809119 2373.19670269 -2926.93212275 -257.542130186 1973.57446148 -2142.49767448 264.234778062 2671.08188626 -2989.16728192 30.0648266337 2961.30519047 -2920.48415122 0.518641070726 2953.21556352 -2835.86499391 -38.1860776927 2915.14793944 -3069.24912672 21.7629313767 3019.89921606 -2951.25792487 -117.407724203 2927.22921204 -3113.31608698 -54.9766359889 2954.44193483 -2761.00901665 -19.8134089724 2917.50534462 -2819.24264589 -111.51547759 2782.98153913 -1584.91992661 -577.775024308 -344.001333199 365.231291067 602.251664166 1633.43445413 920.572384695 1143.76315141 2900.12791724 -969.941418146 -410.0493866 -249.858455366 -2876.65326844 -1093.11113455 -755.549272704 231.088421555 369.68040723 813.432204891 -160.811478238 107.948710881 373.289800051 868.157801862 1182.70451543 3059.38422811 -315.450876242 -77.8426268353 173.1560711 -3189.15222193 330.228613401 4033.49462168 -136.286555718 212.985498571 833.879466952 -542.470483937 -72.9805514196 283.523380085 -2985.36493011 -1142.58165554 -838.038389351 -3214.13967056 -1236.34727013 -918.773692804 469.849219222 712.197688954 1723.29037999 -1805.28461282 -616.678354132 -358.968642371 -1766.82983373 -562.675152561 -89.3370043598 130.007235186 570.820968667 1779.21052029 -4104.3074201 -395.055927215 2944.69916906 507.111002482 833.09381161 2284.7081726 -827.335174439 -206.287878841 84.0883650171 -371.653533999 79.6659408696 573.696540006 -4345.87198934 -366.584126798 2855.13898481 838.396046706 1162.92911712 3024.96861673 -3565.96733503 -189.740434923 2986.67769444 -1908.12819147 -709.659821054 -434.310561873 -367.664926515 73.2824993867 283.37416112 -2950.70019847 -1131.93188295 -832.544550059 -2676.41267793 493.801479516 4472.04601323 -450.807175595 -54.7939432178 280.990524306 -897.94322618 -669.481271973 -471.360778335 883.254978356 1158.07890254 2945.77278878 729.312341314 1095.42651248 2904.61603108 -967.98745261 -379.742722982 -156.225688565 -3917.21522441 -165.459919581 4111.25883117 -4001.87468758 -95.9899160057 3622.46397228 -3324.05759481 188.913989763 3956.64809837 -3985.80474714 -236.550390358 3200.10738408 -3578.42130071 152.268179126 4026.55167645 -4077.34639279 107.58118895 3766.85591469 -3808.23199572 323.727930545 4163.67280233 255.789016242 475.77326891 1180.31513602 -3996.29127412 -438.215482053 2457.82134561 -2700.55008878 -1011.29402827 -680.064006505 -3601.19067029 183.189562542 4424.92685833 -4083.00152945 -345.045551813 3675.03151776 425.590231226 654.605958812 826.376102104 -2896.54789935 264.293548708 4140.09242005 -3136.69639996 135.89436883 3555.85403664 -2532.65527593 440.314801681 3925.66152328 -4641.87692329 -736.009797691 2766.30563587 -3135.46921792 276.445353467 3688.86123019 -3911.09595962 -157.703668045 4158.90030441 -4184.17884505 162.89696691 3876.49254811 -4340.91768371 -353.15934987 2923.37491643 -2445.00224978 444.614870695 3995.29430828 -3187.12974043 36.6852330587 3363.91793093 -3786.25918036 189.514137498 4528.45667003 -2855.4583383 673.384806922 4623.8406326 -4594.47317715 -301.142906137 3721.77717175 -4759.85716811 -788.38898694 2000.04715787 -4041.61530011 204.825858015 4041.94258582 -4612.07505415 -415.902982808 3439.21592721 -4041.98177546 -226.486202261 3992.86740954 -3880.80551219 -403.072592029 2604.15534735 -1973.37527606 877.743800521 4769.91477649 -3303.16329308 29.1384849419 3358.01534384 -4409.4198643 -189.460713088 3575.56549933 -3680.72485804 -13.9149962884 3263.64321635 -3599.63043174 -107.732046589 3394.78195056 -4926.78733345 -423.191142996 3343.99426473 -3321.38197546 -85.8013054238 3223.70054721 -4637.28647512 -308.602954836 3339.06820909 -3240.89176939 6.78546231989 3263.50997712 -2869.9215104 730.621960688 5329.73058267 -4693.59962128 -284.725432293 3534.97708703 -3165.97279349 615.295984579 4942.43852468 -3417.33578974 358.391435993 4870.10446833 -3571.00044394 -57.621341505 3534.36716872 -4073.04389789 -214.993894908 3778.32467741 -3502.32183265 400.466414518 4631.91600244 -5283.31409212 -659.146157504 2862.55107388 -4006.78138468 -272.523697645 3554.59246134 -2528.84883523 475.439900218 4040.307559 -4119.19020851 -136.307169622 3925.0678884 -3474.88203534 241.072511927 4665.45643496 -3869.52870841 -116.527309989 4312.27927267 -3846.7814738 137.872573939 4007.90012219 -4059.53097567 -435.747154117 2531.83241301 -4524.69189469 245.219524421 3485.80511182 -3931.96642644 -358.837513105 2805.84930207 -3458.8573174 472.326616119 4798.13774942 -3485.40270768 313.37297248 4131.0754367 -3836.7446204 387.811820283 4015.91298818 -2900.07651651 273.508371437 3881.57142484 -3573.72834778 176.321038391 4005.91244632 -3391.9869238 -122.856286005 3311.33292289 -3947.38521542 -51.376045244 4037.98320959 -3369.40852954 -34.7550520531 3253.55835603 -3485.2269894 -119.843591504 3551.76108013 -2584.50860309 1054.93056247 4397.97200176 -3967.50543658 -135.693059587 3776.87791087 -3342.00010336 161.720705395 3456.69965798 -3226.50796974 48.0103480148 3386.54246312 -4391.54158316 -1046.39569375 2520.48144227 -3988.02295192 158.5401137 4394.55475474 -4305.94031906 -41.4979444683 4054.31880759 -4784.75703366 -515.277012358 3469.0796984 -3970.80387772 27.2289905801 3821.56461452 -3560.71684456 -195.100228323 4836.42639537 -3980.27423983 -121.005504509 3908.05119228 -3613.10035884 137.13695855 3467.52817209 -2662.88055912 401.66177443 4744.45090327 -3414.95469586 10.0256732959 3352.35395911 -3529.18000325 120.757968479 3748.48726645 -4123.54997823 -464.628705965 3943.09803492 -3535.07422531 -168.233452325 3374.33626071 -3197.8389492 79.6136270581 3463.21770606 -4257.2643006 256.111471568 4273.3307517 -3971.05154051 -117.480381628 3392.18329478 -4682.70312958 -705.543023057 2488.12053113 -3397.78667345 -49.1237755869 3234.04075482 -2757.1744577 447.216711971 4400.32570002 -4819.9614598 -351.770099049 2713.39611212 -3669.88588056 381.606524498 3820.62933306 -3379.12915828 343.044400547 4117.19763003 -4242.9861821 -521.155065862 3752.35877482 -3893.17846679 7.3304042318 3527.44225196 -3815.90708218 -120.385209692 3414.62304988 -3505.23898272 270.800289036 3516.63604315 -3567.32591832 -234.385893231 3528.23887241 -3438.45605474 111.417788067 3809.84868163 -3902.34397997 454.096381097 4073.99219201 -3889.90276966 -600.04207231 3689.50253901 -3152.71192613 -217.059132154 2314.80916818 -2459.51304724 195.620301955 3000.51485509 -2653.61226234 51.9856754006 2870.56286275 -2730.81494341 2.15519259184 2781.60662814</DataArray>
        <DataArray type="Float64" Name="PrincipalStrain" NumberOfComponents="3" format="ascii">-1.41752707195e-08 -1.86904230051e-11 2.79198609912e-09 -1.20164904712e-10 3.18255345269e-10 1.39394796217e-08 -3.69853408879e-09 -7.78692004901e-11 2.1272072308e-08 -3.00298906996e-09 8.64067943962e-11 1.54938451171e-08 -1.3415050802e-08 -2.67747889404e-10 3.65849811567e-10 -1.90661239765e-08 -8.30490127264e-11 3.81909678248e-09 -2.23958979776e-08 -1.15806184408e-11 6.00374406596e-09 -6.25565096445e-09 -1.29744392351e-11 2.08055740309e-08 -4.10442345922e-08 4.05197136456e-10 4.02323955109e-08 -4.34389377262e-08 1.37803614146e-09 4.00629272041e-08 -4.30217727767e-08 3.55814602436e-10 3.6611459217e-08 -3.77886584222e-08 1.32074393159e-09 4.04320094398e-08 -4.85822285882e-08 4.80293175873e-10 4.81129490882e-08 -4.75825551575e-08 -1.16259782752e-10 4.78650652071e-08 -4.62369194055e-08 -7.74637016894e-10 4.72170407616e-08 -4.97718471369e-08 4.57098807186e-10 4.91768134333e-08 -4.74275546402e-08 -1.37748887942e-09 4.80978613345e-08 -4.97894459579e-08 -9.1429879277e-11 4.88116218965e-08 -4.53789574668e-08 -8.34528842035e-10 4.68969009038e-08 -4.52585308044e-08 -1.25796431954e-09 4.57776122022e-08 -1.6354837742e-08 1.12669204544e-11 3.81008940097e-09 -3.81843180526e-09 3.31492575946e-11 1.67898695945e-08 -3.65743669876e-09 -3.0586739618e-11 2.85103407051e-08 -9.64961331945e-09 -5.51367806831e-10 2.05173482572e-09 -2.90256893283e-08 -4.31296525796e-11 5.44225060241e-09 -1.54806702601e-09 7.04052741196e-10 7.91501945319e-09 -3.81478789397e-09 5.52565179213e-10 4.86435787823e-09 -5.05586026502e-09 5.55238305018e-11 3.05515691616e-08 -4.30056136902e-09 -4.3942731616e-10 3.6393015253e-09 -5.62283649057e-08 9.6157366845e-10 6.1139646303e-08 -5.62932556719e-09 4.6345315015e-11 1.01358723012e-08 -7.5704166567e-09 5.87947466971e-11 5.85198363365e-09 -2.9889736458e-08 5.54917537359e-11 5.00431982929e-09 -3.2095042271e-08 4.40842360161e-11 5.20465486751e-09 -3.25996501828e-09 6.78197614877e-10 1.71084538442e-08 -1.89073814233e-08 4.0747028031e-10 4.59525309642e-09 -1.96403273332e-08 -7.28137641801e-11 7.61893114409e-09 -7.18752764375e-09 -2.43044746913e-11 1.96120257391e-08 -6.08650049082e-08 -5.89668148786e-10 5.36813521657e-08 -5.35286990974e-09 -5.56492614218e-11 2.35330841046e-08 -9.88344150364e-09 2.08577049819e-10 4.92719101251e-09 -7.09577847827e-09 2.38162988342e-10 8.26616022431e-09 -6.36554805843e-08 1.00794718199e-09 5.33609477457e-08 -5.22466591808e-09 4.8996476068e-11 3.03071383448e-08 -5.50631064111e-08 -1.99419284304e-10 5.14173753178e-08 -1.95617134573e-08 -8.6602438153e-11 4.38782302353e-09 -5.93327405833e-09 1.23212161256e-09 4.64611111573e-09 -2.95169658571e-08 3.80192701307e-11 4.90306342956e-09 -5.20770865719e-08 -5.61106513428e-10 6.40853671594e-08 -6.48332687402e-09 -4.81118478852e-11 5.40838574937e-09 -6.94613263859e-09 -3.23362588273e-09 -1.41678611141e-11 -4.34875661301e-09 1.17132155018e-10 2.91671578064e-08 -5.88375527189e-09 6.56000094871e-11 2.94649296867e-08 -1.00899616143e-08 -5.30984757873e-10 3.10116705141e-09 -6.37619362236e-08 -2.79591252013e-09 6.67007671796e-08 -6.32477113057e-08 2.22916232304e-10 6.06477919169e-08 -5.70965777656e-08 -1.07895163369e-11 6.12148897486e-08 -6.09358980657e-08 -1.05147679864e-11 5.58351740666e-08 -6.04008407173e-08 2.22863330057e-10 6.31799701616e-08 -6.54959690485e-08 2.50910415473e-09 6.19723184481e-08 -6.44306526948e-08 2.71369610701e-09 6.51128002736e-08 -3.01296881548e-09 5.61775290378e-10 1.2010580631e-08 -5.75271629149e-08 2.91568706248e-10 4.73521671558e-08 -2.74142834793e-08 3.61275038813e-11 5.41861535764e-09 -6.22953199569e-08 -7.99141173358e-10 6.81290898831e-08 -6.35249664904e-08 -2.78318185385e-09 6.25430705268e-08 -2.33804838117e-10 3.48770073517e-09 6.27896556366e-09 -5.27232961247e-08 -1.35962259378e-09 6.16221090655e-08 -5.30527615201e-08 1.26838472824e-10 5.57011830748e-08 -4.80306021677e-08 2.80161593459e-10 5.69170458194e-08 -6.56370709343e-08 -2.16673014332e-09 5.47458956521e-08 -5.40632649127e-08 1.3803468723e-09 5.68321048691e-08 -6.38931868816e-08 -2.90056214354e-09 6.72442524089e-08 -6.74499462445e-08 3.19003569989e-09 6.35359638944e-08 -6.38997794209e-08 9.01293503909e-10 5.41449753313e-08 -4.72121875434e-08 -2.559093357e-10 5.74426315251e-08 -5.25913836203e-08 -2.04390301141e-10 5.38631410392e-08 -6.50206302827e-08 -4.14313867514e-10 7.00935022861e-08 -5.55578246269e-08 1.78587648288e-09 6.59807836502e-08 -7.02582932104e-08 -4.91676306452e-10 6.48807749592e-08 -6.40419327423e-08 4.94425201655e-10 4.58065125547e-08 -6.64455729158e-08 2.55909590377e-09 6.49122427307e-08 -6.89883617183e-08 -8.00565559093e-10 6.18451167287e-08 -6.46487017205e-08 -2.64689865605e-09 6.59175975357e-08 -5.67641292349e-08 -2.5096928218e-10 4.86164847327e-08 -4.58459106145e-08 4.84774379902e-10 6.37325527393e-08 -5.39913680214e-08 1.58535871417e-10 5.42527848285e-08 -6.78156412521e-08 7.58694955033e-10 6.19403709068e-08 -5.81955415507e-08 1.39011870273e-09 5.4650439658e-08 -5.73218175367e-08 -5.78468777928e-10 5.63373836758e-08 -7.25378533746e-08 6.4558472024e-10 6.18623475958e-08 -5.32843968499e-08 -7.06210961869e-10 5.30731941435e-08 -6.93303256424e-08 1.01078156215e-09 6.02854379759e-08 -5.27747550153e-08 0 5.29217733656e-08 -5.86003409176e-08 -9.15095124211e-11 7.46440055948e-08 -7.08584389712e-08 7.85766599742e-10 6.28559325388e-08 -6.04161643283e-08 1.02945331527e-09 7.13455195919e-08 -6.23235570129e-08 -9.67989594823e-10 7.23473471807e-08 -5.76753024014e-08 -5.82891986737e-10 5.77869213045e-08 -6.42755391581e-08 -1.58222660955e-09 6.33092001907e-08 -6.26504569717e-08 7.69852044745e-10 6.95309078485e-08 -7.43041945879e-08 8.38534349576e-10 5.80661143596e-08 -6.23925251724e-08 -1.71083775806e-09 6.04797998255e-08 -4.85446634124e-08 2.75028538607e-10 5.82041279937e-08 -6.56977303018e-08 -9.75880919875e-10 6.5021463773e-08 -6.18355089926e-08 -1.45124759948e-09 7.04449911498e-08 -6.41031787152e-08 -3.11690599083e-09 6.88512009774e-08 -6.36314160331e-08 1.11921224278e-09 6.40071599019e-08 -5.86044569167e-08 2.82030183504e-10 4.85051981494e-08 -7.05499910695e-08 6.96106949102e-09 5.96205852863e-08 -5.83258745391e-08 -2.62529697421e-10 5.11636310492e-08 -6.29999578383e-08 8.81781081413e-10 7.11762119976e-08 -6.02342153804e-08 1.49588942216e-09 6.35335544658e-08 -6.44732757867e-08 4.17576637436e-09 6.31324103527e-08 -5.18325056924e-08 -2.61751263277e-10 5.83692733546e-08 -6.03549799149e-08 5.83322610346e-10 6.28141829892e-08 -5.43566239358e-08 -1.23325107166e-09 5.45723235729e-08 -6.4292092059e-08 -9.81943043707e-10 6.54701448474e-08 -5.41881190091e-08 0 5.34350928813e-08 -5.64350279498e-08 -1.74754773406e-09 5.791602818e-08 -5.27547421545e-08 6.38614428587e-09 6.07105676744e-08 -6.32482611496e-08 -9.81310023413e-10 6.25979682465e-08 -5.53440776546e-08 1.59138548758e-09 5.51347934672e-08 -5.32109226634e-08 0 5.42511468704e-08 -6.04220913464e-08 -6.06347064356e-09 5.18982828168e-08 -6.69243926557e-08 4.57257160683e-10 6.92924950776e-08 -6.88723322249e-08 4.24856362145e-10 6.69818785831e-08 -7.08862229934e-08 -1.50717264727e-09 6.32386239026e-08 -6.40680244907e-08 9.0000961925e-10 6.25579635084e-08 -6.19139336834e-08 -7.22266366958e-09 7.45396439654e-08 -6.3954849327e-08 -1.24173237806e-09 6.42304389447e-08 -5.86812487254e-08 2.26010768218e-09 5.63789649022e-08 -5.25839295304e-08 -2.7851166102e-09 6.77852067335e-08 -5.52958573198e-08 3.60073679015e-10 5.46729083235e-08 -5.86244196716e-08 6.87072368987e-10 5.9637673461e-08 -6.45886347115e-08 -5.13116403715e-09 6.64943955022e-08 -5.62113133478e-08 -1.50015078681e-09 5.606660705e-08 -5.32586043642e-08 0 5.49835662838e-08 -7.02012120948e-08 3.14114420296e-09 6.84209575052e-08 -6.19182801806e-08 7.02251151127e-10 5.77342858927e-08 -6.5218454775e-08 -5.89603044016e-10 5.13074297115e-08 -5.44157720902e-08 0 5.33514236192e-08 -5.26429647662e-08 -5.71608259056e-10 6.36664127967e-08 -6.91056157966e-08 3.50249381569e-09 5.33114447473e-08 -6.16319579728e-08 4.20479360934e-09 6.00889142485e-08 -5.89650220932e-08 1.52029823776e-09 6.28502882169e-08 -6.51543411849e-08 -4.67458554597e-09 6.47700143651e-08 -6.19201282956e-08 1.46314085853e-09 5.86649583841e-08 -6.0052230428e-08 0 5.7443884218e-08 -5.80183735297e-08 3.34226463632e-09 5.60870956407e-08 -5.69435226509e-08 -2.78324724323e-09 5.83594051984e-08 -5.76854499456e-08 0 6.00995020204e-08 -6.57596318987e-08 5.03252396855e-09 6.38558308959e-08 -6.02092613709e-08 -6.74902503892e-09 6.2956074895e-08 -4.72754617117e-08 4.28896190381e-10 4.15717560708e-08 -4.27294199294e-08 4.16496995004e-10 4.59960334834e-08 -4.41297102974e-08 -1.6374380903e-10 4.56381354854e-08 -4.45742936204e-08 -1.63528910338e-10 4.50025569174e-08</DataArray>
        <DataArray type="Float64" Name="ShellTopVonMises" format="ascii">0 0 0 0 0 0 0 0 0 0 0 0 0 0 0 0 0 0 0 0 0 0 0 0 0 0 0 0 0 0 0 0 0 0 0 0 0 0 0 0 0 0 0 0 0 0 0 0 0 0 0 0 0 0 0 0 0 0 0 0 0 0 0 0 0 0 0 0 0 0 0 0 0 0 0 0 0 0 0 0 0 0 0 0 0 0 0 0 0 0 0 0 0 0 0 0 0 0 0 0 0 0 0 0 0 0 0 0 0 0 0 0 0 0 0 0 0 0 0 0 0 0 0 0 0 0 0 0 0 0 0 0 0 0 0 0 0 0 0 0 0 0 0 0 0 0 0 0 0 0 0 0 0 0 0 0 0 0</DataArray>
        <DataArray type="Float64" Name="ShellBottomVonMises" format="ascii">0 0 0 0 0 0 0 0 0 0 0 0 0 0 0 0 0 0 0 0 0 0 0 0 0 0 0 0 0 0 0 0 0 0 0 0 0 0 0 0 0 0 0 0 0 0 0 0 0 0 0 0 0 0 0 0 0 0 0 0 0 0 0 0 0 0 0 0 0 0 0 0 0 0 0 0 0 0 0 0 0 0 0 0 0 0 0 0 0 0 0 0 0 0 0 0 0 0 0 0 0 0 0 0 0 0 0 0 0 0 0 0 0 0 0 0 0 0 0 0 0 0 0 0 0 0 0 0 0 0 0 0 0 0 0 0 0 0 0 0 0 0 0 0 0 0 0 0 0 0 0 0 0 0 0 0 0 0</DataArray>
      </CellData>
    </Piece>
  </UnstructuredGrid>
</VTKFile>
