$MeshFormat
4.1 0 8
$EndMeshFormat
$PhysicalNames
3
2 2 "x_min"
2 3 "x_max"
3 1 "domain"
$EndPhysicalNames
$Entities
2 3 3 1
1 3 1.224606353822377e-16 0.5 0 
2 0 1.224606353822377e-16 0.5 0 
1 2.9999999 -0.5000000999999999 -0.5000000999999999 3.0000001 0.5000000999999999 0.5000000999999999 0 2 1 -1 
2 -1.000000000583867e-07 -9.999999987753936e-08 0.4999999 3.0000001 1.000000001224606e-07 0.5000000999999999 0 2 2 -1 
3 -1e-07 -0.5000000999999999 -0.5000000999999999 1e-07 0.5000000999999999 0.5000000999999999 0 2 2 -2 
1 -1.000000000583867e-07 -0.5000000999999999 -0.5000000999999999 3.0000001 0.5000000999999999 0.5000000999999999 0 4 -1 -2 3 2 
2 2.9999999 -0.5000000999999999 -0.5000000999999999 3.0000001 0.5000000999999999 0.5000000999999999 1 3 1 1 
3 -1e-07 -0.5000000999999999 -0.5000000999999999 1e-07 0.5000000999999999 0.5000000999999999 1 2 1 3 
1 -1.000000000583867e-07 -0.5000000999999999 -0.5000000999999999 3.0000001 0.5000000999999999 0.5000000999999999 1 1 3 1 2 -3 
$EndEntities
$Nodes
9 105 1 105
0 1 0 1
1
3 1.224606353822377e-16 0.5
0 2 0 1
2
0 1.224606353822377e-16 0.5
1 1 0 7
3
4
5
6
7
8
9
3 -0.3535533905932731 0.3535533905932744
3 -0.5 1.695949695783294e-15
3 -0.3535533905932758 -0.3535533905932717
3 -3.61394399649162e-15 -0.5
3 0.3535533905932715 -0.353553390593276
3 0.5 -2.312291525786991e-15
3 0.3535533905932745 0.3535533905932731
1 2 0 7
10
11
12
13
14
15
16
0.375 1.224606353822377e-16 0.5
0.75 1.224606353822377e-16 0.5
1.125 1.224606353822377e-16 0.5
1.5 1.224606353822377e-16 0.5
1.875 1.224606353822377e-16 0.5
2.25 1.224606353822377e-16 0.5
2.625 1.224606353822377e-16 0.5
1 3 0 7
17
18
19
20
21
22
23
0 -0.3535533905932731 0.3535533905932744
0 -0.5 1.695949695783294e-15
0 -0.3535533905932758 -0.3535533905932717
0 -3.61394399649162e-15 -0.5
0 0.3535533905932715 -0.353553390593276
0 0.5 -2.312291525786991e-15
0 0.3535533905932745 0.3535533905932731
2 1 0 68
24
25
26
27
28
29
30
31
32
33
34
35
36
37
38
39
40
41
42
43
44
45
46
47
48
49
50
51
52
53
54
55
56
57
58
59
60
61
62
63
64
65
66
67
68
69
70
71
72
73
74
75
76
77
78
79
80
81
82
83
84
85
86
87
88
89
90
91
1.6875 -0.3071564630175271 0.3945312500000001
1.31304228982851 0.3072306911609415 0.394473449561273
0.9375 -0.3071564630175256 0.3945312500000012
2.063346311008971 0.3064645811146616 0.3950689313552953
0.352740453417432 0.208683194776896 -0.4543691497204757
2.6707791384763 -0.191341716182548 -0.4619397662556421
2.683078665829364 0.4551292224099167 -0.2070202669028918
0.2606469224546747 -0.4616460937242937 -0.1920491711752506
2.4375 -0.307156463017527 0.3945312500000001
0.5846304081434061 0.2975459103124349 0.4018288581676837
0.9423816032873166 0.3050521638662818 0.3961605448811115
1.1249957361566 0.4849795535490086 0.12163401103065
1.501873751755162 0.4850162032901601 0.1214877876413842
1.313278050015858 0.4562804585311293 -0.2044703967879516
1.691341487163935 0.456130304658779 -0.2048051395153195
0.9353308483126326 0.4564792682159905 -0.204026169127869
1.123830926295264 0.2314350972123001 -0.4432130365618019
0.7450796305466216 0.2299895088049824 -0.4439648925755762
0.9381278919081124 -0.0908546656294764 -0.4916761431403359
1.313834371148847 -0.0928351170167548 -0.4913060563930445
1.124538991777902 -0.3772803921610748 -0.3281150799502906
1.502761820058677 -0.3775131420484209 -0.3278472625792822
1.313915803578056 -0.4988131667371932 -0.03442999694471521
0.5698518953725263 0.4564895807648304 -0.2040030947146375
1.691656779650488 -0.09353976321512601 -0.4911723859274442
1.880679179377205 -0.3778109096315537 -0.3275040710638236
2.046028270729848 -0.08580274590022802 -0.4925828750535091
2.318608122247571 -0.3613958057269721 -0.3455330253433854
2.069634786814651 -0.4995139856654449 -0.02204037487479906
0.7870618656248312 -0.3671365446446593 -0.3394271020210084
1.502121596590549 0.2310004677729753 -0.4434397184383314
1.851565116705603 0.2212750524721793 -0.4483718893434716
2.070681282172993 0.4558980449594882 -0.2053216320851665
1.876922050079873 0.4846921189333639 0.1227743859438354
0.9355637797812854 -0.4994114722014945 -0.02425245211387608
1.689691311863451 -0.4984046528660156 -0.03990992359685136
1.688427826806038 0.3070986260527137 0.3945762713044659
2.061233583374552 -0.3065462582151277 0.3950055589156997
0.7534437335591245 0.4845001794403209 0.1235296568533115
0.3524066375758984 0.4782021274886579 0.1460230299141932
2.4375 0.3071564630175656 0.39453124999997
0.5625 -0.3071564630173278 0.3945312500001552
1.311233583374552 -0.3065462582151277 0.3950055589156997
2.448738081185229 -0.4995398709421007 -0.02144568346193263
2.258488349656815 0.4776866133495419 0.1477007089578288
0.595634610337139 -0.09773277357528964 -0.4903552844308718
2.643385632047182 0.4708487429074846 0.1682303816272241
0.3682244095326719 -0.4614581554559715 0.1925003136703221
2.67990255644361 0.1914002542930399 -0.4619155146307165
2.405326513865968 0.3429997383895982 -0.3638010163051599
2.671316527908965 -0.4629728539573263 0.188828325466833
2.389816497598406 0.002519151527736491 -0.4999936538353065
0.6099091789406211 -0.4932681406756375 -0.08177127487326799
2.688033163918214 -0.4479321525869316 -0.2221638734782003
0.2600304715125858 -0.1913417161825478 -0.4619397662556421
0.2498199670384335 0.4611124384350017 -0.1933269746324262
1.500326166443003 -0.4553333805228956 0.2065708415570598
1.122062360316354 -0.452747075048989 0.2121793723116955
1.874450764512497 -0.4545431404307506 0.2083039449634859
2.263111046155348 -0.4561342331475743 0.2047963899849661
0.2728245657828459 0.2633871040512727 0.4250026275442118
2.726812709044787 -0.2649736534004165 0.4240152862853366
2.72681270904478 0.2649736534004197 0.4240152862853346
0.2731872909551827 -0.2649736534003971 0.4240152862853487
2.166383703129216 0.1805925987704896 -0.4662470517540255
0.7574534455375582 -0.4562105545222757 0.2046263178148836
2.40515362269971 0.4875928859916475 -0.1106940717940047
0.4989224963527124 -0.3431961787007139 -0.3636157077537048
2 2 0 4
92
93
94
95
3 -0.1343829086984198 -0.05566322333403007
3 0.1816388471011781 0.07523727392312018
3 -0.0910197596301319 0.2255399362993148
3 0.09512012912918985 -0.2238415076420639
2 3 0 4
96
97
98
99
0 -0.1343829086984198 -0.05566322333403007
0 0.1816388471011781 0.07523727392312018
0 -0.0910197596301319 0.2255399362993148
0 0.09512012912918985 -0.2238415076420639
3 1 0 6
100
101
102
103
104
105
0.4825680946468226 0.003283400368801648 0.003881158755905612
1.218768645623617 0.0002754501388881347 0.0003520080169857609
2.517598523979425 0.006721593055068309 -0.003763114892512132
1.719670914079458 -4.790264485809992e-05 0.000129676770972087
2.119078610618963 0.01395811638894942 0.1076404627056137
0.8510934627669369 -0.03847355924839081 0.1251015267293086
$EndNodes
$Elements
3 287 1 287
2 2 2 14
1 3 94 1 
2 1 94 9 
3 4 94 3 
4 5 92 4 
5 92 94 4 
6 6 95 5 
7 5 95 92 
8 7 95 6 
9 8 95 7 
10 9 93 8 
11 93 95 8 
12 9 94 93 
13 93 94 92 
14 92 95 93 
2 3 2 14
15 17 2 98 
16 2 23 98 
17 18 17 98 
18 19 18 96 
19 96 18 98 
20 20 19 99 
21 19 96 99 
22 21 20 99 
23 22 21 99 
24 23 22 97 
25 97 22 99 
26 23 97 98 
27 97 96 98 
28 96 97 99 
3 1 4 259
29 42 101 40 105 
30 40 101 39 105 
31 42 40 41 105 
32 40 39 41 105 
33 41 100 69 105 
34 53 42 69 105 
35 42 41 69 105 
36 53 69 100 105 
37 47 100 41 105 
38 44 42 53 105 
39 44 101 42 105 
40 13 66 101 103 
41 13 101 25 103 
42 25 101 36 103 
43 36 101 37 103 
44 37 101 54 103 
45 43 101 45 103 
46 54 101 43 103 
47 46 45 101 103 
48 39 47 41 105 
49 80 101 66 103 
50 46 101 80 103 
51 24 66 13 103 
52 75 102 88 104 
53 60 13 25 103 
54 24 80 66 103 
55 60 25 36 103 
56 38 36 37 103 
57 38 37 54 103 
58 48 43 45 103 
59 73 102 90 104 
60 48 54 43 103 
61 51 102 75 104 
62 45 46 59 103 
63 80 59 46 103 
64 50 75 88 104 
65 39 62 47 105 
66 62 100 47 105 
67 73 88 102 104 
68 55 103 50 104 
69 58 44 53 105 
70 39 101 35 105 
71 73 90 56 104 
72 76 53 100 105 
73 55 56 103 104 
74 55 50 88 104 
75 50 51 75 104 
76 58 101 44 105 
77 55 88 56 104 
78 67 102 51 104 
79 73 56 88 104 
80 91 76 53 100 
81 49 50 103 104 
82 39 35 62 105 
83 67 83 102 104 
84 56 57 103 104 
85 91 53 69 100 
86 24 14 61 103 
87 49 51 50 104 
88 14 61 103 104 
89 67 52 83 104 
90 67 51 52 104 
91 60 14 103 104 
92 60 27 14 104 
93 35 101 34 105 
94 24 61 82 103 
95 57 38 56 103 
96 52 51 49 104 
97 61 82 103 104 
98 76 58 53 105 
99 30 93 70 102 
100 79 63 97 100 
101 90 102 68 104 
102 31 96 71 100 
103 49 103 52 104 
104 35 34 62 105 
105 38 55 56 103 
106 31 78 96 100 
107 52 103 82 104 
108 16 32 15 102 
109 90 68 56 104 
110 26 12 66 101 
111 13 66 12 101 
112 13 12 25 101 
113 88 75 73 102 
114 16 15 64 102 
115 74 92 77 102 
116 63 84 97 100 
117 76 100 89 105 
118 44 45 43 101 
119 35 36 25 101 
120 32 15 102 104 
121 44 58 46 101 
122 40 54 37 101 
123 43 54 40 101 
124 62 33 100 105 
125 37 36 35 101 
126 11 65 10 100 
127 46 45 44 101 
128 44 43 42 101 
129 37 35 39 101 
130 37 39 40 101 
131 12 101 26 105 
132 70 93 86 102 
133 43 40 42 101 
134 34 25 12 101 
135 34 35 25 101 
136 91 31 76 100 
137 91 78 31 100 
138 81 101 58 105 
139 79 97 99 100 
140 64 102 15 104 
141 84 98 97 100 
142 12 34 101 105 
143 26 66 81 101 
144 82 52 59 103 
145 58 81 46 101 
146 86 93 94 102 
147 77 92 29 102 
148 11 65 100 105 
149 95 93 30 102 
150 46 66 80 101 
151 11 10 33 100 
152 32 102 83 104 
153 14 13 60 103 
154 14 24 13 103 
155 64 68 102 104 
156 81 26 101 105 
157 89 100 65 105 
158 55 48 50 103 
159 81 66 46 101 
160 71 89 76 100 
161 36 57 60 103 
162 11 100 33 105 
163 36 38 57 103 
164 96 98 71 100 
165 86 94 16 102 
166 84 10 98 100 
167 71 65 89 100 
168 49 59 52 103 
169 41 28 69 100 
170 69 78 91 100 
171 24 59 80 103 
172 94 92 74 102 
173 31 71 76 100 
174 48 49 50 103 
175 78 99 96 100 
176 67 83 32 102 
177 95 29 92 102 
178 76 89 58 105 
179 82 59 24 103 
180 41 47 28 100 
181 74 67 32 102 
182 28 79 99 100 
183 54 55 38 103 
184 72 95 30 102 
185 32 16 85 102 
186 54 48 55 103 
187 62 33 63 100 
188 57 56 68 104 
189 87 71 98 100 
190 16 94 85 102 
191 69 28 78 100 
192 95 72 29 102 
193 68 90 70 102 
194 65 87 10 100 
195 94 74 85 102 
196 87 98 10 100 
197 64 86 16 102 
198 64 68 70 102 
199 24 82 80 59 
200 28 99 78 100 
201 79 28 47 100 
202 48 45 49 103 
203 47 62 63 100 
204 30 73 72 102 
205 10 84 33 100 
206 32 85 74 102 
207 45 59 49 103 
208 74 77 67 102 
209 62 34 33 105 
210 70 90 30 102 
211 96 99 97 100 
212 47 63 79 100 
213 67 77 51 102 
214 73 30 90 102 
215 97 98 96 100 
216 29 72 75 102 
217 66 81 46 80 
218 63 33 84 100 
219 65 71 87 100 
220 73 75 72 102 
221 15 32 61 104 
222 93 92 94 102 
223 64 70 86 102 
224 29 51 77 102 
225 57 68 27 104 
226 75 51 29 102 
227 95 92 93 102 
228 61 52 82 104 
229 83 61 32 104 
230 64 27 68 104 
231 64 15 27 104 
232 61 83 52 104 
233 89 81 58 105 
234 11 33 34 105 
235 89 26 81 105 
236 96 18 31 71 
237 12 11 34 105 
238 14 15 61 104 
239 14 27 15 104 
240 92 4 74 77 
241 11 26 65 105 
242 93 70 8 30 
243 12 26 11 105 
244 71 96 18 98 
245 89 65 26 105 
246 92 29 5 77 
247 95 93 8 30 
248 83 82 61 52 
249 18 17 71 98 
250 16 1 94 86 
251 10 2 84 98 
252 5 95 29 92 
253 74 94 4 92 
254 79 22 97 63 
255 71 17 87 98 
256 96 31 19 78 
257 72 6 95 29 
258 6 5 95 29 
259 97 63 23 84 
260 8 7 95 30 
261 94 4 3 74 
262 7 95 30 72 
263 74 83 32 67 
264 70 9 86 93 
265 84 23 97 98 
266 9 94 86 93 
267 74 3 94 85 
268 79 22 99 97 
269 79 21 28 99 
270 28 20 78 99 
271 1 9 94 86 
272 2 23 84 98 
273 85 1 94 16 
274 2 10 87 98 
275 78 19 96 99 
276 70 8 9 93 
277 22 97 63 23 
278 21 79 22 99 
279 5 4 92 77 
280 19 78 20 99 
281 20 28 21 99 
282 95 7 6 72 
283 18 31 19 96 
284 3 1 94 85 
285 2 87 17 98 
286 104 60 57 103 
287 104 57 60 27 
$EndElements
