<?xml version="1.0"?>
<VTKFile type="UnstructuredGrid" version="0.1" byte_order="LittleEndian">
  <UnstructuredGrid>
    <Piece NumberOfPoints="105" NumberOfCells="259">
      <Points>
        <DataArray type="Float64" NumberOfComponents="3" format="ascii">3 1.22460635382e-16 0.5 0 1.22460635382e-16 0.5 3 -0.353553390593 0.353553390593 3 -0.5 1.69594969578e-15 3 -0.353553390593 -0.353553390593 3 -3.61394399649e-15 -0.5 3 0.353553390593 -0.353553390593 3 0.5 -2.31229152579e-15 3 0.353553390593 0.353553390593 0.375 1.22460635382e-16 0.5 0.75 1.22460635382e-16 0.5 1.125 1.22460635382e-16 0.5 1.5 1.22460635382e-16 0.5 1.875 1.22460635382e-16 0.5 2.25 1.22460635382e-16 0.5 2.625 1.22460635382e-16 0.5 0 -0.353553390593 0.353553390593 0 -0.5 1.69594969578e-15 0 -0.353553390593 -0.353553390593 0 -3.61394399649e-15 -0.5 0 0.353553390593 -0.353553390593 0 0.5 -2.31229152579e-15 0 0.353553390593 0.353553390593 1.6875 -0.307156463018 0.39453125 1.31304228983 0.307230691161 0.394473449561 0.9375 -0.307156463018 0.39453125 2.06334631101 0.306464581115 0.395068931355 0.352740453417 0.208683194777 -0.45436914972 2.67077913848 -0.191341716183 -0.461939766256 2.68307866583 0.45512922241 -0.207020266903 0.260646922455 -0.461646093724 -0.192049171175 2.4375 -0.307156463018 0.39453125 0.584630408143 0.297545910312 0.401828858168 0.942381603287 0.305052163866 0.396160544881 1.12499573616 0.484979553549 0.121634011031 1.50187375176 0.48501620329 0.121487787641 1.31327805002 0.456280458531 -0.204470396788 1.69134148716 0.456130304659 -0.204805139515 0.935330848313 0.456479268216 -0.204026169128 1.1238309263 0.231435097212 -0.443213036562 0.745079630547 0.229989508805 -0.443964892576 0.938127891908 -0.0908546656295 -0.49167614314 1.31383437115 -0.0928351170168 -0.491306056393 1.12453899178 -0.377280392161 -0.32811507995 1.50276182006 -0.377513142048 -0.327847262579 1.31391580358 -0.498813166737 -0.0344299969447 0.569851895373 0.456489580765 -0.204003094715 1.69165677965 -0.0935397632151 -0.491172385927 1.88067917938 -0.377810909632 -0.327504071064 2.04602827073 -0.0858027459002 -0.492582875054 2.31860812225 -0.361395805727 -0.345533025343 2.06963478681 -0.499513985665 -0.0220403748748 0.787061865625 -0.367136544645 -0.339427102021 1.50212159659 0.231000467773 -0.443439718438 1.85156511671 0.221275052472 -0.448371889343 2.07068128217 0.455898044959 -0.205321632085 1.87692205008 0.484692118933 0.122774385944 0.935563779781 -0.499411472201 -0.0242524521139 1.68969131186 -0.498404652866 -0.0399099235969 1.68842782681 0.307098626053 0.394576271304 2.06123358337 -0.306546258215 0.395005558916 0.753443733559 0.48450017944 0.123529656853 0.352406637576 0.478202127489 0.146023029914 2.4375 0.307156463018 0.39453125 0.5625 -0.307156463017 0.39453125 1.31123358337 -0.306546258215 0.395005558916 2.44873808119 -0.499539870942 -0.0214456834619 2.25848834966 0.47768661335 0.147700708958 0.595634610337 -0.0977327735753 -0.490355284431 2.64338563205 0.470848742907 0.168230381627 0.368224409533 -0.461458155456 0.19250031367 2.67990255644 0.191400254293 -0.461915514631 2.40532651387 0.34299973839 -0.363801016305 2.67131652791 -0.462972853957 0.188828325467 2.3898164976 0.00251915152774 -0.499993653835 0.609909178941 -0.493268140676 -0.0817712748733 2.68803316392 -0.447932152587 -0.222163873478 0.260030471513 -0.191341716183 -0.461939766256 0.249819967038 0.461112438435 -0.193326974632 1.50032616644 -0.455333380523 0.206570841557 1.12206236032 -0.452747075049 0.212179372312 1.87445076451 -0.454543140431 0.208303944963 2.26311104616 -0.456134233148 0.204796389985 0.272824565783 0.263387104051 0.425002627544 2.72681270904 -0.2649736534 0.424015286285 2.72681270904 0.2649736534 0.424015286285 0.273187290955 -0.2649736534 0.424015286285 2.16638370313 0.18059259877 -0.466247051754 0.757453445538 -0.456210554522 0.204626317815 2.4051536227 0.487592885992 -0.110694071794 0.498922496353 -0.343196178701 -0.363615707754 3 -0.134382908698 -0.055663223334 3 0.181638847101 0.0752372739231 3 -0.0910197596301 0.225539936299 3 0.0951201291292 -0.223841507642 0 -0.134382908698 -0.055663223334 0 0.181638847101 0.0752372739231 0 -0.0910197596301 0.225539936299 0 0.0951201291292 -0.223841507642 0.482568094647 0.0032834003688 0.00388115875591 1.21876864562 0.000275450138888 0.000352008016986 2.51759852398 0.00672159305507 -0.00376311489251 1.71967091408 -4.79026448581e-05 0.000129676770972 2.11907861062 0.0139581163889 0.107640462706 0.851093462767 -0.0384735592484 0.125101526729</DataArray>
      </Points>
      <Cells>
        <DataArray type="Int32" Name="connectivity" format="ascii">41 100 39 104 39 100 38 104 41 39 40 104 39 38 40 104 40 99 68 104 52 41 68 104 41 40 68 104 52 68 99 104 46 99 40 104 43 41 52 104 43 100 41 104 12 65 100 102 12 100 24 102 24 100 35 102 35 100 36 102 36 100 53 102 42 100 44 102 53 100 42 102 45 44 100 102 38 46 40 104 79 100 65 102 45 100 79 102 23 65 12 102 74 101 87 103 59 12 24 102 23 79 65 102 59 24 35 102 37 35 36 102 37 36 53 102 47 42 44 102 72 101 89 103 47 53 42 102 50 101 74 103 44 45 58 102 79 58 45 102 49 74 87 103 38 61 46 104 61 99 46 104 72 87 101 103 54 102 49 103 57 43 52 104 38 100 34 104 72 89 55 103 75 52 99 104 54 55 102 103 54 49 87 103 49 50 74 103 57 100 43 104 54 87 55 103 66 101 50 103 72 55 87 103 90 75 52 99 48 49 102 103 38 34 61 104 66 82 101 103 55 56 102 103 90 52 68 99 23 13 60 102 48 50 49 103 13 60 102 103 66 51 82 103 66 50 51 103 59 13 102 103 59 26 13 103 34 100 33 104 23 60 81 102 56 37 55 102 51 50 48 103 60 81 102 103 75 57 52 104 29 92 69 101 78 62 96 99 89 101 67 103 30 95 70 99 48 102 51 103 34 33 61 104 37 54 55 102 30 77 95 99 51 102 81 103 15 31 14 101 89 67 55 103 25 11 65 100 12 65 11 100 12 11 24 100 87 74 72 101 15 14 63 101 73 91 76 101 62 83 96 99 75 99 88 104 43 44 42 100 34 35 24 100 31 14 101 103 43 57 45 100 39 53 36 100 42 53 39 100 61 32 99 104 36 35 34 100 10 64 9 99 45 44 43 100 43 42 41 100 36 34 38 100 36 38 39 100 11 100 25 104 69 92 85 101 42 39 41 100 33 24 11 100 33 34 24 100 90 30 75 99 90 77 30 99 80 100 57 104 78 96 98 99 63 101 14 103 83 97 96 99 11 33 100 104 25 65 80 100 81 51 58 102 57 80 45 100 85 92 93 101 76 91 28 101 10 64 99 104 94 92 29 101 45 65 79 100 10 9 32 99 31 101 82 103 13 12 59 102 13 23 12 102 63 67 101 103 80 25 100 104 88 99 64 104 54 47 49 102 80 65 45 100 70 88 75 99 35 56 59 102 10 99 32 104 35 37 56 102 95 97 70 99 85 93 15 101 83 9 97 99 70 64 88 99 48 58 51 102 40 27 68 99 68 77 90 99 23 58 79 102 93 91 73 101 30 70 75 99 47 48 49 102 77 98 95 99 66 82 31 101 94 28 91 101 75 88 57 104 81 58 23 102 40 46 27 99 73 66 31 101 27 78 98 99 53 54 37 102 71 94 29 101 31 15 84 101 53 47 54 102 61 32 62 99 56 55 67 103 86 70 97 99 15 93 84 101 68 27 77 99 94 71 28 101 67 89 69 101 64 86 9 99 93 73 84 101 86 97 9 99 63 85 15 101 63 67 69 101 23 81 79 58 27 98 77 99 78 27 46 99 47 44 48 102 46 61 62 99 29 72 71 101 9 83 32 99 31 84 73 101 44 58 48 102 73 76 66 101 61 33 32 104 69 89 29 101 95 98 96 99 46 62 78 99 66 76 50 101 72 29 89 101 96 97 95 99 28 71 74 101 65 80 45 79 62 32 83 99 64 70 86 99 72 74 71 101 14 31 60 103 92 91 93 101 63 69 85 101 28 50 76 101 56 67 26 103 74 50 28 101 94 91 92 101 60 51 81 103 82 60 31 103 63 26 67 103 63 14 26 103 60 82 51 103 88 80 57 104 10 32 33 104 88 25 80 104 95 17 30 70 11 10 33 104 13 14 60 103 13 26 14 103 91 3 73 76 10 25 64 104 92 69 7 29 11 25 10 104 70 95 17 97 88 64 25 104 91 28 4 76 94 92 7 29 82 81 60 51 17 16 70 97 15 0 93 85 9 1 83 97 4 94 28 91 73 93 3 91 78 21 96 62 70 16 86 97 95 30 18 77 71 5 94 28 5 4 94 28 96 62 22 83 7 6 94 29 93 3 2 73 6 94 29 71 73 82 31 66 69 8 85 92 83 22 96 97 8 93 85 92 73 2 93 84 78 21 98 96 78 20 27 98 27 19 77 98 0 8 93 85 1 22 83 97 84 0 93 15 1 9 86 97 77 18 95 98 69 7 8 92 21 96 62 22 20 78 21 98 4 3 91 76 18 77 19 98 19 27 20 98 94 6 5 71 17 30 18 95 2 0 93 84 1 86 16 97 103 59 56 102 103 56 59 26</DataArray>
        <DataArray type="Int32" Name="offsets" format="ascii">4 8 12 16 20 24 28 32 36 40 44 48 52 56 60 64 68 72 76 80 84 88 92 96 100 104 108 112 116 120 124 128 132 136 140 144 148 152 156 160 164 168 172 176 180 184 188 192 196 200 204 208 212 216 220 224 228 232 236 240 244 248 252 256 260 264 268 272 276 280 284 288 292 296 300 304 308 312 316 320 324 328 332 336 340 344 348 352 356 360 364 368 372 376 380 384 388 392 396 400 404 408 412 416 420 424 428 432 436 440 444 448 452 456 460 464 468 472 476 480 484 488 492 496 500 504 508 512 516 520 524 528 532 536 540 544 548 552 556 560 564 568 572 576 580 584 588 592 596 600 604 608 612 616 620 624 628 632 636 640 644 648 652 656 660 664 668 672 676 680 684 688 692 696 700 704 708 712 716 720 724 728 732 736 740 744 748 752 756 760 764 768 772 776 780 784 788 792 796 800 804 808 812 816 820 824 828 832 836 840 844 848 852 856 860 864 868 872 876 880 884 888 892 896 900 904 908 912 916 920 924 928 932 936 940 944 948 952 956 960 964 968 972 976 980 984 988 992 996 1000 1004 1008 1012 1016 1020 1024 1028 1032 1036</DataArray>
        <DataArray type="UInt8" Name="types" format="ascii">10 10 10 10 10 10 10 10 10 10 10 10 10 10 10 10 10 10 10 10 10 10 10 10 10 10 10 10 10 10 10 10 10 10 10 10 10 10 10 10 10 10 10 10 10 10 10 10 10 10 10 10 10 10 10 10 10 10 10 10 10 10 10 10 10 10 10 10 10 10 10 10 10 10 10 10 10 10 10 10 10 10 10 10 10 10 10 10 10 10 10 10 10 10 10 10 10 10 10 10 10 10 10 10 10 10 10 10 10 10 10 10 10 10 10 10 10 10 10 10 10 10 10 10 10 10 10 10 10 10 10 10 10 10 10 10 10 10 10 10 10 10 10 10 10 10 10 10 10 10 10 10 10 10 10 10 10 10 10 10 10 10 10 10 10 10 10 10 10 10 10 10 10 10 10 10 10 10 10 10 10 10 10 10 10 10 10 10 10 10 10 10 10 10 10 10 10 10 10 10 10 10 10 10 10 10 10 10 10 10 10 10 10 10 10 10 10 10 10 10 10 10 10 10 10 10 10 10 10 10 10 10 10 10 10 10 10 10 10 10 10 10 10 10 10 10 10 10 10 10 10 10 10 10 10 10 10 10 10</DataArray>
      </Cells>
      <PointData Vectors="Displacement">
        <DataArray type="Float64" Name="Displacement" NumberOfComponents="3" format="ascii">-3.57693602275e-10 -3.13618110672e-07 -3.72952106071e-09 0 0 0 1.44059311561e-09 -2.24486741068e-07 -2.22840908133e-07 8.56171832451e-11 3.66886439243e-09 -3.18569495281e-07 2.70695767377e-10 2.23547906257e-07 -2.26442387371e-07 1.55477867013e-10 3.17201812894e-07 1.58797239569e-09 -1.0876283535e-11 2.26597825169e-07 2.20909845818e-07 -8.68147112939e-10 -1.69421668894e-09 3.16432734496e-07 -9.52393143618e-10 -2.19868846345e-07 2.25474897606e-07 3.65987090542e-10 -4.25192205741e-08 -9.41598679708e-10 6.51701159263e-10 -7.95028945939e-08 -2.68723872894e-10 2.19302881184e-10 -1.23527639691e-07 1.19857845275e-10 2.85154261488e-10 -1.54170762863e-07 -1.73614709671e-10 1.05269699224e-09 -1.92145285487e-07 -5.70846103568e-09 5.91221378725e-10 -2.39187168202e-07 -1.2876338878e-09 1.78863640346e-10 -2.73295311321e-07 -5.29680936897e-10 0 0 0 0 0 0 0 0 0 0 0 0 0 0 0 0 0 0 0 0 0 2.31679012302e-09 -1.37906104165e-07 -1.08169196649e-07 3.64126156533e-10 -1.14188503249e-07 8.90821646766e-08 4.99591259004e-12 -8.73728557839e-08 -6.80390604037e-08 -4.38638767289e-10 -1.6918340885e-07 1.29676884959e-07 -4.38383693406e-11 4.01055292776e-08 1.80634859866e-08 4.30174419122e-10 2.57636119742e-07 -1.07473888984e-07 -2.64636645001e-10 1.17172968659e-07 2.52958523133e-07 1.19852825975e-10 1.19455359708e-08 -3.28576760981e-08 3.50364309832e-10 -1.96479022109e-07 -1.55161468496e-07 3.60854710524e-10 -5.54476683538e-08 4.13403236317e-08 1.22492794656e-09 -8.61999047487e-08 6.75103976189e-08 -3.38385171601e-11 -2.90344151074e-08 1.15459401657e-07 5.63516885628e-10 -3.77367320211e-08 1.48502747504e-07 -2.40863020354e-10 5.88998392282e-08 1.30794299366e-07 -1.20947516962e-09 7.27307589972e-08 1.60105902777e-07 5.64605657472e-10 4.35054017344e-08 9.62163143506e-08 -6.2991988041e-10 1.02422870951e-07 5.34604945829e-08 -1.60004416412e-10 7.62290726137e-08 3.91841850096e-08 -9.19010709615e-10 1.03427038397e-07 -1.8540631531e-08 -5.29161786459e-10 1.40941360004e-07 -2.66229867229e-08 2.0844693407e-10 7.69275199842e-08 -8.85888879824e-08 -2.58882600843e-10 1.0025427615e-07 -1.16168362233e-07 9.55552946606e-12 1.06414694804e-08 -1.4357180843e-07 -5.33745551545e-10 3.01435784375e-08 6.72752764049e-08 7.26223067299e-13 1.74913164124e-07 -3.32709207726e-08 7.63196363751e-11 1.32725263325e-07 -1.53863162256e-07 -5.02323332926e-10 2.09789723724e-07 -3.68787475935e-08 6.96545338772e-11 1.63124120328e-07 -1.73184899911e-07 -9.56729666642e-10 8.12078827807e-09 -2.13869558012e-07 -4.95704775952e-10 5.84315139078e-08 -6.36344421588e-08 -8.34788881689e-10 1.35379160566e-07 7.03156050411e-08 -1.17848349441e-09 1.81684576858e-07 8.85624088539e-08 9.50892211517e-10 8.77465848216e-08 1.91470811283e-07 2.41889049588e-10 -4.37614643888e-08 1.88327478276e-07 -1.51217870268e-09 5.95499187074e-09 -1.07542685165e-07 -9.62125466146e-10 1.36758004564e-08 -1.76781527795e-07 6.21905849848e-11 -1.40065264198e-07 1.08526172149e-07 9.49477932965e-11 -1.64946031224e-07 -1.30154875299e-07 1.17607710139e-09 -2.11961171359e-08 8.03006086808e-08 -9.73296119727e-11 -1.33917601872e-08 3.98534929043e-08 -7.89185302386e-10 -1.97625656892e-07 1.52973670564e-07 4.27031726623e-10 -5.2417270437e-08 -4.09876558032e-08 7.26475545418e-10 -1.14321825462e-07 -8.83309886786e-08 7.44862934064e-10 1.17658298065e-08 -2.47584703233e-07 -1.07940811658e-10 -6.94888428506e-08 2.2610972687e-07 3.36847396594e-11 7.58695789882e-08 -1.49269376288e-08 -7.4295455364e-10 -9.1875744868e-08 2.57047135167e-07 -6.04479566767e-10 -1.61189354371e-08 -3.87122023516e-08 1.13311766832e-10 2.54881449486e-07 1.04028958732e-07 1.13931696374e-09 1.73530287513e-07 1.65269050403e-07 1.26383964335e-09 -1.0496648823e-07 -2.56909799772e-07 -2.04630394855e-09 2.37986257754e-07 -1.76682245954e-09 -6.75455394709e-10 1.26349214007e-08 -7.39525761459e-08 -3.8142342067e-10 1.25083053821e-07 -2.48645000813e-07 6.85730145284e-10 2.90087562744e-08 -1.30473052889e-08 -2.90715082428e-10 1.11149909688e-08 2.91369999931e-08 5.68032304324e-10 -6.33668565221e-08 -1.39311479401e-07 6.06532920579e-10 -5.19595843362e-08 -1.1055532405e-07 7.48100925346e-10 -8.24546544558e-08 -1.83099115747e-07 -8.06935602871e-10 -9.64138045274e-08 -2.17789354297e-07 -1.73973432522e-10 -2.73975986451e-08 1.68983621306e-08 1.62168900272e-10 -2.3703623742e-07 -1.49215396316e-07 -1.13511614672e-09 -2.40064806197e-07 1.49912668002e-07 -4.03702521759e-10 -3.09721724415e-08 -1.92472355982e-08 -5.77175308526e-10 2.14168144403e-07 8.19347727547e-08 -1.13137383351e-09 -3.36083687617e-08 -7.57482767998e-08 -1.28122629381e-09 5.46824968411e-08 2.36410710635e-07 9.85440385846e-10 4.4787656178e-08 -4.29910177822e-08 -1.90943069402e-10 3.77410359504e-08 -8.93587643195e-08 -1.2215094337e-10 -4.71841355453e-08 1.17323706645e-07 4.9752367656e-10 -1.4359031751e-07 -5.83922511848e-08 5.5212163434e-12 1.43466082942e-07 5.94664296783e-08 0 0 0 0 0 0 0 0 0 0 0 0 -1.60138095785e-10 -2.02209772701e-09 5.09295196674e-10 -1.29624710257e-10 1.33225682513e-09 5.06988747103e-10 8.9656813689e-11 4.00784805706e-09 1.70882621767e-09 -2.00500017532e-10 -9.61254043481e-10 -4.61437129909e-10 2.46543905964e-10 -4.76095801152e-08 4.49075371312e-09 6.58066029172e-11 -2.39276160435e-08 -7.12079335111e-09</DataArray>
        <DataArray type="Float64" Name="DisplacementMagnitude" format="ascii">3.13640489436e-07 0 3.16313835552e-07 3.18590632662e-07 3.18197885704e-07 3.17205825818e-07 3.16461268513e-07 3.16438460858e-07 3.14931970584e-07 4.25312199785e-08 7.95060197452e-08 1.23527892507e-07 1.54171124328e-07 1.92232945754e-07 2.39191364761e-07 2.73295883146e-07 0 0 0 0 0 0 0 1.75282732139e-07 1.44826720344e-07 1.1073991915e-07 2.13164989449e-07 4.3985735488e-08 2.7915442332e-07 2.78778745679e-07 3.49619374877e-08 2.50358163817e-07 6.91635489255e-08 1.09496930614e-07 1.19054071063e-07 1.53223511613e-07 1.43444755299e-07 1.75855412878e-07 1.05596486243e-07 1.15537291702e-07 8.57105446712e-08 1.0507974053e-07 1.43434760062e-07 1.17328077863e-07 1.53447304604e-07 1.43965638747e-07 7.37216591015e-08 1.78049344715e-07 2.03199099528e-07 2.1300709503e-07 2.37912784528e-07 2.14025817084e-07 8.63934590675e-08 1.52553263814e-07 2.02123661538e-07 2.10621553781e-07 1.93345192207e-07 1.07718047444e-07 1.77312328317e-07 1.7718976309e-07 2.10113050036e-07 8.30592938418e-08 4.20434252962e-08 2.49914919445e-07 6.65412693327e-08 1.44472734814e-07 2.47865235253e-07 2.36546653997e-07 7.73240429458e-08 2.72974237198e-07 4.19382890219e-08 2.75293643927e-07 2.39641227147e-07 2.7752874835e-07 2.38001613232e-07 7.50272017165e-08 2.78334784507e-07 3.18152532871e-08 3.11864122351e-08 1.53046951813e-07 1.22158282414e-07 2.00809899865e-07 2.38177403827e-07 3.21902674884e-08 2.80091839665e-07 2.83030400647e-07 3.64677188709e-08 2.2930685597e-07 8.28770408238e-08 2.42655807893e-07 6.20897161261e-08 9.70021186087e-08 1.26456354957e-07 1.55009941006e-07 1.5530219974e-07 0 0 0 0 2.09138830078e-09 1.43134496307e-09 4.35786317304e-09 1.08495797983e-09 4.78215408739e-08 2.49647919676e-08</DataArray>
        <DataArray type="Float64" Name="NodalVonMises" format="ascii">6691.46240857 6958.73324057 7145.42342458 6625.7934619 6664.60690759 6880.31855344 6881.63814519 6418.95858577 6459.81013308 5466.92392321 5192.85762023 4665.52984221 4313.78017602 5194.43676723 5036.58441567 5298.59362915 7019.24111697 6657.52404298 6891.49530427 6842.6624499 6926.31331496 6721.16852942 6559.58755675 5774.04749633 4329.75792766 5187.21104546 5949.43797595 6069.70263406 5811.33702603 5879.36248673 5600.96560204 5240.03301116 5173.87004054 5040.60872882 4671.54094009 4582.55418712 4648.74096249 5886.90009731 4506.90668892 4575.76125074 4281.77011153 4306.96319201 4735.44078453 4655.27311124 5037.77540542 4704.38886801 5147.03611465 6200.16635809 4839.88952513 4131.12830722 4403.26317093 4965.91127056 4369.34198737 5178.15409952 5093.99027949 4692.46135236 5084.03876383 4871.47827063 6083.35585524 4868.11404587 5400.89065508 4867.15904647 5779.21545367 4880.69038385 5163.50945068 4464.86864708 5231.35138708 4765.35979552 4807.62527882 5584.7408296 5522.1501537 6272.61446126 4740.18306031 5956.8090959 4540.53905845 4978.34554162 5576.85810724 5783.81817173 5901.65696442 4699.69984636 5179.94254332 5141.44997533 5567.18501195 5566.23227592 5650.64056678 5535.06223838 5568.96637511 3939.86688048 5211.54067244 4666.44709738 5974.95302398 4612.64135212 4576.93281192 5293.63300824 5331.09598924 4301.89178754 4365.45330291 5147.60459945 5253.55968203 4219.53682934 3713.10649135 4182.31423114 4339.53833274 3947.68102862 3984.57846924</DataArray>
        <DataArray type="Float64" Name="NodalStressTrace" format="ascii">320.431023444 -1690.44747846 153.780275616 652.400881137 -861.334914031 95.505158993 -79.9400416391 728.605400475 -1157.14928147 -592.842045712 71.5540388369 -85.8269489783 -393.409910519 -44.830505249 -710.341108838 94.887018006 -261.458999147 112.713477654 637.044804451 -1404.42195691 1396.70096012 -1110.30750409 1171.96594653 76.4964557786 166.1736829 -57.3267300894 -80.7018674358 -75.7060581409 -200.386074588 6.89336824784 130.402429912 -380.371207244 381.56797291 -130.915226737 -487.136319357 526.654387673 84.0213523561 -134.968355526 -268.760972316 -120.443420912 -119.600030257 309.556925934 -38.0276496665 424.61915722 -65.2616367723 -305.904667542 279.45611302 269.960308546 -29.1551390058 701.898026128 60.2704899452 -363.918350526 -279.804774366 -74.4773448247 336.63937825 75.4935652584 58.3508134052 361.473583304 85.6067248733 121.647053679 -898.519379809 261.624816964 -65.0404923935 -200.320774007 -422.070900818 87.6439865507 542.502227006 323.71899575 -17.2340929035 -75.6893404855 157.743729746 -41.6949039774 645.287563169 -214.577450039 -806.504997621 -235.531888702 513.290532927 -249.339904276 180.355972485 85.7109589806 561.453862322 -657.401128418 124.40329944 329.112912846 540.790013439 -542.584978341 -874.375926311 74.4596485488 -126.252342126 -275.373140404 8.91136635712 188.260358291 -79.2837368016 123.99388641 -20.9726746985 114.955049501 200.785460083 -118.198875616 -90.0298474033 53.2509954188 70.4277359698 29.2252259178 -52.2524721001 -83.8122465576 73.9974423471</DataArray>
        <DataArray type="Float64" Name="NodalPrincipalStress" NumberOfComponents="3" format="ascii">-3901.76330844 455.489155881 3766.705176 -4378.63248807 -917.960403354 3606.14541296 -3776.13035759 -459.051406787 4388.96203999 -3667.0435044 348.185982242 3971.2584033 -4007.57426903 -516.893741634 3663.13309663 -4042.15700507 292.883353801 3844.77881026 -3842.42273635 -286.227978495 4048.7106732 -3538.95987888 423.367355194 3844.19792416 -4094.41758821 -403.786667476 3341.05497422 -3239.40564452 -397.484869709 3044.04846851 -2939.66900277 19.7337892467 2991.48925236 -2675.42055952 -79.7526525917 2669.34626313 -2563.60429038 -199.779356918 2369.97373678 -2920.7273122 -167.315442469 3043.21224943 -3130.99679518 -207.109491079 2627.76517742 -3129.30830547 265.878523505 2958.31679997 -4302.38469597 308.488918379 3732.43677844 -3752.37637574 -60.8189785039 3925.9088319 -3816.31663322 327.040133197 4126.32130447 -4246.60866292 -769.235770848 3611.42247686 -3658.97511403 759.559754646 4296.1163195 -4171.02283049 -511.774286543 3572.48961294 -3444.15490464 492.172442257 4123.94840892 -3234.10952711 -110.144417263 3420.75040015 -2388.41077045 -10.1821625558 2564.7666159 -2986.27047867 4.55950161328 2924.38424697 -3489.22493056 45.958200495 3362.56486263 -3529.9152317 12.5915127315 3441.61766083 -3403.98621931 -69.1299914887 3272.73013621 -3321.39507001 -106.118589796 3434.40702805 -3206.74734969 97.4450474066 3239.70473219 -3243.3452407 104.874975426 2758.09905803 -2916.86672588 279.262424396 3019.17227439 -2925.60371129 -57.0835516565 2851.7720362 -2757.88519647 -317.091246751 2587.84012387 -2450.72827046 183.971879865 2793.41077827 -2615.1052221 -4.60970232061 2703.73627678 -3533.93130296 148.506805825 3250.4561416 -2667.07461562 -77.4935418334 2475.80718514 -2634.7335238 -53.8124585821 2568.10256147 -2507.6494961 0.952004998128 2387.09746085 -2347.18846515 91.6550227235 2565.09036836 -2727.94122555 6.70472722139 2683.20884866 -2583.9416852 272.162715628 2736.39812679 -2919.48913511 3.21428936882 2851.01320896 -2838.7532711 -12.6547486231 2545.50335218 -2910.23312806 211.555463947 2978.13377713 -3460.02547478 37.0362102548 3692.94957307 -2751.60614975 -65.0715639086 2787.52257465 -2075.99263481 149.495173392 2628.39548755 -2551.03870972 98.402486643 2512.90671303 -2927.9670074 -178.473076091 2742.52173297 -2618.66276857 -27.6269283558 2366.48492256 -2998.82881635 0.904861986705 2923.44660954 -2819.36888992 175.121311899 2980.88695627 -2673.16563333 74.5590749963 2674.1001236 -3037.85929298 292.759473153 2803.45063323 -2676.53373385 149.914936587 2888.09238057 -3435.56798531 -55.4738751382 3576.64858532 -2788.11779377 108.400735642 2801.36411181 -3356.83359912 -378.153831552 2836.46805087 -2712.34410121 114.291380104 2859.67753807 -3390.09185186 64.934818582 3260.11654088 -2823.68446513 -140.088620629 2763.45231175 -3049.7993289 -217.774783019 2845.50321111 -2544.51074782 64.7396326686 2567.4151017 -2893.67229042 345.04279667 3091.13172076 -2585.38324221 29.1134425212 2879.98879544 -2713.94266193 -77.1950988549 2773.90366788 -3189.71067671 -114.924051533 3228.94538776 -3126.0266536 69.8844645049 3213.88591884 -3571.55917084 -97.1237175519 3626.98798441 -2355.98681547 -48.8528446071 3050.12722325 -3518.87633332 -19.9453126442 3324.24419592 -2889.59882571 -208.653180594 2291.74700868 -2884.16562261 -176.745879874 2825.37961379 -3023.38424549 142.432762345 3394.24201607 -3375.87983447 -149.800807594 3276.34073779 -3371.81815014 135.62652643 3416.54759619 -2650.02916304 15.2464960898 2720.49362593 -2831.91203409 316.5153107 3076.85058571 -3097.68808388 -333.668157263 2773.95511273 -3143.7946001 63.2468296667 3204.95106987 -3099.80381764 129.393593657 3299.52313683 -3031.23645582 132.45401041 3439.57245885 -3381.17385397 -142.589032814 2981.17790844 -3512.72404675 -237.774075188 2876.12219563 -2181.70989441 5.59900055021 2250.57054241 -2989.48735596 -97.0095786688 2960.2445925 -2640.73298129 -342.040116231 2707.39995711 -3425.83411314 -28.8994254658 3463.64490496 -2559.75305074 3.55605683911 2744.45735219 -2642.63298976 -50.7898861771 2614.13913914 -3018.67389544 89.4284322253 3053.23934962 -3038.29178863 -68.643319783 3085.96243371 -2440.80292703 51.4777733509 2504.28020318 -2445.59506472 66.4585349623 2579.92198984 -2969.87932675 -88.7484639469 2940.42891508 -3062.14923445 -6.02469515651 2978.1440822 -2401.63074121 29.6422322453 2425.23950438 -2073.56602956 23.5234868993 2120.47027863 -2372.51308821 -8.39115135023 2410.12946548 -2480.8501535 -26.6370618715 2455.23474327 -2262.31795958 -27.0376635061 2205.54337653 -2230.98698117 32.7896488711 2272.19477465</DataArray>
        <DataArray type="Float64" Name="ShellTopNodalVonMises" format="ascii">0 0 0 0 0 0 0 0 0 0 0 0 0 0 0 0 0 0 0 0 0 0 0 0 0 0 0 0 0 0 0 0 0 0 0 0 0 0 0 0 0 0 0 0 0 0 0 0 0 0 0 0 0 0 0 0 0 0 0 0 0 0 0 0 0 0 0 0 0 0 0 0 0 0 0 0 0 0 0 0 0 0 0 0 0 0 0 0 0 0 0 0 0 0 0 0 0 0 0 0 0 0 0 0 0</DataArray>
        <DataArray type="Float64" Name="ShellBottomNodalVonMises" format="ascii">0 0 0 0 0 0 0 0 0 0 0 0 0 0 0 0 0 0 0 0 0 0 0 0 0 0 0 0 0 0 0 0 0 0 0 0 0 0 0 0 0 0 0 0 0 0 0 0 0 0 0 0 0 0 0 0 0 0 0 0 0 0 0 0 0 0 0 0 0 0 0 0 0 0 0 0 0 0 0 0 0 0 0 0 0 0 0 0 0 0 0 0 0 0 0 0 0 0 0 0 0 0 0 0 0</DataArray>
      </PointData>
      <CellData Scalars="VonMises">
        <DataArray type="Int32" Name="ElementIndex" format="ascii">0 1 2 3 4 5 6 7 8 9 10 11 12 13 14 15 16 17 18 19 20 21 22 23 24 25 26 27 28 29 30 31 32 33 34 35 36 37 38 39 40 41 42 43 44 45 46 47 48 49 50 51 52 53 54 55 56 57 58 59 60 61 62 63 64 65 66 67 68 69 70 71 72 73 74 75 76 77 78 79 80 81 82 83 84 85 86 87 88 89 90 91 92 93 94 95 96 97 98 99 100 101 102 103 104 105 106 107 108 109 110 111 112 113 114 115 116 117 118 119 120 121 122 123 124 125 126 127 128 129 130 131 132 133 134 135 136 137 138 139 140 141 142 143 144 145 146 147 148 149 150 151 152 153 154 155 156 157 158 159 160 161 162 163 164 165 166 167 168 169 170 171 172 173 174 175 176 177 178 179 180 181 182 183 184 185 186 187 188 189 190 191 192 193 194 195 196 197 198 199 200 201 202 203 204 205 206 207 208 209 210 211 212 213 214 215 216 217 218 219 220 221 222 223 224 225 226 227 228 229 230 231 232 233 234 235 236 237 238 239 240 241 242 243 244 245 246 247 248 249 250 251 252 253 254 255 256 257 258</DataArray>
        <DataArray type="Float64" Name="VonMises" format="ascii">2183.59984059 2189.44100741 4446.78294135 4539.25202802 1669.64894887 4577.23824586 4543.05658003 2267.27908624 2371.05509598 4982.71743854 2325.70143003 1714.63154976 1686.43660596 1537.96009744 1975.25725988 1852.79545034 2034.94415856 1929.87535313 1834.14134138 4826.76061561 2012.66082633 2232.77251151 5119.6842359 3102.87045529 5363.10227348 5091.89297589 5349.09924237 5451.29390755 5442.36389332 5701.82450754 1130.30778214 5711.56951724 563.653565371 5554.77618602 5421.57868802 4259.25795979 5176.61350979 2158.37816267 3125.24666578 2214.96196924 5435.46327408 2546.28047099 4970.4877825 2342.65958955 2126.12439516 4986.62484537 4145.6867535 2208.38443159 5046.43536712 1851.2538637 4481.81298221 4775.67041925 1935.28776369 5357.65080352 3241.24105942 3193.24597945 5046.33535975 5017.98616451 4221.70556239 2975.81229865 5632.62735255 5104.87147177 2524.0945044 5822.68633622 1999.22431613 5752.79762523 5057.1280042 4498.01747892 2760.09218267 5527.37248569 2771.93581291 2791.11464103 1491.28508894 1556.31013336 2154.43720672 5742.89171484 5791.3403107 1592.55498103 2969.85463377 5161.82241559 5483.75776845 5035.71485416 4671.67802904 4561.07225626 2576.81988777 5308.90670924 1921.38643869 2679.57099647 1847.42701032 5414.78637308 5313.25301447 1709.01225084 5794.13642771 5792.56936259 5693.917307 2601.19939805 5256.39275023 5512.56775219 5524.25916562 5556.73634927 5498.6002675 5920.65480855 2131.48217834 2929.11873478 5839.87271045 5169.10574823 5658.03418308 6366.71051517 6746.10899501 3201.3491938 4158.89231388 2019.37871604 4104.33951309 2571.7723808 5261.9697351 5122.1976931 4941.77009523 4867.9301407 1983.54956419 2132.56079946 5193.25414367 2722.08383155 5648.63292793 2999.31692525 5590.43771926 5803.1987385 2572.07078555 2912.28798156 3527.66634732 5584.29343576 5816.65399931 6238.21132198 5744.92812665 1836.51610354 6032.24909836 5064.17174444 3640.70450125 3363.49775312 5499.93283091 5970.98851019 6061.5282113 6939.93983073 6443.97641559 5716.7033441 6680.84695081 5701.20816799 4189.04878862 3657.75557675 5447.34212795 6047.8660402 6491.92672685 5796.07647109 6601.41591882 3392.16757842 7547.02536972 3061.31341564 5699.78858251 7455.11654282 5607.32857444 6081.81958146 2549.02095914 2864.28257485 7355.97596781 2974.70380425 5777.95341346 5653.37973934 2953.29901314 2617.77793434 6398.75218899 5146.70019783 6470.91708818 3235.89821573 7298.52931035 7046.98597719 6081.45609724 7353.8298364 6507.0514558 5970.31978818 7190.48553398 6746.71146396 6211.7541112 6901.06081101 231.194394386 7467.41965446 6074.21208022 6910.27703517 231.194394386 7458.05517199 7201.7164338 6503.55018857 5800.29669211 7372.68251051 6391.19614769 786.807769646 6161.71739077 6324.68159912 6012.37515589 6845.28616337 1019.73734667 3409.28168287 6037.62880946 5556.91637261 5881.08070974 6642.30450572 5815.48421673 6474.92756479 6288.30869106 7341.44718345 6497.15981147 6867.27496404 6954.00341223 7118.07585016 6754.24252307 7044.25359298 6686.25347936 6070.02440592 6427.42892101 7460.7905133 6012.92528102 8154.53216994 6070.02440592 6505.3870941 7057.89346714 6078.14515284 6221.05941754 7220.37921779 7873.36506268 7375.1458809 7406.78154734 6134.03461595 7303.95659508 6091.36503164 6178.58123163 7453.40990689 8172.0736965 7002.63707523 6288.115257 6190.37059606 7925.27389213 6653.06589098 7480.27818191 7361.27389793 6118.94242355 6288.115257 6809.10496664 7374.59035586 6521.11757978 6527.29043747 6358.16311794 6653.06589098 6985.45734828 6521.11757978 6645.59587199 7100.13949703 7148.60017663 7332.41514998 7114.33388229 3080.99829561 5469.56586901</DataArray>
        <DataArray type="Int32" Name="HasVonMises" format="ascii">1 1 1 1 1 1 1 1 1 1 1 1 1 1 1 1 1 1 1 1 1 1 1 1 1 1 1 1 1 1 1 1 1 1 1 1 1 1 1 1 1 1 1 1 1 1 1 1 1 1 1 1 1 1 1 1 1 1 1 1 1 1 1 1 1 1 1 1 1 1 1 1 1 1 1 1 1 1 1 1 1 1 1 1 1 1 1 1 1 1 1 1 1 1 1 1 1 1 1 1 1 1 1 1 1 1 1 1 1 1 1 1 1 1 1 1 1 1 1 1 1 1 1 1 1 1 1 1 1 1 1 1 1 1 1 1 1 1 1 1 1 1 1 1 1 1 1 1 1 1 1 1 1 1 1 1 1 1 1 1 1 1 1 1 1 1 1 1 1 1 1 1 1 1 1 1 1 1 1 1 1 1 1 1 1 1 1 1 1 1 1 1 1 1 1 1 1 1 1 1 1 1 1 1 1 1 1 1 1 1 1 1 1 1 1 1 1 1 1 1 1 1 1 1 1 1 1 1 1 1 1 1 1 1 1 1 1 1 1 1 1 1 1 1 1 1 1 1 1 1 1 1 1 1 1 1 1 1 1</DataArray>
        <DataArray type="Float64" Name="StressTrace" format="ascii">6133.34087485 -6554.62295228 -1685.88736174 1512.6555012 4630.56273301 2083.78698833 -1713.77355759 -6848.13553606 -5343.56362191 2669.55049783 -5033.2612623 -4350.6792574 4186.10477948 -4572.70906474 4856.14343747 -5114.90790481 -5129.87223647 5242.89690332 5150.21454324 1904.10781613 6148.48209362 -6385.28554489 1025.72549943 -8976.02062864 -975.269533693 -3045.1219392 1330.18419557 -681.552113126 1032.82970936 1042.14519603 -35.1462563895 -1147.45837937 1861.08024868 -1932.9242705 2865.21438938 4285.52235552 -1131.67054835 6981.62771665 7370.15755926 -5856.90860593 -1600.09611493 4901.53902028 790.403874835 4714.52333155 6970.83366626 3692.13747199 -962.308757302 6786.97514539 -2562.61225168 -3385.41259914 -3331.13648371 -1952.24693882 4664.57378441 -2963.98297811 10126.1298708 -4074.20186445 2122.8801388 -1411.70626815 -1356.71762663 4042.51133765 -2329.80749469 989.907965539 3881.48320236 493.155935352 -6706.80249311 2629.16937524 1583.53155056 1735.84865384 -9476.80285494 -3428.70056163 -344.745562491 1451.77154421 -5375.2785202 -2074.78318537 -6156.98624024 1290.75956978 -1867.24618014 435.882927971 6727.60434391 -2287.4363243 210.922325655 1516.89534441 2116.01158473 -2255.42080682 43.1695170922 1847.17813984 910.124935482 -2204.23963839 -6632.86953453 3091.22393007 2967.94843626 5246.25339797 -2104.99923685 3168.74653391 -3425.855839 -4076.04804797 -2770.97520657 1295.23381206 -3151.7501299 2739.31042844 -2422.80071351 2604.68707611 -4728.201093 1636.60407535 -2716.61120035 -1158.67235298 1807.22381012 113.971326011 -1030.99729273 -6437.06519859 1638.82517964 -5118.95024356 792.875648863 4460.07011938 -2387.90953745 -3308.06777782 2647.44749673 -889.087032325 -809.070451531 -5174.09680449 -983.38397515 271.313724437 -1763.33533571 -6817.87992195 -3265.42533163 371.673781742 4836.00834378 9570.65409221 7590.03901806 2668.98070751 -141.717904682 2241.54552146 3415.04446303 5930.20891347 -330.849046515 3566.9010721 -847.487668421 1456.96867987 -3006.25313061 1991.26556378 -2459.12618028 790.949598517 300.8551986 -1802.35576828 1090.28143815 -1520.09512055 -3238.72288163 779.521278266 2161.44711571 1969.24030819 -65.4134937248 2198.22442912 -835.00987189 -1264.59235885 -546.524053307 291.889656342 -306.619322214 194.454271289 1324.55067361 2958.94744999 1488.80554713 1224.58826092 1254.98307204 -323.427073342 2980.02073444 745.583424117 -867.011221694 -1187.49286772 -1109.70222969 -2243.03202014 806.789492294 1554.12487756 -1671.97800606 381.735176364 -2108.57075826 -44.4190683495 1049.01081348 1095.27081285 27.1346969789 -750.748602901 2776.33290836 -1019.71590216 -66.3691187054 1407.47187684 2894.54997557 521.181760991 -66.3691187054 -281.950063261 -276.559742388 -1478.76838293 -1769.69878531 -151.910398372 -1645.12087833 1521.38835303 1038.41488442 1035.10880363 820.330456181 -2269.62225469 -200.30435114 -1558.90242553 3573.91923565 -1598.16680371 745.683736998 -716.460407272 5058.98682812 -709.407759034 -3542.20513538 1015.53083579 -2806.82561642 -3408.21522563 -1062.12147369 952.312156719 1631.12787195 1379.08944302 2169.52722886 -328.32129056 -4688.50261232 -12.5951217708 545.678356746 -1013.58568679 -328.32129056 -493.313468252 -1396.93179627 -1753.44627605 1216.72078082 -3920.51357312 -160.505705013 1401.36773352 1815.63540194 -1565.94082652 4998.17093137 1399.55756186 553.928018792 -1676.19858833 -2606.61047849 -3697.93595709 -127.535020186 570.47930495 -226.972711837 -232.73966919 4447.69842809 -4715.83290634 -1091.23671402 -127.535020186 2731.88875616 -4941.77309552 527.422914164 -409.903759729 -55.237104864 -232.73966919 -113.357431785 527.422914164 -24.8558785452 36.8209015516 91.9656559507 134.385519892 -295.550001867 -4022.90344582 116.90694426</DataArray>
        <DataArray type="Float64" Name="HydrostaticPressure" format="ascii">-2044.44695828 2184.87431743 561.962453914 -504.2185004 -1543.520911 -694.595662778 571.257852532 2282.71184535 1781.18787397 -889.850165944 1677.7537541 1450.22641913 -1395.36825983 1524.23635491 -1618.71447916 1704.9693016 1709.95741216 -1747.63230111 -1716.73818108 -634.702605377 -2049.49403121 2128.42851496 -341.908499809 2992.00687621 325.089844564 1015.0406464 -443.394731857 227.184037709 -344.276569788 -347.381732009 11.7154187965 382.486126455 -620.360082893 644.308090168 -955.071463126 -1428.50745184 377.223516116 -2327.20923888 -2456.71918642 1952.30286864 533.365371642 -1633.84634009 -263.467958278 -1571.50777718 -2323.61122209 -1230.71249066 320.769585767 -2262.32504846 854.204083893 1128.47086638 1110.3788279 650.748979606 -1554.85792814 987.994326037 -3375.3766236 1358.06728815 -707.626712934 470.568756049 452.239208876 -1347.50377922 776.60249823 -329.969321846 -1293.82773412 -164.385311784 2235.60083104 -876.389791746 -527.843850188 -578.616217947 3158.93428498 1142.90018721 114.915187497 -483.923848071 1791.75950673 691.594395123 2052.32874675 -430.253189927 622.415393378 -145.294309324 -2242.5347813 762.478774765 -70.3074418849 -505.631781469 -705.337194912 751.806935606 -14.3898390307 -615.726046613 -303.374978494 734.746546129 2210.95651151 -1030.40797669 -989.316145421 -1748.75113266 701.666412282 -1056.24884464 1141.95194633 1358.68268266 923.65840219 -431.744604019 1050.58337663 -913.103476146 807.600237836 -868.22902537 1576.067031 -545.534691785 905.537066784 386.224117658 -602.407936707 -37.9904420036 343.665764242 2145.68839953 -546.275059879 1706.31674785 -264.291882954 -1486.69003979 795.969845817 1102.68925927 -882.48249891 296.362344108 269.69015051 1724.69893483 327.794658383 -90.4379081457 587.778445236 2272.62664065 1088.47511054 -123.891260581 -1612.00278126 -3190.21803074 -2530.01300602 -889.660235838 47.2393015608 -747.181840488 -1138.34815434 -1976.73630449 110.283015505 -1188.96702403 282.495889474 -485.656226623 1002.08437687 -663.755187927 819.708726759 -263.649866172 -100.2850662 600.785256092 -363.42714605 506.698373517 1079.57429388 -259.840426089 -720.482371902 -656.413436062 21.8044979083 -732.741476373 278.336623963 421.530786282 182.174684436 -97.296552114 102.206440738 -64.8180904296 -441.516891203 -986.315816663 -496.26851571 -408.196086973 -418.32769068 107.809024447 -993.340244815 -248.527808039 289.003740565 395.830955906 369.900743229 747.677340045 -268.929830765 -518.041625854 557.326002021 -127.245058788 702.856919419 14.8063561165 -349.670271161 -365.090270949 -9.04489899298 250.2495343 -925.444302785 339.90530072 22.1230395685 -469.157292279 -964.849991856 -173.727253664 22.1230395685 93.9833544204 92.1865807961 492.92279431 589.899595103 50.6367994575 548.37362611 -507.129451011 -346.138294805 -345.036267878 -273.443485394 756.540751563 66.7681170467 519.634141842 -1191.30641188 532.722267905 -248.561245666 238.820135757 -1686.32894271 236.469253011 1180.73504513 -338.510278595 935.608538805 1136.07174188 354.040491231 -317.437385573 -543.709290652 -459.696481007 -723.175742954 109.440430187 1562.83420411 4.19837392359 -181.892785582 337.861895596 109.440430187 164.437822751 465.643932091 584.482092018 -405.573593607 1306.83785771 53.501901671 -467.122577841 -605.211800648 521.980275505 -1666.05697712 -466.519187287 -184.642672931 558.732862777 868.870159495 1232.64531903 42.5116733954 -190.159768317 75.6575706123 77.5798897301 -1482.5661427 1571.94430211 363.74557134 42.5116733954 -910.629585386 1647.25769851 -175.807638055 136.634586576 18.412368288 77.5798897301 37.7858105949 -175.807638055 8.28529284839 -12.2736338505 -30.6552186502 -44.7951732974 98.516667289 1340.96781527 -38.9689814202</DataArray>
        <DataArray type="Float64" Name="PrincipalStress" NumberOfComponents="3" format="ascii">1237.08997272 1399.07805239 3497.17284974 -3641.50516111 -1537.51514229 -1375.60264887 -3201.23497033 -411.50252139 1926.85012998 -2020.40559196 321.54800268 3211.51309048 883.080905322 1097.78551135 2649.69631634 -1774.7629804 376.727323809 3481.82264493 -3221.55829159 -515.642344417 2023.42707841 -3788.97154472 -1638.68946651 -1420.47452484 -3344.25298179 -1203.58674058 -795.723899542 -2000.20356017 916.59763037 3753.15642763 -3201.98465178 -1161.61088193 -669.665728592 -2585.324219 -999.51867503 -765.836363366 707.135375641 969.566244233 2509.40315961 -2540.11481704 -1136.43717998 -896.157067732 783.198072903 1155.00723653 2917.93812804 -2931.07850472 -1221.43623021 -962.393169875 -3051.00263329 -1217.00411852 -861.865484656 1027.56611027 1184.30118336 3031.02960969 943.0873669 1283.529158 2923.59801835 -2161.58846719 653.921073881 3411.77520944 1247.04406455 1519.41701972 3382.02100934 -3601.54950317 -1576.78316795 -1206.95287377 -2505.27699582 135.407194035 3395.59530121 -5047.51588682 -2165.3254536 -1763.17928822 -3496.18637867 -169.832483987 2690.74932896 -4059.08835243 -794.0887355 1808.05514873 -2602.56863559 360.387226738 3572.36560443 -3465.83750435 -35.7501158772 2820.0355071 -2800.57892736 349.694051757 3483.71458497 -2865.67058734 194.886762441 3712.92902093 -542.001967156 -210.212479278 717.068190045 -3717.20485256 -306.901573704 2876.6480469 269.47250206 679.355559463 912.252187157 -3887.23271975 -571.315787162 2525.62423641 -1944.46966803 536.063172957 4273.62088445 -715.21447362 887.781976866 4112.95485228 -3534.09176537 -6.29906813271 2408.72028516 1419.9368705 1813.62876264 3748.0620835 1176.60718389 1673.15052283 4520.39985254 -3425.96006454 -1296.73328125 -1134.21526014 -3885.23790422 -49.8216142653 2334.96340356 505.029709126 1100.29692754 3296.21238362 -2310.0078972 -257.601104403 3358.01287644 499.787019588 1123.54282554 3091.19348642 1548.43075867 1683.5229609 3738.87994669 -1522.24351952 993.271656208 4221.10933531 -2776.08840675 -191.956540723 2005.73619018 1286.18751828 1795.91983581 3704.8677913 -3945.12551781 -459.173788647 1841.68705477 -2324.6458702 -793.545499789 -267.221229148 -3907.88912783 -620.469811166 1197.22245528 -3500.89433659 -454.434305826 2003.0817036 709.318099879 1133.68291403 2821.5727705 -4072.91822688 -1004.56223593 2113.4974847 2048.66260314 2561.65759221 5515.80967544 -3391.60618747 -886.714762006 204.119085033 -2078.9466895 468.505164877 3733.32166343 -3388.84318031 -427.818086359 2404.95499852 -2876.47395648 -478.365363174 1998.12169303 -136.963686584 949.962591576 3229.51243266 -4255.36090333 -261.632105456 2187.18551409 -2688.69865075 478.309675592 3200.2969407 163.628186279 779.265018068 2938.58999802 -3358.18061611 513.268773905 3338.06777755 -3528.69808995 -1868.7375569 -1309.36684626 -2232.5818695 486.066742447 4375.6845023 -2404.85207684 553.942240436 3434.44138697 -1836.35995741 246.633194744 3325.5754165 -4973.78295632 -2514.40316724 -1988.61673138 -4420.07215253 -963.442984849 1954.81457574 -1650.96102026 -236.629189169 1542.84464694 -1126.31844228 481.509562918 2096.58042357 -2737.65820653 -1583.88965962 -1053.73065406 -1693.43929755 -424.332318539 42.98843072 -3482.51388369 -1451.81256376 -1222.65979279 -2584.41617763 -106.287905961 3981.46365337 -4148.91199032 -220.321205182 2501.98701537 -726.109822789 55.7330273656 1106.25972339 960.711665429 1576.65281821 4190.23986027 -3874.46179272 -478.549170203 2065.57463863 -2843.35454473 -385.136856665 3439.41372705 -2351.81880247 408.237762552 3460.47638433 -1852.05999842 444.669612814 3523.40197034 -3474.27889521 -563.417861487 1782.27594987 -1310.58791916 -270.042098643 1623.79953489 -2380.09188062 481.569950471 3745.70006999 -725.521545685 157.062891321 1478.58358985 -2433.4858816 -364.000332663 593.246575871 -3397.93670886 -1902.01991301 -1332.91291265 -2029.23282812 901.236989384 4219.21976881 -1806.12198168 503.059769441 4271.0106485 1027.13410622 1345.99829173 2873.12100002 -4195.55881323 -381.327807545 2471.88738393 -2089.60608005 689.506867421 4568.84574654 -4573.13177371 -832.474348144 1979.75028285 -3025.79787742 -938.595719081 -111.654451466 -4005.82141163 -826.561535774 2061.40774083 -2661.35490928 259.568294233 3697.02042711 -4464.91936764 -538.911964842 1852.08120259 -2180.58387468 695.219538042 4224.67476508 -4056.31220064 -653.823928179 2287.33541531 -2354.80522095 506.486035765 4453.00626129 -2980.43835481 -1061.52814944 -686.23458875 -968.566138759 234.626215673 2370.54399844 -4434.26936498 -565.626615084 2283.28477971 -3381.32763852 -364.669507165 2587.32479271 -2513.82319251 319.886491756 4001.16051087 -3658.96278699 80.6237045935 3692.31040841 -4314.47206646 -187.065092033 3470.53986577 -4231.66224419 -1493.53016057 -711.872793822 -1796.91956065 434.306638584 3001.4381017 -3048.03489469 -1131.06682892 -939.848519945 -2068.57516385 192.379956701 2669.07085602 280.125206524 1035.06865186 3144.87626099 -3972.78731959 -496.09317479 2080.97095693 -4217.53165977 -757.272191628 1666.73607358 -1871.09415108 692.833587425 3825.70806038 -3194.21363817 -112.647361903 2417.77396774 -1409.17794849 -281.035997806 881.143494761 -3142.45265689 -1107.57886554 -924.065282063 -3329.58317755 -320.858942919 2667.05814532 -1541.80457467 219.717231812 1593.4010673 -3926.45724653 -426.949086933 2590.07099776 -4239.79502147 -1599.39777427 -978.687126208 -4261.61010257 -1194.85633577 2191.04110671 -3041.23310902 -220.252550155 3633.15944091 437.726306795 1117.01866877 3281.26336822 1971.59415554 2490.57721239 5108.48272427 977.307981474 1776.66828809 4836.06274849 -2154.54428321 555.855207755 4267.66978297 -3487.98306585 124.332073548 3221.93308762 -2625.79164311 326.763844258 4540.57332031 -2206.37831969 1194.85145399 4426.57132873 1188.80720391 1559.13471523 3182.26699433 -3762.1815666 257.21818385 3174.11433623 -1483.35862405 738.339837468 4311.91985868 -2397.60882667 -255.941862995 1806.06302124 -1442.15939022 457.755456909 2441.37261318 -4239.58747128 -873.976091289 2107.31043196 -2679.14271444 463.571213813 4206.83706441 -4466.71014914 -503.493728696 2511.07769756 -3575.89468613 -52.1265989412 4418.97088359 -3512.44709959 -106.489532847 3919.79183104 -3984.73769303 -427.102532489 2609.48445725 -3463.10725023 302.832339823 4250.55634856 -3846.73447423 -407.575182579 2734.21453626 -3637.77504454 -770.56838506 1169.62054796 -1927.75589926 420.610173107 2286.66700442 -2295.7175144 476.988059134 3980.17657098 -2506.34712219 72.1674504704 4403.41997991 -3681.4956537 -192.80033272 3808.88249269 -2528.52642215 568.586787155 4158.16406411 -4244.02871887 51.8765642762 3357.1422827 -2477.67118341 -208.822650762 1421.90147532 -4621.22575226 -13.7423200309 4088.44401898 -1582.95813598 -65.789979483 1940.63777181 -3521.60242255 172.223293674 3042.75980667 -4285.37075038 158.291265444 4321.53375623 -2799.24470836 448.265316998 3675.53006497 -2655.17411648 1262.9840017 4351.13756477 -968.060097792 481.678355582 1975.18728934 -1233.26447609 383.994238424 2073.85849859 -3687.77785926 149.373347685 4793.38758362 -1774.24069239 -205.65442892 1656.46804797 -2095.50041672 544.635874239 4530.88527693 -2883.13901448 -1.69623489591 3630.41867349 -2032.82507572 -208.699277895 1374.51313192 -1946.48293913 -313.947529579 1072.937601 -4069.74436234 -358.831226339 3318.873359 -3747.37216756 -690.355783397 2194.69593083 -3451.90995651 238.819962997 4019.87948581 -1311.7615261 443.392256701 2422.49414696 -4918.8660612 -244.416495102 3491.30455024 -3890.62790094 27.6607821707 4244.70229513 -4379.77091367 -343.678022162 2614.87817757 -4144.97254157 -237.203656306 4337.75712953 -3441.65276668 419.596750918 4071.06682924 -3143.78445911 492.437783623 3746.61748833 -4110.31441066 -54.3675065156 4191.81661415 -4245.61544131 -41.5589353054 3536.42577371 -2722.45001083 1051.85991246 4446.92300673 -4356.71160818 -274.137064325 3611.13277034 -158.87648845 -15.3159504705 107.823320215 -3834.70528361 454.287413868 4787.88974657 -2592.10010103 1067.09007286 4419.56000374 -3599.8962285 -227.93952357 4349.01751306 -158.87648845 -15.3159504705 107.823320215 -4401.3059326 -91.1571291557 4210.51299849 -4336.0082145 85.3160175249 3974.13245458 -4388.89605531 -192.59084464 3102.71851702 -3939.89403583 -587.515153441 2757.71040397 -4209.14602626 -240.504606325 4297.74023422 -4460.10137062 -55.2419937838 2870.22248607 179.912420562 315.699587987 1025.77634448 -3109.45898339 150.470621196 3997.40324661 -3208.04948445 155.478433446 4087.67985464 -3339.03559292 575.672435061 3583.69361404 -4926.40446249 -277.377152634 2934.15936044 -647.498601692 -82.4837412964 529.677991848 -2353.72321886 -765.124968062 1559.94576139 -2235.54919646 1076.21495357 4733.25347854 -3702.69719955 -608.02113992 2712.55153576 -2969.80253969 -81.4932269008 3796.97950359 -3895.85972936 -572.771712254 3752.17103435 -1588.48500161 1526.52118622 5120.95064352 -4219.24234584 313.378350221 3196.45623658 -5138.8704314 -397.834256146 1994.49955217 -3656.26614471 -112.965854361 4784.76283486 -4734.99744154 -837.166849517 2765.33867465 -5059.73976137 -1217.13855331 2868.66308905 -4282.87622796 -520.954397713 3741.70915198 -4028.04410564 838.93792254 4141.41833982 -3113.08607428 96.6986366295 4647.5153096 -3921.14359048 1184.96017865 4115.27285485 -2908.56855171 300.785119651 4777.31066092 -3630.68630591 -75.7664516677 3378.13146702 -5396.18845067 -1304.36713794 2012.05297629 -3899.88898344 -734.442133027 4621.73599469 -3177.15795767 -33.1373025019 3755.97361691 -4831.19102184 -741.28412211 4558.88945716 -3630.68630591 -75.7664516677 3378.13146702 -4230.07674378 560.856416517 3175.90685901 -4038.97443174 -1330.03543754 3972.07807301 -4075.30792876 -620.983144477 2942.84479719 -3192.6253037 418.545868617 3990.8002159 -5130.74435069 -1926.93181312 3137.16259068 -5055.41601318 1069.43705339 3825.47325478 -4049.75468234 1043.51172872 4407.61068714 -4073.34543598 1576.96311231 4312.01772561 -3976.42381006 -690.079533759 3100.5625173 -2725.53208197 2040.29911023 5683.4039031 -3140.76360712 654.959117052 3885.36205193 -3368.82825441 157.330293084 3765.42598012 -4309.80283276 -1505.40953539 4139.01377981 -5813.50763219 -377.422367465 3584.31952117 -4940.90780475 -1834.57474424 3077.5465919 -3679.47929368 -29.4311585045 3581.375432 -3502.06901836 439.669124192 3632.87919912 -3928.1214368 -1280.80664939 4981.95537436 -3930.60901102 -53.7091544285 3751.57849626 -3199.92044736 2338.12439034 5309.49448511 -5331.60755299 -2423.68432076 3039.45896741 -4017.91916947 -106.928477431 3033.61093288 -3679.47929368 -29.4311585045 3581.375432 -3327.61593894 1621.70654849 4437.79814661 -5575.02445805 -2244.17117079 2877.42253332 -3561.82255206 121.712980192 3967.53248604 -3916.77436027 -113.312572427 3620.18317296 -3692.12894924 -12.7470241994 3649.63886857 -3930.60901102 -53.7091544285 3751.57849626 -4078.67635386 -22.0701552727 3987.38907735 -3561.82255206 121.712980192 3967.53248604 -3846.39588371 -5.73597197196 3827.27597714 -4076.70176917 -8.23351714843 4121.75618787 -4091.86674641 21.2228436809 4162.60955868 -4031.44138155 -253.677864053 4419.50476549 -4221.0517688 -68.2038465847 3993.70561352 -3260.88907667 -1013.15452634 251.140157191 -3282.75740714 397.276758537 3002.38759286</DataArray>
        <DataArray type="Float64" Name="PrincipalStrain" NumberOfComponents="3" format="ascii">-2.89731622396e-09 -2.65009929409e-10 3.38290305276e-08 -3.45946227971e-08 -4.04784991174e-10 2.22629302684e-09 -4.56979906614e-08 -3.64838366066e-10 3.76333922187e-08 -3.85040489988e-08 -4.47303085962e-10 4.65146295908e-08 -3.01454553732e-09 4.74404310645e-10 2.56929548918e-08 -3.66540996378e-08 -1.69238219436e-09 4.87654167738e-08 -4.59236713974e-08 -1.9525372558e-09 3.93073408652e-08 -3.58902793414e-08 -9.4819557049e-10 2.59779723162e-09 -3.43057473719e-08 4.8007904776e-10 7.10785021459e-09 -4.25141222197e-08 4.88389712664e-09 5.09779775822e-08 -3.31575208577e-08 -1.44709772772e-12 7.99266164399e-09 -2.56964713435e-08 7.28687459897e-11 3.87020631054e-09 -4.20694306889e-09 5.75585457267e-11 2.50799084206e-08 -2.4129206784e-08 -1.31944518181e-09 2.58510664214e-09 -5.48356920585e-09 5.58329703101e-10 2.92059566901e-08 -2.84491210587e-08 -6.67434097848e-10 3.54201563255e-09 -3.03417719042e-08 -5.39296039245e-10 5.23170676109e-09 -2.96291409558e-09 -4.15969157857e-10 2.959336777e-08 -3.98813482503e-09 1.54404428028e-09 2.8195163261e-08 -4.22662169023e-08 3.48581314008e-09 4.83009428429e-08 -2.79234180207e-09 1.63371871938e-09 3.19010335508e-08 -3.45803586332e-08 -1.67790568577e-09 4.33183659454e-09 -4.45572218049e-08 -1.64610371978e-09 5.13319530218e-08 -4.83620558035e-08 -1.52646126362e-09 5.00841392388e-09 -5.3155767902e-08 8.97482886563e-10 4.7381937347e-08 -5.45409784549e-08 -1.48473467987e-09 4.08001034388e-08 -4.72799310618e-08 8.68101701096e-10 5.30627503386e-08 -5.37640390214e-08 1.97488104122e-09 4.83813974146e-08 -4.93825189798e-08 1.80941693093e-09 5.27372505957e-08 -5.04751915294e-08 -7.41134595429e-10 5.64270521049e-08 -8.67573350483e-09 -3.28415432681e-09 1.17841565497e-08 -5.61016099315e-08 -6.84181650067e-10 5.10484996848e-08 -2.60012277408e-09 4.06047690872e-09 7.84504710875e-09 -5.59190656816e-08 -2.03541552699e-09 4.82898598561e-08 -4.23421860656e-08 -2.03352739962e-09 5.87017854121e-08 -2.76929440295e-08 -1.64425170914e-09 5.07648075163e-08 -5.3185226631e-08 4.14140469915e-09 4.33854691901e-08 -3.10712979173e-09 3.29036345553e-09 3.47249049195e-08 -8.51822410906e-09 -4.49394851168e-10 4.58184067565e-08 -3.37084437766e-08 8.91491451889e-10 3.532409295e-09 -5.71347555126e-08 5.19075919917e-09 4.39435157388e-08 -1.01740385528e-08 -5.00946253501e-10 3.51826799077e-08 -4.05016428601e-08 -7.15003247718e-09 5.16036947115e-08 -9.55792342501e-09 5.7810842178e-10 3.2552431661e-08 -9.78626420078e-10 1.21662186617e-09 3.46161728852e-08 -3.85819727122e-08 2.2951488934e-09 5.47475111788e-08 -4.15027787699e-08 4.89364053132e-10 3.62018709302e-08 -4.55060962315e-09 3.73254053674e-09 3.47529448133e-08 -5.44984937206e-08 2.14822187828e-09 3.95372105839e-08 -2.5080198144e-08 -1.99817124806e-10 8.35295227311e-09 -5.10114365132e-08 2.40912738247e-09 3.19466267122e-08 -4.9568606949e-08 -6.36314490927e-11 3.9871003704e-08 -5.96573256849e-09 9.30195661501e-10 2.8358405829e-08 -5.50699850188e-08 -5.20920016598e-09 4.54592702942e-08 -4.68221971439e-09 3.65394885795e-09 5.16589202104e-08 -3.98353435548e-08 8.69142109084e-10 1.85951921235e-08 -4.17436842249e-08 -3.47591591262e-10 5.27056765102e-08 -4.97748031745e-08 -1.65814539777e-09 4.43744172315e-08 -4.1655010693e-08 -2.68574605173e-09 3.75571686116e-08 -1.73850774232e-08 2.77474596919e-10 3.73201595145e-08 -6.0412836574e-08 4.48525639143e-09 4.42785427091e-08 -4.74035079455e-08 4.06037735759e-09 4.82926704156e-08 -1.18966039818e-08 -1.89250546526e-09 3.31965254589e-08 -5.64197697693e-08 6.49128281839e-09 5.23942666277e-08 -3.21908346126e-08 -5.21647595046e-09 3.87329809746e-09 -4.61388405366e-08 -1.96080059239e-09 6.12454880052e-08 -4.50170895633e-08 3.06331809247e-09 4.98714292237e-08 -3.63502817598e-08 -2.50164303732e-09 4.75311680663e-08 -4.52859623342e-08 -5.32104076156e-09 3.22298882109e-09 -5.89685453725e-08 -2.79832139767e-09 4.4623363962e-08 -2.553532072e-08 -2.55242846466e-09 2.63640213722e-08 -2.37468179778e-08 2.38038710661e-09 2.86252885922e-08 -2.43296514053e-08 -5.58091251804e-09 3.03417132234e-09 -1.97379516401e-08 8.85036768878e-10 8.47899894434e-09 -3.35021522091e-08 -5.03255760209e-10 3.2204767681e-09 -4.68371112731e-08 -6.56752685855e-09 5.98584359806e-08 -6.04176466673e-08 3.42195359129e-09 4.76594621753e-08 -1.34338456002e-08 -7.28899285201e-10 1.63421595253e-08 -9.61695172646e-09 3.92092006252e-10 4.28628814398e-08 -5.43821179156e-08 8.01462200316e-10 4.21434740938e-08 -4.6995470073e-08 -7.04943264202e-09 5.50995143433e-08 -4.39054130817e-08 9.45506099932e-10 5.05443837038e-08 -3.80310184171e-08 -7.09162234525e-10 4.93202385753e-08 -4.79992040215e-08 -6.97712223587e-10 3.7419812211e-08 -2.14589393754e-08 -4.55006979205e-09 2.62248567529e-08 -4.56034110845e-08 8.98593670766e-10 5.39407081129e-08 -1.52026936254e-08 -8.60696524094e-10 2.06140148269e-08 -3.1278246932e-08 2.35089323818e-09 1.79061555019e-08 -3.03432107646e-08 -6.03456283192e-09 3.21342592384e-09 -4.45671231948e-08 3.05301133971e-09 5.69702315054e-08 -4.04792888382e-08 -2.95508538257e-09 5.82741164021e-08 -2.98252101623e-09 2.19902199819e-09 2.70147660079e-08 -6.02840835769e-08 1.69717026557e-09 4.80619171271e-08 -4.5838898303e-08 -6.7831290659e-10 6.23609438791e-08 -6.14664319265e-08 -6.80748761086e-10 4.50179014926e-08 -3.38840353282e-08 3.29997448025e-11 1.34707953435e-08 -5.47034409143e-08 -3.04046793169e-09 4.38890328131e-08 -4.81041440711e-08 -6.39142013936e-10 5.52194551453e-08 -6.07358767371e-08 3.06174355843e-09 4.19153825292e-08 -4.57069020703e-08 1.02490338655e-09 5.83785508259e-08 -5.68295705848e-08 -1.53913615725e-09 4.62547031745e-08 -4.80331613758e-08 -1.53717845423e-09 6.25937752106e-08 -3.07013691669e-08 4.80921670343e-10 6.57944203156e-09 -2.18764650374e-08 -2.32458927789e-09 3.23840746921e-08 -6.18695851795e-08 9.95859506197e-10 4.72906696716e-08 -5.06015528023e-08 -1.58085816777e-09 4.63890492051e-08 -4.76267161662e-08 -1.57893379692e-09 5.82417690137e-08 -5.98855377611e-08 8.82742727105e-10 5.95726516641e-08 -6.62439312323e-08 8.26432102192e-10 6.02625126665e-08 -4.46255169735e-08 -1.30870614554e-10 1.25710615951e-08 -3.53455372842e-08 9.11888453354e-10 4.2627774729e-08 -3.03345036254e-08 8.1622744343e-10 3.92352496423e-09 -3.65876300958e-08 1.52890613149e-10 4.0399117727e-08 -1.21732283416e-08 9.46026450358e-11 3.43789762935e-08 -5.5603133178e-08 8.93146675099e-10 4.27704388156e-08 -5.61296353045e-08 9.95810528677e-11 3.94897153625e-08 -4.03332080678e-08 1.33061768292e-09 5.22398278685e-08 -4.8571895249e-08 1.5035567403e-09 4.2622903347e-08 -1.98651274697e-08 -1.53282077111e-09 1.73525959831e-08 -3.16619926576e-08 1.4047064518e-09 4.38680218331e-09 -5.04180367284e-08 -1.52626791562e-09 4.70273847683e-08 -2.60717508051e-08 2.55297855031e-09 2.48753408769e-08 -5.71924227472e-08 -3.25415153753e-10 4.87011612224e-08 -4.33296193916e-08 -4.2316412454e-10 9.66338390643e-09 -5.70058191732e-08 -7.17107046263e-09 4.78497629777e-08 -5.08138147031e-08 -4.97288062155e-09 5.76450642333e-08 -1.10219788038e-08 1.65220783531e-11 3.51854984443e-08 -3.85154781821e-09 4.58192685562e-09 4.71228914236e-08 -1.25813916188e-08 4.08213363827e-10 5.01233733452e-08 -4.50200222554e-08 -9.76030527154e-10 5.93409563201e-08 -5.61482826776e-08 2.55183833772e-09 5.28878548164e-08 -5.1074909906e-08 -3.09588323629e-09 6.53785207496e-08 -4.86600644313e-08 6.60991939095e-09 5.91253673555e-08 -2.92016636202e-09 3.09765569699e-09 2.94735552324e-08 -5.98947665328e-08 5.420479412e-09 5.28200418882e-08 -3.74804566612e-08 -1.3778566615e-09 5.66928186832e-08 -3.57830646768e-08 -9.80976517099e-10 3.25266028518e-08 -2.88987226406e-08 1.97489362526e-09 3.42086724147e-08 -5.76198471686e-08 -2.92866224368e-09 4.55172437592e-08 -5.10033149738e-08 6.57863602777e-11 6.08938564324e-08 -6.33623167475e-08 1.03995008473e-09 5.00267357614e-08 -6.1074349644e-08 -3.81311822723e-09 6.88422158638e-08 -5.82054723631e-08 -2.85866190352e-09 6.25684102596e-08 -5.79931533808e-08 -1.81582021901e-10 4.91629565613e-08 -6.03640482093e-08 8.32470129058e-10 6.4982985271e-08 -5.68090785042e-08 -9.22740014831e-10 5.01313429163e-08 -4.69686336676e-08 -3.765254511e-10 3.11515447106e-08 -3.42492381564e-08 3.91171051949e-09 3.42351340283e-08 -4.5410836293e-08 -3.54370722976e-10 5.65724425945e-08 -4.81127918913e-08 -6.21193008556e-09 6.41709235178e-08 -5.95790037711e-08 -2.88770480524e-09 6.21396411077e-08 -4.93318959691e-08 9.96193682073e-10 5.93268244326e-08 -6.58341796621e-08 3.97428118908e-09 5.76848491135e-08 -3.55199353847e-08 1.3488532708e-09 2.78481203196e-08 -7.30454532743e-08 1.8261524994e-09 6.84866805084e-08 -2.6817655921e-08 -2.16367337788e-09 3.04407775806e-08 -5.60762169082e-08 3.9484509805e-09 5.05946693166e-08 -7.03664782111e-08 1.84302954613e-09 6.94957200214e-08 -5.04547915368e-08 2.31724637519e-09 5.47602985297e-08 -5.42426323302e-08 9.42743709015e-09 5.960993249e-08 -2.13139973909e-08 2.24425247648e-09 2.651377265e-08 -2.4632753715e-08 1.64770039594e-09 2.91079946236e-08 -6.46325767332e-08 -2.27886962027e-09 7.31863617136e-08 -2.76185597263e-08 -2.12903294491e-09 2.81304573045e-08 -4.52269595259e-08 -2.32474479779e-09 6.24518079959e-08 -4.96469468258e-08 -2.8235016575e-09 5.61983656038e-08 -2.9782115399e-08 -1.4007118445e-10 2.5587130475e-08 -2.7177249507e-08 -6.48549101723e-10 2.18883342701e-08 -6.19719625268e-08 -1.66962406668e-09 5.8093075445e-08 -5.24834276474e-08 -2.8069114047e-09 4.40751789514e-08 -5.91189973894e-08 8.55363802602e-10 6.22975810483e-08 -2.714409309e-08 1.37715588054e-09 3.35375615973e-08 -7.36616559717e-08 2.29814947732e-09 6.30036164641e-08 -6.46542103016e-08 -9.82019201091e-10 6.75449053846e-08 -6.32641370036e-08 2.32237248334e-09 5.0398910729e-08 -6.71892322942e-08 -3.68798790866e-09 7.06551248611e-08 -5.98606480091e-08 2.88465665186e-09 6.22210454246e-08 -5.51937630087e-08 3.89484843569e-09 5.67752686372e-08 -6.68943642868e-08 -9.85227094549e-10 6.80152648663e-08 -6.61759436604e-08 2.13997456217e-09 6.02822260837e-08 -5.46510610823e-08 6.68147517107e-09 6.1851250453e-08 -6.69726289998e-08 -6.30792662183e-10 6.25048421511e-08 -2.33285874216e-09 0 2.00101314863e-09 -6.75919803967e-08 2.10415093721e-09 7.25251888437e-08 -5.29761890502e-08 6.48565127563e-09 6.09632876524e-08 -6.04527453168e-08 -5.65844886173e-09 6.87171029835e-08 -2.33285874216e-09 0 2.00101314863e-09 -7.04639086675e-08 -4.23990611551e-10 6.94781489627e-08 -6.94230344516e-08 2.42348431874e-09 6.56167514209e-08 -6.57741794628e-08 2.4157802106e-09 5.59645573375e-08 -5.73869076374e-08 -2.91075079852e-09 5.14491645093e-08 -6.78289589329e-08 -3.33853585889e-09 7.04079427999e-08 -6.63074439788e-08 5.27152089475e-09 5.28103186924e-08 -2.78162948974e-09 -5.75088019086e-10 1.0963659274e-08 -5.44227642966e-08 -1.44890822211e-09 6.10637469408e-08 -5.60124621359e-08 -1.35513347012e-09 6.25431396242e-08 -5.73355675956e-08 6.27843785906e-09 5.51587820174e-08 -7.15429890604e-08 4.00370472477e-09 5.61911730622e-08 -9.77071096072e-09 -5.8921947929e-10 9.35840868431e-09 -3.24021182107e-08 -6.58739663529e-09 3.11950027184e-08 -4.97298715762e-08 4.08629586182e-09 6.35131718926e-08 -5.41757039788e-08 -3.88721800977e-09 5.007208797e-08 -5.10556052838e-08 -4.12057895088e-09 5.89046029196e-08 -6.06209940749e-08 -6.62081379685e-09 6.36595058354e-08 -4.47840818817e-08 5.83476867055e-09 6.42442473518e-08 -6.59024090235e-08 7.75267728747e-09 5.46026929408e-08 -7.02233752526e-08 6.81846259529e-09 4.56938869804e-08 -6.32225654858e-08 -5.64393576757e-09 7.39441554323e-08 -6.64181123635e-08 -3.0783652431e-09 5.54623495245e-08 -6.94399640262e-08 -6.99769439517e-09 5.93965822932e-08 -6.56137831779e-08 -4.48255343649e-09 6.4785729246e-08 -6.90268873044e-08 1.00615706536e-08 6.37268774344e-08 -5.67043782268e-08 -4.5453766746e-09 6.94053942612e-08 -6.88901687567e-08 1.40840174918e-08 6.170159848e-08 -5.53999660735e-08 -3.2479689139e-09 6.94955711317e-08 -5.77674476315e-08 0 5.61258411787e-08 -7.01061775271e-08 -3.61408119538e-09 5.02777456609e-08 -6.33259642742e-08 -1.18874529551e-08 7.51504416204e-08 -5.36751106499e-08 -2.58477500345e-09 5.89882774371e-08 -7.47059077795e-08 -8.24492065884e-09 7.78829000043e-08 -5.77674476315e-08 0 5.61258411787e-08 -6.68888215805e-08 1.09638422744e-08 5.34584119649e-08 -6.03948402798e-08 -1.6374581624e-08 6.97847629224e-08 -5.96483303072e-08 -3.51555256255e-09 5.43966514895e-08 -5.64428641131e-08 2.23866743694e-09 6.02878005803e-08 -6.86726697994e-08 -1.66107160639e-08 6.56808179977e-08 -8.15486138205e-08 1.79802485114e-08 6.2765836784e-08 -7.10636425888e-08 1.1701936591e-08 6.63685446654e-08 -7.30004960919e-08 1.88170178178e-08 6.32616552838e-08 -5.8744608814e-08 -5.34151432415e-09 5.62564190056e-08 -6.30330373247e-08 1.44117195487e-08 7.36121724328e-08 -5.62857494727e-08 5.39474479511e-09 5.78887924869e-08 -5.68206892046e-08 4.79387192139e-10 5.91109421064e-08 -6.3748551326e-08 -1.81771602438e-08 7.35447186282e-08 -8.46947097288e-08 3.64167582302e-09 6.80199815134e-08 -6.64224919881e-08 -1.59445797548e-08 6.38773919574e-08 -5.93132821966e-08 0 5.86756070957e-08 -5.90479189419e-08 5.00532587455e-09 5.68949895921e-08 -6.29808256786e-08 -1.99619603832e-08 8.18079225027e-08 -6.29996226696e-08 0 6.18359243237e-08 -6.8677576375e-08 2.13156522377e-08 6.96004162777e-08 -6.89542493373e-08 -2.17004968136e-08 6.70755816192e-08 -6.11990488263e-08 2.35454991932e-09 5.33883153369e-08 -5.93132821966e-08 0 5.86756070957e-08 -6.43183418434e-08 1.61081485774e-08 6.18696370468e-08 -7.20624983352e-08 -1.79361324171e-08 6.52897652747e-08 -5.98574523991e-08 0 6.249456697e-08 -6.21104442553e-08 -3.04190202957e-10 6.03651156596e-08 -5.97899562819e-08 0 5.95137707576e-08 -6.29996226696e-08 0 6.18359243237e-08 -6.58534003811e-08 6.64503460109e-11 6.52201628762e-08 -5.98574523991e-08 0 6.249456697e-08 -6.24107235658e-08 0 6.2286444173e-08 -6.63844821298e-08 -2.7187303448e-10 6.6840459672e-08 -6.6837705839e-08 0 6.72975341188e-08 -6.60148681497e-08 -4.62621099046e-09 7.13130067396e-08 -6.7483778736e-08 0 6.60060287267e-08 -3.79035595741e-08 -1.37787313121e-09 1.91669154762e-08 -5.3783208907e-08 6.01734628526e-09 4.83503973431e-08</DataArray>
        <DataArray type="Float64" Name="ShellTopVonMises" format="ascii">0 0 0 0 0 0 0 0 0 0 0 0 0 0 0 0 0 0 0 0 0 0 0 0 0 0 0 0 0 0 0 0 0 0 0 0 0 0 0 0 0 0 0 0 0 0 0 0 0 0 0 0 0 0 0 0 0 0 0 0 0 0 0 0 0 0 0 0 0 0 0 0 0 0 0 0 0 0 0 0 0 0 0 0 0 0 0 0 0 0 0 0 0 0 0 0 0 0 0 0 0 0 0 0 0 0 0 0 0 0 0 0 0 0 0 0 0 0 0 0 0 0 0 0 0 0 0 0 0 0 0 0 0 0 0 0 0 0 0 0 0 0 0 0 0 0 0 0 0 0 0 0 0 0 0 0 0 0 0 0 0 0 0 0 0 0 0 0 0 0 0 0 0 0 0 0 0 0 0 0 0 0 0 0 0 0 0 0 0 0 0 0 0 0 0 0 0 0 0 0 0 0 0 0 0 0 0 0 0 0 0 0 0 0 0 0 0 0 0 0 0 0 0 0 0 0 0 0 0 0 0 0 0 0 0 0 0 0 0 0 0 0 0 0 0 0 0 0 0 0 0 0 0 0 0 0 0 0 0</DataArray>
        <DataArray type="Float64" Name="ShellBottomVonMises" format="ascii">0 0 0 0 0 0 0 0 0 0 0 0 0 0 0 0 0 0 0 0 0 0 0 0 0 0 0 0 0 0 0 0 0 0 0 0 0 0 0 0 0 0 0 0 0 0 0 0 0 0 0 0 0 0 0 0 0 0 0 0 0 0 0 0 0 0 0 0 0 0 0 0 0 0 0 0 0 0 0 0 0 0 0 0 0 0 0 0 0 0 0 0 0 0 0 0 0 0 0 0 0 0 0 0 0 0 0 0 0 0 0 0 0 0 0 0 0 0 0 0 0 0 0 0 0 0 0 0 0 0 0 0 0 0 0 0 0 0 0 0 0 0 0 0 0 0 0 0 0 0 0 0 0 0 0 0 0 0 0 0 0 0 0 0 0 0 0 0 0 0 0 0 0 0 0 0 0 0 0 0 0 0 0 0 0 0 0 0 0 0 0 0 0 0 0 0 0 0 0 0 0 0 0 0 0 0 0 0 0 0 0 0 0 0 0 0 0 0 0 0 0 0 0 0 0 0 0 0 0 0 0 0 0 0 0 0 0 0 0 0 0 0 0 0 0 0 0 0 0 0 0 0 0 0 0 0 0 0 0</DataArray>
      </CellData>
    </Piece>
  </UnstructuredGrid>
</VTKFile>
