$MeshFormat
4.1 0 8
$EndMeshFormat
$PhysicalNames
3
2 2 "x_min"
2 3 "x_max"
3 1 "domain"
$EndPhysicalNames
$Entities
2 3 3 1
1 3 1.224606353822377e-16 0.5 0 
2 0 1.224606353822377e-16 0.5 0 
1 2.9999999 -0.5000000999999999 -0.5000000999999999 3.0000001 0.5000000999999999 0.5000000999999999 0 2 1 -1 
2 -1.000000000583867e-07 -9.999999987753936e-08 0.4999999 3.0000001 1.000000001224606e-07 0.5000000999999999 0 2 2 -1 
3 -1e-07 -0.5000000999999999 -0.5000000999999999 1e-07 0.5000000999999999 0.5000000999999999 0 2 2 -2 
1 -1.000000000583867e-07 -0.5000000999999999 -0.5000000999999999 3.0000001 0.5000000999999999 0.5000000999999999 0 4 -1 -2 3 2 
2 2.9999999 -0.5000000999999999 -0.5000000999999999 3.0000001 0.5000000999999999 0.5000000999999999 1 3 1 1 
3 -1e-07 -0.5000000999999999 -0.5000000999999999 1e-07 0.5000000999999999 0.5000000999999999 1 2 1 3 
1 -1.000000000583867e-07 -0.5000000999999999 -0.5000000999999999 3.0000001 0.5000000999999999 0.5000000999999999 1 1 3 1 2 -3 
$EndEntities
$Nodes
9 140 1 140
0 1 0 1
1
3 1.224606353822377e-16 0.5
0 2 0 1
2
0 1.224606353822377e-16 0.5
1 1 0 9
3
4
5
6
7
8
9
10
11
3 -0.2938926261462363 0.4045084971874739
3 -0.4755282581475766 0.1545084971874743
3 -0.4755282581475769 -0.1545084971874733
3 -0.293892626146237 -0.4045084971874734
3 -2.832749226161502e-16 -0.5
3 0.2938926261462365 -0.4045084971874738
3 0.4755282581475768 -0.1545084971874738
3 0.4755282581475768 0.1545084971874736
3 0.293892626146237 0.4045084971874734
1 2 0 8
12
13
14
15
16
17
18
19
0.3333333333333337 1.224606353822377e-16 0.5
0.6666666666666679 1.224606353822377e-16 0.5
1.000000000000002 1.224606353822377e-16 0.5
1.333333333333336 1.224606353822377e-16 0.5
1.666666666666669 1.224606353822377e-16 0.5
2 1.224606353822377e-16 0.5
2.333333333333333 1.224606353822377e-16 0.5
2.666666666666664 1.224606353822377e-16 0.5
1 3 0 9
20
21
22
23
24
25
26
27
28
0 -0.2938926261462363 0.4045084971874739
0 -0.4755282581475766 0.1545084971874743
0 -0.4755282581475769 -0.1545084971874733
0 -0.293892626146237 -0.4045084971874734
0 -2.832749226161502e-16 -0.5
0 0.2938926261462365 -0.4045084971874738
0 0.4755282581475768 -0.1545084971874738
0 0.4755282581475768 0.1545084971874736
0 0.293892626146237 0.4045084971874734
2 1 0 95
29
30
31
32
33
34
35
36
37
38
39
40
41
42
43
44
45
46
47
48
49
50
51
52
53
54
55
56
57
58
59
60
61
62
63
64
65
66
67
68
69
70
71
72
73
74
75
76
77
78
79
80
81
82
83
84
85
86
87
88
89
90
91
92
93
94
95
96
97
98
99
100
101
102
103
104
105
106
107
108
109
110
111
112
113
114
115
116
117
118
119
120
121
122
123
1.502092049788647 0.2759910012534157 0.4169280120442102
1.163423446640276 -0.2765616896136197 0.4165496751145773
2.758740916332122 -0.1725593369600068 -0.4692795278167617
0.2983217923915492 0.1407831117781232 -0.4797708989070392
1.833333333333334 -0.2763853991965673 0.4166666666664783
2.161743076074449 0.2753071825395529 0.4173798692344101
2.757826520487645 -0.4999896571806325 0.003216008767645612
0.2414054864516652 -0.4999911310119627 -0.002978071419289505
0.8333333333333349 0.2763853992048015 0.4166666666610164
2.733504669909324 0.4045084971874737 -0.2938926261462366
0.252379643963456 0.4999897841002329 0.003196215794114241
2.748333766011001 0.4048544875724271 0.2934158207944272
2.499999999999998 -0.27638539919628 0.4166666666666689
0.4941983881494202 -0.2869469691067495 0.4094648176833391
1.831000314742914 0.2742375471035657 0.4180834459275081
1.661235689788737 0.4577765041656884 0.2010986629339974
1.339094985934515 0.4592710359842977 0.197661618696979
1.16915383094687 0.2772483096120922 0.4160929881856187
1.004320790368328 0.4592863561806918 0.1976260180903889
1.171942305197118 0.493473212630259 -0.08052445849784529
0.8529470857504058 0.4921754437797481 -0.08810977550878236
1.015581072314685 0.3712666621998062 -0.3349045618366746
1.336170968538847 0.3746910344033884 -0.331068918410833
1.17996218549757 0.1373514355087522 -0.4807645818523709
1.500713572832738 0.1414399988120461 -0.4795776545420443
1.343474912154943 -0.1367691362025013 -0.480930559834184
1.665189037175398 -0.1337071105842355 -0.4817908348850308
1.821062643687153 0.1453573316533173 -0.4784048976908865
1.021836037821025 -0.1404990627162567 -0.4798541584438478
1.985082347482936 -0.1286375258283465 -0.4831691080240555
1.508495183996893 -0.3729397160198552 -0.3330404903536952
2.158770048196385 0.153798223017786 -0.4757584540463484
1.980235035196902 0.3783159602136147 -0.3269205320068636
0.7308335454030834 0.3559375950023267 -0.3511529986543753
2.290138505595531 0.3754690018857431 -0.330186354386313
2.135113003104272 0.4941656420461924 -0.07615982025369039
2.289578390758385 -0.1050966677519693 -0.4888299197342897
2.146486824998432 -0.3618710953504666 -0.3450352305922592
2.460184334801077 0.4894603864096178 -0.1021201749692372
2.538136539494952 0.1723702796221282 -0.4693490030915048
2.473589071589269 -0.336341073466099 -0.3699657853094962
2.288205553213969 -0.4858829285699629 -0.117973639955188
1.993871086696693 -0.4904198590403863 -0.09740822274740292
2.158351764553453 -0.467783535033613 0.1765745291695734
0.8312078001605169 -0.2777209263427169 0.4157776894824243
0.9965850504569265 -0.4588809804596622 0.1985654697382681
1.319858534523805 -0.457006778595643 0.2028418209286068
1.116414001658663 -0.493488167040922 -0.08043276067990598
0.8322385371825146 -0.4934155746071401 -0.08087688628468405
1.495662938204935 -0.2812234622225586 0.4134166957145746
1.621611560346693 -0.4556432784437094 0.2058863832531631
0.6968653024900144 -0.4655266174944553 0.1824416849411643
0.5015576422349708 0.2885842252412607 0.4083125579037477
0.7047412222029379 0.4641987706713866 0.1857942445480307
1.65644446984279 0.3773065070368402 -0.3280850495643757
1.496862277350107 0.4938207662872841 -0.07836485681375033
1.831631089874673 -0.3673392348657341 -0.3392077335914631
0.86027200557407 0.1337508158100822 -0.4817787036286862
0.7076378519310945 -0.1391508521864015 -0.480246853540758
1.817484816566551 0.4938239350164942 -0.07834488627105984
2.468421492775482 -0.4723580387217005 0.1639447567169763
2.499099640089087 0.2882646668512375 0.4085382256841397
2.742446538198596 0.4999825115184151 0.004181886624228764
2.739069821671633 -0.4106385285334154 0.2852647873185743
0.2348765023902394 0.4072549492743696 0.2900748287796283
1.980419445999983 0.4591111895046337 0.198032612646605
0.2273908462343318 -0.407135914750706 0.290241876579011
0.2604345922017636 -0.1733858110776163 -0.4689747973153324
0.2536493224497867 0.4107951131394908 -0.2850392517193254
0.2627527265777361 -0.4083770041663284 -0.2884930197910074
0.5488868520633219 -0.481179948641122 -0.1358891350540108
0.5327050131870785 0.4858679849667881 -0.1180351692687943
2.289164090651844 0.4638204266791765 0.1867367446303664
2.752712357573996 -0.404508497187474 -0.2938926261462362
0.5902456826650148 0.1316923908507661 -0.4823454303629392
2.168956201534436 -0.2883226056309579 0.4084973379132049
1.691958643434529 -0.4913857603594157 -0.09241230716738355
0.8555199843795585 -0.3700221573637051 -0.3362790553393259
1.191742977372375 -0.3638402458602495 -0.3429581249837262
0.5222779248336111 -0.3149732278221846 -0.3883192832647823
2.782995593940305 0.1462394414393722 -0.4781359908723672
1.410044345496181 -0.4948582924360725 -0.07152111861020197
2.535670154480772 0.473039246716095 0.1619687348418497
1.912668180889384 -0.4461085025070584 0.2258034631951199
2.777112112732263 -0.2189534926674597 0.4495101423201935
2.769393901695878 0.2162577074298412 0.4508132695220818
2.548637149427099 -0.4754334917570506 -0.1547998543788026
0.219092065126424 -0.2183492703180378 0.4498039530190686
0.2264815806660579 0.2211166386560501 0.4484500330130992
0.4769964736050583 0.3214014057649809 -0.3830158435003623
0.4375385181798677 0.4738522111461253 0.1595746909504383
0.4358519259017602 -0.473826701147417 0.1596504221095466
2.559783911008703 -0.06859400723903242 -0.4952725130379149
0.4802457084182596 -0.08648266766930622 -0.4924639562372056
2.515205020739285 0.3666215277492608 -0.3399833163418435
2 2 0 5
124
125
126
127
128
3 0.1730362218243562 0.1057580150868754
3 -0.1303758133036728 -0.1155439343252625
3 -0.05603402965826206 0.2353413461879651
3 0.1507367448527656 -0.2004811738275377
3 -0.2541850265292742 0.09131806592054992
2 3 0 5
129
130
131
132
133
0 0.1730362218243562 0.1057580150868754
0 -0.1303758133036728 -0.1155439343252625
0 -0.05603402965826206 0.2353413461879651
0 0.1507367448527656 -0.2004811738275377
0 -0.2541850265292742 0.09131806592054992
3 1 0 7
134
135
136
137
138
139
140
2.524381102025476 -0.0002769735930702177 0.0001017946169397654
0.5313081873777205 0.002312341149038638 -0.007053336599568805
1.582824089962001 -4.14639350627688e-05 -0.004299275144400816
1.031796434376008 2.937538340241908e-05 0.0004610631613076177
2.053661844453166 0.03345027475525408 -0.01297574169746885
1.306886995961438 0.186282053237514 -0.05368599567124843
1.308818634042773 -0.08963994452464491 0.1740146550093691
$EndNodes
$Elements
3 371 1 371
2 2 2 18
1 3 126 1 
2 1 126 11 
3 4 128 3 
4 3 128 126 
5 5 128 4 
6 6 125 5 
7 125 128 5 
8 7 125 6 
9 8 127 7 
10 7 127 125 
11 9 127 8 
12 10 124 9 
13 124 127 9 
14 11 124 10 
15 11 126 124 
16 124 126 125 
17 125 127 124 
18 126 128 125 
2 3 2 18
19 20 2 131 
20 2 28 131 
21 21 20 133 
22 20 131 133 
23 22 21 133 
24 23 22 130 
25 130 22 133 
26 24 23 130 
27 25 24 132 
28 24 130 132 
29 26 25 132 
30 27 26 129 
31 129 26 132 
32 28 27 129 
33 28 129 131 
34 129 130 131 
35 130 129 132 
36 131 130 133 
3 1 4 335
37 72 134 70 138 
38 58 55 85 138 
39 55 136 85 138 
40 66 70 134 138 
41 16 136 43 138 
42 86 135 87 137 
43 58 56 55 138 
44 33 136 16 138 
45 56 136 55 138 
46 34 134 18 138 
47 39 119 93 135 
48 97 39 132 135 
49 17 16 43 138 
50 66 134 65 138 
51 107 136 54 139 
52 88 136 83 138 
53 44 136 88 138 
54 61 88 83 138 
55 44 43 136 138 
56 17 33 16 138 
57 101 134 34 138 
58 49 135 62 137 
59 86 62 135 137 
60 120 36 95 135 
61 107 136 139 140 
62 13 135 37 137 
63 73 135 13 137 
64 83 136 56 138 
65 101 67 134 138 
66 61 83 56 138 
67 63 134 67 138 
68 44 88 94 138 
69 44 94 43 138 
70 49 82 135 137 
71 36 133 95 135 
72 86 103 87 135 
73 85 136 105 138 
74 66 70 69 134 
75 77 135 80 137 
76 104 134 72 138 
77 71 85 105 138 
78 107 59 54 136 
79 80 135 73 137 
80 37 135 82 137 
81 107 139 137 140 
82 59 136 107 140 
83 101 64 67 138 
84 107 54 137 139 
85 64 63 67 138 
86 66 69 65 134 
87 86 62 103 135 
88 31 127 109 134 
89 116 95 131 135 
90 110 136 59 140 
91 87 135 106 137 
92 40 111 91 134 
93 57 86 87 137 
94 60 134 63 138 
95 127 91 38 134 
96 116 42 95 135 
97 132 39 129 135 
98 18 34 90 134 
99 106 135 77 137 
100 34 101 90 134 
101 95 133 131 135 
102 18 134 104 138 
103 14 13 37 137 
104 14 73 13 137 
105 92 128 35 134 
106 105 136 112 138 
107 112 136 33 138 
108 109 121 31 134 
109 39 93 129 135 
110 110 59 107 140 
111 71 105 112 138 
112 81 117 93 135 
113 65 134 60 138 
114 122 32 96 135 
115 97 132 32 135 
116 93 117 129 135 
117 54 52 57 137 
118 54 52 137 139 
119 117 12 131 135 
120 115 35 102 134 
121 74 77 80 137 
122 38 109 127 134 
123 41 113 92 134 
124 50 49 62 137 
125 74 80 73 137 
126 120 95 42 135 
127 116 131 12 135 
128 86 50 62 137 
129 127 124 91 134 
130 89 70 72 134 
131 49 47 82 137 
132 97 32 118 135 
133 71 72 70 138 
134 119 81 93 135 
135 100 39 97 135 
136 47 37 82 137 
137 40 91 124 134 
138 49 100 62 135 
139 130 133 36 135 
140 130 98 96 135 
141 36 98 130 135 
142 96 108 122 135 
143 42 116 12 135 
144 108 96 98 135 
145 90 40 114 134 
146 40 124 114 134 
147 85 71 66 138 
148 106 57 87 137 
149 63 123 67 134 
150 67 123 38 134 
151 123 63 68 134 
152 58 85 66 138 
153 71 70 66 138 
154 125 102 35 134 
155 63 60 68 134 
156 31 125 127 134 
157 54 136 53 139 
158 81 12 117 135 
159 31 69 102 134 
160 39 100 119 135 
161 41 104 18 134 
162 117 131 129 135 
163 107 54 57 137 
164 49 82 100 135 
165 17 34 18 138 
166 114 126 19 134 
167 40 90 111 134 
168 103 32 122 135 
169 111 67 91 134 
170 91 67 38 134 
171 13 81 37 135 
172 55 59 85 136 
173 87 103 122 135 
174 13 73 42 135 
175 82 37 81 135 
176 41 19 113 134 
177 31 121 69 134 
178 108 106 87 135 
179 123 68 38 134 
180 55 53 54 136 
181 68 121 109 134 
182 80 42 73 135 
183 60 65 68 134 
184 88 84 83 136 
185 55 54 59 136 
186 31 102 125 134 
187 29 44 43 136 
188 88 44 84 136 
189 101 67 111 134 
190 126 113 19 134 
191 98 36 99 135 
192 89 72 104 134 
193 115 102 69 134 
194 128 125 35 134 
195 52 86 57 137 
196 52 50 86 137 
197 90 101 111 134 
198 29 43 16 136 
199 100 97 118 135 
200 68 109 38 134 
201 53 55 56 136 
202 53 56 83 136 
203 33 112 79 136 
204 115 69 70 134 
205 103 118 32 135 
206 36 120 99 135 
207 99 77 106 135 
208 48 49 50 137 
209 90 114 19 134 
210 29 44 136 139 
211 62 118 103 135 
212 33 78 16 136 
213 18 19 41 134 
214 72 71 112 138 
215 43 34 17 138 
216 48 47 49 137 
217 99 80 77 135 
218 29 45 44 139 
219 76 107 137 140 
220 114 124 126 134 
221 112 105 79 136 
222 73 30 74 137 
223 65 69 121 134 
224 14 37 46 137 
225 47 46 37 137 
226 41 89 104 134 
227 43 94 34 138 
228 58 66 65 138 
229 33 79 78 136 
230 73 14 30 137 
231 54 53 52 139 
232 68 65 121 134 
233 18 90 19 134 
234 133 130 131 135 
235 108 87 122 135 
236 17 18 104 138 
237 35 89 92 134 
238 83 53 136 139 
239 108 99 106 135 
240 46 137 47 139 
241 52 50 137 139 
242 13 12 81 135 
243 88 61 64 138 
244 59 105 85 136 
245 46 139 29 140 
246 13 42 12 135 
247 29 136 16 140 
248 46 45 29 139 
249 48 137 50 139 
250 29 139 136 140 
251 130 132 129 135 
252 84 136 44 139 
253 108 98 99 135 
254 94 88 64 138 
255 62 100 118 135 
256 82 81 119 135 
257 76 110 107 140 
258 80 120 42 135 
259 33 17 104 138 
260 94 101 34 138 
261 14 137 46 140 
262 82 119 100 135 
263 47 137 48 139 
264 83 136 84 139 
265 61 63 64 138 
266 137 139 46 140 
267 74 137 30 140 
268 89 41 92 134 
269 56 58 60 138 
270 94 64 101 138 
271 16 136 78 140 
272 35 115 89 134 
273 30 137 14 140 
274 77 74 76 137 
275 79 136 110 140 
276 56 60 61 138 
277 89 115 70 134 
278 83 51 53 139 
279 33 104 112 138 
280 129 131 130 135 
281 74 76 137 140 
282 80 99 120 135 
283 104 72 112 138 
284 58 65 60 138 
285 107 57 106 137 
286 84 44 45 139 
287 77 76 106 137 
288 15 29 16 140 
289 45 46 47 139 
290 78 136 79 140 
291 126 125 128 134 
292 61 60 63 138 
293 127 125 124 134 
294 59 110 105 136 
295 76 107 106 137 
296 52 53 51 139 
297 79 105 110 136 
298 75 79 110 140 
299 46 29 15 140 
300 74 75 76 140 
301 124 125 126 134 
302 83 84 51 139 
303 52 51 50 139 
304 15 14 46 140 
305 76 75 110 140 
306 15 16 78 140 
307 45 47 48 139 
308 32 24 96 132 
309 74 30 75 140 
310 132 97 26 39 
311 78 79 75 140 
312 7 127 109 31 
313 127 91 9 38 
314 24 130 96 132 
315 51 48 50 139 
316 15 30 14 140 
317 124 91 9 127 
318 129 132 26 39 
319 125 5 35 102 
320 3 128 92 113 
321 91 10 40 124 
322 130 98 23 96 
323 98 22 36 130 
324 7 127 31 125 
325 129 39 27 93 
326 35 128 5 125 
327 22 36 130 133 
328 125 31 6 102 
329 97 25 32 132 
330 12 2 117 131 
331 1 126 19 114 
332 95 20 116 131 
333 84 45 48 139 
334 128 3 126 113 
335 91 9 10 124 
336 26 129 39 27 
337 23 130 96 24 
338 84 48 51 139 
339 20 95 133 131 
340 8 127 38 109 
341 2 12 116 131 
342 1 126 113 19 
343 78 30 15 140 
344 78 75 30 140 
345 4 128 35 92 
346 128 4 3 92 
347 22 98 23 130 
348 11 114 40 124 
349 31 6 7 125 
350 21 95 36 133 
351 6 5 125 102 
352 126 1 11 114 
353 2 28 117 131 
354 129 93 28 117 
355 24 32 25 132 
356 114 11 126 124 
357 117 28 129 131 
358 128 5 4 35 
359 10 11 40 124 
360 36 22 21 133 
361 20 95 21 133 
362 127 9 8 38 
363 93 27 129 28 
364 25 97 26 132 
365 3 1 126 113 
366 127 8 7 109 
367 20 2 116 131 
368 96 132 135 32 
369 135 132 96 130 
370 128 113 134 92 
371 134 113 128 126 
$EndElements
