<?xml version="1.0"?>
<VTKFile type="UnstructuredGrid" version="0.1" byte_order="LittleEndian">
  <UnstructuredGrid>
    <Piece NumberOfPoints="140" NumberOfCells="335">
      <Points>
        <DataArray type="Float64" NumberOfComponents="3" format="ascii">3 1.22460635382e-16 0.5 0 1.22460635382e-16 0.5 3 -0.293892626146 0.404508497187 3 -0.475528258148 0.154508497187 3 -0.475528258148 -0.154508497187 3 -0.293892626146 -0.404508497187 3 -2.83274922616e-16 -0.5 3 0.293892626146 -0.404508497187 3 0.475528258148 -0.154508497187 3 0.475528258148 0.154508497187 3 0.293892626146 0.404508497187 0.333333333333 1.22460635382e-16 0.5 0.666666666667 1.22460635382e-16 0.5 1 1.22460635382e-16 0.5 1.33333333333 1.22460635382e-16 0.5 1.66666666667 1.22460635382e-16 0.5 2 1.22460635382e-16 0.5 2.33333333333 1.22460635382e-16 0.5 2.66666666667 1.22460635382e-16 0.5 0 -0.293892626146 0.404508497187 0 -0.475528258148 0.154508497187 0 -0.475528258148 -0.154508497187 0 -0.293892626146 -0.404508497187 0 -2.83274922616e-16 -0.5 0 0.293892626146 -0.404508497187 0 0.475528258148 -0.154508497187 0 0.475528258148 0.154508497187 0 0.293892626146 0.404508497187 1.50209204979 0.275991001253 0.416928012044 1.16342344664 -0.276561689614 0.416549675115 2.75874091633 -0.17255933696 -0.469279527817 0.298321792392 0.140783111778 -0.479770898907 1.83333333333 -0.276385399197 0.416666666666 2.16174307607 0.27530718254 0.417379869234 2.75782652049 -0.499989657181 0.00321600876765 0.241405486452 -0.499991131012 -0.00297807141929 0.833333333333 0.276385399205 0.416666666661 2.73350466991 0.404508497187 -0.293892626146 0.252379643963 0.4999897841 0.00319621579411 2.74833376601 0.404854487572 0.293415820794 2.5 -0.276385399196 0.416666666667 0.494198388149 -0.286946969107 0.409464817683 1.83100031474 0.274237547104 0.418083445928 1.66123568979 0.457776504166 0.201098662934 1.33909498593 0.459271035984 0.197661618697 1.16915383095 0.277248309612 0.416092988186 1.00432079037 0.459286356181 0.19762601809 1.1719423052 0.49347321263 -0.0805244584978 0.85294708575 0.49217544378 -0.0881097755088 1.01558107231 0.3712666622 -0.334904561837 1.33617096854 0.374691034403 -0.331068918411 1.1799621855 0.137351435509 -0.480764581852 1.50071357283 0.141439998812 -0.479577654542 1.34347491215 -0.136769136203 -0.480930559834 1.66518903718 -0.133707110584 -0.481790834885 1.82106264369 0.145357331653 -0.478404897691 1.02183603782 -0.140499062716 -0.479854158444 1.98508234748 -0.128637525828 -0.483169108024 1.508495184 -0.37293971602 -0.333040490354 2.1587700482 0.153798223018 -0.475758454046 1.9802350352 0.378315960214 -0.326920532007 0.730833545403 0.355937595002 -0.351152998654 2.2901385056 0.375469001886 -0.330186354386 2.1351130031 0.494165642046 -0.0761598202537 2.28957839076 -0.105096667752 -0.488829919734 2.146486825 -0.36187109535 -0.345035230592 2.4601843348 0.48946038641 -0.102120174969 2.53813653949 0.172370279622 -0.469349003092 2.47358907159 -0.336341073466 -0.369965785309 2.28820555321 -0.48588292857 -0.117973639955 1.9938710867 -0.49041985904 -0.0974082227474 2.15835176455 -0.467783535034 0.17657452917 0.831207800161 -0.277720926343 0.415777689482 0.996585050457 -0.45888098046 0.198565469738 1.31985853452 -0.457006778596 0.202841820929 1.11641400166 -0.493488167041 -0.0804327606799 0.832238537183 -0.493415574607 -0.0808768862847 1.4956629382 -0.281223462223 0.413416695715 1.62161156035 -0.455643278444 0.205886383253 0.69686530249 -0.465526617494 0.182441684941 0.501557642235 0.288584225241 0.408312557904 0.704741222203 0.464198770671 0.185794244548 1.65644446984 0.377306507037 -0.328085049564 1.49686227735 0.493820766287 -0.0783648568138 1.83163108987 -0.367339234866 -0.339207733591 0.860272005574 0.13375081581 -0.481778703629 0.707637851931 -0.139150852186 -0.480246853541 1.81748481657 0.493823935016 -0.0783448862711 2.46842149278 -0.472358038722 0.163944756717 2.49909964009 0.288264666851 0.408538225684 2.7424465382 0.499982511518 0.00418188662423 2.73906982167 -0.410638528533 0.285264787319 0.23487650239 0.407254949274 0.29007482878 1.980419446 0.459111189505 0.198032612647 0.227390846234 -0.407135914751 0.290241876579 0.260434592202 -0.173385811078 -0.468974797315 0.25364932245 0.410795113139 -0.285039251719 0.262752726578 -0.408377004166 -0.288493019791 0.548886852063 -0.481179948641 -0.135889135054 0.532705013187 0.485867984967 -0.118035169269 2.28916409065 0.463820426679 0.18673674463 2.75271235757 -0.404508497187 -0.293892626146 0.590245682665 0.131692390851 -0.482345430363 2.16895620153 -0.288322605631 0.408497337913 1.69195864343 -0.491385760359 -0.0924123071674 0.85551998438 -0.370022157364 -0.336279055339 1.19174297737 -0.36384024586 -0.342958124984 0.522277924834 -0.314973227822 -0.388319283265 2.78299559394 0.146239441439 -0.478135990872 1.4100443455 -0.494858292436 -0.0715211186102 2.53567015448 0.473039246716 0.161968734842 1.91266818089 -0.446108502507 0.225803463195 2.77711211273 -0.218953492667 0.44951014232 2.7693939017 0.21625770743 0.450813269522 2.54863714943 -0.475433491757 -0.154799854379 0.219092065126 -0.218349270318 0.449803953019 0.226481580666 0.221116638656 0.448450033013 0.476996473605 0.321401405765 -0.3830158435 0.43753851818 0.473852211146 0.15957469095 0.435851925902 -0.473826701147 0.15965042211 2.55978391101 -0.068594007239 -0.495272513038 0.480245708418 -0.0864826676693 -0.492463956237 2.51520502074 0.366621527749 -0.339983316342 3 0.173036221824 0.105758015087 3 -0.130375813304 -0.115543934325 3 -0.0560340296583 0.235341346188 3 0.150736744853 -0.200481173828 3 -0.254185026529 0.0913180659205 0 0.173036221824 0.105758015087 0 -0.130375813304 -0.115543934325 0 -0.0560340296583 0.235341346188 0 0.150736744853 -0.200481173828 0 -0.254185026529 0.0913180659205 2.52438110203 -0.00027697359307 0.00010179461694 0.531308187378 0.00231234114904 -0.00705333659957 1.58282408996 -4.14639350628e-05 -0.0042992751444 1.03179643438 2.93753834024e-05 0.000461063161308 2.05366184445 0.0334502747553 -0.0129757416975 1.30688699596 0.186282053238 -0.0536859956712 1.30881863404 -0.0896399445246 0.174014655009</DataArray>
      </Points>
      <Cells>
        <DataArray type="Int32" Name="connectivity" format="ascii">71 133 69 137 57 54 84 137 54 135 84 137 65 69 133 137 15 135 42 137 85 134 86 136 57 55 54 137 32 135 15 137 55 135 54 137 33 133 17 137 38 118 92 134 96 38 131 134 16 15 42 137 65 133 64 137 106 135 53 138 87 135 82 137 43 135 87 137 60 87 82 137 43 42 135 137 16 32 15 137 100 133 33 137 48 134 61 136 85 61 134 136 119 35 94 134 106 135 138 139 12 134 36 136 72 134 12 136 82 135 55 137 100 66 133 137 60 82 55 137 62 133 66 137 43 87 93 137 43 93 42 137 48 81 134 136 35 132 94 134 85 102 86 134 84 135 104 137 65 69 68 133 76 134 79 136 103 133 71 137 70 84 104 137 106 58 53 135 79 134 72 136 36 134 81 136 106 138 136 139 58 135 106 139 100 63 66 137 106 53 136 138 63 62 66 137 65 68 64 133 85 61 102 134 30 126 108 133 115 94 130 134 109 135 58 139 86 134 105 136 39 110 90 133 56 85 86 136 59 133 62 137 126 90 37 133 115 41 94 134 131 38 128 134 17 33 89 133 105 134 76 136 33 100 89 133 94 132 130 134 17 133 103 137 13 12 36 136 13 72 12 136 91 127 34 133 104 135 111 137 111 135 32 137 108 120 30 133 38 92 128 134 109 58 106 139 70 104 111 137 80 116 92 134 64 133 59 137 121 31 95 134 96 131 31 134 92 116 128 134 53 51 56 136 53 51 136 138 116 11 130 134 114 34 101 133 73 76 79 136 37 108 126 133 40 112 91 133 49 48 61 136 73 79 72 136 119 94 41 134 115 130 11 134 85 49 61 136 126 123 90 133 88 69 71 133 48 46 81 136 96 31 117 134 70 71 69 137 118 80 92 134 99 38 96 134 46 36 81 136 39 90 123 133 48 99 61 134 129 132 35 134 129 97 95 134 35 97 129 134 95 107 121 134 41 115 11 134 107 95 97 134 89 39 113 133 39 123 113 133 84 70 65 137 105 56 86 136 62 122 66 133 66 122 37 133 122 62 67 133 57 84 65 137 70 69 65 137 124 101 34 133 62 59 67 133 30 124 126 133 53 135 52 138 80 11 116 134 30 68 101 133 38 99 118 134 40 103 17 133 116 130 128 134 106 53 56 136 48 81 99 134 16 33 17 137 113 125 18 133 39 89 110 133 102 31 121 134 110 66 90 133 90 66 37 133 12 80 36 134 54 58 84 135 86 102 121 134 12 72 41 134 81 36 80 134 40 18 112 133 30 120 68 133 107 105 86 134 122 67 37 133 54 52 53 135 67 120 108 133 79 41 72 134 59 64 67 133 87 83 82 135 54 53 58 135 30 101 124 133 28 43 42 135 87 43 83 135 100 66 110 133 125 112 18 133 97 35 98 134 88 71 103 133 114 101 68 133 127 124 34 133 51 85 56 136 51 49 85 136 89 100 110 133 28 42 15 135 99 96 117 134 67 108 37 133 52 54 55 135 52 55 82 135 32 111 78 135 114 68 69 133 102 117 31 134 35 119 98 134 98 76 105 134 47 48 49 136 89 113 18 133 28 43 135 138 61 117 102 134 32 77 15 135 17 18 40 133 71 70 111 137 42 33 16 137 47 46 48 136 98 79 76 134 28 44 43 138 75 106 136 139 113 123 125 133 111 104 78 135 72 29 73 136 64 68 120 133 13 36 45 136 46 45 36 136 40 88 103 133 42 93 33 137 57 65 64 137 32 78 77 135 72 13 29 136 53 52 51 138 67 64 120 133 17 89 18 133 132 129 130 134 107 86 121 134 16 17 103 137 34 88 91 133 82 52 135 138 107 98 105 134 45 136 46 138 51 49 136 138 12 11 80 134 87 60 63 137 58 104 84 135 45 138 28 139 12 41 11 134 28 135 15 139 45 44 28 138 47 136 49 138 28 138 135 139 129 131 128 134 83 135 43 138 107 97 98 134 93 87 63 137 61 99 117 134 81 80 118 134 75 109 106 139 79 119 41 134 32 16 103 137 93 100 33 137 13 136 45 139 81 118 99 134 46 136 47 138 82 135 83 138 60 62 63 137 136 138 45 139 73 136 29 139 88 40 91 133 55 57 59 137 93 63 100 137 15 135 77 139 34 114 88 133 29 136 13 139 76 73 75 136 78 135 109 139 55 59 60 137 88 114 69 133 82 50 52 138 32 103 111 137 128 130 129 134 73 75 136 139 79 98 119 134 103 71 111 137 57 64 59 137 106 56 105 136 83 43 44 138 76 75 105 136 14 28 15 139 44 45 46 138 77 135 78 139 125 124 127 133 60 59 62 137 126 124 123 133 58 109 104 135 75 106 105 136 51 52 50 138 78 104 109 135 74 78 109 139 45 28 14 139 73 74 75 139 123 124 125 133 82 83 50 138 51 50 49 138 14 13 45 139 75 74 109 139 14 15 77 139 44 46 47 138 31 23 95 131 73 29 74 139 131 96 25 38 77 78 74 139 6 126 108 30 126 90 8 37 23 129 95 131 50 47 49 138 14 29 13 139 123 90 8 126 128 131 25 38 124 4 34 101 2 127 91 112 90 9 39 123 129 97 22 95 97 21 35 129 6 126 30 124 128 38 26 92 34 127 4 124 21 35 129 132 124 30 5 101 96 24 31 131 11 1 116 130 0 125 18 113 94 19 115 130 83 44 47 138 127 2 125 112 90 8 9 123 25 128 38 26 22 129 95 23 83 47 50 138 19 94 132 130 7 126 37 108 1 11 115 130 0 125 112 18 77 29 14 139 77 74 29 139 3 127 34 91 127 3 2 91 21 97 22 129 10 113 39 123 30 5 6 124 20 94 35 132 5 4 124 101 125 0 10 113 1 27 116 130 128 92 27 116 23 31 24 131 113 10 125 123 116 27 128 130 127 4 3 34 9 10 39 123 35 21 20 132 19 94 20 132 126 8 7 37 92 26 128 27 24 96 25 131 2 0 125 112 126 7 6 108 19 1 115 130 95 131 134 31 134 131 95 129 127 112 133 91 133 112 127 125</DataArray>
        <DataArray type="Int32" Name="offsets" format="ascii">4 8 12 16 20 24 28 32 36 40 44 48 52 56 60 64 68 72 76 80 84 88 92 96 100 104 108 112 116 120 124 128 132 136 140 144 148 152 156 160 164 168 172 176 180 184 188 192 196 200 204 208 212 216 220 224 228 232 236 240 244 248 252 256 260 264 268 272 276 280 284 288 292 296 300 304 308 312 316 320 324 328 332 336 340 344 348 352 356 360 364 368 372 376 380 384 388 392 396 400 404 408 412 416 420 424 428 432 436 440 444 448 452 456 460 464 468 472 476 480 484 488 492 496 500 504 508 512 516 520 524 528 532 536 540 544 548 552 556 560 564 568 572 576 580 584 588 592 596 600 604 608 612 616 620 624 628 632 636 640 644 648 652 656 660 664 668 672 676 680 684 688 692 696 700 704 708 712 716 720 724 728 732 736 740 744 748 752 756 760 764 768 772 776 780 784 788 792 796 800 804 808 812 816 820 824 828 832 836 840 844 848 852 856 860 864 868 872 876 880 884 888 892 896 900 904 908 912 916 920 924 928 932 936 940 944 948 952 956 960 964 968 972 976 980 984 988 992 996 1000 1004 1008 1012 1016 1020 1024 1028 1032 1036 1040 1044 1048 1052 1056 1060 1064 1068 1072 1076 1080 1084 1088 1092 1096 1100 1104 1108 1112 1116 1120 1124 1128 1132 1136 1140 1144 1148 1152 1156 1160 1164 1168 1172 1176 1180 1184 1188 1192 1196 1200 1204 1208 1212 1216 1220 1224 1228 1232 1236 1240 1244 1248 1252 1256 1260 1264 1268 1272 1276 1280 1284 1288 1292 1296 1300 1304 1308 1312 1316 1320 1324 1328 1332 1336 1340</DataArray>
        <DataArray type="UInt8" Name="types" format="ascii">10 10 10 10 10 10 10 10 10 10 10 10 10 10 10 10 10 10 10 10 10 10 10 10 10 10 10 10 10 10 10 10 10 10 10 10 10 10 10 10 10 10 10 10 10 10 10 10 10 10 10 10 10 10 10 10 10 10 10 10 10 10 10 10 10 10 10 10 10 10 10 10 10 10 10 10 10 10 10 10 10 10 10 10 10 10 10 10 10 10 10 10 10 10 10 10 10 10 10 10 10 10 10 10 10 10 10 10 10 10 10 10 10 10 10 10 10 10 10 10 10 10 10 10 10 10 10 10 10 10 10 10 10 10 10 10 10 10 10 10 10 10 10 10 10 10 10 10 10 10 10 10 10 10 10 10 10 10 10 10 10 10 10 10 10 10 10 10 10 10 10 10 10 10 10 10 10 10 10 10 10 10 10 10 10 10 10 10 10 10 10 10 10 10 10 10 10 10 10 10 10 10 10 10 10 10 10 10 10 10 10 10 10 10 10 10 10 10 10 10 10 10 10 10 10 10 10 10 10 10 10 10 10 10 10 10 10 10 10 10 10 10 10 10 10 10 10 10 10 10 10 10 10 10 10 10 10 10 10 10 10 10 10 10 10 10 10 10 10 10 10 10 10 10 10 10 10 10 10 10 10 10 10 10 10 10 10 10 10 10 10 10 10 10 10 10 10 10 10 10 10 10 10 10 10 10 10 10 10 10 10 10 10 10 10 10 10 10 10 10 10 10 10 10 10 10 10 10 10 10 10 10 10 10 10</DataArray>
      </Cells>
      <PointData Vectors="Displacement">
        <DataArray type="Float64" Name="Displacement" NumberOfComponents="3" format="ascii">9.16219020572e-11 -3.2992022853e-07 -3.06888915743e-09 0 0 0 9.60495514734e-10 -2.65553056102e-07 -1.99430675422e-07 9.29256729106e-10 -1.02176770649e-07 -3.18418410149e-07 4.13716136872e-10 1.07140577783e-07 -3.19898358342e-07 8.8369515574e-11 2.72330149471e-07 -2.00438328925e-07 4.06649148465e-11 3.37827984652e-07 1.78726296895e-09 -5.21159296151e-10 2.72888361555e-07 1.95309905627e-07 -1.40263034172e-09 1.10056377151e-07 3.15878461188e-07 -1.55181353747e-09 -1.01832202646e-07 3.16316541069e-07 -1.36355900024e-10 -2.66537918579e-07 1.95808624279e-07 2.51126210587e-11 -3.83114933234e-08 -2.81037079834e-10 -2.16523180818e-10 -8.20583672794e-08 -1.39341945713e-10 -8.75234454417e-10 -1.1126219804e-07 1.20053391663e-09 -6.76281996016e-10 -1.53005733892e-07 1.3206597143e-09 8.11237831461e-11 -1.91661523544e-07 -3.00757535739e-09 -4.92174821069e-10 -2.19829808196e-07 -1.32016302452e-09 4.50488543822e-10 -2.48640836964e-07 -3.10102044696e-10 5.35093444394e-10 -2.93959827538e-07 -1.24110270225e-09 0 0 0 0 0 0 0 0 0 0 0 0 0 0 0 0 0 0 0 0 0 0 0 0 0 0 0 -2.36558749187e-10 -1.45144896514e-07 9.54948302466e-08 -3.16716403259e-10 -1.04802995328e-07 -6.76696797213e-08 -1.20355326806e-10 2.8824084749e-07 -1.07061434472e-07 3.05746177034e-10 3.62306274095e-08 9.45633970358e-09 4.90523415561e-10 -1.66838903064e-07 -1.15822850566e-07 -1.00440735838e-09 -2.01508671054e-07 1.33402295574e-07 8.54498437674e-10 -1.19522668941e-09 -3.05807689634e-07 -3.96340576713e-10 2.78016373351e-09 -2.75295316905e-08 -5.9377742787e-11 -7.52185618779e-08 5.04322273162e-08 -8.59827127436e-10 1.79639199458e-07 2.3996443738e-07 -2.2567618255e-10 6.67298418647e-10 3.01456004083e-08 -8.62164620067e-10 -1.75100763727e-07 2.43098609692e-07 1.3877871104e-10 -2.25551744935e-07 -1.52598737911e-07 6.26035765439e-10 -4.81851652897e-08 -3.31567557908e-08 -5.35004433578e-10 -1.6546716653e-07 1.08169483382e-07 2.19975122249e-10 -7.48660846664e-08 1.73686925213e-07 1.24458947447e-09 -6.10878915559e-08 1.40122477071e-07 2.21937070859e-10 -1.0901625554e-07 7.18139580744e-08 9.39404061394e-10 -4.56724436495e-08 1.02749226507e-07 -4.22281321472e-10 2.07780352559e-08 1.23572418239e-07 1.2868118504e-10 1.67318375309e-08 9.14746293962e-08 -9.31914420277e-10 7.65158578046e-08 8.35151479348e-08 -9.23585809632e-10 1.01378151858e-07 1.137341212e-07 -3.78354649666e-10 1.28062458891e-07 3.34942907057e-08 -1.56909692116e-09 1.6343152684e-07 5.13404340849e-08 1.64257792653e-09 1.44898271449e-07 -3.8697558666e-08 -6.31965786613e-10 1.83432148811e-07 -5.15028546204e-08 -5.46874431039e-10 1.8917937788e-07 5.70453813485e-08 -9.85968143316e-10 1.12045793964e-07 -3.40184612922e-08 -5.47215876673e-10 2.11682850608e-07 -5.6831309658e-08 1.52621637056e-09 1.0820471784e-07 -1.2462390463e-07 8.68988893604e-13 2.31703687098e-07 7.46482586843e-08 -1.73400728854e-09 1.42928053497e-07 1.63308891138e-07 -2.17594587285e-10 6.23861251066e-08 6.27190463023e-08 -9.66310510536e-10 1.654647254e-07 1.91649041273e-07 -4.87908752699e-10 3.73322631167e-08 2.32403796685e-07 -5.34256394201e-10 2.43765850336e-07 -5.26042742401e-08 9.71416164534e-10 1.666747075e-07 -1.74405495164e-07 -3.63100557188e-10 5.53051543513e-08 2.57162135238e-07 -9.91240318413e-10 2.61901573586e-07 9.34587092501e-08 4.13496710165e-10 2.00877083177e-07 -1.82339534488e-07 6.21489357497e-10 5.99422285142e-08 -2.39463009056e-07 1.17409733967e-09 4.35450265855e-08 -2.16127112812e-07 1.25562652153e-10 -8.21462497688e-08 -2.25174551058e-07 3.05851776322e-10 -7.48553674093e-08 -5.05831682596e-08 1.22643650796e-09 -4.35587439278e-08 -1.03780968006e-07 1.25827652039e-09 -6.12910070846e-08 -1.37734665881e-07 9.55439859491e-10 2.51216553677e-08 -1.26473039373e-07 6.79376795973e-10 1.72911313463e-08 -9.14750715935e-08 7.17771418809e-10 -1.47089793158e-07 -9.92783409146e-08 1.89404690148e-09 -7.59676570198e-08 -1.68618051608e-07 6.7681762234e-10 -3.0036277528e-08 -7.97871471033e-08 2.02239031478e-10 -4.85745390967e-08 3.38923559799e-08 1.93134052115e-10 -3.14413094393e-08 7.92264632823e-08 -1.45230330038e-09 1.24633865306e-07 1.42607198396e-07 -7.83410262594e-10 2.79214080547e-08 1.74997780758e-07 9.58546973883e-10 1.35275922301e-07 -1.47636717722e-07 -4.27823586622e-10 9.11094815651e-08 2.50679325272e-08 -7.58450458245e-10 8.46023464876e-08 -2.49626104033e-08 -5.01676608993e-10 3.21483446239e-08 1.94287277382e-07 1.57183399554e-09 -8.67895616214e-08 -2.54516967416e-07 4.0848482165e-10 -2.21263147496e-07 1.57234289553e-07 -1.51966279985e-09 -2.62964395928e-10 3.01487588259e-07 1.13377391023e-09 -1.68571036832e-07 -2.49199633276e-07 -2.05308798456e-11 -1.75511099386e-08 2.48870733088e-08 3.979763396e-10 -8.43896970017e-08 1.98848143727e-07 2.25085891736e-10 -1.7127830483e-08 -2.11614446458e-08 3.22492023527e-10 2.93323543416e-08 -9.75245146798e-09 -7.62367963787e-10 1.899805588e-08 2.75787622679e-08 3.45169601513e-10 1.93026970445e-08 -2.5770451658e-08 -7.92552175699e-10 1.76605118809e-08 -6.22779543703e-08 3.39409908246e-10 1.57757161102e-08 6.17617026461e-08 -7.09754676574e-10 -8.93483511384e-08 2.35188370944e-07 3.52851833487e-10 1.8030931001e-07 -2.45826563627e-07 -4.61958945201e-10 6.96509891058e-08 1.8558846318e-08 9.41480810798e-10 -1.95948295843e-07 -1.37956372269e-07 8.64016094691e-10 3.49523414356e-08 -1.92614161048e-07 -5.07850292866e-10 6.39196484917e-08 -7.10652997219e-08 -9.88743634769e-10 1.00140117761e-07 -1.03289925682e-07 1.10283602863e-09 4.91900882246e-08 -3.88209993207e-08 1.58983270919e-10 2.92685243515e-07 8.87339714328e-08 -3.47077502706e-10 2.31362413651e-08 -1.61802394228e-07 -1.5419611309e-09 -8.77190964819e-08 2.61337528023e-07 7.91461813488e-10 -9.33066535813e-08 -1.85825877463e-07 7.09968533089e-10 -2.71954514031e-07 -1.35222116742e-07 -2.02510978023e-10 -2.72775412053e-07 1.30632969496e-07 4.02647050769e-10 8.824608167e-08 -2.66354269464e-07 3.96188134127e-11 -2.78352151659e-08 -1.21991462318e-08 3.03970424153e-12 -2.59775589953e-08 1.26876731246e-08 -4.69977089784e-10 4.48477739297e-08 3.68929498349e-08 -2.33913131808e-10 -1.65929744268e-08 4.86339129549e-08 1.87424909617e-10 -1.60765409494e-08 -4.77869624757e-08 -8.97380774142e-10 2.79794395467e-07 -4.01924467423e-08 -1.01974706137e-09 5.71463502045e-08 -9.65897990961e-09 -8.07182797888e-10 1.88115064188e-07 1.99029638398e-07 -5.94297327569e-10 -6.90593968889e-08 1.15302811767e-07 4.67400356205e-10 8.00826213953e-08 -9.16605220815e-08 2.44390299188e-10 -1.55783621714e-07 -3.92804495649e-08 -2.65320245365e-10 1.3843357573e-07 1.00491888751e-07 9.9413545283e-10 -6.00481898378e-08 -1.70712205711e-07 0 0 0 0 0 0 0 0 0 0 0 0 0 0 0 8.87251816491e-11 2.56352747501e-09 -1.49566181913e-09 -4.01030180158e-11 5.93657309943e-10 -9.13469954977e-11 -1.87890649367e-10 3.72466370393e-09 -1.60232171191e-09 1.96092086849e-10 -1.24557289531e-09 4.29322639215e-10 -2.11150935279e-11 7.3333237661e-09 1.36576152432e-08 1.71122880025e-10 1.6106127475e-08 5.52244471002e-08 -2.31171910779e-10 -5.35040669365e-08 -2.50017585469e-08</DataArray>
        <DataArray type="Float64" Name="DisplacementMagnitude" format="ascii">3.29934514212e-07 0 3.32102307213e-07 3.3441178194e-07 3.37363652812e-07 3.38140860917e-07 3.37832714781e-07 3.35580524935e-07 3.34504971212e-07 3.32307628222e-07 3.30731761365e-07 3.8312532325e-08 8.20587712498e-08 1.11272117037e-07 1.53012927895e-07 1.91685136872e-07 2.19834323157e-07 2.4864143844e-07 2.93962934512e-07 0 0 0 0 0 0 0 0 0 1.73742221546e-07 1.24751567896e-07 3.07481627741e-07 3.74456166167e-08 2.03101927372e-07 2.41666972937e-07 3.05811219176e-07 2.76723961979e-08 9.05607261939e-08 2.99756421936e-07 3.01538296224e-08 2.9959631977e-07 2.7232330733e-07 5.8494209366e-08 1.97687396068e-07 1.89135208283e-07 1.52864607016e-07 1.3054439016e-07 1.12446690199e-07 1.25307811488e-07 9.29923586601e-08 1.13271024073e-07 1.5236086443e-07 1.32370706878e-07 1.71313064892e-07 1.49985693244e-07 1.90526367289e-07 1.97593804609e-07 1.17100332138e-07 2.19179667041e-07 1.65050622248e-07 2.43431635454e-07 2.17028176011e-07 8.84632959046e-08 2.5319728302e-07 2.35383645647e-07 2.49377795499e-07 2.41244022751e-07 2.63042117806e-07 2.78079030384e-07 2.71292239776e-07 2.46852161656e-07 2.20473301643e-07 2.39690635114e-07 9.03442111398e-08 1.12558241099e-07 1.50761430726e-07 1.28947431623e-07 9.30974408838e-08 1.7746016855e-07 1.84950587063e-07 8.52562308146e-08 5.92302164689e-08 8.52374666696e-08 1.89400429251e-07 1.77212984935e-07 2.00242588843e-07 9.44961475684e-08 8.82114742903e-08 1.96929718158e-07 2.68912226147e-07 2.71440912744e-07 3.01491532882e-07 3.00861990167e-07 3.04533791141e-08 2.16014730074e-07 2.72253554653e-08 3.09128019106e-08 3.34976933588e-08 3.21998359298e-08 6.47384384999e-08 6.3745559309e-08 2.51589350788e-07 3.04864348794e-07 7.20826224976e-08 2.39642612404e-07 1.95761660526e-07 9.55837653568e-08 1.43867402654e-07 6.26733676701e-08 3.05840472687e-07 1.63448526776e-07 2.75670675054e-07 2.07937526073e-07 3.03718261903e-07 3.02442455933e-07 2.8059246233e-07 3.03911161653e-08 2.89103896534e-08 5.80743786228e-08 5.13871482473e-08 5.04190844785e-08 2.82667900198e-07 5.79658616658e-08 2.73862604018e-07 1.34403466806e-07 1.21717279056e-07 1.60659734342e-07 1.71062985444e-07 1.80968037473e-07 0 0 0 0 0 2.96926751072e-09 6.01981334669e-10 4.0590463747e-09 1.33199920142e-09 1.55018881894e-08 5.75254394403e-08 5.905782378e-08</DataArray>
        <DataArray type="Float64" Name="NodalVonMises" format="ascii">6505.65388922 6991.90025668 6922.431052 6832.92103002 6757.40958111 7053.81322666 7119.07959205 7365.53046751 6801.41344424 6921.20427359 6845.92590902 5801.66514757 4912.37420997 5428.74355412 7272.86504005 4353.99581387 5666.12465939 5019.38264604 5797.32156215 6941.03599101 6406.9282356 6409.62491019 6625.92349003 6654.56912188 7041.00446726 6823.74358033 6826.81512612 7001.5535462 5214.90855564 6167.20121947 5832.82703136 5903.68769981 4300.55786747 5037.01173735 5711.04167029 5465.99385682 4629.98302252 6093.32225946 5591.59130157 5760.57394953 6411.64943126 6361.68633459 4499.77723837 4130.84749922 7195.18890092 5629.18390219 5422.35442709 6100.19586498 4456.84683856 5345.8615144 7091.87295559 5638.23408453 5395.06071301 4700.35868727 4817.114176 4739.69656058 6235.25570311 5996.15741816 5312.97767794 5128.04639902 6255.29475482 4571.49502684 4750.040861 6008.97732781 4786.19986942 4814.7191191 5180.90787957 5888.42594494 6309.2887713 4803.30176139 5680.90982292 4713.38255933 4616.95565957 5526.11004525 6959.41933995 5969.55136195 4788.83300039 5731.94448207 4826.05286953 4934.43912099 6251.66306284 4758.3363703 4252.42696208 5555.140837 5006.38719481 4567.97908131 4932.9504979 4352.47495075 6282.82756149 6161.185919 5894.17065183 5918.11576638 5525.60813342 6158.7334376 5581.96663985 5591.03356565 5806.50722402 5602.79559096 6289.83122442 6215.8708975 4768.18581451 5748.07265732 6101.0334463 4991.78905225 4712.59672873 5339.82055221 4264.79688739 6343.18694841 5987.95452108 5123.83082002 6226.58734602 4760.84528566 5682.59272118 5573.37275653 6640.29666211 5760.68195255 5582.72051394 6281.80642525 6392.74708899 6553.92884047 6464.05163695 6721.53438562 5852.9168492 4674.70513364 4412.4912282 4714.84356778 5309.40123098 5238.35513334 4436.24288491 3992.5430964 4747.22798871 5029.35791951 4795.77811285 4667.30303211 4567.29473363 3534.05049571 4118.71188555 4294.31874046 4791.67865578 4923.59795373</DataArray>
        <DataArray type="Float64" Name="NodalStressTrace" format="ascii">-278.905265886 -532.364199778 -193.242163004 -154.288236021 628.632855244 -574.87434935 -622.411238435 50.2914704331 245.173311544 278.601968317 -788.299458686 -19.5250899582 15.9575552443 39.189134241 -66.1164566206 60.33940312 53.6463247245 215.998268885 281.911924861 153.752049033 -251.740044677 -481.01728254 506.273236168 -886.067887294 148.500658137 617.470721584 -153.138059126 911.612219133 136.868141645 12.1782326624 -253.066804158 -219.990592153 285.646320902 219.564195504 71.0275572854 289.768416227 -5.9274122999 -177.608751229 291.712670345 -202.864755881 100.570581598 -117.263264601 -25.2626575453 -126.511018327 -22.2153986015 162.024673558 10.8611266663 86.8136485175 47.5671884911 342.249321804 -37.6079170851 -536.826326845 408.211662841 279.332921274 214.795234548 -355.697874598 -850.298663163 -71.5713886259 -1108.04473294 -156.807808 -651.287029683 53.2962429439 -16.5564109469 37.215389233 -359.931769562 -85.2189057965 194.577739419 -142.718188849 155.118098131 62.7561840791 118.554619483 196.266886281 8.03069082983 -388.790644964 282.932918564 807.520107866 -198.229536202 -287.194342798 1013.16086979 -40.4784992256 31.6131653693 119.46438381 -335.785621976 -310.932562403 80.8044903339 69.6920893772 -9.01991553092 -123.025456307 -299.496415429 40.0601416874 290.999028737 622.104287339 349.318557723 527.369445898 -443.111706625 -240.289560375 287.793242337 -136.528706244 -528.117342472 -40.1737585358 73.0558025284 141.822703134 -134.859807991 -236.195298501 -106.01863347 -55.4755493351 -455.592468791 263.881619159 -192.41202094 342.942350253 642.292858707 286.639384163 -29.3707444731 -322.275970748 8.70253777688 -162.173286891 270.91617084 126.511596157 545.38626008 -401.026520849 -642.87527503 82.2364104073 -1117.43189985 244.827832684 10.2756266502 -52.1334700623 35.8922464548 79.0295864263 117.505420804 473.006594792 -393.461189312 -20.6154703428 207.718443881 -27.4808947716 8.82460005925 -124.722449745 -16.5807643686 21.6114330747 129.576771022 -57.7998463874</DataArray>
        <DataArray type="Float64" Name="NodalPrincipalStress" NumberOfComponents="3" format="ascii">-3907.83544366 54.282263082 3574.64791469 -4075.39353271 -429.604593974 3972.63392691 -3991.77788555 -158.596643051 3957.1323656 -3861.19825825 -308.684416199 4015.59443842 -3648.50514342 144.913588551 4132.22441012 -4113.40411342 -472.791231752 4011.32099582 -4384.76649561 3.70915252999 3758.64610465 -4234.23537781 15.1862139675 4269.34063428 -3717.80443509 -105.02484033 4068.00258696 -4009.43396116 322.448913902 3965.58701557 -4189.88311737 -296.238816634 3697.82247532 -3297.42630824 -105.628211776 3383.52943005 -2822.15111591 35.027830217 2803.08084094 -3160.13406796 128.825210937 3070.49799127 -4083.01547691 -223.231634358 4240.13065464 -2376.72345607 -139.221259169 2576.28411836 -3236.66826542 1.25461820188 3289.05997194 -2852.66521123 167.688704185 2900.97477593 -3287.36939346 179.453490849 3389.82782748 -4064.30576603 322.844192134 3895.21362293 -3804.63077176 -39.5304865434 3592.42121363 -3777.87115986 -307.558198308 3604.41207563 -3680.03322409 217.940187712 3968.36627255 -3957.30767591 -597.087334277 3668.3271229 -4014.4689399 47.5754450586 4115.39415298 -3863.8016331 527.955644842 3953.31670984 -3919.17233488 -186.708521356 3952.74279711 -3786.85836073 408.142008608 4290.32857126 -2918.83635452 -6.47823833593 3062.1827345 -3424.49136674 -191.709346554 3628.37894596 -3436.10662003 -73.3679139277 3256.4077298 -3412.86624605 -179.802104458 3372.67775836 -2369.93444705 88.3778597025 2567.20290825 -2871.8507155 183.24735483 2908.16755618 -3266.42265379 30.5152912564 3306.93491982 -2967.72317689 -62.3973135186 3319.88890664 -2674.79504066 45.8896773108 2622.97795105 -3504.24784722 -172.917102118 3499.55619811 -3169.3624255 205.894806775 3255.18028907 -3366.83633318 -105.970863374 3269.94244068 -3720.29932172 140.778706937 3680.09119639 -3742.55049035 28.6497484756 3596.63747727 -2559.77760645 -62.0565085595 2596.57145746 -2446.86322619 67.1149058369 2253.23730203 -4136.26972814 40.8288825688 4073.22544697 -3166.02537919 14.6131362005 3313.43691654 -3023.15398551 -160.638419225 3194.6535314 -3468.35582125 37.4753970421 3517.69407273 -2589.31693828 119.947623622 2516.93650315 -3066.37611247 341.565534478 3067.0598998 -4082.32986586 -20.1429409645 4064.86488974 -3523.0785994 25.5223355566 2960.72993699 -2831.62633423 -113.874259613 3353.71225668 -2521.43451835 -37.3102803506 2838.07771998 -2677.2080227 54.6807791425 2837.32247811 -2810.48032741 -170.706686539 2625.48913935 -3946.28263483 -143.290343616 3239.27431529 -3456.70832491 -67.1210076314 3452.25794391 -3551.78552078 -51.0591807481 2494.79996859 -2911.33992723 -225.20167858 2979.73379781 -3781.26027614 -305.254081017 3435.22732747 -2632.04067014 70.6531484177 2614.68376467 -2662.24542141 -145.592099008 2791.28110947 -3446.65129669 0.715851482488 3483.15083444 -2828.84745688 -196.713755781 2665.6294431 -2773.81555082 -57.3098595319 2745.90650456 -2883.10012183 12.895308015 3064.78255324 -3433.24296647 -72.6088278613 3363.13360548 -3579.0013261 30.8770011529 3703.24242308 -2716.36507031 -10.427422201 2789.54867659 -3246.76364493 67.9279451795 3297.39031924 -2633.51431417 40.7114912145 2789.06970924 -2623.39181651 -34.7833753344 2666.20588267 -3101.38442502 -501.591233667 3214.18501372 -3735.6578477 -189.267940935 4207.8587072 -2940.53622086 -149.855710013 3897.91203874 -2720.35259287 -264.815980856 2786.93903753 -3401.81281329 -48.244895315 3162.86336581 -2561.86425951 601.766301242 2973.25882806 -2800.55642541 -109.66588427 2869.74381045 -3607.10203724 32.5816556818 3606.13354693 -2700.36693427 68.571305497 2751.26001259 -2457.98508536 -279.971113653 2402.17057703 -3310.09923512 -64.7118181299 3063.87849085 -2902.8879469 159.604904129 2824.08753311 -2644.59606014 126.617369906 2587.67077961 -2843.65037594 29.7542403653 2804.87622004 -2505.71799685 -94.8752342287 2477.56777477 -3764.73044531 -21.3983164345 3486.63234632 -3550.75094947 29.760873969 3561.05021719 -3244.06671839 12.5911744407 3522.47457269 -3221.47649507 249.502918434 3594.07786398 -3067.99772847 114.12297932 3303.19330688 -3396.67017086 217.095320398 3706.94429636 -3456.99714273 54.6825139149 2959.20292219 -3231.77556346 -205.222831914 3196.70883499 -3331.75329349 283.293738971 3336.25279685 -3217.44335637 -158.59472998 3239.5093801 -3752.16156162 -282.533753643 3506.57797279 -3636.78987416 62.003169 3534.61294663 -2790.1053657 174.037950379 2689.12321785 -3269.93616156 58.382410341 3353.37645435 -3579.86192371 -15.1928053456 3460.19492106 -2967.07390981 -48.1077077739 2778.98631908 -2841.04564087 189.562739579 2545.46426783 -3038.16177254 -115.205442018 3097.89166522 -2538.03889166 -206.522124834 2288.9685477 -3526.28907782 -4.02883047395 3794.19952745 -3589.53660177 115.093969639 3282.03061119 -2872.26988602 233.619467572 2981.5927687 -3348.8119345 156.527197095 3834.57759611 -2651.79569597 126.23428065 2812.20079948 -3299.68818536 43.0785347404 3227.23890615 -3307.85214067 -129.879396176 3115.45556609 -3860.43675377 64.7866834638 3804.35260808 -3424.51364695 85.2431329005 3177.09722716 -3139.40213489 110.898001344 3299.42030439 -3588.20144007 50.425600359 3664.28743587 -3495.71060994 157.187199534 3883.90967048 -3919.85405587 -126.39986554 3645.22740056 -3962.70265681 -176.745636194 3496.57301797 -3830.11817936 -13.8712998157 3926.22588958 -3777.99809127 -317.266421229 2977.83261265 -2612.16796176 87.7548866202 2769.24090782 -2503.58082966 -53.1355687785 2566.99202509 -2726.67606335 -18.2181660002 2692.76075929 -3032.6929311 22.8203678854 3045.76480967 -2967.43979603 -1.78622130217 3048.25560376 -2526.66999768 53.9530540494 2590.22236443 -2091.84314874 63.5369745001 2501.31276903 -2884.14893834 -76.7591665714 2567.44691559 -2898.31754642 8.86186742273 2868.84020865 -2682.48316559 56.1943323149 2834.00727716 -2695.37099693 -3.11025587502 2671.00035803 -2623.11630324 6.55971682463 2625.38118647 -2064.71808391 -3.63190601705 1943.62754018 -2358.27957092 -7.26783954957 2348.9666461 -2440.40978641 -5.15278202015 2467.17400151 -2660.66704309 -17.3407596521 2807.58457376 -2797.11420682 -70.8611642461 2810.17552468</DataArray>
        <DataArray type="Float64" Name="ShellTopNodalVonMises" format="ascii">0 0 0 0 0 0 0 0 0 0 0 0 0 0 0 0 0 0 0 0 0 0 0 0 0 0 0 0 0 0 0 0 0 0 0 0 0 0 0 0 0 0 0 0 0 0 0 0 0 0 0 0 0 0 0 0 0 0 0 0 0 0 0 0 0 0 0 0 0 0 0 0 0 0 0 0 0 0 0 0 0 0 0 0 0 0 0 0 0 0 0 0 0 0 0 0 0 0 0 0 0 0 0 0 0 0 0 0 0 0 0 0 0 0 0 0 0 0 0 0 0 0 0 0 0 0 0 0 0 0 0 0 0 0 0 0 0 0 0 0</DataArray>
        <DataArray type="Float64" Name="ShellBottomNodalVonMises" format="ascii">0 0 0 0 0 0 0 0 0 0 0 0 0 0 0 0 0 0 0 0 0 0 0 0 0 0 0 0 0 0 0 0 0 0 0 0 0 0 0 0 0 0 0 0 0 0 0 0 0 0 0 0 0 0 0 0 0 0 0 0 0 0 0 0 0 0 0 0 0 0 0 0 0 0 0 0 0 0 0 0 0 0 0 0 0 0 0 0 0 0 0 0 0 0 0 0 0 0 0 0 0 0 0 0 0 0 0 0 0 0 0 0 0 0 0 0 0 0 0 0 0 0 0 0 0 0 0 0 0 0 0 0 0 0 0 0 0 0 0 0</DataArray>
      </PointData>
      <CellData Scalars="VonMises">
        <DataArray type="Int32" Name="ElementIndex" format="ascii">0 1 2 3 4 5 6 7 8 9 10 11 12 13 14 15 16 17 18 19 20 21 22 23 24 25 26 27 28 29 30 31 32 33 34 35 36 37 38 39 40 41 42 43 44 45 46 47 48 49 50 51 52 53 54 55 56 57 58 59 60 61 62 63 64 65 66 67 68 69 70 71 72 73 74 75 76 77 78 79 80 81 82 83 84 85 86 87 88 89 90 91 92 93 94 95 96 97 98 99 100 101 102 103 104 105 106 107 108 109 110 111 112 113 114 115 116 117 118 119 120 121 122 123 124 125 126 127 128 129 130 131 132 133 134 135 136 137 138 139 140 141 142 143 144 145 146 147 148 149 150 151 152 153 154 155 156 157 158 159 160 161 162 163 164 165 166 167 168 169 170 171 172 173 174 175 176 177 178 179 180 181 182 183 184 185 186 187 188 189 190 191 192 193 194 195 196 197 198 199 200 201 202 203 204 205 206 207 208 209 210 211 212 213 214 215 216 217 218 219 220 221 222 223 224 225 226 227 228 229 230 231 232 233 234 235 236 237 238 239 240 241 242 243 244 245 246 247 248 249 250 251 252 253 254 255 256 257 258 259 260 261 262 263 264 265 266 267 268 269 270 271 272 273 274 275 276 277 278 279 280 281 282 283 284 285 286 287 288 289 290 291 292 293 294 295 296 297 298 299 300 301 302 303 304 305 306 307 308 309 310 311 312 313 314 315 316 317 318 319 320 321 322 323 324 325 326 327 328 329 330 331 332 333 334</DataArray>
        <DataArray type="Float64" Name="VonMises" format="ascii">1311.39383999 5111.43258407 2267.70308703 1504.03208452 1486.25689272 1473.91044422 5561.23176987 2142.80864414 1714.68449756 1574.2829225 6326.46348938 2898.1922018 5356.09678408 1705.84654635 1491.67538665 1808.55220686 1428.34437585 5516.14257347 1807.62210089 5097.21110817 1979.17702862 887.359012467 1477.85355217 6394.52765605 1076.79056719 1792.18297776 1749.36231034 1588.10738245 2237.21364905 5262.26552106 2534.44367837 5515.05726102 5009.65430079 1734.10812782 2093.76292949 5073.80099001 1160.58227845 5711.31430584 1874.00907438 773.175138725 5172.13492786 4447.79605898 1122.02925994 1013.97595768 768.974784557 5823.28510093 4883.27124523 1981.67175989 4933.57693566 5414.46881898 5001.22331504 3068.54646164 2817.48728544 1661.08908353 1703.66015893 6700.75832966 5653.41312872 2340.08435048 3161.27479347 6693.11078418 4097.6451617 5650.97989977 907.278111223 5147.98309379 4573.58309706 2139.5909218 5229.21857941 5334.93845282 2721.68002254 2672.36348255 1259.47237864 6866.65726806 1848.09277167 4115.51468828 4714.39633246 6641.30691688 1272.3706874 7035.62706314 2476.53823498 1932.66489119 5419.45179002 3604.14643098 3259.42709722 6734.81093815 5304.15822618 2788.16139379 6750.2736902 5382.39470335 5691.69113834 6145.08579467 2834.26454871 5143.87279317 4734.81753613 5967.04292758 5332.92463957 6137.64649193 5196.58953683 5853.04097883 6993.68664223 5496.72466106 2349.63914034 5687.23314053 4723.22805752 1614.17000794 2148.33639185 6111.88250429 6048.95429249 6964.94460388 6680.83099276 2451.23368748 6921.18834288 5536.36508568 5234.04713036 6642.38054326 5063.50432552 6722.0337749 5126.32358511 2223.60299184 5027.61896992 4770.99278826 4145.58336148 6377.02201584 6950.00392 6292.60047818 6044.9136866 4094.37909208 6641.42322146 5341.55679322 5333.06546557 3387.59337545 6341.95397038 6634.24186686 6912.05976377 7653.4896126 5452.28310732 6031.52789366 7151.02485865 5619.38655385 5655.77028452 6349.61793345 6409.93345839 6196.53368187 6471.73539765 6353.77610473 6088.81114573 5820.70481251 5721.11807723 3506.38041349 6725.98373863 2031.82045045 3924.20027985 3518.05888912 5597.68835783 2901.72280176 7177.54316916 5894.72512389 6381.59657878 5059.94887144 6514.43560317 6205.32282401 5580.47630846 4258.50175982 5991.3468072 6287.18696258 4770.57373248 4588.18022401 4615.88942746 6901.85474048 6288.01512914 6284.65810362 5836.90286165 5646.16123608 6467.76529417 3465.31887568 6457.89451807 4251.26573715 7197.62117586 6954.82621239 7160.04999761 5643.03705543 5717.54780852 6462.58282822 3362.00003303 4463.50759189 4456.2418992 5872.5704008 6395.84957663 6186.60663982 6213.10197262 5609.79944578 6995.83579124 5412.54549423 4426.13884915 5724.96234793 6192.07901991 6559.00673593 7258.31187368 60.4275212654 6674.89563514 4956.29522253 6807.33372433 4050.12492037 5634.03443007 3831.1994441 4025.79051313 6961.13087918 6815.08744677 6664.4946696 6872.98313839 7160.4908191 3823.87914142 6663.58393281 2597.02264427 3056.84612035 60.4275212654 3011.51035303 6476.83083521 6712.17643945 6534.12917992 6821.08725733 6446.8698081 7044.07128532 6094.02937837 6454.71969974 3843.29410574 6670.54324122 2870.93806586 2626.37798274 6444.79476639 2358.95516579 2748.28018919 6517.67065571 7361.30786729 6264.95713336 3106.39964112 6475.35798236 2939.72875715 6659.88551994 3860.49680325 7071.22148995 6707.86307078 6507.30848046 6517.64741672 60.4275212654 3954.16896578 6901.30136271 6895.92513588 5808.39301862 7646.44538963 7166.12572776 7222.04940086 6818.8361292 6662.88584066 2494.67623805 1186.37449084 6422.25673129 470.56989966 7034.13018988 7375.11584999 6552.85986066 5826.43004986 5921.82291859 6802.35335065 6612.02829921 585.888222985 7070.8299159 6591.78663438 6856.87543135 6124.29301867 7198.70230091 7328.0237374 7276.83456861 7366.09762252 7521.20241282 7006.72677071 7739.00030589 7330.20642554 6325.93675914 7174.54076684 7314.32411876 6379.55431527 6367.50762863 7164.99788482 7304.92650382 7255.33233695 7020.64832744 6888.70600873 6482.5006806 7203.01460068 6224.25000574 6109.30412425 7345.12379484 7394.68834992 6843.39357647 6369.42645015 7609.71568979 8887.93133867 6820.15240948 6464.57426457 6367.50762863 6325.93675914 8653.9120753 6380.91257929 7474.14643466 6928.63795151 6446.51359271 8646.09890942 8725.54741002 7210.66854757 6800.32880834 6531.18538351 7261.13691942 6663.69118544 6730.56800325 7152.62469971 6442.35902765 6802.96638304 7490.35826969 6689.56840061 6636.50146976 6802.96638304 6487.76573416 7043.70621925 6109.30412425 6380.91257929 7031.31877157 6909.92314904 7038.75665124 6764.31648638 7591.12619629 7392.6031157 3200.02919308 4034.32586986 3232.04417854 4573.76689427</DataArray>
        <DataArray type="Int32" Name="HasVonMises" format="ascii">1 1 1 1 1 1 1 1 1 1 1 1 1 1 1 1 1 1 1 1 1 1 1 1 1 1 1 1 1 1 1 1 1 1 1 1 1 1 1 1 1 1 1 1 1 1 1 1 1 1 1 1 1 1 1 1 1 1 1 1 1 1 1 1 1 1 1 1 1 1 1 1 1 1 1 1 1 1 1 1 1 1 1 1 1 1 1 1 1 1 1 1 1 1 1 1 1 1 1 1 1 1 1 1 1 1 1 1 1 1 1 1 1 1 1 1 1 1 1 1 1 1 1 1 1 1 1 1 1 1 1 1 1 1 1 1 1 1 1 1 1 1 1 1 1 1 1 1 1 1 1 1 1 1 1 1 1 1 1 1 1 1 1 1 1 1 1 1 1 1 1 1 1 1 1 1 1 1 1 1 1 1 1 1 1 1 1 1 1 1 1 1 1 1 1 1 1 1 1 1 1 1 1 1 1 1 1 1 1 1 1 1 1 1 1 1 1 1 1 1 1 1 1 1 1 1 1 1 1 1 1 1 1 1 1 1 1 1 1 1 1 1 1 1 1 1 1 1 1 1 1 1 1 1 1 1 1 1 1 1 1 1 1 1 1 1 1 1 1 1 1 1 1 1 1 1 1 1 1 1 1 1 1 1 1 1 1 1 1 1 1 1 1 1 1 1 1 1 1 1 1 1 1 1 1 1 1 1 1 1 1 1 1 1 1 1 1 1 1 1 1 1 1 1 1 1 1 1 1 1 1 1 1 1 1</DataArray>
        <DataArray type="Float64" Name="StressTrace" format="ascii">3425.42794946 2029.29609948 -5415.34539822 -4706.10361805 -4890.11950702 4496.56739499 -1491.9033801 4651.75542025 4706.8098732 5489.0552545 1105.57076279 764.486455356 1452.4566321 3903.15497914 1408.66377064 4126.34371182 -4110.2341233 -1274.48681926 4683.42617905 -1606.66320875 -3093.36155842 3272.10803834 -3656.7457995 -398.973483144 591.868750204 -4560.29224125 4683.27512635 -4996.51144111 -4314.83709261 1491.4141899 4663.86381451 1095.67135721 -1357.99383355 -4005.29981594 -370.347070215 -2300.41205713 4853.01987533 1424.75443955 3764.58831891 118.390759555 -1689.98899771 1242.06301328 -3838.72506424 3605.20618831 203.027819409 -11650.5372824 1960.55219928 1930.0658668 -1726.16046766 -1288.27531041 1768.53585838 1199.56336095 819.436485094 870.175567349 -4784.85046755 -741.730797656 -2611.16538583 3805.60952081 -346.804937733 -773.467891739 -926.70993698 -1244.08494827 600.330086641 1094.71272342 -3885.00004976 -4364.7343901 1865.65718003 -1905.62695784 1272.46508831 -5640.29601069 2440.53746113 -2679.16293347 53.4738320851 935.15744531 1900.31002181 -1622.52093154 -4651.96925826 1686.0393304 -444.07748591 222.041113642 1095.36041373 -4232.70206563 2030.69213348 -159.830742129 -2285.44455377 -577.56788483 -892.555795718 -1568.67182262 1379.88200491 223.225066804 -1765.9478513 1998.29141183 991.676278896 329.675373258 2049.16489574 -3.81995731969 -3069.16073649 -342.003379924 -1948.08804387 -1339.96800984 -115.980493506 -1810.54703643 7025.51737772 -984.747039634 -207.674756457 -491.89902482 244.469396106 -526.427802139 834.802542224 254.702829524 -160.42353108 2666.7342824 -2497.07162314 -1549.44023307 -300.702799074 497.465226318 2923.55555205 644.662308186 -958.150643759 -773.581512923 3544.21394669 1365.18564509 174.939932756 1060.48433859 1208.19666219 -931.542087567 -3467.22681302 1827.75207872 -2569.39647885 -1831.9154957 634.091009024 -170.169572851 951.625983851 1848.21068829 2474.79146535 4815.34586087 -605.228249266 -2567.85153143 -2084.01984545 54.1561031799 75.2991780151 3073.75558958 -122.512944115 -1228.99383867 670.963248217 2123.15802933 1287.49067921 -1525.28091362 1843.66644389 524.357973751 -1764.6547278 658.13571068 2414.45638533 2714.38360324 656.633866801 -2031.0749077 258.738043318 -4640.32142882 -1036.41131896 1898.87661124 -46.9782870183 1694.03743833 264.640576655 -484.677082273 -3540.51378406 1558.03168311 -98.4273538786 630.408491446 -51.6619320891 -995.837271934 -1655.93675585 -1944.46756616 -689.352770887 -5397.29134911 549.777105007 -631.109484975 581.704674083 807.035408331 217.564104011 2560.49873627 -633.739812979 1102.19311192 2773.17641377 408.965675058 2452.26125776 2539.38979021 -190.03808776 1508.90286401 -1517.69689956 -316.146999122 -236.817545486 -3275.87898388 -1006.94444348 -2349.25587065 658.218475021 -1091.43778015 -302.769276681 -15.095953335 -7.56043142368 2930.01465421 638.80588434 3126.10154765 -693.482619727 4939.16256454 -3651.29203744 -22.1007868391 -1047.80722095 -4282.93321231 717.752279593 159.808187591 5684.45184085 262.357475485 4161.15958923 -80.639163651 -15.095953335 2534.40423335 228.904003486 1093.45464696 -126.377811468 451.959990899 1160.94694794 -230.184108863 -102.097754371 2098.84201312 -4679.96075985 450.919588043 -4194.39930194 -3848.36835867 -527.806859351 1836.29645809 -4289.2611303 -31.9311550252 -615.906899187 471.060037122 -3432.72514267 -229.295125166 3686.26002879 -2065.8895343 -3274.79261679 42.9967614663 -456.507978584 -360.504061567 -1361.88006872 -15.095953335 3381.32470147 -603.362807107 1793.57435756 2427.49960562 -1749.08315729 1291.23325829 888.485497934 -311.370248277 -2084.68095824 2532.5836796 3307.75854699 -2592.0322299 242.370374764 -2637.29569952 1154.76759985 -490.860665456 4196.77369757 1637.10762968 -538.155240885 -688.116594202 796.888381236 -1654.59575801 1464.19997274 1176.2689524 -144.534169526 -2007.31970864 -325.192013646 -4244.56263652 -1082.20984372 3428.67985302 1666.72510785 1244.79462394 -2436.81997855 247.656826845 379.89841561 1011.26763704 1664.2642861 -178.838656721 494.326597477 4873.40932774 406.384230406 1008.4294699 -1530.08080367 -892.169817987 -263.09324411 2153.91477182 -328.360869124 -482.698286847 841.644194007 -2289.54148862 1015.76796505 182.896447941 -379.203265409 -2555.95066486 689.165027286 -178.838656721 247.656826845 436.214594177 197.97269368 1007.04969988 121.234044835 713.320596602 272.609868641 308.625381295 349.343965717 -998.412926894 262.733411758 -2635.44401433 -922.010559762 -624.831958588 -319.914201442 -752.695237194 2.68428384559 3658.56258539 204.977433652 494.684769519 2.68428384559 186.204253114 -259.74335274 -328.360869124 197.97269368 1064.08391135 -17.4822765467 -601.119653247 -2092.01438801 -1920.25919993 36.1663608309 201.715297258 453.243148113 -234.290089756 -2844.79539268</DataArray>
        <DataArray type="Float64" Name="HydrostaticPressure" format="ascii">-1141.80931649 -676.43203316 1805.11513274 1568.70120602 1630.03983567 -1498.85579833 497.301126701 -1550.58514008 -1568.9366244 -1829.68508483 -368.523587596 -254.828818452 -484.152210699 -1301.05165971 -469.554590215 -1375.44790394 1370.0780411 424.828939754 -1561.14205968 535.554402916 1031.12051947 -1090.70267945 1218.9152665 132.991161048 -197.289583401 1520.09741375 -1561.09170878 1665.5038137 1438.27903087 -497.1380633 -1554.6212715 -365.223785738 452.664611184 1335.09993865 123.449023405 766.804019044 -1617.67329178 -474.918146517 -1254.86277297 -39.4635865183 563.329665905 -414.021004428 1279.57502141 -1201.7353961 -67.6759398031 3883.51242746 -653.517399759 -643.355288933 575.386822553 429.425103469 -589.511952795 -399.854453649 -273.145495031 -290.05852245 1594.95015585 247.243599219 870.388461945 -1268.53650694 115.601645911 257.82263058 308.903312327 414.694982756 -200.11002888 -364.904241139 1295.00001659 1454.91146337 -621.885726677 635.208985946 -424.155029435 1880.09867023 -813.512487045 893.054311157 -17.824610695 -311.719148437 -633.436673936 540.840310512 1550.65641942 -562.013110132 148.025828637 -74.0137045474 -365.120137909 1410.90068854 -676.897377827 53.276914043 761.814851258 192.522628277 297.518598573 522.89060754 -459.960668305 -74.4083556012 588.649283767 -666.097137276 -330.558759632 -109.891791086 -683.054965247 1.27331910656 1023.05357883 114.001126641 649.362681289 446.656003279 38.6601645019 603.515678809 -2341.83912591 328.249013211 69.224918819 163.966341607 -81.4897987019 175.475934046 -278.267514075 -84.9009431746 53.4745103599 -888.911427466 832.357207715 516.48007769 100.234266358 -165.821742106 -974.51851735 -214.887436062 319.38354792 257.860504308 -1181.4046489 -455.061881695 -58.3133109185 -353.494779531 -402.732220731 310.514029189 1155.74227101 -609.250692906 856.46549295 610.638498568 -211.363669675 56.7231909505 -317.208661284 -616.070229429 -824.930488448 -1605.11528696 201.742749755 855.950510478 694.673281815 -18.0520343933 -25.099726005 -1024.58519653 40.8376480383 409.66461289 -223.654416072 -707.71934311 -429.163559737 508.426971206 -614.555481297 -174.78599125 588.218242599 -219.378570227 -804.818795111 -904.794534412 -218.8779556 677.024969234 -86.2460144395 1546.77380961 345.470439653 -632.958870413 15.6594290061 -564.679146111 -88.2135255518 161.559027424 1180.17126135 -519.343894371 32.8091179595 -210.136163815 17.2206440297 331.945757311 551.978918616 648.155855386 229.784256962 1799.09711637 -183.259035002 210.369828325 -193.901558028 -269.011802777 -72.5213680038 -853.499578758 211.246604326 -367.397703973 -924.392137922 -136.321891686 -817.420419254 -846.463263402 63.3460292534 -502.967621337 505.898966519 105.382333041 78.9391818287 1091.95966129 335.648147826 783.085290218 -219.40615834 363.812593384 100.923092227 5.031984445 2.52014380789 -976.671551402 -212.93529478 -1042.03384922 231.160873242 -1646.38752151 1217.09734581 7.36692894636 349.269073651 1427.6444041 -239.250759864 -53.2693958635 -1894.81728028 -87.4524918283 -1387.05319641 26.879721217 5.031984445 -844.801411116 -76.3013344953 -364.484882321 42.125937156 -150.6533303 -386.982315979 76.7280362877 34.0325847902 -699.614004375 1559.98691995 -150.306529348 1398.13310065 1282.78945289 175.935619784 -612.098819365 1429.7537101 10.6437183417 205.302299729 -157.020012374 1144.24171422 76.4317083888 -1228.75334293 688.629844768 1091.59753893 -14.3322538221 152.169326195 120.168020522 453.960022908 5.031984445 -1127.10823382 201.120935702 -597.858119186 -809.166535207 583.027719098 -430.411086095 -296.161832645 103.790082759 694.893652748 -844.194559865 -1102.58618233 864.0107433 -80.7901249212 879.098566505 -384.922533284 163.620221819 -1398.92456586 -545.702543228 179.385080295 229.372198067 -265.629460412 551.531919338 -488.06665758 -392.089650799 48.1780565086 669.106569547 108.397337882 1414.85421217 360.736614574 -1142.89328434 -555.57503595 -414.931541312 812.273326185 -82.5522756151 -126.632805203 -337.089212347 -554.754762032 59.6128855736 -164.775532492 -1624.46977591 -135.461410135 -336.143156634 510.026934556 297.389939329 87.6977480368 -717.971590608 109.453623041 160.899428949 -280.548064669 763.180496207 -338.589321685 -60.9654826469 126.40108847 851.983554953 -229.721675762 59.6128855736 -82.5522756151 -145.404864726 -65.9908978934 -335.683233292 -40.4113482782 -237.773532201 -90.8699562137 -102.875127098 -116.447988572 332.804308965 -87.5778039195 878.481338109 307.336853254 208.277319529 106.638067147 250.898412398 -0.894761281865 -1219.5208618 -68.3258112173 -164.894923173 -0.894761281865 -62.0680843714 86.5811175801 109.453623041 -65.9908978934 -354.694637116 5.82742551558 200.373217749 697.338129335 640.086399976 -12.0554536103 -67.2384324194 -151.081049371 78.0966965854 948.265130894</DataArray>
        <DataArray type="Float64" Name="PrincipalStress" NumberOfComponents="3" format="ascii">594.709657033 824.797769365 2005.92052306 -2248.99609609 625.766750342 3652.52544523 -3305.5535146 -1215.12263639 -894.669247226 -2567.39187075 -1146.81696641 -991.894780893 -2610.05056305 -1266.54170917 -1013.5272348 897.358221362 1126.70947522 2472.4996984 -3857.58082982 -173.807816062 2539.48526578 575.963473595 1133.39201136 2942.39993529 803.66590349 1216.16856846 2686.97540125 1193.59027545 1424.78035754 2870.6846215 -3244.53071379 290.704948474 4059.3965281 -1320.90085424 74.3722488907 2011.0150607 -2393.33563469 91.874917015 3753.91734978 554.899717562 930.882198476 2417.3730631 -119.196180709 69.8637802136 1457.99617114 588.121450869 978.304693646 2559.91756731 -2320.65938712 -943.286994749 -846.28774143 -3687.57486604 -262.63139011 2675.71943689 802.704096043 1129.34638194 2751.37570106 -3460.35396761 -571.380568208 2425.07132707 -2296.43208149 -722.430619079 -74.4988578495 730.995471112 863.829452021 1677.28311521 -2194.20220325 -852.220480647 -610.323115595 -3839.69451255 -103.168302157 3543.88933157 -189.426982021 -133.11769727 914.413429496 -2709.29994696 -1025.43584489 -825.556449405 842.231179285 1125.21124686 2715.83270021 -2704.1392008 -1324.0130554 -968.359184912 -2889.73215693 -1009.76928708 -415.335648598 -2479.94266364 378.437862831 3592.91899071 404.095417562 1058.27204187 3201.49635507 -2708.03180157 154.011788267 3649.69137052 -3369.7448129 -402.502203649 2414.25318299 -2481.31361122 -892.464027335 -631.522177391 -1342.21508635 -103.335057092 1075.20307323 -3796.51201114 -554.564422591 2050.6643766 1131.39488104 1339.62757591 2381.99741838 -2737.76137847 311.496700357 3851.01911767 391.065302334 905.079272608 2468.44374397 -422.108315081 71.5534550195 468.945619617 -3726.06539518 -171.423976943 2207.50037441 -2146.43701654 399.129311569 2989.37071826 -2018.3212847 -1011.88942874 -808.514350805 852.436022738 875.178330623 1877.59183495 -357.160103032 31.6122537264 528.575668715 -7695.97279471 -2611.63959582 -1342.92489185 -2078.41162576 486.118876207 3552.84494883 -161.999731108 139.081795083 1952.98380282 -3521.08808838 -369.630042814 2164.55766353 -3610.58259403 -316.119283464 2638.42656709 -2189.85492353 384.281169424 3574.10961249 -1197.57269356 91.8480938056 2305.2879607 -1322.43324585 212.637386477 1929.23234446 -767.565269542 534.59429018 1103.14654671 -2725.83520898 -1120.66807307 -938.347185509 -4106.76216022 -265.511035368 3630.54239793 -4309.31532324 -486.600840255 2184.75077766 151.389598392 884.073017253 2770.14690516 -2045.55435499 116.107127527 1582.64228973 -4239.81615234 -10.4924139677 3476.84067457 -2709.65545057 -237.327713512 2020.2732271 -3773.35761654 -213.221437612 2742.49410588 -281.450585385 123.937571721 757.843100305 -2587.69836205 326.110371231 3356.30071424 -4119.20662618 -878.10869172 1112.31526813 -2850.42263504 -1012.81423979 -501.497515275 -2307.5535799 449.932536803 3723.27822313 -3820.39360303 -413.068664206 2327.8353094 -1064.97778467 270.922287742 2066.52058523 -3632.86813007 -1280.04395398 -727.383926645 198.054081143 626.605355093 1615.8780249 -4992.80924982 -606.979862157 2920.6261785 -1055.94780881 31.5073314429 1077.91430945 -2303.29621242 900.13616697 2338.31749076 -2076.68406328 610.112074995 3366.8820101 -4463.89059909 -356.834930668 3198.20459823 -2378.05323864 -1298.83223992 -975.083779696 -3320.04921062 223.305215143 4782.78332587 -1646.73921399 1.49128726933 1201.17044081 -1030.04571852 50.8442158212 1201.24261634 -2720.6776833 280.5850489 3535.45304812 -3714.45664009 -850.882502619 332.637077078 -1162.42574067 594.582797963 2598.53507619 -4026.22321343 121.843315646 3744.54915566 -3812.92552894 -784.185292468 2311.66626763 -1868.43516166 -50.8200542837 1341.68733112 -4261.74319727 -159.972407877 3529.15980942 -3780.46977743 -197.119714513 2408.91766932 -2616.42136753 74.5211304117 3921.78224204 -3550.91719535 234.763413025 3539.37884913 -2353.36640323 -291.1114603 878.53001223 -2286.13037378 631.22656253 3653.19522308 -2316.71839076 165.313479864 3143.08118979 -3326.01048484 91.6213333832 3564.06452471 -2301.48743739 502.18290046 3848.46943267 -3588.1619704 87.010064274 3497.33194881 -4130.67177225 -795.346342595 1856.85737835 -3439.1423003 -219.746131389 3316.88505176 -4826.3073974 -354.973351469 3233.192705 -3718.53102597 -239.862539976 2618.42555611 -1353.73803737 -118.139322262 1355.89686612 -4011.60546873 -338.301299521 2539.35973182 34.8504618618 1639.35745976 5351.3094561 -1261.09864805 -326.430058068 602.781666485 -1306.64687551 -75.0457064078 1174.01782546 -3692.38065637 -164.531662368 3365.01329392 -3411.03364142 81.8059222377 3573.69711529 -4172.52536887 -223.374431274 3869.471998 -3497.23300812 119.794154342 4212.24139601 -1272.36722383 -24.6376737451 1551.7077271 -4083.8391637 16.2678669251 3907.1477657 -2225.62211514 730.989172368 4161.36722517 -3845.90355297 -848.953197952 2197.78512778 -4450.23572694 -310.638301197 3211.43379507 -3060.09536176 -25.9265011979 2785.31906388 -3721.78042473 179.124254013 4040.12139703 -1770.5196573 583.9989689 4110.07624044 -1057.94502779 193.230803987 1509.37653199 -3222.12007684 -319.304819799 2583.27425288 -3086.47348914 -103.184446481 2416.07642269 -719.872198843 394.953486649 3869.13265888 -3213.7831088 429.335926701 4149.63282719 -3942.07083183 34.018650088 4082.99211449 -3359.43729663 518.942837897 3900.97879732 -3120.29059252 469.675879388 3858.81137532 -2715.90380316 -225.206754595 2009.56847019 -5108.80838718 -906.283428573 2547.86500273 -2415.15363596 493.424346096 3749.48136858 -4151.15205554 -366.407581569 1948.16315826 -2596.86299206 -548.357684048 1313.3051804 -3458.76705262 228.6285059 3864.22955575 -3934.97277252 41.086801496 3723.71639818 -3456.73873644 -85.6897262424 4494.05444654 -3651.51999557 327.871052702 5171.85963115 -2233.11181445 652.360232987 4055.5430468 -1720.80868984 1311.00926783 5225.14528288 -4374.05636106 -112.976288968 3881.80440076 -4230.98162174 -576.521894292 2239.6519846 -4103.44304741 -385.922908581 2405.34611055 -3699.16838303 122.832079402 3630.49240681 -3592.60048831 -135.804681949 3803.70434828 -2386.08831309 711.3854646 4748.45843807 -3755.75772341 -83.547684568 3716.79246386 -4053.33262955 -458.548684507 3282.88747539 -3272.41248859 185.347791209 3758.0279456 -2535.46270421 484.083417556 4174.53731598 -2733.11293395 163.574191495 3857.02942166 -2508.69604118 -555.874065716 1539.28919328 -3052.56231107 213.432206176 4682.79654879 -982.041152702 142.944425149 1363.4547013 -2925.15587704 -438.158878895 1598.66002814 -1667.94868821 -42.808667692 2368.89306658 -2458.36663108 868.476356636 4004.34665977 -560.819208985 544.144804717 2731.05800751 -3770.23991314 -75.1389307185 4502.01271065 -4186.65188618 -453.382285031 2608.95926351 -3682.37030605 260.854424301 3680.25392507 -4715.4275738 -964.487771255 1039.59391624 -4289.69653449 52.3912109126 3200.89400462 -2988.41533303 711.716284652 4175.57565962 -3263.42509213 36.7318845501 3179.71492056 -1786.71379106 362.638634204 3118.11259518 -3341.38847406 29.9423944848 3576.08665623 -3781.24494718 -181.919703551 3478.48756845 -3982.49601411 -1081.45142271 1523.43365275 -1856.95080508 39.5433386347 3375.43914956 -2841.83170344 283.497619307 2459.90673025 -3739.88986026 141.499558191 4228.79879351 -3686.3986704 61.646044989 3573.09069332 -3858.78372051 -527.277137334 3390.22358591 -3894.51203815 -606.134799128 2844.71008143 -4086.40195715 -255.768162089 2397.70255308 -3935.2026513 -286.630468522 3532.48034893 -3632.02739152 -2100.45240544 335.188447851 -3497.37680361 89.3698635764 3957.78404504 -2739.5822796 -53.3435794299 2161.81637405 -3964.99797303 200.611699705 4346.09094741 -3692.80181787 163.959079795 4335.87814641 -4068.35461523 86.5956860447 4199.3230332 -2369.09908946 783.797493858 4145.80033187 -3462.51096926 -308.618872291 3137.39002857 -3706.96117539 1191.58137745 3617.57290986 -830.539256558 594.44603388 3009.26963644 -2396.55438068 50.2179708673 2755.30208487 -1792.03224409 892.33719126 3351.95631059 -2412.33128276 596.794824427 4354.92624854 -3747.73382373 -79.8063594546 3637.50209543 -3001.97156229 372.730413189 4138.14401311 -4176.88537108 -331.86280167 2991.05127319 -3401.17674992 11.7456857999 3073.284065 -4127.56965366 -59.7048959658 3950.45700414 -4253.54903518 -1017.31261505 1994.98266634 -3054.89398002 31.7491813331 2016.20035521 -4195.45384739 -557.397634694 2403.59561143 -3417.00240514 345.566183603 3729.65469656 -4207.95723358 -246.485068617 3363.00452204 -4339.57286353 -3.08689210617 4039.89047895 -40.668204741 -3.48368153884 29.0559329449 -3829.13189622 -56.2405643813 3877.81202918 -1815.11822911 841.971847927 3903.16103539 -3711.15457255 200.711626421 4149.24883047 -1078.45952992 654.707341336 3549.85373624 -3466.77509667 -265.286498529 3038.57897548 -564.236891138 1643.75064366 3859.64881202 -3691.54678615 -879.958581153 920.213329858 -4036.85621615 13.6726790724 4001.08275024 -4313.05686068 -290.41845065 3555.66809038 -5547.45517211 -808.40986865 2072.93182846 -3629.41062239 47.3029950192 4299.85990696 -4081.24332436 54.0723493986 4186.97916255 -424.097778683 2137.21868205 3971.33093748 -3827.35177134 226.380639823 3863.328607 127.480007255 988.111413738 3045.56816824 -1777.33488104 -55.3663944086 1752.0621118 -40.668204741 -3.48368153884 29.0559329449 -842.543802525 746.288013847 2630.66002203 -3610.83313569 -26.1252908925 3865.86243007 -3427.89778083 203.701213174 4317.65121462 -3827.68128191 -15.840365529 3717.14383597 -3759.4871745 95.2067216493 4116.24044375 -2822.6527781 -483.624416368 4467.22414241 -4148.398793 -67.1625546284 3985.37723877 -3531.6950903 -75.1265919984 3504.72392793 -3163.83161498 990.256958048 4272.41667006 -3887.81282646 -1323.19663359 531.048700201 -3675.95556448 100.82762104 4026.04753148 -3178.34352036 -1116.76971248 100.713930903 -2931.3910512 -969.244642737 52.2673352577 -3756.50806327 -442.28554954 3670.98675346 -631.485018713 400.215590045 2067.56588676 -3093.35689139 -1262.78267996 66.8784410484 -3874.41903457 199.779305205 3642.70857434 -4403.65305011 -306.885749327 4094.63190025 -3582.94536122 416.809062517 3637.19633582 -3143.96663477 -610.638936682 321.880428778 -3800.31519344 -105.593482025 3676.6135503 -122.822901045 675.476929966 3133.60599987 -4339.93899281 -1050.58763173 3324.63709024 -3560.22247422 -487.546963373 772.976820805 -4002.74595922 -113.645218743 4159.38793943 -4053.38519566 -94.6703987948 3691.54761587 -3654.04306094 -532.40846895 3825.94746833 -4105.13611015 -668.37054984 3411.62659126 -40.668204741 -3.48368153884 29.0559329449 -1163.09943316 1141.71260475 3402.71152989 -4201.47605794 -169.154746606 3767.26799744 -3271.06558001 381.777428564 4682.862509 -2254.69051351 290.389130293 4391.80098884 -5023.57576565 -530.823225049 3805.31583341 -4098.26342167 1377.13064729 4012.36603266 -3642.1953379 -133.202114701 4663.88295053 -3474.84622543 -1059.44118264 4222.9171598 -4154.8876257 -1377.22897939 3447.43564685 -601.16339878 854.360295265 2279.38678311 512.873900592 940.998409799 1853.8862366 -4447.73324397 -1100.98173989 2956.68275396 -135.207956264 -8.240354732 385.81868576 -5180.18670001 -346.725224237 2889.61622473 -3697.40149189 52.9535236278 4799.21556811 -3890.85403023 -273.355850965 3673.34921574 -1904.46830329 1281.02809827 4820.21390258 -2935.41454067 673.593487923 3898.92868243 -4004.46403129 -376.485850514 3842.79464092 -3524.10966655 -1118.04398076 3954.03705311 -30.9642648809 193.822275999 634.030370118 -4266.77508563 -1206.53275006 3818.71207768 -3471.97938275 818.116891122 4118.06246436 -3781.74807146 864.525345436 4093.49167842 -3504.35280994 -202.499698793 3562.31833921 -4310.25115938 -1555.99086018 3858.92231093 -3721.760923 -1149.11435826 4545.68326762 -4931.962138 -2549.95497265 3237.35447413 -3848.89223702 -1610.15884399 4376.84123729 -3670.4653465 2333.08341783 4766.06178169 -3804.88743158 1285.11149995 4186.50103948 -4550.18043247 1683.07852487 4111.89653154 -4358.7415055 -1950.66501437 3872.58654131 -3556.96241865 57.1515754258 3747.46767007 -4353.54529678 916.199581538 3817.24413085 -4163.31615214 961.599394599 4212.98439458 -3316.69897861 965.64649229 4015.31677242 -3745.03202293 -41.2704592432 3607.46382545 -4194.82803887 654.077168726 4035.07746762 -2906.17922017 2343.11013325 5436.47841466 -4287.48606076 651.421204186 4042.44908698 -3813.47914121 536.038200382 4285.87041073 -4135.06565605 -1139.31241019 3744.29726257 -3846.71900792 -657.97770788 3612.52689781 -4016.31534123 -514.820733315 4268.04283044 -2669.6058346 336.428497825 4487.0921086 -3653.38043549 -75.7755851824 3400.79515155 -4104.39723612 -703.157944632 4324.85689391 -3965.38595127 234.143770467 4572.88637481 -4517.30644134 -1131.24164907 3359.00660179 -3507.02339954 702.022453504 3820.76891109 -4787.34044472 1191.6586728 3778.57821987 -5308.39345172 -23.776031502 4952.96621781 -4542.03733241 -1307.49000348 3293.57667102 -3546.70896368 319.557486079 3916.31650489 -3745.03202293 -41.2704592432 3607.46382545 -3556.96241865 57.1515754258 3747.46767007 -4856.78233882 157.122951532 5135.87398147 -3607.83628412 45.6860062339 3760.12297157 -3977.67291721 331.996984 4652.72563309 -3603.39558991 -596.14226021 4320.77189495 -3695.30767624 704.091934141 3704.5363387 -4763.46722173 -173.596652841 5209.67374322 -4796.29040046 -163.610109933 5268.52589169 -3863.7760842 -227.879782693 4440.99983261 -4159.84547603 -524.073714095 3685.50626323 -3669.65811242 60.6307873289 3871.76073685 -4764.23026351 -1435.69079149 3564.47704067 -4066.20161841 -478.464190087 3622.65524874 -4152.67559568 -88.5018806816 3616.34551777 -4169.61348571 -236.751560537 4086.45084481 -4069.96118523 -43.0523474337 3360.31829547 -3926.66204843 0.619450118214 3928.72688216 -3297.93970557 1635.36350571 5321.13878525 -3783.34372837 47.3024846889 3941.01867733 -3731.23416172 297.419820942 3928.4991103 -3926.66204843 0.619450118214 3928.72688216 -3559.97321451 -174.099751809 3920.27721943 -4194.10685903 -3.63194855904 3937.99545485 -3653.38043549 -75.7755851824 3400.79515155 -3607.83628412 45.6860062339 3760.12297157 -3649.06829257 245.361674682 4467.79052924 -3996.16964049 -4.03437151079 3982.72173545 -4294.67714005 -138.71991998 3832.27740679 -4359.04951361 -1145.93298788 3412.96811348 -5075.96492366 -531.800016779 3687.50574051 -4254.21005117 8.34608326866 4282.03032873 -1858.78255888 235.750364201 1824.74749194 -2153.55307526 102.665874644 2504.13034873 -1929.71659113 -106.574100482 1802.00060186 -3743.17254543 -606.502639129 1504.87979188</DataArray>
        <DataArray type="Float64" Name="PrincipalStrain" NumberOfComponents="3" format="ascii">-3.18132288368e-09 5.57608941713e-10 1.97508536893e-08 -4.41560469346e-08 2.55884932e-09 5.1743678112e-08 -3.3407699369e-08 5.61802401938e-10 5.76916997591e-09 -2.40722293319e-08 -9.87887136527e-10 1.52959837819e-09 -2.40753734982e-08 -2.24335462274e-09 1.86813058585e-09 -2.28005663406e-09 1.44690124112e-09 2.33159923679e-08 -5.70910508092e-08 2.77026066438e-09 4.68612732443e-08 -8.08467638001e-09 9.73537358717e-10 3.03699161225e-08 -4.59096609279e-09 2.11220221301e-09 2.60128132458e-08 -1.18811522827e-09 2.56872360572e-09 2.6064667895e-08 -5.68695144595e-08 5.78065052242e-10 6.18193032212e-08 -2.4331463089e-08 -1.65827516311e-09 2.98121705289e-08 -4.43384164342e-08 -3.95374496887e-09 5.55544445635e-08 -5.61971076137e-09 4.90004553469e-10 2.46454811036e-08 -7.21942707644e-09 -4.14720271145e-09 1.84099486411e-08 -5.91681534271e-09 4.23662352421e-10 2.61248715494e-08 -2.22973370784e-08 8.49642977153e-11 1.66120216415e-09 -5.5143766001e-08 5.1156548294e-10 4.82597664217e-08 -4.51890661073e-09 7.89030535146e-10 2.71470069708e-08 -5.02057649409e-08 -3.25994720058e-09 4.54323960977e-08 -2.57169154801e-08 -1.39391715962e-10 1.0389499404e-08 -3.9172873822e-10 1.76682345156e-09 1.49854454784e-08 -2.19429890548e-08 -1.35786062412e-10 3.79504611969e-09 -6.08988852672e-08 -1.80334348267e-10 5.90843521998e-08 -5.29769627111e-09 -4.3826703939e-09 1.2639710416e-08 -2.69250282334e-08 4.37763425267e-10 3.68580360187e-09 -3.87602506045e-09 7.2240103766e-10 2.65699996546e-08 -2.52053441088e-08 -2.77829424612e-09 3.00108114936e-09 -3.07775084528e-08 -2.28111817767e-10 9.43143480756e-09 -4.58918714962e-08 5.56812058874e-10 5.27921303869e-08 -1.0922938769e-08 -2.92568623932e-10 3.45348264655e-08 -4.8114284365e-08 -1.60607603022e-09 5.51987171813e-08 -4.96658763338e-08 -1.44818393348e-09 4.43240910995e-08 -2.53014718725e-08 5.17333865595e-10 4.75763892718e-09 -2.042219364e-08 -2.90393164439e-10 1.88608514533e-08 -5.30667749668e-08 -3.8512665285e-10 4.1949841334e-08 1.86342284371e-10 3.57012357606e-09 2.05086335162e-08 -4.98314515485e-08 -2.81007767525e-10 5.72362315138e-08 -7.762395033e-09 5.90331983949e-10 2.59950046436e-08 -7.3032254684e-09 7.18778295736e-10 7.17640097044e-09 -5.42111039303e-08 3.55181911611e-09 4.22093398256e-08 -3.95373378186e-08 1.82811501318e-09 4.39195378718e-08 -1.84025018854e-08 -2.04798422611e-09 1.25686079033e-09 3.3256216334e-10 7.02124666465e-10 1.69913441117e-08 -6.56520599706e-09 -2.4765519973e-10 7.82800029383e-09 -8.13700431051e-08 1.25037137686e-09 2.18669853163e-08 -4.11262596659e-08 5.47360991078e-10 5.03816596712e-08 -9.870242631e-09 -4.97766783041e-09 2.44982397954e-08 -5.07445796825e-08 4.66613558e-10 4.16471637862e-08 -5.3840934739e-08 -3.05905942266e-10 4.77054641292e-08 -4.22171519763e-08 -3.87440465804e-10 5.14472717341e-08 -2.39589188739e-08 -3.00583107921e-09 3.29625667579e-08 -2.45624270641e-08 3.82470711152e-10 2.82771387784e-08 -1.57360940076e-08 5.42399883786e-09 1.46629730065e-08 -2.63516328925e-08 -2.6766693406e-10 2.69504748881e-09 -6.39533946124e-08 -1.53306383351e-09 6.17778044576e-08 -6.02345038058e-08 1.88460654274e-09 4.52940703339e-08 -1.18109547292e-08 9.51508273324e-11 3.07438515059e-08 -3.19397397521e-08 3.18725933882e-09 2.70184557246e-08 -6.59965078815e-08 2.73000286705e-09 5.93991655558e-08 -4.05567388081e-08 -3.81413080899e-10 3.63046022041e-08 -5.66517427128e-08 1.20047019481e-09 4.92308477766e-08 -6.82480983741e-09 -2.37252284443e-10 1.00637125551e-08 -4.61552710961e-08 1.19412081969e-09 5.04347138935e-08 -5.23683574888e-08 2.99483946161e-10 3.26438732938e-08 -2.99516138564e-08 -9.04774337653e-11 8.21841933968e-09 -4.44939600985e-08 3.15189297931e-10 5.35070567007e-08 -5.49352949573e-08 4.3373529855e-10 4.49734248696e-08 -2.2077633082e-08 -3.69256905342e-10 2.88092154289e-08 -3.78829970735e-08 3.50395787984e-10 9.33112123209e-09 -5.93363666069e-09 1.03032154101e-09 1.71060024253e-08 -7.1086289309e-08 1.8343824046e-10 5.75070364012e-08 -1.73596787634e-08 3.11467265628e-10 1.73155806582e-08 -4.09354038717e-08 1.11203722933e-08 3.44908188049e-08 -4.08722786101e-08 2.78815863689e-09 4.75856700823e-08 -6.6453768742e-08 2.85885869912e-10 5.80552782144e-08 -2.11984804095e-08 -3.66113918028e-09 1.59977329842e-09 -6.02734471615e-08 -2.69393774292e-09 7.13975815564e-08 -2.50942216552e-08 1.68952399029e-09 2.11843102354e-08 -1.7570897102e-08 -6.43566906377e-12 1.86875383393e-08 -4.8318613905e-08 4.5190549314e-10 5.33435104805e-08 -4.44872876553e-08 2.04579207855e-09 2.12779852486e-08 -2.65045137865e-08 2.04687496635e-09 3.46110994875e-08 -6.48267619353e-08 2.57931916224e-09 6.14482890624e-08 -5.33896227686e-08 -4.17259392595e-09 4.61349939256e-08 -2.81961918089e-08 1.340053686e-09 2.39682986988e-08 -6.59062427216e-08 7.47532605947e-10 6.06959311371e-08 -5.55501145484e-08 2.67932397399e-09 4.50274314613e-08 -4.76914047409e-08 -3.96358914924e-09 5.85544039147e-08 -5.8539498425e-08 2.97781146114e-09 5.66778122979e-08 -3.16198996101e-08 1.8917432125e-09 2.08984171411e-08 -4.46432113683e-08 2.76383884676e-09 5.18708295807e-08 -4.13654598957e-08 -1.03244199808e-09 4.73562832882e-08 -5.52839530283e-08 2.52564017758e-10 5.66797658769e-08 -4.50835392166e-08 4.76103773438e-10 5.48532599219e-08 -5.82933071791e-08 1.4282383844e-09 5.68459690081e-08 -5.56140635372e-08 -1.41502530532e-09 4.16832851601e-08 -5.46035497051e-08 -2.28836196035e-09 5.51818947659e-08 -7.11221650432e-08 1.53701320314e-09 5.98447116207e-08 -5.54012491352e-08 1.12711376227e-09 4.75742953237e-08 -2.15633162566e-08 -1.48483713611e-09 2.24682509252e-08 -5.83990374802e-08 1.29215526939e-09 4.80541470287e-08 -2.57793701612e-08 2.93868554705e-10 6.06130884951e-08 -1.68000516322e-08 -1.61168704497e-09 1.3488003479e-08 -2.04542313904e-08 -4.40712392414e-10 1.98565700005e-08 -5.81565643229e-08 -8.29018170401e-10 5.65260873692e-08 -5.63460569085e-08 4.12586000966e-10 5.7155817888e-08 -6.58294329861e-08 -1.65573025017e-09 6.48530242255e-08 -5.99605459153e-08 -1.18385452528e-09 6.53184131517e-08 -2.16311029979e-08 -1.35549780907e-09 2.42601149546e-08 -6.57607981686e-08 8.65941079081e-10 6.40927394341e-08 -4.616661293e-08 1.87832049198e-09 5.762196385e-08 -5.3131914149e-08 -4.43147087992e-09 4.50780269132e-08 -6.65059296888e-08 7.62528479558e-10 5.79962000439e-08 -4.85989141321e-08 7.0632985206e-10 4.63890702846e-08 -6.23444265005e-08 1.04527452903e-09 6.37864781031e-08 -3.97342777512e-08 -1.47335007556e-09 5.5825405587e-08 -1.96090903572e-08 7.22516909083e-10 2.21098849891e-08 -4.87663863346e-08 -1.59563840764e-09 4.55712715234e-08 -4.7254263525e-08 1.22418341815e-09 4.21621725422e-08 -2.49887255313e-08 -6.87280814203e-09 4.95826034067e-08 -5.73434216871e-08 1.85726263981e-09 6.23120872728e-08 -6.4714675765e-08 -1.03221683903e-10 6.56925971127e-08 -5.85676723399e-08 4.4560048461e-09 5.94140891868e-08 -5.52354596117e-08 3.10149555683e-09 5.81749473658e-08 -4.06401539731e-08 -1.66326933794e-10 3.6148770469e-08 -7.00160357428e-08 -1.7250051655e-09 5.44049068432e-08 -4.61003168795e-08 1.16407532887e-09 5.40750019442e-08 -5.78209841068e-08 3.6811135952e-09 4.12928881174e-08 -3.53293405121e-08 -2.04112925689e-09 2.82108922904e-08 -5.8582805889e-08 1.33737193703e-09 6.0415888997e-08 -6.33051716553e-08 1.3057964225e-09 6.11485273686e-08 -5.97406019066e-08 -4.96105549088e-09 6.94597873168e-08 -6.6267990009e-08 -1.60288547468e-09 7.71119289251e-08 -4.55685349798e-08 1.320385791e-09 5.66221065155e-08 -4.60206881882e-08 3.24635362397e-09 6.68510638685e-08 -6.88088099324e-08 4.33741239014e-10 6.53489274471e-08 -5.91240081105e-08 2.60962460639e-10 4.60237879926e-08 -5.88658751e-08 1.54382715599e-09 4.69019487168e-08 -6.03145716112e-08 1.79293590336e-09 5.87924162238e-08 -5.86621298527e-08 -2.48919799922e-09 6.1527823742e-08 -5.03005185486e-08 3.34303388272e-11 6.56358661577e-08 -6.0571639465e-08 -8.98226333799e-10 6.08573010782e-08 -6.12579283351e-08 -2.84268922822e-09 5.795564837e-08 -5.56928151204e-08 4.95789426338e-10 5.85518419351e-08 -4.91631115533e-08 -9.54870747061e-11 5.98743887747e-08 -4.92411752237e-08 -2.17000943525e-09 5.7848638055e-08 -3.50465072432e-08 -3.31315014182e-09 3.07332528169e-08 -5.65178867195e-08 -3.44547581424e-09 6.91816947532e-08 -1.7924511133e-08 3.56504507101e-10 2.01897964946e-08 -4.09163277727e-08 -5.02626552796e-10 3.25956806865e-08 -2.95721750985e-08 -3.16364976504e-09 3.60265034169e-08 -4.90026692e-08 5.05852935034e-09 5.60164217763e-08 -1.92922506581e-08 -1.33658543549e-09 3.42007541098e-08 -6.37287755889e-08 -3.68338462468e-09 7.06953295476e-08 -6.04165622465e-08 2.49068772125e-10 5.00121189359e-08 -6.08087851358e-08 3.26861673245e-09 5.88338586199e-08 -5.92244927162e-08 1.72827907516e-09 3.42946064969e-08 -6.58210262395e-08 4.73789962342e-09 5.59010700212e-08 -5.56825364539e-08 4.44460233346e-09 6.07323171766e-08 -5.28544891708e-08 7.73061700257e-10 5.18465360354e-08 -3.53867394984e-08 -4.59762587938e-10 4.4316689278e-08 -5.52899648659e-08 -5.0583825208e-10 5.71190060012e-08 -5.96276913331e-08 -1.13865612418e-09 5.83429620459e-08 -5.1438633539e-08 -4.29665892876e-09 3.80327235475e-08 -3.60180693943e-08 -5.20003955886e-09 4.90082673687e-08 -4.58106626038e-08 4.97593889079e-09 4.03425869436e-08 -6.31372420721e-08 -6.46640223094e-11 6.63539485516e-08 -5.97102461486e-08 1.19548047641e-09 5.82564560117e-08 -5.89708456885e-08 -4.83386371192e-09 5.88255230408e-08 -5.70760577854e-08 -3.6399276514e-09 5.24363016576e-08 -5.91122784306e-08 3.13552073914e-09 4.62544198607e-08 -6.13619701928e-08 -2.07267222265e-09 5.9987878561e-08 -3.8780602553e-08 -1.38925090293e-08 2.56866548367e-08 -5.88940372024e-08 -6.09403860658e-10 6.22523265881e-08 -4.21515514748e-08 1.49982740292e-09 3.7496176647e-08 -6.66126095896e-08 1.0785475924e-09 6.84425853676e-08 -6.30344123217e-08 -3.6204773457e-10 6.74316370979e-08 -6.69266278876e-08 5.91314508184e-10 6.74231338994e-08 -4.80997304647e-08 3.13483901416e-09 5.77673851319e-08 -5.38892789518e-08 -2.63853237605e-09 5.3359112263e-08 -6.43713432697e-08 1.52299732138e-08 5.46523356155e-08 -2.38956744707e-08 -7.39663501067e-10 3.85012200406e-08 -4.04776299675e-08 -7.17579254873e-10 4.32400375976e-08 -3.83165036831e-08 5.30449964137e-09 4.52733103305e-08 -4.87230950581e-08 1.75204183671e-10 6.12448398255e-08 -6.01880318066e-08 -5.84210512036e-10 5.98220518798e-08 -5.44404236272e-08 3.98483474282e-10 6.1586454473e-08 -6.21830239066e-08 2.98592846196e-10 5.42959465627e-08 -5.40835709396e-08 1.37641864096e-09 5.1126417303e-08 -6.61849410763e-08 -8.2138763872e-11 6.50829921128e-08 -5.68356256321e-08 -4.24678380496e-09 4.47030145176e-08 -4.58659855123e-08 4.2919658597e-09 3.65392974352e-08 -5.93664155052e-08 -2.48002048827e-10 4.78681382008e-08 -5.79946083648e-08 3.14713120222e-09 5.81385695377e-08 -6.428641337e-08 8.75093105341e-11 5.87417151588e-08 -6.93826742448e-08 1.08522279083e-09 6.67836050705e-08 -6.04248502036e-10 0 5.28768735361e-10 -6.21950416958e-08 -8.85557553358e-10 6.3042797092e-08 -4.04832261763e-08 2.69448757555e-09 5.24388118718e-08 -6.27017838703e-08 8.66041863062e-10 6.50297714289e-08 -2.92478481649e-08 -1.08388650699e-09 4.59622424101e-08 -5.3734535497e-08 -1.71034577712e-09 5.19774681755e-08 -2.7690709098e-08 8.18908834242e-09 4.41974335783e-08 -4.62952901345e-08 -6.06981803333e-10 2.86458117506e-08 -6.55160355618e-08 3.05058985574e-10 6.51004726421e-08 -6.61578969075e-08 -7.90022744482e-10 6.17088835472e-08 -7.40851470007e-08 2.92433918059e-09 4.97461417586e-08 -6.16694936622e-08 -1.92289737941e-09 6.71811524396e-08 -6.69194847243e-08 2.79394974262e-10 6.7439130688e-08 -2.82082833068e-08 1.34131091802e-08 4.32174333308e-08 -6.31783068173e-08 2.69484486405e-09 6.17952493307e-08 -1.35327983417e-08 4.52462013622e-10 3.38861342742e-08 -2.85792949532e-08 -5.97307045448e-10 2.87734061804e-08 -6.04248502036e-10 0 5.28768735361e-10 -2.31953526661e-08 2.62316434996e-09 3.32442094829e-08 -5.95344284681e-08 -1.28292599008e-09 6.19618744756e-08 -5.98037938646e-08 -7.90310212044e-10 6.60613773115e-08 -6.1725904038e-08 2.16510853158e-10 6.08775041275e-08 -6.27865165516e-08 -1.4774073907e-10 6.51940572451e-08 -5.0221658699e-08 -1.22124478207e-08 6.82388412594e-08 -6.6548289978e-08 -2.28201104475e-10 6.56255705382e-08 -5.70071786386e-08 -8.37940541084e-10 5.73346304078e-08 -5.92829212927e-08 8.22101801906e-09 6.15561133392e-08 -4.56271055805e-08 -3.95209244645e-09 2.61793942277e-08 -6.1425226378e-08 -5.24996132574e-11 6.37323239315e-08 -3.59190848237e-08 -2.41851044548e-09 1.73655987594e-08 -3.32037232369e-08 -1.31884409944e-09 1.5280725543e-08 -5.90639803056e-08 -5.20786445745e-09 6.16328104663e-08 -1.7147743272e-08 -3.82608379633e-10 2.67118339421e-08 -3.41823202464e-08 -4.43548931079e-09 1.71715039057e-08 -6.28395674804e-08 3.36615554093e-09 5.93137561643e-08 -6.92497111924e-08 -2.6772425546e-09 6.88474192511e-08 -5.9989337259e-08 5.0066721267e-09 5.73379653179e-08 -3.82167385299e-08 2.94983656393e-09 1.81032762526e-08 -6.08952651741e-08 -8.56037363535e-10 6.06048269118e-08 -1.581934725e-08 -2.84697499602e-09 3.70976223899e-08 -6.27769228796e-08 -9.32496326203e-09 6.17724384701e-08 -4.55731428931e-08 4.35783415814e-09 2.4841345651e-08 -6.52058596928e-08 -2.00797266007e-09 6.74288161602e-08 -6.41556045098e-08 1.73510939275e-10 6.16995536776e-08 -5.80263095094e-08 -7.29974738957e-09 6.35235365912e-08 -6.16014115322e-08 -5.75397117719e-09 6.05459823658e-08 -6.04248502036e-10 0 5.28768735361e-10 -3.15803334194e-08 5.87286219666e-09 4.26140947301e-08 -6.60113754149e-08 -4.861541057e-10 6.3480715485e-08 -5.98807195159e-08 -5.22020626669e-10 6.93706119304e-08 -4.57418443656e-08 -4.38430015383e-09 6.22636425475e-08 -7.5074044352e-08 -2.0668155672e-09 6.83954441327e-08 -7.14389053207e-08 1.75362482999e-08 6.03588233122e-08 -6.25174948581e-08 -5.49635498114e-09 7.24562773289e-08 -5.52986127323e-08 -1.60482807869e-08 6.97900422778e-08 -5.96993703243e-08 -1.45624173216e-08 6.38383828547e-08 -1.92660940287e-08 4.38616599958e-09 2.75428464271e-08 -4.06989366659e-09 2.88712960801e-09 1.77215567935e-08 -6.25555443524e-08 -8.17083241112e-09 5.77662156141e-08 -3.10601819466e-09 -1.04279466976e-09 5.36066473824e-09 -7.4288175002e-08 4.25557397933e-09 5.68461225251e-08 -6.44131527426e-08 -3.46988374049e-09 7.36568744824e-08 -6.13856504957e-08 -2.60130508273e-09 6.15326522512e-08 -4.66855112943e-08 5.07880523103e-09 6.25905745511e-08 -5.38396398971e-08 4.80674056744e-09 5.72184374781e-08 -6.30544583552e-08 -4.09981291753e-09 6.44634950683e-08 -5.46863448531e-08 -1.55877774592e-08 6.68335393413e-08 -3.49150073395e-09 1.61280555345e-10 7.31466208478e-09 -6.31303610489e-08 -1.3401423096e-08 6.82588053548e-08 -6.19104148674e-08 7.80364958296e-09 6.14277651481e-08 -6.58644147327e-08 9.63752829185e-09 6.21082312028e-08 -5.64037300258e-08 -2.74861696967e-09 5.84296761478e-08 -6.25141324326e-08 -1.77574025706e-08 7.02349364599e-08 -5.92591449476e-08 -1.74536382706e-08 7.50868231499e-08 -6.42272748556e-08 -2.55196584186e-08 6.85241200916e-08 -5.84862119377e-08 -2.21067943009e-08 7.518195702e-08 -7.25026113294e-08 2.50550560909e-08 6.45909545036e-08 -6.80796399177e-08 1.46328427198e-08 6.17804227372e-08 -7.86084118674e-08 2.26820461893e-08 6.21503387978e-08 -6.16914745447e-08 -2.25602315639e-08 7.20676062159e-08 -5.87293524037e-08 0 5.99676365379e-08 -7.21697301311e-08 1.34636241415e-08 6.06055980677e-08 -7.14461411112e-08 1.18337365233e-08 6.46687427731e-08 -6.01373494753e-08 9.45076442685e-09 5.9007906479e-08 -6.01861254099e-08 0 5.92919321263e-08 -7.00196803721e-08 8.77502925126e-09 6.37162841083e-08 -6.55006973068e-08 1.98002546863e-08 7.00674892592e-08 -7.11955893514e-08 9.06165370401e-09 6.41658567994e-08 -6.57506465568e-08 4.92901024408e-09 6.58637836622e-08 -6.1457013897e-08 -1.27760236519e-08 6.65826335306e-08 -5.91635470612e-08 -7.3465009356e-09 6.20491989069e-08 -6.42785246296e-08 -7.37923725096e-09 7.034229566e-08 -5.14582752066e-08 -2.61021730468e-09 6.48380663704e-08 -5.81360788175e-08 0 5.64942744719e-08 -6.48863365113e-08 -9.6161980246e-09 7.20890431016e-08 -6.75936874357e-08 6.48670542565e-10 7.11532378632e-08 -6.48204490894e-08 -9.79689621511e-09 6.31696378614e-08 -6.07982601115e-08 7.59873500048e-09 5.82783649363e-08 -7.84801439066e-08 1.86785917532e-08 6.07160343931e-08 -8.48393813452e-08 1.03565173338e-09 8.19077132847e-08 -6.42232916584e-08 -1.16618975633e-08 6.31054358973e-08 -6.02183895121e-08 2.60844029646e-09 6.10557743521e-08 -6.01861254099e-08 0 5.92919321263e-08 -5.87293524037e-08 0 5.99676365379e-08 -8.0558517734e-08 9.17443234235e-10 8.18221474707e-08 -5.93697372183e-08 0 6.03596006867e-08 -6.84136212792e-08 1.61851461546e-09 7.18303551631e-08 -5.90098060041e-08 -1.01419393965e-08 6.97579156249e-08 -6.27237019761e-08 8.76654169254e-09 5.75237632666e-08 -7.84286293606e-08 -3.84323261608e-09 8.36349113199e-08 -7.90970641873e-08 -3.81600946627e-09 8.44562005601e-08 -6.40964012396e-08 -5.0130863402e-09 7.08562074084e-08 -6.38534405096e-08 -4.7721493782e-09 6.36335252533e-08 -6.06171946208e-08 0 6.19308616796e-08 -6.75358267283e-08 -1.34470603079e-08 6.78056669646e-08 -6.26182367001e-08 -4.31750348981e-09 6.23256873911e-08 -6.51378585851e-08 9.04964283628e-10 6.11087345085e-08 -6.65565408874e-08 -2.64753460332e-09 6.76045044835e-08 -6.33142621206e-08 2.12300649368e-09 5.74277794409e-08 -6.38183243515e-08 0 6.38317457707e-08 -6.73111299108e-08 1.28550472725e-08 7.27488955652e-08 -6.22480009621e-08 0 6.32728881304e-08 -6.24876230137e-08 2.97800420461e-09 6.19830426567e-08 -6.38183243515e-08 0 6.38317457707e-08 -5.8547830685e-08 -3.52738691607e-09 6.30062388666e-08 -6.71801988865e-08 9.15018408692e-10 6.49664637141e-08 -5.81360788175e-08 0 5.64942744719e-08 -5.93697372183e-08 0 6.03596006867e-08 -6.32876744219e-08 -3.18745397817e-12 6.86112814326e-08 -6.48721981208e-08 0 6.47847867381e-08 -6.75343048262e-08 0 6.452870656e-08 -6.29895006411e-08 -1.07763570981e-08 6.33057857991e-08 -7.52834580097e-08 -1.44077827294e-09 6.7122940283e-08 -6.92665371846e-08 0 6.94473689887e-08 -3.09616489466e-08 3.07451105355e-09 2.88957143793e-08 -3.66948992785e-08 -3.13413424592e-11 3.89924563615e-08 -3.04793067693e-08 -8.53241296252e-10 3.01610976167e-08 -5.01585711407e-08 8.12314836708e-10 3.51222793406e-08</DataArray>
        <DataArray type="Float64" Name="ShellTopVonMises" format="ascii">0 0 0 0 0 0 0 0 0 0 0 0 0 0 0 0 0 0 0 0 0 0 0 0 0 0 0 0 0 0 0 0 0 0 0 0 0 0 0 0 0 0 0 0 0 0 0 0 0 0 0 0 0 0 0 0 0 0 0 0 0 0 0 0 0 0 0 0 0 0 0 0 0 0 0 0 0 0 0 0 0 0 0 0 0 0 0 0 0 0 0 0 0 0 0 0 0 0 0 0 0 0 0 0 0 0 0 0 0 0 0 0 0 0 0 0 0 0 0 0 0 0 0 0 0 0 0 0 0 0 0 0 0 0 0 0 0 0 0 0 0 0 0 0 0 0 0 0 0 0 0 0 0 0 0 0 0 0 0 0 0 0 0 0 0 0 0 0 0 0 0 0 0 0 0 0 0 0 0 0 0 0 0 0 0 0 0 0 0 0 0 0 0 0 0 0 0 0 0 0 0 0 0 0 0 0 0 0 0 0 0 0 0 0 0 0 0 0 0 0 0 0 0 0 0 0 0 0 0 0 0 0 0 0 0 0 0 0 0 0 0 0 0 0 0 0 0 0 0 0 0 0 0 0 0 0 0 0 0 0 0 0 0 0 0 0 0 0 0 0 0 0 0 0 0 0 0 0 0 0 0 0 0 0 0 0 0 0 0 0 0 0 0 0 0 0 0 0 0 0 0 0 0 0 0 0 0 0 0 0 0 0 0 0 0 0 0 0 0 0 0 0 0 0 0 0 0 0 0 0 0 0 0 0 0</DataArray>
        <DataArray type="Float64" Name="ShellBottomVonMises" format="ascii">0 0 0 0 0 0 0 0 0 0 0 0 0 0 0 0 0 0 0 0 0 0 0 0 0 0 0 0 0 0 0 0 0 0 0 0 0 0 0 0 0 0 0 0 0 0 0 0 0 0 0 0 0 0 0 0 0 0 0 0 0 0 0 0 0 0 0 0 0 0 0 0 0 0 0 0 0 0 0 0 0 0 0 0 0 0 0 0 0 0 0 0 0 0 0 0 0 0 0 0 0 0 0 0 0 0 0 0 0 0 0 0 0 0 0 0 0 0 0 0 0 0 0 0 0 0 0 0 0 0 0 0 0 0 0 0 0 0 0 0 0 0 0 0 0 0 0 0 0 0 0 0 0 0 0 0 0 0 0 0 0 0 0 0 0 0 0 0 0 0 0 0 0 0 0 0 0 0 0 0 0 0 0 0 0 0 0 0 0 0 0 0 0 0 0 0 0 0 0 0 0 0 0 0 0 0 0 0 0 0 0 0 0 0 0 0 0 0 0 0 0 0 0 0 0 0 0 0 0 0 0 0 0 0 0 0 0 0 0 0 0 0 0 0 0 0 0 0 0 0 0 0 0 0 0 0 0 0 0 0 0 0 0 0 0 0 0 0 0 0 0 0 0 0 0 0 0 0 0 0 0 0 0 0 0 0 0 0 0 0 0 0 0 0 0 0 0 0 0 0 0 0 0 0 0 0 0 0 0 0 0 0 0 0 0 0 0 0 0 0 0 0 0 0 0 0 0 0 0 0 0 0 0 0 0</DataArray>
      </CellData>
    </Piece>
  </UnstructuredGrid>
</VTKFile>
