$MeshFormat
4.1 0 8
$EndMeshFormat
$PhysicalNames
3
2 2 "x_min"
2 3 "x_max"
3 1 "domain"
$EndPhysicalNames
$Entities
2 3 3 1
1 3 1.224606353822377e-16 0.5 0 
2 0 1.224606353822377e-16 0.5 0 
1 2.9999999 -0.5000000999999999 -0.5000000999999999 3.0000001 0.5000000999999999 0.5000000999999999 0 2 1 -1 
2 -1.000000000583867e-07 -9.999999987753936e-08 0.4999999 3.0000001 1.000000001224606e-07 0.5000000999999999 0 2 2 -1 
3 -1e-07 -0.5000000999999999 -0.5000000999999999 1e-07 0.5000000999999999 0.5000000999999999 0 2 2 -2 
1 -1.000000000583867e-07 -0.5000000999999999 -0.5000000999999999 3.0000001 0.5000000999999999 0.5000000999999999 0 4 -1 -2 3 2 
2 2.9999999 -0.5000000999999999 -0.5000000999999999 3.0000001 0.5000000999999999 0.5000000999999999 1 3 1 1 
3 -1e-07 -0.5000000999999999 -0.5000000999999999 1e-07 0.5000000999999999 0.5000000999999999 1 2 1 3 
1 -1.000000000583867e-07 -0.5000000999999999 -0.5000000999999999 3.0000001 0.5000000999999999 0.5000000999999999 1 1 3 1 2 -3 
$EndEntities
$Nodes
9 200 1 200
0 1 0 1
1
3 1.224606353822377e-16 0.5
0 2 0 1
2
0 1.224606353822377e-16 0.5
1 1 0 10
3
4
5
6
7
8
9
10
11
12
3 -0.2703204087277984 0.4206267664155909
3 -0.4548159976772588 0.2077075065009439
3 -0.4949107209404665 -0.07115741913664161
3 -0.3778747871771299 -0.3274303669726417
3 -0.1408662784207168 -0.4797464868072481
3 0.1408662784207124 -0.4797464868072494
3 0.3778747871771274 -0.3274303669726446
3 0.4949107209404658 -0.07115741913664657
3 0.4548159976772604 0.2077075065009406
3 0.2703204087278002 0.4206267664155897
1 2 0 10
13
14
15
16
17
18
19
20
21
22
0.272727272727273 1.224606353822377e-16 0.5
0.5454545454545461 1.224606353822377e-16 0.5
0.8181818181818185 1.224606353822377e-16 0.5
1.090909090909091 1.224606353822377e-16 0.5
1.363636363636364 1.224606353822377e-16 0.5
1.636363636363638 1.224606353822377e-16 0.5
1.909090909090912 1.224606353822377e-16 0.5
2.181818181818186 1.224606353822377e-16 0.5
2.454545454545458 1.224606353822377e-16 0.5
2.727272727272729 1.224606353822377e-16 0.5
1 3 0 10
23
24
25
26
27
28
29
30
31
32
0 -0.2703204087277984 0.4206267664155909
0 -0.4548159976772588 0.2077075065009439
0 -0.4949107209404665 -0.07115741913664161
0 -0.3778747871771299 -0.3274303669726417
0 -0.1408662784207168 -0.4797464868072481
0 0.1408662784207124 -0.4797464868072494
0 0.3778747871771274 -0.3274303669726446
0 0.4949107209404658 -0.07115741913664657
0 0.4548159976772604 0.2077075065009406
0 0.2703204087278002 0.4206267664155897
2 1 0 127
33
34
35
36
37
38
39
40
41
42
43
44
45
46
47
48
49
50
51
52
53
54
55
56
57
58
59
60
61
62
63
64
65
66
67
68
69
70
71
72
73
74
75
76
77
78
79
80
81
82
83
84
85
86
87
88
89
90
91
92
93
94
95
96
97
98
99
100
101
102
103
104
105
106
107
108
109
110
111
112
113
114
115
116
117
118
119
120
121
122
123
124
125
126
127
128
129
130
131
132
133
134
135
136
137
138
139
140
141
142
143
144
145
146
147
148
149
150
151
152
153
154
155
156
157
158
159
1.500000000000001 -0.2295063047302501 0.4442148760330585
1.22790311124395 0.2294873186202386 0.4442246848076917
2.758281565036067 0.2697087757553805 -0.4210192112962707
0.2614826664352521 -0.2952923201610931 -0.4034878506893094
2.756854528334049 -0.4548159976772596 -0.2077075065009422
2.045795754799987 0.2287208999961536 0.444619781279409
0.2361405895006487 0.4549839219046284 -0.2073394096844182
2.041056904038267 -0.2473617555011017 0.4345252143609312
0.9545454545454546 -0.2295063047303774 0.4442148760329928
2.753735105830509 0.4983496032772145 0.04059153746094005
0.249053977759651 -0.4952008684463654 0.06910933287165716
0.6837960092318603 0.2278577439021374 0.4450627467490713
2.590909090909093 -0.2295063047301623 0.4442148760331039
0.2733510649823532 0.3904682108581435 0.3123052614178
0.4419158885737497 -0.2493569693579012 0.4333833197443606
2.581274108943675 0.219923560864828 0.4490363319114994
0.9550269263236668 0.2292521302947278 0.4443461046924223
1.090627561508638 0.4083551857010072 0.2885239024952629
1.365284568283765 0.4082670159317804 0.2886486509619599
1.228031558236153 0.4954695471069898 0.06715599667635352
1.503472703577051 0.4954620891566851 0.06721099767517993
0.9528480588596473 0.4954693244940739 0.06715763906947694
1.090670099454315 0.4698935766421966 -0.170880152827659
0.8339694080180798 0.4666678787128906 -0.1795023425407334
0.955011639384465 0.3351471122076368 -0.371047723586713
1.228926350906943 0.3367381863407629 -0.3696043747846252
0.7036523751316094 0.3404307873961338 -0.3662060608357655
0.8134886325951503 0.1252526193042339 -0.484057621939195
0.6740774127744897 0.4959758652377201 0.06330830199661736
0.5107271134396701 0.1339680212789991 -0.4817183505686592
0.6810613414742658 -0.1190424314458752 -0.4856221777425884
0.9535058061858335 -0.1164836246415054 -0.486242290623077
0.8147566816815075 -0.3297913457892251 -0.3758160031751332
1.090874572299989 -0.3292010605474373 -0.376333179157037
0.9521811862476108 -0.4666759510190023 -0.1794813548547863
1.229029586235225 -0.4666017850133606 -0.1796740777695703
1.367364819360178 -0.3295435076998116 -0.3760333449747565
1.505579597361725 -0.4666460705792429 -0.1795590287703525
1.643899022650085 -0.3296972731459199 -0.3758985342883697
1.7820670321888 -0.4667795233624102 -0.1792118203957572
1.92095907209496 -0.3297004590806512 -0.3758957399093635
1.782471633516207 -0.1164748795024729 -0.4862443855150252
2.06028644174316 -0.1164554810926355 -0.4862490317969618
1.921439376470979 0.1241743229218414 -0.4843353564699797
2.058780632777006 -0.4667856003946263 -0.1791959912057975
2.199695242842403 0.1241137688008212 -0.4843508773544818
2.060563701957356 0.3362495142411808 -0.3700490023936964
2.338761278455509 -0.1170965218591178 -0.4860950571323444
1.782841905078454 0.3359067003540716 -0.3703602147332242
1.920805295349744 0.470105826343669 -0.1702953670471869
2.199146096088092 0.4701203983122121 -0.1702551352845695
0.6751020275226202 -0.4667150662159989 -0.1793796169217555
1.638092137632333 0.4074834229370995 0.2897537920916046
1.643509014792261 -0.4967971224228664 0.05650326674060046
0.8140384028330215 -0.4967567019574464 0.05685753301332043
2.054691450034357 0.4952953618505553 0.06842882820367101
2.310553837031731 0.4937475728581652 0.07882470613120546
2.496265485493658 0.4799920868724626 -0.1400271278710604
2.515448054770689 0.1354611039250899 -0.4813006226085688
2.571514577273971 -0.1200836646322462 -0.485365752282225
2.50474971197698 -0.3482187450751119 -0.3588087311901903
0.5417158740734216 -0.496917062589899 0.05543855072985215
0.675276697513654 -0.4118319177626596 0.2835391886705081
0.4120341844148593 -0.4628458943259218 -0.1891393087267628
1.778625571789686 0.4953661439559088 0.06791453027337986
2.756773121004258 0.448178028645732 -0.2216674415407581
1.090698913113544 -0.496870627687286 0.05585319455181108
1.367356147154342 -0.4969303496074324 0.05531932428216174
1.229422371887019 -0.4133106751043737 0.2813792562446045
1.229074954158716 -0.1159915022233815 -0.4863599196191677
1.090580623323729 0.1245680236180936 -0.4842342485738509
1.920378515322048 -0.4967824800106259 0.05663185988904202
2.16131904360415 -0.4948660389823574 0.07146749933999302
1.781346123950607 -0.4126833413629591 0.2822985295064488
2.204392363119522 -0.3340118986144902 -0.3720699552287762
1.50083925686327 0.2293228930079488 0.4443095888482094
2.332898764383729 0.3443774940486736 -0.3624970918404116
1.505446727157166 -0.1164295675636595 -0.4862552372951259
1.643097715124984 0.1236363666121232 -0.4844729598759385
1.505955654443774 0.3354803019173421 -0.370746499680643
1.643328648973908 0.4698219259188478 -0.1710770525988354
1.36737896146759 0.4697141933725169 -0.1713726248395753
2.316670779394252 0.2273877825372536 0.4453030387868364
0.8174034728310976 0.4081123330824267 0.2888673113836496
1.367217052458973 0.1241481015296106 -0.4843420783770429
2.318181818181822 -0.2295063047303767 0.4442148760329931
2.46294990440526 -0.4066403420619131 0.2909357870867217
2.749336557167232 -0.3994418135006801 0.3007428097682268
2.593196521850849 -0.4960270599110624 0.06290592846455173
0.5407049764000494 -0.3274809803010514 -0.3778309245430585
1.773153724600475 0.2286154585275787 0.4446740065736078
2.308989713529312 -0.4723721414976083 -0.1639041181208196
1.912109101923547 0.4074488597339 0.2898023925048664
0.2399746360119167 0.4966474077136401 0.05780443245393294
0.2360951015843275 0.2675289676850537 -0.4224076839374131
0.2432200914499744 0.001143445101731213 -0.4999986925315899
2.182298006088257 0.4069659864809905 0.290480095441244
2.453005288509464 0.397499589522488 0.3033052527231493
0.2257864971438373 -0.3781951522726983 0.3270602800668869
2.743552880091156 0.3898131749442535 0.3131224818499636
0.4233379575324307 0.2205691893554471 0.4487195479440147
0.5530600164058187 0.3984051808850047 0.3021147329144785
1.227272727272728 -0.2184598355959274 0.4497502642927521
1.504648712815427 -0.434738876390324 0.2469860509317855
0.9527164747991067 -0.434493904706944 0.2474167471544985
1.772727272727275 -0.2179719278406892 0.4499869316695913
2.030187376846448 -0.4261956799785381 0.2614521798869376
0.6818181818181823 -0.2171921651646667 0.4503638122574727
0.4367170891576353 0.4933217083494199 -0.08144748044727917
2.770655281716527 -0.2880059776389566 -0.4087206342285997
0.4489842115956499 0.3797028115299487 -0.3253087378418419
0.4362116624566134 -0.1389547195781283 -0.4803036392814068
2.778332261836931 0.03927291862379965 -0.498455251615196
0.4344899506793936 -0.4302628591544967 0.2547034982723986
2.822729679340986 -0.4949107209404662 0.07115741913664343
2.561956992288597 0.3592313378955658 -0.3477827567228741
0.1798732244169073 -0.4558498642072615 -0.2054285795653109
0.2030349900777332 0.2012141748525426 0.4577257430366031
2.550264079423728 -0.4775397239467012 -0.1481749373305365
0.1951672249657111 -0.1979686649216229 0.4591387673777397
2.801986847529868 0.1966425044748894 0.4597083047257718
2.80198684752957 -0.1966425044745801 0.4597083047259041
2.545145149941424 0.4854581198139891 0.1197097068188983
0.6089380958810264 0.4541921756357843 -0.2090680931927033
2.243716543657062 -0.3945574685562945 0.307122783274782
2.382718605402871 -0.494235068859966 0.07570796991720634
0.4458228645250947 0.4825956337456094 0.1307725288035437
2 2 0 8
160
161
162
163
164
165
166
167
3 0.2264573772380803 -0.09702387432968609
3 -0.1977067185595857 0.1772775786721551
3 -0.1412102537593785 -0.2197274438251612
3 0.2435852227404341 0.1263725091133394
3 -0.003234319200987221 0.0008442704110419343
3 0.007107364163310507 0.2742913151712861
3 -0.2784040182518688 -0.04002845478559854
3 0.07664793190913957 -0.2671383980551579
2 3 0 8
168
169
170
171
172
173
174
175
0 0.2264573772380803 -0.09702387432968609
0 -0.1977067185595857 0.1772775786721551
0 -0.1412102537593785 -0.2197274438251612
0 0.2435852227404341 0.1263725091133394
0 -0.003234319200987221 0.0008442704110419343
0 0.007107364163310507 0.2742913151712861
0 -0.2784040182518688 -0.04002845478559854
0 0.07664793190913957 -0.2671383980551579
3 1 0 25
176
177
178
179
180
181
182
183
184
185
186
187
188
189
190
191
192
193
194
195
196
197
198
199
200
1.978815132292387 0.001041043642202033 0.001320383063913466
1.1592824517842 9.731736437776271e-05 9.670742910400376e-05
0.6155104372924143 0.0003425425996227416 0.003649714813289351
2.479015971236505 0.000215005926232281 0.0003965946983779389
1.568896446083342 0.02125082357903635 0.08678910106558363
0.3261046166474996 -0.1503607824422865 0.09656473390899128
0.3271047635283055 0.1778954205231216 -0.02013062537492111
1.723916563168534 -0.09512349447934593 -0.1703317679104066
1.415379194581016 -0.007118486914609576 -0.1945551685066084
0.8885908708032704 0.04293077741046403 0.1817269883740045
0.886612130323389 -0.1513239179196831 -0.1077031850950874
2.229403989103912 0.1209616003470332 0.1577306692059417
2.227637330129453 -0.1842217901497983 0.06963237627128427
1.756895364893294 0.1979191147302717 -0.08145363086649535
0.9120722865416774 0.1635541741215926 -0.1093015436172228
2.701729155606674 -0.1180679970798977 0.1784900006646439
2.228804626202747 0.1164033326315649 -0.1627285788065986
1.359623022810569 0.2277343586597628 0.01158226002339122
1.377971416896802 -0.2002403183631429 0.02931629567512619
2.703639868827243 0.1563054810976619 -0.1403399062236247
2.713857743184169 -0.1452760096123775 -0.1223301659740446
0.2976839676224712 -0.07019201271052225 -0.1982027706834879
1.810791552491141 -0.03438307161239726 0.2319690002778397
1.323934762963813 0.04613244094962856 0.2245182188307696
1.836954830803915 -0.2332863723484419 0.04123421822497973
$EndNodes
$Elements
3 635 1 635
2 2 2 25
1 3 165 1 
2 1 165 12 
3 4 161 3 
4 161 165 3 
5 5 166 4 
6 4 166 161 
7 6 166 5 
8 7 162 6 
9 162 166 6 
10 8 167 7 
11 7 167 162 
12 9 167 8 
13 10 160 9 
14 160 167 9 
15 11 163 10 
16 10 163 160 
17 12 163 11 
18 12 165 163 
19 163 164 160 
20 164 167 160 
21 164 165 161 
22 161 166 164 
23 164 166 162 
24 162 167 164 
25 163 165 164 
2 3 2 25
26 23 2 173 
27 2 32 173 
28 24 23 169 
29 169 23 173 
30 25 24 174 
31 24 169 174 
32 26 25 174 
33 27 26 170 
34 170 26 174 
35 28 27 175 
36 27 170 175 
37 29 28 175 
38 30 29 168 
39 168 29 175 
40 31 30 171 
41 30 168 171 
42 32 31 171 
43 32 171 173 
44 171 168 172 
45 172 168 175 
46 172 169 173 
47 169 172 174 
48 172 170 174 
49 170 172 175 
50 171 172 173 
3 1 4 585
51 48 179 132 191 
52 133 178 14 181 
53 102 103 64 177 
54 132 191 179 195 
55 73 77 107 176 
56 77 107 176 188 
57 48 130 132 179 
58 75 73 107 176 
59 178 181 133 182 
60 107 188 179 192 
61 75 176 107 192 
62 176 188 107 192 
63 102 177 64 186 
64 103 64 177 186 
65 177 190 50 193 
66 66 184 177 194 
67 52 50 190 193 
68 155 132 179 195 
69 14 133 44 178 
70 137 185 177 186 
71 137 177 99 186 
72 177 185 135 199 
73 66 177 68 194 
74 134 44 133 178 
75 130 155 132 179 
76 88 176 125 189 
77 76 75 176 183 
78 69 184 66 194 
79 77 176 73 200 
80 102 66 177 186 
81 107 179 80 192 
82 52 50 54 190 
83 134 178 133 182 
84 133 181 150 182 
85 103 186 177 190 
86 107 93 179 188 
87 69 66 68 194 
88 68 177 99 194 
89 102 177 66 184 
90 125 176 88 187 
91 16 135 185 199 
92 58 177 103 184 
93 73 176 75 183 
94 135 194 177 199 
95 132 163 191 195 
96 99 177 68 186 
97 125 189 176 198 
98 118 179 21 191 
99 116 134 61 178 
100 103 177 102 184 
101 118 21 179 187 
102 177 185 50 190 
103 85 189 125 198 
104 116 134 178 185 
105 94 178 87 186 
106 96 84 122 178 
107 66 68 177 186 
108 103 177 58 190 
109 76 176 75 192 
110 107 93 80 179 
111 116 178 61 185 
112 118 21 45 191 
113 180 198 136 200 
114 176 188 187 198 
115 102 64 66 186 
116 61 134 159 178 
117 119 188 118 191 
118 159 178 134 182 
119 13 150 133 181 
120 48 179 21 187 
121 76 183 176 189 
122 94 87 84 186 
123 94 84 178 186 
124 118 187 179 188 
125 96 94 84 178 
126 60 178 186 190 
127 44 178 134 185 
128 61 178 159 182 
129 153 48 132 191 
130 180 189 85 198 
131 88 187 176 192 
132 21 179 48 191 
133 77 188 176 200 
134 96 178 122 197 
135 107 124 93 188 
136 58 190 177 193 
137 118 188 179 191 
138 140 178 14 185 
139 123 85 125 198 
140 122 178 84 186 
141 61 185 178 190 
142 63 144 122 197 
143 176 183 73 200 
144 103 64 186 190 
145 116 44 134 185 
146 44 14 178 185 
147 63 122 178 197 
148 60 178 63 186 
149 58 55 190 193 
150 50 185 177 199 
151 89 179 187 192 
152 96 94 178 181 
153 60 59 178 190 
154 61 156 178 182 
155 137 41 177 185 
156 136 194 180 200 
157 177 193 50 199 
158 158 179 151 188 
159 58 177 184 193 
160 48 130 179 187 
161 96 181 178 197 
162 61 178 156 190 
163 118 45 119 191 
164 89 179 155 187 
165 60 62 63 178 
166 60 59 62 178 
167 133 14 13 181 
168 150 181 173 182 
169 59 156 143 178 
170 52 190 55 193 
171 116 185 61 190 
172 143 178 156 182 
173 122 63 178 186 
174 89 90 179 192 
175 63 178 62 197 
176 92 195 179 196 
177 153 132 163 191 
178 62 59 143 178 
179 92 179 93 196 
180 63 62 144 197 
181 82 189 79 192 
182 61 141 156 182 
183 89 90 155 179 
184 48 21 115 187 
185 80 93 92 179 
186 99 137 101 177 
187 69 102 66 184 
188 135 177 41 185 
189 34 185 50 199 
190 80 92 91 179 
191 54 50 185 190 
192 53 85 180 189 
193 121 151 158 179 
194 53 189 180 193 
195 130 155 179 187 
196 52 54 55 190 
197 93 179 151 196 
198 91 179 92 195 
199 85 53 180 193 
200 137 95 185 186 
201 123 180 85 198 
202 19 38 187 198 
203 40 187 188 198 
204 178 185 95 186 
205 156 178 59 190 
206 34 49 50 185 
207 80 179 91 192 
208 121 151 179 196 
209 184 189 112 193 
210 15 140 14 185 
211 94 95 87 178 
212 88 82 83 192 
213 99 177 101 194 
214 140 178 95 181 
215 67 99 68 186 
216 87 178 95 186 
217 188 198 176 200 
218 183 184 70 194 
219 85 180 108 193 
220 148 90 192 195 
221 61 159 141 182 
222 86 194 136 200 
223 71 70 183 184 
224 19 187 20 198 
225 173 150 13 181 
226 140 95 178 185 
227 97 88 125 189 
228 135 101 177 194 
229 155 179 90 195 
230 76 74 75 183 
231 130 89 155 187 
232 40 20 187 198 
233 48 115 130 187 
234 19 38 20 187 
235 158 151 124 188 
236 111 112 184 189 
237 85 97 125 189 
238 155 42 132 195 
239 153 163 165 191 
240 137 87 95 186 
241 101 41 135 177 
242 91 148 192 195 
243 85 108 51 193 
244 34 16 185 199 
245 133 150 46 182 
246 108 193 180 199 
247 137 41 101 177 
248 108 85 123 180 
249 179 192 90 195 
250 16 135 41 185 
251 44 15 14 185 
252 163 164 191 195 
253 71 69 70 184 
254 113 112 189 193 
255 117 58 103 184 
256 70 72 183 200 
257 122 65 63 186 
258 111 184 183 189 
259 136 180 33 198 
260 34 16 49 185 
261 122 84 65 186 
262 121 179 191 196 
263 54 116 61 190 
264 108 18 180 198 
265 81 76 79 189 
266 140 95 47 181 
267 108 180 123 198 
268 76 111 183 189 
269 66 67 68 186 
270 108 123 18 198 
271 70 86 72 200 
272 91 192 179 195 
273 125 88 129 187 
274 54 50 116 185 
275 171 150 173 182 
276 95 178 94 181 
277 180 194 183 200 
278 51 193 108 199 
279 106 136 198 200 
280 123 125 38 198 
281 54 185 116 190 
282 40 188 139 200 
283 88 83 187 192 
284 70 184 69 194 
285 88 83 89 187 
286 40 198 188 200 
287 58 184 112 193 
288 22 48 153 191 
289 76 81 111 189 
290 118 20 21 187 
291 42 163 132 195 
292 75 107 80 192 
293 56 61 156 190 
294 134 133 46 182 
295 22 21 48 191 
296 20 40 187 188 
297 74 73 75 183 
298 109 148 90 192 
299 103 58 57 190 
300 20 187 118 188 
301 95 94 146 181 
302 60 186 64 190 
303 105 188 77 200 
304 53 97 85 189 
305 103 60 64 190 
306 89 187 83 192 
307 51 50 193 199 
308 117 103 102 184 
309 109 91 148 192 
310 46 150 171 182 
311 143 182 127 197 
312 82 79 83 192 
313 87 137 99 186 
314 108 180 18 199 
315 173 181 172 182 
316 105 77 104 200 
317 33 180 136 194 
318 125 129 38 187 
319 58 112 114 193 
320 14 47 13 181 
321 40 19 20 198 
322 64 60 63 186 
323 113 114 112 193 
324 113 189 53 193 
325 105 139 188 200 
326 180 189 184 193 
327 143 127 62 197 
328 105 104 139 200 
329 77 124 107 188 
330 89 83 90 192 
331 97 82 88 189 
332 51 34 50 199 
333 76 75 78 192 
334 47 95 146 181 
335 58 55 57 190 
336 112 111 81 189 
337 159 134 46 182 
338 72 77 73 200 
339 82 81 79 189 
340 165 163 164 191 
341 96 149 181 197 
342 149 174 181 197 
343 76 111 74 183 
344 114 55 58 193 
345 137 95 41 185 
346 140 41 95 185 
347 117 112 58 184 
348 20 118 40 188 
349 71 110 69 184 
350 70 72 71 183 
351 72 73 183 200 
352 71 183 110 184 
353 67 87 99 186 
354 50 49 116 185 
355 85 51 53 193 
356 173 172 171 182 
357 180 183 176 198 
358 111 110 183 184 
359 176 183 180 189 
360 92 145 195 196 
361 180 194 33 199 
362 135 33 194 199 
363 68 70 69 194 
364 56 54 61 190 
365 106 136 33 198 
366 39 168 127 182 
367 175 127 168 182 
368 164 191 195 196 
369 33 18 180 199 
370 127 182 175 197 
371 173 13 152 181 
372 176 189 180 198 
373 17 108 18 199 
374 143 156 141 182 
375 51 50 52 193 
376 18 33 180 198 
377 176 198 183 200 
378 20 115 21 187 
379 88 89 129 187 
380 180 184 177 193 
381 149 43 96 181 
382 177 184 180 194 
383 183 184 180 189 
384 174 43 149 181 
385 180 193 177 199 
386 22 45 21 191 
387 177 194 180 199 
388 79 76 78 192 
389 183 198 180 200 
390 22 153 165 191 
391 147 161 166 191 
392 166 147 191 196 
393 147 121 191 196 
394 68 99 100 194 
395 106 33 138 198 
396 173 152 169 181 
397 65 64 63 186 
398 180 184 183 194 
399 56 156 59 190 
400 145 91 92 195 
401 53 113 97 189 
402 103 57 60 190 
403 149 170 174 197 
404 111 112 117 184 
405 119 157 118 188 
406 175 168 172 182 
407 75 80 78 192 
408 19 123 38 198 
409 111 110 74 183 
410 113 53 114 193 
411 42 160 163 195 
412 131 43 169 181 
413 83 109 90 192 
414 96 43 94 181 
415 145 162 167 196 
416 175 182 172 197 
417 172 182 181 197 
418 33 17 18 199 
419 136 106 86 200 
420 161 147 120 191 
421 164 166 161 191 
422 131 169 152 181 
423 86 70 100 194 
424 155 90 42 195 
425 168 39 126 182 
426 84 87 67 186 
427 174 172 181 197 
428 49 44 116 185 
429 174 169 43 181 
430 113 112 81 189 
431 77 105 124 188 
432 152 13 47 181 
433 129 89 130 187 
434 78 80 91 192 
435 164 163 160 195 
436 66 64 65 186 
437 145 167 195 196 
438 174 170 172 197 
439 114 52 55 193 
440 36 170 149 197 
441 187 188 176 192 
442 173 169 172 181 
443 179 195 191 196 
444 98 160 42 195 
445 15 41 140 185 
446 98 35 160 195 
447 39 127 143 182 
448 40 118 157 188 
449 162 145 142 196 
450 128 62 127 197 
451 73 71 72 183 
452 166 191 164 196 
453 146 94 43 181 
454 69 110 102 184 
455 40 139 106 200 
456 86 100 136 194 
457 126 46 171 182 
458 135 33 101 194 
459 40 157 139 188 
460 126 171 168 182 
461 111 117 110 184 
462 18 138 33 198 
463 181 182 178 197 
464 72 104 77 200 
465 9 160 98 35 
466 119 120 121 191 
467 68 100 70 194 
468 110 71 74 183 
469 96 122 36 197 
470 121 120 147 191 
471 84 67 65 186 
472 49 15 44 185 
473 49 16 15 185 
474 36 128 170 197 
475 17 135 16 199 
476 167 162 164 196 
477 167 164 195 196 
478 147 37 121 196 
479 35 167 160 195 
480 174 172 169 181 
481 40 106 198 200 
482 67 66 65 186 
483 177 186 185 190 
484 96 36 149 197 
485 55 54 56 190 
486 43 24 131 169 
487 179 188 187 192 
488 34 51 108 199 
489 126 159 46 182 
490 98 42 90 195 
491 99 101 100 194 
492 38 115 20 187 
493 185 186 178 190 
494 39 29 127 168 
495 115 129 130 187 
496 109 78 91 192 
497 92 142 145 196 
498 60 57 59 190 
499 127 175 128 197 
500 166 37 147 196 
501 101 33 136 194 
502 27 170 36 128 
503 121 37 151 196 
504 73 74 71 183 
505 175 170 128 197 
506 9 160 35 167 
507 102 110 117 184 
508 119 158 157 188 
509 154 22 165 191 
510 166 162 37 196 
511 38 129 115 187 
512 168 39 30 126 
513 141 39 143 182 
514 128 144 62 197 
515 119 45 120 191 
516 40 106 138 198 
517 174 24 43 169 
518 131 152 47 181 
519 135 17 33 199 
520 171 172 168 182 
521 148 91 35 195 
522 154 161 120 191 
523 122 144 36 197 
524 34 17 16 199 
525 16 41 15 185 
526 145 7 162 142 
527 158 124 105 188 
528 157 105 139 188 
529 154 165 161 191 
530 91 145 35 195 
531 175 172 170 197 
532 92 93 142 196 
533 97 113 82 189 
534 175 127 29 168 
535 162 142 37 196 
536 161 165 164 191 
537 162 6 166 37 
538 160 42 10 98 
539 90 148 98 195 
540 36 26 149 170 
541 131 146 43 181 
542 57 55 56 190 
543 128 27 170 175 
544 113 81 82 189 
545 141 159 126 182 
546 146 131 47 181 
547 37 93 151 196 
548 167 35 145 195 
549 160 167 164 195 
550 18 123 19 198 
551 141 126 39 182 
552 7 167 145 162 
553 132 12 153 163 
554 57 56 59 190 
555 171 168 30 126 
556 52 53 51 193 
557 147 4 161 120 
558 165 153 12 163 
559 34 108 17 199 
560 104 72 86 200 
561 37 162 6 142 
562 79 109 83 192 
563 158 105 157 188 
564 166 164 162 196 
565 173 171 32 150 
566 154 45 22 191 
567 163 42 10 160 
568 114 53 52 193 
569 171 46 32 150 
570 19 40 138 198 
571 3 161 120 154 
572 101 136 100 194 
573 171 126 31 46 
574 1 154 22 165 
575 79 78 109 192 
576 11 132 42 163 
577 138 18 19 198 
578 174 149 26 170 
579 1 22 153 165 
580 147 161 4 166 
581 93 37 142 196 
582 131 23 152 169 
583 148 35 98 195 
584 128 28 175 127 
585 3 161 154 165 
586 149 174 25 43 
587 36 26 170 27 
588 173 152 23 169 
589 35 8 9 167 
590 154 120 45 191 
591 139 104 106 200 
592 173 13 2 152 
593 166 5 147 37 
594 10 9 160 98 
595 25 174 24 43 
596 173 2 13 150 
597 126 30 171 31 
598 46 31 171 32 
599 144 128 36 197 
600 4 3 161 120 
601 29 39 30 168 
602 11 12 132 163 
603 10 11 42 163 
604 6 5 166 37 
605 27 128 28 175 
606 104 86 106 200 
607 28 175 127 29 
608 167 35 8 145 
609 23 131 24 169 
610 154 1 3 165 
611 152 2 173 23 
612 12 1 153 165 
613 162 7 6 142 
614 167 8 7 145 
615 173 32 2 150 
616 26 149 174 25 
617 147 4 5 166 
618 187 198 125 176 
619 125 198 187 38 
620 192 189 88 82 
621 192 88 189 176 
622 189 192 76 79 
623 76 192 189 176 
624 188 93 151 124 
625 188 151 93 179 
626 181 140 14 47 
627 181 14 140 178 
628 121 191 158 119 
629 121 158 191 179 
630 188 158 191 119 
631 188 191 158 179 
632 200 70 194 183 
633 200 194 70 86 
634 197 143 178 62 
635 197 178 143 182 
$EndElements
