$MeshFormat
4.1 0 8
$EndMeshFormat
$PhysicalNames
3
2 2 "x_min"
2 3 "x_max"
3 1 "domain"
$EndPhysicalNames
$Entities
2 3 3 1
1 3 1.224606353822377e-16 0.5 0 
2 0 1.224606353822377e-16 0.5 0 
1 2.9999999 -0.5000000999999999 -0.5000000999999999 3.0000001 0.5000000999999999 0.5000000999999999 0 2 1 -1 
2 -1.000000000583867e-07 -9.999999987753936e-08 0.4999999 3.0000001 1.000000001224606e-07 0.5000000999999999 0 2 2 -1 
3 -1e-07 -0.5000000999999999 -0.5000000999999999 1e-07 0.5000000999999999 0.5000000999999999 0 2 2 -2 
1 -1.000000000583867e-07 -0.5000000999999999 -0.5000000999999999 3.0000001 0.5000000999999999 0.5000000999999999 0 4 -1 -2 3 2 
2 2.9999999 -0.5000000999999999 -0.5000000999999999 3.0000001 0.5000000999999999 0.5000000999999999 1 3 1 1 
3 -1e-07 -0.5000000999999999 -0.5000000999999999 1e-07 0.5000000999999999 0.5000000999999999 1 2 1 3 
1 -1.000000000583867e-07 -0.5000000999999999 -0.5000000999999999 3.0000001 0.5000000999999999 0.5000000999999999 1 1 3 1 2 -3 
$EndEntities
$Nodes
9 285 1 285
0 1 0 1
1
3 1.224606353822377e-16 0.5
0 2 0 1
2
0 1.224606353822377e-16 0.5
1 1 0 12
3
4
5
6
7
8
9
10
11
12
13
14
3 -0.2323615860218843 0.442728012826605
3 -0.4114919329468282 0.284032373365578
3 -0.496354437049027 0.06026834012766161
3 -0.4675081213427074 -0.1773024435212677
3 -0.3315613291203978 -0.3742553740855504
3 -0.119657832143779 -0.485470908713026
3 0.1196578321437787 -0.4854709087130261
3 0.3315613291203975 -0.3742553740855507
3 0.4675081213427074 -0.1773024435212679
3 0.496354437049027 0.06026834012766116
3 0.4114919329468283 0.2840323733655778
3 0.2323615860218846 0.4427280128266048
1 2 0 11
15
16
17
18
19
20
21
22
23
24
25
0.25 1.224606353822377e-16 0.5
0.5 1.224606353822377e-16 0.5
0.75 1.224606353822377e-16 0.5
1 1.224606353822377e-16 0.5
1.25 1.224606353822377e-16 0.5
1.5 1.224606353822377e-16 0.5
1.75 1.224606353822377e-16 0.5
2 1.224606353822377e-16 0.5
2.25 1.224606353822377e-16 0.5
2.5 1.224606353822377e-16 0.5
2.75 1.224606353822377e-16 0.5
1 3 0 12
26
27
28
29
30
31
32
33
34
35
36
37
0 -0.2323615860218843 0.442728012826605
0 -0.4114919329468282 0.284032373365578
0 -0.496354437049027 0.06026834012766161
0 -0.4675081213427074 -0.1773024435212677
0 -0.3315613291203978 -0.3742553740855504
0 -0.119657832143779 -0.485470908713026
0 0.1196578321437787 -0.4854709087130261
0 0.3315613291203975 -0.3742553740855507
0 0.4675081213427074 -0.1773024435212679
0 0.496354437049027 0.06026834012766116
0 0.4114919329468283 0.2840323733655778
0 0.2323615860218846 0.4427280128266048
2 1 0 168
38
39
40
41
42
43
44
45
46
47
48
49
50
51
52
53
54
55
56
57
58
59
60
61
62
63
64
65
66
67
68
69
70
71
72
73
74
75
76
77
78
79
80
81
82
83
84
85
86
87
88
89
90
91
92
93
94
95
96
97
98
99
100
101
102
103
104
105
106
107
108
109
110
111
112
113
114
115
116
117
118
119
120
121
122
123
124
125
126
127
128
129
130
131
132
133
134
135
136
137
138
139
140
141
142
143
144
145
146
147
148
149
150
151
152
153
154
155
156
157
158
159
160
161
162
163
164
165
166
167
168
169
170
171
172
173
174
175
176
177
178
179
180
181
182
183
184
185
186
187
188
189
190
191
192
193
194
195
196
197
198
199
200
201
202
203
204
205
2.788568565624106 0.01429465545485832 -0.4997956210546736
0.2038898333694066 0.001948520124697185 -0.4999962032549084
1.373791776733942 0.2116979378072176 0.4529723867170839
1.375 -0.2113710821635709 0.4531250000000011
2.122507197459303 0.2120237611147869 0.4528199694390032
2.100676116392559 -0.2161035839813304 0.4508871710200059
0.1990146967885394 -0.4962025698072064 -0.06150617624860499
0.2250506663607152 0.4956760320117209 -0.06561456613523747
0.8587839361778583 -0.2170963350617397 0.4504100146563805
0.8732073114968978 0.2114435760200995 0.453091176431226
2.792027067194961 -0.4969020758458088 -0.05557271830787237
2.82719972537984 0.4975052559143798 -0.04988507128958956
0.3920553499540385 0.2045927614517775 0.4562256042371319
2.607671158548383 0.2034343511352673 0.4567433248315434
0.375 -0.2113710821635615 0.4531250000000054
2.622753763605723 -0.2148223740972007 0.4514990006492178
0.6285661088667842 0.2096991998282497 0.4539011407689915
0.7487968857496484 0.3822365213406891 0.3223278482436305
0.9957953996219255 0.3825348548771536 0.3219737330965292
0.8712690978468632 0.4816174216605034 0.1343304103808549
1.116492349655487 0.482123534253872 0.1325024441984203
0.992642973253549 0.4938285979820525 -0.07831548898577036
1.237172960177741 0.4935095933015832 -0.08030119126953211
1.113348368822748 0.416780582372265 -0.2762135879304921
1.357330416841057 0.4156727127750502 -0.2778780233379938
1.481253112307899 0.493105767306338 -0.0827448019468757
1.601020138716409 0.4143468066977579 -0.2798512529530123
0.8695468787757702 0.4176676170834734 -0.274870445191572
0.9899869508393452 0.2664971801515035 -0.4230593965051445
1.477003852449378 0.2634333432332425 -0.4249739682297689
1.720787455309064 0.2612686517044452 -0.4263082120209993
1.844059074167643 0.4128892566265564 -0.281997272615126
1.962749778186519 0.2597950677307906 -0.4272078215374269
1.840006161970571 0.06208188324365281 -0.4961308696028917
2.08121409181207 0.06023067241871793 -0.4963590092866141
1.953222972685008 -0.1520896743879444 -0.4763073912344517
1.714368682390392 -0.1473117121765909 -0.4778067176752555
1.834956075534929 -0.33227859848633 -0.3736186999976852
1.591789705376366 -0.3301585009237492 -0.3754934943082007
2.064735574375115 -0.3313532100402827 -0.3744396482692509
2.086369782050179 0.4116007899334633 -0.2838746021153513
1.712041774212953 -0.4565426056879014 -0.2038844015409255
1.467290367821861 -0.4555986284910544 -0.2059851686822868
1.347988011936681 -0.3284109895820806 -0.3770228400531174
1.222820832953639 -0.4544638511969751 -0.208476876308174
0.7468594460939784 0.2678495554769965 -0.4222044713533662
0.8670118465011248 0.06946172265728121 -0.4951515617318428
1.967313138006478 0.4921437518645702 -0.08828662130053688
2.219518156690333 0.4921120142165293 -0.08846335661589215
2.336682036706772 0.4097005551271133 -0.2866102844081753
1.588018426124604 -0.4999900812052825 0.00314939618577097
1.833739227581333 -0.4999724319998214 0.005250451426680386
1.109899882978751 0.06799907357283588 -0.4953545457480289
1.709126753788323 -0.4527248682819189 0.212226750526693
0.9865218561209592 -0.1411362799239147 -0.4796671246700553
0.743592623125527 -0.13964845632888 -0.4801023939171319
0.8633103055711572 -0.3254077777280636 -0.3796179371342761
0.6207414311395603 -0.3243483490265529 -0.380523518962691
0.7401786879563385 -0.452375355074453 -0.212970744754444
0.6264674821198852 0.418148227420362 -0.2741387603116517
0.6260318249318991 0.4818508378609239 0.1334907114848282
0.5081696895900845 0.2713296510523886 -0.4199764522682064
2.092530211624589 0.4851365796512521 0.1210061944046018
1.847074541521781 0.4845736424145067 0.1232411663249655
2.358475111584609 0.4835638331184055 0.1271456617420938
1.956805281336214 -0.4546160374795075 0.2081448016800589
2.080540976960987 -0.499954096800246 0.006775034512847972
2.202163708705184 -0.4527845828492172 0.2120993199754783
2.354583944439363 -0.4997857078193755 -0.01463715339421549
2.434088548502524 -0.4489401456944992 0.2201198436847569
1.458724122931799 -0.4555665062310588 0.2060562020430995
0.5243859074578043 -0.4563290760141389 -0.2043618711601609
0.6238123667630078 -0.4999753597635938 -0.004963832114908683
0.8615499328340058 -0.4999578215605558 -0.006494356043782103
0.3783712948427844 -0.3231406153806262 -0.3815496595352042
0.7397266329392684 -0.4601341890209387 0.1956438807988716
0.968446047139663 -0.466810194499311 0.1791319131576375
0.4920771553250448 -0.4621803068828503 0.1907599641687801
1.843608350830415 -0.3191207028957926 0.3849181432243682
0.6207436023178584 -0.3376305985884352 0.3687893421681475
0.3864575815095193 0.418534668738015 -0.2735484071683842
0.2399202801243886 0.2550568968648805 -0.4300534610506672
1.971420849378273 0.3905086856635145 0.3122546499595393
1.725595465576166 0.3888398338829309 0.3143303733110988
1.122502989753031 0.2116274072318499 0.4530053426929144
2.364901534175222 0.2121666493036283 0.4527530374533905
2.484008067241329 0.3846669333508341 0.319423465616515
2.763701147750807 0.3653736539582869 0.3413240293228269
2.62424644707916 0.4877631626542173 0.1099413350726448
2.458580192177944 0.4901827724690721 -0.0985943688784197
2.563577048977971 0.401649867949954 -0.2977874805558227
2.442105135064858 0.250667810570681 -0.4326264540497971
2.665083803037076 0.241049815404518 -0.4380581998929455
2.544109540734223 0.04379709657302913 -0.4980781207117743
2.621650668216964 -0.1811589330822757 -0.4660272963727463
2.398240822709935 -0.1463477894908488 -0.478102838844471
2.493370036992634 -0.3376389317660053 -0.3687817128816325
2.725720181953792 -0.3536049993916331 -0.3535017742603892
2.605310631288139 -0.4650476611274348 -0.1836591214176485
2.37615928105766 -0.2107496781807591 0.4534143503978524
1.125556660336821 -0.2110727241420212 0.4532640567299223
0.6311019801947523 0.07457673013108757 -0.4944070300096419
0.748910593922965 0.4939203274036958 -0.07773487105170944
0.5246136592663784 -0.1321565685491933 -0.4822184581590613
1.873188621998076 0.2116946195814429 0.4529739374845623
1.622453882603024 0.2119341297417934 0.452861926695752
1.265772400342472 -0.3758368676719649 0.3297675679907379
1.233392154479965 0.2651804134906733 -0.4238860086166038
1.471866118699401 -0.1442521371914699 -0.4787393037089114
1.596325967913383 0.06468384752508097 -0.4957983459727877
1.361206755484388 0.4828056293289267 0.1299950933239367
1.241140581049013 0.3841847903840458 0.3200031981677164
1.342481996976481 -0.4999533212900783 -0.006832022469207642
1.352994788033819 0.06640652097005777 -0.4955705539806146
1.955685206186618 -0.4575623524806173 -0.201585449852918
1.724112115302797 0.4926270068752377 -0.08554900406868829
0.4966264298233735 0.4943683183167619 -0.07483291952514472
0.3818967884191896 0.4826695112749294 0.1304995895994344
1.544489733706443 -0.3422953151795033 0.3644638764077511
0.5055825308649896 0.3832134894913788 0.3211657227535979
0.2345564158712429 0.3668208436395484 0.3397682573042543
1.229059086213066 -0.1426694766826677 -0.4792133349804591
2.224083153501643 0.3901763113655251 0.3126698675107545
1.603769593142519 0.4837042799334554 0.1266103059551526
1.105191442720872 -0.3267360089521748 -0.3784753366522108
2.202717480019821 0.2592236276005406 -0.4275548045497983
2.181427116235366 -0.4526258106182613 -0.2124379334350667
0.9818440437972791 -0.4529728370077371 -0.2116969743127237
1.482986272015267 0.3874811810101758 0.316003693590691
1.099999208523908 -0.4998230696598063 -0.01330033968921136
0.2499827326030222 -0.4662433846125013 0.1806020661705707
2.809158353344881 -0.4683155455904022 0.1751586416890812
2.807179574747552 0.4114919329468282 -0.284032373365578
0.195240224233533 -0.3315613291203975 0.3742553740855506
2.809646906140212 -0.3324126218013296 0.3734994630078686
0.175606018814993 -0.409693376218622 -0.286620546162669
2.600400800074238 -0.4954290042725901 0.06745444185129652
2.307887778247992 0.05534407128177479 -0.4969275940959184
0.1821541823030358 -0.2248791335265151 -0.4465751619877261
0.4146513925246379 0.06464258321983844 -0.4958037277337336
2.180270977314581 -0.1482392160871859 -0.4775197742647487
0.1729464647975359 0.4114919329468282 -0.284032373365578
0.4082299028433041 -0.4999602948418639 -0.006301077815459835
2.820256829698944 -0.2071407261910083 -0.4550744110066636
2.632374288028529 -0.4066790093535058 0.2908817343032236
2.835831896143479 0.476279131372471 0.1521781489540613
0.1763520895199886 0.4760361509785362 0.1529365324621305
2.281940181704301 -0.3191275640223716 -0.3849124548272596
0.625 -0.1599535582990505 0.4737244549181225
0.8462245958681444 -0.3777857784850583 0.3275330602770329
1.65200912698278 -0.1784840328829697 0.4670582940124616
1.20771398947632 -0.4709930582874964 0.1678259188712846
2.271807651936364 -0.3494379463344871 0.357621478188232
0.1849036361480672 0.1789922449983078 0.4668637662428578
2.815096363851933 0.1789922449983078 0.4668637662428578
1.869751226969716 -0.1535659600094783 0.4758334749955779
2.075315212280699 -0.367843856994348 0.3386604447990962
2.385868650072751 -0.439576425320066 -0.2382699441869083
1.044508672601711 -0.3702632639555202 0.3360135642574638
0.1762650380501158 -0.1698232723898694 0.4702765741080415
0.3932386065675453 -0.3724820076995762 0.3335523256403601
2.832197886923794 -0.1687954796512705 0.4706464554729989
2.865389309970324 0.232361586021884 -0.4427280128266051
2.498355791467507 -0.3246898172763746 0.380232195581903
2.82632625382697 -0.446322745620419 -0.2253796946085667
2.65083928520783 0.4824294027937366 -0.1313844409360509
0.3304647287234845 -0.4682774119841032 -0.1752605643762182
0.3312393857895074 -0.1163393264705775 -0.48627683588299
2 2 0 15
206
207
208
209
210
211
212
213
214
215
216
217
218
219
220
3 0.1844923042412909 0.2082487620703704
3 -0.2248107244921396 -0.1733699897166294
3 -0.2032886159305785 0.2132440127817734
3 0.1387903551446574 -0.231683652135987
3 0.2761889453589179 -0.03353540948954447
3 0.3421319048990161 0.1297535165185162
3 0.05865911141096489 0.00362668911882852
3 -0.04066861171041067 -0.1483925658257595
3 -0.01455211823971162 0.1916459134986787
3 -0.1260888775781019 0.01259588851509217
3 -0.3215904515565637 0.03657803025870133
3 -0.07637505169638183 -0.316440566531663
3 0.08190527717276773 0.3475852079350348
3 0.30351218774167 -0.2041942198080875
3 -0.07365940860388133 0.3390406294084183
2 3 0 14
221
222
223
224
225
226
227
228
229
230
231
232
233
234
0 0.07411301100875084 0.2836158896276822
0 -6.672659533107402e-17 -0.2782174639164526
0 0.2839332238947639 -0.03027612981373753
0 -0.2601378477606265 0.09865727236535449
0 -0.2133007057127436 -0.145580196063846
0 0.2393169284727645 0.2701329700547074
0 0.1556522281631764 0.1127857239716564
0 -0.05359424246373087 0.1021152974170185
0 0.0615555796597733 -0.07674918048452162
0 0.196642974077174 -0.2213223145017684
0 -0.1263555688115781 0.2811457349990812
0 -0.3593252779662761 -0.04098925677302442
0 0.3374416670744558 0.127974743938904
0 -0.1661299667442301 -0.3208809856947187
3 1 0 51
235
236
237
238
239
240
241
242
243
244
245
246
247
248
249
250
251
252
253
254
255
256
257
258
259
260
261
262
263
264
265
266
267
268
269
270
271
272
273
274
275
276
277
278
279
280
281
282
283
284
285
0.8065903612845248 0.0002130871856519945 -0.001148239466006173
1.308909653906502 0.0003073928515454627 0.0004280058904551354
2.352116926463299 -0.0006961313060153129 -0.002911373410218188
1.809823697518111 0.0003434646354009141 4.693331874169523e-05
0.4093715292791544 -0.09254672561004523 0.03509507888478816
2.666119805443236 -0.1003964618882784 0.1208563106028616
2.683640608140462 0.145945170546859 -0.1109297567999203
2.079894039696342 -0.07097813647538842 -0.1738450079261596
1.05763211767744 -0.1899388156078328 0.04858862620510571
1.05830586068212 0.07124594307834947 -0.1817469053925114
1.057222858984593 0.1062944105728917 0.1612881274010596
1.559221034256183 -0.03081869632899246 -0.1941540462138542
2.082029868027483 0.02864351350359842 0.1826694024449598
0.2973794675789174 0.2001759701334885 0.02366480427017906
1.559447736691775 -0.175832444641533 0.09011603031401912
1.559377307080892 0.1874036408052678 0.03192079596499482
0.5628987214745276 0.06685488811142429 -0.1878542894949261
2.728928787694948 -0.1332909581336459 -0.1568169790765089
2.069934661206151 0.2090244139714021 -0.05984474840977763
0.5757374553663714 0.1400389551273142 0.1848042768054919
0.2846211964983217 -0.01519194795668634 -0.2168232798399173
0.6329758949523019 -0.2033989498213998 -0.1115015240464747
1.99158877961749 -0.2129897083571551 0.05854899755519466
2.543494108852427 0.1619029761087348 0.142897287632525
2.485426942536325 -0.0362743395521069 -0.2412228329805026
1.213765387993185 -0.1852478725100039 -0.1736160505847764
1.667922387461745 0.03394453049383785 0.2366461631847661
0.2621165731249064 0.02672816771092751 0.2298523953351128
0.8890061843841577 0.2464249606364169 -0.06912574104485049
0.9238368568012961 -0.1590928520055362 -0.1800771046260082
2.388006725244622 -0.1905799199640446 0.1792885326837124
1.355371910991199 0.1562839782653196 -0.212023662939213
2.774968476761335 0.2411804640297543 0.09961307779556382
2.782320387314788 0.05962019426791302 0.2535679473146583
1.24561681367243 0.256767809531414 0.04466698683643773
1.841919012670134 0.1553913035760091 -0.2140839823909085
2.241520280322133 -0.2455913016342615 -0.04276849095547833
1.375 0.02118892850323498 0.2614936567749746
0.2238603096683452 -0.2529137121550261 -0.0115222877476539
0.6060071884276579 -0.1720132716410362 0.2121856452432977
1.820613692721488 -0.1055941416724572 -0.2406473344472244
2.31094177434147 0.1589246478311609 -0.2088726902733556
1.308503631584269 -0.2518584166493025 0.05755183923021404
0.8197912236059024 0.05160874966992957 0.2541335702029174
2.502976310892046 -0.2211427410805817 -0.0551427328020538
0.8138603029097287 0.05904704922167767 -0.2475621159576104
1.882500732678244 0.2214665960767475 0.1278116850938564
2.260573894970159 0.2124194354152398 0.1218144010973768
1.759168771676091 -0.2603987348504361 -0.04609070266197406
0.6357340633684148 0.2673384683949631 -0.04811554195397948
0.8182111397491891 -0.2599129001784484 0.0457277333817805
$EndNodes
$Elements
3 978 1 978
2 2 2 41
1 3 220 1 
2 1 218 14 
3 1 220 218 
4 4 208 3 
5 208 220 3 
6 5 216 4 
7 4 216 208 
8 6 216 5 
9 7 207 6 
10 207 216 6 
11 8 217 7 
12 7 217 207 
13 9 217 8 
14 10 209 9 
15 209 217 9 
16 11 219 10 
17 10 219 209 
18 12 210 11 
19 210 219 11 
20 13 211 12 
21 12 211 210 
22 14 206 13 
23 206 211 13 
24 14 218 206 
25 210 211 206 
26 206 212 210 
27 206 214 212 
28 206 218 214 
29 213 215 207 
30 207 217 213 
31 215 216 207 
32 208 215 214 
33 214 220 208 
34 208 216 215 
35 210 212 209 
36 209 219 210 
37 212 213 209 
38 213 217 209 
39 212 215 213 
40 214 215 212 
41 218 220 214 
2 3 2 39
42 26 2 231 
43 2 37 221 
44 2 221 231 
45 27 26 231 
46 28 27 224 
47 224 27 231 
48 29 28 232 
49 28 224 232 
50 30 29 225 
51 225 29 232 
52 31 30 234 
53 30 225 234 
54 32 31 222 
55 222 31 234 
56 33 32 230 
57 32 222 230 
58 34 33 230 
59 35 34 223 
60 223 34 230 
61 36 35 233 
62 35 223 233 
63 37 36 226 
64 226 36 233 
65 221 37 226 
66 221 226 227 
67 221 227 228 
68 221 228 231 
69 222 225 229 
70 225 222 234 
71 222 229 230 
72 227 223 229 
73 223 227 233 
74 229 223 230 
75 225 224 228 
76 224 225 232 
77 228 224 231 
78 225 228 229 
79 227 226 233 
80 228 227 229 
3 1 4 898
81 247 257 193 261 
82 258 265 123 282 
83 138 245 243 278 
84 171 262 198 273 
85 123 258 24 265 
86 123 265 23 282 
87 243 245 138 272 
88 233 226 227 248 
89 257 261 238 283 
90 80 246 260 277 
91 23 265 247 282 
92 249 238 261 283 
93 138 243 272 277 
94 80 249 246 277 
95 198 262 239 273 
96 23 123 24 265 
97 238 257 247 261 
98 112 256 239 273 
99 112 255 239 256 
100 112 239 255 273 
101 138 243 46 278 
102 64 250 246 270 
103 57 263 245 278 
104 241 258 127 276 
105 138 18 245 278 
106 204 256 112 273 
107 146 260 246 266 
108 246 250 64 266 
109 80 246 81 260 
110 68 64 246 270 
111 55 254 263 278 
112 116 193 257 261 
113 68 64 67 246 
114 55 263 57 278 
115 22 247 193 261 
116 55 263 254 284 
117 70 242 163 253 
118 57 245 56 278 
119 246 249 80 283 
120 70 72 163 242 
121 169 216 48 240 
122 127 276 258 282 
123 67 246 64 266 
124 237 265 258 282 
125 178 242 185 259 
126 216 48 240 252 
127 240 252 48 279 
128 185 259 242 271 
129 55 57 56 278 
130 46 278 243 285 
131 244 260 159 266 
132 76 246 80 283 
133 169 48 174 240 
134 90 244 159 266 
135 178 259 175 276 
136 163 253 242 276 
137 178 242 259 276 
138 174 240 48 279 
139 24 258 240 265 
140 118 251 248 255 
141 57 263 55 284 
142 179 248 230 255 
143 242 253 70 270 
144 227 248 226 262 
145 19 138 245 272 
146 151 90 159 266 
147 80 76 81 246 
148 153 250 270 281 
149 178 185 133 259 
150 251 255 141 256 
151 16 262 254 274 
152 158 226 233 248 
153 236 245 243 272 
154 21 22 193 261 
155 180 256 204 273 
156 142 247 22 261 
157 127 128 241 276 
158 43 190 194 265 
159 112 141 255 256 
160 180 239 115 256 
161 247 265 237 282 
162 138 46 18 278 
163 163 242 72 276 
164 208 199 220 268 
165 153 250 64 270 
166 236 272 243 277 
167 61 263 244 269 
168 138 196 46 243 
169 115 256 239 274 
170 209 241 38 252 
171 180 239 256 273 
172 231 262 171 273 
173 115 198 239 273 
174 193 247 43 257 
175 172 208 169 240 
176 70 72 242 270 
177 116 91 249 283 
178 142 247 261 281 
179 157 248 254 262 
180 127 241 203 258 
181 58 245 57 263 
182 204 109 112 256 
183 208 216 169 240 
184 99 251 118 255 
185 157 254 50 262 
186 24 240 258 268 
187 216 240 215 252 
188 229 255 239 273 
189 229 248 239 255 
190 38 252 241 259 
191 16 52 262 274 
192 244 266 61 269 
193 180 115 110 256 
194 171 52 198 262 
195 52 239 198 262 
196 166 269 250 272 
197 52 198 239 274 
198 59 263 61 269 
199 194 105 257 265 
200 146 81 246 260 
201 53 24 240 265 
202 153 270 85 281 
203 237 258 241 276 
204 21 142 22 261 
205 115 239 198 274 
206 138 144 243 277 
207 208 240 199 268 
208 212 267 240 268 
209 234 225 173 176 
210 176 234 225 255 
211 200 38 209 241 
212 178 133 175 259 
213 212 241 240 267 
214 180 109 204 256 
215 248 251 118 284 
216 185 259 271 279 
217 239 262 52 274 
218 129 241 128 276 
219 179 230 119 255 
220 152 257 242 275 
221 199 208 172 240 
222 58 56 57 245 
223 168 171 198 273 
224 239 248 228 262 
225 53 240 24 268 
226 194 190 105 265 
227 224 231 171 273 
228 19 138 18 245 
229 88 80 249 283 
230 246 236 260 277 
231 258 276 237 282 
232 185 271 195 279 
233 129 259 241 276 
234 112 255 173 273 
235 217 209 38 252 
236 110 256 115 274 
237 92 159 244 260 
238 245 263 58 269 
239 257 275 152 283 
240 149 245 269 272 
241 217 213 209 252 
242 38 241 130 259 
243 208 215 216 240 
244 64 250 63 266 
245 251 256 93 280 
246 242 257 152 271 
247 213 241 209 252 
248 38 130 131 259 
249 161 250 153 281 
250 122 245 149 272 
251 76 80 79 283 
252 247 265 257 271 
253 115 239 180 273 
254 68 67 147 246 
255 250 261 166 272 
256 88 249 80 277 
257 134 185 195 279 
258 235 263 254 278 
259 86 276 127 282 
260 23 43 247 265 
261 93 251 141 256 
262 226 248 158 262 
263 102 127 258 282 
264 166 149 269 272 
265 254 262 239 274 
266 219 210 170 241 
267 115 168 198 273 
268 152 242 77 275 
269 215 240 212 252 
270 116 257 91 283 
271 57 55 98 284 
272 134 259 185 279 
273 92 159 90 244 
274 99 118 119 255 
275 274 278 46 285 
276 161 153 101 281 
277 242 259 237 271 
278 92 260 244 264 
279 214 212 215 240 
280 71 72 270 275 
281 63 266 250 269 
282 242 270 72 275 
283 126 203 241 258 
284 228 239 229 248 
285 240 241 212 252 
286 105 257 265 271 
287 169 174 182 240 
288 229 239 228 273 
289 256 264 93 280 
290 85 270 253 281 
291 78 70 163 253 
292 188 116 249 261 
293 246 249 236 277 
294 153 69 85 270 
295 126 127 203 258 
296 188 261 249 272 
297 184 158 233 248 
298 238 261 247 281 
299 94 93 256 264 
300 187 274 46 285 
301 182 265 240 279 
302 95 141 112 256 
303 239 235 251 254 
304 241 252 240 279 
305 179 223 230 248 
306 241 259 252 279 
307 42 23 247 282 
308 235 243 278 285 
309 254 263 235 284 
310 81 76 146 246 
311 219 170 209 241 
312 130 38 200 241 
313 208 214 215 240 
314 166 261 143 272 
315 172 169 182 240 
316 146 159 81 260 
317 126 241 203 267 
318 130 241 129 259 
319 58 263 59 269 
320 95 94 93 256 
321 112 176 173 255 
322 147 68 246 270 
323 127 128 203 241 
324 147 270 246 275 
325 116 193 43 257 
326 60 59 61 269 
327 95 93 141 256 
328 212 240 214 268 
329 235 254 239 274 
330 239 251 235 256 
331 50 254 16 262 
332 76 275 246 283 
333 150 88 80 277 
334 213 215 212 252 
335 243 244 235 245 
336 173 255 225 273 
337 54 17 16 254 
338 62 266 63 269 
339 237 259 242 276 
340 213 212 241 252 
341 174 182 240 279 
342 62 64 63 266 
343 129 130 128 241 
344 208 220 214 268 
345 147 71 270 275 
346 83 65 97 284 
347 233 223 184 248 
348 240 241 237 258 
349 165 243 167 260 
350 53 24 25 268 
351 126 258 241 267 
352 55 254 98 284 
353 237 247 242 271 
354 166 40 149 272 
355 256 274 110 285 
356 236 244 243 245 
357 185 242 77 271 
358 238 270 250 281 
359 24 258 51 268 
360 73 242 72 275 
361 122 19 245 272 
362 42 123 23 282 
363 145 61 244 266 
364 239 256 235 274 
365 113 110 115 274 
366 23 24 137 265 
367 71 73 72 275 
368 17 254 54 278 
369 166 148 250 269 
370 247 237 265 271 
371 246 260 236 266 
372 121 166 250 261 
373 225 173 176 255 
374 155 254 248 284 
375 239 255 251 256 
376 219 210 49 170 
377 113 110 274 285 
378 243 245 235 278 
379 75 152 77 275 
380 112 173 204 273 
381 196 138 144 243 
382 242 247 237 253 
383 145 244 90 266 
384 132 252 38 259 
385 165 243 260 264 
386 239 251 248 254 
387 69 153 64 270 
388 247 257 242 271 
389 179 45 223 248 
390 122 149 40 272 
391 165 111 167 243 
392 241 259 237 276 
393 153 63 64 250 
394 199 240 53 268 
395 49 241 210 267 
396 244 263 245 269 
397 139 251 93 280 
398 208 214 240 268 
399 199 172 53 240 
400 83 251 280 284 
401 116 43 194 257 
402 61 66 244 263 
403 238 247 242 253 
404 154 248 118 284 
405 86 253 276 282 
406 112 141 205 255 
407 111 243 165 285 
408 239 262 228 273 
409 122 19 18 245 
410 62 63 60 269 
411 155 98 254 284 
412 93 139 141 251 
413 99 177 251 255 
414 83 97 251 284 
415 121 261 250 281 
416 193 22 43 247 
417 23 137 43 265 
418 97 118 251 284 
419 90 84 92 244 
420 248 254 251 284 
421 121 250 161 281 
422 127 87 128 276 
423 188 249 156 272 
424 101 153 85 281 
425 92 244 84 280 
426 103 91 257 283 
427 221 227 226 262 
428 243 264 165 285 
429 80 260 82 277 
430 246 250 238 270 
431 249 250 236 272 
432 246 249 238 250 
433 236 249 246 250 
434 63 250 148 269 
435 162 260 92 264 
436 149 245 58 269 
437 187 196 114 285 
438 40 166 143 272 
439 132 38 131 259 
440 121 143 166 261 
441 165 167 82 260 
442 52 16 186 274 
443 228 248 227 262 
444 53 240 201 265 
445 188 20 261 272 
446 149 56 58 245 
447 219 209 210 241 
448 116 103 91 257 
449 151 145 90 266 
450 136 48 252 279 
451 170 219 209 200 
452 168 224 171 273 
453 242 247 238 257 
454 92 264 244 280 
455 102 86 127 282 
456 88 79 80 283 
457 164 185 77 271 
458 203 241 49 267 
459 55 56 47 278 
460 78 253 163 276 
461 249 261 250 272 
462 235 245 263 278 
463 147 246 67 266 
464 58 57 59 263 
465 92 162 159 260 
466 209 213 212 241 
467 196 243 114 285 
468 201 240 182 265 
469 151 147 67 266 
470 120 281 100 282 
471 77 185 178 242 
472 61 65 66 263 
473 100 281 253 282 
474 188 193 116 261 
475 200 209 170 241 
476 115 180 168 273 
477 216 215 207 252 
478 147 71 68 270 
479 86 87 127 276 
480 104 152 257 271 
481 99 119 177 255 
482 244 245 236 269 
483 155 157 248 254 
484 49 170 210 241 
485 236 260 244 266 
486 142 42 247 281 
487 233 227 223 248 
488 99 97 118 251 
489 80 82 150 277 
490 167 260 243 277 
491 248 251 239 255 
492 228 262 231 273 
493 53 137 24 265 
494 235 244 243 264 
495 201 53 182 240 
496 250 269 236 272 
497 145 61 66 244 
498 231 197 171 262 
499 123 51 24 258 
500 116 91 156 249 
501 235 245 244 263 
502 240 258 237 265 
503 39 234 176 255 
504 66 244 263 280 
505 147 246 74 275 
506 243 244 236 260 
507 42 120 160 282 
508 190 43 137 265 
509 252 259 134 279 
510 66 263 65 280 
511 70 71 72 270 
512 182 53 172 240 
513 141 251 177 255 
514 147 74 71 275 
515 165 264 96 285 
516 224 228 231 273 
517 226 191 221 262 
518 52 171 197 262 
519 229 230 248 255 
520 155 98 157 254 
521 102 127 126 258 
522 226 158 191 262 
523 56 245 47 278 
524 238 250 249 261 
525 39 222 234 255 
526 188 156 41 272 
527 70 253 78 270 
528 131 130 129 259 
529 188 41 20 272 
530 167 82 260 277 
531 163 72 175 276 
532 118 45 179 248 
533 108 249 88 277 
534 134 133 185 259 
535 188 116 156 249 
536 227 228 229 248 
537 111 114 167 243 
538 78 86 253 276 
539 94 256 96 264 
540 69 253 85 270 
541 75 152 275 283 
542 76 74 246 275 
543 242 253 237 276 
544 217 38 181 252 
545 156 249 108 277 
546 103 89 91 283 
547 109 180 110 256 
548 63 161 148 250 
549 90 66 84 244 
550 144 189 243 277 
551 155 248 154 284 
552 16 50 54 254 
553 244 236 266 269 
554 148 161 166 250 
555 153 161 63 250 
556 121 166 161 250 
557 134 252 132 259 
558 92 93 264 280 
559 203 170 49 241 
560 199 53 25 268 
561 166 149 148 269 
562 136 174 48 279 
563 104 164 152 271 
564 237 253 247 282 
565 142 120 42 281 
566 236 269 245 272 
567 38 132 181 252 
568 111 165 96 285 
569 69 78 253 270 
570 241 258 240 267 
571 121 161 101 281 
572 111 114 243 285 
573 150 108 88 277 
574 165 260 162 264 
575 103 257 89 283 
576 47 245 18 278 
577 95 96 94 256 
578 39 119 222 255 
579 229 225 255 273 
580 95 112 109 256 
581 78 87 86 276 
582 155 157 158 248 
583 83 97 99 251 
584 238 253 242 270 
585 142 261 121 281 
586 24 51 25 268 
587 73 77 242 275 
588 84 244 66 280 
589 47 122 18 245 
590 119 230 222 255 
591 184 223 45 248 
592 200 170 130 241 
593 141 177 205 255 
594 80 81 82 260 
595 66 65 83 280 
596 74 146 76 246 
597 41 156 144 277 
598 54 254 55 278 
599 232 224 28 273 
600 69 78 85 253 
601 196 144 189 243 
602 96 264 256 285 
603 251 254 235 284 
604 145 66 90 244 
605 253 281 247 282 
606 259 237 271 279 
607 52 117 198 274 
608 210 241 212 267 
609 53 201 137 265 
610 149 122 56 245 
611 220 25 218 268 
612 41 138 19 272 
613 44 173 232 273 
614 89 257 152 283 
615 144 156 108 277 
616 238 249 246 283 
617 239 254 248 262 
618 236 250 246 266 
619 22 142 42 247 
620 117 115 198 274 
621 73 178 72 242 
622 235 278 274 285 
623 60 58 59 269 
624 250 266 236 269 
625 247 253 238 281 
626 240 267 258 268 
627 47 56 122 245 
628 44 232 28 273 
629 140 263 57 284 
630 120 100 160 282 
631 244 260 243 264 
632 136 252 134 279 
633 181 135 207 252 
634 209 212 210 241 
635 85 253 100 281 
636 123 124 258 282 
637 83 251 139 280 
638 46 274 186 278 
639 67 64 62 266 
640 242 257 238 275 
641 48 202 136 252 
642 17 46 186 278 
643 91 88 249 283 
644 73 77 178 242 
645 154 45 118 248 
646 211 183 49 267 
647 22 23 43 247 
648 229 230 223 248 
649 140 57 98 284 
650 176 112 205 255 
651 145 62 61 266 
652 175 259 129 276 
653 92 84 93 280 
654 74 147 146 246 
655 207 217 181 252 
656 223 35 233 184 
657 100 253 86 282 
658 221 15 2 197 
659 143 261 20 272 
660 143 121 142 261 
661 249 272 236 277 
662 258 267 125 268 
663 234 222 225 255 
664 92 93 94 264 
665 167 150 82 277 
666 250 261 238 281 
667 55 157 98 254 
668 113 274 187 285 
669 122 40 19 272 
670 101 85 100 281 
671 175 131 129 259 
672 134 135 132 252 
673 235 264 256 280 
674 69 64 68 270 
675 128 170 203 241 
676 237 276 253 282 
677 87 129 128 276 
678 114 196 189 243 
679 139 83 99 251 
680 69 70 78 270 
681 114 189 167 243 
682 165 82 162 260 
683 188 21 193 261 
684 104 152 89 257 
685 194 103 116 257 
686 91 88 108 249 
687 73 75 77 275 
688 63 148 60 269 
689 128 130 170 241 
690 238 275 257 283 
691 165 94 96 264 
692 253 270 238 281 
693 134 136 135 252 
694 16 52 15 262 
695 173 225 232 273 
696 263 280 235 284 
697 167 243 189 277 
698 96 256 110 285 
699 50 16 15 262 
700 235 256 251 280 
701 155 154 98 284 
702 177 141 139 251 
703 237 240 265 279 
704 102 258 124 282 
705 75 79 152 283 
706 52 186 117 274 
707 22 42 23 247 
708 211 49 210 267 
709 246 270 238 275 
710 238 246 275 283 
711 238 270 242 275 
712 51 258 125 268 
713 251 235 280 284 
714 65 263 140 284 
715 213 207 215 252 
716 227 229 223 248 
717 47 54 55 278 
718 65 140 97 284 
719 40 143 20 272 
720 61 59 65 263 
721 195 185 164 271 
722 158 36 233 226 
723 106 265 107 279 
724 113 115 117 274 
725 155 158 184 248 
726 105 104 257 271 
727 220 25 1 218 
728 222 39 32 119 
729 206 267 212 268 
730 202 207 135 252 
731 199 25 220 268 
732 125 211 206 267 
733 157 54 50 254 
734 231 221 2 197 
735 125 258 126 267 
736 106 271 265 279 
737 42 160 123 282 
738 9 209 200 38 
739 107 201 182 265 
740 125 183 211 267 
741 111 96 110 285 
742 105 265 106 271 
743 76 75 74 275 
744 206 212 214 268 
745 229 228 225 273 
746 105 103 194 257 
747 97 154 118 284 
748 107 106 105 265 
749 55 54 157 254 
750 100 86 102 282 
751 207 181 7 135 
752 154 155 45 248 
753 124 102 126 258 
754 32 222 119 230 
755 9 209 38 217 
756 126 203 49 267 
757 15 221 191 262 
758 117 46 187 274 
759 192 206 218 268 
760 31 234 176 39 
761 123 124 51 258 
762 174 106 107 279 
763 162 92 94 264 
764 113 117 187 274 
765 31 234 39 222 
766 50 191 158 262 
767 78 163 87 276 
768 85 86 100 253 
769 165 162 94 264 
770 222 229 225 255 
771 123 160 124 282 
772 4 208 169 172 
773 125 267 206 268 
774 177 139 99 251 
775 199 3 208 220 
776 244 235 263 280 
777 243 235 264 285 
778 168 27 171 224 
779 85 78 86 253 
780 243 260 236 277 
781 84 139 93 280 
782 244 264 235 280 
783 39 177 119 255 
784 232 29 173 44 
785 124 126 125 258 
786 51 124 125 258 
787 168 28 224 273 
788 211 13 125 206 
789 105 104 103 257 
790 256 264 235 285 
791 84 66 83 280 
792 223 179 34 45 
793 91 89 88 283 
794 21 143 142 261 
795 207 213 217 252 
796 104 89 103 257 
797 254 274 235 278 
798 18 46 17 278 
799 91 108 156 249 
800 207 6 216 202 
801 44 28 168 273 
802 175 133 131 259 
803 133 134 132 259 
804 195 271 106 279 
805 176 205 39 255 
806 35 223 45 184 
807 81 159 162 260 
808 15 52 197 262 
809 184 45 155 248 
810 234 173 30 176 
811 229 222 230 255 
812 221 2 15 191 
813 132 135 181 252 
814 233 184 36 158 
815 117 186 46 274 
816 13 125 183 211 
817 219 49 11 170 
818 59 57 140 263 
819 192 125 206 268 
820 202 135 136 252 
821 167 189 150 277 
822 202 207 7 135 
823 192 218 25 268 
824 235 274 256 285 
825 48 216 6 202 
826 210 49 11 219 
827 136 134 195 279 
828 110 96 109 256 
829 221 228 227 262 
830 211 183 12 49 
831 84 83 139 280 
832 220 218 214 268 
833 20 143 21 261 
834 172 3 208 199 
835 4 208 216 169 
836 89 152 79 283 
837 204 173 44 273 
838 47 17 54 278 
839 67 145 151 266 
840 163 175 129 276 
841 10 219 170 200 
842 217 181 7 207 
843 160 102 124 282 
844 74 73 71 275 
845 101 100 120 281 
846 148 149 58 269 
847 20 21 188 261 
848 113 187 114 285 
849 27 231 171 224 
850 206 211 210 267 
851 95 109 96 256 
852 68 71 70 270 
853 265 271 237 279 
854 49 12 211 210 
855 111 110 113 285 
856 223 34 179 230 
857 232 173 29 225 
858 81 162 82 260 
859 142 121 120 281 
860 49 183 126 267 
861 100 102 160 282 
862 180 44 168 273 
863 192 51 125 268 
864 131 133 132 259 
865 218 192 14 206 
866 199 25 1 220 
867 15 191 50 262 
868 65 59 140 263 
869 195 106 136 279 
870 47 18 17 278 
871 206 210 212 267 
872 205 177 39 255 
873 225 173 30 234 
874 219 10 209 200 
875 89 79 88 283 
876 60 148 58 269 
877 174 136 106 279 
878 67 62 145 266 
879 190 107 105 265 
880 180 204 44 273 
881 105 106 104 271 
882 224 225 228 273 
883 69 68 70 270 
884 20 41 19 272 
885 150 189 108 277 
886 192 1 25 218 
887 40 20 19 272 
888 163 129 87 276 
889 74 75 73 275 
890 183 125 126 267 
891 169 216 5 48 
892 107 190 201 265 
893 189 144 108 277 
894 192 25 51 268 
895 111 113 114 285 
896 179 33 119 230 
897 28 27 168 224 
898 33 32 119 230 
899 125 14 192 206 
900 106 195 164 271 
901 121 101 120 281 
902 140 98 154 284 
903 164 104 106 271 
904 13 14 125 206 
905 140 154 97 284 
906 34 223 45 35 
907 225 224 232 273 
908 214 218 206 268 
909 221 226 37 191 
910 231 228 221 262 
911 6 5 216 48 
912 181 8 38 217 
913 26 27 231 171 
914 190 137 201 265 
915 226 158 36 37 
916 208 4 3 172 
917 39 32 31 222 
918 37 226 158 191 
919 197 26 231 171 
920 38 8 9 217 
921 5 4 216 169 
922 11 12 49 210 
923 173 30 29 225 
924 7 6 207 202 
925 11 10 219 170 
926 2 221 37 191 
927 33 179 34 230 
928 209 10 9 200 
929 181 7 8 217 
930 2 26 231 197 
931 35 233 184 36 
932 30 234 176 31 
933 12 13 183 211 
934 199 1 3 220 
935 232 28 29 44 
936 14 1 192 218 
937 261 283 116 249 
938 116 283 261 257 
939 266 146 147 246 
940 266 147 146 151 
941 159 266 146 151 
942 146 266 159 260 
943 276 178 72 175 
944 276 72 178 242 
945 255 179 118 119 
946 255 118 179 248 
947 262 157 158 50 
948 262 158 157 248 
949 257 43 265 247 
950 257 265 43 194 
951 279 241 237 240 
952 279 237 241 259 
953 285 196 46 187 
954 285 46 196 243 
955 277 41 138 144 
956 277 138 41 272 
957 107 279 182 174 
958 182 279 107 265 
959 280 65 284 263 
960 280 284 65 83 
961 77 271 152 164 
962 152 271 77 242 
963 202 216 252 48 
964 202 252 216 207 
965 269 62 61 60 
966 269 61 62 266 
967 272 156 277 249 
968 272 277 156 41 
969 281 42 282 120 
970 281 282 42 247 
971 283 75 76 275 
972 283 76 75 79 
973 186 278 254 17 
974 254 278 186 274 
975 254 16 186 17 
976 186 16 254 274 
977 221 197 262 15 
978 262 197 221 231 
$EndElements
