$MeshFormat
4.1 0 8
$EndMeshFormat
$PhysicalNames
3
2 2 "x_min"
2 3 "x_max"
3 1 "domain"
$EndPhysicalNames
$Entities
2 3 3 1
1 3 1.224606353822377e-16 0.5 0 
2 0 1.224606353822377e-16 0.5 0 
1 2.9999999 -0.5000000999999999 -0.5000000999999999 3.0000001 0.5000000999999999 0.5000000999999999 0 2 1 -1 
2 -1.000000000583867e-07 -9.999999987753936e-08 0.4999999 3.0000001 1.000000001224606e-07 0.5000000999999999 0 2 2 -1 
3 -1e-07 -0.5000000999999999 -0.5000000999999999 1e-07 0.5000000999999999 0.5000000999999999 0 2 2 -2 
1 -1.000000000583867e-07 -0.5000000999999999 -0.5000000999999999 3.0000001 0.5000000999999999 0.5000000999999999 0 4 -1 -2 3 2 
2 2.9999999 -0.5000000999999999 -0.5000000999999999 3.0000001 0.5000000999999999 0.5000000999999999 1 3 1 1 
3 -1e-07 -0.5000000999999999 -0.5000000999999999 1e-07 0.5000000999999999 0.5000000999999999 1 2 1 3 
1 -1.000000000583867e-07 -0.5000000999999999 -0.5000000999999999 3.0000001 0.5000000999999999 0.5000000999999999 1 1 3 1 2 -3 
$EndEntities
$Nodes
9 426 1 426
0 1 0 1
1
3 1.224606353822377e-16 0.5
0 2 0 1
2
0 1.224606353822377e-16 0.5
1 1 0 14
3
4
5
6
7
8
9
10
11
12
13
14
15
16
3 -0.2033683215379 0.4567727288213005
3 -0.3715724127386968 0.3345653031794294
3 -0.4755282581475767 0.1545084971874739
3 -0.4972609476841367 -0.05226423163382656
3 -0.4330127018922196 -0.2499999999999995
3 -0.2938926261462368 -0.4045084971874736
3 -0.1039558454088799 -0.4890738003669028
3 0.1039558454088795 -0.4890738003669028
3 0.2938926261462363 -0.4045084971874739
3 0.4330127018922187 -0.2500000000000009
3 0.4972609476841366 -0.05226423163382756
3 0.4755282581475769 0.1545084971874732
3 0.3715724127386976 0.3345653031794286
3 0.2033683215379005 0.4567727288213003
1 2 0 14
17
18
19
20
21
22
23
24
25
26
27
28
29
30
0.1999999999999998 1.224606353822377e-16 0.5
0.3999999999999997 1.224606353822377e-16 0.5
0.5999999999999995 1.224606353822377e-16 0.5
0.7999999999999994 1.224606353822377e-16 0.5
0.9999999999999984 1.224606353822377e-16 0.5
1.199999999999998 1.224606353822377e-16 0.5
1.399999999999997 1.224606353822377e-16 0.5
1.599999999999996 1.224606353822377e-16 0.5
1.799999999999996 1.224606353822377e-16 0.5
1.999999999999996 1.224606353822377e-16 0.5
2.199999999999998 1.224606353822377e-16 0.5
2.399999999999998 1.224606353822377e-16 0.5
2.599999999999998 1.224606353822377e-16 0.5
2.799999999999999 1.224606353822377e-16 0.5
1 3 0 14
31
32
33
34
35
36
37
38
39
40
41
42
43
44
0 -0.2033683215379 0.4567727288213005
0 -0.3715724127386968 0.3345653031794294
0 -0.4755282581475767 0.1545084971874739
0 -0.4972609476841367 -0.05226423163382656
0 -0.4330127018922196 -0.2499999999999995
0 -0.2938926261462368 -0.4045084971874736
0 -0.1039558454088799 -0.4890738003669028
0 0.1039558454088795 -0.4890738003669028
0 0.2938926261462363 -0.4045084971874739
0 0.4330127018922187 -0.2500000000000009
0 0.4972609476841366 -0.05226423163382756
0 0.4755282581475769 0.1545084971874732
0 0.3715724127386976 0.3345653031794286
0 0.2033683215379005 0.4567727288213003
2 1 0 243
45
46
47
48
49
50
51
52
53
54
55
56
57
58
59
60
61
62
63
64
65
66
67
68
69
70
71
72
73
74
75
76
77
78
79
80
81
82
83
84
85
86
87
88
89
90
91
92
93
94
95
96
97
98
99
100
101
102
103
104
105
106
107
108
109
110
111
112
113
114
115
116
117
118
119
120
121
122
123
124
125
126
127
128
129
130
131
132
133
134
135
136
137
138
139
140
141
142
143
144
145
146
147
148
149
150
151
152
153
154
155
156
157
158
159
160
161
162
163
164
165
166
167
168
169
170
171
172
173
174
175
176
177
178
179
180
181
182
183
184
185
186
187
188
189
190
191
192
193
194
195
196
197
198
199
200
201
202
203
204
205
206
207
208
209
210
211
212
213
214
215
216
217
218
219
220
221
222
223
224
225
226
227
228
229
230
231
232
233
234
235
236
237
238
239
240
241
242
243
244
245
246
247
248
249
250
251
252
253
254
255
256
257
258
259
260
261
262
263
264
265
266
267
268
269
270
271
272
273
274
275
276
277
278
279
280
281
282
283
284
285
286
287
1.499999999999996 -0.1705872210923172 0.470000000000001
1.699999999999996 0.1705872210861102 0.4700000000022538
1.099985756383256 0.170268858877636 0.4701154280562463
2.099999999999997 -0.1705872210923131 0.4700000000000024
0.8999999999999989 -0.170587221092312 0.4700000000000029
0.1733980530574199 0.01665947018727918 -0.4997223849829815
2.815017941459239 -0.1999989159369591 -0.4582580426179569
2.823711309139898 0.3726138852215783 -0.3334049977730994
0.1797249886510009 0.4755282581475765 -0.1545084971874746
0.1685537070816203 -0.4777167676401701 -0.1476031500863981
2.300071913891718 0.1706639096233394 0.4699721586988709
2.811590778488048 -0.4939500824146835 0.07754557422914204
0.6999451058530501 0.1691706190961065 0.4705117444173312
0.4999999999999996 -0.1705872210923187 0.4700000000000004
2.815870910966102 0.4437787096028687 0.2303485552444659
0.1722440727678885 0.4413639400619566 0.2349422746399327
2.499999999999998 -0.1705872210923191 0.4700000000000003
0.1733256318217433 -0.4393910679956139 0.2386115868219182
2.69272736324151 0.1635371435769528 0.4724993149949438
2.81374455627838 -0.3002389472687527 0.3998206779832068
0.3074516587484249 0.1624878560174166 0.472861181158766
1.900007570305319 0.1706484513377599 0.4699777718743985
1.799886234783961 0.3211885713658677 0.3831943392378767
1.599666594150279 0.3209267945638003 0.3834136050416108
1.699447924385651 0.4332514569032696 0.2495860074026473
1.900510225504101 0.4332740617060127 0.2495467640599138
1.800295763430667 0.4927704677916852 0.08471874687673202
1.598061780002511 0.4927045388236735 0.08510133619721381
1.698866824335246 0.4917141103247398 -0.09064895866776183
1.495945939236711 0.4917863141371305 -0.09025641931417144
1.901903094971392 0.4916791552732186 -0.09083836342545021
1.800265642904181 0.4297711154589908 -0.2555323625632079
2.003673754250038 0.4296955533625491 -0.2556594051085403
1.901660549261361 0.3141520804937168 -0.388983894681347
2.105480847941033 0.3141294523495166 -0.3890021685885476
2.003609894329668 0.159292554392499 -0.4739471300842666
1.799647924702509 0.1594441457308423 -0.4738961535950275
1.90144511029669 -0.01534467087992406 -0.4997644856085582
1.697550237449654 -0.01511601005978066 -0.4997714540066015
1.799226089561907 -0.1879960861752165 -0.4633114196550745
1.595439425362787 -0.1877361718964755 -0.4634167991793748
2.00220044573045 -0.1883858660314423 -0.463153069167833
1.697040225314287 -0.3370870994882059 -0.3692861862548183
1.49322318563847 -0.3369399429737553 -0.3694204580540207
1.391500188074996 -0.1874007953559748 -0.4635525233454652
1.289205280230809 -0.3368705864964311 -0.3694837045845872
1.187359794274617 -0.1870585348931102 -0.4636907423311825
1.08495349997638 -0.3368195133217983 -0.3695302632338344
0.9826603961601424 -0.1867396270911356 -0.4638192661736504
1.085232575363405 -0.01323057295682304 -0.4998249212866783
2.104541710761415 0.4916822959376083 -0.0908213623632797
1.187089528171164 -0.4443522822418049 -0.2292401563131978
0.9829766244560001 -0.4444189968488548 -0.229110792499737
0.8803517827128337 -0.01283456366377633 -0.4998352468319541
0.9826295099798081 0.1627003832824405 -0.4727880976502549
0.7778540319688819 0.1629073985887989 -0.4727168068569492
0.8799456021129672 0.3182376851587443 -0.3856485132148235
0.7780193839686178 -0.1863565558889221 -0.4639733118156895
2.207800592868367 0.1591047442907047 -0.4740102112235447
1.594756718513473 -0.4442061276280568 -0.2295232366835361
1.798094077050826 -0.4443356770580519 -0.2292723404455116
1.187258580227071 0.1620275924672338 -0.4730190897620011
1.696310554338568 -0.4962061567372603 -0.06147723168814188
1.899147146248763 -0.4962533145783169 -0.06109539892687548
1.085067069244555 -0.496327238927291 -0.06049191597901168
0.8810814647868536 -0.4963569130636461 -0.06024794481082362
1.797110666790291 -0.4867311392576932 0.114423765350158
1.394902403225042 0.4925850049805817 0.08579051735640925
0.6754923856642016 0.3181905907770655 -0.3856873707304169
0.7780810783754027 0.432819064025136 -0.2503350910607725
1.292695843970719 0.4918743666481474 -0.08977531639868426
2.309881344566157 0.3143717519624397 -0.3888063805650138
2.411832828956413 0.1584595142231216 -0.4742262986720289
1.191850523633783 0.4924411914729003 0.08661219856781319
1.592897014602982 -0.4865683342644314 0.1151141003141516
2.000210391006788 -0.4867369115925471 0.1143992084472134
2.102060884841043 -0.4962764118211832 -0.06090749600739959
2.203522056047423 -0.4865929122549724 0.1150101636518473
2.305623620385891 -0.4962845541773837 -0.0608411150863913
0.9830289701952096 -0.4864038277579142 0.1158072378672825
0.7792480108655692 -0.4863559514522605 0.1160081397444439
0.6769656673108707 -0.4963395467966822 -0.06039084604196312
2.407037956536107 -0.4864663121361712 0.1155444812902514
1.18636082240027 -0.4864312468102493 0.115692014100483
1.595655464884745 0.1598125445045834 -0.4737720449952388
2.308965126290842 -0.01625461418236843 -0.4997357176726338
0.5725603697929161 0.1630126815822976 -0.4726805111736134
0.5752821847331617 -0.4862537550058685 0.116435758007121
1.393625750527978 0.4302442240176825 -0.2547349754144927
0.5733383660088521 0.4329565777469002 -0.25009718468166
0.676061450501598 0.4930422696461371 -0.08312232156398106
2.203653733268578 -0.4441496769315602 -0.2296324552008943
2.408213589250892 -0.4441873253446224 -0.2295596218919839
1.295776271402566 0.432556192834513 0.2507890349287855
1.896228193292162 -0.4176806354068769 0.2748506627354345
2.303796023847945 -0.4178857915513814 0.2745386406673482
1.08707104391588 -0.417433588150759 0.2752257246036106
1.288217989562002 -0.4177242827993147 0.2747843218959156
1.09405416618091 0.4321575640504821 0.2514753264913946
0.6845955522158264 -0.4173392853688476 0.2753686999058165
2.505828943092878 -0.4183617692244131 0.2738127645881742
0.9867927199058009 0.4920297854810382 0.08891957152102976
0.8882693062101427 0.4313636769336092 0.2528346855601835
2.514334910923655 -0.01648851357221479 -0.4997280549660774
0.9836608475471054 0.4320963055134479 -0.2515805691257357
2.306560323520005 -0.3368464948409251 -0.3695056683102204
2.500614307077682 -0.333127574667146 -0.3728619302052504
2.627895537272281 -0.4409409884906193 -0.2357351154769173
0.4828220957747636 0.4939926106088608 -0.07727419144735477
0.5746823936996749 0.4907614636208993 0.09567228347161306
2.617942217938694 0.1591142587650348 -0.4740070175194177
0.497995590952315 -0.4135011001349827 0.2810993422033553
0.4821526083704368 -0.4965697999626117 -0.0584673735094349
0.5759238107745451 -0.4439733577466709 -0.229973167154663
1.193496604100944 -0.3054960693914832 0.3958183315440988
0.3589999467924285 0.4867925633954534 0.1141621663375545
0.4956992861279527 0.4217786937079236 0.2685195217000759
2.605027030355742 -0.4875399347299571 0.1109270573102396
0.3476040364729397 0.4367876946593894 -0.2433444262647822
0.6910282709913447 0.4275973342758178 0.2591534675056743
1.389689216447799 -0.4865048914310284 0.115381933653771
1.491996299084657 -0.4186160877807996 0.2734237938642098
1.695767606174872 -0.4184930785270766 0.2736120304828173
1.793857068840235 -0.3042140287353872 0.3968045170113176
1.190186978768927 0.4303099493108337 -0.2546239335257151
2.706240292499829 -0.008140870286888504 -0.4999337218381773
2.811120654706107 0.1859364765649786 -0.4641418174250206
0.8892330534467646 -0.4184129568129128 0.2737345385059686
2.098424640605007 -0.4186561189274722 0.2733624957535072
0.3449151975200028 -0.4447088067517696 -0.2285477569293062
0.467898208343258 -0.3362374191710019 -0.3700599923650542
0.247515594911153 -0.3212697926203699 -0.3831262459681724
0.3757381424913113 -0.190527031487916 -0.4622763786658395
1.90001796224892 -0.33714763391279 -0.3692309208977593
1.391210195947131 -0.4441989652048031 -0.2295370978970113
1.492899686597586 -0.4962081137637658 -0.06146143372071331
1.289164308438467 -0.4962566552427787 -0.06106825793528005
1.087208884019774 0.4922627229213286 -0.08762084011283637
2.104637747963305 -0.01575360559809837 -0.4997517622886983
1.500188761610362 0.170483204164343 0.4700377400782398
1.289482813554802 -0.01401146987349117 -0.4998036401547954
0.8805935128917679 -0.3366172367925363 -0.3697145329766705
2.100007922968026 0.1707078847312083 0.4699561874160149
2.199999999998933 0.3213580501946198 0.38305222042838
2.400484511790051 0.3211660608192745 0.3832132061631359
2.300729384567748 0.4337303039749213 0.248752936492863
2.490201138577574 0.4304126961968141 0.2544502131116989
2.402028803597766 0.4929203772326305 0.08384212371380674
2.63149943919186 0.4892001843932907 0.103359467827434
2.510249977166274 0.4918229631169217 -0.09005649865995845
2.682374460807634 0.4934899277580555 -0.0804219572091425
2.631518686539464 0.4290220811639223 -0.2567879550792382
2.498759371115452 0.1693212575254179 0.4704575557369773
0.6764678725539212 -0.01295285739097338 -0.4998321953270008
1.299999999999997 0.1705872210922579 0.4700000000000225
1.498048036877426 0.4330315073898249 0.2499674250931429
0.8999708252744801 0.1696223727497378 0.4703490732028171
0.5018685544944317 0.1660799445981085 0.4716115477830131
1.493533308785359 -0.01466699919509012 -0.4997848328377035
1.698054499242257 0.314384369611797 -0.3887961781496739
0.6999999999999995 -0.1705872210923794 0.4699999999999784
2.001695675607656 0.4927554652302626 0.08480596373904031
1.596762345738026 0.4299328113742624 -0.2552602156698589
2.503688809565296 -0.4962793841346191 -0.06088327260391959
2.299999999999998 -0.1705872210922104 0.4700000000000397
2.206687456626285 0.429604436275484 -0.2558124866624449
0.7790279976207125 -0.4442227729418997 -0.2294910194317186
2.001037603588172 -0.4442722198743686 -0.229395280352279
0.4673400968061476 0.3195871498718363 -0.3845309527681698
0.2462938380585393 0.3105253331052126 -0.3918852095957396
1.391893567561537 0.1606473397495861 -0.4734896326545926
1.494722383014295 0.3149706601934401 -0.3883213659036913
0.2999999999999998 -0.1705872210921237 0.4700000000000712
2.000231593791694 0.321254415507413 0.3831391398917506
0.7831352915721307 0.4914188134693659 0.09223637985285739
0.6761954574613431 -0.3360329550048303 -0.3702456659445478
1.289755481070987 0.3162081862693515 -0.3873143205927804
2.102937283449291 -0.3372195248775856 -0.3691652638606935
0.5738025043023343 -0.185612202844237 -0.4642715909414551
1.398947156664138 0.3206805824931167 0.3836195563470082
2.69580063536658 -0.4243623393715495 0.2644174822569526
0.3461890048489617 0.1454158203437393 -0.4783871227298633
1.084926435110485 0.3177353627572206 -0.3860624810228747
0.882566403779949 0.4926626243842733 -0.08534364964542121
2.100974467132944 0.4332792357294288 0.2495377804776705
2.603196944368817 -0.1869262594793613 -0.463744081921327
0.179346032130971 -0.4971888840854629 0.05294538263014252
0.3647267230597338 -0.4830905306619365 0.1289323046593391
2.597300423151054 0.3125176573144124 0.3902982370786621
2.205794556323478 -0.1883191147700135 -0.4631802144006569
2.824161096960994 -0.4766267506386914 -0.1510858715287525
2.823098562697361 -0.3769939260059333 -0.3284441805765979
2.202379960380095 0.4928397093650594 0.08431500977266032
0.4834664939312886 -0.02068932581039236 -0.4995717684152212
2.305141160985539 0.4915595711936828 -0.09148326605386746
2.411847890703517 0.4292613984673772 -0.2563876981951974
1.19817529283543 0.3202809284619936 0.3839532873456397
2.407726761102759 -0.1876584199788849 -0.4634482898997778
0.1734617323890084 0.4979492571015192 0.0452386709800935
0.9968046908245887 0.3197345168014725 0.384408427022261
0.7960318534069145 0.3171452318480695 0.386547412248529
2.507585989187771 0.3108780521762294 -0.3916054604766303
2.81086676766553 0.3055296961888961 0.3957923758067111
0.1874306128334065 0.3039465937340771 0.3970094056284459
0.1870288831340676 -0.3028147466648329 0.3978733833800812
1.3087180571313 -0.1657786572861128 0.4717175391994807
2.692747830129792 -0.1665878278798828 0.4714323870951831
2.826423603042057 0.498243064736366 0.0418789737471369
0.5979924854391288 0.3135562251802252 0.3894643676265235
1.995616251862559 -0.3056815320517066 0.3956751204745144
0.1924799894824422 -0.1669063482035354 -0.4713197120101812
0.4007651786990058 0.3062238864940428 0.3952555266412901
1.894957925318688 -0.1635125976302865 0.4725078098996841
1.69927283511862 -0.1641300195769529 0.4722936974740072
2.199379362469529 -0.3088247958313586 0.3932267100283495
2.401308843492228 -0.3090569492460384 0.3930442750158456
1.593682758138844 -0.3084480846804377 0.3935222726313843
1.392498930508252 -0.3098468266238906 0.3924218954532286
1.102847600241796 -0.1643546244395457 0.4722155836324505
2.60237665904427 -0.3078988438552494 0.3939521569335555
1.000038480288565 -0.3057635372582302 0.3956117532168817
0.7970613495252845 -0.3066368667188258 0.3949352250291953
0.1574103151624385 0.1776119499956189 -0.4673906238027821
0.5999999999999511 -0.3037389937272137 0.397168256145402
0.3995302687622994 -0.3017103110340738 0.3987115350923804
2.677503075301655 -0.4971954616477799 -0.05288357889601421
2.679697659664698 0.3000394143575561 -0.3999704361974454
2.854188746777089 0.4749004342375457 -0.1564275473214054
0.3068090251379574 -0.497320589364192 -0.05169363011486713
2.868417345987705 -0.4320473778333008 0.2516645849287679
2.668080073911132 -0.3209003479293008 -0.3834357399863159
0.3097886109661982 0.4966517606042096 -0.05776702077084187
0.1558148228503358 0.4041076681314347 -0.2944435303370992
2.664742670617445 0.4143290799320737 0.2798774973495391
2.851158634066175 -0.1492941971529125 0.4771909918433785
2.855032650584647 0.1456873495294318 0.4783045015333738
0.1447008878424134 0.1426979733198439 0.4792048501532608
0.1449673494152593 -0.1456873495290921 0.4783045015334773
2.873123786245815 -0.001058793743154976 -0.4999988789545527
0.152429381887205 -0.4084484783303627 -0.288391817757736
0.321187592681878 -0.3974048555524621 0.3034293670417
0.3286668905743893 0.4075666120952441 0.2896367668394412
0.3234309670021606 -0.04159998363122731 -0.4982664361181491
2 2 0 22
288
289
290
291
292
293
294
295
296
297
298
299
300
301
302
303
304
305
306
307
308
309
3 0.2296443803543195 -0.2067727288213013
3 -0.2109263120221879 0.2912028840612659
3 -0.2361584913747503 -0.2131974668354363
3 0.2774265179586212 0.1554583524113266
3 -0.0002872470668942126 -0.3281161585437114
3 0.06424824579191743 0.3022642316338265
3 -0.3073241669467799 0.03230107154560249
3 0.3553329152997588 -0.1154546629007514
3 0.1899367807373565 -0.01996316008822485
3 0.1019118566730492 0.1312548652305598
3 0.006672191613956377 -0.0309323457865008
3 -0.114702109172102 0.1528510268097331
3 0.07754365599571281 -0.1741659029493487
3 -0.08858686716074195 0.3477143138753754
3 0.2196078189768387 0.3022642316338264
3 -0.3038829411141113 0.1912925600356653
3 -0.1519645937618588 -0.3413180659205497
3 0.1519645937618586 -0.3413180659205503
3 0.3670260101245546 0.03373427332042395
3 -0.3553329152997589 -0.1154546629007504
3 -0.1709552375085928 -0.05554672384071616
3 -0.07919162035040447 -0.1905461106460438
2 3 0 22
310
311
312
313
314
315
316
317
318
319
320
321
322
323
324
325
326
327
328
329
330
331
0 0.2296443803543195 -0.2067727288213013
0 -0.2109263120221879 0.2912028840612659
0 -0.2361584913747503 -0.2131974668354363
0 0.2774265179586212 0.1554583524113266
0 -0.0002872470668942126 -0.3281161585437114
0 0.06424824579191743 0.3022642316338265
0 -0.3073241669467799 0.03230107154560249
0 0.3553329152997588 -0.1154546629007514
0 0.1899367807373565 -0.01996316008822485
0 0.1019118566730492 0.1312548652305598
0 0.006672191613956377 -0.0309323457865008
0 -0.114702109172102 0.1528510268097331
0 0.07754365599571281 -0.1741659029493487
0 -0.08858686716074195 0.3477143138753754
0 0.2196078189768387 0.3022642316338264
0 -0.3038829411141113 0.1912925600356653
0 -0.1519645937618588 -0.3413180659205497
0 0.1519645937618586 -0.3413180659205503
0 0.3670260101245546 0.03373427332042395
0 -0.3553329152997589 -0.1154546629007504
0 -0.1709552375085928 -0.05554672384071616
0 -0.07919162035040447 -0.1905461106460438
3 1 0 95
332
333
334
335
336
337
338
339
340
341
342
343
344
345
346
347
348
349
350
351
352
353
354
355
356
357
358
359
360
361
362
363
364
365
366
367
368
369
370
371
372
373
374
375
376
377
378
379
380
381
382
383
384
385
386
387
388
389
390
391
392
393
394
395
396
397
398
399
400
401
402
403
404
405
406
407
408
409
410
411
412
413
414
415
416
417
418
419
420
421
422
423
424
425
426
1.649860963494527 0.0001092157196228849 0.0001575718520949732
2.349977482140625 -1.051347510500067e-05 0.0001348416813147513
0.7493406526119122 4.706263733667004e-06 0.002171063678553964
1.19970601344018 -0.01621796543536058 0.04737195707319869
0.3716420511783915 -0.02099832124450462 -0.1189490551735046
1.999931280786141 0.04638045341690195 0.1275010530200467
2.66194887869605 -0.003729564407486317 -0.154553719902438
2.630218850953745 0.03814934927453981 0.1724236334867092
1.921938623213181 -0.05437134738001573 -0.1747404365500685
0.4810065143342624 0.01323846119200778 0.185359109527481
1.401845626481991 0.1324638625909572 -0.1463385919690363
0.9972580463647559 0.008690333833837327 -0.1957204977355718
2.125957518500518 0.1663519948237634 -0.1229884451637042
1.423909170221934 -0.1989372625833731 -0.05058033517045876
0.974841144227356 0.1864006719102331 0.09141393075004192
2.122193750527456 -0.2000277730160631 0.0001149967398100804
1.437937770799349 0.09936750720161439 0.1863288177402944
0.9685826729642085 -0.2046492940526658 0.01342262831452474
0.2767899181193307 0.2015917399007285 0.08375211980857036
2.556229102299016 -0.2085879714248499 0.02913536233681399
1.844576045116284 -0.1978054681193636 0.09004906226249175
1.845059011609555 0.2079497207392393 -0.0587129069437422
0.5489808801981393 -0.2135066117116274 0.01270827236882177
2.723774509839355 0.2267892590197559 -0.01036861214237749
0.5399991901129042 0.193399204483211 -0.02984355399947052
0.2703440565189327 -0.2330056084027696 0.03350720949754149
0.9034030407172994 -0.04270228061478426 0.2262603941060325
2.219818093164999 -0.08151569279029243 0.2252543018077929
2.227079748695602 0.1939990569070185 0.144860290006633
1.251974123475719 -0.07998114844351492 -0.2231595862241968
2.210628168671897 -0.07100584258853708 -0.2200048216348281
0.6187522334675885 -0.04443656359607862 -0.234183207798157
1.757609637828949 0.04671601631141722 0.240273054014143
2.481735334781103 0.198444087785786 -0.13088744344222
1.533427077243713 -0.1497567567856235 0.1876843282865808
1.149262452303478 0.2102893018675221 -0.1091893278249579
0.237057689348994 -0.05117640734557234 0.2478603349825599
0.6971067207669143 0.1595533040927515 0.2027328786417913
1.595505978505747 -0.02391466839000629 -0.2567667647832555
1.695368649872106 -0.2264911980383185 -0.1236166529848694
0.8384827351159992 0.2071232916476911 -0.1314927687384599
1.592323343574362 0.2533037322783254 -0.01665897739772857
2.454693915429992 -0.1490473293071882 -0.1994004555461784
1.210025230388138 0.2282489794519818 0.1518687181046919
0.6738362285492795 -0.1402987413329939 0.2237678571109568
0.8033370572013339 -0.2017778810809886 -0.174016691238141
2.405371761758665 0.07451576036141498 0.2641159094837911
1.289914695779929 -0.1811773298758589 0.2063882119587165
2.780597875196209 -0.1047200969113703 0.03760492027024514
1.127565973774281 0.034602024799088 0.2722025657477241
1.191856178480799 -0.2729520882238783 -0.05615879638226767
2.511447498819891 0.2392403940697527 0.1064838750272637
2.332383602133527 -0.2537257315244998 0.1021668207352771
0.2149050698548206 0.07036716667698165 -0.2671869416918374
0.2149975453222275 -0.1549148744644106 -0.2209989895099695
2.495708550808704 -0.1373690339768588 0.2409335006715701
2.795489328046799 -0.1227982413110594 0.2610974961992862
2.810489735603011 -0.08064536055737428 -0.2827930477867714
2.802405322831546 0.1354252528922216 -0.248538605285683
2.715146036777721 -0.243350357034016 -0.141416038009943
2.023683850103819 0.2660940099293517 0.07077867109581185
1.781716270153172 0.1072003628831313 -0.2529227536537142
1.79998150043119 0.2528281579484227 0.158060044476493
1.91654349670524 -0.2711753794355973 -0.1112129154409547
2.006774907179287 -0.1490417843278924 0.2362758703185999
2.3055988380707 0.1311995716971874 -0.256017214668416
0.3141209403280639 0.252907311498617 -0.1514884277489835
2.795951546810781 0.1900455498903874 0.201328449203921
1.066973870137278 -0.1944332131144254 0.2137921688267465
0.759977547951284 -0.2697162298814428 0.06254312495322945
2.29500269229961 -0.277716708876947 -0.1150766088385176
1.034663272433371 -0.2087499411120587 -0.1970476176121819
1.378298710866787 0.2925631384685993 9.310267087093982e-05
0.4212913335735551 -0.2032881242219256 0.1976159734344225
2.297050549986858 0.2779883881946693 -0.04466521552234602
2.50678860419836 0.05717652009529137 -0.2948372429916321
0.4211385488429942 -0.2352480389768217 -0.1728877225197624
1.589487179679607 0.204251271232062 -0.2278155241760755
0.8046591508815728 0.05656019210550266 -0.2848360175016951
0.211656022511121 -0.003836050234532682 0.03309913780460308
0.629073332364032 0.1737606619806686 -0.2284133659972398
0.723511437113651 0.2914314116034519 0.03227319305402247
2.058106934652391 0.05845547605273949 -0.2940408894548952
1.651812299682315 -0.2861931836948486 0.07567082947054238
1.729306605360004 -0.1595233489243315 0.2602962382607003
1.440678790679436 -0.1664394050459602 -0.2578206265203872
1.594288412339364 0.2379002045634116 0.1917273103208659
0.4722411996596132 0.2291472729911327 0.1726087787053283
0.4482152497418197 0.07476777579681121 -0.2991770789523381
1.23845613030617 0.1213404694535392 -0.2751753636537696
1.402504557657746 -0.002560638536184684 0.01009454791354594
2.080223562976635 0.03783301169144036 0.3155589175159927
0.9979869201899849 -0.00104439063312408 0.009796936978753612
1.321903307386701 -0.01043682570320272 0.3123790377737228
2.146805669374767 0.001655258101433834 -0.005702575369126018
$EndNodes
$Elements
3 1576 1 1576
2 2 2 57
1 3 301 1 
2 1 293 16 
3 1 301 293 
4 4 289 3 
5 289 301 3 
6 5 303 4 
7 4 303 289 
8 6 294 5 
9 294 303 5 
10 7 307 6 
11 6 307 294 
12 8 290 7 
13 290 307 7 
14 9 304 8 
15 8 304 290 
16 10 292 9 
17 292 304 9 
18 11 305 10 
19 10 305 292 
20 12 288 11 
21 288 305 11 
22 13 295 12 
23 12 295 288 
24 14 306 13 
25 13 306 295 
26 15 291 14 
27 291 306 14 
28 16 302 15 
29 15 302 291 
30 293 302 16 
31 295 296 288 
32 296 300 288 
33 300 305 288 
34 299 301 289 
35 289 303 299 
36 304 309 290 
37 290 308 307 
38 290 309 308 
39 291 297 296 
40 296 306 291 
41 291 302 297 
42 292 305 300 
43 300 309 292 
44 292 309 304 
45 293 299 297 
46 297 302 293 
47 293 301 299 
48 299 303 294 
49 294 308 299 
50 307 308 294 
51 295 306 296 
52 297 298 296 
53 298 300 296 
54 297 299 298 
55 299 308 298 
56 298 309 300 
57 308 309 298 
2 3 2 57
58 31 2 323 
59 2 44 315 
60 2 315 323 
61 32 31 311 
62 311 31 323 
63 33 32 325 
64 32 311 325 
65 34 33 316 
66 316 33 325 
67 35 34 329 
68 34 316 329 
69 36 35 312 
70 312 35 329 
71 37 36 326 
72 36 312 326 
73 38 37 314 
74 314 37 326 
75 39 38 327 
76 38 314 327 
77 40 39 310 
78 310 39 327 
79 41 40 317 
80 40 310 317 
81 42 41 328 
82 41 317 328 
83 43 42 313 
84 313 42 328 
85 44 43 324 
86 43 313 324 
87 315 44 324 
88 317 310 318 
89 318 310 322 
90 322 310 327 
91 321 311 323 
92 311 321 325 
93 326 312 331 
94 312 329 330 
95 312 330 331 
96 313 318 319 
97 318 313 328 
98 313 319 324 
99 314 322 327 
100 322 314 331 
101 314 326 331 
102 315 319 321 
103 319 315 324 
104 315 321 323 
105 321 316 325 
106 316 321 330 
107 329 316 330 
108 317 318 328 
109 319 318 320 
110 320 318 322 
111 319 320 321 
112 321 320 330 
113 320 322 331 
114 330 320 331 
3 1 4 1462
115 201 346 358 369 
116 201 245 346 369 
117 53 328 317 350 
118 65 368 350 419 
119 203 417 370 421 
120 332 340 337 352 
121 24 348 364 366 
122 222 347 362 395 
123 334 354 341 356 
124 274 303 380 388 
125 222 362 340 395 
126 337 340 332 353 
127 203 370 215 421 
128 344 353 78 414 
129 218 66 394 423 
130 215 370 342 421 
131 333 339 338 365 
132 65 341 368 419 
133 370 417 342 421 
134 341 354 336 356 
135 334 336 354 356 
136 182 367 346 372 
137 325 311 249 368 
138 201 358 346 381 
139 218 394 337 423 
140 78 344 77 353 
141 244 201 245 346 
142 182 346 228 372 
143 56 274 303 380 
144 324 350 248 368 
145 340 370 84 371 
146 244 201 346 381 
147 222 362 347 402 
148 227 343 367 372 
149 24 348 184 364 
150 248 350 65 368 
151 86 340 222 362 
152 353 393 78 414 
153 318 317 328 350 
154 222 212 347 395 
155 227 101 343 372 
156 338 339 333 351 
157 136 222 212 347 
158 53 243 328 350 
159 274 380 225 388 
160 136 222 347 402 
161 334 354 336 363 
162 203 185 417 421 
163 348 366 24 425 
164 20 19 369 376 
165 227 101 99 343 
166 361 417 185 421 
167 53 350 317 398 
168 184 364 348 418 
169 56 351 225 380 
170 317 350 318 398 
171 165 366 345 379 
172 56 351 380 391 
173 336 356 334 363 
174 84 370 340 393 
175 84 178 340 371 
176 339 355 338 365 
177 172 266 358 401 
178 86 222 340 395 
179 56 225 274 380 
180 347 384 359 396 
181 294 56 303 380 
182 149 367 182 372 
183 172 358 400 401 
184 20 369 358 376 
185 337 218 392 394 
186 359 384 173 396 
187 339 365 333 383 
188 30 339 63 399 
189 256 65 350 419 
190 225 380 351 388 
191 342 417 361 421 
192 347 173 384 396 
193 318 322 385 411 
194 325 249 357 368 
195 57 20 19 369 
196 345 366 165 415 
197 340 371 178 395 
198 203 215 185 421 
199 45 24 366 425 
200 86 178 222 395 
201 341 369 19 376 
202 337 353 332 364 
203 315 350 324 368 
204 182 146 228 346 
205 26 396 364 423 
206 350 368 341 419 
207 248 65 281 368 
208 220 377 363 408 
209 149 182 228 372 
210 86 340 178 395 
211 165 166 366 379 
212 332 352 337 364 
213 227 367 149 372 
214 266 376 358 401 
215 338 298 355 380 
216 257 364 26 396 
217 257 25 26 364 
218 30 388 339 399 
219 355 365 339 383 
220 165 379 345 382 
221 385 398 318 411 
222 343 372 101 410 
223 202 19 341 369 
224 347 352 120 396 
225 298 338 355 390 
226 99 343 101 410 
227 24 184 46 364 
228 56 270 351 391 
229 93 377 343 410 
230 200 348 138 404 
231 172 358 266 400 
232 184 46 364 418 
233 201 358 20 369 
234 166 165 366 415 
235 218 337 392 423 
236 218 392 360 423 
237 256 65 248 350 
238 63 30 29 339 
239 24 366 364 416 
240 315 324 248 368 
241 77 353 344 392 
242 225 351 387 388 
243 348 375 138 404 
244 78 79 77 344 
245 78 79 344 414 
246 310 318 322 385 
247 310 317 318 398 
248 200 224 138 348 
249 202 341 65 419 
250 65 341 18 368 
251 338 230 389 391 
252 248 281 315 368 
253 56 270 162 351 
254 346 375 244 381 
255 62 325 249 357 
256 173 347 120 396 
257 93 102 377 410 
258 162 225 56 351 
259 340 347 337 352 
260 227 367 343 421 
261 126 377 354 401 
262 363 377 354 408 
263 30 29 339 388 
264 94 361 343 403 
265 147 346 245 369 
266 343 377 93 403 
267 297 355 380 399 
268 201 20 57 369 
269 128 382 349 400 
270 202 18 65 341 
271 124 128 349 400 
272 75 353 77 392 
273 87 84 370 371 
274 86 340 362 414 
275 338 374 230 391 
276 128 379 165 382 
277 276 243 53 350 
278 158 377 220 408 
279 94 91 361 403 
280 158 354 377 408 
281 337 344 340 353 
282 84 340 82 393 
283 124 349 128 382 
284 340 362 347 395 
285 84 83 370 393 
286 224 138 348 375 
287 310 318 385 398 
288 350 318 398 411 
289 325 321 311 368 
290 84 87 178 371 
291 133 342 367 421 
292 99 227 343 421 
293 45 23 24 425 
294 259 173 359 384 
295 227 149 101 372 
296 271 390 365 407 
297 285 357 249 405 
298 202 57 19 369 
299 200 348 404 418 
300 133 367 342 404 
301 77 344 95 392 
302 126 158 354 377 
303 53 276 350 398 
304 120 352 347 395 
305 342 370 215 409 
306 353 373 76 409 
307 340 344 337 426 
308 244 245 147 346 
309 324 315 248 281 
310 29 387 339 388 
311 241 244 375 381 
312 18 341 58 405 
313 297 355 298 380 
314 351 374 208 402 
315 76 353 73 373 
316 133 367 169 421 
317 18 368 341 405 
318 177 408 363 420 
319 224 348 199 375 
320 18 58 217 405 
321 251 387 29 388 
322 66 26 364 423 
323 294 56 380 391 
324 25 66 26 364 
325 357 368 249 405 
326 340 337 347 426 
327 218 360 188 423 
328 54 329 357 386 
329 386 408 177 420 
330 233 339 197 378 
331 58 341 19 376 
332 18 217 368 405 
333 338 389 230 407 
334 130 362 374 407 
335 133 169 221 421 
336 228 346 146 413 
337 120 352 139 396 
338 76 373 73 409 
339 179 90 382 417 
340 228 372 346 413 
341 298 296 300 390 
342 199 375 348 425 
343 288 355 295 390 
344 75 77 95 392 
345 136 212 121 347 
346 177 287 386 420 
347 143 346 146 375 
348 298 355 296 390 
349 91 94 93 403 
350 300 309 298 389 
351 197 63 29 339 
352 315 319 350 368 
353 379 382 128 400 
354 94 343 93 403 
355 197 233 63 339 
356 340 332 370 371 
357 230 374 338 407 
358 315 319 324 350 
359 338 351 333 374 
360 353 364 337 394 
361 336 354 341 405 
362 165 180 345 415 
363 173 122 347 384 
364 223 363 177 408 
365 259 359 173 396 
366 336 341 357 405 
367 202 65 256 419 
368 341 336 357 411 
369 339 378 233 383 
370 147 346 369 413 
371 197 339 29 378 
372 143 146 118 375 
373 264 225 387 388 
374 143 244 346 375 
375 341 357 405 411 
376 104 345 180 371 
377 196 355 365 390 
378 332 340 370 393 
379 85 87 84 370 
380 172 400 349 401 
381 133 169 367 404 
382 30 63 280 399 
383 340 352 332 371 
384 62 249 285 357 
385 244 47 201 381 
386 83 84 82 393 
387 298 309 380 389 
388 130 362 242 374 
389 338 374 333 407 
390 179 382 345 417 
391 160 350 276 398 
392 349 400 358 401 
393 93 98 102 410 
394 218 229 360 392 
395 360 378 55 423 
396 137 208 374 402 
397 180 371 345 415 
398 90 361 382 417 
399 128 142 165 379 
400 338 333 365 407 
401 144 354 156 376 
402 332 364 353 394 
403 297 296 298 355 
404 257 364 396 416 
405 223 177 363 420 
406 153 160 276 398 
407 172 266 265 400 
408 336 350 341 356 
409 93 343 98 410 
410 19 58 18 341 
411 200 224 348 418 
412 199 381 375 425 
413 121 347 212 395 
414 335 342 367 375 
415 24 45 366 416 
416 335 342 375 422 
417 76 78 77 353 
418 339 380 355 399 
419 133 221 342 421 
420 84 178 86 340 
421 298 380 338 389 
422 335 343 361 403 
423 87 371 370 417 
424 196 365 271 390 
425 332 364 348 366 
426 331 385 322 411 
427 202 369 341 419 
428 333 351 339 387 
429 130 374 242 407 
430 224 199 241 375 
431 345 371 104 417 
432 336 408 386 420 
433 99 343 94 421 
434 110 349 97 377 
435 335 343 403 424 
436 152 137 208 374 
437 87 370 85 417 
438 173 120 139 396 
439 338 355 339 380 
440 354 376 144 401 
441 181 165 345 382 
442 325 357 321 368 
443 107 111 395 415 
444 133 74 404 409 
445 73 353 71 373 
446 225 351 145 387 
447 130 397 362 407 
448 90 382 361 403 
449 29 378 339 387 
450 122 120 173 347 
451 317 310 277 398 
452 373 404 74 409 
453 129 215 370 409 
454 71 373 353 394 
455 67 218 66 394 
456 194 195 355 365 
457 336 357 354 405 
458 241 375 199 381 
459 343 361 94 421 
460 188 360 55 423 
461 233 63 339 399 
462 317 277 53 398 
463 295 355 272 390 
464 190 189 360 383 
465 339 351 338 380 
466 275 230 374 391 
467 339 383 233 399 
468 207 76 73 409 
469 218 229 188 360 
470 19 18 202 341 
471 107 111 108 395 
472 352 395 111 415 
473 97 377 349 403 
474 385 386 287 420 
475 30 280 293 399 
476 335 342 361 421 
477 190 383 360 406 
478 30 293 388 399 
479 342 404 375 422 
480 335 367 342 421 
481 21 358 201 381 
482 367 375 342 404 
483 189 378 360 383 
484 286 256 248 350 
485 121 120 347 395 
486 335 361 382 403 
487 332 353 340 393 
488 84 86 82 340 
489 156 376 354 405 
490 124 141 128 400 
491 179 345 104 417 
492 133 115 169 404 
493 20 205 19 376 
494 275 389 230 391 
495 144 132 156 354 
496 223 238 177 420 
497 341 350 336 411 
498 340 353 344 414 
499 54 357 174 386 
500 90 96 382 403 
501 353 76 393 409 
502 141 379 128 400 
503 209 359 378 387 
504 27 55 378 423 
505 194 365 355 383 
506 335 403 382 424 
507 165 119 180 415 
508 132 354 144 401 
509 170 230 389 407 
510 24 258 45 416 
511 76 78 353 393 
512 259 140 173 384 
513 115 367 169 404 
514 347 352 340 395 
515 126 211 158 377 
516 340 393 353 414 
517 143 241 244 375 
518 241 47 244 381 
519 133 404 342 409 
520 351 339 387 388 
521 380 388 297 399 
522 114 412 372 413 
523 260 259 359 384 
524 109 349 124 382 
525 121 136 347 402 
526 331 322 320 411 
527 128 141 142 379 
528 27 378 359 423 
529 338 365 355 390 
530 20 358 205 376 
531 341 354 334 376 
532 288 296 295 355 
533 345 370 332 371 
534 246 271 365 407 
535 86 222 234 362 
536 107 395 371 415 
537 260 384 359 387 
538 306 291 59 399 
539 348 364 332 418 
540 332 370 345 422 
541 58 341 376 405 
542 150 362 222 402 
543 333 339 378 387 
544 353 393 332 409 
545 334 358 346 369 
546 207 73 373 409 
547 353 332 373 409 
548 208 384 351 402 
549 360 392 337 423 
550 209 378 28 387 
551 124 349 172 400 
552 110 109 97 349 
553 203 129 215 370 
554 331 386 385 411 
555 180 104 179 345 
556 196 355 195 365 
557 382 403 349 424 
558 354 363 334 377 
559 165 142 166 379 
560 174 386 357 408 
561 366 379 45 425 
562 339 333 378 383 
563 334 356 341 369 
564 286 256 350 419 
565 97 349 109 403 
566 313 324 319 350 
567 202 253 369 419 
568 351 380 339 388 
569 309 308 380 389 
570 45 366 262 379 
571 365 390 338 407 
572 278 383 355 399 
573 330 357 329 386 
574 99 94 106 421 
575 55 360 189 378 
576 242 362 150 374 
577 172 349 124 401 
578 67 66 364 394 
579 166 119 165 415 
580 55 188 189 360 
581 179 90 96 382 
582 273 357 157 408 
583 335 382 349 424 
584 333 351 384 402 
585 45 379 262 425 
586 109 124 128 382 
587 223 363 238 420 
588 328 60 313 350 
589 339 388 380 399 
590 71 353 75 392 
591 93 94 98 343 
592 110 349 377 401 
593 333 374 351 402 
594 157 357 354 408 
595 364 396 337 423 
596 133 207 74 409 
597 20 49 205 358 
598 209 260 359 387 
599 174 54 273 357 
600 194 195 193 355 
601 122 121 347 402 
602 296 306 295 355 
603 82 340 86 414 
604 187 218 188 423 
605 25 364 257 416 
606 379 381 263 425 
607 181 165 180 345 
608 243 60 328 350 
609 342 417 370 422 
610 263 358 21 381 
611 87 88 371 417 
612 332 353 373 394 
613 95 392 344 406 
614 343 334 377 424 
615 86 362 183 414 
616 205 358 49 376 
617 277 310 385 398 
618 90 361 92 403 
619 187 188 55 423 
620 332 394 373 418 
621 232 354 157 357 
622 228 146 219 413 
623 216 221 215 342 
624 341 334 369 376 
625 263 381 379 400 
626 332 364 394 418 
627 343 377 334 410 
628 134 135 356 413 
629 134 356 412 413 
630 234 150 242 362 
631 122 121 120 347 
632 127 145 351 384 
633 215 342 221 421 
634 86 234 183 362 
635 107 371 180 415 
636 130 362 103 414 
637 153 356 154 419 
638 358 381 263 400 
639 346 334 369 413 
640 346 372 367 424 
641 367 372 343 424 
642 362 397 103 414 
643 345 370 417 422 
644 189 233 378 383 
645 353 392 71 394 
646 52 355 196 390 
647 225 145 264 387 
648 190 192 383 406 
649 344 353 337 392 
650 103 362 130 397 
651 49 358 266 376 
652 93 102 186 377 
653 90 92 96 403 
654 28 378 29 387 
655 72 200 404 418 
656 307 235 294 391 
657 334 349 358 401 
658 337 352 347 396 
659 349 382 109 403 
660 70 392 218 394 
661 104 180 107 371 
662 215 216 342 409 
663 93 377 186 403 
664 94 99 98 343 
665 110 377 211 401 
666 102 363 377 410 
667 72 373 71 394 
668 67 364 46 418 
669 347 384 122 402 
670 77 210 95 344 
671 211 377 126 401 
672 216 133 221 342 
673 88 104 371 417 
674 351 384 145 387 
675 72 404 373 418 
676 201 57 245 369 
677 345 371 332 415 
678 194 355 193 383 
679 82 393 340 414 
680 260 140 259 384 
681 127 351 208 384 
682 333 378 359 387 
683 155 390 271 407 
684 263 49 21 358 
685 220 102 363 377 
686 139 168 396 416 
687 179 181 345 382 
688 210 344 79 397 
689 139 396 352 416 
690 90 91 92 361 
691 278 355 59 399 
692 335 345 379 382 
693 54 284 329 386 
694 272 355 52 390 
695 76 77 75 353 
696 345 332 366 415 
697 273 232 157 357 
698 359 378 360 423 
699 296 355 288 390 
700 95 237 392 406 
701 207 373 74 409 
702 329 316 54 357 
703 354 357 232 405 
704 337 364 352 396 
705 145 162 127 351 
706 183 362 130 414 
707 333 360 378 383 
708 147 369 164 413 
709 309 290 308 389 
710 260 259 209 359 
711 348 373 332 422 
712 319 350 368 411 
713 332 342 370 422 
714 333 359 384 387 
715 30 251 29 388 
716 225 162 145 351 
717 356 398 134 412 
718 71 73 75 353 
719 208 351 270 391 
720 358 369 334 376 
721 202 253 57 369 
722 205 49 266 376 
723 349 377 334 424 
724 181 128 165 382 
725 365 333 397 407 
726 335 382 379 400 
727 345 382 361 417 
728 335 361 342 422 
729 342 332 370 409 
730 110 211 126 401 
731 333 360 383 406 
732 105 178 371 395 
733 263 49 358 400 
734 328 313 318 350 
735 67 394 364 418 
736 354 377 334 401 
737 222 150 234 362 
738 183 130 103 414 
739 95 344 210 406 
740 361 417 342 422 
741 193 355 278 383 
742 345 335 361 382 
743 297 296 355 399 
744 204 393 76 409 
745 124 349 110 401 
746 294 235 56 391 
747 87 105 178 371 
748 92 361 91 403 
749 123 384 208 402 
750 203 185 89 417 
751 346 372 334 413 
752 380 389 308 391 
753 78 393 80 414 
754 147 143 244 346 
755 341 405 368 411 
756 278 233 383 399 
757 150 374 362 402 
758 335 349 382 400 
759 87 85 88 417 
760 179 181 180 345 
761 110 124 109 349 
762 21 201 47 381 
763 234 242 130 362 
764 99 98 343 410 
765 250 379 263 425 
766 199 224 184 348 
767 348 404 373 422 
768 370 371 345 417 
769 153 154 160 419 
770 343 335 367 424 
771 28 29 61 387 
772 342 373 332 409 
773 127 208 123 384 
774 155 170 390 407 
775 87 88 104 371 
776 112 72 200 404 
777 122 123 121 402 
778 185 94 361 421 
779 144 376 266 401 
780 334 363 356 412 
781 318 320 322 411 
782 334 358 376 401 
783 201 21 20 358 
784 206 71 75 392 
785 24 364 258 416 
786 352 371 340 395 
787 347 362 340 426 
788 348 375 335 425 
789 333 347 362 402 
790 352 364 332 416 
791 343 377 349 424 
792 194 196 195 365 
793 172 144 266 401 
794 99 106 227 421 
795 250 45 262 425 
796 344 397 210 406 
797 174 357 273 408 
798 352 332 415 416 
799 72 373 394 418 
800 120 111 139 352 
801 258 24 25 364 
802 262 366 166 379 
803 82 80 393 414 
804 240 210 397 406 
805 348 332 373 418 
806 147 245 164 369 
807 356 363 336 420 
808 121 108 120 395 
809 110 97 211 377 
810 54 316 231 357 
811 199 348 184 425 
812 237 190 360 406 
813 216 133 342 409 
814 205 58 19 376 
815 333 384 351 387 
816 77 79 210 344 
817 184 68 46 418 
818 173 140 122 384 
819 342 332 373 422 
820 190 191 189 383 
821 72 73 71 373 
822 101 410 372 412 
823 360 392 237 406 
824 366 415 332 416 
825 375 381 335 425 
826 335 367 346 375 
827 220 102 223 363 
828 251 61 29 387 
829 352 396 364 416 
830 365 383 194 406 
831 223 177 175 408 
832 240 210 116 397 
833 134 356 153 398 
834 347 333 359 384 
835 341 356 350 419 
836 184 348 224 418 
837 350 356 336 398 
838 189 233 197 378 
839 139 352 167 416 
840 356 412 363 420 
841 333 362 347 426 
842 343 334 372 410 
843 85 84 83 370 
844 331 330 386 411 
845 330 329 312 386 
846 65 17 281 368 
847 335 345 361 422 
848 81 82 80 393 
849 147 146 143 346 
850 151 275 374 391 
851 334 356 372 412 
852 73 76 75 353 
853 347 359 333 426 
854 179 104 88 417 
855 101 113 410 412 
856 79 397 344 414 
857 101 372 113 412 
858 209 28 61 387 
859 59 278 193 355 
860 263 379 159 400 
861 371 395 352 415 
862 373 404 342 422 
863 342 404 373 409 
864 139 111 167 352 
865 249 368 217 405 
866 333 360 359 378 
867 334 346 358 424 
868 370 332 393 409 
869 17 65 18 368 
870 250 262 379 425 
871 334 343 372 424 
872 341 368 350 411 
873 333 397 344 406 
874 164 413 369 419 
875 166 366 261 415 
876 185 94 91 361 
877 356 334 372 413 
878 200 138 112 404 
879 333 384 347 402 
880 264 387 251 388 
881 333 383 365 406 
882 159 263 250 379 
883 167 166 261 415 
884 72 394 69 418 
885 303 299 380 388 
886 363 410 198 412 
887 144 156 268 376 
888 346 367 335 424 
889 364 366 332 416 
890 336 386 385 420 
891 363 408 336 420 
892 178 212 222 395 
893 185 361 89 417 
894 346 335 375 381 
895 47 241 199 381 
896 334 377 363 410 
897 116 210 79 397 
898 336 363 354 408 
899 333 397 362 426 
900 58 376 268 405 
901 167 352 111 415 
902 333 344 397 426 
903 284 54 174 386 
904 326 255 314 386 
905 213 134 398 412 
906 345 335 379 422 
907 375 404 348 422 
908 68 67 46 418 
909 196 52 272 355 
910 290 308 389 391 
911 196 246 271 365 
912 379 422 335 425 
913 124 172 141 400 
914 334 358 349 424 
915 232 132 157 354 
916 229 237 360 392 
917 336 398 385 411 
918 261 415 366 416 
919 282 311 323 368 
920 151 275 230 374 
921 294 380 308 391 
922 136 150 222 402 
923 154 413 164 419 
924 151 374 152 391 
925 102 198 363 410 
926 66 46 67 364 
927 284 312 329 386 
928 268 376 156 405 
929 167 415 261 416 
930 258 364 25 416 
931 293 297 388 399 
932 56 235 270 391 
933 332 345 366 422 
934 307 294 308 391 
935 260 145 384 387 
936 286 248 60 350 
937 132 126 354 401 
938 135 153 356 413 
939 334 372 346 424 
940 208 270 152 391 
941 362 397 344 426 
942 304 236 290 389 
943 152 151 137 374 
944 297 380 299 388 
945 123 122 384 402 
946 282 249 311 368 
947 27 55 28 378 
948 162 208 127 351 
949 272 195 196 355 
950 72 71 69 394 
951 325 62 316 357 
952 273 54 231 357 
953 134 135 153 356 
954 360 406 333 426 
955 357 386 330 411 
956 372 410 334 412 
957 188 190 189 360 
958 363 334 410 412 
959 276 160 243 350 
960 345 417 361 422 
961 130 242 148 407 
962 70 71 392 394 
963 107 105 371 395 
964 214 310 327 385 
965 349 334 377 401 
966 269 249 217 405 
967 240 397 365 406 
968 332 366 348 422 
969 348 335 422 425 
970 333 362 374 402 
971 114 372 228 413 
972 76 204 78 393 
973 206 70 71 392 
974 352 415 167 416 
975 193 252 59 355 
976 337 360 359 426 
977 335 400 381 424 
978 330 316 329 357 
979 220 158 211 377 
980 224 241 138 375 
981 359 360 333 426 
982 347 396 359 426 
983 157 126 158 354 
984 349 377 343 403 
985 346 335 381 424 
986 345 379 366 422 
987 125 124 110 401 
988 154 356 153 413 
989 254 139 168 396 
990 116 246 365 397 
991 79 103 397 414 
992 261 366 45 416 
993 362 414 340 426 
994 125 172 124 401 
995 344 333 406 426 
996 78 80 79 414 
997 381 400 358 424 
998 368 405 357 411 
999 331 320 330 411 
1000 359 360 337 423 
1001 158 220 175 408 
1002 22 263 381 425 
1003 192 194 383 406 
1004 208 162 270 351 
1005 229 218 70 392 
1006 135 154 153 413 
1007 169 149 227 367 
1008 337 359 396 426 
1009 352 332 371 415 
1010 277 385 214 398 
1011 81 80 78 393 
1012 240 116 365 397 
1013 154 356 413 419 
1014 141 159 379 400 
1015 333 365 397 406 
1016 129 370 83 393 
1017 338 389 380 391 
1018 141 159 142 379 
1019 169 367 227 421 
1020 237 192 190 406 
1021 114 228 135 413 
1022 101 114 113 372 
1023 148 230 170 407 
1024 131 363 198 412 
1025 115 182 169 367 
1026 184 224 68 418 
1027 183 234 130 362 
1028 344 340 414 426 
1029 308 290 307 391 
1030 290 236 307 391 
1031 337 396 347 426 
1032 257 396 168 416 
1033 142 262 166 379 
1034 356 369 334 413 
1035 231 316 62 357 
1036 131 198 410 412 
1037 215 129 216 409 
1038 164 369 253 419 
1039 344 406 360 426 
1040 334 376 354 401 
1041 190 229 237 360 
1042 277 310 214 385 
1043 335 375 348 422 
1044 28 197 29 378 
1045 255 385 314 386 
1046 177 238 287 420 
1047 100 101 113 410 
1048 107 108 105 395 
1049 351 374 338 391 
1050 346 381 358 424 
1051 21 49 20 358 
1052 354 357 336 408 
1053 258 261 45 416 
1054 138 375 118 404 
1055 290 389 236 391 
1056 240 116 246 365 
1057 303 299 294 380 
1058 385 386 336 411 
1059 24 46 25 364 
1060 259 48 359 396 
1061 182 149 169 367 
1062 321 368 357 411 
1063 113 372 114 412 
1064 213 412 398 420 
1065 246 155 271 407 
1066 66 218 187 423 
1067 90 89 91 361 
1068 308 298 309 380 
1069 157 354 158 408 
1070 353 337 392 394 
1071 139 167 168 416 
1072 140 260 145 384 
1073 75 95 206 392 
1074 157 132 126 354 
1075 255 50 314 385 
1076 58 269 217 405 
1077 102 198 223 363 
1078 89 361 90 417 
1079 189 191 233 383 
1080 325 316 321 357 
1081 74 373 72 404 
1082 370 393 129 409 
1083 269 285 249 405 
1084 151 152 275 391 
1085 335 349 400 424 
1086 341 369 356 419 
1087 221 169 227 421 
1088 287 385 255 386 
1089 355 383 339 399 
1090 232 357 285 405 
1091 51 236 304 389 
1092 214 327 267 385 
1093 344 360 392 426 
1094 274 225 64 388 
1095 373 404 348 418 
1096 22 250 263 425 
1097 301 30 293 388 
1098 263 265 49 400 
1099 81 83 82 393 
1100 112 138 118 404 
1101 52 196 271 390 
1102 319 318 350 411 
1103 134 153 163 398 
1104 176 326 312 386 
1105 315 281 17 368 
1106 179 96 181 382 
1107 313 319 318 350 
1108 92 91 93 403 
1109 365 397 246 407 
1110 262 45 261 366 
1111 296 288 300 390 
1112 356 336 398 420 
1113 321 357 330 411 
1114 89 185 91 361 
1115 154 164 161 419 
1116 27 209 48 359 
1117 350 398 336 411 
1118 17 18 217 368 
1119 337 392 360 426 
1120 214 398 385 420 
1121 66 25 46 364 
1122 252 195 272 355 
1123 262 261 166 366 
1124 186 377 97 403 
1125 193 195 252 355 
1126 62 285 232 357 
1127 67 70 218 394 
1128 160 60 243 350 
1129 74 72 112 404 
1130 335 379 381 400 
1131 173 139 254 396 
1132 198 238 363 420 
1133 254 168 257 396 
1134 326 314 331 386 
1135 305 283 292 390 
1136 198 363 131 420 
1137 228 114 149 372 
1138 129 83 81 393 
1139 240 365 194 406 
1140 100 131 198 410 
1141 207 204 76 409 
1142 130 117 397 407 
1143 137 374 150 402 
1144 82 86 183 414 
1145 177 287 255 386 
1146 27 359 48 423 
1147 73 74 207 373 
1148 344 392 337 426 
1149 190 192 191 383 
1150 372 412 356 413 
1151 236 389 275 391 
1152 235 307 236 391 
1153 185 106 94 421 
1154 259 173 254 396 
1155 206 95 237 392 
1156 323 315 17 368 
1157 338 380 351 391 
1158 205 268 58 376 
1159 354 376 341 405 
1160 344 414 362 426 
1161 188 229 190 360 
1162 286 350 160 419 
1163 336 386 357 411 
1164 257 26 48 396 
1165 253 202 256 419 
1166 344 392 360 406 
1167 258 25 257 416 
1168 356 398 412 420 
1169 147 164 219 413 
1170 48 209 259 359 
1171 264 64 225 388 
1172 85 370 203 417 
1173 100 131 410 412 
1174 209 61 260 387 
1175 97 186 211 377 
1176 26 48 396 423 
1177 213 134 163 398 
1178 101 149 114 372 
1179 199 184 23 425 
1180 164 253 161 419 
1181 335 381 379 425 
1182 327 214 277 310 
1183 100 410 113 412 
1184 287 50 255 385 
1185 187 55 27 423 
1186 251 264 61 387 
1187 117 246 397 407 
1188 60 160 286 350 
1189 213 398 214 420 
1190 283 389 292 390 
1191 282 323 17 368 
1192 102 98 198 410 
1193 131 363 412 420 
1194 359 396 48 423 
1195 151 150 137 374 
1196 204 129 393 409 
1197 170 389 283 390 
1198 99 101 100 410 
1199 314 385 331 386 
1200 233 247 63 399 
1201 199 22 381 425 
1202 198 131 238 420 
1203 127 123 122 384 
1204 47 199 22 381 
1205 95 210 239 406 
1206 316 330 321 357 
1207 293 297 299 388 
1208 174 273 157 408 
1209 198 238 223 363 
1210 231 62 232 357 
1211 242 151 230 374 
1212 116 79 103 397 
1213 358 400 349 424 
1214 230 275 51 389 
1215 83 129 203 370 
1216 239 240 194 406 
1217 220 186 102 377 
1218 214 385 226 420 
1219 129 81 204 393 
1220 119 107 180 415 
1221 349 403 343 424 
1222 357 386 336 408 
1223 216 207 133 409 
1224 237 95 239 406 
1225 277 39 327 310 
1226 236 51 275 389 
1227 172 125 144 401 
1228 312 176 36 326 
1229 297 291 296 399 
1230 177 386 176 408 
1231 58 268 269 405 
1232 151 242 150 374 
1233 69 394 67 418 
1234 192 194 193 383 
1235 132 125 126 401 
1236 231 232 273 357 
1237 118 138 143 375 
1238 110 126 125 401 
1239 319 368 321 411 
1240 132 144 125 401 
1241 268 266 144 376 
1242 105 104 107 371 
1243 89 85 203 417 
1244 59 291 302 399 
1245 127 140 145 384 
1246 153 276 163 398 
1247 229 206 237 392 
1248 73 72 74 373 
1249 245 57 253 369 
1250 121 212 108 395 
1251 22 263 21 381 
1252 259 254 48 396 
1253 191 278 233 383 
1254 279 30 301 388 
1255 311 321 323 368 
1256 155 170 171 390 
1257 68 69 67 418 
1258 138 241 143 375 
1259 305 171 283 390 
1260 369 413 356 419 
1261 116 117 246 397 
1262 245 253 164 369 
1263 290 304 8 236 
1264 121 123 136 402 
1265 37 314 326 255 
1266 133 74 115 404 
1267 105 87 104 371 
1268 217 249 282 368 
1269 113 114 134 412 
1270 303 289 299 388 
1271 137 123 208 402 
1272 83 203 85 370 
1273 63 247 280 399 
1274 172 265 141 400 
1275 297 298 299 380 
1276 192 239 194 406 
1277 239 210 240 406 
1278 55 189 197 378 
1279 154 161 160 419 
1280 226 385 287 420 
1281 53 163 276 398 
1282 130 148 117 407 
1283 280 302 293 399 
1284 179 88 90 417 
1285 176 312 284 386 
1286 171 170 283 390 
1287 305 288 52 390 
1288 240 246 196 365 
1289 103 130 117 397 
1290 204 81 78 393 
1291 167 119 166 415 
1292 194 240 196 365 
1293 314 322 331 385 
1294 260 264 145 387 
1295 264 251 64 388 
1296 326 176 255 386 
1297 59 302 247 399 
1298 213 214 226 420 
1299 304 51 8 236 
1300 249 32 311 325 
1301 283 304 292 389 
1302 250 23 45 425 
1303 229 70 206 392 
1304 59 15 302 291 
1305 200 68 224 418 
1306 92 93 186 403 
1307 300 292 309 389 
1308 277 163 53 398 
1309 112 118 115 404 
1310 344 397 362 414 
1311 303 274 4 289 
1312 5 56 274 303 
1313 214 39 327 277 
1314 109 128 181 382 
1315 97 96 92 403 
1316 80 103 79 414 
1317 292 389 300 390 
1318 174 176 386 408 
1319 247 233 278 399 
1320 220 211 186 377 
1321 315 321 319 368 
1322 205 266 268 376 
1323 156 232 285 405 
1324 305 52 171 390 
1325 280 247 302 399 
1326 327 310 322 385 
1327 47 22 21 381 
1328 174 176 284 386 
1329 159 250 262 379 
1330 175 177 176 408 
1331 51 170 230 389 
1332 337 396 359 423 
1333 148 170 155 407 
1334 43 313 60 324 
1335 17 2 315 323 
1336 69 200 72 418 
1337 99 100 98 410 
1338 319 320 318 411 
1339 282 17 217 368 
1340 155 171 271 390 
1341 28 55 197 378 
1342 283 51 304 389 
1343 140 127 122 384 
1344 247 15 302 59 
1345 191 193 278 383 
1346 291 59 14 306 
1347 228 219 135 413 
1348 30 1 301 293 
1349 50 38 314 327 
1350 64 4 274 289 
1351 56 5 294 303 
1352 327 267 39 214 
1353 299 308 294 380 
1354 185 215 106 421 
1355 100 113 131 412 
1356 105 212 178 395 
1357 295 12 288 52 
1358 385 398 336 420 
1359 191 192 193 383 
1360 268 156 269 405 
1361 248 43 60 324 
1362 290 7 307 236 
1363 226 50 287 385 
1364 257 48 254 396 
1365 237 239 192 406 
1366 142 159 262 379 
1367 306 59 14 252 
1368 52 11 288 305 
1369 284 176 36 312 
1370 92 186 97 403 
1371 255 37 314 50 
1372 304 290 309 389 
1373 328 313 60 42 
1374 286 160 161 419 
1375 109 181 96 382 
1376 221 227 106 421 
1377 279 301 289 388 
1378 26 66 187 423 
1379 320 321 330 411 
1380 2 17 315 281 
1381 323 321 315 368 
1382 305 52 11 171 
1383 243 328 60 42 
1384 265 263 159 400 
1385 38 50 267 327 
1386 154 219 164 413 
1387 111 107 119 415 
1388 64 279 289 388 
1389 279 251 30 388 
1390 80 82 183 414 
1391 213 163 214 398 
1392 168 167 261 416 
1393 312 326 331 386 
1394 327 322 314 385 
1395 312 331 330 386 
1396 157 158 174 408 
1397 1 30 280 293 
1398 155 246 117 407 
1399 260 61 264 387 
1400 325 249 32 62 
1401 98 100 198 410 
1402 258 257 168 416 
1403 131 412 213 420 
1404 51 9 283 304 
1405 301 293 299 388 
1406 304 9 283 292 
1407 26 27 48 423 
1408 69 71 70 394 
1409 326 176 36 255 
1410 163 277 214 398 
1411 167 111 119 415 
1412 116 103 117 397 
1413 74 112 115 404 
1414 305 292 300 390 
1415 235 307 7 236 
1416 253 256 161 419 
1417 137 150 136 402 
1418 10 305 283 292 
1419 270 235 152 391 
1420 80 183 103 414 
1421 141 265 159 400 
1422 108 212 105 395 
1423 113 134 213 412 
1424 215 221 106 421 
1425 88 85 89 417 
1426 204 216 129 409 
1427 17 2 323 282 
1428 154 135 219 413 
1429 10 305 171 283 
1430 69 70 67 394 
1431 306 13 295 272 
1432 319 321 320 411 
1433 88 89 90 417 
1434 12 295 272 52 
1435 199 23 22 425 
1436 214 267 226 385 
1437 255 176 177 386 
1438 113 213 131 412 
1439 50 226 267 385 
1440 247 278 59 399 
1441 236 275 152 391 
1442 30 1 279 301 
1443 298 308 299 380 
1444 13 306 252 272 
1445 155 117 148 407 
1446 235 236 152 391 
1447 174 175 176 408 
1448 258 168 261 416 
1449 69 68 200 418 
1450 204 207 216 409 
1451 174 158 175 408 
1452 271 171 52 390 
1453 231 34 33 316 
1454 282 31 311 249 
1455 123 137 136 402 
1456 304 309 292 389 
1457 51 283 170 389 
1458 286 161 256 419 
1459 23 250 22 425 
1460 226 287 238 420 
1461 3 64 279 289 
1462 40 277 317 310 
1463 26 187 27 423 
1464 131 213 226 420 
1465 289 301 299 388 
1466 311 323 31 282 
1467 156 285 269 405 
1468 14 15 59 291 
1469 289 279 3 301 
1470 8 7 290 236 
1471 291 297 302 399 
1472 6 5 294 56 
1473 37 38 314 50 
1474 302 297 293 399 
1475 288 12 11 52 
1476 313 60 42 43 
1477 300 288 305 390 
1478 329 284 35 312 
1479 64 3 4 289 
1480 31 32 311 249 
1481 251 279 64 388 
1482 131 226 238 420 
1483 40 277 53 317 
1484 51 8 9 304 
1485 44 324 248 281 
1486 40 39 277 310 
1487 41 40 53 317 
1488 302 280 16 247 
1489 328 243 41 42 
1490 315 324 44 281 
1491 14 13 306 252 
1492 44 2 315 281 
1493 11 10 305 171 
1494 16 280 302 293 
1495 284 36 35 312 
1496 280 16 1 293 
1497 36 37 326 255 
1498 54 284 35 329 
1499 32 33 325 62 
1500 35 34 54 329 
1501 324 248 43 44 
1502 283 9 10 292 
1503 16 15 302 247 
1504 279 1 3 301 
1505 307 7 6 235 
1506 323 2 31 282 
1507 39 38 267 327 
1508 4 5 274 303 
1509 13 12 295 272 
1510 394 423 364 337 
1511 364 423 394 66 
1512 367 375 182 346 
1513 146 182 375 346 
1514 146 375 182 118 
1515 425 184 24 348 
1516 425 24 184 23 
1517 390 298 389 300 
1518 390 389 298 338 
1519 399 306 296 355 
1520 399 296 306 291 
1521 413 146 147 346 
1522 413 147 146 219 
1523 328 53 41 243 
1524 328 41 53 317 
1525 421 335 343 361 
1526 421 343 335 367 
1527 389 407 390 170 
1528 390 407 389 338 
1529 419 153 350 160 
1530 419 350 153 356 
1531 398 350 153 160 
1532 398 153 350 356 
1533 391 208 374 152 
1534 391 374 208 351 
1535 413 134 114 412 
1536 413 114 134 135 
1537 378 209 27 359 
1538 378 27 209 28 
1539 408 223 220 175 
1540 408 220 223 363 
1541 355 59 306 252 
1542 355 306 59 399 
1543 395 111 120 352 
1544 395 120 111 108 
1545 407 242 230 374 
1546 407 230 242 148 
1547 407 362 333 397 
1548 407 333 362 374 
1549 400 49 266 265 
1550 400 266 49 358 
1551 54 316 34 231 
1552 34 316 54 329 
1553 422 425 366 348 
1554 366 425 422 379 
1555 354 156 232 132 
1556 354 232 156 405 
1557 272 306 355 295 
1558 272 355 306 252 
1559 109 403 96 97 
1560 96 403 109 382 
1561 295 52 390 272 
1562 390 52 295 288 
1563 60 324 350 248 
1564 350 324 60 313 
1565 289 274 388 303 
1566 289 388 274 64 
1567 294 235 6 56 
1568 6 235 294 307 
1569 62 316 33 325 
1570 33 316 62 231 
1571 50 327 385 267 
1572 385 327 50 314 
1573 375 182 404 367 
1574 375 404 182 118 
1575 115 404 182 367 
1576 115 182 404 118 
$EndElements
