$MeshFormat
4.1 0 8
$EndMeshFormat
$PhysicalNames
3
2 2 "x_min"
2 3 "x_max"
3 1 "domain"
$EndPhysicalNames
$Entities
2 3 3 1
1 3 1.224606353822377e-16 0.5 0 
2 0 1.224606353822377e-16 0.5 0 
1 2.9999999 -0.5000000999999999 -0.5000000999999999 3.0000001 0.5000000999999999 0.5000000999999999 0 2 1 -1 
2 -1.000000000583867e-07 -9.999999987753936e-08 0.4999999 3.0000001 1.000000001224606e-07 0.5000000999999999 0 2 2 -1 
3 -1e-07 -0.5000000999999999 -0.5000000999999999 1e-07 0.5000000999999999 0.5000000999999999 0 2 2 -2 
1 -1.000000000583867e-07 -0.5000000999999999 -0.5000000999999999 3.0000001 0.5000000999999999 0.5000000999999999 0 4 -1 -2 3 2 
2 2.9999999 -0.5000000999999999 -0.5000000999999999 3.0000001 0.5000000999999999 0.5000000999999999 1 3 1 1 
3 -1e-07 -0.5000000999999999 -0.5000000999999999 1e-07 0.5000000999999999 0.5000000999999999 1 2 1 3 
1 -1.000000000583867e-07 -0.5000000999999999 -0.5000000999999999 3.0000001 0.5000000999999999 0.5000000999999999 1 1 3 1 2 -3 
$EndEntities
$Nodes
9 610 1 610
0 1 0 1
1
3 1.224606353822377e-16 0.5
0 2 0 1
2
0 1.224606353822377e-16 0.5
1 1 0 17
3
4
5
6
7
8
9
10
11
12
13
14
15
16
17
18
19
3 -0.1710100716628346 0.4698463103929541
3 -0.32139380484327 0.3830222215594888
3 -0.4330127018922196 0.2499999999999996
3 -0.4924038765061041 0.08682408883346455
3 -0.4924038765061038 -0.08682408883346625
3 -0.4330127018922186 -0.2500000000000012
3 -0.3213938048432686 -0.38302222155949
3 -0.171010071662833 -0.4698463103929547
3 1.271037311859069e-15 -0.5
3 0.1710100716628354 -0.4698463103929538
3 0.3213938048432702 -0.3830222215594886
3 0.4330127018922194 -0.2499999999999998
3 0.4924038765061041 -0.08682408883346472
3 0.492403876506104 0.08682408883346542
3 0.4330127018922191 0.2500000000000004
3 0.3213938048432691 0.3830222215594895
3 0.1710100716628339 0.4698463103929544
1 2 0 16
20
21
22
23
24
25
26
27
28
29
30
31
32
33
34
35
0.1764705882352944 1.224606353822377e-16 0.5
0.3529411764705889 1.224606353822377e-16 0.5
0.529411764705883 1.224606353822377e-16 0.5
0.7058823529411772 1.224606353822377e-16 0.5
0.8823529411764719 1.224606353822377e-16 0.5
1.058823529411766 1.224606353822377e-16 0.5
1.235294117647061 1.224606353822377e-16 0.5
1.411764705882356 1.224606353822377e-16 0.5
1.58823529411765 1.224606353822377e-16 0.5
1.764705882352944 1.224606353822377e-16 0.5
1.941176470588237 1.224606353822377e-16 0.5
2.11764705882353 1.224606353822377e-16 0.5
2.294117647058824 1.224606353822377e-16 0.5
2.470588235294118 1.224606353822377e-16 0.5
2.647058823529411 1.224606353822377e-16 0.5
2.823529411764705 1.224606353822377e-16 0.5
1 3 0 17
36
37
38
39
40
41
42
43
44
45
46
47
48
49
50
51
52
0 -0.1710100716628346 0.4698463103929541
0 -0.32139380484327 0.3830222215594888
0 -0.4330127018922196 0.2499999999999996
0 -0.4924038765061041 0.08682408883346455
0 -0.4924038765061038 -0.08682408883346625
0 -0.4330127018922186 -0.2500000000000012
0 -0.3213938048432686 -0.38302222155949
0 -0.171010071662833 -0.4698463103929547
0 1.271037311859069e-15 -0.5
0 0.1710100716628354 -0.4698463103929538
0 0.3213938048432702 -0.3830222215594886
0 0.4330127018922194 -0.2499999999999998
0 0.4924038765061041 -0.08682408883346472
0 0.492403876506104 0.08682408883346542
0 0.4330127018922191 0.2500000000000004
0 0.3213938048432691 0.3830222215594895
0 0.1710100716628339 0.4698463103929544
2 1 0 335
53
54
55
56
57
58
59
60
61
62
63
64
65
66
67
68
69
70
71
72
73
74
75
76
77
78
79
80
81
82
83
84
85
86
87
88
89
90
91
92
93
94
95
96
97
98
99
100
101
102
103
104
105
106
107
108
109
110
111
112
113
114
115
116
117
118
119
120
121
122
123
124
125
126
127
128
129
130
131
132
133
134
135
136
137
138
139
140
141
142
143
144
145
146
147
148
149
150
151
152
153
154
155
156
157
158
159
160
161
162
163
164
165
166
167
168
169
170
171
172
173
174
175
176
177
178
179
180
181
182
183
184
185
186
187
188
189
190
191
192
193
194
195
196
197
198
199
200
201
202
203
204
205
206
207
208
209
210
211
212
213
214
215
216
217
218
219
220
221
222
223
224
225
226
227
228
229
230
231
232
233
234
235
236
237
238
239
240
241
242
243
244
245
246
247
248
249
250
251
252
253
254
255
256
257
258
259
260
261
262
263
264
265
266
267
268
269
270
271
272
273
274
275
276
277
278
279
280
281
282
283
284
285
286
287
288
289
290
291
292
293
294
295
296
297
298
299
300
301
302
303
304
305
306
307
308
309
310
311
312
313
314
315
316
317
318
319
320
321
322
323
324
325
326
327
328
329
330
331
332
333
334
335
336
337
338
339
340
341
342
343
344
345
346
347
348
349
350
351
352
353
354
355
356
357
358
359
360
361
362
363
364
365
366
367
368
369
370
371
372
373
374
375
376
377
378
379
380
381
382
383
384
385
386
387
1.491811240688743 0.1428520644379548 0.4791589378127203
1.84710603892944 -0.1539403328586275 0.4757124908170637
1.146159522867928 -0.1517940374813192 0.4764016899478001
0.9788808126359274 0.1516884371672259 0.4764353240784782
2.005863811181543 0.1532954991506577 0.4759206761007035
0.1413373072051707 0.08090471947807026 -0.4934110115980133
2.848910234376511 0.08524924520477584 -0.4926789686926122
0.1733353681372395 -0.4756743694736749 -0.1540580871808483
2.86949699226914 -0.467487148713259 -0.1773577339389157
2.870002755758125 0.4701619339619564 -0.170140400414343
0.1584298012934679 0.4707849456704802 -0.1684088326960408
0.6176470588235301 -0.1510327113523764 0.4766435986159362
2.374060202913238 -0.1537839951296494 0.4757630532544157
2.381421451110112 0.1462104156983772 0.4781448675258449
0.6075459041898237 0.1544430703960362 0.4755495116248623
1.500000000000003 -0.1510327113522969 0.4766435986159615
0.1657259330204567 -0.3745385366922693 0.3312414293720121
2.849808235534848 -0.3830222215594893 0.3213938048432693
2.869893768080879 0.3839863568750975 0.3202412804961132
0.1772304826027677 0.3767447638050483 0.3287299544390173
2.86465087442078 -0.2502970289188202 -0.4328410762790557
0.1482035089163436 -0.2518596008919292 -0.4319337234328411
0.2647058823529416 -0.1510327113524373 0.4766435986159169
2.735294117647058 -0.1510327113524367 0.4766435986159172
2.731507857603716 0.1595760278308602 0.4738517609355531
0.2835614871605257 0.1474807902157296 0.4777545567729772
0.4408817969436645 -0.1508685962676649 0.476695570212504
0.5290588067173412 -0.2874898670292318 0.4090838255853128
0.7050300131697109 -0.2877488966234021 0.4089016660421117
0.6167447898721334 -0.3973022385291273 0.3035637186156219
0.7922910057454735 -0.3975950099993675 0.3031801577009994
0.7041796714411296 -0.4701970391289912 0.1700433603359153
0.8795089019561626 -0.4703721286638984 0.1695584282074854
0.7914432613777977 -0.4995642276816144 0.02087061141586779
0.9666590169670035 -0.4995850406773375 0.02036632346357678
0.8786496260504283 -0.4828013676750844 -0.1300109201992969
1.053710552009757 -0.4826595013205736 -0.1305366070685736
0.9659232092807564 -0.4215472928917623 -0.2688826507151899
1.1406909094908 -0.4212837454198834 -0.2692953877157848
1.052917627126519 -0.3215874639793566 -0.3828596387859734
1.227684076285927 -0.3212227459442962 -0.3831656919506314
1.31546017172789 -0.4210165207705389 -0.2697129756579584
1.40241859418016 -0.3208522230406287 -0.3834760109444744
1.490252403229909 -0.4207422219838359 -0.2701406719472367
1.577169111090578 -0.3204766485022381 -0.383789939634656
1.664988645089226 -0.4204648699107263 -0.2705721588984277
1.751896402818355 -0.3201335199934771 -0.3840762025647854
1.839663388686457 -0.4201899250314756 -0.2709989426216326
1.926523348884933 -0.3197956074450395 -0.3843576062195962
2.014234200085395 -0.4198935806172146 -0.2714578806305956
2.101066944525934 -0.3194281981213676 -0.3846630034782866
2.013385310735225 -0.1901795466570666 -0.4624194416688301
0.8781772462792337 -0.3219083989420208 -0.3825898361046524
0.9651670884646515 -0.1925675402213348 -0.4614301057073591
1.664128156356396 -0.1909873947361425 -0.4620863718526017
1.314309681826801 -0.1915942452133916 -0.4618350844198725
1.403296576189491 -0.4823140803830275 -0.1318071616577585
1.752864484017451 -0.4820190197348856 -0.1328821455795321
2.187811496571608 -0.1897203250568948 -0.462608039554336
2.100202366398561 -0.04319461185003518 -0.4981307313418083
0.7905687785948713 -0.1929643634098376 -0.4612642999992912
0.8774777330403515 -0.04599096141603192 -0.4978803385031679
2.188733673156974 -0.419602646026446 -0.2719073729188031
2.101864133615286 -0.4817526892234872 -0.1338444859750977
2.276451915041779 -0.4816133353553734 -0.1343450602287731
0.7035206099734409 -0.3221295975215114 -0.3824036119084508
2.274581845462719 -0.04268426654928322 -0.4981747217484542
2.187015593175434 0.1077510216435487 -0.4882516946563232
2.012476848392585 0.1073166629620469 -0.4883473495890916
2.099383274935414 0.2485833192251935 -0.4338275387789318
1.924692952749034 0.2482119140260702 -0.4340401430000626
2.011688837279131 0.3668700466775305 -0.3397151289695921
1.836775797603769 0.3665881052811806 -0.3400193539584976
2.1862725350336 0.3670463213762452 -0.3395246647361074
1.923828508275349 0.4517075118541585 -0.2143835901708087
1.748841553153361 0.4515115853750035 -0.2147959223825046
1.661730570837977 0.3662148905044909 -0.3404212889535314
1.573792409959665 0.4512930934225972 -0.2152546023411881
1.486551744033531 0.3658280526071259 -0.3408369638488143
1.398599381334032 0.4510856407954379 -0.2156889998775299
1.836030342093818 0.495177543581424 -0.0692762609604972
2.011287922972878 0.4952433059334378 -0.06880456327976585
1.311383489130162 0.365455331176882 -0.3412365761673204
1.223272606870371 0.450849471021626 -0.2161822251701561
1.310562144529662 0.494979112517182 -0.07068011157109803
1.135162923504033 0.4949031362494631 -0.07121015187770174
1.047979186075444 0.4506089424059355 -0.2166831350700933
0.9598582709209461 0.4948133712600715 -0.07183124405328581
0.8727841881466968 0.4503752555706542 -0.2171684350214551
0.7847104926817544 0.4947166848256618 -0.0724941497991862
0.6977353041913965 0.4501956958079878 -0.2175404226252255
2.189601233843365 -0.4997420743501816 0.016057992532617
1.222370301308847 0.4934019071162029 0.08096022513613664
0.7029304563773554 -0.04638555668479288 -0.4978437306334608
2.364310008180342 -0.4997565676430749 0.0156004197896309
1.397888502779481 0.4933173716045539 0.08147374345870277
0.6097869265439884 0.4946145394939628 -0.07318782221910335
2.363356996700459 -0.4193273636033593 -0.2723317134185002
2.361400616282018 0.1081923978716062 -0.4881540792032696
0.871761817083178 0.4936442671947931 0.07946909755191456
1.923377264825452 0.4931095367213853 0.08272233552324765
2.098760434497683 0.4930331872580795 0.08317617604903141
0.6162325041347955 -0.4995432198109793 0.0213675347403407
1.054491091145219 -0.4706258996299179 0.1688527838015426
2.448908166916871 -0.04217554477829304 -0.4982180480699733
2.277422593122893 -0.4720946519624712 0.1647016684445947
2.102371876157818 -0.4719205663483201 0.1651998155491732
2.452254247944551 -0.4722806815825801 0.1641674687747046
1.309668422908954 0.4461392408200577 0.2257427248008284
1.574557907245779 0.2471261158490249 -0.4346592721493174
0.789513029460538 0.1046974895876372 -0.4889155711102343
0.6151082233593108 0.1042428075589152 -0.4890127166774244
0.964040432364856 0.1048104620045386 -0.4888913652892585
0.5284091685856918 -0.04674030954953814 -0.4978105497709077
1.48514558303852 0.4459399746199686 0.2261361073246414
0.5229058673238608 0.4499718605994701 -0.2180030382096797
2.190391251191578 -0.400784507095111 0.2989511312447721
2.01152343540765 0.4475574274140948 0.2229178080963414
2.185428334453993 0.4479032665066873 0.2222221047795189
2.273970350536779 0.4930618434049869 0.08300613578571267
2.362260044072074 0.4479110753024744 0.2222063649434487
2.449335994686176 0.4930271505216426 0.08321195135621803
1.837706017340383 0.1066542642361758 -0.4884924440769171
1.134169339979604 0.4464210172071874 0.2251849803954521
1.221405214991414 0.357757737598964 0.3492984414337844
1.83548937598521 0.4461174298860494 0.2257858249577811
2.539000121977884 -0.4997723326423934 0.01508693226540313
2.361708569441036 0.4953483010524231 -0.06804454896961241
2.015065922101163 -0.4004493973433177 0.299399866678951
1.92703584919957 -0.4718041696569157 0.1655319470505568
0.4400043567019086 0.4941245434761579 -0.07642601346713369
0.5226024581626247 0.4939262431329325 0.07769727372686397
1.839644605670958 -0.4001873806969196 0.2997499963818828
2.531728090258222 0.1107490375702111 -0.4875804043204279
2.447619952876457 0.2494644541791151 -0.4333214581590856
2.619366270246814 0.2510539863042495 -0.4324024698828
2.534464674573112 0.3674741942018107 -0.3390615233194854
2.53592887182494 0.4478592698749503 0.222310760844086
2.624089076150111 0.4929480734217773 0.08367913067042533
0.3229865405343923 0.4936552490876895 0.07940085042473573
0.4363449127066786 0.4469818425069956 0.2240697044873566
0.6094938236294392 0.4474494911284067 0.2231343830272016
1.752178552915761 -0.4716546920846667 0.1659573783672129
1.664250758335636 -0.399946083451398 0.3000718752763866
1.577081953407272 -0.4714722894169034 0.1664748639043855
1.488818956762059 -0.3996991848570341 0.3004006684823163
1.402486832175035 -0.4713525370402251 0.166813626019409
1.314146853976045 -0.3996074145852702 0.3005227349277855
0.4485520923946212 -0.3995472065743214 0.300602777296978
0.4479814547663155 0.1076003483460709 -0.4882849219828564
0.8817240832812846 -0.2881046157343453 0.4086511108422015
2.603319460336623 -0.03126944441179305 -0.4990212639218671
2.531313865450173 -0.1871156109867358 -0.4636677130500468
1.573103686509815 0.4932689446544002 0.08176642489148102
2.104201003601361 -0.292711362283995 0.4053641059465525
0.5273243453294094 0.2460478789530536 -0.4352705380136628
0.3543681544843474 0.2463951948479781 -0.4350740258344859
0.7864426225052665 0.3647647853056437 -0.3419746356104904
2.624353616003608 -0.4730731213834491 0.1618697680992978
2.538214605378651 -0.4021969499160751 0.2970481669329171
0.3818127484025132 -0.03344485733692621 -0.4988801875377621
0.4411947974107203 -0.192465619025406 -0.4614726270247969
0.5219656592961404 0.3636834500630087 0.343124391657409
0.6878188129607483 0.3736575397046737 0.332234921436399
2.284164292697472 0.3630376426498764 0.3438076061101916
1.915912204678049 0.367519611287472 0.3390122937580664
1.745008486277176 0.3596053800479175 0.347395985354743
1.037377838420604 0.3575269882540623 0.3495346229917425
2.705907320538167 0.3676616021031801 -0.3388582983179295
2.608209000451541 0.4493584945754217 -0.2192645510631181
1.834272854450426 0.2331476628185496 0.4423145569865951
2.700842448024443 -0.4997263944745752 0.01653876251239087
2.608241821830637 -0.4831768803193492 -0.1286083291426385
0.325413228312472 0.4447301383023424 -0.2285062451785059
0.3555171847619608 0.3669153958407961 0.3396661482912183
0.4448433889165148 0.2459893464677573 0.4353036198153717
1.126687583782046 0.2424757447115521 0.4372705263639183
1.309057982421425 0.2357705083052128 0.4409220650109286
2.279710487574561 -0.2924506149448833 0.4055522627459494
2.820487868454371 -0.4718728792460744 0.1653359786374996
1.755107667910753 -0.2909034558623722 0.4066634718871722
1.4043737566772 -0.2905499333749453 0.4069161292156098
1.635195347933002 0.2488512292336638 0.4336739163344903
2.819951816094633 0.2507779145630896 -0.4325626400504183
2.723470264555337 0.4390420348402372 0.2392531956805258
2.5984531313291 0.3602869494135972 0.3466890740739375
2.80162937522165 0.4925747401437932 0.0858494343154025
0.3247986863507207 -0.2970355209495467 0.4022062894762232
2.554290610024128 -0.1530515577284413 0.4759991813825918
2.670339071049201 -0.3005195128683288 0.399609837698451
2.558518092838855 0.1471344509026662 0.4778613327708896
2.456878697570829 0.2797982241490303 0.4143826175927858
2.186674295122375 0.495296334422418 -0.06842178825283825
2.534100445478337 0.4953652472027467 -0.06792107083786061
2.446963515860443 -0.4819273674891419 -0.1332141601519358
2.53455398310034 -0.4193542643235361 -0.2722902881001558
2.711498967597152 -0.4232976667653989 -0.2661185549918857
0.5301187288692537 -0.4703558796075088 0.1696034979552211
0.4415955353191253 -0.4995320654851541 0.02162673234993575
0.528641244372401 -0.4830511666482045 -0.1290797056078473
0.3537428603583059 -0.4831955474592669 -0.1285381768796311
0.4397751916162963 -0.422569979262008 -0.2672725437199006
0.2739249459858767 -0.4998168401985641 0.01353241493315258
0.70349571333816 -0.4829289344084489 -0.1295362663933156
2.721178524931895 0.4936621654376029 -0.07935783776954095
0.9616726352168345 0.3647794551227849 -0.3419589874828912
2.20104535973183 0.1456445357129188 0.478317540151904
2.125887882132779 0.2826666284999935 0.4124312998942329
0.800035020145022 0.1476353960194714 0.4777068032194788
0.8891867703287143 0.2833123866700719 0.4119879750178488
1.74962394151773 0.2476640378862572 -0.4343529950833476
1.135986607411272 0.3650509745107186 -0.3416691177276265
1.225021013601504 0.2459547413569852 -0.4353231732908536
1.399634850375356 0.2465696035918774 -0.4349752068618905
1.487799795867647 0.10543582102809 -0.4887568798944242
1.312919742047611 0.1052192381773361 -0.4888035514574143
1.662890606814617 0.1061164694436175 -0.4886095526213357
0.7912403672476115 -0.4217150420788281 -0.2686194767407089
0.6157605387296944 -0.4220474122551962 -0.2680969634454902
0.793967756814152 -0.1509492328562693 0.4766700421676443
0.9699465960448375 -0.1526142094417725 0.4761395836059661
1.055637639213854 -0.2894963835148371 0.4076663389732225
0.6158502501363233 -0.192991594980997 -0.4612529070550025
0.5157717764484815 -0.3221164143907332 -0.3824147167409453
1.48928569755945 -0.1912566693138887 -0.4619749846506386
2.360959778120208 -0.1888120612276347 -0.462979487164358
2.275470175916081 -0.3189135863422844 -0.3850897615443734
2.449878545618949 -0.3183679589988725 -0.3855409740648745
2.611097404409417 -0.3207489625178412 -0.3835623848133815
1.838799984349115 -0.1906497465878942 -0.4622257826278968
1.485887271160191 0.4950393743505633 -0.07025679926244004
1.139909997720328 -0.1921200669130512 -0.4616165940359215
2.014972605061477 -0.4997329508974434 0.01633945492767295
0.3606959865145224 -0.4713672800344804 0.1667719620106923
0.9671092380282168 -0.3982393917156889 0.3023332381428117
1.04699144610723 0.4935165914413808 0.08025817074965748
1.05153334403903 -0.04553070585748015 -0.4979226393970449
2.273690573195249 0.2489274645073114 -0.4336301620205417
1.925617943336549 -0.04379144320869609 -0.4980786177921108
1.750913904892087 -0.04423089804788029 -0.4980397852158781
2.098858804268371 0.4518974052509522 -0.2139830253255073
0.6971205426485243 0.4937684738774927 0.07869367321895601
1.927550787925142 -0.4818799985053706 -0.1333854078993052
1.228405901848807 -0.4824835710251986 -0.1311853791044266
1.141164996389469 -0.4996278605120131 0.01928732745064369
1.578073665201011 -0.4821654291169953 -0.1323499110858173
0.9567876932826971 0.4489822109700337 0.2200340297146334
1.397683737481033 0.360852004312756 0.3461008971145072
2.365074625164514 -0.4013724078248192 0.2981613493343948
1.580238242856473 -0.2903322833309915 0.4070714498166297
2.360515873267091 0.3672446696639703 -0.3393101127337665
2.273490129261574 0.4520459956246405 -0.2136689444906008
0.782712018365167 0.4505257458225732 0.2168560636713076
1.661133716361526 0.4950900069844755 -0.0698991057461536
2.444387897442153 0.451404090549846 -0.2150217361916383
1.748187203138247 0.4932107171876978 0.08211691939665534
2.466320405888407 -0.2938970729933167 0.4045052663266092
1.65988265303218 0.4461439782318303 0.2257333619283515
1.138351725581081 0.1049726436281494 -0.4888565680132748
1.567510359781277 0.3638168451715693 0.3429829488027158
1.8400566967245 -0.4997126095046646 0.01695015935142104
0.179817020508784 -0.4701377989282013 0.1702070798144019
1.226577990767779 -0.04526336623551232 -0.4979470129210837
2.191593285505502 -0.1568193466776884 0.4747712001665465
1.04994387816904 0.2459952654617566 -0.435300274948684
1.576068943425046 -0.04463787875530965 -0.4980034736628112
1.227870029781306 -0.471208274399869 0.1672206988895148
1.321576319878959 -0.1520431421180053 0.476322246945158
0.4409683612051676 0.3614606727627776 -0.3454651676303708
1.930748904766408 -0.2919150724787962 0.4059379145382938
1.401158863667801 -0.04502220969455942 -0.4979688751661284
1.67236804331665 -0.1523112283317858 0.4762365900726892
0.6131768370307972 0.3639154070462572 -0.3428783698549048
1.665283348765029 -0.4996932535631643 0.01751149175425018
0.7011494507369622 0.2458300666888795 -0.4353935901132917
2.86537110809184 -0.09089873738819987 -0.4916679972717678
0.8754845350251774 0.246008504615326 -0.4352927930220429
0.1826148767676605 0.2474476550388277 -0.4344763031694425
0.1610006397527474 0.389120495049935 -0.3139828663033916
0.1500228022787648 -0.3836611642550491 -0.3206308017681088
0.322120706093151 -0.3220172523347886 -0.3824982211707044
0.1292561043489506 -0.09154024626556204 -0.4915489632922037
0.1501917644652385 0.5 3.522437333133843e-16
0.1501917644652387 0.469846310392954 0.1710100716628349
1.141239362386376 -0.399130655008725 0.3011556412095017
1.490640964454349 -0.499679612110751 0.01789651476822967
1.315638930245988 -0.4996558455237086 0.01854820837676487
1.23042185548004 -0.2898673524782023 0.4074026484539314
2.022268434369176 -0.1599279527781674 0.4737330998781743
2.708576461353837 -0.1804005964744005 -0.466321375010497
0.149790573099476 -0.2519552153681966 0.4318779566599407
2.849895063556721 -0.2521366448228484 0.4317720606262949
2.875087759620202 0.2546401146723725 0.4303003741569847
0.1459327690756731 0.2565381814178984 0.4291714825973383
2.864890913235102 -0.3826066342976446 -0.3218884331432685
2.858621481791936 0.3864169329301537 -0.3173041978052813
2.694143930042823 0.1180065634067132 -0.4858749334889971
2.697895095428121 -0.4123405446129295 0.2827990015334437
2.859074304158104 -0.4999486742282527 -0.007164016848979505
0.2851420328717035 -0.4285807305348998 -0.2575238967827483
0.2818102507675594 0.4928485653903368 -0.08426322799826073
0.2811205195882193 -0.1596124898371401 -0.4738394802968499
0.2869926168518276 0.4420442869495039 0.2336596849593542
0.1262951598826886 -0.4999889552087148 0.003323352117637728
0.3022753473519834 -0.4105644380463477 0.2853714109922132
0.2941294514084333 0.1193181954858024 -0.4855544956294935
0.2991246186721342 0.3496099922193672 -0.3574532883334186
2.876647342188838 0.4565267201976282 0.203919968972135
2.87642711288479 0.4986147132852448 -0.03719365127912436
0.4411764705882359 0.1096709954563192 0.4878240182233958
0.603185336239988 0.2824084920585899 0.4126080993063434
0.8652308070873804 0.384536752337393 0.3195801716343029
1.167317813944787 0.1196228551086718 0.4854795284413645
2.616820538478371 0.2565586476832076 0.4291592481806302
0.1296977616109845 -0.1278511972008513 0.4833777729419393
2.870302238389015 -0.1278511972008511 0.4833777729419393
2.870302238389048 0.1278511972009427 0.4833777729419151
0.129697761610952 0.1278511972009431 0.483377772941915
1.322352002057086 0.1036493049457441 0.4891388571604838
1.690602326647055 0.1186157247215567 0.4857265793106034
1.484161915641679 0.2746043606433233 0.4178426080663288
1.85294117647059 0.1063306478279263 0.4885629880910889
2.448928942805928 0.3867601558005622 0.3168857552575137
2.294139381491135 0.2484198197668324 0.4339211831047368
2.098053971149217 0.3871098372582596 0.3164584868476176
2.75710775385014 -0.3273296799674466 -0.3779620094829756
0.2819875303911955 0.2776548071502009 0.4158218465477551
2.743848134501929 0.3215402791687475 0.3828992672650131
2.749041307280863 -0.001374473710483293 -0.4999981108184502
0.7453521618853871 0.2716584562758805 0.4197638420991088
1.992667865959843 0.2807186136060205 0.4137596645096206
2.746350497297165 0.4440839925358802 -0.2297594558954915
1.007513066099083 0.2625693038315942 0.4255083555999717
0.2458972051601797 -0.008695467092300494 -0.4999243831341363
2.746201445011498 -0.4888894225132763 -0.1048195237283363
2 2 0 27
388
389
390
391
392
393
394
395
396
397
398
399
400
401
402
403
404
405
406
407
408
409
410
411
412
413
414
3 0.17448207992104 -0.3160143079753215
3 -0.1765048016406273 0.2894866352050784
3 -0.2631896287632429 -0.2237714491382962
3 0.3159125021086773 0.1176585546532192
3 0.1710100716628342 0.2961981327260244
3 -0.06003252165440309 -0.3416513658225045
3 0.3181885397719768 -0.1278131288544383
3 -0.3289534794834225 0.01594838414703915
3 -0.0675371518718335 0.383022221559489
3 -0.00604158551011996 0.2383547769121804
3 -0.162976054858765 0.1166247235111799
3 -0.003689148000758341 0.0509142846978618
3 -0.17592331686472 -0.06941050257089194
3 0.007340233037415801 -0.1068449363446057
3 0.1859675115493114 -0.01228034722227111
3 0.1517640089807214 0.1519060790681322
3 -0.3141819123057564 0.1516915788948481
3 -0.106938420199839 -0.2215279788343812
3 0.1714261589719605 -0.1772697084488599
3 -0.1944654783575506 -0.3368240888334658
3 0.3609752612884347 -0.004486984284697894
3 0.05764510138391157 0.379066554958518
3 0.06714221548979393 -0.381099398084367
3 0.2837006570800934 -0.2508238733676216
3 0.2880813674082421 0.2447739783680478
3 -0.3386966007019416 -0.1228115312791233
3 0.04223662426099468 -0.2574012825850066
2 3 0 29
415
416
417
418
419
420
421
422
423
424
425
426
427
428
429
430
431
432
433
434
435
436
437
438
439
440
441
442
443
0 -0.0593911746138848 0.3368240888334653
0 0.05939117461388553 -0.3368240888334653
0 0.342020143325669 2.487311742880734e-16
0 -0.3272642943478955 -0.1161485433939845
0 0.2692071033176671 0.2432305236500616
0 0.2652172825727577 -0.2226433991021567
0 -0.3213938048432697 0.1169777784405106
0 -0.1786787890399284 -0.2954048479269598
0 0.3654755500203862 -0.1330222215594888
0 0.2220128124128235 -0.08787881028660068
0 0.1997889508976594 0.09045223708896173
0 0.06598360163926176 -0.0408475964507881
0 0.02827301669778375 0.1189775012856067
0 -0.08487036474041232 -0.004655188581988825
0 -0.1686294040524896 0.1599544694309133
0 -0.04189997846214401 -0.195566645928246
0 0.09985308369072157 0.2743440927031709
0 0.1177252746727336 -0.2006954132613097
0 -0.2060649571021191 0.3179219674656781
0 -0.1937624444204575 -0.1414682868621961
0 -0.2359712512319921 0.01022650706521318
0 0.3524834108542986 0.1337930418130669
0 -0.388930956715103 -6.970769406683635e-16
0 -0.06643953291020371 -0.3595283786163251
0 0.1944654783575523 -0.3368240888334651
0 -0.2979383981485518 -0.2500000000000006
0 0.06982115425170031 0.3959754427323928
0 0.2010420011018553 0.3482149603637325
0 -0.304745864544842 0.241423737393678
3 1 0 167
444
445
446
447
448
449
450
451
452
453
454
455
456
457
458
459
460
461
462
463
464
465
466
467
468
469
470
471
472
473
474
475
476
477
478
479
480
481
482
483
484
485
486
487
488
489
490
491
492
493
494
495
496
497
498
499
500
501
502
503
504
505
506
507
508
509
510
511
512
513
514
515
516
517
518
519
520
521
522
523
524
525
526
527
528
529
530
531
532
533
534
535
536
537
538
539
540
541
542
543
544
545
546
547
548
549
550
551
552
553
554
555
556
557
558
559
560
561
562
563
564
565
566
567
568
569
570
571
572
573
574
575
576
577
578
579
580
581
582
583
584
585
586
587
588
589
590
591
592
593
594
595
596
597
598
599
600
601
602
603
604
605
606
607
608
609
610
1.008918045403735 -0.0005331634036010516 -0.00080436676879303
2.390590063436229 0.0120055542237251 0.01415860760918586
1.509413127339339 7.978795421226259e-05 4.716884251274034e-05
0.5095603640452251 0.0001492182859710867 -0.00101612632657555
1.953955306849349 -0.02293322897693717 -0.05588161357073024
2.676412579887574 0.1507969197978126 -0.08720142750211152
1.259553307548062 -0.1486320500441102 -0.1214390364875151
1.259124616600153 0.1639308147965279 -0.09446203354430709
1.258930980576717 -0.0609663406492959 0.1812338869750338
0.7594742453456798 0.1864382549023389 0.04623619830469473
0.7592922030768749 -0.02013180053222742 -0.1901423562551606
0.7589682013523578 -0.1714794285804154 0.08618944375202595
2.668458216939902 -0.04063471150876434 0.17693731126359
1.755218663195901 0.1788124219613653 0.08086535959702022
2.62205263784994 -0.1628256997171947 -0.1104273120005861
2.156031251024477 -0.1365963560891721 0.1458025234611303
2.138893136649841 0.1681577620705047 0.1006193185504339
1.744016432576281 -0.1548104692166637 0.1291017972928327
0.2899610261465814 -0.1969393544264142 -0.06063259672153665
0.2964970509238133 0.1149237334010323 -0.1743465799134669
2.191199534866677 0.09766467211068286 -0.190297076669864
1.714339733175683 0.07170280210513563 -0.1999827560641817
0.9462048931604421 0.1274696186024253 0.2143375853488312
0.2910737556146509 0.1466076771927887 0.1451117879562482
2.230479674245367 -0.1776565887441184 -0.1265559630401794
1.101350880157763 0.01922783080577845 -0.2446121604719365
0.9181995955115858 0.1836086534397315 -0.1604991024124159
1.101301032132504 -0.2348860514353432 0.06725083425958978
0.9171537880060053 -0.2155630365434817 -0.1164709743865951
1.752292716814552 -0.1969145183674518 -0.1404864266815464
1.936060176685303 0.022809580213599 0.2230389585740158
0.6440937410846681 0.02651099228710704 0.2352473779803185
1.374548542769563 0.1798647566419011 0.1481942691201819
2.446779423659128 0.04061101047124072 -0.2448427181652171
1.41802464398433 0.01966780497200307 -0.2446775646927936
1.416429581124639 -0.2324196200718495 0.06718439799087464
2.421273309214321 -0.2460613025965953 0.0378162775822832
2.520779404769729 0.1779088905495666 0.1726377611128145
1.061866254626228 0.2352050112460811 0.02916311505246801
0.3551061758752692 -0.117039010068091 0.1952978943528283
1.587440893494159 0.05914919360184409 0.2439447421587729
0.6021635698293157 0.1827240594700845 -0.1588464596393358
0.5342816063654343 -0.2570012544602659 -0.005958303844510349
1.957202547624945 0.2365206684301521 -0.07233317881588705
1.503451571235687 0.2402534782600497 -0.08848313808273792
0.9540545565278663 -0.1200170190586563 0.2306555795838288
2.373098458322368 0.242862179675524 -0.08946023716970256
1.959978956037353 -0.2552192967093517 0.04127846680550721
0.5276269867552705 0.2287167321823362 0.1318745717695906
0.5162161769532683 -0.07969322788463001 -0.2441953324315695
1.497062691734274 -0.1989464433083183 -0.1631658072515456
2.769129938908899 -0.03712786756369161 -0.259329114242264
2.311244801449205 0.05795141695866168 0.2507938148077913
2.76210791856637 0.2179019509675606 0.1350678243553707
1.940449693285667 0.08465638616348287 -0.2651121607461576
2.01374625104487 -0.1676395697316275 -0.2296247374405388
0.219237559123681 0.2776048910849972 -0.03044649920767877
2.768117485047249 -0.2453175560873885 0.07446952068362796
0.6960675647402864 -0.2367484364463872 -0.1641126426232672
1.171173202395841 0.13967457320228 0.2400996961150709
0.2108606748235024 -0.06166251418140613 -0.285662531983955
1.459466418896613 -0.1239386119535146 0.258184624178571
2.457493783682613 -0.1267845630216168 0.2381583329078671
1.619342004419495 -0.2865288838893125 0.00763695329054897
0.5724625998481537 -0.199652377141884 0.2074087118603796
2.430623653001987 -0.177153093424933 -0.2179275817236214
0.9304360483109371 -0.09224761680360286 -0.282989284602042
1.565394860778696 0.2774400606375381 0.1158871062991275
2.809299305463895 0.07566921636630627 0.2862362877764348
0.2097424463362181 0.002374846755991991 -0.003310323337594706
1.946732058303486 0.2577348871062636 0.1424738769275986
1.715238337913618 0.2668629101318091 -0.1107197329285647
2.785776461108255 -0.03570232676957531 -0.01751315527654922
2.164034253217834 0.2845592583955082 -0.09138968518778907
0.4370683991058677 0.06305834520703027 0.2783815596750016
0.8366370480760656 0.0108086906601341 0.0970184061438099
2.330719312724034 0.2620928456600776 0.1198876552472895
1.20667005433854 -0.0017345997866208 -6.213575331585897e-05
1.090787445389938 -0.2022109119048957 -0.2221828273272519
0.4250447115464736 0.2324729005601154 -0.05357386782596708
1.607113089149024 -0.08015056939073158 -0.2947483802951982
2.801647251852274 -0.2686279961231786 -0.1491233172765541
0.9113639017851365 -0.3011723572385013 0.06549221418155474
0.2068550991774854 -0.2596700931450264 0.1288342440183628
2.273746552725624 -0.06202928355504628 -0.2923626262592672
1.107635711135883 0.2157580084316125 -0.2129225526377855
1.973683442037672 -0.1813335627387797 0.2351596947101962
2.18516101164536 -0.001644323921572516 -0.008617606291169422
2.222913635072737 -0.2985769502081871 0.03905505523557302
1.818967444955661 -0.07765077563636141 -0.2927975268086552
1.753086341767929 -0.005102678476830446 -0.01250670114822625
2.808302381442727 0.3052261490565272 -0.05423068638313001
2.55470271111335 0.2977210590358275 0.002512052153085129
0.2339803545453588 0.01779003851972497 0.2996898459711665
0.8901120878155017 0.3182423492034944 -0.01958724701900642
1.259814013628872 -0.0806448245360083 -0.3066839915168483
1.372730076910373 0.05143009042947314 0.3021917840902674
1.757100113004336 -0.04157459440778175 0.2994426407364031
1.248743419731816 0.2988525909810227 0.05091943648990273
1.259483728831256 -0.3149379235396679 -0.01709775274867449
1.134464800344476 -0.1929524358617572 0.2560772913283531
2.806977584849568 0.1642658706255541 -0.246833371347473
0.76113241192354 -0.1285221789037252 0.2810854537874702
0.4605553222539364 0.1262122710672872 -0.2890494232855975
0.7596692561138799 0.1573988175994536 -0.2714376834494392
1.259535492025267 0.1223533880368635 -0.2896593287869281
2.113561783717212 0.1018663642119781 0.2954701487683444
2.531850784194153 0.2172773620609389 -0.2076684401478875
2.543969204293823 0.0371119505422559 0.3120708066331744
1.551647160628369 0.1613349770711333 -0.2606093784649299
0.7601703709121126 0.1854814664772662 0.2432330685205734
2.584093622323164 -0.08783066712433073 -0.3023661457668436
1.083779361056814 -0.005398450329121195 0.1675006933567414
0.6239043193432975 0.3104676479053823 -0.01492812990241411
2.584040701852229 -0.2628127678249597 0.1573141492624804
2.587434064831357 -0.002655171951801094 0.0004644551682484455
1.590798350704204 -0.2529812356435964 0.196690847151429
0.7080106944137682 -0.3313396929716059 -0.0008839554110721369
0.1643768318737631 -0.2689933076231341 -0.1735200625265944
2.080469844273042 -0.2941254988410247 -0.1023291507771863
0.6933152298337683 0.0256381226580347 -0.0216400312446192
2.802317268887225 -0.1673933949803588 0.2562039828999667
1.757306034272087 0.1551741590174826 0.2774160193164157
0.4393171515401667 -0.2477629560282864 -0.1776658298844488
1.160603403652456 -0.0277017373576833 0.3336702245212822
2.091841491218092 -0.01721536399272897 -0.3117718535310874
2.30664622570037 -0.242843391836336 0.2041688021853219
0.9464633218296704 0.08582493048197037 -0.3099398778719759
2.335777542641447 0.1907333075192385 -0.266093943394241
0.7554859180369342 0.2908617878266209 -0.1434397350733501
1.310364562356711 -0.2343618812308181 0.2182817526925775
0.4170268384994203 -0.2901059476142566 0.1417285497296772
0.1570293619741651 0.1269283264857188 -0.2852021747375885
2.614647284597126 -0.3287300884645123 -0.01819609676128091
2.060545437288289 0.2228142820366383 -0.2329019251776924
1.370146160220409 0.2473606119844682 -0.2140261795613784
0.8587956840031832 -0.06472699575276786 -0.05647459166393227
2.35442699611542 -0.3146256947268987 -0.1202767265642836
0.6432669143227688 0.02564171606255264 -0.3252133837637624
2.639336809703686 0.09423462990885695 -0.305212925778243
0.8309085309896483 0.03643304752168801 0.3263509230322547
0.8847815976142003 0.2914122451134024 0.1612883012363036
0.1724022408575962 -0.1546735447890619 0.2766664285685139
1.791438454775591 -0.3271669475829836 0.05884564840329833
1.902992390230849 -0.3008649724858212 -0.147253728122814
1.829231650961359 0.3379666611362097 0.02593057296887689
0.1689354387523473 0.2842100920909983 0.1682437890407459
1.09847023170299 -0.1298790289285701 -0.06754392721596504
1.062151685699269 -0.3118220742685394 -0.08676482978411673
0.9195460685777225 0.1444730090958695 0.005389701108737877
0.3775590495201972 -0.04532630661424014 -0.1244860584560501
2.110552100374171 -0.08463765325849176 0.3209410837884591
0.7090237045598218 -0.1392565607518749 -0.3124555932231148
1.814584963550365 0.2122738138023212 -0.2503491141808817
1.108722377088194 0.09285829267764517 -0.0956232295267095
0.9595170023498841 0.01965300255980887 -0.1581236312992105
1.620568759655122 -0.07821637885684793 -0.1163103335367383
1.631888713136274 0.1255442962446373 -0.03807705878133795
2.664079318301884 0.177411220754026 0.277435742187278
0.6957292213028385 0.3165538071376008 0.1447948881194533
1.345722377127598 -0.2527158213532951 -0.2326101152334081
0.3638030738036104 0.3131717890059222 0.1030713057953005
1.358130298603486 -0.01053768258158103 -0.08451860786106037
0.9439970178481416 -0.1382379450337273 0.06579358414319551
1.054484113809121 0.2647511674593429 0.2017914646247247
0.5351826515900328 -0.07733478489597502 0.3343755399329436
2.290139561041715 -0.1068787364216932 0.3224470000619224
$EndNodes
$Elements
3 2401 1 2401
2 2 2 70
1 3 396 1 
2 1 409 19 
3 396 409 1 
4 4 389 3 
5 389 396 3 
6 5 404 4 
7 4 404 389 
8 6 404 5 
9 7 395 6 
10 395 404 6 
11 8 413 7 
12 7 413 395 
13 9 390 8 
14 390 413 8 
15 10 407 9 
16 9 407 390 
17 11 393 10 
18 393 407 10 
19 12 410 11 
20 11 410 393 
21 13 388 12 
22 388 410 12 
23 14 411 13 
24 13 411 388 
25 15 394 14 
26 394 411 14 
27 16 408 15 
28 15 408 394 
29 17 391 16 
30 391 408 16 
31 18 412 17 
32 17 412 391 
33 19 392 18 
34 392 412 18 
35 19 409 392 
36 388 411 406 
37 406 414 388 
38 388 414 410 
39 389 397 396 
40 389 398 397 
41 389 404 398 
42 390 405 400 
43 400 413 390 
44 390 407 405 
45 391 403 402 
46 402 408 391 
47 391 412 403 
48 397 403 392 
49 392 409 397 
50 403 412 392 
51 405 407 393 
52 393 414 405 
53 410 414 393 
54 402 406 394 
55 394 408 402 
56 406 411 394 
57 395 400 398 
58 398 404 395 
59 395 413 400 
60 397 409 396 
61 398 399 397 
62 399 403 397 
63 398 400 399 
64 400 401 399 
65 401 402 399 
66 402 403 399 
67 400 405 401 
68 401 406 402 
69 405 414 401 
70 401 414 406 
2 3 2 74
71 36 2 415 
72 2 52 441 
73 415 2 441 
74 37 36 433 
75 36 415 433 
76 38 37 443 
77 37 433 443 
78 39 38 421 
79 421 38 443 
80 40 39 437 
81 39 421 437 
82 41 40 418 
83 418 40 437 
84 42 41 440 
85 41 418 440 
86 43 42 422 
87 422 42 440 
88 44 43 438 
89 43 422 438 
90 45 44 416 
91 416 44 438 
92 46 45 439 
93 45 416 439 
94 47 46 420 
95 420 46 439 
96 48 47 423 
97 47 420 423 
98 49 48 417 
99 417 48 423 
100 50 49 436 
101 49 417 436 
102 51 50 419 
103 419 50 436 
104 52 51 442 
105 51 419 442 
106 441 52 442 
107 415 427 429 
108 427 415 431 
109 415 429 433 
110 431 415 441 
111 416 430 432 
112 430 416 438 
113 416 432 439 
114 417 423 424 
115 417 424 425 
116 417 425 436 
117 434 418 435 
118 418 434 440 
119 435 418 437 
120 419 425 431 
121 425 419 436 
122 419 431 442 
123 423 420 424 
124 424 420 432 
125 432 420 439 
126 421 429 435 
127 429 421 443 
128 421 435 437 
129 430 422 434 
130 422 430 438 
131 434 422 440 
132 425 424 426 
133 426 424 432 
134 425 426 427 
135 425 427 431 
136 427 426 428 
137 428 426 430 
138 430 426 432 
139 427 428 429 
140 429 428 435 
141 428 430 434 
142 428 434 435 
143 433 429 443 
144 431 441 442 
3 1 4 2257
145 159 459 491 530 
146 457 474 448 514 
147 482 529 138 542 
148 136 138 529 542 
149 448 474 460 514 
150 159 491 459 532 
151 448 531 491 563 
152 136 529 451 542 
153 491 531 459 563 
154 489 526 83 546 
155 109 494 479 507 
156 154 460 517 520 
157 448 461 491 530 
158 359 463 321 523 
159 148 488 511 542 
160 457 448 487 514 
161 253 462 251 486 
162 448 474 461 530 
163 356 437 527 562 
164 448 460 487 514 
165 251 486 462 575 
166 456 516 512 565 
167 154 517 172 520 
168 446 476 452 540 
169 459 480 468 531 
170 454 571 510 582 
171 171 460 154 520 
172 446 452 505 540 
173 109 479 338 507 
174 148 137 488 542 
175 459 445 480 531 
176 331 463 359 500 
177 468 480 459 532 
178 25 466 568 584 
179 448 459 491 531 
180 459 448 474 531 
181 83 489 287 526 
182 154 460 514 517 
183 510 571 114 582 
184 489 568 466 584 
185 154 514 487 517 
186 435 527 437 562 
187 452 521 476 606 
188 455 502 486 564 
189 486 502 447 564 
190 460 474 448 531 
191 109 479 494 543 
192 169 159 459 532 
193 103 499 468 528 
194 73 407 495 525 
195 455 83 526 546 
196 139 529 482 538 
197 493 504 214 567 
198 468 480 445 531 
199 283 148 137 488 
200 103 468 279 528 
201 463 321 523 547 
202 363 492 475 518 
203 277 494 478 604 
204 213 504 493 547 
205 226 463 359 523 
206 384 535 449 545 
207 503 521 482 542 
208 452 476 446 606 
209 277 478 539 604 
210 222 384 449 551 
211 373 484 476 511 
212 464 487 448 531 
213 137 488 542 579 
214 445 464 528 531 
215 221 449 384 551 
216 445 528 468 531 
217 83 455 84 508 
218 448 487 465 534 
219 459 474 448 530 
220 222 449 384 535 
221 447 502 493 564 
222 138 482 139 529 
223 226 359 463 500 
224 171 154 172 520 
225 397 512 516 565 
226 468 445 509 528 
227 25 568 489 584 
228 459 474 460 531 
229 445 464 477 528 
230 477 509 445 528 
231 487 515 465 534 
232 454 582 510 596 
233 163 114 571 582 
234 451 488 476 606 
235 103 111 499 528 
236 384 449 221 545 
237 103 279 111 528 
238 465 487 448 498 
239 486 493 447 502 
240 114 510 582 596 
241 109 298 494 507 
242 468 459 531 563 
243 463 500 331 576 
244 446 507 461 560 
245 459 448 491 530 
246 449 536 490 559 
247 445 460 490 531 
248 478 494 277 524 
249 154 460 171 514 
250 402 516 449 545 
251 159 491 181 530 
252 449 490 551 559 
253 109 543 494 604 
254 136 542 451 579 
255 226 359 321 523 
256 287 471 526 544 
257 407 405 495 525 
258 476 521 503 542 
259 84 455 83 526 
260 448 531 499 569 
261 476 511 488 542 
262 462 486 253 567 
263 467 492 227 518 
264 321 463 359 547 
265 227 492 467 605 
266 154 171 170 514 
267 460 445 490 520 
268 434 430 513 562 
269 475 492 363 554 
270 499 531 468 569 
271 457 515 487 534 
272 287 526 489 544 
273 445 551 490 559 
274 139 470 529 538 
275 83 203 287 489 
276 255 251 462 575 
277 383 514 474 566 
278 445 490 536 559 
279 56 466 385 503 
280 459 480 445 570 
281 490 536 449 551 
282 489 526 471 544 
283 457 448 474 534 
284 454 493 502 564 
285 154 487 134 517 
286 82 83 84 508 
287 28 484 324 505 
288 140 139 482 538 
289 83 203 489 546 
290 255 251 253 462 
291 378 525 495 555 
292 402 497 449 516 
293 333 214 504 567 
294 446 505 484 540 
295 185 461 233 530 
296 98 473 97 494 
297 460 448 487 531 
298 134 487 154 514 
299 447 483 462 486 
300 446 479 507 560 
301 455 526 84 561 
302 447 513 467 523 
303 424 426 432 463 
304 105 472 510 596 
305 136 137 542 579 
306 476 488 446 606 
307 475 483 447 508 
308 148 511 476 542 
309 324 505 484 541 
310 324 505 541 560 
311 426 463 424 500 
312 97 494 473 524 
313 446 484 476 540 
314 447 475 455 564 
315 522 543 91 604 
316 420 331 500 576 
317 91 543 522 592 
318 76 456 34 512 
319 481 506 445 559 
320 452 471 543 574 
321 489 556 466 568 
322 456 242 506 558 
323 76 241 456 565 
324 447 483 475 518 
325 98 473 494 507 
326 462 513 504 562 
327 255 356 527 562 
328 105 502 472 596 
329 484 534 457 541 
330 555 559 495 583 
331 487 498 465 597 
332 446 484 461 534 
333 446 479 452 606 
334 455 508 83 546 
335 458 495 555 559 
336 449 497 402 535 
337 140 139 138 482 
338 473 491 448 534 
339 481 552 506 559 
340 214 493 213 504 
341 460 517 490 531 
342 455 526 489 546 
343 477 551 445 559 
344 452 479 446 505 
345 504 513 430 562 
346 399 512 497 516 
347 461 491 473 534 
348 255 527 462 562 
349 310 178 219 457 
350 233 530 461 541 
351 447 483 467 513 
352 447 513 523 594 
353 464 531 448 569 
354 461 474 448 534 
355 426 463 500 513 
356 379 467 537 590 
357 153 134 154 514 
358 477 490 445 551 
359 548 564 470 573 
360 457 534 474 541 
361 379 537 346 590 
362 227 379 467 518 
363 424 463 432 576 
364 476 484 373 540 
365 213 358 504 547 
366 455 84 508 561 
367 56 25 466 568 
368 449 495 559 583 
369 76 456 512 565 
370 217 460 520 550 
371 331 359 463 576 
372 324 484 28 541 
373 109 338 298 507 
374 373 312 484 511 
375 378 281 525 555 
376 455 475 447 508 
377 190 497 481 536 
378 226 331 359 500 
379 469 510 284 522 
380 479 521 452 606 
381 98 494 298 507 
382 25 56 466 584 
383 446 505 479 560 
384 97 473 99 524 
385 458 525 281 555 
386 483 508 475 609 
387 548 571 454 582 
388 506 552 456 559 
389 451 482 521 542 
390 455 486 447 564 
391 76 34 456 552 
392 403 497 399 512 
393 217 460 171 520 
394 448 487 464 578 
395 483 475 518 609 
396 452 543 479 574 
397 153 487 134 514 
398 226 500 463 523 
399 464 490 517 531 
400 450 521 479 606 
401 470 548 454 564 
402 310 178 457 589 
403 207 459 169 530 
404 449 535 222 536 
405 163 571 548 582 
406 463 523 513 594 
407 269 175 465 533 
408 460 474 459 550 
409 190 481 497 602 
410 456 242 558 565 
411 477 559 555 583 
412 284 469 289 510 
413 56 466 503 568 
414 76 456 241 552 
415 474 514 383 550 
416 481 456 552 559 
417 487 465 515 597 
418 244 496 376 520 
419 445 477 464 490 
420 377 460 217 550 
421 445 536 481 559 
422 451 529 482 542 
423 482 529 470 538 
424 485 557 492 564 
425 461 534 484 541 
426 476 451 521 542 
427 449 535 402 545 
428 482 521 503 556 
429 459 570 496 610 
430 115 279 103 468 
431 496 570 506 610 
432 445 509 477 559 
433 222 221 384 551 
434 455 447 486 508 
435 461 448 491 534 
436 485 523 321 547 
437 148 167 476 511 
438 449 536 222 551 
439 354 333 214 504 
440 481 496 445 506 
441 241 456 242 506 
442 283 148 488 511 
443 132 488 137 579 
444 310 457 219 566 
445 405 516 495 525 
446 450 543 522 604 
447 310 511 457 566 
448 215 363 228 492 
449 472 502 88 561 
450 445 480 468 509 
451 446 461 507 600 
452 34 512 456 552 
453 448 464 498 578 
454 463 504 358 547 
455 333 504 562 567 
456 277 478 323 539 
457 103 115 468 563 
458 401 516 402 545 
459 148 167 161 476 
460 300 373 476 511 
461 306 511 515 589 
462 185 461 530 587 
463 97 98 99 473 
464 385 503 466 608 
465 363 475 67 518 
466 241 456 506 552 
467 233 185 196 461 
468 497 512 456 516 
469 71 412 345 512 
470 476 503 177 542 
471 493 547 504 594 
472 28 324 68 505 
473 447 483 513 594 
474 219 457 178 566 
475 462 486 483 575 
476 103 468 499 563 
477 377 171 217 460 
478 71 497 412 512 
479 228 227 492 518 
480 156 471 287 544 
481 306 308 511 589 
482 485 492 447 564 
483 484 511 312 566 
484 448 457 487 534 
485 221 545 449 551 
486 287 471 156 526 
487 481 496 244 520 
488 324 302 505 560 
489 306 511 488 515 
490 292 269 524 533 
491 496 506 481 552 
492 25 489 273 584 
493 465 524 269 533 
494 504 567 493 594 
495 242 456 241 565 
496 447 467 483 518 
497 454 470 564 593 
498 270 472 105 502 
499 109 338 479 543 
500 424 500 463 576 
501 148 476 161 542 
502 448 498 487 578 
503 269 292 175 533 
504 418 435 437 562 
505 73 407 393 495 
506 377 171 460 514 
507 214 213 354 504 
508 190 237 497 536 
509 88 472 270 502 
510 469 598 521 606 
511 476 484 446 511 
512 444 521 482 556 
513 185 196 461 587 
514 445 490 481 536 
515 467 518 379 537 
516 435 462 428 527 
517 487 514 460 517 
518 462 513 483 594 
519 447 462 483 594 
520 233 461 196 560 
521 477 449 559 583 
522 401 402 406 545 
523 513 483 537 586 
524 277 539 108 604 
525 215 228 227 492 
526 492 557 453 564 
527 397 516 399 565 
528 363 228 492 518 
529 73 495 378 525 
530 269 465 175 597 
531 213 358 386 504 
532 190 497 237 602 
533 56 385 229 503 
534 377 170 171 514 
535 54 474 30 530 
536 474 534 461 541 
537 110 473 98 507 
538 300 312 373 511 
539 84 250 508 561 
540 447 523 485 547 
541 161 476 177 542 
542 485 493 454 564 
543 457 514 178 566 
544 444 482 521 598 
545 454 580 470 593 
546 397 512 399 516 
547 249 458 248 577 
548 99 101 533 588 
549 223 383 474 566 
550 320 540 452 568 
551 502 564 455 580 
552 480 506 558 559 
553 483 486 447 508 
554 263 269 175 597 
555 480 506 445 570 
556 458 477 509 559 
557 105 510 472 522 
558 358 504 463 576 
559 207 169 181 530 
560 132 283 137 488 
561 320 505 452 540 
562 523 547 447 594 
563 281 248 458 509 
564 451 529 136 579 
565 496 520 460 550 
566 452 505 320 574 
567 91 543 296 604 
568 453 475 492 564 
569 233 324 541 560 
570 185 491 182 587 
571 469 521 450 606 
572 486 508 250 561 
573 451 476 521 606 
574 111 499 528 569 
575 454 564 580 593 
576 452 320 568 574 
577 185 530 491 587 
578 484 461 541 560 
579 182 491 185 530 
580 249 281 248 458 
581 378 495 342 555 
582 513 527 483 586 
583 452 503 476 521 
584 484 541 505 560 
585 345 412 392 512 
586 175 498 465 533 
587 460 496 459 531 
588 310 457 511 589 
589 196 560 461 587 
590 141 470 139 538 
591 458 558 501 559 
592 136 138 139 529 
593 99 533 473 588 
594 59 393 410 495 
595 407 390 405 525 
596 467 447 492 518 
597 465 498 175 597 
598 420 500 424 576 
599 429 527 513 586 
600 445 459 496 531 
601 445 490 464 531 
602 114 582 146 596 
603 120 290 122 464 
604 495 525 458 555 
605 456 501 558 559 
606 442 346 370 537 
607 255 462 253 562 
608 445 460 496 520 
609 28 484 505 540 
610 469 522 284 539 
611 157 509 477 528 
612 169 532 459 570 
613 319 543 471 574 
614 450 471 521 591 
615 446 484 534 601 
616 120 464 528 572 
617 321 485 168 523 
618 460 459 496 550 
619 227 228 379 518 
620 206 306 308 511 
621 90 105 472 522 
622 462 562 504 567 
623 485 208 548 582 
624 445 506 480 559 
625 497 516 456 559 
626 233 541 461 560 
627 260 377 217 550 
628 54 474 530 541 
629 476 446 488 511 
630 120 464 122 569 
631 363 554 492 603 
632 481 497 456 559 
633 30 530 474 595 
634 25 273 24 584 
635 281 458 249 525 
636 487 514 153 589 
637 207 169 459 570 
638 539 549 469 606 
639 446 511 484 601 
640 470 593 580 599 
641 450 539 469 606 
642 449 497 481 559 
643 462 513 428 527 
644 457 541 474 566 
645 472 88 526 561 
646 178 514 457 589 
647 233 54 530 541 
648 462 527 255 575 
649 298 110 98 507 
650 470 580 454 599 
651 156 287 337 544 
652 464 490 477 572 
653 459 468 532 563 
654 285 491 159 532 
655 172 245 180 517 
656 476 488 451 542 
657 114 163 146 582 
658 157 278 509 528 
659 451 542 488 579 
660 410 495 414 545 
661 480 558 458 559 
662 177 542 503 608 
663 120 528 151 572 
664 457 484 541 566 
665 59 495 410 545 
666 157 477 509 555 
667 481 490 445 520 
668 99 524 473 533 
669 402 399 497 516 
670 28 505 27 540 
671 180 490 174 520 
672 464 122 569 578 
673 449 516 497 559 
674 447 492 475 564 
675 479 507 494 600 
676 76 242 241 565 
677 457 534 484 601 
678 447 492 485 523 
679 79 75 21 537 
680 485 564 548 573 
681 463 547 523 594 
682 109 298 96 494 
683 447 493 485 564 
684 488 511 446 601 
685 327 548 208 582 
686 252 486 502 567 
687 81 83 82 508 
688 109 339 338 543 
689 445 496 460 531 
690 238 190 237 602 
691 191 535 497 536 
692 447 485 493 547 
693 485 547 208 582 
694 454 493 485 582 
695 238 481 190 602 
696 446 507 479 600 
697 447 486 462 594 
698 85 84 83 526 
699 273 489 25 568 
700 374 223 474 566 
701 54 30 341 530 
702 377 514 460 550 
703 375 481 244 520 
704 478 553 446 600 
705 446 479 494 600 
706 30 474 54 541 
707 444 556 482 593 
708 467 492 447 523 
709 134 487 153 589 
710 79 483 75 537 
711 122 464 290 578 
712 399 516 398 565 
713 358 209 463 547 
714 352 253 462 562 
715 218 514 383 566 
716 98 96 298 494 
717 81 83 508 546 
718 311 317 469 529 
719 289 469 284 539 
720 339 479 338 543 
721 248 247 577 581 
722 447 547 493 594 
723 448 491 473 588 
724 233 302 324 560 
725 458 555 477 559 
726 127 515 487 589 
727 462 527 435 562 
728 30 341 530 595 
729 277 323 478 524 
730 478 488 446 553 
731 235 484 312 566 
732 281 509 458 555 
733 209 358 463 576 
734 495 516 449 559 
735 269 267 524 553 
736 120 290 464 572 
737 504 547 463 594 
738 491 532 285 563 
739 300 476 373 540 
740 487 515 127 597 
741 464 572 290 578 
742 277 323 108 539 
743 464 448 498 569 
744 88 502 270 561 
745 454 564 502 580 
746 311 529 469 549 
747 217 244 376 520 
748 223 383 57 474 
749 446 600 553 601 
750 252 253 251 486 
751 451 521 482 598 
752 473 491 461 587 
753 456 558 506 559 
754 403 402 399 497 
755 296 543 91 592 
756 468 509 279 528 
757 191 497 237 536 
758 338 479 197 507 
759 475 492 447 518 
760 57 474 383 550 
761 425 500 467 513 
762 252 502 486 561 
763 374 223 57 474 
764 480 459 532 570 
765 291 499 104 569 
766 427 513 537 586 
767 174 520 490 536 
768 458 516 495 559 
769 104 499 291 533 
770 269 524 465 553 
771 356 255 60 562 
772 317 469 529 571 
773 244 496 481 552 
774 291 533 499 569 
775 522 543 450 592 
776 267 478 524 553 
777 136 137 138 542 
778 252 502 271 567 
779 485 523 492 557 
780 94 91 296 604 
781 209 359 463 547 
782 82 84 250 508 
783 207 570 459 595 
784 494 543 450 604 
785 249 525 458 577 
786 319 199 543 574 
787 141 258 139 470 
788 139 470 258 529 
789 400 516 405 525 
790 434 430 428 513 
791 486 508 483 575 
792 87 526 471 592 
793 269 267 318 524 
794 450 494 479 543 
795 406 402 535 545 
796 256 88 270 561 
797 352 462 253 567 
798 446 534 461 600 
799 115 279 468 581 
800 209 463 359 576 
801 87 471 156 592 
802 157 509 278 555 
803 311 469 317 571 
804 227 467 379 590 
805 190 191 237 536 
806 180 174 490 536 
807 446 553 488 601 
808 256 270 502 561 
809 407 405 393 495 
810 130 129 515 553 
811 80 483 508 575 
812 493 502 276 596 
813 499 533 101 588 
814 462 567 504 594 
815 414 410 393 495 
816 140 138 288 482 
817 199 197 338 479 
818 159 182 181 491 
819 479 543 199 574 
820 154 245 172 517 
821 130 515 488 553 
822 322 233 54 530 
823 216 554 363 603 
824 446 488 478 606 
825 78 379 518 537 
826 448 533 473 534 
827 473 448 499 533 
828 156 471 297 592 
829 279 509 468 581 
830 449 551 477 559 
831 267 478 318 524 
832 133 515 127 589 
833 448 465 533 534 
834 451 579 488 606 
835 472 454 510 596 
836 120 528 464 569 
837 383 514 377 550 
838 156 471 87 526 
839 447 493 486 594 
840 252 253 486 567 
841 283 206 148 511 
842 357 527 483 575 
843 310 511 308 589 
844 488 579 478 606 
845 482 542 288 608 
846 177 176 542 608 
847 257 222 535 536 
848 67 475 363 554 
849 490 517 460 520 
850 323 318 267 478 
851 76 241 34 552 
852 255 253 60 562 
853 481 520 190 536 
854 448 473 499 588 
855 244 66 496 552 
856 373 312 235 484 
857 300 177 161 476 
858 398 516 501 565 
859 318 478 323 524 
860 174 190 520 536 
861 107 524 99 533 
862 329 470 210 548 
863 423 424 420 500 
864 197 507 479 560 
865 448 465 498 533 
866 143 557 485 573 
867 473 507 110 587 
868 288 482 138 542 
869 401 495 516 545 
870 342 378 73 495 
871 276 502 493 567 
872 352 562 462 567 
873 493 567 486 594 
874 252 256 502 561 
875 472 502 454 596 
876 322 185 233 530 
877 368 512 396 565 
878 277 95 494 604 
879 485 453 557 564 
880 482 556 466 593 
881 90 105 270 472 
882 197 479 199 560 
883 481 497 449 536 
884 467 513 483 537 
885 442 370 431 537 
886 80 508 483 609 
887 479 494 450 606 
888 300 476 167 511 
889 328 73 393 495 
890 480 458 577 581 
891 177 476 230 503 
892 329 258 210 470 
893 160 558 480 570 
894 459 530 207 595 
895 56 503 365 568 
896 181 491 182 530 
897 87 156 297 592 
898 453 564 485 573 
899 268 478 266 549 
900 133 128 127 515 
901 267 266 268 478 
902 457 515 534 601 
903 90 92 105 522 
904 166 213 493 547 
905 191 239 497 535 
906 351 387 501 525 
907 258 529 470 571 
908 181 182 185 530 
909 290 572 126 578 
910 465 534 515 601 
911 92 510 105 522 
912 167 300 161 476 
913 28 68 27 505 
914 472 502 455 580 
915 456 516 501 559 
916 501 516 458 559 
917 288 140 482 538 
918 459 532 491 563 
919 324 302 68 505 
920 135 136 529 579 
921 157 278 205 555 
922 464 487 517 578 
923 217 375 244 520 
924 491 499 448 563 
925 469 539 311 549 
926 95 97 277 494 
927 353 500 226 523 
928 374 474 30 541 
929 448 499 491 588 
930 480 509 458 581 
931 315 469 289 539 
932 483 513 462 527 
933 277 494 97 524 
934 570 595 207 610 
935 311 317 529 549 
936 107 97 99 524 
937 176 288 542 608 
938 127 578 487 597 
939 431 537 467 590 
940 466 556 503 568 
941 429 428 513 527 
942 452 521 471 556 
943 262 385 466 608 
944 306 488 130 515 
945 397 399 398 565 
946 376 260 217 550 
947 284 510 106 522 
948 96 109 494 604 
949 35 76 34 512 
950 284 289 106 510 
951 425 426 500 513 
952 446 494 479 606 
953 210 470 141 573 
954 311 469 315 539 
955 157 477 151 528 
956 88 472 526 592 
957 225 249 248 577 
958 445 496 481 520 
959 450 521 469 591 
960 121 569 122 578 
961 33 496 552 610 
962 489 546 273 584 
963 273 544 489 568 
964 126 304 517 572 
965 128 127 515 597 
966 190 481 375 520 
967 378 281 249 525 
968 258 141 210 470 
969 267 266 478 553 
970 266 549 478 579 
971 457 484 511 601 
972 297 471 319 543 
973 315 311 289 469 
974 500 523 353 605 
975 172 180 174 520 
976 475 519 455 564 
977 490 520 481 536 
978 521 598 451 606 
979 266 478 553 579 
980 437 60 418 562 
981 474 459 550 595 
982 122 290 126 578 
983 98 97 96 494 
984 151 528 477 572 
985 161 177 176 542 
986 467 427 513 537 
987 110 473 587 588 
988 481 536 449 559 
989 226 321 168 523 
990 425 467 500 590 
991 306 283 130 488 
992 179 247 147 480 
993 294 557 538 603 
994 374 474 541 566 
995 278 509 205 555 
996 325 485 321 547 
997 395 351 501 525 
998 421 356 437 527 
999 339 199 338 479 
1000 126 572 517 578 
1001 80 240 483 575 
1002 288 538 482 585 
1003 168 523 485 557 
1004 257 222 384 535 
1005 300 230 177 476 
1006 198 479 199 574 
1007 127 124 578 597 
1008 455 502 472 561 
1009 198 199 479 560 
1010 287 489 274 544 
1011 401 495 405 516 
1012 456 497 481 602 
1013 229 503 385 608 
1014 493 502 486 567 
1015 482 466 556 608 
1016 142 538 294 557 
1017 121 498 569 578 
1018 156 319 297 471 
1019 230 476 300 540 
1020 252 256 271 502 
1021 132 137 136 579 
1022 479 198 560 574 
1023 486 502 455 561 
1024 504 513 462 594 
1025 186 187 477 583 
1026 471 556 521 591 
1027 247 480 179 577 
1028 76 512 35 565 
1029 226 63 331 500 
1030 240 483 79 609 
1031 158 160 147 480 
1032 230 503 476 540 
1033 250 508 486 575 
1034 155 486 250 561 
1035 223 218 383 566 
1036 471 444 556 591 
1037 258 317 529 571 
1038 437 356 60 562 
1039 90 270 88 472 
1040 272 273 546 584 
1041 130 488 131 553 
1042 501 525 387 577 
1043 348 535 384 545 
1044 412 71 360 497 
1045 469 591 521 598 
1046 80 483 240 609 
1047 414 495 401 545 
1048 247 147 480 581 
1049 449 516 495 545 
1050 59 410 388 545 
1051 506 558 212 570 
1052 490 517 304 572 
1053 134 487 293 517 
1054 478 494 450 604 
1055 98 110 100 473 
1056 451 478 579 606 
1057 135 136 264 529 
1058 158 160 480 570 
1059 454 548 485 564 
1060 328 393 59 495 
1061 158 480 147 532 
1062 474 550 30 595 
1063 258 470 329 571 
1064 134 127 293 487 
1065 427 429 513 586 
1066 323 478 268 539 
1067 288 585 482 608 
1068 304 490 180 517 
1069 360 239 391 497 
1070 357 483 240 575 
1071 187 551 477 583 
1072 453 492 475 554 
1073 185 195 196 587 
1074 352 333 562 567 
1075 444 471 556 607 
1076 291 498 533 569 
1077 244 66 376 496 
1078 127 293 487 578 
1079 300 167 312 511 
1080 93 522 91 604 
1081 482 556 503 608 
1082 227 467 590 605 
1083 301 506 212 570 
1084 444 591 471 607 
1085 475 554 67 584 
1086 378 342 281 555 
1087 117 115 563 581 
1088 230 300 373 540 
1089 503 556 466 608 
1090 421 437 435 527 
1091 239 391 497 535 
1092 311 289 469 571 
1093 57 30 374 474 
1094 215 227 193 492 
1095 468 563 115 581 
1096 85 83 287 526 
1097 33 552 506 610 
1098 135 529 549 579 
1099 501 516 456 565 
1100 231 570 207 610 
1101 143 168 485 557 
1102 143 485 325 573 
1103 333 504 74 562 
1104 166 202 213 547 
1105 363 67 228 518 
1106 129 553 263 597 
1107 450 494 478 606 
1108 473 507 461 600 
1109 144 285 159 532 
1110 325 168 321 485 
1111 247 480 577 581 
1112 545 551 221 583 
1113 268 539 478 549 
1114 412 360 391 497 
1115 118 502 105 596 
1116 129 515 553 597 
1117 307 536 490 551 
1118 368 35 396 512 
1119 452 568 544 574 
1120 339 199 479 543 
1121 282 99 101 533 
1122 473 533 465 534 
1123 183 353 523 605 
1124 449 477 551 583 
1125 129 130 131 553 
1126 465 553 600 601 
1127 277 318 323 524 
1128 457 515 511 589 
1129 144 285 532 563 
1130 173 190 375 520 
1131 75 537 483 586 
1132 186 477 157 555 
1133 173 174 190 520 
1134 311 539 315 549 
1135 110 100 473 588 
1136 497 512 380 602 
1137 346 442 419 590 
1138 213 202 358 547 
1139 477 458 509 555 
1140 210 548 470 573 
1141 524 553 478 600 
1142 498 499 448 533 
1143 66 33 496 552 
1144 503 521 452 556 
1145 104 499 111 569 
1146 208 485 325 547 
1147 478 450 539 604 
1148 307 222 536 551 
1149 289 510 469 571 
1150 224 351 387 501 
1151 468 509 480 581 
1152 458 558 480 577 
1153 179 480 160 577 
1154 99 473 100 588 
1155 99 98 100 473 
1156 86 526 88 561 
1157 229 365 56 503 
1158 53 373 484 540 
1159 287 203 274 489 
1160 282 499 104 533 
1161 180 307 246 490 
1162 282 101 499 533 
1163 491 530 461 587 
1164 385 56 262 466 
1165 158 480 532 570 
1166 120 119 151 528 
1167 187 151 186 477 
1168 273 489 203 546 
1169 135 529 264 549 
1170 276 271 502 567 
1171 293 517 487 578 
1172 32 550 496 610 
1173 85 84 526 561 
1174 121 120 122 569 
1175 279 509 278 528 
1176 117 563 532 581 
1177 32 595 550 610 
1178 99 100 101 588 
1179 32 496 33 610 
1180 277 108 95 604 
1181 145 288 138 542 
1182 195 507 197 560 
1183 495 545 59 583 
1184 480 558 160 577 
1185 507 560 195 587 
1186 118 270 105 502 
1187 470 548 329 571 
1188 471 526 489 607 
1189 523 557 184 605 
1190 303 551 490 572 
1191 431 419 442 590 
1192 225 248 247 577 
1193 499 563 491 588 
1194 282 101 104 499 
1195 141 139 140 538 
1196 28 53 484 540 
1197 505 560 198 574 
1198 104 103 111 499 
1199 303 307 490 551 
1200 35 512 368 565 
1201 495 516 458 525 
1202 323 267 268 478 
1203 119 157 151 528 
1204 227 193 492 605 
1205 512 552 34 602 
1206 131 130 132 488 
1207 131 488 132 579 
1208 23 475 67 584 
1209 273 55 544 568 
1210 473 461 534 600 
1211 88 90 472 592 
1212 310 308 178 589 
1213 347 73 378 525 
1214 127 125 124 597 
1215 180 490 246 536 
1216 448 499 498 569 
1217 501 558 458 577 
1218 307 246 490 536 
1219 468 528 499 569 
1220 88 526 87 592 
1221 198 197 199 560 
1222 453 519 475 564 
1223 224 501 387 577 
1224 503 540 365 568 
1225 521 556 444 591 
1226 143 168 325 485 
1227 93 539 522 604 
1228 265 529 317 549 
1229 245 304 180 517 
1230 33 506 65 610 
1231 431 467 427 590 
1232 183 353 226 523 
1233 379 78 346 537 
1234 397 403 399 512 
1235 315 289 284 539 
1236 118 276 502 596 
1237 455 472 526 561 
1238 162 269 263 553 
1239 358 386 504 576 
1240 313 587 491 588 
1241 159 285 182 491 
1242 383 377 260 550 
1243 340 544 55 568 
1244 501 558 350 565 
1245 311 265 317 549 
1246 425 426 424 500 
1247 25 24 56 584 
1248 176 288 145 542 
1249 113 105 510 596 
1250 166 547 493 582 
1251 285 491 563 588 
1252 30 474 57 550 
1253 151 477 187 572 
1254 160 179 147 480 
1255 301 309 506 570 
1256 184 523 183 557 
1257 431 427 467 537 
1258 517 572 464 578 
1259 257 535 191 536 
1260 67 518 475 609 
1261 92 106 105 510 
1262 455 489 526 607 
1263 80 240 79 609 
1264 191 239 237 497 
1265 294 538 152 603 
1266 465 553 524 600 
1267 208 325 321 547 
1268 320 26 540 568 
1269 272 273 203 546 
1270 76 35 368 565 
1271 339 319 199 543 
1272 340 55 320 568 
1273 90 522 472 592 
1274 32 66 33 496 
1275 77 512 34 602 
1276 115 150 279 581 
1277 425 427 467 590 
1278 135 264 265 549 
1279 285 563 295 588 
1280 370 442 431 441 
1281 120 151 290 572 
1282 279 150 509 581 
1283 461 530 474 541 
1284 261 67 554 584 
1285 395 413 351 525 
1286 56 365 25 568 
1287 454 502 472 580 
1288 196 195 560 587 
1289 84 155 250 561 
1290 365 540 371 568 
1291 501 516 400 525 
1292 209 321 359 547 
1293 470 538 141 573 
1294 80 201 240 575 
1295 291 498 175 533 
1296 303 490 304 572 
1297 151 157 186 477 
1298 245 154 134 517 
1299 250 155 251 486 
1300 460 514 474 550 
1301 286 255 527 575 
1302 186 477 555 583 
1303 170 153 154 514 
1304 75 79 240 483 
1305 183 523 168 557 
1306 423 335 417 500 
1307 538 557 142 573 
1308 381 495 59 583 
1309 264 529 265 549 
1310 436 417 335 590 
1311 474 514 457 566 
1312 463 513 504 594 
1313 262 220 385 608 
1314 307 222 246 536 
1315 320 27 505 540 
1316 486 567 462 594 
1317 494 600 478 606 
1318 478 549 539 606 
1319 28 27 53 540 
1320 164 327 208 582 
1321 485 548 325 573 
1322 506 552 496 610 
1323 304 303 307 490 
1324 275 493 276 596 
1325 75 483 240 586 
1326 103 499 102 563 
1327 93 284 522 539 
1328 429 435 428 527 
1329 183 523 184 605 
1330 281 280 248 509 
1331 397 396 512 565 
1332 420 424 432 576 
1333 301 309 212 506 
1334 457 511 484 566 
1335 274 489 273 544 
1336 425 467 427 513 
1337 477 551 187 572 
1338 103 102 115 563 
1339 207 231 169 570 
1340 452 471 544 556 
1341 85 526 86 561 
1342 31 550 32 595 
1343 81 508 64 546 
1344 23 475 546 609 
1345 23 67 475 609 
1346 67 22 518 609 
1347 471 452 544 574 
1348 328 342 73 495 
1349 388 410 414 545 
1350 469 522 591 599 
1351 23 22 67 609 
1352 450 469 522 591 
1353 476 503 452 540 
1354 352 60 253 562 
1355 454 502 493 596 
1356 475 455 519 546 
1357 129 162 263 553 
1358 63 335 423 500 
1359 466 585 262 608 
1360 478 488 553 579 
1361 228 78 379 518 
1362 396 35 409 512 
1363 214 166 213 493 
1364 282 104 291 533 
1365 288 299 585 608 
1366 471 543 297 592 
1367 234 505 198 574 
1368 310 206 308 511 
1369 493 547 485 582 
1370 113 510 114 596 
1371 131 553 488 579 
1372 96 97 95 494 
1373 62 348 394 535 
1374 400 401 405 516 
1375 64 546 508 609 
1376 92 106 510 522 
1377 80 508 201 575 
1378 317 258 329 571 
1379 85 86 84 561 
1380 411 406 394 545 
1381 349 59 545 583 
1382 438 58 416 504 
1383 491 587 473 588 
1384 465 473 534 600 
1385 169 158 159 532 
1386 370 441 431 537 
1387 351 413 61 525 
1388 444 556 519 607 
1389 250 486 251 575 
1390 288 152 538 585 
1391 252 486 155 561 
1392 335 417 500 590 
1393 348 384 221 545 
1394 243 244 366 602 
1395 272 24 273 584 
1396 227 590 355 605 
1397 438 334 58 504 
1398 455 508 486 561 
1399 262 466 56 584 
1400 202 547 166 582 
1401 458 516 501 525 
1402 74 504 422 562 
1403 285 313 182 491 
1404 232 395 351 501 
1405 450 522 469 539 
1406 475 519 453 554 
1407 538 557 453 603 
1408 262 554 466 584 
1409 132 130 283 488 
1410 226 168 183 523 
1411 292 269 318 524 
1412 281 280 509 555 
1413 311 165 289 571 
1414 503 542 482 608 
1415 259 496 32 550 
1416 475 508 455 546 
1417 470 454 548 599 
1418 349 381 59 583 
1419 62 384 348 535 
1420 451 482 529 598 
1421 492 554 453 603 
1422 110 507 326 587 
1423 470 529 482 598 
1424 118 276 271 502 
1425 23 546 64 609 
1426 497 535 449 536 
1427 459 595 570 610 
1428 414 401 406 545 
1429 252 251 155 486 
1430 142 152 294 538 
1431 479 560 505 574 
1432 194 215 492 603 
1433 489 556 471 607 
1434 538 585 152 603 
1435 473 533 499 588 
1436 414 405 401 495 
1437 23 546 475 584 
1438 195 326 197 507 
1439 30 550 31 595 
1440 28 484 372 541 
1441 126 303 304 572 
1442 128 125 127 597 
1443 186 157 204 555 
1444 400 501 398 516 
1445 492 184 557 605 
1446 462 483 527 575 
1447 446 478 600 606 
1448 121 498 291 569 
1449 309 241 242 506 
1450 110 587 313 588 
1451 350 70 501 565 
1452 492 557 523 605 
1453 421 314 356 527 
1454 180 246 174 536 
1455 470 548 571 599 
1456 499 533 498 569 
1457 248 509 150 581 
1458 239 408 391 535 
1459 454 571 548 599 
1460 489 519 466 556 
1461 387 525 249 577 
1462 244 552 481 602 
1463 473 461 507 587 
1464 29 374 30 541 
1465 469 510 522 599 
1466 261 23 67 584 
1467 210 325 548 573 
1468 320 505 234 574 
1469 454 472 510 580 
1470 119 528 120 569 
1471 182 491 313 587 
1472 107 99 282 533 
1473 489 544 471 556 
1474 376 496 259 550 
1475 116 117 115 563 
1476 234 198 505 560 
1477 92 284 106 522 
1478 580 591 472 599 
1479 326 507 195 587 
1480 298 326 110 507 
1481 123 578 124 597 
1482 487 515 457 589 
1483 289 114 510 571 
1484 96 494 95 604 
1485 147 532 480 581 
1486 205 509 280 555 
1487 354 74 333 504 
1488 444 591 580 599 
1489 255 286 251 575 
1490 234 505 302 560 
1491 158 532 169 570 
1492 330 209 359 576 
1493 276 493 214 567 
1494 234 302 198 560 
1495 425 431 427 590 
1496 439 331 420 576 
1497 446 600 494 606 
1498 519 580 564 593 
1499 320 27 68 505 
1500 279 150 280 509 
1501 203 273 274 489 
1502 235 312 219 566 
1503 471 450 543 591 
1504 357 527 69 586 
1505 319 200 199 574 
1506 350 501 211 558 
1507 402 497 391 535 
1508 474 530 459 595 
1509 387 249 225 577 
1510 281 205 280 555 
1511 479 505 452 574 
1512 473 524 494 600 
1513 192 590 500 605 
1514 166 493 275 582 
1515 436 335 336 590 
1516 522 539 450 604 
1517 274 273 55 544 
1518 375 190 238 481 
1519 304 307 180 490 
1520 279 280 278 509 
1521 200 198 199 574 
1522 449 551 545 583 
1523 519 556 489 607 
1524 248 280 150 509 
1525 473 465 533 600 
1526 470 538 573 593 
1527 262 466 554 585 
1528 33 241 65 506 
1529 241 506 33 552 
1530 406 535 394 545 
1531 471 591 592 607 
1532 472 592 591 607 
1533 440 74 422 562 
1534 377 383 218 514 
1535 111 279 278 528 
1536 455 526 472 607 
1537 532 563 468 581 
1538 175 291 121 498 
1539 489 519 455 546 
1540 488 515 511 601 
1541 72 379 346 590 
1542 453 573 538 593 
1543 466 519 489 584 
1544 242 350 558 565 
1545 188 221 551 583 
1546 455 472 580 607 
1547 191 257 239 535 
1548 328 59 381 495 
1549 243 552 244 602 
1550 288 299 152 585 
1551 543 591 450 592 
1552 194 216 215 603 
1553 511 515 457 601 
1554 358 58 386 576 
1555 427 429 428 513 
1556 158 301 160 570 
1557 353 63 226 500 
1558 268 315 539 549 
1559 58 416 504 576 
1560 213 386 354 504 
1561 362 67 22 518 
1562 27 320 26 540 
1563 164 208 547 582 
1564 456 512 497 602 
1565 381 555 495 583 
1566 148 206 167 511 
1567 87 88 86 526 
1568 257 246 222 536 
1569 227 379 72 590 
1570 480 558 506 570 
1571 58 504 386 576 
1572 71 237 360 497 
1573 493 275 582 596 
1574 323 268 315 539 
1575 483 518 467 537 
1576 453 466 519 593 
1577 465 553 515 597 
1578 374 541 29 566 
1579 203 83 81 546 
1580 268 311 315 549 
1581 175 498 123 597 
1582 492 557 184 603 
1583 82 250 201 508 
1584 119 278 157 528 
1585 278 280 205 509 
1586 94 93 91 604 
1587 26 371 540 568 
1588 31 259 32 550 
1589 388 411 236 545 
1590 194 492 184 603 
1591 381 342 495 555 
1592 498 578 123 597 
1593 91 522 90 592 
1594 74 334 438 504 
1595 196 195 197 560 
1596 110 313 295 588 
1597 422 74 438 504 
1598 127 124 293 578 
1599 85 287 156 526 
1600 291 175 292 533 
1601 400 395 501 525 
1602 370 20 441 537 
1603 53 373 235 484 
1604 444 580 591 607 
1605 492 523 467 605 
1606 144 116 285 563 
1607 402 401 399 516 
1608 147 117 532 581 
1609 143 149 168 557 
1610 451 478 549 579 
1611 107 292 524 533 
1612 202 166 164 582 
1613 211 558 501 577 
1614 519 546 489 584 
1615 136 139 264 529 
1616 466 453 519 554 
1617 250 201 508 575 
1618 346 78 370 537 
1619 391 403 412 497 
1620 526 592 472 607 
1621 337 200 319 574 
1622 211 501 224 577 
1623 186 555 204 583 
1624 276 275 214 493 
1625 471 592 526 607 
1626 236 59 388 545 
1627 237 239 360 497 
1628 477 528 464 572 
1629 303 189 307 551 
1630 494 524 478 600 
1631 451 549 478 606 
1632 482 593 470 598 
1633 453 557 538 573 
1634 311 317 165 571 
1635 455 519 489 607 
1636 237 71 380 497 
1637 130 129 128 515 
1638 106 113 105 510 
1639 113 114 146 596 
1640 414 393 405 495 
1641 211 350 232 501 
1642 303 187 551 572 
1643 456 558 501 565 
1644 494 507 473 600 
1645 522 450 591 592 
1646 475 546 519 584 
1647 314 421 443 527 
1648 382 67 363 554 
1649 375 238 244 481 
1650 303 187 189 551 
1651 316 207 595 610 
1652 232 351 224 501 
1653 372 541 484 566 
1654 70 232 350 501 
1655 112 119 120 569 
1656 275 166 214 493 
1657 188 551 187 583 
1658 202 164 547 582 
1659 464 517 490 572 
1660 529 571 469 599 
1661 128 515 129 597 
1662 244 238 366 602 
1663 306 515 133 589 
1664 81 80 64 508 
1665 276 214 333 567 
1666 466 453 585 593 
1667 149 183 168 557 
1668 244 481 238 602 
1669 591 598 469 599 
1670 183 192 353 605 
1671 269 162 267 553 
1672 454 485 548 582 
1673 228 67 362 518 
1674 470 571 529 599 
1675 403 391 402 497 
1676 147 117 144 532 
1677 54 341 322 530 
1678 451 549 529 579 
1679 314 255 356 527 
1680 125 123 124 597 
1681 66 259 376 496 
1682 188 545 221 583 
1683 29 30 54 541 
1684 30 57 31 550 
1685 450 478 539 606 
1686 262 585 364 608 
1687 351 61 387 525 
1688 102 499 101 588 
1689 449 545 495 583 
1690 70 404 501 565 
1691 66 244 243 552 
1692 381 204 555 583 
1693 472 591 580 607 
1694 417 424 423 500 
1695 194 215 193 492 
1696 252 155 256 561 
1697 240 357 69 586 
1698 186 188 187 583 
1699 287 274 337 544 
1700 386 58 334 504 
1701 78 518 21 537 
1702 466 585 482 593 
1703 297 543 296 592 
1704 26 365 371 568 
1705 306 128 133 515 
1706 126 517 293 578 
1707 469 598 529 599 
1708 506 570 309 610 
1709 88 87 89 592 
1710 192 500 353 605 
1711 172 174 173 520 
1712 457 514 487 589 
1713 304 293 126 517 
1714 475 519 554 584 
1715 333 74 332 562 
1716 444 598 591 599 
1717 332 74 440 562 
1718 101 102 103 499 
1719 254 252 271 567 
1720 316 231 207 610 
1721 305 152 585 603 
1722 289 165 114 571 
1723 471 591 543 592 
1724 519 564 453 593 
1725 55 273 25 568 
1726 324 54 233 541 
1727 529 598 470 599 
1728 261 67 382 554 
1729 64 508 80 609 
1730 232 224 211 501 
1731 380 237 497 602 
1732 181 185 322 530 
1733 34 77 35 512 
1734 137 145 138 542 
1735 266 553 131 579 
1736 372 28 53 484 
1737 88 89 90 592 
1738 69 527 443 586 
1739 22 21 518 609 
1740 329 548 163 571 
1741 340 320 234 574 
1742 108 539 93 604 
1743 524 533 465 600 
1744 430 426 428 513 
1745 348 236 411 545 
1746 12 388 59 410 
1747 327 210 325 548 
1748 194 193 184 492 
1749 473 533 524 600 
1750 453 485 557 573 
1751 192 355 590 605 
1752 66 32 259 496 
1753 220 262 364 608 
1754 209 330 358 576 
1755 96 94 109 604 
1756 163 548 327 582 
1757 314 443 69 527 
1758 233 196 302 560 
1759 331 330 359 576 
1760 326 338 197 507 
1761 23 272 64 546 
1762 91 92 90 522 
1763 266 135 549 579 
1764 456 552 512 602 
1765 291 104 112 569 
1766 177 503 229 608 
1767 22 21 362 518 
1768 107 277 97 524 
1769 444 593 482 598 
1770 314 286 255 527 
1771 306 130 128 515 
1772 490 551 477 572 
1773 415 427 537 586 
1774 189 221 222 551 
1775 65 32 33 610 
1776 326 298 338 507 
1777 123 175 121 498 
1778 266 135 265 549 
1779 439 330 331 576 
1780 361 408 239 535 
1781 456 481 552 602 
1782 362 21 78 518 
1783 466 453 554 585 
1784 480 532 468 581 
1785 374 29 372 566 
1786 102 563 499 588 
1787 118 275 276 596 
1788 231 309 570 610 
1789 362 78 228 518 
1790 458 525 501 577 
1791 104 111 112 569 
1792 342 328 381 495 
1793 452 540 503 568 
1794 467 523 500 605 
1795 380 512 77 602 
1796 263 175 123 597 
1797 487 578 498 597 
1798 245 134 293 517 
1799 93 284 92 522 
1800 262 261 554 584 
1801 380 345 77 512 
1802 396 409 397 512 
1803 173 171 172 520 
1804 381 204 342 555 
1805 184 492 193 605 
1806 265 264 317 529 
1807 510 571 454 599 
1808 324 28 29 541 
1809 256 86 88 561 
1810 286 527 357 575 
1811 164 163 327 582 
1812 217 173 375 520 
1813 264 139 258 529 
1814 285 116 295 563 
1815 161 176 145 542 
1816 28 372 29 541 
1817 220 229 385 608 
1818 252 254 253 567 
1819 426 425 427 513 
1820 267 162 266 553 
1821 510 580 472 599 
1822 464 569 498 578 
1823 441 20 415 537 
1824 93 108 284 539 
1825 128 129 125 597 
1826 515 553 465 601 
1827 466 554 519 584 
1828 235 372 484 566 
1829 106 289 114 510 
1830 368 396 389 565 
1831 482 538 470 593 
1832 488 553 515 601 
1833 305 294 152 603 
1834 272 546 23 584 
1835 482 585 466 608 
1836 148 145 137 542 
1837 185 182 195 587 
1838 390 347 413 525 
1839 70 404 232 501 
1840 372 53 235 484 
1841 261 262 56 584 
1842 256 270 271 502 
1843 469 549 529 598 
1844 232 404 395 501 
1845 453 585 538 603 
1846 121 291 112 569 
1847 107 282 292 533 
1848 376 259 260 550 
1849 166 275 146 582 
1850 106 114 113 510 
1851 148 161 145 542 
1852 236 349 59 545 
1853 437 39 356 421 
1854 192 355 336 590 
1855 346 419 72 590 
1856 165 163 114 571 
1857 104 101 103 499 
1858 353 192 335 500 
1859 397 389 396 565 
1860 470 598 593 599 
1861 544 556 489 568 
1862 320 68 234 505 
1863 377 218 170 514 
1864 398 400 395 501 
1865 451 529 549 598 
1866 254 352 253 567 
1867 210 143 325 573 
1868 367 537 75 586 
1869 264 258 317 529 
1870 153 514 178 589 
1871 65 506 309 610 
1872 227 72 355 590 
1873 444 593 598 599 
1874 337 544 340 574 
1875 433 69 443 586 
1876 29 541 372 566 
1877 133 134 153 589 
1878 454 493 582 596 
1879 174 191 190 536 
1880 288 152 140 538 
1881 425 500 417 590 
1882 93 92 91 522 
1883 332 352 333 562 
1884 61 413 347 525 
1885 189 188 221 551 
1886 380 238 237 602 
1887 217 171 173 520 
1888 510 454 580 599 
1889 357 240 201 575 
1890 444 580 593 599 
1891 248 150 247 581 
1892 455 564 519 580 
1893 141 538 142 573 
1894 236 545 188 583 
1895 146 582 275 596 
1896 170 178 153 514 
1897 388 411 13 236 
1898 89 297 296 592 
1899 390 400 405 525 
1900 176 299 288 608 
1901 316 595 32 610 
1902 266 162 131 553 
1903 307 189 222 551 
1904 142 294 149 557 
1905 434 435 418 562 
1906 358 202 209 547 
1907 200 234 198 574 
1908 335 49 417 436 
1909 129 131 162 553 
1910 292 318 107 524 
1911 364 585 554 603 
1912 188 236 221 545 
1913 364 554 216 603 
1914 234 68 302 505 
1915 492 453 557 603 
1916 461 560 507 587 
1917 229 177 230 503 
1918 89 296 91 592 
1919 399 400 398 516 
1920 118 105 113 596 
1921 257 191 246 536 
1922 158 147 144 532 
1923 424 417 425 500 
1924 294 184 557 603 
1925 149 184 183 557 
1926 416 430 504 576 
1927 207 530 341 595 
1928 313 110 326 587 
1929 402 391 408 535 
1930 159 158 144 532 
1931 297 319 339 543 
1932 207 181 322 530 
1933 219 218 223 566 
1934 367 20 75 537 
1935 236 349 545 583 
1936 202 164 208 547 
1937 419 431 425 590 
1938 364 216 305 603 
1939 364 305 585 603 
1940 409 35 369 512 
1941 229 230 365 503 
1942 262 554 364 585 
1943 296 339 109 543 
1944 21 75 20 537 
1945 341 207 322 530 
1946 295 563 102 588 
1947 286 314 357 527 
1948 177 229 220 608 
1949 135 132 136 579 
1950 406 402 394 535 
1951 89 87 297 592 
1952 404 398 501 565 
1953 369 392 409 512 
1954 85 156 87 526 
1955 102 295 116 563 
1956 276 254 271 567 
1957 316 31 32 595 
1958 438 416 430 504 
1959 230 373 53 540 
1960 58 439 416 576 
1961 337 340 200 574 
1962 407 73 9 347 
1963 352 254 333 567 
1964 63 353 335 500 
1965 231 65 309 610 
1966 310 312 167 511 
1967 400 413 395 525 
1968 121 112 120 569 
1969 334 44 438 58 
1970 239 16 391 408 
1971 444 580 519 593 
1972 46 439 331 420 
1973 371 27 26 540 
1974 482 585 538 593 
1975 508 546 475 609 
1976 81 82 80 508 
1977 444 521 591 598 
1978 331 47 420 423 
1979 431 415 427 537 
1980 390 8 413 347 
1981 391 360 16 239 
1982 271 270 118 502 
1983 309 65 241 506 
1984 89 91 90 592 
1985 111 278 119 528 
1986 440 418 41 562 
1987 225 247 179 577 
1988 443 527 429 586 
1989 417 423 48 335 
1990 66 243 33 552 
1991 395 6 232 351 
1992 390 407 9 347 
1993 44 438 58 416 
1994 189 187 188 551 
1995 367 415 537 586 
1996 43 438 74 334 
1997 348 13 411 236 
1998 64 272 81 546 
1999 367 415 20 537 
2000 102 116 115 563 
2001 165 329 163 571 
2002 294 194 184 603 
2003 304 245 293 517 
2004 418 40 60 437 
2005 369 345 392 512 
2006 141 140 142 538 
2007 306 133 308 589 
2008 361 62 394 535 
2009 361 394 408 535 
2010 115 117 150 581 
2011 87 86 85 526 
2012 291 292 282 533 
2013 123 122 124 578 
2014 436 335 49 336 
2015 43 438 422 74 
2016 382 363 216 554 
2017 61 413 8 347 
2018 422 438 430 504 
2019 423 63 48 335 
2020 38 443 314 421 
2021 51 419 346 442 
2022 205 281 342 555 
2023 422 440 42 74 
2024 368 389 344 565 
2025 323 315 108 539 
2026 236 188 349 583 
2027 398 389 397 565 
2028 58 330 439 576 
2029 26 320 55 568 
2030 203 81 272 546 
2031 290 151 187 572 
2032 22 79 21 609 
2033 341 30 31 595 
2034 107 318 277 524 
2035 69 433 343 586 
2036 12 388 236 59 
2037 208 321 209 547 
2038 310 167 206 511 
2039 250 251 286 575 
2040 268 266 265 549 
2041 183 184 192 605 
2042 503 556 452 568 
2043 70 389 404 565 
2044 124 126 293 578 
2045 356 39 314 421 
2046 95 108 93 604 
2047 47 331 63 423 
2048 126 290 303 572 
2049 100 102 101 588 
2050 327 163 329 548 
2051 301 231 309 570 
2052 437 40 60 356 
2053 441 415 431 537 
2054 74 354 334 504 
2055 170 218 178 514 
2056 268 265 311 549 
2057 425 417 436 590 
2058 24 272 23 584 
2059 386 334 354 504 
2060 23 64 22 609 
2061 80 82 201 508 
2062 415 429 427 586 
2063 388 414 406 545 
2064 317 329 165 571 
2065 439 330 46 331 
2066 262 261 382 554 
2067 70 344 389 565 
2068 327 329 210 548 
2069 500 590 467 605 
2070 534 600 446 601 
2071 350 242 70 565 
2072 416 432 430 576 
2073 301 158 169 570 
2074 538 585 453 593 
2075 421 429 443 527 
2076 452 556 544 568 
2077 230 53 371 540 
2078 45 58 439 416 
2079 440 332 42 74 
2080 324 29 54 541 
2081 16 239 361 408 
2082 443 69 38 314 
2083 421 435 429 527 
2084 276 333 254 567 
2085 241 33 34 552 
2086 440 41 332 562 
2087 388 406 411 545 
2088 455 580 519 607 
2089 522 591 472 592 
2090 77 345 369 512 
2091 129 263 125 597 
2092 60 41 418 562 
2093 243 366 77 602 
2094 221 236 348 545 
2095 157 205 204 555 
2096 212 242 350 558 
2097 296 297 339 543 
2098 164 146 163 582 
2099 108 315 284 539 
2100 69 37 433 443 
2101 396 35 1 409 
2102 174 246 191 536 
2103 347 378 249 525 
2104 399 401 400 516 
2105 110 295 100 588 
2106 20 78 21 537 
2107 384 62 257 535 
2108 45 58 330 439 
2109 433 367 343 586 
2110 193 227 355 605 
2111 413 7 351 61 
2112 266 131 135 579 
2113 381 349 204 583 
2114 395 404 398 501 
2115 143 141 142 573 
2116 69 357 314 527 
2117 160 212 211 558 
2118 176 177 220 608 
2119 465 600 534 601 
2120 343 240 69 586 
2121 274 55 340 544 
2122 343 75 240 586 
2123 18 345 71 412 
2124 419 436 50 590 
2125 408 361 15 394 
2126 149 294 184 557 
2127 394 361 15 62 
2128 247 117 147 581 
2129 210 141 143 573 
2130 444 519 580 607 
2131 124 122 126 578 
2132 140 152 142 538 
2133 433 443 429 586 
2134 196 197 198 560 
2135 76 368 344 565 
2136 392 403 397 512 
2137 364 382 216 554 
2138 61 249 387 525 
2139 351 395 7 413 
2140 389 368 3 396 
2141 404 389 398 565 
2142 440 422 434 562 
2143 202 208 209 547 
2144 153 178 308 589 
2145 20 2 441 415 
2146 58 358 330 576 
2147 155 84 86 561 
2148 78 20 370 537 
2149 77 369 35 512 
2150 262 382 364 554 
2151 61 347 249 525 
2152 369 19 409 392 
2153 57 383 260 550 
2154 166 146 164 582 
2155 200 340 234 574 
2156 469 571 510 599 
2157 242 76 344 565 
2158 182 313 195 587 
2159 343 37 433 69 
2160 274 340 337 544 
2161 6 395 232 404 
2162 204 205 342 555 
2163 196 198 302 560 
2164 263 123 125 597 
2165 390 413 400 525 
2166 131 132 135 579 
2167 60 332 41 562 
2168 374 372 223 566 
2169 409 392 397 512 
2170 96 95 94 604 
2171 349 186 204 583 
2172 51 419 72 346 
2173 70 242 344 565 
2174 299 305 152 585 
2175 453 554 585 603 
2176 361 239 257 535 
2177 261 56 24 584 
2178 345 18 392 412 
2179 57 259 31 550 
2180 419 50 72 590 
2181 301 169 231 570 
2182 33 243 34 552 
2183 290 187 303 572 
2184 408 394 402 535 
2185 313 326 195 587 
2186 27 371 53 540 
2187 439 420 432 576 
2188 336 50 436 590 
2189 370 52 442 441 
2190 392 369 19 345 
2191 344 368 3 389 
2192 155 86 256 561 
2193 184 193 192 605 
2194 415 367 433 586 
2195 343 433 36 367 
2196 57 260 259 550 
2197 235 219 223 566 
2198 257 62 361 535 
2199 100 295 102 588 
2200 176 220 299 608 
2201 366 380 77 602 
2202 316 207 341 595 
2203 55 25 26 568 
2204 113 146 275 596 
2205 428 426 427 513 
2206 211 224 179 577 
2207 201 250 286 575 
2208 212 350 211 558 
2209 314 39 38 421 
2210 95 93 94 604 
2211 344 4 70 389 
2212 412 360 17 391 
2213 352 332 60 562 
2214 367 75 343 586 
2215 336 72 50 590 
2216 417 48 49 335 
2217 20 2 415 367 
2218 247 150 117 581 
2219 153 308 133 589 
2220 261 24 23 584 
2221 409 35 1 369 
2222 60 41 40 418 
2223 235 223 372 566 
2224 368 35 1 396 
2225 17 71 360 412 
2226 20 2 370 441 
2227 25 365 26 568 
2228 42 43 422 74 
2229 201 286 357 575 
2230 32 65 316 610 
2231 4 404 70 389 
2232 433 415 36 367 
2233 349 188 186 583 
2234 13 12 388 236 
2235 194 294 305 603 
2236 225 224 387 577 
2237 9 8 390 347 
2238 316 65 231 610 
2239 118 113 275 596 
2240 331 47 46 420 
2241 238 380 366 602 
2242 328 10 11 393 
2243 418 440 434 562 
2244 194 305 216 603 
2245 64 80 79 609 
2246 433 429 415 586 
2247 31 316 341 595 
2248 355 192 193 605 
2249 404 232 5 70 
2250 442 346 52 370 
2251 15 14 394 62 
2252 419 425 436 590 
2253 419 50 51 72 
2254 58 45 44 416 
2255 224 225 179 577 
2256 395 7 6 351 
2257 48 47 63 423 
2258 299 364 305 585 
2259 64 79 22 609 
2260 439 432 416 576 
2261 19 18 392 345 
2262 336 355 72 590 
2263 16 17 360 391 
2264 59 11 12 410 
2265 46 45 330 439 
2266 433 36 37 343 
2267 232 5 6 404 
2268 38 37 69 443 
2269 438 43 44 334 
2270 73 9 10 407 
2271 404 5 4 70 
2272 346 52 51 442 
2273 344 3 4 389 
2274 14 13 411 348 
2275 1 19 409 369 
2276 49 50 436 336 
2277 370 2 52 441 
2278 415 2 36 367 
2279 332 42 41 440 
2280 17 18 71 412 
2281 8 7 413 61 
2282 15 16 361 408 
2283 368 1 3 396 
2284 39 40 437 356 
2285 530 169 159 459 
2286 530 159 169 181 
2287 521 471 543 452 
2288 543 471 521 450 
2289 543 479 521 452 
2290 521 479 543 450 
2291 570 496 445 459 
2292 570 445 496 506 
2293 562 435 428 434 
2294 428 435 562 462 
2295 428 513 562 434 
2296 562 513 428 462 
2297 560 484 446 505 
2298 560 446 484 461 
2299 430 432 463 576 
2300 430 504 463 513 
2301 463 504 430 576 
2302 499 531 563 468 
2303 563 531 499 448 
2304 426 463 430 432 
2305 426 430 463 513 
2306 509 559 480 458 
2307 480 559 509 445 
2308 520 180 517 172 
2309 520 517 180 490 
2310 528 531 569 468 
2311 569 531 528 464 
2312 423 331 500 420 
2313 423 500 331 63 
2314 597 269 553 263 
2315 597 553 269 465 
2316 566 310 312 219 
2317 566 312 310 511 
2318 574 544 319 337 
2319 574 319 544 471 
2320 156 319 544 337 
2321 156 544 319 471 
2322 511 283 306 488 
2323 511 306 283 206 
2324 512 71 380 345 
2325 512 380 71 497 
2326 393 73 10 407 
2327 393 10 73 328 
2328 512 412 403 497 
2329 512 403 412 392 
2330 548 208 325 327 
2331 548 325 208 485 
2332 513 523 500 467 
2333 500 523 513 463 
2334 518 537 609 21 
2335 518 609 537 483 
2336 79 609 537 21 
2337 79 537 609 483 
2338 363 603 215 216 
2339 215 603 363 492 
2340 593 556 519 444 
2341 593 519 556 466 
2342 517 531 487 464 
2343 487 531 517 460 
2344 562 430 422 434 
2345 562 422 430 504 
2346 537 442 590 431 
2347 537 590 442 346 
2348 376 520 550 217 
2349 550 520 376 496 
2350 393 59 11 328 
2351 393 11 59 410 
2352 581 458 248 509 
2353 581 248 458 577 
2354 178 566 218 219 
2355 218 566 178 514 
2356 407 347 525 73 
2357 525 347 407 390 
2358 549 598 606 451 
2359 606 598 549 469 
2360 394 545 348 411 
2361 348 545 394 535 
2362 568 340 574 320 
2363 568 574 340 544 
2364 212 570 160 301 
2365 160 570 212 558 
2366 599 522 472 510 
2367 599 472 522 591 
2368 296 604 109 94 
2369 109 604 296 543 
2370 540 365 230 503 
2371 540 230 365 371 
2372 127 589 134 133 
2373 134 589 127 487 
2374 588 285 313 295 
2375 588 313 285 491 
2376 563 144 117 532 
2377 563 117 144 116 
2378 160 577 211 179 
2379 211 577 160 558 
2380 578 121 123 122 
2381 578 123 121 498 
2382 586 357 483 240 
2383 586 483 357 527 
2384 610 550 459 595 
2385 610 459 550 496 
2386 34 602 243 77 
2387 243 602 34 552 
2388 573 593 564 470 
2389 564 593 573 453 
2390 506 212 242 309 
2391 506 242 212 558 
2392 590 335 192 500 
2393 590 192 335 336 
2394 569 119 111 112 
2395 569 111 119 528 
2396 143 557 142 149 
2397 143 142 557 573 
2398 394 348 14 411 
2399 14 348 394 62 
2400 364 608 299 220 
2401 299 608 364 585 
$EndElements
